  0
SECTION
  2
HEADER
  9
$ACADVER
  1
AC1014
  9
$HANDSEED
  5
FFFF
  9
$MEASUREMENT
 70
     1
  0
ENDSEC
  0
SECTION
  2
TABLES
  0
TABLE
  2
VPORT
  5
8
330
0
100
AcDbSymbolTable
 70
     4
  0
VPORT
  5
2E
330
8
100
AcDbSymbolTableRecord
100
AcDbViewportTableRecord
  2
*ACTIVE
 70
     0
 10
0.0
 20
0.0
 11
1.0
 21
1.0
 12
210.0
 22
148.5
 13
0.0
 23
0.0
 14
10.0
 24
10.0
 15
10.0
 25
10.0
 16
0.0
 26
0.0
 36
1.0
 17
0.0
 27
0.0
 37
0.0
 40
341.0
 41
1.24
 42
50.0
 43
0.0
 44
0.0
 50
0.0
 51
0.0
 71
     0
 72
   100
 73
     1
 74
     3
 75
     0
 76
     0
 77
     0
 78
     0
  0
ENDTAB
  0
TABLE
  2
LTYPE
  5
5
330
0
100
AcDbSymbolTable
 70
     1
  0
LTYPE
  5
14
330
5
100
AcDbSymbolTableRecord
100
AcDbLinetypeTableRecord
  2
BYBLOCK
 70
     0
  3

 72
    65
 73
     0
 40
0.0
  0
LTYPE
  5
15
330
5
100
AcDbSymbolTableRecord
100
AcDbLinetypeTableRecord
  2
BYLAYER
 70
     0
  3

 72
    65
 73
     0
 40
0.0
  0
LTYPE
  5
16
330
5
100
AcDbSymbolTableRecord
100
AcDbLinetypeTableRecord
  2
CONTINUOUS
 70
     0
  3
Solid line
 72
    65
 73
     0
 40
0.0
  0
ENDTAB
  0
TABLE
  2
LAYER
  5
2
100
AcDbSymbolTable
 70
2
  0
LAYER
  5
50
100
AcDbSymbolTableRecord
100
AcDbLayerTableRecord
  2
0
 70
0
  6
CONTINUOUS
  0
LAYER
  5
51
100
AcDbSymbolTableRecord
100
AcDbLayerTableRecord
  2
Capa_1
 70
0
  6
CONTINUOUS
  0
ENDTAB
  0
TABLE
  2
STYLE
  5
3
330
0
100
AcDbSymbolTable
 70
     1
  0
STYLE
  5
11
330
3
100
AcDbSymbolTableRecord
100
AcDbTextStyleTableRecord
  2
STANDARD
 70
     0
 40
0.0
 41
1.0
 50
0.0
 71
     0
 42
2.5
  3
txt
  4

  0
ENDTAB
  0
TABLE
  2
VIEW
  5
6
330
0
100
AcDbSymbolTable
 70
     0
  0
ENDTAB
  0
TABLE
  2
UCS
  5
7
330
0
100
AcDbSymbolTable
 70
     0
  0
ENDTAB
  0
TABLE
  2
APPID
  5
9
330
0
100
AcDbSymbolTable
 70
     2
  0
APPID
  5
12
330
9
100
AcDbSymbolTableRecord
100
AcDbRegAppTableRecord
  2
ACAD
 70
     0
  0
ENDTAB
  0
TABLE
  2
DIMSTYLE
  5
A
330
0
100
AcDbSymbolTable
 70
     1
  0
DIMSTYLE
105
27
330
A
100
AcDbSymbolTableRecord
100
AcDbDimStyleTableRecord
  2
ISO-25
 70
     0
  3

  4

  5

  6

  7

 40
1.0
 41
2.5
 42
0.625
 43
3.75
 44
1.25
 45
0.0
 46
0.0
 47
0.0
 48
0.0
140
2.5
141
2.5
142
0.0
143
0.03937007874016
144
1.0
145
0.0
146
1.0
147
0.625
 71
     0
 72
     0
 73
     0
 74
     0
 75
     0
 76
     0
 77
     1
 78
     8
170
     0
171
     3
172
     1
173
     0
174
     0
175
     0
176
     0
177
     0
178
     0
270
     2
271
     2
272
     2
273
     2
274
     3
340
11
275
     0
280
     0
281
     0
282
     0
283
     0
284
     8
285
     0
286
     0
287
     3
288
     0
  0
ENDTAB
  0
TABLE
  2
BLOCK_RECORD
  5
1
330
0
100
AcDbSymbolTable
 70
     1
  0
BLOCK_RECORD
  5
1F
330
1
100
AcDbSymbolTableRecord
100
AcDbBlockTableRecord
  2
*MODEL_SPACE
  0
BLOCK_RECORD
  5
1B
330
1
100
AcDbSymbolTableRecord
100
AcDbBlockTableRecord
  2
*PAPER_SPACE
  0
ENDTAB
  0
ENDSEC
  0
SECTION
  2
BLOCKS
  0
BLOCK
  5
20
330
1F
100
AcDbEntity
  8
0
100
AcDbBlockBegin
  2
*MODEL_SPACE
 70
     0
 10
0.0
 20
0.0
 30
0.0
  3
*MODEL_SPACE
  1

  0
ENDBLK
  5
21
330
1F
100
AcDbEntity
  8
0
100
AcDbBlockEnd
  0
BLOCK
  5
1C
330
1B
100
AcDbEntity
 67
     1
  8
0
100
AcDbBlockBegin
  2
*PAPER_SPACE
  1

  0
ENDBLK
  5
1D
330
1B
100
AcDbEntity
 67
     1
  8
0
100
AcDbBlockEnd
  0
ENDSEC
  0
SECTION
  2
ENTITIES
  0
LWPOLYLINE
  5
100
100
AcDbEntity
  8
Capa_1
 62
7
100
AcDbPolyline
 90
57
 70
0
 10
140.228568
 20
261.293124
 30
0.0
 10
149.633080
 20
281.113708
 30
0.0
 10
155.004032
 20
291.513708
 30
0.0
 10
166.680744
 20
304.284524
 30
0.0
 10
175.828568
 20
310.862340
 30
0.0
 10
192.228568
 20
319.742900
 30
0.0
 10
195.760160
 20
321.389524
 30
0.0
 10
199.647424
 20
321.081764
 30
0.0
 10
203.315824
 20
321.684740
 30
0.0
 10
206.141848
 20
324.884740
 30
0.0
 10
211.716768
 20
329.914268
 30
0.0
 10
216.454144
 20
333.714268
 30
0.0
 10
223.428568
 20
339.714268
 30
0.0
 10
230.550368
 20
345.714268
 30
0.0
 10
239.273448
 20
353.714268
 30
0.0
 10
248.522584
 20
361.714268
 30
0.0
 10
270.460504
 20
348.405900
 30
0.0
 10
271.466256
 20
345.359676
 30
0.0
 10
267.892256
 20
342.846644
 30
0.0
 10
263.817264
 20
340.692868
 30
0.0
 10
259.417264
 20
338.011292
 30
0.0
 10
253.692560
 20
335.370372
 30
0.0
 10
249.737176
 20
333.204148
 30
0.0
 10
234.083848
 20
325.363108
 30
0.0
 10
230.593744
 20
323.672308
 30
0.0
 10
235.494512
 20
322.554060
 30
0.0
 10
241.648512
 20
323.878068
 30
0.0
 10
245.076656
 20
325.804124
 30
0.0
 10
246.603560
 20
327.314268
 30
0.0
 10
257.996176
 20
333.841660
 30
0.0
 10
261.638488
 20
335.314268
 30
0.0
 10
269.730400
 20
338.514268
 30
0.0
 10
277.333944
 20
341.714268
 30
0.0
 10
283.874432
 20
344.511804
 30
0.0
 10
290.137992
 20
347.311804
 30
0.0
 10
310.628568
 20
356.969356
 30
0.0
 10
316.628568
 20
360.003132
 30
0.0
 10
335.028568
 20
369.677172
 30
0.0
 10
354.628568
 20
379.193532
 30
0.0
 10
387.028568
 20
389.178204
 30
0.0
 10
398.628568
 20
392.907092
 30
0.0
 10
411.428568
 20
397.328284
 30
0.0
 10
421.546968
 20
401.165996
 30
0.0
 10
423.516536
 20
401.714268
 30
0.0
 10
425.983208
 20
403.199500
 30
0.0
 10
443.378424
 20
395.641300
 30
0.0
 10
454.285992
 20
362.843004
 30
0.0
 10
455.794912
 20
355.714268
 30
0.0
 10
457.317256
 20
351.914268
 30
0.0
 10
458.958216
 20
349.714268
 30
0.0
 10
460.542976
 20
348.448836
 30
0.0
 10
461.028568
 20
303.248836
 30
0.0
 10
461.028568
 20
259.314268
 30
0.0
 10
300.628568
 20
259.314268
 30
0.0
 10
140.228568
 20
259.314268
 30
0.0
 10
140.228568
 20
261.293124
 30
0.0
 10
140.228568
 20
261.293124
 30
0.0
  0
LWPOLYLINE
  5
101
100
AcDbEntity
  8
Capa_1
 62
7
100
AcDbPolyline
 90
56
 70
0
 10
293.828568
 20
380.193412
 30
0.0
 10
280.733592
 20
384.529068
 30
0.0
 10
281.276120
 20
386.372604
 30
0.0
 10
290.996944
 20
388.909804
 30
0.0
 10
298.196944
 20
391.259724
 30
0.0
 10
306.628568
 20
394.599796
 30
0.0
 10
311.880192
 20
397.054396
 30
0.0
 10
316.954960
 20
398.380244
 30
0.0
 10
322.361320
 20
400.780188
 30
0.0
 10
325.762560
 20
403.314268
 30
0.0
 10
328.628568
 20
404.914268
 30
0.0
 10
332.372360
 20
406.514268
 30
0.0
 10
335.380240
 20
408.387156
 30
0.0
 10
346.835320
 20
416.162996
 30
0.0
 10
354.899608
 20
422.885284
 30
0.0
 10
358.923728
 20
425.001284
 30
0.0
 10
359.350152
 20
422.367748
 30
0.0
 10
360.311720
 20
418.514268
 30
0.0
 10
363.058816
 20
420.314268
 30
0.0
 10
368.950552
 20
426.110692
 30
0.0
 10
373.028568
 20
430.616220
 30
0.0
 10
376.701528
 20
435.019796
 30
0.0
 10
383.058712
 20
444.664636
 30
0.0
 10
385.760336
 20
456.664636
 30
0.0
 10
385.315312
 20
466.354212
 30
0.0
 10
386.167384
 20
471.246660
 30
0.0
 10
386.951072
 20
476.018596
 30
0.0
 10
387.648768
 20
482.726156
 30
0.0
 10
389.378392
 20
489.614460
 30
0.0
 10
394.429696
 20
495.559596
 30
0.0
 10
397.237584
 20
493.714268
 30
0.0
 10
395.034440
 20
489.914268
 30
0.0
 10
392.854888
 20
479.714268
 30
0.0
 10
390.584960
 20
466.914268
 30
0.0
 10
389.115488
 20
457.719548
 30
0.0
 10
394.105496
 20
455.715780
 30
0.0
 10
399.841072
 20
466.886436
 30
0.0
 10
402.998928
 20
470.100244
 30
0.0
 10
403.510744
 20
463.890396
 30
0.0
 10
404.725504
 20
452.914268
 30
0.0
 10
406.306016
 20
439.998796
 30
0.0
 10
407.428568
 20
433.096748
 30
0.0
 10
408.468440
 20
429.847164
 30
0.0
 10
416.259592
 20
428.749212
 30
0.0
 10
423.269472
 20
427.160540
 30
0.0
 10
415.428568
 20
422.914268
 30
0.0
 10
409.747192
 20
421.260468
 30
0.0
 10
383.428568
 20
416.557108
 30
0.0
 10
373.428568
 20
414.951916
 30
0.0
 10
355.177912
 20
412.140444
 30
0.0
 10
347.177912
 20
406.038956
 30
0.0
 10
337.817960
 20
397.438956
 30
0.0
 10
314.628568
 20
385.310628
 30
0.0
 10
301.828568
 20
381.049732
 30
0.0
 10
293.828568
 20
380.193412
 30
0.0
 10
293.828568
 20
380.193412
 30
0.0
  0
LWPOLYLINE
  5
102
100
AcDbEntity
  8
Capa_1
 62
7
100
AcDbPolyline
 90
6
 70
0
 10
335.428568
 20
403.314268
 30
0.0
 10
334.628568
 20
404.114268
 30
0.0
 10
333.828568
 20
403.314268
 30
0.0
 10
334.628568
 20
402.514268
 30
0.0
 10
335.428568
 20
403.314268
 30
0.0
 10
335.428568
 20
403.314268
 30
0.0
  0
LWPOLYLINE
  5
103
100
AcDbEntity
  8
Capa_1
 62
7
100
AcDbPolyline
 90
8
 70
0
 10
273.425920
 20
414.659284
 30
0.0
 10
275.177928
 20
424.337692
 30
0.0
 10
294.228568
 20
427.967332
 30
0.0
 10
299.828568
 20
427.714268
 30
0.0
 10
299.547832
 20
423.314268
 30
0.0
 10
288.331936
 20
414.483636
 30
0.0
 10
273.425920
 20
414.659284
 30
0.0
 10
273.425920
 20
414.659284
 30
0.0
  0
LWPOLYLINE
  5
104
100
AcDbEntity
  8
Capa_1
 62
7
100
AcDbPolyline
 90
40
 70
0
 10
249.635992
 20
426.714268
 30
0.0
 10
241.828568
 20
442.100196
 30
0.0
 10
246.223480
 20
449.363700
 30
0.0
 10
249.028568
 20
451.693876
 30
0.0
 10
252.628568
 20
457.271836
 30
0.0
 10
256.228568
 20
462.651404
 30
0.0
 10
254.544752
 20
465.403484
 30
0.0
 10
259.517400
 20
468.914268
 30
0.0
 10
265.883608
 20
471.114268
 30
0.0
 10
277.097920
 20
477.715012
 30
0.0
 10
283.245328
 20
477.812332
 30
0.0
 10
285.336048
 20
476.914268
 30
0.0
 10
285.988648
 20
481.514268
 30
0.0
 10
288.380256
 20
486.362740
 30
0.0
 10
292.180256
 20
481.076492
 30
0.0
 10
293.834728
 20
470.828020
 30
0.0
 10
296.834728
 20
464.409604
 30
0.0
 10
305.239240
 20
462.758924
 30
0.0
 10
311.555912
 20
461.906924
 30
0.0
 10
314.664272
 20
461.441412
 30
0.0
 10
323.004624
 20
455.939364
 30
0.0
 10
324.477576
 20
453.445860
 30
0.0
 10
322.240488
 20
451.521596
 30
0.0
 10
318.115984
 20
450.071044
 30
0.0
 10
317.135064
 20
446.315276
 30
0.0
 10
316.257312
 20
443.176676
 30
0.0
 10
311.550816
 20
441.806996
 30
0.0
 10
304.057360
 20
440.649468
 30
0.0
 10
293.657360
 20
438.896380
 30
0.0
 10
285.121480
 20
437.156748
 30
0.0
 10
258.008360
 20
434.869204
 30
0.0
 10
264.829888
 20
440.072564
 30
0.0
 10
270.905136
 20
440.909804
 30
0.0
 10
278.983952
 20
446.586460
 30
0.0
 10
267.292232
 20
443.689996
 30
0.0
 10
258.622200
 20
438.908508
 30
0.0
 10
254.636888
 20
431.732772
 30
0.0
 10
251.432336
 20
425.714268
 30
0.0
 10
249.635992
 20
426.714268
 30
0.0
 10
249.635992
 20
426.714268
 30
0.0
  0
LWPOLYLINE
  5
105
100
AcDbEntity
  8
Capa_1
 62
7
100
AcDbPolyline
 90
9
 70
0
 10
370.264336
 20
437.601564
 30
0.0
 10
371.914160
 20
441.714268
 30
0.0
 10
373.028568
 20
443.219340
 30
0.0
 10
375.334432
 20
447.019340
 30
0.0
 10
378.191280
 20
454.650492
 30
0.0
 10
380.585640
 20
456.202940
 30
0.0
 10
373.828600
 20
438.514300
 30
0.0
 10
370.264336
 20
437.601564
 30
0.0
 10
370.264336
 20
437.601564
 30
0.0
  0
LWPOLYLINE
  5
106
100
AcDbEntity
  8
Capa_1
 62
7
100
AcDbPolyline
 90
6
 70
0
 10
321.381120
 20
442.591036
 30
0.0
 10
322.162840
 20
444.791036
 30
0.0
 10
324.183480
 20
444.986812
 30
0.0
 10
324.468960
 20
442.786812
 30
0.0
 10
321.381120
 20
442.591036
 30
0.0
 10
321.381120
 20
442.591036
 30
0.0
  0
LWPOLYLINE
  5
107
100
AcDbEntity
  8
Capa_1
 62
7
100
AcDbPolyline
 90
5
 70
0
 10
398.659584
 20
488.856316
 30
0.0
 10
399.493616
 20
492.914268
 30
0.0
 10
402.063328
 20
487.815692
 30
0.0
 10
398.659584
 20
488.856316
 30
0.0
 10
398.659584
 20
488.856316
 30
0.0
  0
LWPOLYLINE
  5
108
100
AcDbEntity
  8
Capa_1
 62
7
100
AcDbPolyline
 90
14
 70
0
 10
412.028568
 20
491.400252
 30
0.0
 10
410.652336
 20
494.354020
 30
0.0
 10
416.489520
 20
500.391116
 30
0.0
 10
426.154584
 20
516.801700
 30
0.0
 10
425.791552
 20
529.423748
 30
0.0
 10
426.945224
 20
536.815644
 30
0.0
 10
428.841384
 20
542.447628
 30
0.0
 10
427.443328
 20
548.893540
 30
0.0
 10
426.644232
 20
553.752076
 30
0.0
 10
429.051128
 20
556.114268
 30
0.0
 10
437.806880
 20
545.302132
 30
0.0
 10
421.869760
 20
498.704460
 30
0.0
 10
412.028568
 20
491.400252
 30
0.0
 10
412.028568
 20
491.400252
 30
0.0
  0
LWPOLYLINE
  5
109
100
AcDbEntity
  8
Capa_1
 62
7
100
AcDbPolyline
 90
13
 70
0
 10
396.295616
 20
501.588988
 30
0.0
 10
398.677512
 20
508.835332
 30
0.0
 10
403.966400
 20
511.397028
 30
0.0
 10
406.950272
 20
511.325428
 30
0.0
 10
405.315192
 20
514.363724
 30
0.0
 10
402.771152
 20
527.127844
 30
0.0
 10
407.304624
 20
529.940324
 30
0.0
 10
418.104600
 20
527.021748
 30
0.0
 10
421.871064
 20
524.114244
 30
0.0
 10
422.416776
 20
509.793772
 30
0.0
 10
407.958512
 20
501.109300
 30
0.0
 10
396.295616
 20
501.588964
 30
0.0
 10
396.295616
 20
501.588988
 30
0.0
  0
LWPOLYLINE
  5
10a
100
AcDbEntity
  8
Capa_1
 62
7
100
AcDbPolyline
 90
25
 70
0
 10
216.046192
 20
511.531492
 30
0.0
 10
213.382928
 20
521.205444
 30
0.0
 10
209.617336
 20
524.168012
 30
0.0
 10
206.402608
 20
524.784676
 30
0.0
 10
205.791472
 20
528.824716
 30
0.0
 10
205.112176
 20
533.389684
 30
0.0
 10
203.428568
 20
538.145524
 30
0.0
 10
201.628568
 20
546.237636
 30
0.0
 10
200.228568
 20
556.052156
 30
0.0
 10
203.055869
 20
559.746860
 30
0.0
 10
207.397768
 20
545.825588
 30
0.0
 10
208.278280
 20
534.703892
 30
0.0
 10
208.060000
 20
531.962836
 30
0.0
 10
215.028568
 20
534.436428
 30
0.0
 10
220.840584
 20
538.383140
 30
0.0
 10
233.640584
 20
540.885500
 30
0.0
 10
248.229704
 20
532.703300
 30
0.0
 10
248.508728
 20
519.326828
 30
0.0
 10
243.108728
 20
516.599052
 30
0.0
 10
235.457672
 20
515.609604
 30
0.0
 10
229.630264
 20
517.813940
 30
0.0
 10
226.613416
 20
519.314268
 30
0.0
 10
225.840816
 20
516.368740
 30
0.0
 10
216.046192
 20
511.531492
 30
0.0
 10
216.046192
 20
511.531492
 30
0.0
  0
LWPOLYLINE
  5
10b
100
AcDbEntity
  8
Capa_1
 62
7
100
AcDbPolyline
 90
34
 70
0
 10
267.145384
 20
518.876068
 30
0.0
 10
266.273928
 20
525.299444
 30
0.0
 10
265.350040
 20
535.086124
 30
0.0
 10
265.542704
 20
545.441796
 30
0.0
 10
276.534200
 20
553.714268
 30
0.0
 10
283.918664
 20
555.259452
 30
0.0
 10
307.028568
 20
557.018740
 30
0.0
 10
326.579136
 20
555.775148
 30
0.0
 10
330.768280
 20
555.215860
 30
0.0
 10
337.306344
 20
553.714268
 30
0.0
 10
344.074280
 20
552.279980
 30
0.0
 10
346.744648
 20
549.454132
 30
0.0
 10
336.408840
 20
547.131548
 30
0.0
 10
332.857224
 20
547.234276
 30
0.0
 10
326.117848
 20
548.529508
 30
0.0
 10
318.628568
 20
548.593268
 30
0.0
 10
324.228568
 20
546.079244
 30
0.0
 10
335.624000
 20
537.053324
 30
0.0
 10
328.223192
 20
530.123812
 30
0.0
 10
324.995912
 20
528.026180
 30
0.0
 10
317.228568
 20
525.500692
 30
0.0
 10
317.828568
 20
530.282452
 30
0.0
 10
319.428568
 20
531.807556
 30
0.0
 10
315.212968
 20
531.641076
 30
0.0
 10
304.956368
 20
534.714652
 30
0.0
 10
301.028568
 20
535.070884
 30
0.0
 10
302.228568
 20
531.314268
 30
0.0
 10
299.488864
 20
527.009828
 30
0.0
 10
293.688864
 20
526.420684
 30
0.0
 10
279.430248
 20
520.934364
 30
0.0
 10
275.275784
 20
518.507060
 30
0.0
 10
272.628568
 20
517.714268
 30
0.0
 10
267.145384
 20
518.876068
 30
0.0
 10
267.145384
 20
518.876068
 30
0.0
  0
LWPOLYLINE
  5
10c
100
AcDbEntity
  8
Capa_1
 62
7
100
AcDbPolyline
 90
114
 70
0
 10
386.828568
 20
519.417580
 30
0.0
 10
384.228568
 20
522.428052
 30
0.0
 10
382.305480
 20
526.619172
 30
0.0
 10
379.800352
 20
532.528268
 30
0.0
 10
377.723440
 20
539.482396
 30
0.0
 10
376.228048
 20
543.482396
 30
0.0
 10
370.726544
 20
554.173804
 30
0.0
 10
364.615088
 20
565.773804
 30
0.0
 10
362.516592
 20
570.502420
 30
0.0
 10
361.000216
 20
574.902420
 30
0.0
 10
359.910856
 20
578.428644
 30
0.0
 10
359.247200
 20
589.347204
 30
0.0
 10
356.791456
 20
605.432828
 30
0.0
 10
353.683464
 20
614.047972
 30
0.0
 10
350.879248
 20
614.813620
 30
0.0
 10
344.926264
 20
609.739548
 30
0.0
 10
340.751960
 20
610.914268
 30
0.0
 10
335.826120
 20
612.114268
 30
0.0
 10
331.679656
 20
613.485404
 30
0.0
 10
325.507800
 20
615.386164
 30
0.0
 10
316.628568
 20
617.711956
 30
0.0
 10
297.828568
 20
621.255788
 30
0.0
 10
276.755696
 20
622.400684
 30
0.0
 10
256.583840
 20
624.470012
 30
0.0
 10
249.353416
 20
620.432996
 30
0.0
 10
238.681144
 20
612.117260
 30
0.0
 10
219.438504
 20
596.914268
 30
0.0
 10
215.583192
 20
591.560772
 30
0.0
 10
209.028568
 20
579.816884
 30
0.0
 10
207.440352
 20
576.126052
 30
0.0
 10
203.640352
 20
575.430612
 30
0.0
 10
191.726288
 20
585.688860
 30
0.0
 10
189.526288
 20
592.664588
 30
0.0
 10
189.344856
 20
610.742412
 30
0.0
 10
191.773816
 20
617.880844
 30
0.0
 10
199.905008
 20
635.760052
 30
0.0
 10
202.628568
 20
640.197756
 30
0.0
 10
208.695984
 20
648.914268
 30
0.0
 10
220.228568
 20
656.107852
 30
0.0
 10
233.201400
 20
658.416780
 30
0.0
 10
235.875728
 20
649.874932
 30
0.0
 10
231.783592
 20
646.208724
 30
0.0
 10
226.131408
 20
638.216572
 30
0.0
 10
225.005512
 20
634.266660
 30
0.0
 10
231.839648
 20
635.672012
 30
0.0
 10
234.628568
 20
641.226220
 30
0.0
 10
236.467632
 20
646.252884
 30
0.0
 10
240.588192
 20
653.986148
 30
0.0
 10
246.949128
 20
662.131476
 30
0.0
 10
255.428568
 20
666.126628
 30
0.0
 10
262.628568
 20
668.499228
 30
0.0
 10
276.920432
 20
672.128236
 30
0.0
 10
287.028568
 20
673.325188
 30
0.0
 10
304.493736
 20
672.891492
 30
0.0
 10
307.906936
 20
668.200868
 30
0.0
 10
306.628568
 20
665.051276
 30
0.0
 10
298.741304
 20
664.965036
 30
0.0
 10
284.555472
 20
667.225484
 30
0.0
 10
280.126520
 20
666.570500
 30
0.0
 10
276.622768
 20
663.605796
 30
0.0
 10
281.712864
 20
663.901468
 30
0.0
 10
295.147536
 20
663.019412
 30
0.0
 10
309.455912
 20
655.525420
 30
0.0
 10
312.594152
 20
652.127356
 30
0.0
 10
317.424496
 20
643.092036
 30
0.0
 10
319.828184
 20
644.112020
 30
0.0
 10
318.687816
 20
650.018404
 30
0.0
 10
318.140824
 20
653.169900
 30
0.0
 10
324.228568
 20
644.542412
 30
0.0
 10
326.880400
 20
644.541612
 30
0.0
 10
326.122408
 20
651.742788
 30
0.0
 10
324.983160
 20
654.859764
 30
0.0
 10
327.966080
 20
655.106252
 30
0.0
 10
330.745080
 20
655.551084
 30
0.0
 10
335.419952
 20
655.724852
 30
0.0
 10
341.317912
 20
654.800668
 30
0.0
 10
346.960240
 20
657.125572
 30
0.0
 10
349.622184
 20
660.218092
 30
0.0
 10
349.798144
 20
666.442732
 30
0.0
 10
346.628568
 20
669.655148
 30
0.0
 10
349.064616
 20
671.329436
 30
0.0
 10
353.586320
 20
671.388236
 30
0.0
 10
355.945576
 20
673.585260
 30
0.0
 10
356.925448
 20
677.604164
 30
0.0
 10
360.181928
 20
680.114548
 30
0.0
 10
363.463744
 20
681.867052
 30
0.0
 10
365.834128
 20
683.619548
 30
0.0
 10
370.831344
 20
681.042460
 30
0.0
 10
379.428568
 20
675.743068
 30
0.0
 10
384.153056
 20
672.967660
 30
0.0
 10
392.592360
 20
665.064940
 30
0.0
 10
401.090056
 20
654.633508
 30
0.0
 10
406.824144
 20
645.270468
 30
0.0
 10
407.630440
 20
627.514548
 30
0.0
 10
409.855408
 20
626.514548
 30
0.0
 10
415.428568
 20
620.475980
 30
0.0
 10
417.497688
 20
614.737356
 30
0.0
 10
419.074488
 20
605.105620
 30
0.0
 10
417.827816
 20
598.112572
 30
0.0
 10
417.536600
 20
594.921492
 30
0.0
 10
420.228568
 20
594.428956
 30
0.0
 10
423.828568
 20
595.603852
 30
0.0
 10
423.739472
 20
583.142252
 30
0.0
 10
422.861376
 20
577.002988
 30
0.0
 10
422.050936
 20
570.303892
 30
0.0
 10
424.362328
 20
559.315796
 30
0.0
 10
425.393896
 20
556.369844
 30
0.0
 10
421.028568
 20
555.444740
 30
0.0
 10
412.285720
 20
551.029420
 30
0.0
 10
400.286376
 20
535.077700
 30
0.0
 10
397.788584
 20
532.914548
 30
0.0
 10
394.293656
 20
523.314548
 30
0.0
 10
386.828568
 20
519.417860
 30
0.0
 10
386.828568
 20
519.417580
 30
0.0
  0
LWPOLYLINE
  5
10d
100
AcDbEntity
  8
Capa_1
 62
7
100
AcDbPolyline
 90
6
 70
0
 10
346.228568
 20
616.114268
 30
0.0
 10
345.875784
 20
616.914268
 30
0.0
 10
345.028568
 20
616.114268
 30
0.0
 10
345.381352
 20
615.314268
 30
0.0
 10
346.228568
 20
616.114268
 30
0.0
 10
346.228568
 20
616.114268
 30
0.0
  0
LWPOLYLINE
  5
10e
100
AcDbEntity
  8
Capa_1
 62
7
100
AcDbPolyline
 90
5
 70
0
 10
233.828568
 20
618.867052
 30
0.0
 10
232.993528
 20
620.535924
 30
0.0
 10
230.284592
 20
618.423620
 30
0.0
 10
233.828568
 20
618.867052
 30
0.0
 10
233.828568
 20
618.867052
 30
0.0
  0
LWPOLYLINE
  5
10f
100
AcDbEntity
  8
Capa_1
 62
7
100
AcDbPolyline
 90
5
 70
0
 10
232.084208
 20
627.976932
 30
0.0
 10
230.659104
 20
629.714268
 30
0.0
 10
229.111992
 20
626.446532
 30
0.0
 10
232.084208
 20
627.976932
 30
0.0
 10
232.084208
 20
627.976932
 30
0.0
  0
LWPOLYLINE
  5
110
100
AcDbEntity
  8
Capa_1
 62
7
100
AcDbPolyline
 90
6
 70
0
 10
280.118664
 20
633.391692
 30
0.0
 10
280.220712
 20
634.923732
 30
0.0
 10
271.428568
 20
633.301428
 30
0.0
 10
275.228568
 20
632.597524
 30
0.0
 10
280.118664
 20
633.391692
 30
0.0
 10
280.118664
 20
633.391692
 30
0.0
  0
LWPOLYLINE
  5
111
100
AcDbEntity
  8
Capa_1
 62
7
100
AcDbPolyline
 90
6
 70
0
 10
271.371768
 20
640.227236
 30
0.0
 10
275.362344
 20
641.453460
 30
0.0
 10
275.662400
 20
642.600436
 30
0.0
 10
265.028568
 20
640.410180
 30
0.0
 10
271.371768
 20
640.227236
 30
0.0
 10
271.371768
 20
640.227236
 30
0.0
  0
LWPOLYLINE
  5
112
100
AcDbEntity
  8
Capa_1
 62
7
100
AcDbPolyline
 90
6
 70
0
 10
265.008488
 20
645.290076
 30
0.0
 10
263.098432
 20
647.842060
 30
0.0
 10
259.220560
 20
648.209468
 30
0.0
 10
260.117192
 20
645.657484
 30
0.0
 10
265.008488
 20
645.290076
 30
0.0
 10
265.008488
 20
645.290076
 30
0.0
  0
LWPOLYLINE
  5
113
100
AcDbEntity
  8
Capa_1
 62
7
100
AcDbPolyline
 90
6
 70
0
 10
230.163136
 20
650.199860
 30
0.0
 10
231.428568
 20
652.215100
 30
0.0
 10
229.228568
 20
653.218844
 30
0.0
 10
224.653376
 20
650.474132
 30
0.0
 10
230.163136
 20
650.199860
 30
0.0
 10
230.163136
 20
650.199860
 30
0.0
  0
LWPOLYLINE
  5
114
100
AcDbEntity
  8
Capa_1
 62
7
100
AcDbPolyline
 90
7
 70
0
 10
407.829736
 20
534.510588
 30
0.0
 10
413.227296
 20
544.764972
 30
0.0
 10
418.628568
 20
536.966860
 30
0.0
 10
415.875784
 20
534.514268
 30
0.0
 10
412.628568
 20
533.714268
 30
0.0
 10
407.829736
 20
534.510588
 30
0.0
 10
407.829736
 20
534.510588
 30
0.0
  0
LWPOLYLINE
  5
115
100
AcDbEntity
  8
Capa_1
 62
7
100
AcDbPolyline
 90
5
 70
0
 10
310.619720
 20
664.130804
 30
0.0
 10
312.151792
 20
667.314268
 30
0.0
 10
315.859720
 20
663.364676
 30
0.0
 10
310.619720
 20
664.130804
 30
0.0
 10
310.619720
 20
664.130804
 30
0.0
  0
LWPOLYLINE
  5
116
100
AcDbEntity
  8
Capa_1
 62
7
100
AcDbPolyline
 90
5
 70
0
 10
341.228568
 20
668.644092
 30
0.0
 10
341.331080
 20
671.566164
 30
0.0
 10
344.228568
 20
669.154268
 30
0.0
 10
341.228568
 20
668.644092
 30
0.0
 10
341.228568
 20
668.644092
 30
0.0
  0
LWPOLYLINE
  5
117
100
AcDbEntity
  8
Capa_1
 62
7
100
AcDbPolyline
 90
8
 70
0
 10
284.228568
 20
676.926028
 30
0.0
 10
293.895944
 20
681.728564
 30
0.0
 10
301.895552
 20
681.284060
 30
0.0
 10
306.628568
 20
676.566860
 30
0.0
 10
303.083200
 20
676.825876
 30
0.0
 10
291.839664
 20
677.203788
 30
0.0
 10
284.228568
 20
676.926028
 30
0.0
 10
284.228568
 20
676.926028
 30
0.0
  0
LWPOLYLINE
  5
118
100
AcDbEntity
  8
Capa_1
 62
7
100
AcDbPolyline
 90
13
 70
0
 10
341.428568
 20
679.921260
 30
0.0
 10
337.172808
 20
682.595396
 30
0.0
 10
333.236112
 20
683.241100
 30
0.0
 10
328.058520
 20
683.688964
 30
0.0
 10
322.995208
 20
684.434412
 30
0.0
 10
317.380672
 20
685.636772
 30
0.0
 10
335.527752
 20
686.070388
 30
0.0
 10
354.514360
 20
684.571340
 30
0.0
 10
354.493320
 20
682.036172
 30
0.0
 10
351.440512
 20
681.707876
 30
0.0
 10
347.503400
 20
680.585972
 30
0.0
 10
341.428560
 20
679.921260
 30
0.0
 10
341.428568
 20
679.921260
 30
0.0
  0
ENDSEC
  0
SECTION
  2
OBJECTS
  0
DICTIONARY
  5
C
330
0
100
AcDbDictionary
  3
ACAD_GROUP
350
D
  3
ACAD_MLINESTYLE
350
17
  0
DICTIONARY
  5
D
330
C
100
AcDbDictionary
  0
DICTIONARY
  5
1A
330
C
100
AcDbDictionary
  0
DICTIONARY
  5
17
330
C
100
AcDbDictionary
  3
STANDARD
350
18
  0
DICTIONARY
  5
19
330
C
100
AcDbDictionary
  0
ENDSEC
  0
EOF
