999
Inkscape export via OpenSCAD DXF Export
  0
SECTION
  2
HEADER
  9
$ACADVER
  1
AC1014
  9
$HANDSEED
  5
FFFF
  9
$MEASUREMENT
 70
     1
  0
ENDSEC
  0
SECTION
  2
TABLES
  0
TABLE
  2
VPORT
  5
8
330
0
100
AcDbSymbolTable
 70
     4
  0
VPORT
  5
2E
330
8
100
AcDbSymbolTableRecord
100
AcDbViewportTableRecord
  2
*ACTIVE
 70
     0
 10
0.0
 20
0.0
 11
1.0
 21
1.0
 12
210.0
 22
148.5
 13
0.0
 23
0.0
 14
10.0
 24
10.0
 15
10.0
 25
10.0
 16
0.0
 26
0.0
 36
1.0
 17
0.0
 27
0.0
 37
0.0
 40
341.0
 41
1.24
 42
50.0
 43
0.0
 44
0.0
 50
0.0
 51
0.0
 71
     0
 72
   100
 73
     1
 74
     3
 75
     0
 76
     0
 77
     0
 78
     0
  0
ENDTAB
  0
TABLE
  2
LTYPE
  5
5
330
0
100
AcDbSymbolTable
 70
     1
  0
LTYPE
  5
14
330
5
100
AcDbSymbolTableRecord
100
AcDbLinetypeTableRecord
  2
BYBLOCK
 70
     0
  3

 72
    65
 73
     0
 40
0.0
  0
LTYPE
  5
15
330
5
100
AcDbSymbolTableRecord
100
AcDbLinetypeTableRecord
  2
BYLAYER
 70
     0
  3

 72
    65
 73
     0
 40
0.0
  0
LTYPE
  5
16
330
5
100
AcDbSymbolTableRecord
100
AcDbLinetypeTableRecord
  2
CONTINUOUS
 70
     0
  3
Solid line
 72
    65
 73
     0
 40
0.0
  0
ENDTAB
  0
TABLE
0
TABLE
2
LAYER
5
2
330
0
100
AcDbSymbolTable
70
1
0
LAYER
5
10
330
2
100
AcDbSymbolTableRecord
100
AcDbLayerTableRecord
2
Capa_1
70
0
62
7
6
CONTINUOUS
0
ENDTAB
0
ENDSEC
  0
ENDTAB
  0
TABLE
  2
STYLE
  5
3
330
0
100
AcDbSymbolTable
 70
     1
  0
STYLE
  5
11
330
3
100
AcDbSymbolTableRecord
100
AcDbTextStyleTableRecord
  2
STANDARD
 70
     0
 40
0.0
 41
1.0
 50
0.0
 71
     0
 42
2.5
  3
txt
  4

  0
ENDTAB
  0
TABLE
  2
VIEW
  5
6
330
0
100
AcDbSymbolTable
 70
     0
  0
ENDTAB
  0
TABLE
  2
UCS
  5
7
330
0
100
AcDbSymbolTable
 70
     0
  0
ENDTAB
  0
TABLE
  2
APPID
  5
9
330
0
100
AcDbSymbolTable
 70
     2
  0
APPID
  5
12
330
9
100
AcDbSymbolTableRecord
100
AcDbRegAppTableRecord
  2
ACAD
 70
     0
  0
ENDTAB
  0
TABLE
  2
DIMSTYLE
  5
A
330
0
100
AcDbSymbolTable
 70
     1
  0
DIMSTYLE
105
27
330
A
100
AcDbSymbolTableRecord
100
AcDbDimStyleTableRecord
  2
ISO-25
 70
     0
  3

  4

  5

  6

  7

 40
1.0
 41
2.5
 42
0.625
 43
3.75
 44
1.25
 45
0.0
 46
0.0
 47
0.0
 48
0.0
140
2.5
141
2.5
142
0.0
143
0.03937007874016
144
1.0
145
0.0
146
1.0
147
0.625
 71
     0
 72
     0
 73
     0
 74
     0
 75
     0
 76
     0
 77
     1
 78
     8
170
     0
171
     3
172
     1
173
     0
174
     0
175
     0
176
     0
177
     0
178
     0
270
     2
271
     2
272
     2
273
     2
274
     3
340
11
275
     0
280
     0
281
     0
282
     0
283
     0
284
     8
285
     0
286
     0
287
     3
288
     0
  0
ENDTAB
  0
TABLE
  2
BLOCK_RECORD
  5
1
330
0
100
AcDbSymbolTable
 70
     1
  0
BLOCK_RECORD
  5
1F
330
1
100
AcDbSymbolTableRecord
100
AcDbBlockTableRecord
  2
*MODEL_SPACE
  0
BLOCK_RECORD
  5
1B
330
1
100
AcDbSymbolTableRecord
100
AcDbBlockTableRecord
  2
*PAPER_SPACE
  0
ENDTAB
  0
ENDSEC
  0
SECTION
  2
BLOCKS
  0
BLOCK
  5
20
330
1F
100
AcDbEntity
  8
0
100
AcDbBlockBegin
  2
*MODEL_SPACE
 70
     0
 10
0.0
 20
0.0
 30
0.0
  3
*MODEL_SPACE
  1

  0
ENDBLK
  5
21
330
1F
100
AcDbEntity
  8
0
100
AcDbBlockEnd
  0
BLOCK
  5
1C
330
1B
100
AcDbEntity
 67
     1
  8
0
100
AcDbBlockBegin
  2
*PAPER_SPACE
  1

  0
ENDBLK
  5
1D
330
1B
100
AcDbEntity
 67
     1
  8
0
100
AcDbBlockEnd
  0
ENDSEC
  0
SECTION
  2
ENTITIES
0
DIMENSION
5
83
100
AcDbEntity
62
256
370
-1
6
ByLayer
1
total_width
3
Standard
70
0
71
5
72
1
41
1.0
100
AcDbAlignedDimension
13
47.738027
23
0.000000
33
0.0
14
86.326867
24
0.000000
34
0.0
50
0.000000
100
AcDbRotatedDimension
0
DIMENSION
5
83
100
AcDbEntity
62
256
370
-1
6
ByLayer
1
total_minx
3
Standard
70
0
71
5
72
1
41
1.0
100
AcDbAlignedDimension
13
47.738027
23
0.000000
33
0.0
14
0.000000
24
0.000000
34
0.0
50
0.000000
100
AcDbRotatedDimension
0
DIMENSION
5
83
100
AcDbEntity
62
256
370
-1
6
ByLayer
1
total_maxx
3
Standard
70
0
71
5
72
1
41
1.0
100
AcDbAlignedDimension
13
0.000000
23
0.000000
33
0.0
14
86.326867
24
0.000000
34
0.0
50
0.000000
100
AcDbRotatedDimension
0
DIMENSION
5
83
100
AcDbEntity
62
256
370
-1
6
ByLayer
1
total_height
3
Standard
70
0
71
5
72
1
41
1.0
100
AcDbAlignedDimension
13
0.000000
23
-126.509010
33
0.0
14
0.000000
24
-70.076083
34
0.0
50
90.000000
100
AcDbRotatedDimension
0
DIMENSION
5
83
100
AcDbEntity
62
256
370
-1
6
ByLayer
1
total_miny
3
Standard
70
0
71
5
72
1
41
1.0
100
AcDbAlignedDimension
13
-126.509010
23
0.000000
33
0.0
14
0.000000
24
0.000000
34
0.0
50
0.000000
100
AcDbRotatedDimension
0
DIMENSION
5
83
100
AcDbEntity
62
256
370
-1
6
ByLayer
1
total_maxy
3
Standard
70
0
71
5
72
1
41
1.0
100
AcDbAlignedDimension
13
0.000000
23
0.000000
33
0.0
14
-70.076083
24
0.000000
34
0.0
50
0.000000
100
AcDbRotatedDimension
0
DIMENSION
8
Capa_1
5
83
100
AcDbEntity
62
256
370
-1
6
ByLayer
1
Capa_1_width
3
Standard
70
0
71
5
72
1
41
1.0
100
AcDbAlignedDimension
13
47.738027
23
0.000000
33
0.0
14
86.326867
24
0.000000
34
0.0
50
0.000000
100
AcDbRotatedDimension
0
DIMENSION
8
Capa_1
5
83
100
AcDbEntity
62
256
370
-1
6
ByLayer
1
Capa_1_minx
3
Standard
70
0
71
5
72
1
41
1.0
100
AcDbAlignedDimension
13
47.738027
23
0.000000
33
0.0
14
0.000000
24
0.000000
34
0.0
50
0.000000
100
AcDbRotatedDimension
0
DIMENSION
8
Capa_1
5
83
100
AcDbEntity
62
256
370
-1
6
ByLayer
1
Capa_1_maxx
3
Standard
70
0
71
5
72
1
41
1.0
100
AcDbAlignedDimension
13
0.000000
23
0.000000
33
0.0
14
86.326867
24
0.000000
34
0.0
50
0.000000
100
AcDbRotatedDimension
0
DIMENSION
8
Capa_1
5
83
100
AcDbEntity
62
256
370
-1
6
ByLayer
1
Capa_1_height
3
Standard
70
0
71
5
72
1
41
1.0
100
AcDbAlignedDimension
13
0.000000
23
-126.509010
33
0.0
14
0.000000
24
-70.076083
34
0.0
50
90.000000
100
AcDbRotatedDimension
0
DIMENSION
8
Capa_1
5
83
100
AcDbEntity
62
256
370
-1
6
ByLayer
1
Capa_1_miny
3
Standard
70
0
71
5
72
1
41
1.0
100
AcDbAlignedDimension
13
-126.509010
23
0.000000
33
0.0
14
0.000000
24
0.000000
34
0.0
50
0.000000
100
AcDbRotatedDimension
0
DIMENSION
8
Capa_1
5
83
100
AcDbEntity
62
256
370
-1
6
ByLayer
1
Capa_1_maxy
3
Standard
70
0
71
5
72
1
41
1.0
100
AcDbAlignedDimension
13
0.000000
23
0.000000
33
0.0
14
-70.076083
24
0.000000
34
0.0
50
0.000000
100
AcDbRotatedDimension
62
0
0
LWPOLYLINE
100
AcDbPolyline
8
Capa_1
90
103
70
0
10
66.191048
20
-70.076091
30
0.0
10
64.779251
20
-70.343189
30
0.0
10
64.381332
20
-70.479460
30
0.0
10
65.569640
20
-70.501276
30
0.0
10
66.959632
20
-70.577589
30
0.0
10
67.521082
20
-70.855589
30
0.0
10
67.585284
20
-70.935277
30
0.0
10
67.487101
20
-70.976185
30
0.0
10
66.567166
20
-70.975511
30
0.0
10
65.551323
20
-70.981974
30
0.0
10
65.089955
20
-71.128136
30
0.0
10
64.937330
20
-71.220801
30
0.0
10
65.215330
20
-71.476997
30
0.0
10
66.011168
20
-72.360051
30
0.0
10
67.000445
20
-73.442645
30
0.0
10
67.711865
20
-73.891769
30
0.0
10
69.156368
20
-73.929926
30
0.0
10
70.104833
20
-73.973532
30
0.0
10
71.316914
20
-74.353529
30
0.0
10
72.443292
20
-74.965605
30
0.0
10
74.590966
20
-76.791676
30
0.0
10
76.618722
20
-78.432412
30
0.0
10
77.679089
20
-78.938412
30
0.0
10
78.919022
20
-79.233703
30
0.0
10
79.060748
20
-79.440840
30
0.0
10
79.475020
20
-80.994360
30
0.0
10
80.146652
20
-82.599085
30
0.0
10
81.063715
20
-84.318678
30
0.0
10
82.126720
20
-85.982779
30
0.0
10
83.236178
20
-87.421031
30
0.0
10
83.492371
20
-87.720836
30
0.0
10
83.454215
20
-88.609339
30
0.0
10
83.328843
20
-90.751564
30
0.0
10
83.135069
20
-95.283027
30
0.0
10
83.228338
20
-96.701249
30
0.0
10
83.454215
20
-97.859607
30
0.0
10
83.751043
20
-98.725054
30
0.0
10
84.162838
20
-99.445834
30
0.0
10
84.342721
20
-99.669323
30
0.0
10
84.560757
20
-99.064267
30
0.0
10
85.677180
20
-94.755983
30
0.0
10
86.288711
20
-90.555329
30
0.0
10
86.326867
20
-87.322914
30
0.0
10
85.988124
20
-84.904289
30
0.0
10
85.307540
20
-82.929448
30
0.0
10
84.577112
20
-81.697534
30
0.0
10
83.828589
20
-80.872384
30
0.0
10
83.334293
20
-80.520128
30
0.0
10
83.476019
20
-81.675729
30
0.0
10
83.546882
20
-83.103878
30
0.0
10
83.127159
20
-83.648973
30
0.0
10
83.017386
20
-83.660950
30
0.0
10
82.920022
20
-83.294660
30
0.0
10
81.922499
20
-80.149463
30
0.0
10
81.088573
20
-78.245692
30
0.0
10
80.091666
20
-76.394660
30
0.0
10
78.910446
20
-74.560891
30
0.0
10
77.523580
20
-72.708911
30
0.0
10
76.967582
20
-72.054799
30
0.0
10
76.956689
20
-72.261933
30
0.0
10
77.316451
20
-73.041420
30
0.0
10
77.594449
20
-73.455694
30
0.0
10
77.676214
20
-74.049848
30
0.0
10
77.191016
20
-73.682247
30
0.0
10
76.477004
20
-72.883341
30
0.0
10
75.600306
20
-71.915119
30
0.0
10
74.781757
20
-71.460645
30
0.0
10
74.596425
20
-71.400684
30
0.0
10
74.536467
20
-71.487899
30
0.0
10
74.327560
20
-71.633260
30
0.0
10
73.855097
20
-71.700486
30
0.0
10
73.277295
20
-71.842209
30
0.0
10
73.407076
20
-72.093713
30
0.0
10
73.942313
20
-72.294640
30
0.0
10
74.650936
20
-72.588992
30
0.0
10
74.749053
20
-72.703461
30
0.0
10
74.645483
20
-72.714355
30
0.0
10
74.367486
20
-72.648945
30
0.0
10
74.165801
20
-72.594433
30
0.0
10
74.612779
20
-73.384822
30
0.0
10
75.245090
20
-74.169758
30
0.0
10
76.226261
20
-75.461633
30
0.0
10
76.618730
20
-76.540924
30
0.0
10
76.645993
20
-76.720804
30
0.0
10
76.564228
20
-76.649941
30
0.0
10
75.332313
20
-75.123675
30
0.0
10
73.822399
20
-73.264900
30
0.0
10
72.586843
20
-72.263537
30
0.0
10
71.222294
20
-71.700477
30
0.0
10
70.660847
20
-71.586008
30
0.0
10
70.448260
20
-71.564192
30
0.0
10
70.628140
20
-71.749525
30
0.0
10
71.952722
20
-72.757950
30
0.0
10
72.841228
20
-73.357557
30
0.0
10
73.358303
20
-73.810926
30
0.0
10
73.489891
20
-74.049828
30
0.0
10
72.459661
20
-73.433869
30
0.0
10
71.489392
20
-72.719794
30
0.0
10
69.345200
20
-71.138107
30
0.0
10
68.006234
20
-70.430396
30
0.0
10
67.084828
20
-70.155076
30
0.0
10
66.191065
20
-70.076083
30
0.0
10
66.191048
20
-70.076091
30
0.0
62
0
0
LWPOLYLINE
100
AcDbPolyline
8
Capa_1
90
13
70
0
10
63.291141
20
-70.893734
30
0.0
10
63.154868
20
-70.899181
30
0.0
10
62.462599
20
-71.100868
30
0.0
10
62.647929
20
-71.269846
30
0.0
10
63.220281
20
-71.842195
30
0.0
10
64.099985
20
-72.690130
30
0.0
10
64.828310
20
-73.085015
30
0.0
10
65.983914
20
-73.095908
30
0.0
10
66.229205
20
-73.008690
30
0.0
10
65.335249
20
-71.967558
30
0.0
10
64.201452
20
-71.122661
30
0.0
10
63.291141
20
-70.893723
30
0.0
10
63.291141
20
-70.893734
30
0.0
62
0
0
LWPOLYLINE
100
AcDbPolyline
8
Capa_1
90
13
70
0
10
58.494303
20
-74.093443
30
0.0
10
58.167247
20
-74.153403
30
0.0
10
57.009046
20
-74.758906
30
0.0
10
56.095886
20
-75.815944
30
0.0
10
55.701066
20
-76.671448
30
0.0
10
55.479927
20
-77.554796
30
0.0
10
55.485374
20
-77.745582
30
0.0
10
55.806981
20
-77.603855
30
0.0
10
56.829376
20
-76.873197
30
0.0
10
57.742071
20
-75.766885
30
0.0
10
58.300911
20
-74.718473
30
0.0
10
58.494301
20
-74.093443
30
0.0
10
58.494303
20
-74.093443
30
0.0
62
0
0
LWPOLYLINE
100
AcDbPolyline
8
Capa_1
90
59
70
0
10
55.223732
20
-78.198009
30
0.0
10
54.782206
20
-78.263423
30
0.0
10
53.871896
20
-78.786713
30
0.0
10
53.010647
20
-79.250043
30
0.0
10
52.907080
20
-79.250043
30
0.0
10
52.928895
20
-78.950241
30
0.0
10
52.896191
20
-78.574127
30
0.0
10
52.776270
20
-78.557786
30
0.0
10
52.683605
20
-78.890295
30
0.0
10
52.607289
20
-79.277312
30
0.0
10
52.367448
20
-79.528058
30
0.0
10
51.424085
20
-80.122605
30
0.0
10
50.576869
20
-80.906416
30
0.0
10
49.830048
20
-81.870558
30
0.0
10
49.187869
20
-83.006097
30
0.0
10
48.654577
20
-84.304102
30
0.0
10
48.234418
20
-85.755638
30
0.0
10
47.750490
20
-89.083577
30
0.0
10
47.805001
20
-92.692107
30
0.0
10
48.279233
20
-95.766444
30
0.0
10
48.333745
20
-96.011738
30
0.0
10
48.497273
20
-96.006291
30
0.0
10
49.047818
20
-95.771899
30
0.0
10
49.331268
20
-95.346726
30
0.0
10
49.609265
20
-94.921553
30
0.0
10
50.116204
20
-94.681709
30
0.0
10
50.388751
20
-94.899748
30
0.0
10
50.683104
20
-95.673782
30
0.0
10
50.639497
20
-95.810056
30
0.0
10
50.416008
20
-95.766450
30
0.0
10
50.056246
20
-95.875469
30
0.0
10
49.402131
20
-96.153467
30
0.0
10
49.205896
20
-96.169807
30
0.0
10
49.145935
20
-96.404199
30
0.0
10
49.135041
20
-97.341763
30
0.0
10
49.477499
20
-97.833791
30
0.0
10
50.350603
20
-98.355641
30
0.0
10
51.173699
20
-98.884382
30
0.0
10
51.571618
20
-99.205988
30
0.0
10
51.811459
20
-99.216882
30
0.0
10
51.867555
20
-99.045853
30
0.0
10
51.729696
20
-98.590024
30
0.0
10
51.454595
20
-97.658075
30
0.0
10
51.664283
20
-97.238188
30
0.0
10
52.717005
20
-95.574623
30
0.0
10
53.506706
20
-93.280794
30
0.0
10
53.963384
20
-90.768975
30
0.0
10
54.335251
20
-86.875928
30
0.0
10
54.722029
20
-82.673513
30
0.0
10
55.141992
20
-80.182156
30
0.0
10
55.278266
20
-79.544395
30
0.0
10
55.300081
20
-79.386317
30
0.0
10
55.038433
20
-79.402658
30
0.0
10
54.727729
20
-79.369954
30
0.0
10
54.678670
20
-79.299091
30
0.0
10
55.043886
20
-78.901171
30
0.0
10
55.556274
20
-78.219802
30
0.0
10
55.223766
20
-78.197987
30
0.0
10
55.223732
20
-78.198009
30
0.0
62
0
0
LWPOLYLINE
100
AcDbPolyline
8
Capa_1
90
48
70
0
10
65.684109
20
-87.927959
30
0.0
10
64.506704
20
-88.004272
30
0.0
10
62.945977
20
-88.316970
30
0.0
10
61.709875
20
-88.788993
30
0.0
10
60.871938
20
-89.382408
30
0.0
10
60.505707
20
-90.059281
30
0.0
10
60.483891
20
-90.222809
30
0.0
10
60.729185
20
-90.244625
30
0.0
10
62.931367
20
-90.342743
30
0.0
10
65.226218
20
-90.484469
30
0.0
10
66.065665
20
-90.658899
30
0.0
10
65.814922
20
-90.762466
30
0.0
10
63.471013
20
-91.149483
30
0.0
10
61.279730
20
-91.476542
30
0.0
10
59.967206
20
-91.936423
30
0.0
10
59.126603
20
-92.632143
30
0.0
10
58.734136
20
-93.433432
30
0.0
10
58.935820
20
-93.564256
30
0.0
10
61.823917
20
-94.250195
30
0.0
10
65.302534
20
-94.512723
30
0.0
10
66.256450
20
-94.518170
30
0.0
10
66.294607
20
-94.801619
30
0.0
10
66.730682
20
-95.777341
30
0.0
10
67.057738
20
-96.300631
30
0.0
10
67.215817
20
-97.118274
30
0.0
10
67.188554
20
-97.341763
30
0.0
10
67.166738
20
-97.478037
30
0.0
10
67.357521
20
-97.407174
30
0.0
10
68.260534
20
-96.904206
30
0.0
10
69.003200
20
-96.175437
30
0.0
10
69.566240
20
-95.246257
30
0.0
10
69.930371
20
-94.142055
30
0.0
10
70.104802
20
-92.681199
30
0.0
10
69.990332
20
-92.414101
30
0.0
10
69.143600
20
-91.966356
30
0.0
10
68.006186
20
-91.073168
30
0.0
10
67.330266
20
-90.506268
30
0.0
10
67.204895
20
-90.359092
30
0.0
10
67.695482
20
-90.233720
30
0.0
10
68.311437
20
-90.037485
30
0.0
10
68.680961
20
-89.693210
30
0.0
10
68.769317
20
-89.181686
30
0.0
10
68.607527
20
-88.745560
30
0.0
10
68.215322
20
-88.394330
30
0.0
10
67.604078
20
-88.134251
30
0.0
10
66.785171
20
-87.971576
30
0.0
10
65.684078
20
-87.927967
30
0.0
10
65.684109
20
-87.927959
30
0.0
62
0
0
LWPOLYLINE
100
AcDbPolyline
8
Capa_1
90
37
70
0
10
75.179671
20
-88.903680
30
0.0
10
75.103355
20
-89.165326
30
0.0
10
74.794328
20
-89.800367
30
0.0
10
74.133086
20
-90.669790
30
0.0
10
73.165667
20
-91.972838
30
0.0
10
72.884817
20
-92.921032
30
0.0
10
72.987082
20
-93.722421
30
0.0
10
73.435365
20
-94.430946
30
0.0
10
74.298715
20
-95.081298
30
0.0
10
75.468570
20
-95.482980
30
0.0
10
76.406135
20
-95.450273
30
0.0
10
77.261934
20
-95.068706
30
0.0
10
77.360049
20
-94.981491
30
0.0
10
77.212876
20
-94.883374
30
0.0
10
76.956680
20
-94.469102
30
0.0
10
77.621697
20
-94.272868
30
0.0
10
79.829333
20
-94.158398
30
0.0
10
80.826856
20
-94.202007
30
0.0
10
80.941325
20
-94.223795
30
0.0
10
80.941325
20
-94.022110
30
0.0
10
80.848660
20
-93.580582
30
0.0
10
80.696034
20
-93.122702
30
0.0
10
80.587015
20
-92.861057
30
0.0
10
79.327843
20
-92.479492
30
0.0
10
78.095929
20
-92.125179
30
0.0
10
77.583541
20
-91.656397
30
0.0
10
77.529030
20
-91.547377
30
0.0
10
77.627147
20
-91.574640
30
0.0
10
78.532165
20
-91.695680
30
0.0
10
79.382355
20
-91.650953
30
0.0
10
80.221799
20
-91.214874
30
0.0
10
80.477995
20
-90.620723
30
0.0
10
80.178193
20
-90.424488
30
0.0
10
78.739142
20
-89.803080
30
0.0
10
77.001250
20
-89.093667
30
0.0
10
75.593942
20
-88.903672
30
0.0
10
75.179671
20
-88.903680
30
0.0
62
0
0
LWPOLYLINE
100
AcDbPolyline
8
Capa_1
90
55
70
0
10
66.376381
20
-100.628679
30
0.0
10
66.207403
20
-100.661385
30
0.0
10
65.473760
20
-100.733241
30
0.0
10
64.686586
20
-100.634123
30
0.0
10
64.626625
20
-100.841260
30
0.0
10
64.702938
20
-101.168319
30
0.0
10
65.002740
20
-101.348199
30
0.0
10
65.493327
20
-101.675255
30
0.0
10
65.460620
20
-101.822431
30
0.0
10
64.016120
20
-102.160392
30
0.0
10
62.659137
20
-102.516910
30
0.0
10
61.917504
20
-102.967132
30
0.0
10
61.586656
20
-103.408024
30
0.0
10
61.416015
20
-103.964655
30
0.0
10
61.394199
20
-104.280812
30
0.0
10
61.584984
20
-104.264471
30
0.0
10
63.340189
20
-104.188158
30
0.0
10
65.182218
20
-104.467835
30
0.0
10
67.864479
20
-105.283802
30
0.0
10
69.854078
20
-105.927014
30
0.0
10
70.426428
20
-106.090542
30
0.0
10
70.415534
20
-105.779838
30
0.0
10
70.506445
20
-105.349813
30
0.0
10
71.124157
20
-105.572701
30
0.0
10
71.549333
20
-105.768936
30
0.0
10
71.641998
20
-105.572701
30
0.0
10
71.971551
20
-104.888921
30
0.0
10
72.819404
20
-104.095494
30
0.0
10
73.506226
20
-103.490437
30
0.0
10
73.866755
20
-102.889618
30
0.0
10
73.909595
20
-102.198562
30
0.0
10
73.834588
20
-101.860835
30
0.0
10
73.669754
20
-101.849702
30
0.0
10
73.148192
20
-102.173756
30
0.0
10
72.257957
20
-102.988951
30
0.0
10
71.293138
20
-103.822946
30
0.0
10
70.909259
20
-103.938775
30
0.0
10
70.577217
20
-103.864843
30
0.0
10
70.001263
20
-103.108870
30
0.0
10
69.852154
20
-102.727712
30
0.0
10
70.001263
20
-102.656442
30
0.0
10
70.333771
20
-102.716403
30
0.0
10
70.602718
20
-102.790555
30
0.0
10
70.698984
20
-102.667345
30
0.0
10
70.623608
20
-102.329045
30
0.0
10
70.361025
20
-102.035034
30
0.0
10
69.888045
20
-101.841359
30
0.0
10
68.960131
20
-101.816995
30
0.0
10
67.048830
20
-101.817985
30
0.0
10
66.518104
20
-101.609858
30
0.0
10
66.340053
20
-101.323516
30
0.0
10
66.332772
20
-100.944844
30
0.0
10
66.392733
20
-100.666844
30
0.0
10
66.376392
20
-100.628687
30
0.0
10
66.376381
20
-100.628679
30
0.0
62
0
0
LWPOLYLINE
100
AcDbPolyline
8
Capa_1
90
14
70
0
10
49.254941
20
-101.266439
30
0.0
10
49.260387
20
-102.869021
30
0.0
10
49.466717
20
-103.860013
30
0.0
10
49.854541
20
-104.542463
30
0.0
10
50.732145
20
-105.011245
30
0.0
10
51.233632
20
-104.913128
30
0.0
10
51.718769
20
-103.931957
30
0.0
10
51.865942
20
-103.441370
30
0.0
10
51.686062
20
-103.419554
30
0.0
10
51.137212
20
-103.288728
30
0.0
10
50.659836
20
-103.018324
30
0.0
10
49.691013
20
-101.882386
30
0.0
10
49.254938
20
-101.266427
30
0.0
10
49.254941
20
-101.266439
30
0.0
62
0
0
LWPOLYLINE
100
AcDbPolyline
8
Capa_1
90
45
70
0
10
77.131110
20
-103.942856
30
0.0
10
76.771348
20
-103.981016
30
0.0
10
76.493350
20
-104.128189
30
0.0
10
76.678683
20
-104.498854
30
0.0
10
76.994837
20
-105.283793
30
0.0
10
76.946976
20
-105.610025
30
0.0
10
76.618722
20
-105.779830
30
0.0
10
74.624034
20
-106.325357
30
0.0
10
72.337502
20
-106.538201
30
0.0
10
69.726386
20
-106.418193
30
0.0
10
66.757948
20
-105.965162
30
0.0
10
61.595897
20
-104.776854
30
0.0
10
61.530484
20
-104.940382
30
0.0
10
61.627560
20
-105.342690
30
0.0
10
62.010169
20
-105.747123
30
0.0
10
62.337225
20
-106.085081
30
0.0
10
62.424440
20
-106.215905
30
0.0
10
62.326325
20
-106.324925
30
0.0
10
62.158669
20
-106.615302
30
0.0
10
62.435342
20
-106.684688
30
0.0
10
62.693287
20
-106.626593
30
0.0
10
62.833261
20
-106.417590
30
0.0
10
63.094910
20
-106.090534
30
0.0
10
63.580044
20
-106.537512
30
0.0
10
64.414039
20
-107.267939
30
0.0
10
66.137127
20
-108.246011
30
0.0
10
67.978963
20
-108.766951
30
0.0
10
69.750522
20
-108.734245
30
0.0
10
70.344673
20
-108.581619
30
0.0
10
70.660830
20
-108.478049
30
0.0
10
70.072126
20
-108.456233
30
0.0
10
68.780251
20
-108.243644
30
0.0
10
68.071627
20
-107.758509
30
0.0
10
70.900671
20
-107.671294
30
0.0
10
73.680659
20
-107.633138
30
0.0
10
75.277641
20
-107.469315
30
0.0
10
76.470175
20
-107.179194
30
0.0
10
77.291367
20
-106.750831
30
0.0
10
77.774323
20
-106.172282
30
0.0
10
77.910597
20
-105.447307
30
0.0
10
77.848526
20
-104.833565
30
0.0
10
77.621697
20
-104.215390
30
0.0
10
77.448635
20
-103.994187
30
0.0
10
77.131110
20
-103.942842
30
0.0
10
77.131110
20
-103.942856
30
0.0
62
0
0
LWPOLYLINE
100
AcDbPolyline
8
Capa_1
90
14
70
0
10
68.960134
20
-110.080631
30
0.0
10
68.649429
20
-110.151491
30
0.0
10
68.491351
20
-110.374980
30
0.0
10
68.763899
20
-111.127213
30
0.0
10
68.932879
20
-111.399760
30
0.0
10
69.014642
20
-111.296193
30
0.0
10
69.783226
20
-111.029095
30
0.0
10
70.506616
20
-110.856254
30
0.0
10
70.519107
20
-110.445844
30
0.0
10
70.377380
20
-110.184198
30
0.0
10
70.208400
20
-110.162382
30
0.0
10
69.439815
20
-110.146042
30
0.0
10
68.960134
20
-110.080631
30
0.0
10
68.960134
20
-110.080631
30
0.0
62
0
0
LWPOLYLINE
100
AcDbPolyline
8
Capa_1
90
46
70
0
10
54.825813
20
-112.958733
30
0.0
10
54.711343
20
-113.607396
30
0.0
10
54.631558
20
-114.054594
30
0.0
10
54.307974
20
-114.038022
30
0.0
10
54.089935
20
-113.988963
30
0.0
10
53.975466
20
-114.108885
30
0.0
10
54.444248
20
-115.051899
30
0.0
10
56.199287
20
-117.680548
30
0.0
10
58.028177
20
-119.826979
30
0.0
10
59.957945
20
-121.519595
30
0.0
10
62.015618
20
-122.786800
30
0.0
10
64.127343
20
-123.590614
30
0.0
10
66.267361
20
-123.980558
30
0.0
10
66.812328
20
-124.040690
30
0.0
10
66.970535
20
-124.225852
30
0.0
10
67.575591
20
-125.087101
30
0.0
10
67.820884
20
-125.234277
30
0.0
10
68.175195
20
-125.250617
30
0.0
10
68.529508
20
-124.918109
30
0.0
10
68.262410
20
-124.787285
30
0.0
10
68.044373
20
-124.645561
30
0.0
10
68.147940
20
-124.607405
30
0.0
10
68.867466
20
-124.302150
30
0.0
10
69.363503
20
-124.062309
30
0.0
10
69.522282
20
-123.994218
30
0.0
10
69.603346
20
-123.784309
30
0.0
10
69.672083
20
-122.802088
30
0.0
10
69.292642
20
-121.658439
30
0.0
10
69.134564
20
-121.189657
30
0.0
10
69.418014
20
-121.042481
30
0.0
10
69.750522
20
-120.857148
30
0.0
10
69.815933
20
-120.769933
30
0.0
10
68.186097
20
-120.377464
30
0.0
10
66.103833
20
-119.521664
30
0.0
10
64.432886
20
-118.559073
30
0.0
10
61.917504
20
-116.845247
30
0.0
10
59.584618
20
-115.317266
30
0.0
10
57.720270
20
-114.392318
30
0.0
10
57.376859
20
-114.256044
30
0.0
10
57.153370
20
-113.825421
30
0.0
10
56.935333
20
-113.313029
30
0.0
10
56.700942
20
-113.285767
30
0.0
10
55.697967
20
-113.285767
30
0.0
10
55.174673
20
-113.084082
30
0.0
10
54.825813
20
-112.958711
30
0.0
10
54.825813
20
-112.958733
30
0.0
62
0
0
LWPOLYLINE
100
AcDbPolyline
8
Capa_1
90
15
70
0
10
78.586513
20
-118.039021
30
0.0
10
78.559251
20
-118.387882
30
0.0
10
78.117403
20
-121.334324
30
0.0
10
77.163809
20
-124.552908
30
0.0
10
76.531498
20
-126.291763
30
0.0
10
76.460635
20
-126.493448
30
0.0
10
82.565700
20
-126.493448
30
0.0
10
83.279823
20
-126.509010
30
0.0
10
83.304965
20
-126.507281
30
0.0
10
84.359064
20
-126.493448
30
0.0
10
82.516644
20
-124.313067
30
0.0
10
80.460743
20
-121.758699
30
0.0
10
79.295131
20
-119.843285
30
0.0
10
78.717329
20
-118.442390
30
0.0
10
78.586513
20
-118.039021
30
0.0
62
0
0
LWPOLYLINE
100
AcDbPolyline
8
Capa_1
90
17
70
0
10
49.985368
20
-120.497400
30
0.0
10
49.974475
20
-120.502847
30
0.0
10
48.798990
20
-120.878663
30
0.0
10
48.023053
20
-121.156865
30
0.0
10
47.738027
20
-121.370327
30
0.0
10
47.755948
20
-126.493445
30
0.0
10
51.909574
20
-126.493445
30
0.0
10
52.007691
20
-126.487998
30
0.0
10
52.007691
20
-126.493445
30
0.0
10
56.412059
20
-126.493445
30
0.0
10
56.226727
20
-126.351719
30
0.0
10
55.550810
20
-125.713958
30
0.0
10
53.708387
20
-123.506323
30
0.0
10
51.953183
20
-121.614842
30
0.0
10
50.617699
20
-120.753592
30
0.0
10
49.985388
20
-120.497397
30
0.0
10
49.985368
20
-120.497400
30
0.0
62
0
0
LWPOLYLINE
100
AcDbPolyline
8
Capa_1
90
23
70
0
10
61.650406
20
-124.187695
30
0.0
10
60.481524
20
-124.345362
30
0.0
10
59.305871
20
-124.728444
30
0.0
10
58.131893
20
-125.334463
30
0.0
10
56.968037
20
-126.160939
30
0.0
10
56.553766
20
-126.493448
30
0.0
10
63.759924
20
-126.493448
30
0.0
10
63.770818
20
-126.422585
30
0.0
10
64.310463
20
-125.959255
30
0.0
10
64.648135
20
-125.726997
30
0.0
10
64.697480
20
-125.517727
30
0.0
10
64.588461
20
-125.403257
30
0.0
10
64.059717
20
-125.523179
30
0.0
10
63.435196
20
-125.653374
30
0.0
10
63.067644
20
-125.588590
30
0.0
10
62.844155
20
-125.163416
30
0.0
10
63.171214
20
-124.929025
30
0.0
10
63.689052
20
-124.781849
30
0.0
10
63.754466
20
-124.607419
30
0.0
10
63.669661
20
-124.468696
30
0.0
10
63.182116
20
-124.334871
30
0.0
10
61.650397
20
-124.187695
30
0.0
10
61.650406
20
-124.187695
30
0.0
  0
ENDSEC
  0
SECTION
  2
OBJECTS
  0
DICTIONARY
  5
C
330
0
100
AcDbDictionary
  3
ACAD_GROUP
350
D
  3
ACAD_MLINESTYLE
350
17
  0
DICTIONARY
  5
D
330
C
100
AcDbDictionary
  0
DICTIONARY
  5
1A
330
C
100
AcDbDictionary
  0
DICTIONARY
  5
17
330
C
100
AcDbDictionary
  3
STANDARD
350
18
  0
DICTIONARY
  5
19
330
C
100
AcDbDictionary
  0
ENDSEC
  0
EOF
