  0
SECTION
  2
HEADER
  9
$ACADVER
  1
AC1014
  9
$HANDSEED
  5
FFFF
  9
$MEASUREMENT
 70
     1
  0
ENDSEC
  0
SECTION
  2
TABLES
  0
TABLE
  2
VPORT
  5
8
330
0
100
AcDbSymbolTable
 70
     4
  0
VPORT
  5
2E
330
8
100
AcDbSymbolTableRecord
100
AcDbViewportTableRecord
  2
*ACTIVE
 70
     0
 10
0.0
 20
0.0
 11
1.0
 21
1.0
 12
210.0
 22
148.5
 13
0.0
 23
0.0
 14
10.0
 24
10.0
 15
10.0
 25
10.0
 16
0.0
 26
0.0
 36
1.0
 17
0.0
 27
0.0
 37
0.0
 40
341.0
 41
1.24
 42
50.0
 43
0.0
 44
0.0
 50
0.0
 51
0.0
 71
     0
 72
   100
 73
     1
 74
     3
 75
     0
 76
     0
 77
     0
 78
     0
  0
ENDTAB
  0
TABLE
  2
LTYPE
  5
5
330
0
100
AcDbSymbolTable
 70
     1
  0
LTYPE
  5
14
330
5
100
AcDbSymbolTableRecord
100
AcDbLinetypeTableRecord
  2
BYBLOCK
 70
     0
  3

 72
    65
 73
     0
 40
0.0
  0
LTYPE
  5
15
330
5
100
AcDbSymbolTableRecord
100
AcDbLinetypeTableRecord
  2
BYLAYER
 70
     0
  3

 72
    65
 73
     0
 40
0.0
  0
LTYPE
  5
16
330
5
100
AcDbSymbolTableRecord
100
AcDbLinetypeTableRecord
  2
CONTINUOUS
 70
     0
  3
Solid line
 72
    65
 73
     0
 40
0.0
  0
ENDTAB
  0
TABLE
  2
LAYER
  5
2
100
AcDbSymbolTable
 70
1
  0
LAYER
  5
50
100
AcDbSymbolTableRecord
100
AcDbLayerTableRecord
  2
0
 70
0
  6
CONTINUOUS
  0
ENDTAB
  0
TABLE
  2
STYLE
  5
3
330
0
100
AcDbSymbolTable
 70
     1
  0
STYLE
  5
11
330
3
100
AcDbSymbolTableRecord
100
AcDbTextStyleTableRecord
  2
STANDARD
 70
     0
 40
0.0
 41
1.0
 50
0.0
 71
     0
 42
2.5
  3
txt
  4

  0
ENDTAB
  0
TABLE
  2
VIEW
  5
6
330
0
100
AcDbSymbolTable
 70
     0
  0
ENDTAB
  0
TABLE
  2
UCS
  5
7
330
0
100
AcDbSymbolTable
 70
     0
  0
ENDTAB
  0
TABLE
  2
APPID
  5
9
330
0
100
AcDbSymbolTable
 70
     2
  0
APPID
  5
12
330
9
100
AcDbSymbolTableRecord
100
AcDbRegAppTableRecord
  2
ACAD
 70
     0
  0
ENDTAB
  0
TABLE
  2
DIMSTYLE
  5
A
330
0
100
AcDbSymbolTable
 70
     1
  0
DIMSTYLE
105
27
330
A
100
AcDbSymbolTableRecord
100
AcDbDimStyleTableRecord
  2
ISO-25
 70
     0
  3

  4

  5

  6

  7

 40
1.0
 41
2.5
 42
0.625
 43
3.75
 44
1.25
 45
0.0
 46
0.0
 47
0.0
 48
0.0
140
2.5
141
2.5
142
0.0
143
0.03937007874016
144
1.0
145
0.0
146
1.0
147
0.625
 71
     0
 72
     0
 73
     0
 74
     0
 75
     0
 76
     0
 77
     1
 78
     8
170
     0
171
     3
172
     1
173
     0
174
     0
175
     0
176
     0
177
     0
178
     0
270
     2
271
     2
272
     2
273
     2
274
     3
340
11
275
     0
280
     0
281
     0
282
     0
283
     0
284
     8
285
     0
286
     0
287
     3
288
     0
  0
ENDTAB
  0
TABLE
  2
BLOCK_RECORD
  5
1
330
0
100
AcDbSymbolTable
 70
     1
  0
BLOCK_RECORD
  5
1F
330
1
100
AcDbSymbolTableRecord
100
AcDbBlockTableRecord
  2
*MODEL_SPACE
  0
BLOCK_RECORD
  5
1B
330
1
100
AcDbSymbolTableRecord
100
AcDbBlockTableRecord
  2
*PAPER_SPACE
  0
ENDTAB
  0
ENDSEC
  0
SECTION
  2
BLOCKS
  0
BLOCK
  5
20
330
1F
100
AcDbEntity
  8
0
100
AcDbBlockBegin
  2
*MODEL_SPACE
 70
     0
 10
0.0
 20
0.0
 30
0.0
  3
*MODEL_SPACE
  1

  0
ENDBLK
  5
21
330
1F
100
AcDbEntity
  8
0
100
AcDbBlockEnd
  0
BLOCK
  5
1C
330
1B
100
AcDbEntity
 67
     1
  8
0
100
AcDbBlockBegin
  2
*PAPER_SPACE
  1

  0
ENDBLK
  5
1D
330
1B
100
AcDbEntity
 67
     1
  8
0
100
AcDbBlockEnd
  0
ENDSEC
  0
SECTION
  2
ENTITIES
  0
SPLINE
  5
100
100
AcDbEntity
  8
0
 62
7
100
AcDbSpline
 70
8
 71
3
 72
8
 73
4
 74
0
 40
0
 40
0
 40
0
 40
0
 40
1
 40
1
 40
1
 40
1
 10
43.358458
 20
77.070722
 30
0.0
 10
24.957142
 20
80.623860
 30
0.0
 10
19.104486
 20
82.336020
 30
0.0
 10
15.026730
 20
85.359018
 30
0.0
  0
SPLINE
  5
101
100
AcDbEntity
  8
0
 62
7
100
AcDbSpline
 70
8
 71
3
 72
8
 73
4
 74
0
 40
0
 40
0
 40
0
 40
0
 40
1
 40
1
 40
1
 40
1
 10
15.026730
 20
85.359018
 30
0.0
 10
10.848571
 20
88.456430
 30
0.0
 10
10.846993
 20
90.289331
 30
0.0
 10
15.020727
 20
92.631552
 30
0.0
  0
SPLINE
  5
102
100
AcDbEntity
  8
0
 62
7
100
AcDbSpline
 70
8
 71
3
 72
8
 73
4
 74
0
 40
0
 40
0
 40
0
 40
0
 40
1
 40
1
 40
1
 40
1
 10
15.020727
 20
92.631552
 30
0.0
 10
16.937167
 20
93.707084
 30
0.0
 10
18.505163
 20
95.237163
 30
0.0
 10
18.505163
 20
96.031740
 30
0.0
  0
SPLINE
  5
103
100
AcDbEntity
  8
0
 62
7
100
AcDbSpline
 70
8
 71
3
 72
8
 73
4
 74
0
 40
0
 40
0
 40
0
 40
0
 40
1
 40
1
 40
1
 40
1
 10
18.505163
 20
96.031740
 30
0.0
 10
18.505163
 20
96.826325
 30
0.0
 10
17.154507
 20
100.347558
 30
0.0
 10
15.503704
 20
103.856724
 30
0.0
  0
SPLINE
  5
104
100
AcDbEntity
  8
0
 62
7
100
AcDbSpline
 70
8
 71
3
 72
8
 73
4
 74
0
 40
0
 40
0
 40
0
 40
0
 40
1
 40
1
 40
1
 40
1
 10
15.503704
 20
103.856724
 30
0.0
 10
11.720374
 20
111.899092
 30
0.0
 10
11.668544
 20
113.855321
 30
0.0
 10
15.202899
 20
115.210676
 30
0.0
  0
SPLINE
  5
105
100
AcDbEntity
  8
0
 62
7
100
AcDbSpline
 70
8
 71
3
 72
8
 73
4
 74
0
 40
0
 40
0
 40
0
 40
0
 40
1
 40
1
 40
1
 40
1
 10
15.202899
 20
115.210676
 30
0.0
 10
16.688252
 20
115.780296
 30
0.0
 10
18.962380
 20
116.246341
 30
0.0
 10
20.256506
 20
116.246341
 30
0.0
  0
SPLINE
  5
106
100
AcDbEntity
  8
0
 62
7
100
AcDbSpline
 70
8
 71
3
 72
8
 73
4
 74
0
 40
0
 40
0
 40
0
 40
0
 40
1
 40
1
 40
1
 40
1
 10
20.256506
 20
116.246341
 30
0.0
 10
21.556935
 20
116.246341
 30
0.0
 10
22.830274
 20
116.879337
 30
0.0
 10
23.103081
 20
117.661403
 30
0.0
  0
SPLINE
  5
107
100
AcDbEntity
  8
0
 62
7
100
AcDbSpline
 70
8
 71
3
 72
8
 73
4
 74
0
 40
0
 40
0
 40
0
 40
0
 40
1
 40
1
 40
1
 40
1
 10
23.103081
 20
117.661403
 30
0.0
 10
23.374567
 20
118.439699
 30
0.0
 10
24.380613
 20
119.076477
 30
0.0
 10
25.338730
 20
119.076477
 30
0.0
  0
SPLINE
  5
108
100
AcDbEntity
  8
0
 62
7
100
AcDbSpline
 70
8
 71
3
 72
8
 73
4
 74
0
 40
0
 40
0
 40
0
 40
0
 40
1
 40
1
 40
1
 40
1
 10
25.338730
 20
119.076477
 30
0.0
 10
26.613964
 20
119.076477
 30
0.0
 10
27.080759
 20
118.459415
 30
0.0
 10
27.080759
 20
116.773707
 30
0.0
  0
SPLINE
  5
109
100
AcDbEntity
  8
0
 62
7
100
AcDbSpline
 70
8
 71
3
 72
8
 73
4
 74
0
 40
0
 40
0
 40
0
 40
0
 40
1
 40
1
 40
1
 40
1
 10
27.080759
 20
116.773707
 30
0.0
 10
27.080759
 20
115.507190
 30
0.0
 10
26.694858
 20
114.208575
 30
0.0
 10
26.223200
 20
113.887915
 30
0.0
  0
SPLINE
  5
10a
100
AcDbEntity
  8
0
 62
7
100
AcDbSpline
 70
8
 71
3
 72
8
 73
4
 74
0
 40
0
 40
0
 40
0
 40
0
 40
1
 40
1
 40
1
 40
1
 10
26.223200
 20
113.887915
 30
0.0
 10
24.764542
 20
112.896191
 30
0.0
 10
25.271086
 20
108.841905
 30
0.0
 10
27.442650
 20
104.127691
 30
0.0
  0
SPLINE
  5
10b
100
AcDbEntity
  8
0
 62
7
100
AcDbSpline
 70
8
 71
3
 72
8
 73
4
 74
0
 40
0
 40
0
 40
0
 40
0
 40
1
 40
1
 40
1
 40
1
 10
27.442650
 20
104.127691
 30
0.0
 10
31.527962
 20
95.258945
 30
0.0
 10
34.257017
 20
95.208343
 30
0.0
 10
35.159614
 20
103.984590
 30
0.0
  0
SPLINE
  5
10c
100
AcDbEntity
  8
0
 62
7
100
AcDbSpline
 70
8
 71
3
 72
8
 73
4
 74
0
 40
0
 40
0
 40
0
 40
0
 40
1
 40
1
 40
1
 40
1
 10
35.159614
 20
103.984590
 30
0.0
 10
35.676535
 20
109.010731
 30
0.0
 10
36.223279
 20
110.361455
 30
0.0
 10
39.159152
 20
113.865235
 30
0.0
  0
SPLINE
  5
10d
100
AcDbEntity
  8
0
 62
7
100
AcDbSpline
 70
8
 71
3
 72
8
 73
4
 74
0
 40
0
 40
0
 40
0
 40
0
 40
1
 40
1
 40
1
 40
1
 10
39.159152
 20
113.865235
 30
0.0
 10
42.250955
 20
117.555088
 30
0.0
 10
43.556606
 20
118.439679
 30
0.0
 10
48.948529
 20
120.497596
 30
0.0
  0
SPLINE
  5
10e
100
AcDbEntity
  8
0
 62
7
100
AcDbSpline
 70
8
 71
3
 72
8
 73
4
 74
0
 40
0
 40
0
 40
0
 40
0
 40
1
 40
1
 40
1
 40
1
 10
48.948529
 20
120.497596
 30
0.0
 10
50.563407
 20
121.113941
 30
0.0
 10
50.538352
 20
121.207052
 30
0.0
 10
48.519749
 20
122.090720
 30
0.0
  0
SPLINE
  5
10f
100
AcDbEntity
  8
0
 62
7
100
AcDbSpline
 70
8
 71
3
 72
8
 73
4
 74
0
 40
0
 40
0
 40
0
 40
0
 40
1
 40
1
 40
1
 40
1
 10
48.519749
 20
122.090720
 30
0.0
 10
45.735819
 20
123.309429
 30
0.0
 10
31.152282
 20
122.262348
 30
0.0
 10
25.199625
 20
120.416372
 30
0.0
  0
SPLINE
  5
110
100
AcDbEntity
  8
0
 62
7
100
AcDbSpline
 70
8
 71
3
 72
8
 73
4
 74
0
 40
0
 40
0
 40
0
 40
0
 40
1
 40
1
 40
1
 40
1
 10
25.199625
 20
120.416372
 30
0.0
 10
19.008139
 20
118.496321
 30
0.0
 10
18.316714
 20
118.431436
 30
0.0
 10
17.898826
 20
119.731207
 30
0.0
  0
SPLINE
  5
111
100
AcDbEntity
  8
0
 62
7
100
AcDbSpline
 70
8
 71
3
 72
8
 73
4
 74
0
 40
0
 40
0
 40
0
 40
0
 40
1
 40
1
 40
1
 40
1
 10
17.898826
 20
119.731207
 30
0.0
 10
17.417023
 20
121.229796
 30
0.0
 10
21.827889
 20
122.436618
 30
0.0
 10
34.262684
 20
124.208409
 30
0.0
  0
SPLINE
  5
112
100
AcDbEntity
  8
0
 62
7
100
AcDbSpline
 70
8
 71
3
 72
8
 73
4
 74
0
 40
0
 40
0
 40
0
 40
0
 40
1
 40
1
 40
1
 40
1
 10
34.262684
 20
124.208409
 30
0.0
 10
39.863533
 20
125.006457
 30
0.0
 10
45.570380
 20
126.276417
 30
0.0
 10
46.944559
 20
127.030543
 30
0.0
  0
SPLINE
  5
113
100
AcDbEntity
  8
0
 62
7
100
AcDbSpline
 70
8
 71
3
 72
8
 73
4
 74
0
 40
0
 40
0
 40
0
 40
0
 40
1
 40
1
 40
1
 40
1
 10
46.944559
 20
127.030543
 30
0.0
 10
49.782823
 20
128.588150
 30
0.0
 10
57.074867
 20
129.231484
 30
0.0
 10
84.537254
 20
130.347100
 30
0.0
  0
SPLINE
  5
114
100
AcDbEntity
  8
0
 62
7
100
AcDbSpline
 70
8
 71
3
 72
8
 73
4
 74
0
 40
0
 40
0
 40
0
 40
0
 40
1
 40
1
 40
1
 40
1
 10
84.537254
 20
130.347100
 30
0.0
 10
95.149554
 20
130.778203
 30
0.0
 10
104.881801
 20
131.587140
 30
0.0
 10
106.164479
 20
132.144729
 30
0.0
  0
SPLINE
  5
115
100
AcDbEntity
  8
0
 62
7
100
AcDbSpline
 70
8
 71
3
 72
8
 73
4
 74
0
 40
0
 40
0
 40
0
 40
0
 40
1
 40
1
 40
1
 40
1
 10
106.164479
 20
132.144729
 30
0.0
 10
107.447165
 20
132.702313
 30
0.0
 10
110.645863
 20
135.084288
 30
0.0
 10
113.272722
 20
137.437999
 30
0.0
  0
SPLINE
  5
116
100
AcDbEntity
  8
0
 62
7
100
AcDbSpline
 70
8
 71
3
 72
8
 73
4
 74
0
 40
0
 40
0
 40
0
 40
0
 40
1
 40
1
 40
1
 40
1
 10
113.272722
 20
137.437999
 30
0.0
 10
115.899573
 20
139.791709
 30
0.0
 10
118.438128
 20
141.717467
 30
0.0
 10
118.913955
 20
141.717467
 30
0.0
  0
SPLINE
  5
117
100
AcDbEntity
  8
0
 62
7
100
AcDbSpline
 70
8
 71
3
 72
8
 73
4
 74
0
 40
0
 40
0
 40
0
 40
0
 40
1
 40
1
 40
1
 40
1
 10
118.913955
 20
141.717467
 30
0.0
 10
120.146405
 20
141.717467
 30
0.0
 10
123.984989
 20
136.971547
 30
0.0
 10
123.984989
 20
135.447779
 30
0.0
  0
SPLINE
  5
118
100
AcDbEntity
  8
0
 62
7
100
AcDbSpline
 70
8
 71
3
 72
8
 73
4
 74
0
 40
0
 40
0
 40
0
 40
0
 40
1
 40
1
 40
1
 40
1
 10
123.984989
 20
135.447779
 30
0.0
 10
123.984989
 20
133.531208
 30
0.0
 10
121.972279
 20
133.910833
 30
0.0
 10
120.753773
 20
136.057226
 30
0.0
  0
SPLINE
  5
119
100
AcDbEntity
  8
0
 62
7
100
AcDbSpline
 70
8
 71
3
 72
8
 73
4
 74
0
 40
0
 40
0
 40
0
 40
0
 40
1
 40
1
 40
1
 40
1
 10
120.753773
 20
136.057226
 30
0.0
 10
119.298553
 20
138.620575
 30
0.0
 10
117.594659
 20
138.427382
 30
0.0
 10
115.471643
 20
135.458306
 30
0.0
  0
SPLINE
  5
11a
100
AcDbEntity
  8
0
 62
7
100
AcDbSpline
 70
8
 71
3
 72
8
 73
4
 74
0
 40
0
 40
0
 40
0
 40
0
 40
1
 40
1
 40
1
 40
1
 10
115.471643
 20
135.458306
 30
0.0
 10
113.217881
 20
132.306406
 30
0.0
 10
113.229604
 20
131.340353
 30
0.0
 10
115.521638
 20
131.340353
 30
0.0
  0
SPLINE
  5
11b
100
AcDbEntity
  8
0
 62
7
100
AcDbSpline
 70
8
 71
3
 72
8
 73
4
 74
0
 40
0
 40
0
 40
0
 40
0
 40
1
 40
1
 40
1
 40
1
 10
115.521638
 20
131.340353
 30
0.0
 10
117.131081
 20
131.340353
 30
0.0
 10
117.290887
 20
130.946653
 30
0.0
 10
116.861884
 20
128.038540
 30
0.0
  0
SPLINE
  5
11c
100
AcDbEntity
  8
0
 62
7
100
AcDbSpline
 70
8
 71
3
 72
8
 73
4
 74
0
 40
0
 40
0
 40
0
 40
0
 40
1
 40
1
 40
1
 40
1
 10
116.861884
 20
128.038540
 30
0.0
 10
116.594007
 20
126.222533
 30
0.0
 10
116.560047
 20
124.736717
 30
0.0
 10
116.786417
 20
124.736717
 30
0.0
  0
SPLINE
  5
11d
100
AcDbEntity
  8
0
 62
7
100
AcDbSpline
 70
8
 71
3
 72
8
 73
4
 74
0
 40
0
 40
0
 40
0
 40
0
 40
1
 40
1
 40
1
 40
1
 10
116.786426
 20
124.736717
 30
0.0
 10
117.920445
 20
124.736717
 30
0.0
 10
125.981833
 20
133.993237
 30
0.0
 10
127.591292
 20
137.143466
 30
0.0
  0
SPLINE
  5
11e
100
AcDbEntity
  8
0
 62
7
100
AcDbSpline
 70
8
 71
3
 72
8
 73
4
 74
0
 40
0
 40
0
 40
0
 40
0
 40
1
 40
1
 40
1
 40
1
 10
127.591292
 20
137.143466
 30
0.0
 10
131.784245
 20
145.350350
 30
0.0
 10
135.836358
 20
142.402028
 30
0.0
 10
141.122897
 20
127.297887
 30
0.0
  0
SPLINE
  5
11f
100
AcDbEntity
  8
0
 62
7
100
AcDbSpline
 70
8
 71
3
 72
8
 73
4
 74
0
 40
0
 40
0
 40
0
 40
0
 40
1
 40
1
 40
1
 40
1
 10
147.896349
 20
120.491531
 30
0.0
 10
150.311502
 20
120.491531
 30
0.0
 10
152.286849
 20
120.293970
 30
0.0
 10
152.286016
 20
120.052492
 30
0.0
  0
SPLINE
  5
120
100
AcDbEntity
  8
0
 62
7
100
AcDbSpline
 70
8
 71
3
 72
8
 73
4
 74
0
 40
0
 40
0
 40
0
 40
0
 40
1
 40
1
 40
1
 40
1
 10
152.286016
 20
120.052492
 30
0.0
 10
152.285169
 20
119.811017
 30
0.0
 10
150.910835
 20
115.237052
 30
0.0
 10
149.231903
 20
109.888146
 30
0.0
  0
SPLINE
  5
121
100
AcDbEntity
  8
0
 62
7
100
AcDbSpline
 70
8
 71
3
 72
8
 73
4
 74
0
 40
0
 40
0
 40
0
 40
0
 40
1
 40
1
 40
1
 40
1
 10
149.231903
 20
109.888146
 30
0.0
 10
147.456361
 20
104.231424
 30
0.0
 10
146.404254
 20
99.383146
 30
0.0
 10
146.717015
 20
98.299142
 30
0.0
  0
SPLINE
  5
122
100
AcDbEntity
  8
0
 62
7
100
AcDbSpline
 70
8
 71
3
 72
8
 73
4
 74
0
 40
0
 40
0
 40
0
 40
0
 40
1
 40
1
 40
1
 40
1
 10
146.717015
 20
98.299142
 30
0.0
 10
147.328653
 20
96.179198
 30
0.0
 10
147.801313
 20
96.255839
 30
0.0
 10
135.133306
 20
96.420967
 30
0.0
  0
SPLINE
  5
123
100
AcDbEntity
  8
0
 62
7
100
AcDbSpline
 70
8
 71
3
 72
8
 73
4
 74
0
 40
0
 40
0
 40
0
 40
0
 40
1
 40
1
 40
1
 40
1
 10
135.133306
 20
96.420967
 30
0.0
 10
126.794644
 20
96.529645
 30
0.0
 10
111.881615
 20
97.938668
 30
0.0
 10
109.192119
 20
98.871959
 30
0.0
  0
SPLINE
  5
124
100
AcDbEntity
  8
0
 62
7
100
AcDbSpline
 70
8
 71
3
 72
8
 73
4
 74
0
 40
0
 40
0
 40
0
 40
0
 40
1
 40
1
 40
1
 40
1
 10
109.192119
 20
98.871959
 30
0.0
 10
107.081947
 20
99.604225
 30
0.0
 10
107.277891
 20
101.658133
 30
0.0
 10
110.780663
 20
115.522952
 30
0.0
  0
SPLINE
  5
125
100
AcDbEntity
  8
0
 62
7
100
AcDbSpline
 70
8
 71
3
 72
8
 73
4
 74
0
 40
0
 40
0
 40
0
 40
0
 40
1
 40
1
 40
1
 40
1
 10
110.780663
 20
115.522952
 30
0.0
 10
112.864584
 20
123.771616
 30
0.0
 10
113.587499
 20
128.061699
 30
0.0
 10
113.002085
 20
128.705704
 30
0.0
  0
SPLINE
  5
126
100
AcDbEntity
  8
0
 62
7
100
AcDbSpline
 70
8
 71
3
 72
8
 73
4
 74
0
 40
0
 40
0
 40
0
 40
0
 40
1
 40
1
 40
1
 40
1
 10
113.002085
 20
128.705704
 30
0.0
 10
112.416663
 20
129.349707
 30
0.0
 10
109.178705
 20
129.275068
 30
0.0
 10
103.052335
 20
128.476359
 30
0.0
  0
SPLINE
  5
127
100
AcDbEntity
  8
0
 62
7
100
AcDbSpline
 70
8
 71
3
 72
8
 73
4
 74
0
 40
0
 40
0
 40
0
 40
0
 40
1
 40
1
 40
1
 40
1
 10
97.186284
 20
101.137908
 30
0.0
 10
98.955011
 20
101.130372
 30
0.0
 10
100.980994
 20
100.711947
 30
0.0
 10
101.688479
 20
100.208976
 30
0.0
  0
SPLINE
  5
128
100
AcDbEntity
  8
0
 62
7
100
AcDbSpline
 70
8
 71
3
 72
8
 73
4
 74
0
 40
0
 40
0
 40
0
 40
0
 40
1
 40
1
 40
1
 40
1
 10
101.688479
 20
100.208976
 30
0.0
 10
102.608377
 20
99.554999
 30
0.0
 10
101.678094
 20
99.290374
 30
0.0
 10
98.422841
 20
99.280044
 30
0.0
  0
LWPOLYLINE
  5
129
100
AcDbEntity
  8
0
 62
7
100
AcDbPolyline
 90
5
 70
1
 10
141.122897
 20
127.297887
 30
0.0
 10
143.505163
 20
120.491531
 30
0.0
 10
147.896349
 20
120.491531
 30
0.0
 10
141.122897
 20
127.297887
 30
0.0
 10
141.122897
 20
127.297887
 30
0.0
  0
SPLINE
  5
12a
100
AcDbEntity
  8
0
 62
7
100
AcDbSpline
 70
8
 71
3
 72
8
 73
4
 74
0
 40
0
 40
0
 40
0
 40
0
 40
1
 40
1
 40
1
 40
1
 10
100.506471
 20
89.742522
 30
0.0
 10
108.935528
 20
77.645558
 30
0.0
 10
109.629928
 20
77.139324
 30
0.0
 10
116.700989
 20
77.936261
 30
0.0
  0
SPLINE
  5
12b
100
AcDbEntity
  8
0
 62
7
100
AcDbSpline
 70
8
 71
3
 72
8
 73
4
 74
0
 40
0
 40
0
 40
0
 40
0
 40
1
 40
1
 40
1
 40
1
 10
116.700989
 20
77.936261
 30
0.0
 10
128.210716
 20
79.233475
 30
0.0
 10
142.162807
 20
84.936884
 30
0.0
 10
149.283031
 20
91.255338
 30
0.0
  0
SPLINE
  5
12c
100
AcDbEntity
  8
0
 62
7
100
AcDbSpline
 70
8
 71
3
 72
8
 73
4
 74
0
 40
0
 40
0
 40
0
 40
0
 40
1
 40
1
 40
1
 40
1
 10
149.283031
 20
91.255338
 30
0.0
 10
151.169661
 20
92.929528
 30
0.0
 10
153.549700
 20
94.776145
 30
0.0
 10
154.572005
 20
95.358925
 30
0.0
  0
SPLINE
  5
12d
100
AcDbEntity
  8
0
 62
7
100
AcDbSpline
 70
8
 71
3
 72
8
 73
4
 74
0
 40
0
 40
0
 40
0
 40
0
 40
1
 40
1
 40
1
 40
1
 10
154.572005
 20
95.358925
 30
0.0
 10
156.985253
 20
96.734648
 30
0.0
 10
161.717654
 20
107.175310
 30
0.0
 10
161.717654
 20
111.123760
 30
0.0
  0
SPLINE
  5
12e
100
AcDbEntity
  8
0
 62
7
100
AcDbSpline
 70
8
 71
3
 72
8
 73
4
 74
0
 40
0
 40
0
 40
0
 40
0
 40
1
 40
1
 40
1
 40
1
 10
161.717654
 20
111.123760
 30
0.0
 10
161.717654
 20
114.639681
 30
0.0
 10
158.131564
 20
120.007474
 30
0.0
 10
149.806793
 20
128.952398
 30
0.0
  0
SPLINE
  5
12f
100
AcDbEntity
  8
0
 62
7
100
AcDbSpline
 70
8
 71
3
 72
8
 73
4
 74
0
 40
0
 40
0
 40
0
 40
0
 40
1
 40
1
 40
1
 40
1
 10
149.806793
 20
128.952398
 30
0.0
 10
146.924612
 20
132.049298
 30
0.0
 10
144.566462
 20
135.166228
 30
0.0
 10
144.566462
 20
135.878910
 30
0.0
  0
SPLINE
  5
130
100
AcDbEntity
  8
0
 62
7
100
AcDbSpline
 70
8
 71
3
 72
8
 73
4
 74
0
 40
0
 40
0
 40
0
 40
0
 40
1
 40
1
 40
1
 40
1
 10
144.566462
 20
135.878910
 30
0.0
 10
144.566462
 20
136.591603
 30
0.0
 10
145.338267
 20
138.254084
 30
0.0
 10
146.281580
 20
139.573317
 30
0.0
  0
SPLINE
  5
131
100
AcDbEntity
  8
0
 62
7
100
AcDbSpline
 70
8
 71
3
 72
8
 73
4
 74
0
 40
0
 40
0
 40
0
 40
0
 40
1
 40
1
 40
1
 40
1
 10
146.281580
 20
139.573317
 30
0.0
 10
147.224897
 20
140.892562
 30
0.0
 10
147.996701
 20
142.280249
 30
0.0
 10
147.996701
 20
142.657069
 30
0.0
  0
SPLINE
  5
132
100
AcDbEntity
  8
0
 62
7
100
AcDbSpline
 70
8
 71
3
 72
8
 73
4
 74
0
 40
0
 40
0
 40
0
 40
0
 40
1
 40
1
 40
1
 40
1
 10
147.996701
 20
142.657069
 30
0.0
 10
147.996701
 20
143.033881
 30
0.0
 10
145.743865
 20
143.566917
 30
0.0
 10
142.990395
 20
143.841581
 30
0.0
  0
SPLINE
  5
133
100
AcDbEntity
  8
0
 62
7
100
AcDbSpline
 70
8
 71
3
 72
8
 73
4
 74
0
 40
0
 40
0
 40
0
 40
0
 40
1
 40
1
 40
1
 40
1
 10
142.990395
 20
143.841581
 30
0.0
 10
140.236916
 20
144.116234
 30
0.0
 10
136.802622
 20
145.013055
 30
0.0
 10
135.358621
 20
145.834508
 30
0.0
  0
SPLINE
  5
134
100
AcDbEntity
  8
0
 62
7
100
AcDbSpline
 70
8
 71
3
 72
8
 73
4
 74
0
 40
0
 40
0
 40
0
 40
0
 40
1
 40
1
 40
1
 40
1
 10
135.358621
 20
145.834508
 30
0.0
 10
133.073834
 20
147.134251
 30
0.0
 10
132.599484
 20
147.150894
 30
0.0
 10
131.703154
 20
145.962797
 30
0.0
  0
SPLINE
  5
135
100
AcDbEntity
  8
0
 62
7
100
AcDbSpline
 70
8
 71
3
 72
8
 73
4
 74
0
 40
0
 40
0
 40
0
 40
0
 40
1
 40
1
 40
1
 40
1
 10
131.703154
 20
145.962797
 30
0.0
 10
130.027104
 20
143.741195
 30
0.0
 10
125.284371
 20
143.223605
 30
0.0
 10
122.185681
 20
144.924124
 30
0.0
  0
SPLINE
  5
136
100
AcDbEntity
  8
0
 62
7
100
AcDbSpline
 70
8
 71
3
 72
8
 73
4
 74
0
 40
0
 40
0
 40
0
 40
0
 40
1
 40
1
 40
1
 40
1
 10
122.185681
 20
144.924124
 30
0.0
 10
118.758360
 20
146.804997
 30
0.0
 10
117.699034
 20
146.809617
 30
0.0
 10
114.443942
 20
144.957894
 30
0.0
  0
SPLINE
  5
137
100
AcDbEntity
  8
0
 62
7
100
AcDbSpline
 70
8
 71
3
 72
8
 73
4
 74
0
 40
0
 40
0
 40
0
 40
0
 40
1
 40
1
 40
1
 40
1
 10
114.443942
 20
144.957906
 30
0.0
 10
112.079171
 20
143.612662
 30
0.0
 10
111.660305
 20
143.617096
 30
0.0
 10
109.730898
 20
145.007808
 30
0.0
  0
SPLINE
  5
138
100
AcDbEntity
  8
0
 62
7
100
AcDbSpline
 70
8
 71
3
 72
8
 73
4
 74
0
 40
0
 40
0
 40
0
 40
0
 40
1
 40
1
 40
1
 40
1
 10
109.730898
 20
145.007800
 30
0.0
 10
104.952456
 20
148.452071
 30
0.0
 10
105.178747
 20
153.810348
 30
0.0
 10
110.332029
 20
159.241556
 30
0.0
  0
SPLINE
  5
139
100
AcDbEntity
  8
0
 62
7
100
AcDbSpline
 70
8
 71
3
 72
8
 73
4
 74
0
 40
0
 40
0
 40
0
 40
0
 40
1
 40
1
 40
1
 40
1
 10
110.332029
 20
159.241556
 30
0.0
 10
113.794238
 20
162.890492
 30
0.0
 10
114.952131
 20
161.300424
 30
0.0
 10
112.758220
 20
155.909810
 30
0.0
  0
SPLINE
  5
13a
100
AcDbEntity
  8
0
 62
7
100
AcDbSpline
 70
8
 71
3
 72
8
 73
4
 74
0
 40
0
 40
0
 40
0
 40
0
 40
1
 40
1
 40
1
 40
1
 10
112.758220
 20
155.909810
 30
0.0
 10
109.228255
 20
147.236401
 30
0.0
 10
112.589985
 20
144.792645
 30
0.0
 10
119.283965
 20
151.166010
 30
0.0
  0
SPLINE
  5
13b
100
AcDbEntity
  8
0
 62
7
100
AcDbSpline
 70
8
 71
3
 72
8
 73
4
 74
0
 40
0
 40
0
 40
0
 40
0
 40
1
 40
1
 40
1
 40
1
 10
119.283965
 20
151.166010
 30
0.0
 10
124.804396
 20
156.422035
 30
0.0
 10
127.073104
 20
157.969725
 30
0.0
 10
128.711060
 20
157.597129
 30
0.0
  0
SPLINE
  5
13c
100
AcDbEntity
  8
0
 62
7
100
AcDbSpline
 70
8
 71
3
 72
8
 73
4
 74
0
 40
0
 40
0
 40
0
 40
0
 40
1
 40
1
 40
1
 40
1
 10
128.711060
 20
157.597129
 30
0.0
 10
129.840036
 20
157.340307
 30
0.0
 10
129.617989
 20
156.596530
 30
0.0
 10
127.490742
 20
153.509674
 30
0.0
  0
SPLINE
  5
13d
100
AcDbEntity
  8
0
 62
7
100
AcDbSpline
 70
8
 71
3
 72
8
 73
4
 74
0
 40
0
 40
0
 40
0
 40
0
 40
1
 40
1
 40
1
 40
1
 10
127.935680
 20
154.844489
 30
0.0
 10
124.631272
 20
150.049466
 30
0.0
 10
124.505692
 20
147.769186
 30
0.0
 10
127.546015
 20
147.769186
 30
0.0
  0
SPLINE
  5
13e
100
AcDbEntity
  8
0
 62
7
100
AcDbSpline
 70
8
 71
3
 72
8
 73
4
 74
0
 40
0
 40
0
 40
0
 40
0
 40
1
 40
1
 40
1
 40
1
 10
127.101078
 20
146.434371
 30
0.0
 10
128.679922
 20
146.434371
 30
0.0
 10
130.643046
 20
147.868734
 30
0.0
 10
133.624721
 20
151.200935
 30
0.0
  0
SPLINE
  5
13f
100
AcDbEntity
  8
0
 62
7
100
AcDbSpline
 70
8
 71
3
 72
8
 73
4
 74
0
 40
0
 40
0
 40
0
 40
0
 40
1
 40
1
 40
1
 40
1
 10
133.624721
 20
151.200935
 30
0.0
 10
135.970558
 20
153.822545
 30
0.0
 10
138.496390
 20
155.839009
 30
0.0
 10
139.237672
 20
155.681966
 30
0.0
  0
SPLINE
  5
140
100
AcDbEntity
  8
0
 62
7
100
AcDbSpline
 70
8
 71
3
 72
8
 73
4
 74
0
 40
0
 40
0
 40
0
 40
0
 40
1
 40
1
 40
1
 40
1
 10
139.237672
 20
155.681966
 30
0.0
 10
139.978963
 20
155.524921
 30
0.0
 10
140.552029
 20
155.184174
 30
0.0
 10
140.511141
 20
154.924747
 30
0.0
  0
SPLINE
  5
141
100
AcDbEntity
  8
0
 62
7
100
AcDbSpline
 70
8
 71
3
 72
8
 73
4
 74
0
 40
0
 40
0
 40
0
 40
0
 40
1
 40
1
 40
1
 40
1
 10
140.511141
 20
154.924747
 30
0.0
 10
140.470232
 20
154.665317
 30
0.0
 10
140.157414
 20
152.814625
 30
0.0
 10
139.815897
 20
150.812095
 30
0.0
  0
SPLINE
  5
142
100
AcDbEntity
  8
0
 62
7
100
AcDbSpline
 70
8
 71
3
 72
8
 73
4
 74
0
 40
0
 40
0
 40
0
 40
0
 40
1
 40
1
 40
1
 40
1
 10
139.815897
 20
150.812095
 30
0.0
 10
139.362112
 20
148.151126
 30
0.0
 10
139.513934
 20
146.948907
 30
0.0
 10
140.379992
 20
146.345505
 30
0.0
  0
SPLINE
  5
143
100
AcDbEntity
  8
0
 62
7
100
AcDbSpline
 70
8
 71
3
 72
8
 73
4
 74
0
 40
0
 40
0
 40
0
 40
0
 40
1
 40
1
 40
1
 40
1
 10
140.379992
 20
146.345505
 30
0.0
 10
142.280919
 20
145.021092
 30
0.0
 10
142.661976
 20
145.303179
 30
0.0
 10
143.715455
 20
148.814630
 30
0.0
  0
SPLINE
  5
144
100
AcDbEntity
  8
0
 62
7
100
AcDbSpline
 70
8
 71
3
 72
8
 73
4
 74
0
 40
0
 40
0
 40
0
 40
0
 40
1
 40
1
 40
1
 40
1
 10
143.715455
 20
148.814630
 30
0.0
 10
144.965115
 20
152.980072
 30
0.0
 10
148.681392
 20
155.189554
 30
0.0
 10
160.431305
 20
158.752860
 30
0.0
  0
SPLINE
  5
145
100
AcDbEntity
  8
0
 62
7
100
AcDbSpline
 70
8
 71
3
 72
8
 73
4
 74
0
 40
0
 40
0
 40
0
 40
0
 40
1
 40
1
 40
1
 40
1
 10
160.431305
 20
158.752860
 30
0.0
 10
176.014168
 20
163.478556
 30
0.0
 10
184.628113
 20
164.787375
 30
0.0
 10
175.835434
 20
161.093391
 30
0.0
  0
SPLINE
  5
146
100
AcDbEntity
  8
0
 62
7
100
AcDbSpline
 70
8
 71
3
 72
8
 73
4
 74
0
 40
0
 40
0
 40
0
 40
0
 40
1
 40
1
 40
1
 40
1
 10
175.835434
 20
161.093391
 30
0.0
 10
172.112599
 20
159.529361
 30
0.0
 10
171.980524
 20
159.352337
 30
0.0
 10
173.320933
 20
157.722995
 30
0.0
  0
SPLINE
  5
147
100
AcDbEntity
  8
0
 62
7
100
AcDbSpline
 70
8
 71
3
 72
8
 73
4
 74
0
 40
0
 40
0
 40
0
 40
0
 40
1
 40
1
 40
1
 40
1
 10
173.320933
 20
157.722995
 30
0.0
 10
177.442235
 20
152.713288
 30
0.0
 10
168.733349
 20
145.601711
 30
0.0
 10
155.493855
 20
143.165614
 30
0.0
  0
SPLINE
  5
148
100
AcDbEntity
  8
0
 62
7
100
AcDbSpline
 70
8
 71
3
 72
8
 73
4
 74
0
 40
0
 40
0
 40
0
 40
0
 40
1
 40
1
 40
1
 40
1
 10
155.493855
 20
143.165614
 30
0.0
 10
152.142608
 20
142.548978
 30
0.0
 10
150.267879
 20
140.387224
 30
0.0
 10
149.292214
 20
136.014549
 30
0.0
  0
SPLINE
  5
149
100
AcDbEntity
  8
0
 62
7
100
AcDbSpline
 70
8
 71
3
 72
8
 73
4
 74
0
 40
0
 40
0
 40
0
 40
0
 40
1
 40
1
 40
1
 40
1
 10
149.292214
 20
136.014549
 30
0.0
 10
148.824724
 20
133.919407
 30
0.0
 10
149.416649
 20
133.049437
 30
0.0
 10
153.936937
 20
129.187833
 30
0.0
  0
SPLINE
  5
14a
100
AcDbEntity
  8
0
 62
7
100
AcDbSpline
 70
8
 71
3
 72
8
 73
4
 74
0
 40
0
 40
0
 40
0
 40
0
 40
1
 40
1
 40
1
 40
1
 10
153.936937
 20
129.187833
 30
0.0
 10
159.792997
 20
124.185117
 30
0.0
 10
163.883670
 20
118.488735
 30
0.0
 10
165.099913
 20
113.643070
 30
0.0
  0
SPLINE
  5
14b
100
AcDbEntity
  8
0
 62
7
100
AcDbSpline
 70
8
 71
3
 72
8
 73
4
 74
0
 40
0
 40
0
 40
0
 40
0
 40
1
 40
1
 40
1
 40
1
 10
165.099913
 20
113.643070
 30
0.0
 10
166.140776
 20
109.496116
 30
0.0
 10
164.723101
 20
104.631133
 30
0.0
 10
160.944331
 20
99.382618
 30
0.0
  0
LWPOLYLINE
  5
14c
100
AcDbEntity
  8
0
 62
7
100
AcDbPolyline
 90
7
 70
1
 10
103.052335
 20
128.476359
 30
0.0
 10
93.970444
 20
127.292338
 30
0.0
 10
93.970444
 20
114.222331
 30
0.0
 10
93.970444
 20
101.152343
 30
0.0
 10
97.186284
 20
101.137893
 30
0.0
 10
103.052335
 20
128.476345
 30
0.0
 10
103.052335
 20
128.476359
 30
0.0
  0
SPLINE
  5
14d
100
AcDbEntity
  8
0
 62
7
100
AcDbSpline
 70
8
 71
3
 72
8
 73
4
 74
0
 40
0
 40
0
 40
0
 40
0
 40
1
 40
1
 40
1
 40
1
 10
161.465446
 20
94.694128
 30
0.0
 10
163.254967
 20
94.202912
 30
0.0
 10
171.279436
 20
92.444659
 30
0.0
 10
179.297626
 20
90.786897
 30
0.0
  0
SPLINE
  5
14e
100
AcDbEntity
  8
0
 62
7
100
AcDbSpline
 70
8
 71
3
 72
8
 73
4
 74
0
 40
0
 40
0
 40
0
 40
0
 40
1
 40
1
 40
1
 40
1
 10
179.297626
 20
90.786897
 30
0.0
 10
187.315808
 20
89.129132
 30
0.0
 10
194.647944
 20
87.433160
 30
0.0
 10
195.591249
 20
87.018084
 30
0.0
  0
SPLINE
  5
14f
100
AcDbEntity
  8
0
 62
7
100
AcDbSpline
 70
8
 71
3
 72
8
 73
4
 74
0
 40
0
 40
0
 40
0
 40
0
 40
1
 40
1
 40
1
 40
1
 10
195.591249
 20
87.018084
 30
0.0
 10
197.172461
 20
86.322296
 30
0.0
 10
197.112365
 20
86.179396
 30
0.0
 10
194.821539
 20
85.187907
 30
0.0
  0
SPLINE
  5
150
100
AcDbEntity
  8
0
 62
7
100
AcDbSpline
 70
8
 71
3
 72
8
 73
4
 74
0
 40
0
 40
0
 40
0
 40
0
 40
1
 40
1
 40
1
 40
1
 10
194.821539
 20
85.187907
 30
0.0
 10
192.847849
 20
84.333691
 30
0.0
 10
191.493693
 20
84.420471
 30
0.0
 10
188.238542
 20
85.609860
 30
0.0
  0
SPLINE
  5
151
100
AcDbEntity
  8
0
 62
7
100
AcDbSpline
 70
8
 71
3
 72
8
 73
4
 74
0
 40
0
 40
0
 40
0
 40
0
 40
1
 40
1
 40
1
 40
1
 10
188.238542
 20
85.609860
 30
0.0
 10
185.984560
 20
86.433427
 30
0.0
 10
178.071255
 20
88.546304
 30
0.0
 10
170.653433
 20
90.305115
 30
0.0
  0
LWPOLYLINE
  5
152
100
AcDbEntity
  8
0
 62
7
100
AcDbPolyline
 90
5
 70
1
 10
98.422841
 20
99.280044
 30
0.0
 10
93.870873
 20
99.265623
 30
0.0
 10
100.506471
 20
89.742533
 30
0.0
 10
98.422841
 20
99.280056
 30
0.0
 10
98.422841
 20
99.280044
 30
0.0
  0
SPLINE
  5
153
100
AcDbEntity
  8
0
 62
7
100
AcDbSpline
 70
8
 71
3
 72
8
 73
4
 74
0
 40
0
 40
0
 40
0
 40
0
 40
1
 40
1
 40
1
 40
1
 10
150.223302
 20
88.847553
 30
0.0
 10
142.415712
 20
83.612548
 30
0.0
 10
133.300230
 20
79.707030
 30
0.0
 10
120.667055
 20
76.184234
 30
0.0
  0
SPLINE
  5
154
100
AcDbEntity
  8
0
 62
7
100
AcDbSpline
 70
8
 71
3
 72
8
 73
4
 74
0
 40
0
 40
0
 40
0
 40
0
 40
1
 40
1
 40
1
 40
1
 10
120.667055
 20
76.184234
 30
0.0
 10
112.360047
 20
73.867796
 30
0.0
 10
111.286417
 20
73.797703
 30
0.0
 10
85.668220
 20
73.899416
 30
0.0
  0
SPLINE
  5
155
100
AcDbEntity
  8
0
 62
7
100
AcDbSpline
 70
8
 71
3
 72
8
 73
4
 74
0
 40
0
 40
0
 40
0
 40
0
 40
1
 40
1
 40
1
 40
1
 10
85.668220
 20
73.899416
 30
0.0
 10
59.893160
 20
74.001753
 30
0.0
 10
58.846390
 20
74.080213
 30
0.0
 10
43.358751
 20
77.070742
 30
0.0
  0
LWPOLYLINE
  5
156
100
AcDbEntity
  8
0
 62
7
100
AcDbPolyline
 90
5
 70
1
 10
160.944331
 20
99.382618
 30
0.0
 10
158.211780
 20
95.587240
 30
0.0
 10
161.465446
 20
94.694128
 30
0.0
 10
160.944331
 20
99.382618
 30
0.0
 10
160.944331
 20
99.382618
 30
0.0
  0
SPLINE
  5
157
100
AcDbEntity
  8
0
 62
7
100
AcDbSpline
 70
8
 71
3
 72
8
 73
4
 74
0
 40
0
 40
0
 40
0
 40
0
 40
1
 40
1
 40
1
 40
1
 10
108.548667
 20
75.161048
 30
0.0
 10
108.548667
 20
75.933248
 30
0.0
 10
95.113416
 20
94.036937
 30
0.0
 10
92.834779
 20
96.335157
 30
0.0
  0
SPLINE
  5
158
100
AcDbEntity
  8
0
 62
7
100
AcDbSpline
 70
8
 71
3
 72
8
 73
4
 74
0
 40
0
 40
0
 40
0
 40
0
 40
1
 40
1
 40
1
 40
1
 10
92.834779
 20
96.335157
 30
0.0
 10
90.106254
 20
99.087106
 30
0.0
 10
83.264189
 20
100.086791
 30
0.0
 10
79.353596
 20
98.304888
 30
0.0
  0
SPLINE
  5
159
100
AcDbEntity
  8
0
 62
7
100
AcDbSpline
 70
8
 71
3
 72
8
 73
4
 74
0
 40
0
 40
0
 40
0
 40
0
 40
1
 40
1
 40
1
 40
1
 10
79.353596
 20
98.304888
 30
0.0
 10
76.574805
 20
97.038689
 30
0.0
 10
68.405321
 20
86.294816
 30
0.0
 10
65.566183
 20
80.172748
 30
0.0
  0
SPLINE
  5
15a
100
AcDbEntity
  8
0
 62
7
100
AcDbSpline
 70
8
 71
3
 72
8
 73
4
 74
0
 40
0
 40
0
 40
0
 40
0
 40
1
 40
1
 40
1
 40
1
 10
65.566183
 20
80.172748
 30
0.0
 10
64.296265
 20
77.434413
 30
0.0
 10
64.162855
 20
76.485009
 30
0.0
 10
65.001462
 20
76.154064
 30
0.0
  0
SPLINE
  5
15b
100
AcDbEntity
  8
0
 62
7
100
AcDbSpline
 70
8
 71
3
 72
8
 73
4
 74
0
 40
0
 40
0
 40
0
 40
0
 40
1
 40
1
 40
1
 40
1
 10
65.001462
 20
76.154064
 30
0.0
 10
67.282322
 20
75.253942
 30
0.0
 10
108.548667
 20
74.312937
 30
0.0
 10
108.548667
 20
75.161048
 30
0.0
  0
LWPOLYLINE
  5
15c
100
AcDbEntity
  8
0
 62
7
100
AcDbPolyline
 90
5
 70
1
 10
170.653433
 20
90.305115
 30
0.0
 10
157.166482
 20
93.502958
 30
0.0
 10
150.223302
 20
88.847553
 30
0.0
 10
170.653433
 20
90.305115
 30
0.0
 10
170.653433
 20
90.305115
 30
0.0
  0
SPLINE
  5
15d
100
AcDbEntity
  8
0
 62
7
100
AcDbSpline
 70
8
 71
3
 72
8
 73
4
 74
0
 40
0
 40
0
 40
0
 40
0
 40
1
 40
1
 40
1
 40
1
 10
61.402637
 20
80.089447
 30
0.0
 10
62.900845
 20
81.476256
 30
0.0
 10
66.644864
 20
86.039832
 30
0.0
 10
69.722673
 20
90.230738
 30
0.0
  0
LWPOLYLINE
  5
15e
100
AcDbEntity
  8
0
 62
7
100
AcDbPolyline
 90
4
 70
1
 10
43.358751
 20
77.070742
 30
0.0
 10
43.358469
 20
77.070722
 30
0.0
 10
43.358751
 20
77.070742
 30
0.0
 10
43.358751
 20
77.070742
 30
0.0
  0
SPLINE
  5
15f
100
AcDbEntity
  8
0
 62
7
100
AcDbSpline
 70
8
 71
3
 72
8
 73
4
 74
0
 40
0
 40
0
 40
0
 40
0
 40
1
 40
1
 40
1
 40
1
 10
71.566639
 20
98.488137
 30
0.0
 10
65.284979
 20
99.555615
 30
0.0
 10
60.508492
 20
99.371637
 30
0.0
 10
60.045507
 20
98.044374
 30
0.0
  0
SPLINE
  5
160
100
AcDbEntity
  8
0
 62
7
100
AcDbSpline
 70
8
 71
3
 72
8
 73
4
 74
0
 40
0
 40
0
 40
0
 40
0
 40
1
 40
1
 40
1
 40
1
 10
60.045507
 20
98.044374
 30
0.0
 10
59.811212
 20
97.372699
 30
0.0
 10
60.167348
 20
95.115034
 30
0.0
 10
60.836931
 20
93.027326
 30
0.0
  0
SPLINE
  5
161
100
AcDbEntity
  8
0
 62
7
100
AcDbSpline
 70
8
 71
3
 72
8
 73
4
 74
0
 40
0
 40
0
 40
0
 40
0
 40
1
 40
1
 40
1
 40
1
 10
60.836931
 20
93.027326
 30
0.0
 10
63.106726
 20
85.950268
 30
0.0
 10
60.551740
 20
84.753192
 30
0.0
 10
48.947956
 20
87.457036
 30
0.0
  0
SPLINE
  5
162
100
AcDbEntity
  8
0
 62
7
100
AcDbSpline
 70
8
 71
3
 72
8
 73
4
 74
0
 40
0
 40
0
 40
0
 40
0
 40
1
 40
1
 40
1
 40
1
 10
48.947956
 20
87.457036
 30
0.0
 10
45.646532
 20
88.226303
 30
0.0
 10
41.015847
 20
88.868881
 30
0.0
 10
38.657558
 20
88.884967
 30
0.0
  0
SPLINE
  5
163
100
AcDbEntity
  8
0
 62
7
100
AcDbSpline
 70
8
 71
3
 72
8
 73
4
 74
0
 40
0
 40
0
 40
0
 40
0
 40
1
 40
1
 40
1
 40
1
 10
38.657558
 20
88.884967
 30
0.0
 10
31.971217
 20
88.930625
 30
0.0
 10
30.288907
 20
89.674467
 30
0.0
 10
30.892183
 20
92.318624
 30
0.0
  0
SPLINE
  5
164
100
AcDbEntity
  8
0
 62
7
100
AcDbSpline
 70
8
 71
3
 72
8
 73
4
 74
0
 40
0
 40
0
 40
0
 40
0
 40
1
 40
1
 40
1
 40
1
 10
30.892183
 20
92.318624
 30
0.0
 10
31.339279
 20
94.278279
 30
0.0
 10
31.100099
 20
94.548716
 30
0.0
 10
28.919780
 20
94.548716
 30
0.0
  0
SPLINE
  5
165
100
AcDbEntity
  8
0
 62
7
100
AcDbSpline
 70
8
 71
3
 72
8
 73
4
 74
0
 40
0
 40
0
 40
0
 40
0
 40
1
 40
1
 40
1
 40
1
 10
28.919780
 20
94.548716
 30
0.0
 10
24.041156
 20
94.548716
 30
0.0
 10
15.932227
 20
90.304322
 30
0.0
 10
15.932227
 20
87.750756
 30
0.0
  0
SPLINE
  5
166
100
AcDbEntity
  8
0
 62
7
100
AcDbSpline
 70
8
 71
3
 72
8
 73
4
 74
0
 40
0
 40
0
 40
0
 40
0
 40
1
 40
1
 40
1
 40
1
 10
15.932227
 20
87.750756
 30
0.0
 10
15.932227
 20
85.800499
 30
0.0
 10
25.908287
 20
82.623069
 30
0.0
 10
42.087794
 20
79.420047
 30
0.0
  0
SPLINE
  5
167
100
AcDbEntity
  8
0
 62
7
100
AcDbSpline
 70
8
 71
3
 72
8
 73
4
 74
0
 40
0
 40
0
 40
0
 40
0
 40
1
 40
1
 40
1
 40
1
 10
42.087794
 20
79.420047
 30
0.0
 10
54.708467
 20
76.921548
 30
0.0
 10
58.107532
 20
77.039347
 30
0.0
 10
61.402637
 20
80.089447
 30
0.0
  0
LWPOLYLINE
  5
168
100
AcDbEntity
  8
0
 62
7
100
AcDbPolyline
 90
4
 70
1
 10
108.548667
 20
75.161048
 30
0.0
 10
108.548667
 20
75.161048
 30
0.0
 10
108.548667
 20
75.161048
 30
0.0
 10
108.548667
 20
75.161048
 30
0.0
  0
SPLINE
  5
169
100
AcDbEntity
  8
0
 62
7
100
AcDbSpline
 70
8
 71
3
 72
8
 73
4
 74
0
 40
0
 40
0
 40
0
 40
0
 40
1
 40
1
 40
1
 40
1
 10
58.810209
 20
90.514439
 30
0.0
 10
58.810209
 20
92.531056
 30
0.0
 10
58.492492
 20
92.815104
 30
0.0
 10
56.666308
 20
92.431075
 30
0.0
  0
SPLINE
  5
16a
100
AcDbEntity
  8
0
 62
7
100
AcDbSpline
 70
8
 71
3
 72
8
 73
4
 74
0
 40
0
 40
0
 40
0
 40
0
 40
1
 40
1
 40
1
 40
1
 10
56.666308
 20
92.431075
 30
0.0
 10
54.228232
 20
91.918371
 30
0.0
 10
54.004453
 20
92.963318
 30
0.0
 10
55.808750
 20
96.435467
 30
0.0
  0
SPLINE
  5
16b
100
AcDbEntity
  8
0
 62
7
100
AcDbSpline
 70
8
 71
3
 72
8
 73
4
 74
0
 40
0
 40
0
 40
0
 40
0
 40
1
 40
1
 40
1
 40
1
 10
55.808750
 20
96.435467
 30
0.0
 10
57.661437
 20
100.000727
 30
0.0
 10
57.373015
 20
101.152343
 30
0.0
 10
54.627419
 20
101.152343
 30
0.0
  0
SPLINE
  5
16c
100
AcDbEntity
  8
0
 62
7
100
AcDbSpline
 70
8
 71
3
 72
8
 73
4
 74
0
 40
0
 40
0
 40
0
 40
0
 40
1
 40
1
 40
1
 40
1
 10
54.627419
 20
101.152343
 30
0.0
 10
51.307221
 20
101.152343
 30
0.0
 10
50.564782
 20
102.464606
 30
0.0
 10
49.932596
 20
109.450362
 30
0.0
  0
SPLINE
  5
16d
100
AcDbEntity
  8
0
 62
7
100
AcDbSpline
 70
8
 71
3
 72
8
 73
4
 74
0
 40
0
 40
0
 40
0
 40
0
 40
1
 40
1
 40
1
 40
1
 10
49.932596
 20
109.450362
 30
0.0
 10
49.062756
 20
119.062250
 30
0.0
 10
47.399304
 20
120.929472
 30
0.0
 10
44.775549
 20
115.239147
 30
0.0
  0
SPLINE
  5
16e
100
AcDbEntity
  8
0
 62
7
100
AcDbSpline
 70
8
 71
3
 72
8
 73
4
 74
0
 40
0
 40
0
 40
0
 40
0
 40
1
 40
1
 40
1
 40
1
 10
44.775549
 20
115.239147
 30
0.0
 10
43.802709
 20
113.129281
 30
0.0
 10
42.547345
 20
112.113321
 30
0.0
 10
39.729506
 20
111.155456
 30
0.0
  0
SPLINE
  5
16f
100
AcDbEntity
  8
0
 62
7
100
AcDbSpline
 70
8
 71
3
 72
8
 73
4
 74
0
 40
0
 40
0
 40
0
 40
0
 40
1
 40
1
 40
1
 40
1
 10
39.729506
 20
111.155456
 30
0.0
 10
38.528710
 20
110.747267
 30
0.0
 10
38.226444
 20
109.555312
 30
0.0
 10
38.217071
 20
105.191288
 30
0.0
  0
SPLINE
  5
170
100
AcDbEntity
  8
0
 62
7
100
AcDbSpline
 70
8
 71
3
 72
8
 73
4
 74
0
 40
0
 40
0
 40
0
 40
0
 40
1
 40
1
 40
1
 40
1
 10
38.217071
 20
105.191288
 30
0.0
 10
38.201888
 20
98.112581
 30
0.0
 10
37.583971
 20
95.773360
 30
0.0
 10
35.576818
 20
95.195939
 30
0.0
  0
SPLINE
  5
171
100
AcDbEntity
  8
0
 62
7
100
AcDbSpline
 70
8
 71
3
 72
8
 73
4
 74
0
 40
0
 40
0
 40
0
 40
0
 40
1
 40
1
 40
1
 40
1
 10
35.576818
 20
95.195939
 30
0.0
 10
34.677107
 20
94.937113
 30
0.0
 10
33.940979
 20
94.294826
 30
0.0
 10
33.940979
 20
93.768620
 30
0.0
  0
SPLINE
  5
172
100
AcDbEntity
  8
0
 62
7
100
AcDbSpline
 70
8
 71
3
 72
8
 73
4
 74
0
 40
0
 40
0
 40
0
 40
0
 40
1
 40
1
 40
1
 40
1
 10
33.940979
 20
93.768620
 30
0.0
 10
33.940979
 20
92.165978
 30
0.0
 10
38.413975
 20
91.623319
 30
0.0
 10
42.945355
 20
92.676211
 30
0.0
  0
SPLINE
  5
173
100
AcDbEntity
  8
0
 62
7
100
AcDbSpline
 70
8
 71
3
 72
8
 73
4
 74
0
 40
0
 40
0
 40
0
 40
0
 40
1
 40
1
 40
1
 40
1
 10
42.945355
 20
92.676211
 30
0.0
 10
49.616165
 20
94.226206
 30
0.0
 10
49.655089
 20
94.221073
 30
0.0
 10
50.210119
 20
91.718591
 30
0.0
  0
SPLINE
  5
174
100
AcDbEntity
  8
0
 62
7
100
AcDbSpline
 70
8
 71
3
 72
8
 73
4
 74
0
 40
0
 40
0
 40
0
 40
0
 40
1
 40
1
 40
1
 40
1
 10
50.210119
 20
91.718591
 30
0.0
 10
50.569653
 20
90.097552
 30
0.0
 10
51.657493
 20
89.027653
 30
0.0
 10
53.689385
 20
88.296669
 30
0.0
  0
SPLINE
  5
175
100
AcDbEntity
  8
0
 62
7
100
AcDbSpline
 70
8
 71
3
 72
8
 73
4
 74
0
 40
0
 40
0
 40
0
 40
0
 40
1
 40
1
 40
1
 40
1
 10
53.689385
 20
88.296669
 30
0.0
 10
57.445958
 20
86.945226
 30
0.0
 10
58.810209
 20
87.536072
 30
0.0
 10
58.810209
 20
90.514439
 30
0.0
  0
LWPOLYLINE
  5
176
100
AcDbEntity
  8
0
 62
7
100
AcDbPolyline
 90
5
 70
1
 10
69.722673
 20
90.230738
 30
0.0
 10
75.318693
 20
97.850530
 30
0.0
 10
71.566639
 20
98.488137
 30
0.0
 10
69.722673
 20
90.230738
 30
0.0
 10
69.722673
 20
90.230738
 30
0.0
  0
SPLINE
  5
177
100
AcDbEntity
  8
0
 62
7
100
AcDbSpline
 70
8
 71
3
 72
8
 73
4
 74
0
 40
0
 40
0
 40
0
 40
0
 40
1
 40
1
 40
1
 40
1
 10
24.564208
 20
96.468654
 30
0.0
 10
26.570657
 20
97.649949
 30
0.0
 10
26.639905
 20
99.470079
 30
0.0
 10
24.892953
 20
105.110149
 30
0.0
  0
SPLINE
  5
178
100
AcDbEntity
  8
0
 62
7
100
AcDbSpline
 70
8
 71
3
 72
8
 73
4
 74
0
 40
0
 40
0
 40
0
 40
0
 40
1
 40
1
 40
1
 40
1
 10
24.892953
 20
105.110149
 30
0.0
 10
23.362895
 20
110.049991
 30
0.0
 10
20.079034
 20
113.920565
 30
0.0
 10
18.119767
 20
113.093490
 30
0.0
  0
SPLINE
  5
179
100
AcDbEntity
  8
0
 62
7
100
AcDbSpline
 70
8
 71
3
 72
8
 73
4
 74
0
 40
0
 40
0
 40
0
 40
0
 40
1
 40
1
 40
1
 40
1
 10
18.119767
 20
113.093490
 30
0.0
 10
15.957516
 20
112.180727
 30
0.0
 10
16.587060
 20
110.704600
 30
0.0
 10
19.760725
 20
109.245859
 30
0.0
  0
SPLINE
  5
17a
100
AcDbEntity
  8
0
 62
7
100
AcDbSpline
 70
8
 71
3
 72
8
 73
4
 74
0
 40
0
 40
0
 40
0
 40
0
 40
1
 40
1
 40
1
 40
1
 10
19.760725
 20
109.245859
 30
0.0
 10
23.243729
 20
107.644942
 30
0.0
 10
24.794368
 20
103.462403
 30
0.0
 10
22.568641
 20
101.672047
 30
0.0
  0
SPLINE
  5
17b
100
AcDbEntity
  8
0
 62
7
100
AcDbSpline
 70
8
 71
3
 72
8
 73
4
 74
0
 40
0
 40
0
 40
0
 40
0
 40
1
 40
1
 40
1
 40
1
 10
22.568641
 20
101.672047
 30
0.0
 10
21.834638
 20
101.081618
 30
0.0
 10
21.153161
 20
99.980246
 30
0.0
 10
21.054242
 20
99.224537
 30
0.0
  0
SPLINE
  5
17c
100
AcDbEntity
  8
0
 62
7
100
AcDbSpline
 70
8
 71
3
 72
8
 73
4
 74
0
 40
0
 40
0
 40
0
 40
0
 40
1
 40
1
 40
1
 40
1
 10
21.054242
 20
99.224537
 30
0.0
 10
20.553110
 20
95.396283
 30
0.0
 10
21.491392
 20
94.659581
 30
0.0
 10
24.564208
 20
96.468654
 30
0.0
  0
LWPOLYLINE
  5
17d
100
AcDbEntity
  8
0
 62
7
100
AcDbPolyline
 90
4
 70
1
 10
61.402637
 20
80.089447
 30
0.0
 10
61.402637
 20
80.089447
 30
0.0
 10
61.402637
 20
80.089447
 30
0.0
 10
61.402637
 20
80.089447
 30
0.0
  0
SPLINE
  5
17e
100
AcDbEntity
  8
0
 62
7
100
AcDbSpline
 70
8
 71
3
 72
8
 73
4
 74
0
 40
0
 40
0
 40
0
 40
0
 40
1
 40
1
 40
1
 40
1
 10
143.562809
 20
100.444821
 30
0.0
 10
145.502582
 20
103.924347
 30
0.0
 10
148.296023
 20
113.842491
 30
0.0
 10
147.798604
 20
115.484067
 30
0.0
  0
SPLINE
  5
17f
100
AcDbEntity
  8
0
 62
7
100
AcDbSpline
 70
8
 71
3
 72
8
 73
4
 74
0
 40
0
 40
0
 40
0
 40
0
 40
1
 40
1
 40
1
 40
1
 10
147.798604
 20
115.484067
 30
0.0
 10
147.617437
 20
116.081950
 30
0.0
 10
146.962165
 20
115.224496
 30
0.0
 10
146.342433
 20
113.578610
 30
0.0
  0
SPLINE
  5
180
100
AcDbEntity
  8
0
 62
7
100
AcDbSpline
 70
8
 71
3
 72
8
 73
4
 74
0
 40
0
 40
0
 40
0
 40
0
 40
1
 40
1
 40
1
 40
1
 10
146.342433
 20
113.578610
 30
0.0
 10
145.722701
 20
111.932733
 30
0.0
 10
144.683604
 20
110.586101
 30
0.0
 10
144.033350
 20
110.586101
 30
0.0
  0
SPLINE
  5
181
100
AcDbEntity
  8
0
 62
7
100
AcDbSpline
 70
8
 71
3
 72
8
 73
4
 74
0
 40
0
 40
0
 40
0
 40
0
 40
1
 40
1
 40
1
 40
1
 10
144.033350
 20
110.586101
 30
0.0
 10
142.458400
 20
110.586101
 30
0.0
 10
142.534569
 20
112.259461
 30
0.0
 10
144.192523
 20
114.083317
 30
0.0
  0
SPLINE
  5
182
100
AcDbEntity
  8
0
 62
7
100
AcDbSpline
 70
8
 71
3
 72
8
 73
4
 74
0
 40
0
 40
0
 40
0
 40
0
 40
1
 40
1
 40
1
 40
1
 10
144.192523
 20
114.083317
 30
0.0
 10
145.999479
 20
116.071109
 30
0.0
 10
144.373837
 20
118.109677
 30
0.0
 10
142.184272
 20
116.601684
 30
0.0
  0
SPLINE
  5
183
100
AcDbEntity
  8
0
 62
7
100
AcDbSpline
 70
8
 71
3
 72
8
 73
4
 74
0
 40
0
 40
0
 40
0
 40
0
 40
1
 40
1
 40
1
 40
1
 10
142.184272
 20
116.601684
 30
0.0
 10
139.938805
 20
115.055188
 30
0.0
 10
139.790523
 20
110.667940
 30
0.0
 10
141.928060
 20
109.020930
 30
0.0
  0
SPLINE
  5
184
100
AcDbEntity
  8
0
 62
7
100
AcDbSpline
 70
8
 71
3
 72
8
 73
4
 74
0
 40
0
 40
0
 40
0
 40
0
 40
1
 40
1
 40
1
 40
1
 10
141.928060
 20
109.020930
 30
0.0
 10
143.044635
 20
108.160581
 30
0.0
 10
143.708611
 20
106.613569
 30
0.0
 10
143.708611
 20
104.872354
 30
0.0
  0
SPLINE
  5
185
100
AcDbEntity
  8
0
 62
7
100
AcDbSpline
 70
8
 71
3
 72
8
 73
4
 74
0
 40
0
 40
0
 40
0
 40
0
 40
1
 40
1
 40
1
 40
1
 10
143.708611
 20
104.872354
 30
0.0
 10
143.708611
 20
101.418318
 30
0.0
 10
143.008096
 20
101.377167
 30
0.0
 10
140.604200
 20
104.690007
 30
0.0
  0
LWPOLYLINE
  5
186
100
AcDbEntity
  8
0
 62
7
100
AcDbPolyline
 90
4
 70
1
 10
58.810209
 20
90.514439
 30
0.0
 10
58.810209
 20
90.514439
 30
0.0
 10
58.810209
 20
90.514439
 30
0.0
 10
58.810209
 20
90.514439
 30
0.0
  0
SPLINE
  5
187
100
AcDbEntity
  8
0
 62
7
100
AcDbSpline
 70
8
 71
3
 72
8
 73
4
 74
0
 40
0
 40
0
 40
0
 40
0
 40
1
 40
1
 40
1
 40
1
 10
139.148272
 20
104.822175
 30
0.0
 10
139.484786
 20
102.879727
 30
0.0
 10
139.183003
 20
102.247365
 30
0.0
 10
137.718540
 20
101.826073
 30
0.0
  0
SPLINE
  5
188
100
AcDbEntity
  8
0
 62
7
100
AcDbSpline
 70
8
 71
3
 72
8
 73
4
 74
0
 40
0
 40
0
 40
0
 40
0
 40
1
 40
1
 40
1
 40
1
 10
137.718540
 20
101.826073
 30
0.0
 10
136.136899
 20
101.371074
 30
0.0
 10
136.003086
 20
101.002582
 30
0.0
 10
136.814148
 20
99.335447
 30
0.0
  0
SPLINE
  5
189
100
AcDbEntity
  8
0
 62
7
100
AcDbSpline
 70
8
 71
3
 72
8
 73
4
 74
0
 40
0
 40
0
 40
0
 40
0
 40
1
 40
1
 40
1
 40
1
 10
136.814148
 20
99.335447
 30
0.0
 10
138.292933
 20
96.295790
 30
0.0
 10
141.548135
 20
96.830892
 30
0.0
 10
143.562809
 20
100.444821
 30
0.0
  0
LWPOLYLINE
  5
18a
100
AcDbEntity
  8
0
 62
7
100
AcDbPolyline
 90
4
 70
1
 10
24.564208
 20
96.468654
 30
0.0
 10
24.564208
 20
96.468654
 30
0.0
 10
24.564208
 20
96.468654
 30
0.0
 10
24.564208
 20
96.468654
 30
0.0
  0
SPLINE
  5
18b
100
AcDbEntity
  8
0
 62
7
100
AcDbSpline
 70
8
 71
3
 72
8
 73
4
 74
0
 40
0
 40
0
 40
0
 40
0
 40
1
 40
1
 40
1
 40
1
 10
136.544121
 20
107.284279
 30
0.0
 10
139.979589
 20
117.757884
 30
0.0
 10
140.104185
 20
119.795215
 30
0.0
 10
137.355670
 20
120.554085
 30
0.0
  0
SPLINE
  5
18c
100
AcDbEntity
  8
0
 62
7
100
AcDbSpline
 70
8
 71
3
 72
8
 73
4
 74
0
 40
0
 40
0
 40
0
 40
0
 40
1
 40
1
 40
1
 40
1
 10
137.355670
 20
120.554085
 30
0.0
 10
136.219859
 20
120.867682
 30
0.0
 10
130.574802
 20
121.194157
 30
0.0
 10
124.811110
 20
121.279588
 30
0.0
  0
LWPOLYLINE
  5
18d
100
AcDbEntity
  8
0
 62
7
100
AcDbPolyline
 90
5
 70
1
 10
140.604200
 20
104.690007
 30
0.0
 10
138.721722
 20
107.284279
 30
0.0
 10
139.148272
 20
104.822175
 30
0.0
 10
140.604200
 20
104.690007
 30
0.0
 10
140.604200
 20
104.690007
 30
0.0
  0
SPLINE
  5
18e
100
AcDbEntity
  8
0
 62
7
100
AcDbSpline
 70
8
 71
3
 72
8
 73
4
 74
0
 40
0
 40
0
 40
0
 40
0
 40
1
 40
1
 40
1
 40
1
 10
111.546987
 20
110.810417
 30
0.0
 10
108.770671
 20
100.217826
 30
0.0
 10
108.767773
 20
100.184561
 30
0.0
 10
110.584993
 20
99.731213
 30
0.0
  0
SPLINE
  5
18f
100
AcDbEntity
  8
0
 62
7
100
AcDbSpline
 70
8
 71
3
 72
8
 73
4
 74
0
 40
0
 40
0
 40
0
 40
0
 40
1
 40
1
 40
1
 40
1
 10
110.584993
 20
99.731213
 30
0.0
 10
112.945212
 20
99.142396
 30
0.0
 10
122.162090
 20
98.626926
 30
0.0
 10
128.657564
 20
98.720443
 30
0.0
  0
LWPOLYLINE
  5
190
100
AcDbEntity
  8
0
 62
7
100
AcDbPolyline
 90
4
 70
1
 10
143.562809
 20
100.444821
 30
0.0
 10
143.562809
 20
100.444821
 30
0.0
 10
143.562809
 20
100.444821
 30
0.0
 10
143.562809
 20
100.444821
 30
0.0
  0
SPLINE
  5
191
100
AcDbEntity
  8
0
 62
7
100
AcDbSpline
 70
8
 71
3
 72
8
 73
4
 74
0
 40
0
 40
0
 40
0
 40
0
 40
1
 40
1
 40
1
 40
1
 10
124.855376
 20
103.955589
 30
0.0
 10
123.823431
 20
106.076760
 30
0.0
 10
123.710706
 20
108.699341
 30
0.0
 10
124.651482
 20
108.699341
 30
0.0
  0
SPLINE
  5
192
100
AcDbEntity
  8
0
 62
7
100
AcDbSpline
 70
8
 71
3
 72
8
 73
4
 74
0
 40
0
 40
0
 40
0
 40
0
 40
1
 40
1
 40
1
 40
1
 10
124.651482
 20
108.699341
 30
0.0
 10
126.210029
 20
108.699341
 30
0.0
 10
129.020810
 20
105.710241
 30
0.0
 10
128.599088
 20
104.501277
 30
0.0
  0
SPLINE
  5
193
100
AcDbEntity
  8
0
 62
7
100
AcDbSpline
 70
8
 71
3
 72
8
 73
4
 74
0
 40
0
 40
0
 40
0
 40
0
 40
1
 40
1
 40
1
 40
1
 10
128.599088
 20
104.501277
 30
0.0
 10
127.844968
 20
102.339409
 30
0.0
 10
125.787537
 20
102.039520
 30
0.0
 10
124.855376
 20
103.955589
 30
0.0
  0
LWPOLYLINE
  5
194
100
AcDbEntity
  8
0
 62
7
100
AcDbPolyline
 90
5
 70
1
 10
124.811110
 20
121.279588
 30
0.0
 10
114.331679
 20
121.434904
 30
0.0
 10
111.546987
 20
110.810417
 30
0.0
 10
124.811110
 20
121.279588
 30
0.0
 10
124.811110
 20
121.279588
 30
0.0
  0
SPLINE
  5
195
100
AcDbEntity
  8
0
 62
7
100
AcDbSpline
 70
8
 71
3
 72
8
 73
4
 74
0
 40
0
 40
0
 40
0
 40
0
 40
1
 40
1
 40
1
 40
1
 10
133.444985
 20
115.568424
 30
0.0
 10
133.418315
 20
118.149196
 30
0.0
 10
134.955509
 20
119.613247
 30
0.0
 10
136.931188
 20
118.888782
 30
0.0
  0
SPLINE
  5
196
100
AcDbEntity
  8
0
 62
7
100
AcDbSpline
 70
8
 71
3
 72
8
 73
4
 74
0
 40
0
 40
0
 40
0
 40
0
 40
1
 40
1
 40
1
 40
1
 10
136.931188
 20
118.888782
 30
0.0
 10
137.545964
 20
118.663354
 30
0.0
 10
137.073911
 20
117.453448
 30
0.0
 10
135.700248
 20
115.733826
 30
0.0
  0
LWPOLYLINE
  5
197
100
AcDbEntity
  8
0
 62
7
100
AcDbPolyline
 90
6
 70
1
 10
128.657564
 20
98.720443
 30
0.0
 10
133.759160
 20
98.793934
 30
0.0
 10
136.544121
 20
107.284307
 30
0.0
 10
136.544121
 20
107.284279
 30
0.0
 10
128.657564
 20
98.720443
 30
0.0
 10
128.657564
 20
98.720443
 30
0.0
  0
SPLINE
  5
198
100
AcDbEntity
  8
0
 62
7
100
AcDbSpline
 70
8
 71
3
 72
8
 73
4
 74
0
 40
0
 40
0
 40
0
 40
0
 40
1
 40
1
 40
1
 40
1
 10
74.835458
 20
102.429388
 30
0.0
 10
75.106663
 20
102.727730
 30
0.0
 10
73.589433
 20
108.399584
 30
0.0
 10
71.463834
 20
115.033491
 30
0.0
  0
LWPOLYLINE
  5
199
100
AcDbEntity
  8
0
 62
7
100
AcDbPolyline
 90
4
 70
1
 10
124.855376
 20
103.955589
 30
0.0
 10
124.855376
 20
103.955589
 30
0.0
 10
124.855376
 20
103.955589
 30
0.0
 10
124.855376
 20
103.955589
 30
0.0
  0
SPLINE
  5
19a
100
AcDbEntity
  8
0
 62
7
100
AcDbSpline
 70
8
 71
3
 72
8
 73
4
 74
0
 40
0
 40
0
 40
0
 40
0
 40
1
 40
1
 40
1
 40
1
 10
59.759929
 20
127.366611
 30
0.0
 10
50.933833
 20
127.672246
 30
0.0
 10
49.986844
 20
126.994394
 30
0.0
 10
52.316467
 20
122.038588
 30
0.0
  0
SPLINE
  5
19b
100
AcDbEntity
  8
0
 62
7
100
AcDbSpline
 70
8
 71
3
 72
8
 73
4
 74
0
 40
0
 40
0
 40
0
 40
0
 40
1
 40
1
 40
1
 40
1
 10
52.316467
 20
122.038588
 30
0.0
 10
53.997036
 20
118.463519
 30
0.0
 10
53.994420
 20
118.133101
 30
0.0
 10
52.285508
 20
118.133101
 30
0.0
  0
SPLINE
  5
19c
100
AcDbEntity
  8
0
 62
7
100
AcDbSpline
 70
8
 71
3
 72
8
 73
4
 74
0
 40
0
 40
0
 40
0
 40
0
 40
1
 40
1
 40
1
 40
1
 10
52.285508
 20
118.133101
 30
0.0
 10
51.183331
 20
118.133101
 30
0.0
 10
51.046420
 20
117.611848
 30
0.0
 10
51.604082
 20
115.538810
 30
0.0
  0
SPLINE
  5
19d
100
AcDbEntity
  8
0
 62
7
100
AcDbSpline
 70
8
 71
3
 72
8
 73
4
 74
0
 40
0
 40
0
 40
0
 40
0
 40
1
 40
1
 40
1
 40
1
 10
51.604082
 20
115.538810
 30
0.0
 10
51.987918
 20
114.111957
 30
0.0
 10
52.365622
 20
111.110467
 30
0.0
 10
52.443420
 20
108.868829
 30
0.0
  0
SPLINE
  5
19e
100
AcDbEntity
  8
0
 62
7
100
AcDbSpline
 70
8
 71
3
 72
8
 73
4
 74
0
 40
0
 40
0
 40
0
 40
0
 40
1
 40
1
 40
1
 40
1
 10
52.443420
 20
108.868829
 30
0.0
 10
52.598004
 20
104.414525
 30
0.0
 10
53.944878
 20
102.026473
 30
0.0
 10
55.399821
 20
103.627012
 30
0.0
  0
SPLINE
  5
19f
100
AcDbEntity
  8
0
 62
7
100
AcDbSpline
 70
8
 71
3
 72
8
 73
4
 74
0
 40
0
 40
0
 40
0
 40
0
 40
1
 40
1
 40
1
 40
1
 10
55.399821
 20
103.627012
 30
0.0
 10
55.998065
 20
104.285103
 30
0.0
 10
55.957828
 20
106.114702
 30
0.0
 10
55.273400
 20
109.376533
 30
0.0
  0
SPLINE
  5
1a0
100
AcDbEntity
  8
0
 62
7
100
AcDbSpline
 70
8
 71
3
 72
8
 73
4
 74
0
 40
0
 40
0
 40
0
 40
0
 40
1
 40
1
 40
1
 40
1
 10
55.273400
 20
109.376533
 30
0.0
 10
53.994660
 20
115.470682
 30
0.0
 10
54.588912
 20
117.189717
 30
0.0
 10
57.974320
 20
117.189717
 30
0.0
  0
SPLINE
  5
1a1
100
AcDbEntity
  8
0
 62
7
100
AcDbSpline
 70
8
 71
3
 72
8
 73
4
 74
0
 40
0
 40
0
 40
0
 40
0
 40
1
 40
1
 40
1
 40
1
 10
57.974320
 20
117.189717
 30
0.0
 10
60.539650
 20
117.189717
 30
0.0
 10
60.580761
 20
117.124058
 30
0.0
 10
59.287577
 20
115.093066
 30
0.0
  0
SPLINE
  5
1a2
100
AcDbEntity
  8
0
 62
7
100
AcDbSpline
 70
8
 71
3
 72
8
 73
4
 74
0
 40
0
 40
0
 40
0
 40
0
 40
1
 40
1
 40
1
 40
1
 10
59.287577
 20
115.093066
 30
0.0
 10
57.685280
 20
112.576538
 30
0.0
 10
57.529820
 20
105.884301
 30
0.0
 10
59.024554
 20
103.770671
 30
0.0
  0
SPLINE
  5
1a3
100
AcDbEntity
  8
0
 62
7
100
AcDbSpline
 70
8
 71
3
 72
8
 73
4
 74
0
 40
0
 40
0
 40
0
 40
0
 40
1
 40
1
 40
1
 40
1
 10
59.024554
 20
103.770671
 30
0.0
 10
59.614127
 20
102.936990
 30
0.0
 10
60.868309
 20
102.031048
 30
0.0
 10
61.811622
 20
101.757462
 30
0.0
  0
SPLINE
  5
1a4
100
AcDbEntity
  8
0
 62
7
100
AcDbSpline
 70
8
 71
3
 72
8
 73
4
 74
0
 40
0
 40
0
 40
0
 40
0
 40
1
 40
1
 40
1
 40
1
 10
61.811622
 20
101.757462
 30
0.0
 10
63.909267
 20
101.149106
 30
0.0
 10
74.151967
 20
101.677556
 30
0.0
 10
74.835416
 20
102.429388
 30
0.0
  0
LWPOLYLINE
  5
1a5
100
AcDbEntity
  8
0
 62
7
100
AcDbPolyline
 90
6
 70
1
 10
135.700248
 20
115.733826
 30
0.0
 10
133.472092
 20
112.944530
 30
0.0
 10
133.444999
 20
115.568424
 30
0.0
 10
133.444999
 20
115.568424
 30
0.0
 10
135.700262
 20
115.733826
 30
0.0
 10
135.700248
 20
115.733826
 30
0.0
  0
SPLINE
  5
1a6
100
AcDbEntity
  8
0
 62
7
100
AcDbSpline
 70
8
 71
3
 72
8
 73
4
 74
0
 40
0
 40
0
 40
0
 40
0
 40
1
 40
1
 40
1
 40
1
 10
90.386727
 20
104.321024
 30
0.0
 10
91.009950
 20
105.727758
 30
0.0
 10
91.743095
 20
111.533532
 30
0.0
 10
92.015928
 20
117.222782
 30
0.0
  0
LWPOLYLINE
  5
1a7
100
AcDbEntity
  8
0
 62
7
100
AcDbPolyline
 90
5
 70
1
 10
71.463834
 20
115.033491
 30
0.0
 10
67.599114
 20
127.095164
 30
0.0
 10
59.759929
 20
127.366611
 30
0.0
 10
71.463834
 20
115.033491
 30
0.0
 10
71.463834
 20
115.033491
 30
0.0
  0
SPLINE
  5
1a8
100
AcDbEntity
  8
0
 62
7
100
AcDbSpline
 70
8
 71
3
 72
8
 73
4
 74
0
 40
0
 40
0
 40
0
 40
0
 40
1
 40
1
 40
1
 40
1
 10
83.593528
 20
127.472817
 30
0.0
 10
69.703865
 20
127.326357
 30
0.0
 10
67.548021
 20
125.860145
 30
0.0
 10
72.399920
 20
119.859940
 30
0.0
  0
SPLINE
  5
1a9
100
AcDbEntity
  8
0
 62
7
100
AcDbSpline
 70
8
 71
3
 72
8
 73
4
 74
0
 40
0
 40
0
 40
0
 40
0
 40
1
 40
1
 40
1
 40
1
 10
72.399920
 20
119.859940
 30
0.0
 10
74.247062
 20
117.575642
 30
0.0
 10
76.308763
 20
116.330068
 30
0.0
 10
79.953160
 20
115.296683
 30
0.0
  0
LWPOLYLINE
  5
1aa
100
AcDbEntity
  8
0
 62
7
100
AcDbPolyline
 90
4
 70
1
 10
74.835416
 20
102.429388
 30
0.0
 10
74.835458
 20
102.429388
 30
0.0
 10
74.835416
 20
102.429388
 30
0.0
 10
74.835416
 20
102.429388
 30
0.0
  0
SPLINE
  5
1ab
100
AcDbEntity
  8
0
 62
7
100
AcDbSpline
 70
8
 71
3
 72
8
 73
4
 74
0
 40
0
 40
0
 40
0
 40
0
 40
1
 40
1
 40
1
 40
1
 10
85.482842
 20
108.591600
 30
0.0
 10
86.272508
 20
100.522186
 30
0.0
 10
88.026835
 20
98.994419
 30
0.0
 10
90.386727
 20
104.321024
 30
0.0
  0
LWPOLYLINE
  5
1ac
100
AcDbEntity
  8
0
 62
7
100
AcDbPolyline
 90
5
 70
1
 10
92.015928
 20
117.222782
 30
0.0
 10
92.511984
 20
127.566853
 30
0.0
 10
83.593528
 20
127.472797
 30
0.0
 10
92.015928
 20
117.222762
 30
0.0
 10
92.015928
 20
117.222782
 30
0.0
  0
SPLINE
  5
1ad
100
AcDbEntity
  8
0
 62
7
100
AcDbSpline
 70
8
 71
3
 72
8
 73
4
 74
0
 40
0
 40
0
 40
0
 40
0
 40
1
 40
1
 40
1
 40
1
 10
86.424838
 20
121.551572
 30
0.0
 10
85.302807
 20
123.857908
 30
0.0
 10
86.439767
 20
126.164762
 30
0.0
 10
88.309470
 20
125.375485
 30
0.0
  0
SPLINE
  5
1ae
100
AcDbEntity
  8
0
 62
7
100
AcDbSpline
 70
8
 71
3
 72
8
 73
4
 74
0
 40
0
 40
0
 40
0
 40
0
 40
1
 40
1
 40
1
 40
1
 10
88.309470
 20
125.375485
 30
0.0
 10
89.989660
 20
124.666218
 30
0.0
 10
90.036483
 20
123.743354
 30
0.0
 10
88.508905
 20
121.445196
 30
0.0
  0
SPLINE
  5
1af
100
AcDbEntity
  8
0
 62
7
100
AcDbSpline
 70
8
 71
3
 72
8
 73
4
 74
0
 40
0
 40
0
 40
0
 40
0
 40
1
 40
1
 40
1
 40
1
 10
88.508905
 20
121.445196
 30
0.0
 10
87.367381
 20
119.727857
 30
0.0
 10
87.310671
 20
119.730744
 30
0.0
 10
86.424838
 20
121.551572
 30
0.0
  0
LWPOLYLINE
  5
1b0
100
AcDbEntity
  8
0
 62
7
100
AcDbPolyline
 90
5
 70
1
 10
79.953160
 20
115.296683
 30
0.0
 10
84.965777
 20
113.875330
 30
0.0
 10
85.482842
 20
108.591600
 30
0.0
 10
79.953160
 20
115.296683
 30
0.0
 10
79.953160
 20
115.296683
 30
0.0
  0
SPLINE
  5
1b1
100
AcDbEntity
  8
0
 62
7
100
AcDbSpline
 70
8
 71
3
 72
8
 73
4
 74
0
 40
0
 40
0
 40
0
 40
0
 40
1
 40
1
 40
1
 40
1
 10
82.650367
 20
103.227766
 30
0.0
 10
83.216355
 20
103.850393
 30
0.0
 10
83.679436
 20
105.760730
 30
0.0
 10
83.679436
 20
107.472955
 30
0.0
  0
SPLINE
  5
1b2
100
AcDbEntity
  8
0
 62
7
100
AcDbSpline
 70
8
 71
3
 72
8
 73
4
 74
0
 40
0
 40
0
 40
0
 40
0
 40
1
 40
1
 40
1
 40
1
 10
83.679436
 20
107.472955
 30
0.0
 10
83.679436
 20
110.142535
 30
0.0
 10
83.381923
 20
110.586101
 30
0.0
 10
81.591364
 20
110.586101
 30
0.0
  0
SPLINE
  5
1b3
100
AcDbEntity
  8
0
 62
7
100
AcDbSpline
 70
8
 71
3
 72
8
 73
4
 74
0
 40
0
 40
0
 40
0
 40
0
 40
1
 40
1
 40
1
 40
1
 10
81.591364
 20
110.586101
 30
0.0
 10
80.442929
 20
110.586101
 30
0.0
 10
78.513421
 20
111.000112
 30
0.0
 10
77.303568
 20
111.506120
 30
0.0
  0
SPLINE
  5
1b4
100
AcDbEntity
  8
0
 62
7
100
AcDbSpline
 70
8
 71
3
 72
8
 73
4
 74
0
 40
0
 40
0
 40
0
 40
0
 40
1
 40
1
 40
1
 40
1
 10
77.303568
 20
111.506120
 30
0.0
 10
74.851949
 20
112.531509
 30
0.0
 10
74.656092
 20
112.004448
 30
0.0
 10
76.021097
 20
108.054960
 30
0.0
  0
SPLINE
  5
1b5
100
AcDbEntity
  8
0
 62
7
100
AcDbSpline
 70
8
 71
3
 72
8
 73
4
 74
0
 40
0
 40
0
 40
0
 40
0
 40
1
 40
1
 40
1
 40
1
 10
76.021097
 20
108.054960
 30
0.0
 10
77.810651
 20
102.877029
 30
0.0
 10
80.530923
 20
100.896244
 30
0.0
 10
82.650367
 20
103.227766
 30
0.0
  0
LWPOLYLINE
  5
1b6
100
AcDbEntity
  8
0
 62
7
100
AcDbPolyline
 90
4
 70
1
 10
90.386727
 20
104.321024
 30
0.0
 10
90.386727
 20
104.321024
 30
0.0
 10
90.386727
 20
104.321024
 30
0.0
 10
90.386727
 20
104.321024
 30
0.0
  0
SPLINE
  5
1b7
100
AcDbEntity
  8
0
 62
7
100
AcDbSpline
 70
8
 71
3
 72
8
 73
4
 74
0
 40
0
 40
0
 40
0
 40
0
 40
1
 40
1
 40
1
 40
1
 10
138.064333
 20
124.365971
 30
0.0
 10
139.787969
 20
125.093576
 30
0.0
 10
139.842167
 20
127.566853
 30
0.0
 10
138.134482
 20
127.566853
 30
0.0
  0
SPLINE
  5
1b8
100
AcDbEntity
  8
0
 62
7
100
AcDbSpline
 70
8
 71
3
 72
8
 73
4
 74
0
 40
0
 40
0
 40
0
 40
0
 40
1
 40
1
 40
1
 40
1
 10
138.134474
 20
127.566853
 30
0.0
 10
137.426994
 20
127.566853
 30
0.0
 10
136.848142
 20
128.366372
 30
0.0
 10
136.848142
 20
129.343566
 30
0.0
  0
SPLINE
  5
1b9
100
AcDbEntity
  8
0
 62
7
100
AcDbSpline
 70
8
 71
3
 72
8
 73
4
 74
0
 40
0
 40
0
 40
0
 40
0
 40
1
 40
1
 40
1
 40
1
 10
136.848142
 20
129.343566
 30
0.0
 10
136.848142
 20
130.361175
 30
0.0
 10
136.070334
 20
131.344050
 30
0.0
 10
135.027681
 20
131.643988
 30
0.0
  0
SPLINE
  5
1ba
100
AcDbEntity
  8
0
 62
7
100
AcDbSpline
 70
8
 71
3
 72
8
 73
4
 74
0
 40
0
 40
0
 40
0
 40
0
 40
1
 40
1
 40
1
 40
1
 10
135.027681
 20
131.643988
 30
0.0
 10
133.462101
 20
132.094372
 30
0.0
 10
133.285701
 20
132.627766
 30
0.0
 10
133.767658
 20
135.453948
 30
0.0
  0
SPLINE
  5
1bb
100
AcDbEntity
  8
0
 62
7
100
AcDbSpline
 70
8
 71
3
 72
8
 73
4
 74
0
 40
0
 40
0
 40
0
 40
0
 40
1
 40
1
 40
1
 40
1
 10
133.767658
 20
135.453948
 30
0.0
 10
134.802064
 20
141.519615
 30
0.0
 10
131.560686
 20
140.116759
 30
0.0
 10
129.167297
 20
133.462947
 30
0.0
  0
SPLINE
  5
1bc
100
AcDbEntity
  8
0
 62
7
100
AcDbSpline
 70
8
 71
3
 72
8
 73
4
 74
0
 40
0
 40
0
 40
0
 40
0
 40
1
 40
1
 40
1
 40
1
 10
129.167297
 20
133.462947
 30
0.0
 10
128.560737
 20
131.776655
 30
0.0
 10
127.514883
 20
130.396969
 30
0.0
 10
126.843183
 20
130.396969
 30
0.0
  0
SPLINE
  5
1bd
100
AcDbEntity
  8
0
 62
7
100
AcDbSpline
 70
8
 71
3
 72
8
 73
4
 74
0
 40
0
 40
0
 40
0
 40
0
 40
1
 40
1
 40
1
 40
1
 10
126.843183
 20
130.396969
 30
0.0
 10
125.431090
 20
130.396969
 30
0.0
 10
121.412068
 20
126.240126
 30
0.0
 10
121.412068
 20
124.779604
 30
0.0
  0
SPLINE
  5
1be
100
AcDbEntity
  8
0
 62
7
100
AcDbSpline
 70
8
 71
3
 72
8
 73
4
 74
0
 40
0
 40
0
 40
0
 40
0
 40
1
 40
1
 40
1
 40
1
 10
121.412068
 20
124.779604
 30
0.0
 10
121.412068
 20
123.715674
 30
0.0
 10
135.684048
 20
123.361163
 30
0.0
 10
138.064333
 20
124.365971
 30
0.0
  0
LWPOLYLINE
  5
1bf
100
AcDbEntity
  8
0
 62
7
100
AcDbPolyline
 90
4
 70
1
 10
86.424838
 20
121.551572
 30
0.0
 10
86.424838
 20
121.551572
 30
0.0
 10
86.424838
 20
121.551572
 30
0.0
 10
86.424838
 20
121.551572
 30
0.0
  0
SPLINE
  5
1c0
100
AcDbEntity
  8
0
 62
7
100
AcDbSpline
 70
8
 71
3
 72
8
 73
4
 74
0
 40
0
 40
0
 40
0
 40
0
 40
1
 40
1
 40
1
 40
1
 10
165.906738
 20
148.656671
 30
0.0
 10
167.509173
 20
149.250384
 30
0.0
 10
169.384924
 20
150.680201
 30
0.0
 10
170.075070
 20
151.834033
 30
0.0
  0
SPLINE
  5
1c1
100
AcDbEntity
  8
0
 62
7
100
AcDbSpline
 70
8
 71
3
 72
8
 73
4
 74
0
 40
0
 40
0
 40
0
 40
0
 40
1
 40
1
 40
1
 40
1
 10
170.075070
 20
151.834033
 30
0.0
 10
171.243521
 20
153.787536
 30
0.0
 10
171.174015
 20
154.010023
 30
0.0
 10
169.064994
 20
155.067111
 30
0.0
  0
SPLINE
  5
1c2
100
AcDbEntity
  8
0
 62
7
100
AcDbSpline
 70
8
 71
3
 72
8
 73
4
 74
0
 40
0
 40
0
 40
0
 40
0
 40
1
 40
1
 40
1
 40
1
 10
169.064994
 20
155.067111
 30
0.0
 10
166.482228
 20
156.361659
 30
0.0
 10
154.397284
 20
155.000038
 30
0.0
 10
150.316638
 20
152.954706
 30
0.0
  0
SPLINE
  5
1c3
100
AcDbEntity
  8
0
 62
7
100
AcDbSpline
 70
8
 71
3
 72
8
 73
4
 74
0
 40
0
 40
0
 40
0
 40
0
 40
1
 40
1
 40
1
 40
1
 10
150.316638
 20
152.954706
 30
0.0
 10
147.484180
 20
151.535002
 30
0.0
 10
147.278700
 20
148.594181
 30
0.0
 10
149.925919
 20
147.362690
 30
0.0
  0
SPLINE
  5
1c4
100
AcDbEntity
  8
0
 62
7
100
AcDbSpline
 70
8
 71
3
 72
8
 73
4
 74
0
 40
0
 40
0
 40
0
 40
0
 40
1
 40
1
 40
1
 40
1
 10
149.925919
 20
147.362690
 30
0.0
 10
152.169362
 20
146.319044
 30
0.0
 10
161.674852
 20
147.088706
 30
0.0
 10
165.906738
 20
148.656671
 30
0.0
  0
LWPOLYLINE
  5
1c5
100
AcDbEntity
  8
0
 62
7
100
AcDbPolyline
 90
4
 70
1
 10
82.650367
 20
103.227766
 30
0.0
 10
82.650367
 20
103.227766
 30
0.0
 10
82.650367
 20
103.227766
 30
0.0
 10
82.650367
 20
103.227766
 30
0.0
  0
SPLINE
  5
1c6
100
AcDbEntity
  8
0
 62
7
100
AcDbSpline
 70
8
 71
3
 72
8
 73
4
 74
0
 40
0
 40
0
 40
0
 40
0
 40
1
 40
1
 40
1
 40
1
 10
106.445657
 20
121.764889
 30
0.0
 10
105.777273
 20
124.081505
 30
0.0
 10
107.156812
 20
126.623477
 30
0.0
 10
109.082436
 20
126.623477
 30
0.0
  0
SPLINE
  5
1c7
100
AcDbEntity
  8
0
 62
7
100
AcDbSpline
 70
8
 71
3
 72
8
 73
4
 74
0
 40
0
 40
0
 40
0
 40
0
 40
1
 40
1
 40
1
 40
1
 10
109.082436
 20
126.623477
 30
0.0
 10
110.746094
 20
126.623477
 30
0.0
 10
110.549763
 20
124.390877
 30
0.0
 10
108.660398
 20
121.824133
 30
0.0
  0
LWPOLYLINE
  5
1c8
100
AcDbEntity
  8
0
 62
7
100
AcDbPolyline
 90
4
 70
1
 10
138.064333
 20
124.365971
 30
0.0
 10
138.064333
 20
124.365971
 30
0.0
 10
138.064333
 20
124.365971
 30
0.0
 10
138.064333
 20
124.365971
 30
0.0
  0
SPLINE
  5
1c9
100
AcDbEntity
  8
0
 62
7
100
AcDbSpline
 70
8
 71
3
 72
8
 73
4
 74
0
 40
0
 40
0
 40
0
 40
0
 40
1
 40
1
 40
1
 40
1
 10
70.905616
 20
139.842811
 30
0.0
 10
66.262761
 20
141.679847
 30
0.0
 10
63.672494
 20
143.575277
 30
0.0
 10
61.541048
 20
146.695328
 30
0.0
  0
SPLINE
  5
1ca
100
AcDbEntity
  8
0
 62
7
100
AcDbSpline
 70
8
 71
3
 72
8
 73
4
 74
0
 40
0
 40
0
 40
0
 40
0
 40
1
 40
1
 40
1
 40
1
 10
61.541048
 20
146.695328
 30
0.0
 10
60.531553
 20
148.173041
 30
0.0
 10
58.983632
 20
148.355139
 30
0.0
 10
48.459763
 20
148.234198
 30
0.0
  0
SPLINE
  5
1cb
100
AcDbEntity
  8
0
 62
7
100
AcDbSpline
 70
8
 71
3
 72
8
 73
4
 74
0
 40
0
 40
0
 40
0
 40
0
 40
1
 40
1
 40
1
 40
1
 10
48.459763
 20
148.234198
 30
0.0
 10
38.438322
 20
148.119040
 30
0.0
 10
36.144350
 20
148.360941
 30
0.0
 10
34.160274
 20
149.742072
 30
0.0
  0
SPLINE
  5
1cc
100
AcDbEntity
  8
0
 62
7
100
AcDbSpline
 70
8
 71
3
 72
8
 73
4
 74
0
 40
0
 40
0
 40
0
 40
0
 40
1
 40
1
 40
1
 40
1
 10
34.160274
 20
149.742072
 30
0.0
 10
31.139006
 20
151.845183
 30
0.0
 10
28.839064
 20
154.957132
 30
0.0
 10
28.814694
 20
156.974936
 30
0.0
  0
SPLINE
  5
1cd
100
AcDbEntity
  8
0
 62
7
100
AcDbSpline
 70
8
 71
3
 72
8
 73
4
 74
0
 40
0
 40
0
 40
0
 40
0
 40
1
 40
1
 40
1
 40
1
 10
28.814694
 20
156.974936
 30
0.0
 10
28.788363
 20
159.150661
 30
0.0
 10
32.707439
 20
164.073712
 30
0.0
 10
36.639342
 20
166.804186
 30
0.0
  0
SPLINE
  5
1ce
100
AcDbEntity
  8
0
 62
7
100
AcDbSpline
 70
8
 71
3
 72
8
 73
4
 74
0
 40
0
 40
0
 40
0
 40
0
 40
1
 40
1
 40
1
 40
1
 10
36.639342
 20
166.804186
 30
0.0
 10
38.437473
 20
168.052895
 30
0.0
 10
40.693851
 20
170.767644
 30
0.0
 10
41.653511
 20
172.836977
 30
0.0
  0
SPLINE
  5
1cf
100
AcDbEntity
  8
0
 62
7
100
AcDbSpline
 70
8
 71
3
 72
8
 73
4
 74
0
 40
0
 40
0
 40
0
 40
0
 40
1
 40
1
 40
1
 40
1
 10
41.653511
 20
172.836977
 30
0.0
 10
44.508276
 20
178.992735
 30
0.0
 10
57.618492
 20
185.610832
 30
0.0
 10
63.139487
 20
183.683186
 30
0.0
  0
SPLINE
  5
1d0
100
AcDbEntity
  8
0
 62
7
100
AcDbSpline
 70
8
 71
3
 72
8
 73
4
 74
0
 40
0
 40
0
 40
0
 40
0
 40
1
 40
1
 40
1
 40
1
 10
63.139487
 20
183.683186
 30
0.0
 10
66.265112
 20
182.591869
 30
0.0
 10
64.401367
 20
180.871993
 30
0.0
 10
59.957787
 20
180.747073
 30
0.0
  0
SPLINE
  5
1d1
100
AcDbEntity
  8
0
 62
7
100
AcDbSpline
 70
8
 71
3
 72
8
 73
4
 74
0
 40
0
 40
0
 40
0
 40
0
 40
1
 40
1
 40
1
 40
1
 10
59.957787
 20
180.747073
 30
0.0
 10
52.452468
 20
180.536087
 30
0.0
 10
42.819783
 20
174.441989
 30
0.0
 10
45.136884
 20
171.370660
 30
0.0
  0
SPLINE
  5
1d2
100
AcDbEntity
  8
0
 62
7
100
AcDbSpline
 70
8
 71
3
 72
8
 73
4
 74
0
 40
0
 40
0
 40
0
 40
0
 40
1
 40
1
 40
1
 40
1
 10
45.136884
 20
171.370660
 30
0.0
 10
45.697848
 20
170.627092
 30
0.0
 10
47.209690
 20
170.018728
 30
0.0
 10
48.496536
 20
170.018728
 30
0.0
  0
SPLINE
  5
1d3
100
AcDbEntity
  8
0
 62
7
100
AcDbSpline
 70
8
 71
3
 72
8
 73
4
 74
0
 40
0
 40
0
 40
0
 40
0
 40
1
 40
1
 40
1
 40
1
 10
48.496536
 20
170.018728
 30
0.0
 10
52.383425
 20
170.018728
 30
0.0
 10
56.358437
 20
168.099027
 30
0.0
 10
56.047615
 20
166.371988
 30
0.0
  0
SPLINE
  5
1d4
100
AcDbEntity
  8
0
 62
7
100
AcDbSpline
 70
8
 71
3
 72
8
 73
4
 74
0
 40
0
 40
0
 40
0
 40
0
 40
1
 40
1
 40
1
 40
1
 10
56.047615
 20
166.371988
 30
0.0
 10
55.814118
 20
165.074584
 30
0.0
 10
54.476932
 20
164.830166
 30
0.0
 10
47.612596
 20
164.830166
 30
0.0
  0
SPLINE
  5
1d5
100
AcDbEntity
  8
0
 62
7
100
AcDbSpline
 70
8
 71
3
 72
8
 73
4
 74
0
 40
0
 40
0
 40
0
 40
0
 40
1
 40
1
 40
1
 40
1
 10
47.612596
 20
164.830166
 30
0.0
 10
36.604722
 20
164.830166
 30
0.0
 10
33.116941
 20
162.246433
 30
0.0
 10
34.084294
 20
154.808446
 30
0.0
  0
SPLINE
  5
1d6
100
AcDbEntity
  8
0
 62
7
100
AcDbSpline
 70
8
 71
3
 72
8
 73
4
 74
0
 40
0
 40
0
 40
0
 40
0
 40
1
 40
1
 40
1
 40
1
 10
34.084294
 20
154.808446
 30
0.0
 10
34.558447
 20
151.162719
 30
0.0
 10
37.715706
 20
150.119166
 30
0.0
 10
47.380635
 20
150.413707
 30
0.0
  0
SPLINE
  5
1d7
100
AcDbEntity
  8
0
 62
7
100
AcDbSpline
 70
8
 71
3
 72
8
 73
4
 74
0
 40
0
 40
0
 40
0
 40
0
 40
1
 40
1
 40
1
 40
1
 10
47.380635
 20
150.413707
 30
0.0
 10
55.255880
 20
150.653701
 30
0.0
 10
56.318585
 20
150.901819
 30
0.0
 10
58.314522
 20
152.966574
 30
0.0
  0
SPLINE
  5
1d8
100
AcDbEntity
  8
0
 62
7
100
AcDbSpline
 70
8
 71
3
 72
8
 73
4
 74
0
 40
0
 40
0
 40
0
 40
0
 40
1
 40
1
 40
1
 40
1
 10
58.314522
 20
152.966574
 30
0.0
 10
59.530463
 20
154.224441
 30
0.0
 10
60.525327
 20
156.055372
 30
0.0
 10
60.525327
 20
157.035304
 30
0.0
  0
SPLINE
  5
1d9
100
AcDbEntity
  8
0
 62
7
100
AcDbSpline
 70
8
 71
3
 72
8
 73
4
 74
0
 40
0
 40
0
 40
0
 40
0
 40
1
 40
1
 40
1
 40
1
 10
60.525327
 20
157.035304
 30
0.0
 10
60.525327
 20
160.753663
 30
0.0
 10
65.458190
 20
169.721839
 30
0.0
 10
70.996635
 20
176.072629
 30
0.0
  0
SPLINE
  5
1da
100
AcDbEntity
  8
0
 62
7
100
AcDbSpline
 70
8
 71
3
 72
8
 73
4
 74
0
 40
0
 40
0
 40
0
 40
0
 40
1
 40
1
 40
1
 40
1
 10
70.996635
 20
176.072629
 30
0.0
 10
74.161735
 20
179.701965
 30
0.0
 10
77.003704
 20
182.393837
 30
0.0
 10
77.312116
 20
182.054552
 30
0.0
  0
SPLINE
  5
1db
100
AcDbEntity
  8
0
 62
7
100
AcDbSpline
 70
8
 71
3
 72
8
 73
4
 74
0
 40
0
 40
0
 40
0
 40
0
 40
1
 40
1
 40
1
 40
1
 10
77.312116
 20
182.054552
 30
0.0
 10
77.620529
 20
181.715276
 30
0.0
 10
75.324078
 20
178.222790
 30
0.0
 10
72.208873
 20
174.293492
 30
0.0
  0
SPLINE
  5
1dc
100
AcDbEntity
  8
0
 62
7
100
AcDbSpline
 70
8
 71
3
 72
8
 73
4
 74
0
 40
0
 40
0
 40
0
 40
0
 40
1
 40
1
 40
1
 40
1
 10
72.208873
 20
174.293492
 30
0.0
 10
66.027258
 20
166.496403
 30
0.0
 10
63.098005
 20
161.039467
 30
0.0
 10
63.098005
 20
157.320741
 30
0.0
  0
SPLINE
  5
1dd
100
AcDbEntity
  8
0
 62
7
100
AcDbSpline
 70
8
 71
3
 72
8
 73
4
 74
0
 40
0
 40
0
 40
0
 40
0
 40
1
 40
1
 40
1
 40
1
 10
63.098005
 20
157.320741
 30
0.0
 10
63.098005
 20
154.349324
 30
0.0
 10
63.816478
 20
154.337355
 30
0.0
 10
68.992245
 20
157.222572
 30
0.0
  0
SPLINE
  5
1de
100
AcDbEntity
  8
0
 62
7
100
AcDbSpline
 70
8
 71
3
 72
8
 73
4
 74
0
 40
0
 40
0
 40
0
 40
0
 40
1
 40
1
 40
1
 40
1
 10
68.992245
 20
157.222572
 30
0.0
 10
76.302125
 20
161.297444
 30
0.0
 10
82.269121
 20
170.851388
 30
0.0
 10
82.171136
 20
178.323713
 30
0.0
  0
SPLINE
  5
1df
100
AcDbEntity
  8
0
 62
7
100
AcDbSpline
 70
8
 71
3
 72
8
 73
4
 74
0
 40
0
 40
0
 40
0
 40
0
 40
1
 40
1
 40
1
 40
1
 10
82.171136
 20
178.323713
 30
0.0
 10
82.135890
 20
181.011397
 30
0.0
 10
82.454242
 20
182.256623
 30
0.0
 10
83.113062
 20
182.008062
 30
0.0
  0
SPLINE
  5
1e0
100
AcDbEntity
  8
0
 62
7
100
AcDbSpline
 70
8
 71
3
 72
8
 73
4
 74
0
 40
0
 40
0
 40
0
 40
0
 40
1
 40
1
 40
1
 40
1
 10
83.113062
 20
182.008062
 30
0.0
 10
83.719673
 20
181.779210
 30
0.0
 10
84.107333
 20
179.429056
 30
0.0
 10
84.105945
 20
175.988840
 30
0.0
  0
SPLINE
  5
1e1
100
AcDbEntity
  8
0
 62
7
100
AcDbSpline
 70
8
 71
3
 72
8
 73
4
 74
0
 40
0
 40
0
 40
0
 40
0
 40
1
 40
1
 40
1
 40
1
 10
84.105945
 20
175.988840
 30
0.0
 10
84.103405
 20
168.767832
 30
0.0
 10
81.693698
 20
164.547520
 30
0.0
 10
74.234918
 20
158.698219
 30
0.0
  0
SPLINE
  5
1e2
100
AcDbEntity
  8
0
 62
7
100
AcDbSpline
 70
8
 71
3
 72
8
 73
4
 74
0
 40
0
 40
0
 40
0
 40
0
 40
1
 40
1
 40
1
 40
1
 10
74.234918
 20
158.698219
 30
0.0
 10
71.257609
 20
156.363367
 30
0.0
 10
67.672452
 20
153.361865
 30
0.0
 10
66.267889
 20
152.028219
 30
0.0
  0
SPLINE
  5
1e3
100
AcDbEntity
  8
0
 62
7
100
AcDbSpline
 70
8
 71
3
 72
8
 73
4
 74
0
 40
0
 40
0
 40
0
 40
0
 40
1
 40
1
 40
1
 40
1
 10
66.267889
 20
152.028219
 30
0.0
 10
63.775754
 20
149.661893
 30
0.0
 10
63.749047
 20
149.544821
 30
0.0
 10
65.160858
 20
147.174516
 30
0.0
  0
SPLINE
  5
1e4
100
AcDbEntity
  8
0
 62
7
100
AcDbSpline
 70
8
 71
3
 72
8
 73
4
 74
0
 40
0
 40
0
 40
0
 40
0
 40
1
 40
1
 40
1
 40
1
 10
65.160858
 20
147.174516
 30
0.0
 10
65.956544
 20
145.838620
 30
0.0
 10
69.194553
 20
143.227556
 30
0.0
 10
72.356435
 20
141.372145
 30
0.0
  0
SPLINE
  5
1e5
100
AcDbEntity
  8
0
 62
7
100
AcDbSpline
 70
8
 71
3
 72
8
 73
4
 74
0
 40
0
 40
0
 40
0
 40
0
 40
1
 40
1
 40
1
 40
1
 10
72.356435
 20
141.372145
 30
0.0
 10
78.685173
 20
137.658409
 30
0.0
 10
78.068715
 20
137.008583
 30
0.0
 10
70.905616
 20
139.842811
 30
0.0
  0
LWPOLYLINE
  5
1e6
100
AcDbEntity
  8
0
 62
7
100
AcDbPolyline
 90
4
 70
1
 10
165.906738
 20
148.656671
 30
0.0
 10
165.906738
 20
148.656671
 30
0.0
 10
165.906738
 20
148.656671
 30
0.0
 10
165.906738
 20
148.656671
 30
0.0
  0
SPLINE
  5
1e7
100
AcDbEntity
  8
0
 62
7
100
AcDbSpline
 70
8
 71
3
 72
8
 73
4
 74
0
 40
0
 40
0
 40
0
 40
0
 40
1
 40
1
 40
1
 40
1
 10
50.877780
 20
166.895516
 30
0.0
 10
50.052379
 20
167.132803
 30
0.0
 10
48.701723
 20
167.132803
 30
0.0
 10
47.876322
 20
166.895516
 30
0.0
  0
SPLINE
  5
1e8
100
AcDbEntity
  8
0
 62
7
100
AcDbSpline
 70
8
 71
3
 72
8
 73
4
 74
0
 40
0
 40
0
 40
0
 40
0
 40
1
 40
1
 40
1
 40
1
 10
47.876322
 20
166.895516
 30
0.0
 10
47.050920
 20
166.658229
 30
0.0
 10
47.726250
 20
166.464091
 30
0.0
 10
49.377052
 20
166.464091
 30
0.0
  0
SPLINE
  5
1e9
100
AcDbEntity
  8
0
 62
7
100
AcDbSpline
 70
8
 71
3
 72
8
 73
4
 74
0
 40
0
 40
0
 40
0
 40
0
 40
1
 40
1
 40
1
 40
1
 10
49.377052
 20
166.464091
 30
0.0
 10
51.027855
 20
166.464091
 30
0.0
 10
51.703182
 20
166.658229
 30
0.0
 10
50.877780
 20
166.895516
 30
0.0
  0
LWPOLYLINE
  5
1ea
100
AcDbEntity
  8
0
 62
7
100
AcDbPolyline
 90
6
 70
1
 10
108.660398
 20
121.824133
 30
0.0
 10
107.057018
 20
119.645889
 30
0.0
 10
106.445657
 20
121.764889
 30
0.0
 10
106.445657
 20
121.764889
 30
0.0
 10
108.660398
 20
121.824133
 30
0.0
 10
108.660398
 20
121.824133
 30
0.0
  0
SPLINE
  5
1eb
100
AcDbEntity
  8
0
 62
7
100
AcDbSpline
 70
8
 71
3
 72
8
 73
4
 74
0
 40
0
 40
0
 40
0
 40
0
 40
1
 40
1
 40
1
 40
1
 10
93.222696
 20
142.986600
 30
0.0
 10
90.100559
 20
147.124989
 30
0.0
 10
92.819660
 20
162.131622
 30
0.0
 10
97.749795
 20
167.971672
 30
0.0
  0
SPLINE
  5
1ec
100
AcDbEntity
  8
0
 62
7
100
AcDbSpline
 70
8
 71
3
 72
8
 73
4
 74
0
 40
0
 40
0
 40
0
 40
0
 40
1
 40
1
 40
1
 40
1
 10
97.749795
 20
167.971672
 30
0.0
 10
102.089433
 20
173.112206
 30
0.0
 10
115.457972
 20
183.875029
 30
0.0
 10
120.983282
 20
186.676599
 30
0.0
  0
SPLINE
  5
1ed
100
AcDbEntity
  8
0
 62
7
100
AcDbSpline
 70
8
 71
3
 72
8
 73
4
 74
0
 40
0
 40
0
 40
0
 40
0
 40
1
 40
1
 40
1
 40
1
 10
120.983282
 20
186.676599
 30
0.0
 10
128.287938
 20
190.380393
 30
0.0
 10
136.163448
 20
190.821836
 30
0.0
 10
140.278372
 20
187.758150
 30
0.0
  0
SPLINE
  5
1ee
100
AcDbEntity
  8
0
 62
7
100
AcDbSpline
 70
8
 71
3
 72
8
 73
4
 74
0
 40
0
 40
0
 40
0
 40
0
 40
1
 40
1
 40
1
 40
1
 10
140.278372
 20
187.758150
 30
0.0
 10
150.406529
 20
180.217424
 30
0.0
 10
135.757601
 20
168.409613
 30
0.0
 10
109.585300
 20
163.017904
 30
0.0
  0
SPLINE
  5
1ef
100
AcDbEntity
  8
0
 62
7
100
AcDbSpline
 70
8
 71
3
 72
8
 73
4
 74
0
 40
0
 40
0
 40
0
 40
0
 40
1
 40
1
 40
1
 40
1
 10
109.585300
 20
163.017904
 30
0.0
 10
105.674702
 20
162.212281
 30
0.0
 10
101.719208
 20
161.108109
 30
0.0
 10
100.795314
 20
160.564177
 30
0.0
  0
SPLINE
  5
1f0
100
AcDbEntity
  8
0
 62
7
100
AcDbSpline
 70
8
 71
3
 72
8
 73
4
 74
0
 40
0
 40
0
 40
0
 40
0
 40
1
 40
1
 40
1
 40
1
 10
100.795314
 20
160.564177
 30
0.0
 10
97.783128
 20
158.790802
 30
0.0
 10
93.576318
 20
147.075399
 30
0.0
 10
93.700741
 20
141.885807
 30
0.0
  0
LWPOLYLINE
  5
1f1
100
AcDbEntity
  8
0
 62
7
100
AcDbPolyline
 90
4
 70
1
 10
70.905616
 20
139.842811
 30
0.0
 10
70.905616
 20
139.842811
 30
0.0
 10
70.905616
 20
139.842811
 30
0.0
 10
70.905616
 20
139.842811
 30
0.0
  0
SPLINE
  5
1f2
100
AcDbEntity
  8
0
 62
7
100
AcDbSpline
 70
8
 71
3
 72
8
 73
4
 74
0
 40
0
 40
0
 40
0
 40
0
 40
1
 40
1
 40
1
 40
1
 10
115.409142
 20
167.174953
 30
0.0
 10
129.001506
 20
170.258741
 30
0.0
 10
139.420812
 20
177.059843
 30
0.0
 10
139.420812
 20
182.848316
 30
0.0
  0
SPLINE
  5
1f3
100
AcDbEntity
  8
0
 62
7
100
AcDbSpline
 70
8
 71
3
 72
8
 73
4
 74
0
 40
0
 40
0
 40
0
 40
0
 40
1
 40
1
 40
1
 40
1
 10
139.420812
 20
182.848316
 30
0.0
 10
139.420812
 20
188.048399
 30
0.0
 10
130.275779
 20
188.328835
 30
0.0
 10
121.188359
 20
183.407427
 30
0.0
  0
SPLINE
  5
1f4
100
AcDbEntity
  8
0
 62
7
100
AcDbSpline
 70
8
 71
3
 72
8
 73
4
 74
0
 40
0
 40
0
 40
0
 40
0
 40
1
 40
1
 40
1
 40
1
 10
121.188359
 20
183.407427
 30
0.0
 10
115.846566
 20
180.514511
 30
0.0
 10
105.102812
 20
170.681939
 30
0.0
 10
103.352558
 20
167.084286
 30
0.0
  0
SPLINE
  5
1f5
100
AcDbEntity
  8
0
 62
7
100
AcDbSpline
 70
8
 71
3
 72
8
 73
4
 74
0
 40
0
 40
0
 40
0
 40
0
 40
1
 40
1
 40
1
 40
1
 10
103.352558
 20
167.084286
 30
0.0
 10
102.598361
 20
165.534056
 30
0.0
 10
102.796560
 20
165.303458
 30
0.0
 10
104.873868
 20
165.314239
 30
0.0
  0
SPLINE
  5
1f6
100
AcDbEntity
  8
0
 62
7
100
AcDbSpline
 70
8
 71
3
 72
8
 73
4
 74
0
 40
0
 40
0
 40
0
 40
0
 40
1
 40
1
 40
1
 40
1
 10
104.873868
 20
165.314239
 30
0.0
 10
106.187522
 20
165.320843
 30
0.0
 10
110.928384
 20
166.158380
 30
0.0
 10
115.409142
 20
167.174953
 30
0.0
  0
LWPOLYLINE
  5
1f7
100
AcDbEntity
  8
0
 62
7
100
AcDbPolyline
 90
4
 70
1
 10
50.877780
 20
166.895516
 30
0.0
 10
50.877780
 20
166.895516
 30
0.0
 10
50.877780
 20
166.895516
 30
0.0
 10
50.877780
 20
166.895516
 30
0.0
  0
SPLINE
  5
1f8
100
AcDbEntity
  8
0
 62
7
100
AcDbSpline
 70
8
 71
3
 72
8
 73
4
 74
0
 40
0
 40
0
 40
0
 40
0
 40
1
 40
1
 40
1
 40
1
 10
138.348864
 20
160.291891
 30
0.0
 10
136.403207
 20
160.851228
 30
0.0
 10
136.425604
 20
163.645408
 30
0.0
 10
138.391482
 20
165.602487
 30
0.0
  0
SPLINE
  5
1f9
100
AcDbEntity
  8
0
 62
7
100
AcDbSpline
 70
8
 71
3
 72
8
 73
4
 74
0
 40
0
 40
0
 40
0
 40
0
 40
1
 40
1
 40
1
 40
1
 10
138.391474
 20
165.602487
 30
0.0
 10
142.419166
 20
169.612246
 30
0.0
 10
154.360135
 20
171.597203
 30
0.0
 10
155.461448
 20
168.440048
 30
0.0
  0
SPLINE
  5
1fa
100
AcDbEntity
  8
0
 62
7
100
AcDbSpline
 70
8
 71
3
 72
8
 73
4
 74
0
 40
0
 40
0
 40
0
 40
0
 40
1
 40
1
 40
1
 40
1
 10
155.461448
 20
168.440048
 30
0.0
 10
156.225155
 20
166.250672
 30
0.0
 10
151.393717
 20
161.980749
 30
0.0
 10
146.673161
 20
160.673145
 30
0.0
  0
SPLINE
  5
1fb
100
AcDbEntity
  8
0
 62
7
100
AcDbSpline
 70
8
 71
3
 72
8
 73
4
 74
0
 40
0
 40
0
 40
0
 40
0
 40
1
 40
1
 40
1
 40
1
 10
146.673161
 20
160.673145
 30
0.0
 10
142.862740
 20
159.617660
 30
0.0
 10
140.992239
 20
159.531991
 30
0.0
 10
138.348898
 20
160.291891
 30
0.0
  0
LWPOLYLINE
  5
1fc
100
AcDbEntity
  8
0
 62
7
100
AcDbPolyline
 90
4
 70
1
 10
93.222696
 20
142.986600
 30
0.0
 10
93.222696
 20
142.986600
 30
0.0
 10
93.222696
 20
142.986600
 30
0.0
 10
93.222696
 20
142.986600
 30
0.0
  0
SPLINE
  5
1fd
100
AcDbEntity
  8
0
 62
7
100
AcDbSpline
 70
8
 71
3
 72
8
 73
4
 74
0
 40
0
 40
0
 40
0
 40
0
 40
1
 40
1
 40
1
 40
1
 10
149.801538
 20
164.881372
 30
0.0
 10
153.836071
 20
167.176480
 30
0.0
 10
152.670315
 20
167.822201
 30
0.0
 10
146.498313
 20
166.711075
 30
0.0
  0
SPLINE
  5
1fe
100
AcDbEntity
  8
0
 62
7
100
AcDbSpline
 70
8
 71
3
 72
8
 73
4
 74
0
 40
0
 40
0
 40
0
 40
0
 40
1
 40
1
 40
1
 40
1
 10
146.498313
 20
166.711075
 30
0.0
 10
142.008200
 20
165.902737
 30
0.0
 10
140.644412
 20
165.280968
 30
0.0
 10
140.408731
 20
163.934779
 30
0.0
  0
SPLINE
  5
1ff
100
AcDbEntity
  8
0
 62
7
100
AcDbSpline
 70
8
 71
3
 72
8
 73
4
 74
0
 40
0
 40
0
 40
0
 40
0
 40
1
 40
1
 40
1
 40
1
 10
140.408731
 20
163.934779
 30
0.0
 10
140.139369
 20
162.396061
 30
0.0
 10
140.512529
 20
162.271771
 30
0.0
 10
143.711964
 20
162.834578
 30
0.0
  0
SPLINE
  5
200
100
AcDbEntity
  8
0
 62
7
100
AcDbSpline
 70
8
 71
3
 72
8
 73
4
 74
0
 40
0
 40
0
 40
0
 40
0
 40
1
 40
1
 40
1
 40
1
 10
143.711964
 20
162.834578
 30
0.0
 10
145.695783
 20
163.183552
 30
0.0
 10
148.436079
 20
164.104606
 30
0.0
 10
149.801538
 20
164.881372
 30
0.0
  0
LWPOLYLINE
  5
201
100
AcDbEntity
  8
0
 62
7
100
AcDbPolyline
 90
4
 70
1
 10
115.409142
 20
167.174953
 30
0.0
 10
115.409142
 20
167.174953
 30
0.0
 10
115.409142
 20
167.174953
 30
0.0
 10
115.409142
 20
167.174953
 30
0.0
  0
LWPOLYLINE
  5
202
100
AcDbEntity
  8
0
 62
7
100
AcDbPolyline
 90
4
 70
1
 10
138.348898
 20
160.291891
 30
0.0
 10
138.348864
 20
160.291891
 30
0.0
 10
138.348898
 20
160.291891
 30
0.0
 10
138.348898
 20
160.291891
 30
0.0
  0
SPLINE
  5
203
100
AcDbEntity
  8
0
 62
7
100
AcDbSpline
 70
8
 71
3
 72
8
 73
4
 74
0
 40
0
 40
0
 40
0
 40
0
 40
1
 40
1
 40
1
 40
1
 10
69.171944
 20
141.368812
 30
0.0
 10
66.465944
 20
142.687304
 30
0.0
 10
61.830466
 20
146.513345
 30
0.0
 10
61.830466
 20
147.428335
 30
0.0
  0
SPLINE
  5
204
100
AcDbEntity
  8
0
 62
7
100
AcDbSpline
 70
8
 71
3
 72
8
 73
4
 74
0
 40
0
 40
0
 40
0
 40
0
 40
1
 40
1
 40
1
 40
1
 10
61.830466
 20
147.428335
 30
0.0
 10
61.830466
 20
148.341019
 30
0.0
 10
58.409380
 20
148.702241
 30
0.0
 10
48.259859
 20
148.861208
 30
0.0
  0
SPLINE
  5
205
100
AcDbEntity
  8
0
 62
7
100
AcDbSpline
 70
8
 71
3
 72
8
 73
4
 74
0
 40
0
 40
0
 40
0
 40
0
 40
1
 40
1
 40
1
 40
1
 10
48.259859
 20
148.861208
 30
0.0
 10
41.379323
 20
148.968975
 30
0.0
 10
36.670993
 20
149.228041
 30
0.0
 10
35.916246
 20
149.540393
 30
0.0
  0
SPLINE
  5
206
100
AcDbEntity
  8
0
 62
7
100
AcDbSpline
 70
8
 71
3
 72
8
 73
4
 74
0
 40
0
 40
0
 40
0
 40
0
 40
1
 40
1
 40
1
 40
1
 10
35.916246
 20
149.540393
 30
0.0
 10
34.050870
 20
150.312378
 30
0.0
 10
30.920162
 20
153.407272
 30
0.0
 10
30.047898
 20
155.341615
 30
0.0
  0
SPLINE
  5
207
100
AcDbEntity
  8
0
 62
7
100
AcDbSpline
 70
8
 71
3
 72
8
 73
4
 74
0
 40
0
 40
0
 40
0
 40
0
 40
1
 40
1
 40
1
 40
1
 10
30.047898
 20
155.341615
 30
0.0
 10
29.304480
 20
156.990216
 30
0.0
 10
29.304327
 20
157.144885
 30
0.0
 10
30.044709
 20
158.577033
 30
0.0
  0
SPLINE
  5
208
100
AcDbEntity
  8
0
 62
7
100
AcDbSpline
 70
8
 71
3
 72
8
 73
4
 74
0
 40
0
 40
0
 40
0
 40
0
 40
1
 40
1
 40
1
 40
1
 10
30.044709
 20
158.577033
 30
0.0
 10
31.298140
 20
161.001613
 30
0.0
 10
33.345490
 20
163.310650
 30
0.0
 10
36.506110
 20
165.864313
 30
0.0
  0
SPLINE
  5
209
100
AcDbEntity
  8
0
 62
7
100
AcDbSpline
 70
8
 71
3
 72
8
 73
4
 74
0
 40
0
 40
0
 40
0
 40
0
 40
1
 40
1
 40
1
 40
1
 10
36.506110
 20
165.864313
 30
0.0
 10
38.501963
 20
167.476888
 30
0.0
 10
40.273278
 20
169.483847
 30
0.0
 10
41.956863
 20
172.040201
 30
0.0
  0
SPLINE
  5
20a
100
AcDbEntity
  8
0
 62
7
100
AcDbSpline
 70
8
 71
3
 72
8
 73
4
 74
0
 40
0
 40
0
 40
0
 40
0
 40
1
 40
1
 40
1
 40
1
 10
41.956863
 20
172.040201
 30
0.0
 10
43.561787
 20
174.477114
 30
0.0
 10
45.288513
 20
176.459505
 30
0.0
 10
46.800341
 20
177.600812
 30
0.0
  0
SPLINE
  5
20b
100
AcDbEntity
  8
0
 62
7
100
AcDbSpline
 70
8
 71
3
 72
8
 73
4
 74
0
 40
0
 40
0
 40
0
 40
0
 40
1
 40
1
 40
1
 40
1
 10
46.800341
 20
177.600812
 30
0.0
 10
52.042514
 20
181.558230
 30
0.0
 10
59.937009
 20
184.206759
 30
0.0
 10
62.942817
 20
183.016461
 30
0.0
  0
SPLINE
  5
20c
100
AcDbEntity
  8
0
 62
7
100
AcDbSpline
 70
8
 71
3
 72
8
 73
4
 74
0
 40
0
 40
0
 40
0
 40
0
 40
1
 40
1
 40
1
 40
1
 10
62.942817
 20
183.016461
 30
0.0
 10
64.798050
 20
182.281789
 30
0.0
 10
63.869677
 20
181.861662
 30
0.0
 10
59.114377
 20
181.283930
 30
0.0
  0
SPLINE
  5
20d
100
AcDbEntity
  8
0
 62
7
100
AcDbSpline
 70
8
 71
3
 72
8
 73
4
 74
0
 40
0
 40
0
 40
0
 40
0
 40
1
 40
1
 40
1
 40
1
 10
59.114377
 20
181.283930
 30
0.0
 10
52.671718
 20
180.501198
 30
0.0
 10
46.197949
 20
177.202540
 30
0.0
 10
44.623078
 20
173.900003
 30
0.0
  0
SPLINE
  5
20e
100
AcDbEntity
  8
0
 62
7
100
AcDbSpline
 70
8
 71
3
 72
8
 73
4
 74
0
 40
0
 40
0
 40
0
 40
0
 40
1
 40
1
 40
1
 40
1
 10
44.623078
 20
173.900003
 30
0.0
 10
43.364311
 20
171.260340
 30
0.0
 10
44.755040
 20
169.919437
 30
0.0
 10
49.439635
 20
169.256014
 30
0.0
  0
SPLINE
  5
20f
100
AcDbEntity
  8
0
 62
7
100
AcDbSpline
 70
8
 71
3
 72
8
 73
4
 74
0
 40
0
 40
0
 40
0
 40
0
 40
1
 40
1
 40
1
 40
1
 10
49.439635
 20
169.256014
 30
0.0
 10
52.971356
 20
168.755863
 30
0.0
 10
55.270121
 20
167.678666
 30
0.0
 10
55.068837
 20
166.618185
 30
0.0
  0
SPLINE
  5
210
100
AcDbEntity
  8
0
 62
7
100
AcDbSpline
 70
8
 71
3
 72
8
 73
4
 74
0
 40
0
 40
0
 40
0
 40
0
 40
1
 40
1
 40
1
 40
1
 10
55.068837
 20
166.618185
 30
0.0
 10
54.961736
 20
166.053918
 30
0.0
 10
54.369538
 20
165.831126
 30
0.0
 10
52.705243
 20
165.728979
 30
0.0
  0
SPLINE
  5
211
100
AcDbEntity
  8
0
 62
7
100
AcDbSpline
 70
8
 71
3
 72
8
 73
4
 74
0
 40
0
 40
0
 40
0
 40
0
 40
1
 40
1
 40
1
 40
1
 10
52.705243
 20
165.728979
 30
0.0
 10
50.653778
 20
165.603065
 30
0.0
 10
50.552367
 20
165.642915
 30
0.0
 10
51.374432
 20
166.251911
 30
0.0
  0
SPLINE
  5
212
100
AcDbEntity
  8
0
 62
7
100
AcDbSpline
 70
8
 71
3
 72
8
 73
4
 74
0
 40
0
 40
0
 40
0
 40
0
 40
1
 40
1
 40
1
 40
1
 10
51.374432
 20
166.251911
 30
0.0
 10
52.244478
 20
166.896453
 30
0.0
 10
52.236395
 20
166.921799
 30
0.0
 10
51.011763
 20
167.389320
 30
0.0
  0
SPLINE
  5
213
100
AcDbEntity
  8
0
 62
7
100
AcDbSpline
 70
8
 71
3
 72
8
 73
4
 74
0
 40
0
 40
0
 40
0
 40
0
 40
1
 40
1
 40
1
 40
1
 10
51.011763
 20
167.389320
 30
0.0
 10
49.461053
 20
167.981327
 30
0.0
 10
49.283369
 20
167.981327
 30
0.0
 10
47.732659
 20
167.389320
 30
0.0
  0
SPLINE
  5
214
100
AcDbEntity
  8
0
 62
7
100
AcDbSpline
 70
8
 71
3
 72
8
 73
4
 74
0
 40
0
 40
0
 40
0
 40
0
 40
1
 40
1
 40
1
 40
1
 10
47.732659
 20
167.389320
 30
0.0
 10
46.583253
 20
166.950518
 30
0.0
 10
46.544168
 20
166.864091
 30
0.0
 10
47.258001
 20
166.339710
 30
0.0
  0
SPLINE
  5
215
100
AcDbEntity
  8
0
 62
7
100
AcDbSpline
 70
8
 71
3
 72
8
 73
4
 74
0
 40
0
 40
0
 40
0
 40
0
 40
1
 40
1
 40
1
 40
1
 10
47.258001
 20
166.339710
 30
0.0
 10
47.921723
 20
165.852143
 30
0.0
 10
47.372437
 20
165.692837
 30
0.0
 10
43.515277
 20
165.254233
 30
0.0
  0
SPLINE
  5
216
100
AcDbEntity
  8
0
 62
7
100
AcDbSpline
 70
8
 71
3
 72
8
 73
4
 74
0
 40
0
 40
0
 40
0
 40
0
 40
1
 40
1
 40
1
 40
1
 10
43.515277
 20
165.254233
 30
0.0
 10
38.567733
 20
164.691640
 30
0.0
 10
36.113700
 20
163.667506
 30
0.0
 10
34.506205
 20
161.494505
 30
0.0
  0
SPLINE
  5
217
100
AcDbEntity
  8
0
 62
7
100
AcDbSpline
 70
8
 71
3
 72
8
 73
4
 74
0
 40
0
 40
0
 40
0
 40
0
 40
1
 40
1
 40
1
 40
1
 10
34.506205
 20
161.494505
 30
0.0
 10
33.749471
 20
160.471560
 30
0.0
 10
33.576912
 20
159.590053
 30
0.0
 10
33.576912
 20
156.747268
 30
0.0
  0
SPLINE
  5
218
100
AcDbEntity
  8
0
 62
7
100
AcDbSpline
 70
8
 71
3
 72
8
 73
4
 74
0
 40
0
 40
0
 40
0
 40
0
 40
1
 40
1
 40
1
 40
1
 10
33.576912
 20
156.747268
 30
0.0
 10
33.576912
 20
153.675852
 30
0.0
 10
33.705109
 20
153.119778
 30
0.0
 10
34.643452
 20
152.120960
 30
0.0
  0
SPLINE
  5
219
100
AcDbEntity
  8
0
 62
7
100
AcDbSpline
 70
8
 71
3
 72
8
 73
4
 74
0
 40
0
 40
0
 40
0
 40
0
 40
1
 40
1
 40
1
 40
1
 10
34.643452
 20
152.120960
 30
0.0
 10
36.413742
 20
150.236573
 30
0.0
 10
38.316089
 20
149.845458
 30
0.0
 10
45.590237
 20
149.870345
 30
0.0
  0
SPLINE
  5
21a
100
AcDbEntity
  8
0
 62
7
100
AcDbSpline
 70
8
 71
3
 72
8
 73
4
 74
0
 40
0
 40
0
 40
0
 40
0
 40
1
 40
1
 40
1
 40
1
 10
45.590237
 20
149.870345
 30
0.0
 10
54.217593
 20
149.899862
 30
0.0
 10
56.119401
 20
150.215644
 30
0.0
 10
58.090003
 20
151.945858
 30
0.0
  0
SPLINE
  5
21b
100
AcDbEntity
  8
0
 62
7
100
AcDbSpline
 70
8
 71
3
 72
8
 73
4
 74
0
 40
0
 40
0
 40
0
 40
0
 40
1
 40
1
 40
1
 40
1
 10
58.090003
 20
151.945858
 30
0.0
 10
59.995768
 20
153.619142
 30
0.0
 10
60.787198
 20
155.088422
 30
0.0
 10
61.441502
 20
158.167864
 30
0.0
  0
SPLINE
  5
21c
100
AcDbEntity
  8
0
 62
7
100
AcDbSpline
 70
8
 71
3
 72
8
 73
4
 74
0
 40
0
 40
0
 40
0
 40
0
 40
1
 40
1
 40
1
 40
1
 10
61.441502
 20
158.167864
 30
0.0
 10
62.318807
 20
162.296843
 30
0.0
 10
66.233650
 20
169.236126
 30
0.0
 10
70.628185
 20
174.451771
 30
0.0
  0
SPLINE
  5
21d
100
AcDbEntity
  8
0
 62
7
100
AcDbSpline
 70
8
 71
3
 72
8
 73
4
 74
0
 40
0
 40
0
 40
0
 40
0
 40
1
 40
1
 40
1
 40
1
 10
70.628185
 20
174.451771
 30
0.0
 10
73.373920
 20
177.710543
 30
0.0
 10
73.524327
 20
177.030514
 30
0.0
 10
70.821491
 20
173.577776
 30
0.0
  0
SPLINE
  5
21e
100
AcDbEntity
  8
0
 62
7
100
AcDbSpline
 70
8
 71
3
 72
8
 73
4
 74
0
 40
0
 40
0
 40
0
 40
0
 40
1
 40
1
 40
1
 40
1
 10
70.821491
 20
173.577776
 30
0.0
 10
64.539687
 20
165.553101
 30
0.0
 10
61.504779
 20
158.828894
 30
0.0
 10
62.720962
 20
155.630091
 30
0.0
  0
SPLINE
  5
21f
100
AcDbEntity
  8
0
 62
7
100
AcDbSpline
 70
8
 71
3
 72
8
 73
4
 74
0
 40
0
 40
0
 40
0
 40
0
 40
1
 40
1
 40
1
 40
1
 10
62.720962
 20
155.630091
 30
0.0
 10
63.140367
 20
154.526975
 30
0.0
 10
63.344199
 20
154.431959
 30
0.0
 10
64.788486
 20
154.666336
 30
0.0
  0
SPLINE
  5
220
100
AcDbEntity
  8
0
 62
7
100
AcDbSpline
 70
8
 71
3
 72
8
 73
4
 74
0
 40
0
 40
0
 40
0
 40
0
 40
1
 40
1
 40
1
 40
1
 10
64.788486
 20
154.666336
 30
0.0
 10
65.669722
 20
154.809341
 30
0.0
 10
67.593388
 20
155.642760
 30
0.0
 10
69.063297
 20
156.518383
 30
0.0
  0
SPLINE
  5
221
100
AcDbEntity
  8
0
 62
7
100
AcDbSpline
 70
8
 71
3
 72
8
 73
4
 74
0
 40
0
 40
0
 40
0
 40
0
 40
1
 40
1
 40
1
 40
1
 10
69.063297
 20
156.518383
 30
0.0
 10
70.533209
 20
157.394003
 30
0.0
 10
71.796137
 20
158.050147
 30
0.0
 10
71.869805
 20
157.976475
 30
0.0
  0
SPLINE
  5
222
100
AcDbEntity
  8
0
 62
7
100
AcDbSpline
 70
8
 71
3
 72
8
 73
4
 74
0
 40
0
 40
0
 40
0
 40
0
 40
1
 40
1
 40
1
 40
1
 10
71.869805
 20
157.976475
 30
0.0
 10
71.943476
 20
157.902807
 30
0.0
 10
70.203760
 20
156.280187
 30
0.0
 10
68.003776
 20
154.370658
 30
0.0
  0
SPLINE
  5
223
100
AcDbEntity
  8
0
 62
7
100
AcDbSpline
 70
8
 71
3
 72
8
 73
4
 74
0
 40
0
 40
0
 40
0
 40
0
 40
1
 40
1
 40
1
 40
1
 10
68.003776
 20
154.370658
 30
0.0
 10
65.803788
 20
152.461125
 30
0.0
 10
63.893649
 20
150.611743
 30
0.0
 10
63.759026
 20
150.260918
 30
0.0
  0
SPLINE
  5
224
100
AcDbEntity
  8
0
 62
7
100
AcDbSpline
 70
8
 71
3
 72
8
 73
4
 74
0
 40
0
 40
0
 40
0
 40
0
 40
1
 40
1
 40
1
 40
1
 10
63.759026
 20
150.260918
 30
0.0
 10
62.990609
 20
148.258455
 30
0.0
 10
65.283639
 20
145.314059
 30
0.0
 10
70.142303
 20
142.064386
 30
0.0
  0
SPLINE
  5
225
100
AcDbEntity
  8
0
 62
7
100
AcDbSpline
 70
8
 71
3
 72
8
 73
4
 74
0
 40
0
 40
0
 40
0
 40
0
 40
1
 40
1
 40
1
 40
1
 10
70.142303
 20
142.064386
 30
0.0
 10
74.005011
 20
139.480850
 30
0.0
 10
73.617212
 20
139.202864
 30
0.0
 10
69.171950
 20
141.368812
 30
0.0
  0
LWPOLYLINE
  5
226
100
AcDbEntity
  8
0
 62
7
100
AcDbPolyline
 90
4
 70
1
 10
149.801538
 20
164.881372
 30
0.0
 10
149.801538
 20
164.881372
 30
0.0
 10
149.801538
 20
164.881372
 30
0.0
 10
149.801538
 20
164.881372
 30
0.0
  0
SPLINE
  5
227
100
AcDbEntity
  8
0
 62
7
100
AcDbSpline
 70
8
 71
3
 72
8
 73
4
 74
0
 40
0
 40
0
 40
0
 40
0
 40
1
 40
1
 40
1
 40
1
 10
141.983996
 20
85.322053
 30
0.0
 10
142.101152
 20
85.439212
 30
0.0
 10
143.444135
 20
86.341121
 30
0.0
 10
144.968400
 20
87.326299
 30
0.0
  0
SPLINE
  5
228
100
AcDbEntity
  8
0
 62
7
100
AcDbSpline
 70
8
 71
3
 72
8
 73
4
 74
0
 40
0
 40
0
 40
0
 40
0
 40
1
 40
1
 40
1
 40
1
 10
144.968400
 20
87.326299
 30
0.0
 10
146.492666
 20
88.311481
 30
0.0
 10
149.731781
 20
90.732236
 30
0.0
 10
152.166436
 20
92.705754
 30
0.0
  0
SPLINE
  5
229
100
AcDbEntity
  8
0
 62
7
100
AcDbSpline
 70
8
 71
3
 72
8
 73
4
 74
0
 40
0
 40
0
 40
0
 40
0
 40
1
 40
1
 40
1
 40
1
 10
152.166436
 20
92.705754
 30
0.0
 10
155.738362
 20
95.601145
 30
0.0
 10
156.909451
 20
96.859695
 30
0.0
 10
158.231589
 20
99.223899
 30
0.0
  0
SPLINE
  5
22a
100
AcDbEntity
  8
0
 62
7
100
AcDbSpline
 70
8
 71
3
 72
8
 73
4
 74
0
 40
0
 40
0
 40
0
 40
0
 40
1
 40
1
 40
1
 40
1
 10
158.231589
 20
99.223899
 30
0.0
 10
160.654269
 20
103.556053
 30
0.0
 10
162.531879
 20
109.317086
 30
0.0
 10
162.272142
 20
111.621442
 30
0.0
  0
SPLINE
  5
22b
100
AcDbEntity
  8
0
 62
7
100
AcDbSpline
 70
8
 71
3
 72
8
 73
4
 74
0
 40
0
 40
0
 40
0
 40
0
 40
1
 40
1
 40
1
 40
1
 10
162.272142
 20
111.621442
 30
0.0
 10
161.859299
 20
115.284206
 30
0.0
 10
158.805208
 20
119.979862
 30
0.0
 10
151.763688
 20
127.778181
 30
0.0
  0
SPLINE
  5
22c
100
AcDbEntity
  8
0
 62
7
100
AcDbSpline
 70
8
 71
3
 72
8
 73
4
 74
0
 40
0
 40
0
 40
0
 40
0
 40
1
 40
1
 40
1
 40
1
 10
151.763688
 20
127.778181
 30
0.0
 10
146.941517
 20
133.118619
 30
0.0
 10
145.488036
 20
135.038726
 30
0.0
 10
145.483120
 20
136.075052
 30
0.0
  0
SPLINE
  5
22d
100
AcDbEntity
  8
0
 62
7
100
AcDbSpline
 70
8
 71
3
 72
8
 73
4
 74
0
 40
0
 40
0
 40
0
 40
0
 40
1
 40
1
 40
1
 40
1
 10
145.483120
 20
136.075052
 30
0.0
 10
145.480862
 20
136.575824
 30
0.0
 10
146.174454
 20
138.077489
 30
0.0
 10
147.024694
 20
139.412087
 30
0.0
  0
SPLINE
  5
22e
100
AcDbEntity
  8
0
 62
7
100
AcDbSpline
 70
8
 71
3
 72
8
 73
4
 74
0
 40
0
 40
0
 40
0
 40
0
 40
1
 40
1
 40
1
 40
1
 10
147.024694
 20
139.412087
 30
0.0
 10
148.717090
 20
142.068585
 30
0.0
 10
148.952523
 20
143.162882
 30
0.0
 10
147.917143
 20
143.560195
 30
0.0
  0
SPLINE
  5
22f
100
AcDbEntity
  8
0
 62
7
100
AcDbSpline
 70
8
 71
3
 72
8
 73
4
 74
0
 40
0
 40
0
 40
0
 40
0
 40
1
 40
1
 40
1
 40
1
 10
147.917143
 20
143.560195
 30
0.0
 10
147.545219
 20
143.702914
 30
0.0
 10
145.292722
 20
144.133108
 30
0.0
 10
142.911590
 20
144.516177
 30
0.0
  0
SPLINE
  5
230
100
AcDbEntity
  8
0
 62
7
100
AcDbSpline
 70
8
 71
3
 72
8
 73
4
 74
0
 40
0
 40
0
 40
0
 40
0
 40
1
 40
1
 40
1
 40
1
 10
142.911590
 20
144.516177
 30
0.0
 10
140.530461
 20
144.899249
 30
0.0
 10
137.506902
 20
145.704900
 30
0.0
 10
136.192570
 20
146.306510
 30
0.0
  0
SPLINE
  5
231
100
AcDbEntity
  8
0
 62
7
100
AcDbSpline
 70
8
 71
3
 72
8
 73
4
 74
0
 40
0
 40
0
 40
0
 40
0
 40
1
 40
1
 40
1
 40
1
 10
136.192570
 20
146.306510
 30
0.0
 10
133.328001
 20
147.617720
 30
0.0
 10
132.421562
 20
147.667391
 30
0.0
 10
131.369353
 20
146.570814
 30
0.0
  0
SPLINE
  5
232
100
AcDbEntity
  8
0
 62
7
100
AcDbSpline
 70
8
 71
3
 72
8
 73
4
 74
0
 40
0
 40
0
 40
0
 40
0
 40
1
 40
1
 40
1
 40
1
 10
131.369353
 20
146.570814
 30
0.0
 10
129.259192
 20
144.371674
 30
0.0
 10
125.586834
 20
144.089838
 30
0.0
 10
121.830036
 20
145.838721
 30
0.0
  0
SPLINE
  5
233
100
AcDbEntity
  8
0
 62
7
100
AcDbSpline
 70
8
 71
3
 72
8
 73
4
 74
0
 40
0
 40
0
 40
0
 40
0
 40
1
 40
1
 40
1
 40
1
 10
121.830036
 20
145.838721
 30
0.0
 10
118.831721
 20
147.234513
 30
0.0
 10
117.525554
 20
147.235318
 30
0.0
 10
114.778082
 20
145.843068
 30
0.0
  0
SPLINE
  5
234
100
AcDbEntity
  8
0
 62
7
100
AcDbSpline
 70
8
 71
3
 72
8
 73
4
 74
0
 40
0
 40
0
 40
0
 40
0
 40
1
 40
1
 40
1
 40
1
 10
114.778082
 20
145.843068
 30
0.0
 10
113.570774
 20
145.231277
 30
0.0
 10
112.276563
 20
144.730723
 30
0.0
 10
111.902059
 20
144.730723
 30
0.0
  0
SPLINE
  5
235
100
AcDbEntity
  8
0
 62
7
100
AcDbSpline
 70
8
 71
3
 72
8
 73
4
 74
0
 40
0
 40
0
 40
0
 40
0
 40
1
 40
1
 40
1
 40
1
 10
111.902059
 20
144.730723
 30
0.0
 10
110.695568
 20
144.730723
 30
0.0
 10
107.692656
 20
147.847960
 30
0.0
 10
107.224573
 20
149.586288
 30
0.0
  0
SPLINE
  5
236
100
AcDbEntity
  8
0
 62
7
100
AcDbSpline
 70
8
 71
3
 72
8
 73
4
 74
0
 40
0
 40
0
 40
0
 40
0
 40
1
 40
1
 40
1
 40
1
 10
107.224573
 20
149.586288
 30
0.0
 10
106.529951
 20
152.165912
 30
0.0
 10
107.740456
 20
155.354083
 30
0.0
 10
110.628117
 20
158.550377
 30
0.0
  0
SPLINE
  5
237
100
AcDbEntity
  8
0
 62
7
100
AcDbSpline
 70
8
 71
3
 72
8
 73
4
 74
0
 40
0
 40
0
 40
0
 40
0
 40
1
 40
1
 40
1
 40
1
 10
110.628117
 20
158.550377
 30
0.0
 10
113.322653
 20
161.532904
 30
0.0
 10
113.672033
 20
160.660431
 30
0.0
 10
111.885987
 20
155.409232
 30
0.0
  0
SPLINE
  5
238
100
AcDbEntity
  8
0
 62
7
100
AcDbSpline
 70
8
 71
3
 72
8
 73
4
 74
0
 40
0
 40
0
 40
0
 40
0
 40
1
 40
1
 40
1
 40
1
 10
111.885987
 20
155.409232
 30
0.0
 10
110.544604
 20
151.465408
 30
0.0
 10
110.438788
 20
148.731183
 30
0.0
 10
111.587317
 20
147.691778
 30
0.0
  0
SPLINE
  5
239
100
AcDbEntity
  8
0
 62
7
100
AcDbSpline
 70
8
 71
3
 72
8
 73
4
 74
0
 40
0
 40
0
 40
0
 40
0
 40
1
 40
1
 40
1
 40
1
 10
111.587317
 20
147.691778
 30
0.0
 10
113.458315
 20
145.998549
 30
0.0
 10
115.381538
 20
146.887569
 30
0.0
 10
121.555479
 20
152.299606
 30
0.0
  0
SPLINE
  5
23a
100
AcDbEntity
  8
0
 62
7
100
AcDbSpline
 70
8
 71
3
 72
8
 73
4
 74
0
 40
0
 40
0
 40
0
 40
0
 40
1
 40
1
 40
1
 40
1
 10
121.555479
 20
152.299606
 30
0.0
 10
125.636051
 20
155.876609
 30
0.0
 10
128.571159
 20
157.754801
 30
0.0
 10
128.571159
 20
156.788980
 30
0.0
  0
SPLINE
  5
23b
100
AcDbEntity
  8
0
 62
7
100
AcDbSpline
 70
8
 71
3
 72
8
 73
4
 74
0
 40
0
 40
0
 40
0
 40
0
 40
1
 40
1
 40
1
 40
1
 10
128.571159
 20
156.788980
 30
0.0
 10
128.571159
 20
156.594439
 30
0.0
 10
128.143725
 20
155.954133
 30
0.0
 10
127.621307
 20
155.366078
 30
0.0
  0
SPLINE
  5
23c
100
AcDbEntity
  8
0
 62
7
100
AcDbSpline
 70
8
 71
3
 72
8
 73
4
 74
0
 40
0
 40
0
 40
0
 40
0
 40
1
 40
1
 40
1
 40
1
 10
127.621307
 20
155.366078
 30
0.0
 10
127.098891
 20
154.778023
 30
0.0
 10
126.174460
 20
153.226605
 30
0.0
 10
125.567022
 20
151.918485
 30
0.0
  0
SPLINE
  5
23d
100
AcDbEntity
  8
0
 62
7
100
AcDbSpline
 70
8
 71
3
 72
8
 73
4
 74
0
 40
0
 40
0
 40
0
 40
0
 40
1
 40
1
 40
1
 40
1
 10
125.567022
 20
151.918485
 30
0.0
 10
124.663344
 20
149.972410
 30
0.0
 10
124.551194
 20
149.345609
 30
0.0
 10
124.950051
 20
148.470215
 30
0.0
  0
SPLINE
  5
23e
100
AcDbEntity
  8
0
 62
7
100
AcDbSpline
 70
8
 71
3
 72
8
 73
4
 74
0
 40
0
 40
0
 40
0
 40
0
 40
1
 40
1
 40
1
 40
1
 10
124.950051
 20
148.470215
 30
0.0
 10
125.218156
 20
147.881790
 30
0.0
 10
125.742141
 20
147.400350
 30
0.0
 10
126.114460
 20
147.400350
 30
0.0
  0
SPLINE
  5
23f
100
AcDbEntity
  8
0
 62
7
100
AcDbSpline
 70
8
 71
3
 72
8
 73
4
 74
0
 40
0
 40
0
 40
0
 40
0
 40
1
 40
1
 40
1
 40
1
 10
126.114460
 20
147.400350
 30
0.0
 10
126.494783
 20
147.400350
 30
0.0
 10
126.791407
 20
147.010423
 30
0.0
 10
126.791407
 20
146.510472
 30
0.0
  0
SPLINE
  5
240
100
AcDbEntity
  8
0
 62
7
100
AcDbSpline
 70
8
 71
3
 72
8
 73
4
 74
0
 40
0
 40
0
 40
0
 40
0
 40
1
 40
1
 40
1
 40
1
 10
126.791407
 20
146.510472
 30
0.0
 10
126.791407
 20
146.021043
 30
0.0
 10
126.897948
 20
145.620597
 30
0.0
 10
127.028166
 20
145.620597
 30
0.0
  0
SPLINE
  5
241
100
AcDbEntity
  8
0
 62
7
100
AcDbSpline
 70
8
 71
3
 72
8
 73
4
 74
0
 40
0
 40
0
 40
0
 40
0
 40
1
 40
1
 40
1
 40
1
 10
127.028166
 20
145.620597
 30
0.0
 10
128.280454
 20
145.620597
 30
0.0
 10
130.946367
 20
147.552781
 30
0.0
 10
134.337625
 20
150.918301
 30
0.0
  0
SPLINE
  5
242
100
AcDbEntity
  8
0
 62
7
100
AcDbSpline
 70
8
 71
3
 72
8
 73
4
 74
0
 40
0
 40
0
 40
0
 40
0
 40
1
 40
1
 40
1
 40
1
 10
134.337625
 20
150.918301
 30
0.0
 10
136.579940
 20
153.143598
 30
0.0
 10
138.725306
 20
154.964295
 30
0.0
 10
139.105104
 20
154.964295
 30
0.0
  0
SPLINE
  5
243
100
AcDbEntity
  8
0
 62
7
100
AcDbSpline
 70
8
 71
3
 72
8
 73
4
 74
0
 40
0
 40
0
 40
0
 40
0
 40
1
 40
1
 40
1
 40
1
 10
139.105104
 20
154.964295
 30
0.0
 10
139.816118
 20
154.964295
 30
0.0
 10
139.814043
 20
154.881827
 30
0.0
 10
138.959655
 20
149.178813
 30
0.0
  0
SPLINE
  5
244
100
AcDbEntity
  8
0
 62
7
100
AcDbSpline
 70
8
 71
3
 72
8
 73
4
 74
0
 40
0
 40
0
 40
0
 40
0
 40
1
 40
1
 40
1
 40
1
 10
138.959655
 20
149.178813
 30
0.0
 10
138.674080
 20
147.272599
 30
0.0
 10
140.096248
 20
145.175660
 30
0.0
 10
141.674641
 20
145.175660
 30
0.0
  0
SPLINE
  5
245
100
AcDbEntity
  8
0
 62
7
100
AcDbSpline
 70
8
 71
3
 72
8
 73
4
 74
0
 40
0
 40
0
 40
0
 40
0
 40
1
 40
1
 40
1
 40
1
 10
141.674641
 20
145.175660
 30
0.0
 10
142.913433
 20
145.175660
 30
0.0
 10
143.314293
 20
145.661074
 30
0.0
 10
144.316391
 20
148.374623
 30
0.0
  0
SPLINE
  5
246
100
AcDbEntity
  8
0
 62
7
100
AcDbSpline
 70
8
 71
3
 72
8
 73
4
 74
0
 40
0
 40
0
 40
0
 40
0
 40
1
 40
1
 40
1
 40
1
 10
144.316391
 20
148.374623
 30
0.0
 10
145.750819
 20
152.258879
 30
0.0
 10
149.052032
 20
154.387162
 30
0.0
 10
158.236333
 20
157.348779
 30
0.0
  0
SPLINE
  5
247
100
AcDbEntity
  8
0
 62
7
100
AcDbSpline
 70
8
 71
3
 72
8
 73
4
 74
0
 40
0
 40
0
 40
0
 40
0
 40
1
 40
1
 40
1
 40
1
 10
158.236333
 20
157.348779
 30
0.0
 10
164.183622
 20
159.266572
 30
0.0
 10
175.293901
 20
162.227354
 30
0.0
 10
175.556754
 20
161.964504
 30
0.0
  0
SPLINE
  5
248
100
AcDbEntity
  8
0
 62
7
100
AcDbSpline
 70
8
 71
3
 72
8
 73
4
 74
0
 40
0
 40
0
 40
0
 40
0
 40
1
 40
1
 40
1
 40
1
 10
175.556754
 20
161.964504
 30
0.0
 10
175.659548
 20
161.861707
 30
0.0
 10
174.940722
 20
161.415534
 30
0.0
 10
173.959368
 20
160.973001
 30
0.0
  0
SPLINE
  5
249
100
AcDbEntity
  8
0
 62
7
100
AcDbSpline
 70
8
 71
3
 72
8
 73
4
 74
0
 40
0
 40
0
 40
0
 40
0
 40
1
 40
1
 40
1
 40
1
 10
173.959368
 20
160.973001
 30
0.0
 10
172.978008
 20
160.530471
 30
0.0
 10
172.151353
 20
159.948531
 30
0.0
 10
172.122361
 20
159.679802
 30
0.0
  0
SPLINE
  5
24a
100
AcDbEntity
  8
0
 62
7
100
AcDbSpline
 70
8
 71
3
 72
8
 73
4
 74
0
 40
0
 40
0
 40
0
 40
0
 40
1
 40
1
 40
1
 40
1
 10
172.122361
 20
159.679802
 30
0.0
 10
172.015444
 20
158.688858
 30
0.0
 10
172.271416
 20
157.838446
 30
0.0
 10
172.882639
 20
157.153950
 30
0.0
  0
SPLINE
  5
24b
100
AcDbEntity
  8
0
 62
7
100
AcDbSpline
 70
8
 71
3
 72
8
 73
4
 74
0
 40
0
 40
0
 40
0
 40
0
 40
1
 40
1
 40
1
 40
1
 10
172.882639
 20
157.153950
 30
0.0
 10
173.227627
 20
156.767608
 30
0.0
 10
173.509892
 20
155.706906
 30
0.0
 10
173.509892
 20
154.796838
 30
0.0
  0
SPLINE
  5
24c
100
AcDbEntity
  8
0
 62
7
100
AcDbSpline
 70
8
 71
3
 72
8
 73
4
 74
0
 40
0
 40
0
 40
0
 40
0
 40
1
 40
1
 40
1
 40
1
 10
173.509892
 20
154.796838
 30
0.0
 10
173.509892
 20
151.149040
 30
0.0
 10
167.009747
 20
146.817688
 30
0.0
 10
157.856134
 20
144.366004
 30
0.0
  0
SPLINE
  5
24d
100
AcDbEntity
  8
0
 62
7
100
AcDbSpline
 70
8
 71
3
 72
8
 73
4
 74
0
 40
0
 40
0
 40
0
 40
0
 40
1
 40
1
 40
1
 40
1
 10
157.856134
 20
144.366004
 30
0.0
 10
155.242105
 20
143.665867
 30
0.0
 10
152.612050
 20
142.771113
 30
0.0
 10
152.011561
 20
142.377658
 30
0.0
  0
SPLINE
  5
24e
100
AcDbEntity
  8
0
 62
7
100
AcDbSpline
 70
8
 71
3
 72
8
 73
4
 74
0
 40
0
 40
0
 40
0
 40
0
 40
1
 40
1
 40
1
 40
1
 10
152.011561
 20
142.377658
 30
0.0
 10
150.616401
 20
141.463512
 30
0.0
 10
148.984191
 20
138.101416
 30
0.0
 10
148.696516
 20
135.549178
 30
0.0
  0
LWPOLYLINE
  5
24f
100
AcDbEntity
  8
0
 62
7
100
AcDbPolyline
 90
2
 70
1
 10
69.171950
 20
141.368812
 30
0.0
 10
69.171944
 20
141.368812
 30
0.0
  0
SPLINE
  5
250
100
AcDbEntity
  8
0
 62
7
100
AcDbSpline
 70
8
 71
3
 72
8
 73
4
 74
0
 40
0
 40
0
 40
0
 40
0
 40
1
 40
1
 40
1
 40
1
 10
154.033762
 20
128.136761
 30
0.0
 10
162.231016
 20
120.131395
 30
0.0
 10
164.899171
 20
115.488439
 30
0.0
 10
164.528935
 20
109.873713
 30
0.0
  0
SPLINE
  5
251
100
AcDbEntity
  8
0
 62
7
100
AcDbSpline
 70
8
 71
3
 72
8
 73
4
 74
0
 40
0
 40
0
 40
0
 40
0
 40
1
 40
1
 40
1
 40
1
 10
164.528935
 20
109.873713
 30
0.0
 10
164.309656
 20
106.548373
 30
0.0
 10
162.808085
 20
103.109958
 30
0.0
 10
159.722603
 20
98.867808
 30
0.0
  0
SPLINE
  5
252
100
AcDbEntity
  8
0
 62
7
100
AcDbSpline
 70
8
 71
3
 72
8
 73
4
 74
0
 40
0
 40
0
 40
0
 40
0
 40
1
 40
1
 40
1
 40
1
 10
159.722603
 20
98.867808
 30
0.0
 10
158.495842
 20
97.181161
 30
0.0
 10
157.492124
 20
95.614663
 30
0.0
 10
157.492124
 20
95.386704
 30
0.0
  0
SPLINE
  5
253
100
AcDbEntity
  8
0
 62
7
100
AcDbSpline
 70
8
 71
3
 72
8
 73
4
 74
0
 40
0
 40
0
 40
0
 40
0
 40
1
 40
1
 40
1
 40
1
 10
157.492124
 20
95.386704
 30
0.0
 10
157.492124
 20
94.914829
 30
0.0
 10
161.833052
 20
93.860029
 30
0.0
 10
179.516555
 20
90.034986
 30
0.0
  0
SPLINE
  5
254
100
AcDbEntity
  8
0
 62
7
100
AcDbSpline
 70
8
 71
3
 72
8
 73
4
 74
0
 40
0
 40
0
 40
0
 40
0
 40
1
 40
1
 40
1
 40
1
 10
179.516555
 20
90.034986
 30
0.0
 10
186.368597
 20
88.552851
 30
0.0
 10
192.775705
 20
87.109451
 30
0.0
 10
193.754567
 20
86.827438
 30
0.0
  0
LWPOLYLINE
  5
255
100
AcDbEntity
  8
0
 62
7
100
AcDbPolyline
 90
3
 70
1
 10
148.696516
 20
135.549178
 30
0.0
 10
148.473120
 20
133.567228
 30
0.0
 10
154.033762
 20
128.136761
 30
0.0
  0
SPLINE
  5
256
100
AcDbEntity
  8
0
 62
7
100
AcDbSpline
 70
8
 71
3
 72
8
 73
4
 74
0
 40
0
 40
0
 40
0
 40
0
 40
1
 40
1
 40
1
 40
1
 10
194.063978
 20
85.700665
 30
0.0
 10
192.697416
 20
85.129998
 30
0.0
 10
192.100711
 20
85.227587
 30
0.0
 10
185.610156
 20
87.083227
 30
0.0
  0
SPLINE
  5
257
100
AcDbEntity
  8
0
 62
7
100
AcDbSpline
 70
8
 71
3
 72
8
 73
4
 74
0
 40
0
 40
0
 40
0
 40
0
 40
1
 40
1
 40
1
 40
1
 10
185.610156
 20
87.083227
 30
0.0
 10
178.898669
 20
89.002030
 30
0.0
 10
158.461027
 20
94.007795
 30
0.0
 10
157.338372
 20
94.007795
 30
0.0
  0
SPLINE
  5
258
100
AcDbEntity
  8
0
 62
7
100
AcDbSpline
 70
8
 71
3
 72
8
 73
4
 74
0
 40
0
 40
0
 40
0
 40
0
 40
1
 40
1
 40
1
 40
1
 10
157.338372
 20
94.007795
 30
0.0
 10
157.039397
 20
94.007795
 30
0.0
 10
154.498960
 20
92.492354
 30
0.0
 10
151.692960
 20
90.640155
 30
0.0
  0
SPLINE
  5
259
100
AcDbEntity
  8
0
 62
7
100
AcDbSpline
 70
8
 71
3
 72
8
 73
4
 74
0
 40
0
 40
0
 40
0
 40
0
 40
1
 40
1
 40
1
 40
1
 10
151.692960
 20
90.640155
 30
0.0
 10
146.897276
 20
87.474584
 30
0.0
 10
142.787031
 20
85.109037
 30
0.0
 10
142.082401
 20
85.109037
 30
0.0
  0
SPLINE
  5
25a
100
AcDbEntity
  8
0
 62
7
100
AcDbSpline
 70
8
 71
3
 72
8
 73
4
 74
0
 40
0
 40
0
 40
0
 40
0
 40
1
 40
1
 40
1
 40
1
 10
142.082401
 20
85.109037
 30
0.0
 10
141.911121
 20
85.109037
 30
0.0
 10
141.866840
 20
85.204894
 30
0.0
 10
141.983996
 20
85.322050
 30
0.0
  0
LWPOLYLINE
  5
25b
100
AcDbEntity
  8
0
 62
7
100
AcDbPolyline
 90
3
 70
1
 10
193.754567
 20
86.827438
 30
0.0
 10
195.534320
 20
86.314676
 30
0.0
 10
194.063978
 20
85.700665
 30
0.0
  0
SPLINE
  5
25c
100
AcDbEntity
  8
0
 62
7
100
AcDbSpline
 70
8
 71
3
 72
8
 73
4
 74
0
 40
0
 40
0
 40
0
 40
0
 40
1
 40
1
 40
1
 40
1
 10
162.831379
 20
147.253140
 30
0.0
 10
166.506545
 20
147.987479
 30
0.0
 10
168.440148
 20
148.981794
 30
0.0
 10
170.154072
 20
151.018670
 30
0.0
  0
SPLINE
  5
25d
100
AcDbEntity
  8
0
 62
7
100
AcDbSpline
 70
8
 71
3
 72
8
 73
4
 74
0
 40
0
 40
0
 40
0
 40
0
 40
1
 40
1
 40
1
 40
1
 10
170.154072
 20
151.018670
 30
0.0
 10
171.641869
 20
152.786818
 30
0.0
 10
171.615204
 20
154.283194
 30
0.0
 10
170.077996
 20
155.287744
 30
0.0
  0
SPLINE
  5
25e
100
AcDbEntity
  8
0
 62
7
100
AcDbSpline
 70
8
 71
3
 72
8
 73
4
 74
0
 40
0
 40
0
 40
0
 40
0
 40
1
 40
1
 40
1
 40
1
 10
170.077996
 20
155.287744
 30
0.0
 10
167.602651
 20
156.905360
 30
0.0
 10
154.656581
 20
155.806031
 30
0.0
 10
150.343354
 20
153.611954
 30
0.0
  0
SPLINE
  5
25f
100
AcDbEntity
  8
0
 62
7
100
AcDbSpline
 70
8
 71
3
 72
8
 73
4
 74
0
 40
0
 40
0
 40
0
 40
0
 40
1
 40
1
 40
1
 40
1
 10
150.343354
 20
153.611954
 30
0.0
 10
148.452863
 20
152.650290
 30
0.0
 10
147.872715
 20
152.011489
 30
0.0
 10
147.484273
 20
150.463810
 30
0.0
  0
SPLINE
  5
260
100
AcDbEntity
  8
0
 62
7
100
AcDbSpline
 70
8
 71
3
 72
8
 73
4
 74
0
 40
0
 40
0
 40
0
 40
0
 40
1
 40
1
 40
1
 40
1
 10
147.484273
 20
150.463810
 30
0.0
 10
147.101509
 20
148.938757
 30
0.0
 10
148.716941
 20
147.023431
 30
0.0
 10
150.825096
 20
146.502785
 30
0.0
  0
SPLINE
  5
261
100
AcDbEntity
  8
0
 62
7
100
AcDbSpline
 70
8
 71
3
 72
8
 73
4
 74
0
 40
0
 40
0
 40
0
 40
0
 40
1
 40
1
 40
1
 40
1
 10
150.825096
 20
146.502785
 30
0.0
 10
152.767377
 20
146.023100
 30
0.0
 10
158.454053
 20
146.378502
 30
0.0
 10
162.831379
 20
147.253140
 30
0.0
  0
LWPOLYLINE
  5
262
100
AcDbEntity
  8
0
 62
7
100
AcDbPolyline
 90
2
 70
1
 10
141.983996
 20
85.322050
 30
0.0
 10
141.983996
 20
85.322053
 30
0.0
  0
SPLINE
  5
263
100
AcDbEntity
  8
0
 62
7
100
AcDbSpline
 70
8
 71
3
 72
8
 73
4
 74
0
 40
0
 40
0
 40
0
 40
0
 40
1
 40
1
 40
1
 40
1
 10
139.519719
 20
160.673512
 30
0.0
 10
135.485528
 20
161.605715
 30
0.0
 10
138.072755
 20
165.820817
 30
0.0
 10
143.986230
 20
167.950333
 30
0.0
  0
SPLINE
  5
264
100
AcDbEntity
  8
0
 62
7
100
AcDbSpline
 70
8
 71
3
 72
8
 73
4
 74
0
 40
0
 40
0
 40
0
 40
0
 40
1
 40
1
 40
1
 40
1
 10
143.986230
 20
167.950333
 30
0.0
 10
147.566470
 20
169.239623
 30
0.0
 10
153.506935
 20
169.583942
 30
0.0
 10
154.363519
 20
168.551822
 30
0.0
  0
SPLINE
  5
265
100
AcDbEntity
  8
0
 62
7
100
AcDbSpline
 70
8
 71
3
 72
8
 73
4
 74
0
 40
0
 40
0
 40
0
 40
0
 40
1
 40
1
 40
1
 40
1
 10
154.363519
 20
168.551822
 30
0.0
 10
155.256190
 20
167.476219
 30
0.0
 10
154.200400
 20
165.860856
 30
0.0
 10
151.220212
 20
163.742549
 30
0.0
  0
SPLINE
  5
266
100
AcDbEntity
  8
0
 62
7
100
AcDbSpline
 70
8
 71
3
 72
8
 73
4
 74
0
 40
0
 40
0
 40
0
 40
0
 40
1
 40
1
 40
1
 40
1
 10
151.220212
 20
163.742549
 30
0.0
 10
147.839901
 20
161.339839
 30
0.0
 10
142.592541
 20
159.963455
 30
0.0
 10
139.519719
 20
160.673512
 30
0.0
  0
LWPOLYLINE
  5
267
100
AcDbEntity
  8
0
 62
7
100
AcDbPolyline
 90
2
 70
1
 10
162.831379
 20
147.253140
 30
0.0
 10
162.831379
 20
147.253140
 30
0.0
  0
SPLINE
  5
268
100
AcDbEntity
  8
0
 62
7
100
AcDbSpline
 70
8
 71
3
 72
8
 73
4
 74
0
 40
0
 40
0
 40
0
 40
0
 40
1
 40
1
 40
1
 40
1
 10
145.767927
 20
162.703960
 30
0.0
 10
149.388347
 20
163.667935
 30
0.0
 10
152.664473
 20
165.623086
 30
0.0
 10
152.506810
 20
166.725646
 30
0.0
  0
SPLINE
  5
269
100
AcDbEntity
  8
0
 62
7
100
AcDbSpline
 70
8
 71
3
 72
8
 73
4
 74
0
 40
0
 40
0
 40
0
 40
0
 40
1
 40
1
 40
1
 40
1
 10
152.506810
 20
166.725646
 30
0.0
 10
152.327596
 20
167.978899
 30
0.0
 10
150.357273
 20
168.120956
 30
0.0
 10
145.768828
 20
167.211444
 30
0.0
  0
SPLINE
  5
26a
100
AcDbEntity
  8
0
 62
7
100
AcDbSpline
 70
8
 71
3
 72
8
 73
4
 74
0
 40
0
 40
0
 40
0
 40
0
 40
1
 40
1
 40
1
 40
1
 10
145.768828
 20
167.211444
 30
0.0
 10
140.933811
 20
166.253060
 30
0.0
 10
139.058475
 20
164.827747
 30
0.0
 10
139.865481
 20
162.724720
 30
0.0
  0
SPLINE
  5
26b
100
AcDbEntity
  8
0
 62
7
100
AcDbSpline
 70
8
 71
3
 72
8
 73
4
 74
0
 40
0
 40
0
 40
0
 40
0
 40
1
 40
1
 40
1
 40
1
 10
139.865481
 20
162.724720
 30
0.0
 10
140.180334
 20
161.904230
 30
0.0
 10
142.730666
 20
161.895258
 30
0.0
 10
145.767927
 20
162.703949
 30
0.0
  0
LWPOLYLINE
  5
26c
100
AcDbEntity
  8
0
 62
7
100
AcDbPolyline
 90
2
 70
1
 10
139.519719
 20
160.673512
 30
0.0
 10
139.519719
 20
160.673512
 30
0.0
  0
SPLINE
  5
26d
100
AcDbEntity
  8
0
 62
7
100
AcDbSpline
 70
8
 71
3
 72
8
 73
4
 74
0
 40
0
 40
0
 40
0
 40
0
 40
1
 40
1
 40
1
 40
1
 10
58.419187
 20
87.696631
 30
0.0
 10
59.418121
 20
88.800436
 30
0.0
 10
59.801966
 20
91.030090
 30
0.0
 10
59.189930
 20
92.173689
 30
0.0
  0
SPLINE
  5
26e
100
AcDbEntity
  8
0
 62
7
100
AcDbSpline
 70
8
 71
3
 72
8
 73
4
 74
0
 40
0
 40
0
 40
0
 40
0
 40
1
 40
1
 40
1
 40
1
 10
59.189930
 20
92.173689
 30
0.0
 10
58.804900
 20
92.893127
 30
0.0
 10
58.263183
 20
93.117923
 30
0.0
 10
56.914525
 20
93.117923
 30
0.0
  0
LWPOLYLINE
  5
26f
100
AcDbEntity
  8
0
 62
7
100
AcDbPolyline
 90
2
 70
1
 10
145.767927
 20
162.703949
 30
0.0
 10
145.767927
 20
162.703960
 30
0.0
  0
SPLINE
  5
270
100
AcDbEntity
  8
0
 62
7
100
AcDbSpline
 70
8
 71
3
 72
8
 73
4
 74
0
 40
0
 40
0
 40
0
 40
0
 40
1
 40
1
 40
1
 40
1
 10
55.875880
 20
94.786440
 30
0.0
 10
58.288600
 20
100.290324
 30
0.0
 10
58.140998
 20
101.143606
 30
0.0
 10
54.662053
 20
101.803498
 30
0.0
  0
SPLINE
  5
271
100
AcDbEntity
  8
0
 62
7
100
AcDbSpline
 70
8
 71
3
 72
8
 73
4
 74
0
 40
0
 40
0
 40
0
 40
0
 40
1
 40
1
 40
1
 40
1
 10
54.662053
 20
101.803498
 30
0.0
 10
51.627809
 20
102.379039
 30
0.0
 10
51.433360
 20
102.771170
 30
0.0
 10
50.474651
 20
110.248032
 30
0.0
  0
SPLINE
  5
272
100
AcDbEntity
  8
0
 62
7
100
AcDbSpline
 70
8
 71
3
 72
8
 73
4
 74
0
 40
0
 40
0
 40
0
 40
0
 40
1
 40
1
 40
1
 40
1
 10
50.474651
 20
110.248032
 30
0.0
 10
49.702988
 20
116.266142
 30
0.0
 10
48.934920
 20
118.910491
 30
0.0
 10
47.948861
 20
118.943988
 30
0.0
  0
SPLINE
  5
273
100
AcDbEntity
  8
0
 62
7
100
AcDbSpline
 70
8
 71
3
 72
8
 73
4
 74
0
 40
0
 40
0
 40
0
 40
0
 40
1
 40
1
 40
1
 40
1
 10
47.948861
 20
118.943988
 30
0.0
 10
47.630478
 20
118.954797
 30
0.0
 10
48.120816
 20
119.360031
 30
0.0
 10
49.038502
 20
119.844494
 30
0.0
  0
SPLINE
  5
274
100
AcDbEntity
  8
0
 62
7
100
AcDbSpline
 70
8
 71
3
 72
8
 73
4
 74
0
 40
0
 40
0
 40
0
 40
0
 40
1
 40
1
 40
1
 40
1
 10
49.038502
 20
119.844494
 30
0.0
 10
50.966771
 20
120.862464
 30
0.0
 10
51.094823
 20
121.319808
 30
0.0
 10
49.705909
 20
122.228174
 30
0.0
  0
SPLINE
  5
275
100
AcDbEntity
  8
0
 62
7
100
AcDbSpline
 70
8
 71
3
 72
8
 73
4
 74
0
 40
0
 40
0
 40
0
 40
0
 40
1
 40
1
 40
1
 40
1
 10
49.705909
 20
122.228174
 30
0.0
 10
46.802048
 20
124.127329
 30
0.0
 10
31.661935
 20
123.149751
 30
0.0
 10
23.120866
 20
120.511614
 30
0.0
  0
SPLINE
  5
276
100
AcDbEntity
  8
0
 62
7
100
AcDbSpline
 70
8
 71
3
 72
8
 73
4
 74
0
 40
0
 40
0
 40
0
 40
0
 40
1
 40
1
 40
1
 40
1
 10
23.120866
 20
120.511614
 30
0.0
 10
19.956724
 20
119.534284
 30
0.0
 10
18.671487
 20
119.319750
 30
0.0
 10
18.671487
 20
119.768923
 30
0.0
  0
SPLINE
  5
277
100
AcDbEntity
  8
0
 62
7
100
AcDbSpline
 70
8
 71
3
 72
8
 73
4
 74
0
 40
0
 40
0
 40
0
 40
0
 40
1
 40
1
 40
1
 40
1
 10
18.671487
 20
119.768923
 30
0.0
 10
18.671487
 20
120.624923
 30
0.0
 10
22.749888
 20
121.654148
 30
0.0
 10
32.909502
 20
123.362027
 30
0.0
  0
SPLINE
  5
278
100
AcDbEntity
  8
0
 62
7
100
AcDbSpline
 70
8
 71
3
 72
8
 73
4
 74
0
 40
0
 40
0
 40
0
 40
0
 40
1
 40
1
 40
1
 40
1
 10
32.909502
 20
123.362027
 30
0.0
 10
38.660324
 20
124.328768
 30
0.0
 10
44.852223
 20
125.627879
 30
0.0
 10
46.669274
 20
126.248940
 30
0.0
  0
SPLINE
  5
279
100
AcDbEntity
  8
0
 62
7
100
AcDbSpline
 70
8
 71
3
 72
8
 73
4
 74
0
 40
0
 40
0
 40
0
 40
0
 40
1
 40
1
 40
1
 40
1
 10
46.669274
 20
126.248940
 30
0.0
 10
50.323403
 20
127.497909
 30
0.0
 10
52.129851
 20
127.733127
 30
0.0
 10
51.240944
 20
126.844220
 30
0.0
  0
SPLINE
  5
27a
100
AcDbEntity
  8
0
 62
7
100
AcDbSpline
 70
8
 71
3
 72
8
 73
4
 74
0
 40
0
 40
0
 40
0
 40
0
 40
1
 40
1
 40
1
 40
1
 10
51.240944
 20
126.844220
 30
0.0
 10
50.438617
 20
126.041891
 30
0.0
 10
50.623004
 20
124.317665
 30
0.0
 10
51.802405
 20
121.593950
 30
0.0
  0
LWPOLYLINE
  5
27b
100
AcDbEntity
  8
0
 62
7
100
AcDbPolyline
 90
3
 70
1
 10
56.914525
 20
93.117923
 30
0.0
 10
55.144456
 20
93.117923
 30
0.0
 10
55.875880
 20
94.786440
 30
0.0
  0
SPLINE
  5
27c
100
AcDbEntity
  8
0
 62
7
100
AcDbSpline
 70
8
 71
3
 72
8
 73
4
 74
0
 40
0
 40
0
 40
0
 40
0
 40
1
 40
1
 40
1
 40
1
 10
51.732795
 20
118.758762
 30
0.0
 10
50.682364
 20
118.397823
 30
0.0
 10
50.622553
 20
118.226994
 30
0.0
 10
50.875986
 20
116.311605
 30
0.0
  0
SPLINE
  5
27d
100
AcDbEntity
  8
0
 62
7
100
AcDbSpline
 70
8
 71
3
 72
8
 73
4
 74
0
 40
0
 40
0
 40
0
 40
0
 40
1
 40
1
 40
1
 40
1
 10
50.875986
 20
116.311605
 30
0.0
 10
51.025834
 20
115.179084
 30
0.0
 10
51.348843
 20
112.450478
 30
0.0
 10
51.593784
 20
110.248032
 30
0.0
  0
SPLINE
  5
27e
100
AcDbEntity
  8
0
 62
7
100
AcDbSpline
 70
8
 71
3
 72
8
 73
4
 74
0
 40
0
 40
0
 40
0
 40
0
 40
1
 40
1
 40
1
 40
1
 10
51.593784
 20
110.248032
 30
0.0
 10
52.195933
 20
104.833644
 30
0.0
 10
52.401148
 20
104.011839
 30
0.0
 10
53.369980
 20
103.135059
 30
0.0
  0
SPLINE
  5
27f
100
AcDbEntity
  8
0
 62
7
100
AcDbSpline
 70
8
 71
3
 72
8
 73
4
 74
0
 40
0
 40
0
 40
0
 40
0
 40
1
 40
1
 40
1
 40
1
 10
53.369980
 20
103.135059
 30
0.0
 10
54.464537
 20
102.144498
 30
0.0
 10
55.959149
 20
102.626977
 30
0.0
 10
56.326182
 20
104.089354
 30
0.0
  0
SPLINE
  5
280
100
AcDbEntity
  8
0
 62
7
100
AcDbSpline
 70
8
 71
3
 72
8
 73
4
 74
0
 40
0
 40
0
 40
0
 40
0
 40
1
 40
1
 40
1
 40
1
 10
56.326182
 20
104.089354
 30
0.0
 10
56.481269
 20
104.707271
 30
0.0
 10
56.268118
 20
107.284947
 30
0.0
 10
55.852514
 20
109.817528
 30
0.0
  0
SPLINE
  5
281
100
AcDbEntity
  8
0
 62
7
100
AcDbSpline
 70
8
 71
3
 72
8
 73
4
 74
0
 40
0
 40
0
 40
0
 40
0
 40
1
 40
1
 40
1
 40
1
 10
55.852514
 20
109.817528
 30
0.0
 10
54.994452
 20
115.046310
 30
0.0
 10
55.217636
 20
116.001990
 30
0.0
 10
57.409204
 20
116.483340
 30
0.0
  0
SPLINE
  5
282
100
AcDbEntity
  8
0
 62
7
100
AcDbSpline
 70
8
 71
3
 72
8
 73
4
 74
0
 40
0
 40
0
 40
0
 40
0
 40
1
 40
1
 40
1
 40
1
 10
57.409204
 20
116.483340
 30
0.0
 10
59.212091
 20
116.879321
 30
0.0
 10
59.376409
 20
116.627369
 30
0.0
 10
58.464873
 20
114.864655
 30
0.0
  0
SPLINE
  5
283
100
AcDbEntity
  8
0
 62
7
100
AcDbSpline
 70
8
 71
3
 72
8
 73
4
 74
0
 40
0
 40
0
 40
0
 40
0
 40
1
 40
1
 40
1
 40
1
 10
58.464873
 20
114.864655
 30
0.0
 10
57.293693
 20
112.599844
 30
0.0
 10
57.092198
 20
106.230763
 30
0.0
 10
58.129791
 20
104.272999
 30
0.0
  0
SPLINE
  5
284
100
AcDbEntity
  8
0
 62
7
100
AcDbSpline
 70
8
 71
3
 72
8
 73
4
 74
0
 40
0
 40
0
 40
0
 40
0
 40
1
 40
1
 40
1
 40
1
 10
58.129791
 20
104.272999
 30
0.0
 10
59.723116
 20
101.266663
 30
0.0
 10
60.749663
 20
100.892078
 30
0.0
 10
67.092330
 20
101.002591
 30
0.0
  0
SPLINE
  5
285
100
AcDbEntity
  8
0
 62
7
100
AcDbSpline
 70
8
 71
3
 72
8
 73
4
 74
0
 40
0
 40
0
 40
0
 40
0
 40
1
 40
1
 40
1
 40
1
 10
67.092330
 20
101.002591
 30
0.0
 10
70.193845
 20
101.056630
 30
0.0
 10
73.332114
 20
101.275553
 30
0.0
 10
74.066262
 20
101.489082
 30
0.0
  0
SPLINE
  5
286
100
AcDbEntity
  8
0
 62
7
100
AcDbSpline
 70
8
 71
3
 72
8
 73
4
 74
0
 40
0
 40
0
 40
0
 40
0
 40
1
 40
1
 40
1
 40
1
 10
74.066262
 20
101.489082
 30
0.0
 10
75.286529
 20
101.844005
 30
0.0
 10
75.389091
 20
102.023233
 30
0.0
 10
75.261425
 20
103.577682
 30
0.0
  0
SPLINE
  5
287
100
AcDbEntity
  8
0
 62
7
100
AcDbSpline
 70
8
 71
3
 72
8
 73
4
 74
0
 40
0
 40
0
 40
0
 40
0
 40
1
 40
1
 40
1
 40
1
 10
75.261425
 20
103.577682
 30
0.0
 10
75.145209
 20
104.992710
 30
0.0
 10
71.556392
 20
117.583304
 30
0.0
 10
70.436018
 20
120.506584
 30
0.0
  0
SPLINE
  5
288
100
AcDbEntity
  8
0
 62
7
100
AcDbSpline
 70
8
 71
3
 72
8
 73
4
 74
0
 40
0
 40
0
 40
0
 40
0
 40
1
 40
1
 40
1
 40
1
 10
70.436018
 20
120.506584
 30
0.0
 10
70.253702
 20
120.982278
 30
0.0
 10
71.207348
 20
120.242241
 30
0.0
 10
72.555224
 20
118.862056
 30
0.0
  0
SPLINE
  5
289
100
AcDbEntity
  8
0
 62
7
100
AcDbSpline
 70
8
 71
3
 72
8
 73
4
 74
0
 40
0
 40
0
 40
0
 40
0
 40
1
 40
1
 40
1
 40
1
 10
72.555224
 20
118.862056
 30
0.0
 10
74.275275
 20
117.100775
 30
0.0
 10
75.698858
 20
116.106514
 30
0.0
 10
77.330187
 20
115.527118
 30
0.0
  0
SPLINE
  5
28a
100
AcDbEntity
  8
0
 62
7
100
AcDbSpline
 70
8
 71
3
 72
8
 73
4
 74
0
 40
0
 40
0
 40
0
 40
0
 40
1
 40
1
 40
1
 40
1
 10
77.330187
 20
115.527118
 30
0.0
 10
78.897886
 20
114.970319
 30
0.0
 10
80.091472
 20
114.157806
 30
0.0
 10
80.997004
 20
113.030995
 30
0.0
  0
LWPOLYLINE
  5
28b
100
AcDbEntity
  8
0
 62
7
100
AcDbPolyline
 90
3
 70
1
 10
51.802405
 20
121.593950
 30
0.0
 10
52.862057
 20
119.146793
 30
0.0
 10
51.732795
 20
118.758762
 30
0.0
  0
SPLINE
  5
28c
100
AcDbEntity
  8
0
 62
7
100
AcDbSpline
 70
8
 71
3
 72
8
 73
4
 74
0
 40
0
 40
0
 40
0
 40
0
 40
1
 40
1
 40
1
 40
1
 10
81.039708
 20
111.360377
 30
0.0
 10
80.324793
 20
111.360377
 30
0.0
 10
78.872661
 20
111.666346
 30
0.0
 10
77.812750
 20
112.040304
 30
0.0
  0
SPLINE
  5
28d
100
AcDbEntity
  8
0
 62
7
100
AcDbSpline
 70
8
 71
3
 72
8
 73
4
 74
0
 40
0
 40
0
 40
0
 40
0
 40
1
 40
1
 40
1
 40
1
 10
77.812750
 20
112.040304
 30
0.0
 10
75.421569
 20
112.883963
 30
0.0
 10
74.733666
 20
112.644621
 30
0.0
 10
74.733666
 20
110.968997
 30
0.0
  0
SPLINE
  5
28e
100
AcDbEntity
  8
0
 62
7
100
AcDbSpline
 70
8
 71
3
 72
8
 73
4
 74
0
 40
0
 40
0
 40
0
 40
0
 40
1
 40
1
 40
1
 40
1
 10
74.733666
 20
110.968997
 30
0.0
 10
74.733666
 20
107.473130
 30
0.0
 10
78.347593
 20
101.571745
 30
0.0
 10
80.488415
 20
101.571745
 30
0.0
  0
SPLINE
  5
28f
100
AcDbEntity
  8
0
 62
7
100
AcDbSpline
 70
8
 71
3
 72
8
 73
4
 74
0
 40
0
 40
0
 40
0
 40
0
 40
1
 40
1
 40
1
 40
1
 10
80.488415
 20
101.571745
 30
0.0
 10
82.674418
 20
101.571745
 30
0.0
 10
83.643002
 20
102.862108
 30
0.0
 10
84.329222
 20
106.688530
 30
0.0
  0
LWPOLYLINE
  5
290
100
AcDbEntity
  8
0
 62
7
100
AcDbPolyline
 90
3
 70
1
 10
80.997004
 20
113.030995
 30
0.0
 10
82.339547
 20
111.360377
 30
0.0
 10
81.039708
 20
111.360377
 30
0.0
  0
SPLINE
  5
291
100
AcDbEntity
  8
0
 62
7
100
AcDbSpline
 70
8
 71
3
 72
8
 73
4
 74
0
 40
0
 40
0
 40
0
 40
0
 40
1
 40
1
 40
1
 40
1
 10
85.214502
 20
105.520170
 30
0.0
 10
85.896038
 20
101.970918
 30
0.0
 10
86.627527
 20
100.681868
 30
0.0
 10
87.960053
 20
100.681868
 30
0.0
  0
SPLINE
  5
292
100
AcDbEntity
  8
0
 62
7
100
AcDbSpline
 70
8
 71
3
 72
8
 73
4
 74
0
 40
0
 40
0
 40
0
 40
0
 40
1
 40
1
 40
1
 40
1
 10
87.960053
 20
100.681868
 30
0.0
 10
89.370521
 20
100.681868
 30
0.0
 10
91.033916
 20
103.423380
 30
0.0
 10
91.604561
 20
106.688530
 30
0.0
  0
SPLINE
  5
293
100
AcDbEntity
  8
0
 62
7
100
AcDbSpline
 70
8
 71
3
 72
8
 73
4
 74
0
 40
0
 40
0
 40
0
 40
0
 40
1
 40
1
 40
1
 40
1
 10
91.604561
 20
106.688530
 30
0.0
 10
92.199327
 20
110.091704
 30
0.0
 10
92.973635
 20
120.335662
 30
0.0
 10
92.975043
 20
124.819753
 30
0.0
  0
LWPOLYLINE
  5
294
100
AcDbEntity
  8
0
 62
7
100
AcDbPolyline
 90
3
 70
1
 10
84.329222
 20
106.688530
 30
0.0
 10
84.648398
 20
108.468283
 30
0.0
 10
85.214502
 20
105.520170
 30
0.0
  0
SPLINE
  5
295
100
AcDbEntity
  8
0
 62
7
100
AcDbSpline
 70
8
 71
3
 72
8
 73
4
 74
0
 40
0
 40
0
 40
0
 40
0
 40
1
 40
1
 40
1
 40
1
 10
87.748150
 20
128.260795
 30
0.0
 10
80.887751
 20
128.251284
 30
0.0
 10
72.998426
 20
127.582068
 30
0.0
 10
71.454634
 20
126.878668
 30
0.0
  0
SPLINE
  5
296
100
AcDbEntity
  8
0
 62
7
100
AcDbSpline
 70
8
 71
3
 72
8
 73
4
 74
0
 40
0
 40
0
 40
0
 40
0
 40
1
 40
1
 40
1
 40
1
 10
71.454634
 20
126.878668
 30
0.0
 10
70.777433
 20
126.570115
 30
0.0
 10
69.973086
 20
125.839995
 30
0.0
 10
69.667191
 20
125.256178
 30
0.0
  0
SPLINE
  5
297
100
AcDbEntity
  8
0
 62
7
100
AcDbSpline
 70
8
 71
3
 72
8
 73
4
 74
0
 40
0
 40
0
 40
0
 40
0
 40
1
 40
1
 40
1
 40
1
 10
69.667191
 20
125.256178
 30
0.0
 10
69.118322
 20
124.208629
 30
0.0
 10
69.103883
 20
124.218512
 30
0.0
 10
68.567472
 20
126.008896
 30
0.0
  0
LWPOLYLINE
  5
298
100
AcDbEntity
  8
0
 62
7
100
AcDbPolyline
 90
3
 70
1
 10
92.975043
 20
124.819753
 30
0.0
 10
92.976172
 20
128.268020
 30
0.0
 10
87.748150
 20
128.260795
 30
0.0
  0
SPLINE
  5
299
100
AcDbEntity
  8
0
 62
7
100
AcDbSpline
 70
8
 71
3
 72
8
 73
4
 74
0
 40
0
 40
0
 40
0
 40
0
 40
1
 40
1
 40
1
 40
1
 10
63.481173
 20
127.858222
 30
0.0
 10
54.567108
 20
127.927152
 30
0.0
 10
61.058702
 20
128.655565
 30
0.0
 10
76.958404
 20
129.370490
 30
0.0
  0
SPLINE
  5
29a
100
AcDbEntity
  8
0
 62
7
100
AcDbSpline
 70
8
 71
3
 72
8
 73
4
 74
0
 40
0
 40
0
 40
0
 40
0
 40
1
 40
1
 40
1
 40
1
 10
76.958404
 20
129.370490
 30
0.0
 10
92.031416
 20
130.048241
 30
0.0
 10
100.811852
 20
130.625769
 30
0.0
 10
104.826898
 20
131.203521
 30
0.0
  0
SPLINE
  5
29b
100
AcDbEntity
  8
0
 62
7
100
AcDbSpline
 70
8
 71
3
 72
8
 73
4
 74
0
 40
0
 40
0
 40
0
 40
0
 40
1
 40
1
 40
1
 40
1
 10
104.826898
 20
131.203521
 30
0.0
 10
106.642617
 20
131.464796
 30
0.0
 10
108.899576
 20
132.997133
 30
0.0
 10
116.381211
 20
139.048189
 30
0.0
  0
LWPOLYLINE
  5
29c
100
AcDbEntity
  8
0
 62
7
100
AcDbPolyline
 90
3
 70
1
 10
68.567472
 20
126.008896
 30
0.0
 10
68.023926
 20
127.823097
 30
0.0
 10
63.481173
 20
127.858222
 30
0.0
  0
SPLINE
  5
29d
100
AcDbEntity
  8
0
 62
7
100
AcDbSpline
 70
8
 71
3
 72
8
 73
4
 74
0
 40
0
 40
0
 40
0
 40
0
 40
1
 40
1
 40
1
 40
1
 10
120.391561
 20
139.786305
 30
0.0
 10
122.074085
 20
138.155540
 30
0.0
 10
123.552196
 20
135.558972
 30
0.0
 10
123.071582
 20
135.078361
 30
0.0
  0
SPLINE
  5
29e
100
AcDbEntity
  8
0
 62
7
100
AcDbSpline
 70
8
 71
3
 72
8
 73
4
 74
0
 40
0
 40
0
 40
0
 40
0
 40
1
 40
1
 40
1
 40
1
 10
123.071582
 20
135.078361
 30
0.0
 10
122.882488
 20
134.889264
 30
0.0
 10
122.023717
 20
135.582139
 30
0.0
 10
121.163207
 20
136.618078
 30
0.0
  0
SPLINE
  5
29f
100
AcDbEntity
  8
0
 62
7
100
AcDbSpline
 70
8
 71
3
 72
8
 73
4
 74
0
 40
0
 40
0
 40
0
 40
0
 40
1
 40
1
 40
1
 40
1
 10
121.163207
 20
136.618078
 30
0.0
 10
119.188030
 20
138.995933
 30
0.0
 10
117.883294
 20
139.087884
 30
0.0
 10
115.903556
 20
136.988752
 30
0.0
  0
SPLINE
  5
2a0
100
AcDbEntity
  8
0
 62
7
100
AcDbSpline
 70
8
 71
3
 72
8
 73
4
 74
0
 40
0
 40
0
 40
0
 40
0
 40
1
 40
1
 40
1
 40
1
 10
115.903556
 20
136.988752
 30
0.0
 10
114.184357
 20
135.165870
 30
0.0
 10
112.900166
 20
132.601190
 30
0.0
 10
113.250054
 20
131.689397
 30
0.0
  0
SPLINE
  5
2a1
100
AcDbEntity
  8
0
 62
7
100
AcDbSpline
 70
8
 71
3
 72
8
 73
4
 74
0
 40
0
 40
0
 40
0
 40
0
 40
1
 40
1
 40
1
 40
1
 10
113.250054
 20
131.689397
 30
0.0
 10
113.390254
 20
131.324052
 30
0.0
 10
114.164847
 20
130.901337
 30
0.0
 10
114.971376
 20
130.750032
 30
0.0
  0
LWPOLYLINE
  5
2a2
100
AcDbEntity
  8
0
 62
7
100
AcDbPolyline
 90
3
 70
1
 10
116.381211
 20
139.048189
 30
0.0
 10
118.982465
 20
141.152054
 30
0.0
 10
120.391561
 20
139.786305
 30
0.0
  0
SPLINE
  5
2a3
100
AcDbEntity
  8
0
 62
7
100
AcDbSpline
 70
8
 71
3
 72
8
 73
4
 74
0
 40
0
 40
0
 40
0
 40
0
 40
1
 40
1
 40
1
 40
1
 10
116.215583
 20
127.369261
 30
0.0
 10
116.007696
 20
124.463746
 30
0.0
 10
116.052095
 20
124.263594
 30
0.0
 10
116.904485
 20
124.263594
 30
0.0
  0
SPLINE
  5
2a4
100
AcDbEntity
  8
0
 62
7
100
AcDbSpline
 70
8
 71
3
 72
8
 73
4
 74
0
 40
0
 40
0
 40
0
 40
0
 40
1
 40
1
 40
1
 40
1
 10
116.904485
 20
124.263594
 30
0.0
 10
118.203334
 20
124.263594
 30
0.0
 10
124.060630
 20
130.704292
 30
0.0
 10
127.519831
 20
135.936260
 30
0.0
  0
SPLINE
  5
2a5
100
AcDbEntity
  8
0
 62
7
100
AcDbSpline
 70
8
 71
3
 72
8
 73
4
 74
0
 40
0
 40
0
 40
0
 40
0
 40
1
 40
1
 40
1
 40
1
 10
127.519831
 20
135.936260
 30
0.0
 10
130.681072
 20
140.717565
 30
0.0
 10
131.359165
 20
141.293214
 30
0.0
 10
133.020587
 20
140.605949
 30
0.0
  0
SPLINE
  5
2a6
100
AcDbEntity
  8
0
 62
7
100
AcDbSpline
 70
8
 71
3
 72
8
 73
4
 74
0
 40
0
 40
0
 40
0
 40
0
 40
1
 40
1
 40
1
 40
1
 10
133.020587
 20
140.605949
 30
0.0
 10
134.043062
 20
140.182988
 30
0.0
 10
134.061039
 20
140.129603
 30
0.0
 10
133.243055
 20
139.945182
 30
0.0
  0
SPLINE
  5
2a7
100
AcDbEntity
  8
0
 62
7
100
AcDbSpline
 70
8
 71
3
 72
8
 73
4
 74
0
 40
0
 40
0
 40
0
 40
0
 40
1
 40
1
 40
1
 40
1
 10
133.243055
 20
139.945182
 30
0.0
 10
131.722041
 20
139.602256
 30
0.0
 10
130.713582
 20
138.396397
 30
0.0
 10
129.162423
 20
135.065769
 30
0.0
  0
SPLINE
  5
2a8
100
AcDbEntity
  8
0
 62
7
100
AcDbSpline
 70
8
 71
3
 72
8
 73
4
 74
0
 40
0
 40
0
 40
0
 40
0
 40
1
 40
1
 40
1
 40
1
 10
129.162423
 20
135.065769
 30
0.0
 10
127.910330
 20
132.377303
 30
0.0
 10
127.299570
 20
131.614154
 30
0.0
 10
125.423447
 20
130.393918
 30
0.0
  0
SPLINE
  5
2a9
100
AcDbEntity
  8
0
 62
7
100
AcDbSpline
 70
8
 71
3
 72
8
 73
4
 74
0
 40
0
 40
0
 40
0
 40
0
 40
1
 40
1
 40
1
 40
1
 10
125.423447
 20
130.393918
 30
0.0
 10
123.059444
 20
128.856363
 30
0.0
 10
120.458261
 20
125.497428
 30
0.0
 10
120.847025
 20
124.484332
 30
0.0
  0
SPLINE
  5
2aa
100
AcDbEntity
  8
0
 62
7
100
AcDbSpline
 70
8
 71
3
 72
8
 73
4
 74
0
 40
0
 40
0
 40
0
 40
0
 40
1
 40
1
 40
1
 40
1
 10
120.847025
 20
124.484332
 30
0.0
 10
120.973494
 20
124.154753
 30
0.0
 10
121.912230
 20
123.738424
 30
0.0
 10
122.933104
 20
123.559156
 30
0.0
  0
SPLINE
  5
2ab
100
AcDbEntity
  8
0
 62
7
100
AcDbSpline
 70
8
 71
3
 72
8
 73
4
 74
0
 40
0
 40
0
 40
0
 40
0
 40
1
 40
1
 40
1
 40
1
 10
122.933104
 20
123.559156
 30
0.0
 10
125.906513
 20
123.037023
 30
0.0
 10
137.192382
 20
123.193848
 30
0.0
 10
138.273265
 20
123.772322
 30
0.0
  0
SPLINE
  5
2ac
100
AcDbEntity
  8
0
 62
7
100
AcDbSpline
 70
8
 71
3
 72
8
 73
4
 74
0
 40
0
 40
0
 40
0
 40
0
 40
1
 40
1
 40
1
 40
1
 10
138.273265
 20
123.772322
 30
0.0
 10
140.379941
 20
124.899780
 30
0.0
 10
140.577042
 20
127.278216
 30
0.0
 10
138.637052
 20
128.162136
 30
0.0
  0
SPLINE
  5
2ad
100
AcDbEntity
  8
0
 62
7
100
AcDbSpline
 70
8
 71
3
 72
8
 73
4
 74
0
 40
0
 40
0
 40
0
 40
0
 40
1
 40
1
 40
1
 40
1
 10
138.637052
 20
128.162136
 30
0.0
 10
138.006418
 20
128.449469
 30
0.0
 10
137.489875
 20
129.169593
 30
0.0
 10
137.325743
 20
129.990250
 30
0.0
  0
SPLINE
  5
2ae
100
AcDbEntity
  8
0
 62
7
100
AcDbSpline
 70
8
 71
3
 72
8
 73
4
 74
0
 40
0
 40
0
 40
0
 40
0
 40
1
 40
1
 40
1
 40
1
 10
137.325743
 20
129.990250
 30
0.0
 10
137.144582
 20
130.896068
 30
0.0
 10
136.607423
 20
131.575701
 30
0.0
 10
135.703014
 20
132.043389
 30
0.0
  0
SPLINE
  5
2af
100
AcDbEntity
  8
0
 62
7
100
AcDbSpline
 70
8
 71
3
 72
8
 73
4
 74
0
 40
0
 40
0
 40
0
 40
0
 40
1
 40
1
 40
1
 40
1
 10
135.703014
 20
132.043389
 30
0.0
 10
134.362653
 20
132.736515
 30
0.0
 10
134.351948
 20
132.771152
 30
0.0
 10
134.451017
 20
136.093563
 30
0.0
  0
SPLINE
  5
2b0
100
AcDbEntity
  8
0
 62
7
100
AcDbSpline
 70
8
 71
3
 72
8
 73
4
 74
0
 40
0
 40
0
 40
0
 40
0
 40
1
 40
1
 40
1
 40
1
 10
134.451017
 20
136.093563
 30
0.0
 10
134.539225
 20
139.051551
 30
0.0
 10
134.623305
 20
139.350178
 30
0.0
 10
135.167807
 20
138.639416
 30
0.0
  0
SPLINE
  5
2b1
100
AcDbEntity
  8
0
 62
7
100
AcDbSpline
 70
8
 71
3
 72
8
 73
4
 74
0
 40
0
 40
0
 40
0
 40
0
 40
1
 40
1
 40
1
 40
1
 10
135.167807
 20
138.639416
 30
0.0
 10
136.444567
 20
136.972809
 30
0.0
 10
139.151670
 20
130.910571
 30
0.0
 10
141.053069
 20
125.460087
 30
0.0
  0
LWPOLYLINE
  5
2b2
100
AcDbEntity
  8
0
 62
7
100
AcDbPolyline
 90
3
 70
1
 10
114.971376
 20
130.750032
 30
0.0
 10
116.437794
 20
130.474930
 30
0.0
 10
116.215583
 20
127.369261
 30
0.0
  0
SPLINE
  5
2b3
100
AcDbEntity
  8
0
 62
7
100
AcDbSpline
 70
8
 71
3
 72
8
 73
4
 74
0
 40
0
 40
0
 40
0
 40
0
 40
1
 40
1
 40
1
 40
1
 10
147.142838
 20
119.814214
 30
0.0
 10
150.144364
 20
119.814214
 30
0.0
 10
151.262026
 20
119.663209
 30
0.0
 10
151.259309
 20
119.258042
 30
0.0
  0
SPLINE
  5
2b4
100
AcDbEntity
  8
0
 62
7
100
AcDbSpline
 70
8
 71
3
 72
8
 73
4
 74
0
 40
0
 40
0
 40
0
 40
0
 40
1
 40
1
 40
1
 40
1
 10
151.259309
 20
119.258042
 30
0.0
 10
151.257051
 20
118.952147
 30
0.0
 10
150.268192
 20
115.466098
 30
0.0
 10
149.061387
 20
111.511268
 30
0.0
  0
SPLINE
  5
2b5
100
AcDbEntity
  8
0
 62
7
100
AcDbSpline
 70
8
 71
3
 72
8
 73
4
 74
0
 40
0
 40
0
 40
0
 40
0
 40
1
 40
1
 40
1
 40
1
 10
149.061387
 20
111.511268
 30
0.0
 10
146.652680
 20
103.617673
 30
0.0
 10
145.729367
 20
99.325756
 30
0.0
 10
146.152876
 20
97.991392
 30
0.0
  0
SPLINE
  5
2b6
100
AcDbEntity
  8
0
 62
7
100
AcDbSpline
 70
8
 71
3
 72
8
 73
4
 74
0
 40
0
 40
0
 40
0
 40
0
 40
1
 40
1
 40
1
 40
1
 10
146.152876
 20
97.991392
 30
0.0
 10
146.404471
 20
97.198687
 30
0.0
 10
146.205908
 20
97.122379
 30
0.0
 10
143.891545
 20
97.122379
 30
0.0
  0
LWPOLYLINE
  5
2b7
100
AcDbEntity
  8
0
 62
7
100
AcDbPolyline
 90
3
 70
1
 10
141.053069
 20
125.460087
 30
0.0
 10
143.022628
 20
119.814214
 30
0.0
 10
147.142838
 20
119.814214
 30
0.0
  0
SPLINE
  5
2b8
100
AcDbEntity
  8
0
 62
7
100
AcDbSpline
 70
8
 71
3
 72
8
 73
4
 74
0
 40
0
 40
0
 40
0
 40
0
 40
1
 40
1
 40
1
 40
1
 10
142.455234
 20
97.988293
 30
0.0
 10
143.816191
 20
99.058824
 30
0.0
 10
145.506146
 20
102.766606
 30
0.0
 10
147.021132
 20
108.005949
 30
0.0
  0
SPLINE
  5
2b9
100
AcDbEntity
  8
0
 62
7
100
AcDbSpline
 70
8
 71
3
 72
8
 73
4
 74
0
 40
0
 40
0
 40
0
 40
0
 40
1
 40
1
 40
1
 40
1
 10
147.021132
 20
108.005949
 30
0.0
 10
148.466878
 20
113.005826
 30
0.0
 10
148.681561
 20
115.934759
 30
0.0
 10
147.618396
 20
116.154424
 30
0.0
  0
SPLINE
  5
2ba
100
AcDbEntity
  8
0
 62
7
100
AcDbSpline
 70
8
 71
3
 72
8
 73
4
 74
0
 40
0
 40
0
 40
0
 40
0
 40
1
 40
1
 40
1
 40
1
 10
147.618396
 20
116.154424
 30
0.0
 10
147.078232
 20
116.266029
 30
0.0
 10
146.535434
 20
115.611474
 30
0.0
 10
145.695097
 20
113.835150
 30
0.0
  0
SPLINE
  5
2bb
100
AcDbEntity
  8
0
 62
7
100
AcDbSpline
 70
8
 71
3
 72
8
 73
4
 74
0
 40
0
 40
0
 40
0
 40
0
 40
1
 40
1
 40
1
 40
1
 10
145.695097
 20
113.835150
 30
0.0
 10
145.051187
 20
112.474035
 30
0.0
 10
144.338669
 20
111.360392
 30
0.0
 10
144.111723
 20
111.360392
 30
0.0
  0
SPLINE
  5
2bc
100
AcDbEntity
  8
0
 62
7
100
AcDbSpline
 70
8
 71
3
 72
8
 73
4
 74
0
 40
0
 40
0
 40
0
 40
0
 40
1
 40
1
 40
1
 40
1
 10
144.111723
 20
111.360392
 30
0.0
 10
143.438888
 20
111.360392
 30
0.0
 10
143.637313
 20
112.202737
 30
0.0
 10
144.624778
 20
113.538348
 30
0.0
  0
SPLINE
  5
2bd
100
AcDbEntity
  8
0
 62
7
100
AcDbSpline
 70
8
 71
3
 72
8
 73
4
 74
0
 40
0
 40
0
 40
0
 40
0
 40
1
 40
1
 40
1
 40
1
 10
144.624778
 20
113.538348
 30
0.0
 10
145.197028
 20
114.312365
 30
0.0
 10
145.494316
 20
115.282279
 30
0.0
 10
145.403418
 20
116.078724
 30
0.0
  0
SPLINE
  5
2be
100
AcDbEntity
  8
0
 62
7
100
AcDbSpline
 70
8
 71
3
 72
8
 73
4
 74
0
 40
0
 40
0
 40
0
 40
0
 40
1
 40
1
 40
1
 40
1
 10
145.403418
 20
116.078724
 30
0.0
 10
145.284918
 20
117.117002
 30
0.0
 10
145.013316
 20
117.394918
 30
0.0
 10
144.004038
 20
117.510618
 30
0.0
  0
SPLINE
  5
2bf
100
AcDbEntity
  8
0
 62
7
100
AcDbSpline
 70
8
 71
3
 72
8
 73
4
 74
0
 40
0
 40
0
 40
0
 40
0
 40
1
 40
1
 40
1
 40
1
 10
144.004038
 20
117.510618
 30
0.0
 10
140.132974
 20
117.954384
 30
0.0
 10
138.362450
 20
112.205870
 30
0.0
 10
141.296311
 20
108.719175
 30
0.0
  0
SPLINE
  5
2c0
100
AcDbEntity
  8
0
 62
7
100
AcDbSpline
 70
8
 71
3
 72
8
 73
4
 74
0
 40
0
 40
0
 40
0
 40
0
 40
1
 40
1
 40
1
 40
1
 10
141.296311
 20
108.719175
 30
0.0
 10
142.618519
 20
107.147816
 30
0.0
 10
143.376625
 20
104.826140
 30
0.0
 10
142.865647
 20
103.913083
 30
0.0
  0
SPLINE
  5
2c1
100
AcDbEntity
  8
0
 62
7
100
AcDbSpline
 70
8
 71
3
 72
8
 73
4
 74
0
 40
0
 40
0
 40
0
 40
0
 40
1
 40
1
 40
1
 40
1
 10
142.865647
 20
103.913083
 30
0.0
 10
142.588629
 20
103.418080
 30
0.0
 10
142.114812
 20
103.794604
 30
0.0
 10
140.854907
 20
105.510941
 30
0.0
  0
SPLINE
  5
2c2
100
AcDbEntity
  8
0
 62
7
100
AcDbSpline
 70
8
 71
3
 72
8
 73
4
 74
0
 40
0
 40
0
 40
0
 40
0
 40
1
 40
1
 40
1
 40
1
 10
140.854907
 20
105.510941
 30
0.0
 10
138.828173
 20
108.271898
 30
0.0
 10
137.929524
 20
108.189210
 30
0.0
 10
138.370677
 20
105.282355
 30
0.0
  0
SPLINE
  5
2c3
100
AcDbEntity
  8
0
 62
7
100
AcDbSpline
 70
8
 71
3
 72
8
 73
4
 74
0
 40
0
 40
0
 40
0
 40
0
 40
1
 40
1
 40
1
 40
1
 10
138.370677
 20
105.282355
 30
0.0
 10
138.669006
 20
103.316573
 30
0.0
 10
138.628789
 20
103.217662
 30
0.0
 10
137.184844
 20
102.365715
 30
0.0
  0
SPLINE
  5
2c4
100
AcDbEntity
  8
0
 62
7
100
AcDbSpline
 70
8
 71
3
 72
8
 73
4
 74
0
 40
0
 40
0
 40
0
 40
0
 40
1
 40
1
 40
1
 40
1
 10
137.184844
 20
102.365715
 30
0.0
 10
135.464776
 20
101.350850
 30
0.0
 10
135.342627
 20
100.590010
 30
0.0
 10
136.575213
 20
98.568427
 30
0.0
  0
LWPOLYLINE
  5
2c5
100
AcDbEntity
  8
0
 62
7
100
AcDbPolyline
 90
3
 70
1
 10
143.891545
 20
97.122379
 30
0.0
 10
141.354398
 20
97.122379
 30
0.0
 10
142.455234
 20
97.988293
 30
0.0
  0
SPLINE
  5
2c6
100
AcDbEntity
  8
0
 62
7
100
AcDbSpline
 70
8
 71
3
 72
8
 73
4
 74
0
 40
0
 40
0
 40
0
 40
0
 40
1
 40
1
 40
1
 40
1
 10
133.347748
 20
97.180534
 30
0.0
 10
131.087726
 20
97.212518
 30
0.0
 10
127.736947
 20
97.380367
 30
0.0
 10
125.901580
 20
97.553527
 30
0.0
  0
SPLINE
  5
2c7
100
AcDbEntity
  8
0
 62
7
100
AcDbSpline
 70
8
 71
3
 72
8
 73
4
 74
0
 40
0
 40
0
 40
0
 40
0
 40
1
 40
1
 40
1
 40
1
 10
125.901580
 20
97.553527
 30
0.0
 10
122.815993
 20
97.844645
 30
0.0
 10
123.001171
 20
97.873787
 30
0.0
 10
128.359146
 20
97.940310
 30
0.0
  0
LWPOLYLINE
  5
2c8
100
AcDbEntity
  8
0
 62
7
100
AcDbPolyline
 90
3
 70
1
 10
136.575213
 20
98.568427
 30
0.0
 10
137.456884
 20
97.122379
 30
0.0
 10
133.347748
 20
97.180534
 30
0.0
  0
SPLINE
  5
2c9
100
AcDbEntity
  8
0
 62
7
100
AcDbSpline
 70
8
 71
3
 72
8
 73
4
 74
0
 40
0
 40
0
 40
0
 40
0
 40
1
 40
1
 40
1
 40
1
 10
136.487543
 20
105.059764
 30
0.0
 10
140.167504
 20
116.172374
 30
0.0
 10
140.569002
 20
119.055279
 30
0.0
 10
138.657621
 20
120.641588
 30
0.0
  0
SPLINE
  5
2ca
100
AcDbEntity
  8
0
 62
7
100
AcDbSpline
 70
8
 71
3
 72
8
 73
4
 74
0
 40
0
 40
0
 40
0
 40
0
 40
1
 40
1
 40
1
 40
1
 10
138.657621
 20
120.641588
 30
0.0
 10
137.733134
 20
121.408843
 30
0.0
 10
127.693530
 20
122.107806
 30
0.0
 10
119.925203
 20
121.945748
 30
0.0
  0
LWPOLYLINE
  5
2cb
100
AcDbEntity
  8
0
 62
7
100
AcDbPolyline
 90
3
 70
1
 10
128.359146
 20
97.940310
 30
0.0
 10
134.153749
 20
98.012254
 30
0.0
 10
136.487543
 20
105.059764
 30
0.0
  0
SPLINE
  5
2cc
100
AcDbEntity
  8
0
 62
7
100
AcDbSpline
 70
8
 71
3
 72
8
 73
4
 74
0
 40
0
 40
0
 40
0
 40
0
 40
1
 40
1
 40
1
 40
1
 10
111.615601
 20
113.807552
 30
0.0
 10
110.454683
 20
109.402667
 30
0.0
 10
109.489999
 20
106.138518
 30
0.0
 10
109.471858
 20
106.553888
 30
0.0
  0
SPLINE
  5
2cd
100
AcDbEntity
  8
0
 62
7
100
AcDbSpline
 70
8
 71
3
 72
8
 73
4
 74
0
 40
0
 40
0
 40
0
 40
0
 40
1
 40
1
 40
1
 40
1
 10
109.471858
 20
106.553888
 30
0.0
 10
109.453711
 20
106.969259
 30
0.0
 10
110.218514
 20
110.473144
 30
0.0
 10
111.171406
 20
114.340303
 30
0.0
  0
SPLINE
  5
2ce
100
AcDbEntity
  8
0
 62
7
100
AcDbSpline
 70
8
 71
3
 72
8
 73
4
 74
0
 40
0
 40
0
 40
0
 40
0
 40
1
 40
1
 40
1
 40
1
 10
111.171406
 20
114.340303
 30
0.0
 10
113.616819
 20
124.264619
 30
0.0
 10
114.208566
 20
128.013371
 30
0.0
 10
113.470165
 20
128.903091
 30
0.0
  0
SPLINE
  5
2cf
100
AcDbEntity
  8
0
 62
7
100
AcDbSpline
 70
8
 71
3
 72
8
 73
4
 74
0
 40
0
 40
0
 40
0
 40
0
 40
1
 40
1
 40
1
 40
1
 10
113.470165
 20
128.903091
 30
0.0
 10
112.519604
 20
130.048447
 30
0.0
 10
104.881959
 20
129.687141
 30
0.0
 10
94.867157
 20
128.023054
 30
0.0
  0
LWPOLYLINE
  5
2d0
100
AcDbEntity
  8
0
 62
7
100
AcDbPolyline
 90
3
 70
1
 10
119.925203
 20
121.945748
 30
0.0
 10
113.726355
 20
121.816434
 30
0.0
 10
111.615601
 20
113.807552
 30
0.0
  0
SPLINE
  5
2d1
100
AcDbEntity
  8
0
 62
7
100
AcDbSpline
 70
8
 71
3
 72
8
 73
4
 74
0
 40
0
 40
0
 40
0
 40
0
 40
1
 40
1
 40
1
 40
1
 10
96.869377
 20
99.885919
 30
0.0
 10
94.728115
 20
99.815211
 30
0.0
 10
92.976172
 20
99.656249
 30
0.0
 10
92.976172
 20
99.532670
 30
0.0
  0
SPLINE
  5
2d2
100
AcDbEntity
  8
0
 62
7
100
AcDbSpline
 70
8
 71
3
 72
8
 73
4
 74
0
 40
0
 40
0
 40
0
 40
0
 40
1
 40
1
 40
1
 40
1
 10
92.976172
 20
99.532670
 30
0.0
 10
92.976172
 20
99.409088
 30
0.0
 10
94.600387
 20
97.003287
 30
0.0
 10
96.585535
 20
94.186441
 30
0.0
  0
SPLINE
  5
2d3
100
AcDbEntity
  8
0
 62
7
100
AcDbSpline
 70
8
 71
3
 72
8
 73
4
 74
0
 40
0
 40
0
 40
0
 40
0
 40
1
 40
1
 40
1
 40
1
 10
96.585535
 20
94.186441
 30
0.0
 10
98.570683
 20
91.369593
 30
0.0
 10
100.109963
 20
88.979969
 30
0.0
 10
100.006158
 20
88.876162
 30
0.0
  0
SPLINE
  5
2d4
100
AcDbEntity
  8
0
 62
7
100
AcDbSpline
 70
8
 71
3
 72
8
 73
4
 74
0
 40
0
 40
0
 40
0
 40
0
 40
1
 40
1
 40
1
 40
1
 10
100.006158
 20
88.876162
 30
0.0
 10
99.902351
 20
88.772352
 30
0.0
 10
98.328192
 20
90.586993
 30
0.0
 10
96.508031
 20
92.908691
 30
0.0
  0
SPLINE
  5
2d5
100
AcDbEntity
  8
0
 62
7
100
AcDbSpline
 70
8
 71
3
 72
8
 73
4
 74
0
 40
0
 40
0
 40
0
 40
0
 40
1
 40
1
 40
1
 40
1
 10
96.508031
 20
92.908691
 30
0.0
 10
92.558416
 20
97.946601
 30
0.0
 10
90.292916
 20
99.340897
 30
0.0
 10
85.506238
 20
99.679719
 30
0.0
  0
SPLINE
  5
2d6
100
AcDbEntity
  8
0
 62
7
100
AcDbSpline
 70
8
 71
3
 72
8
 73
4
 74
0
 40
0
 40
0
 40
0
 40
0
 40
1
 40
1
 40
1
 40
1
 10
85.506238
 20
99.679719
 30
0.0
 10
80.897072
 20
100.005974
 30
0.0
 10
78.958313
 20
99.292502
 30
0.0
 10
75.957295
 20
96.165660
 30
0.0
  0
SPLINE
  5
2d7
100
AcDbEntity
  8
0
 62
7
100
AcDbSpline
 70
8
 71
3
 72
8
 73
4
 74
0
 40
0
 40
0
 40
0
 40
0
 40
1
 40
1
 40
1
 40
1
 10
75.957295
 20
96.165660
 30
0.0
 10
73.087442
 20
93.175476
 30
0.0
 10
72.718699
 20
93.137644
 30
0.0
 10
74.808611
 20
96.047790
 30
0.0
  0
SPLINE
  5
2d8
100
AcDbEntity
  8
0
 62
7
100
AcDbSpline
 70
8
 71
3
 72
8
 73
4
 74
0
 40
0
 40
0
 40
0
 40
0
 40
1
 40
1
 40
1
 40
1
 10
74.808611
 20
96.047790
 30
0.0
 10
75.583951
 20
97.127434
 30
0.0
 10
76.122649
 20
98.106449
 30
0.0
 10
76.005713
 20
98.223382
 30
0.0
  0
SPLINE
  5
2d9
100
AcDbEntity
  8
0
 62
7
100
AcDbSpline
 70
8
 71
3
 72
8
 73
4
 74
0
 40
0
 40
0
 40
0
 40
0
 40
1
 40
1
 40
1
 40
1
 10
76.005713
 20
98.223382
 30
0.0
 10
75.454061
 20
98.775039
 30
0.0
 10
66.282149
 20
99.867411
 30
0.0
 10
63.514845
 20
99.711046
 30
0.0
  0
SPLINE
  5
2da
100
AcDbEntity
  8
0
 62
7
100
AcDbSpline
 70
8
 71
3
 72
8
 73
4
 74
0
 40
0
 40
0
 40
0
 40
0
 40
1
 40
1
 40
1
 40
1
 10
63.514845
 20
99.711046
 30
0.0
 10
58.932431
 20
99.452115
 30
0.0
 10
58.569138
 20
98.630739
 30
0.0
 10
60.317005
 20
92.481009
 30
0.0
  0
SPLINE
  5
2db
100
AcDbEntity
  8
0
 62
7
100
AcDbSpline
 70
8
 71
3
 72
8
 73
4
 74
0
 40
0
 40
0
 40
0
 40
0
 40
1
 40
1
 40
1
 40
1
 10
60.317005
 20
92.481009
 30
0.0
 10
60.660003
 20
91.274190
 30
0.0
 10
60.940640
 20
89.836883
 30
0.0
 10
60.940640
 20
89.286990
 30
0.0
  0
SPLINE
  5
2dc
100
AcDbEntity
  8
0
 62
7
100
AcDbSpline
 70
8
 71
3
 72
8
 73
4
 74
0
 40
0
 40
0
 40
0
 40
0
 40
1
 40
1
 40
1
 40
1
 10
60.940640
 20
89.286990
 30
0.0
 10
60.940640
 20
88.033396
 30
0.0
 10
59.830772
 20
86.888807
 30
0.0
 10
58.615207
 20
86.888807
 30
0.0
  0
SPLINE
  5
2dd
100
AcDbEntity
  8
0
 62
7
100
AcDbSpline
 70
8
 71
3
 72
8
 73
4
 74
0
 40
0
 40
0
 40
0
 40
0
 40
1
 40
1
 40
1
 40
1
 10
58.615207
 20
86.888807
 30
0.0
 10
57.747718
 20
86.888807
 30
0.0
 10
57.735129
 20
86.940713
 30
0.0
 10
58.419235
 20
87.696645
 30
0.0
  0
LWPOLYLINE
  5
2de
100
AcDbEntity
  8
0
 62
7
100
AcDbPolyline
 90
7
 70
1
 10
94.867157
 20
128.023054
 30
0.0
 10
93.421110
 20
127.782773
 30
0.0
 10
93.421110
 20
114.289779
 30
0.0
 10
93.421110
 20
100.796788
 30
0.0
 10
97.091847
 20
100.405631
 30
0.0
 10
100.762585
 20
100.014474
 30
0.0
 10
96.869377
 20
99.885919
 30
0.0
  0
SPLINE
  5
2df
100
AcDbEntity
  8
0
 62
7
100
AcDbSpline
 70
8
 71
3
 72
8
 73
4
 74
0
 40
0
 40
0
 40
0
 40
0
 40
1
 40
1
 40
1
 40
1
 10
56.046274
 20
75.547676
 30
0.0
 10
46.655318
 20
76.837406
 30
0.0
 10
28.853138
 20
80.555382
 30
0.0
 10
22.824483
 20
82.486024
 30
0.0
  0
SPLINE
  5
2e0
100
AcDbEntity
  8
0
 62
7
100
AcDbSpline
 70
8
 71
3
 72
8
 73
4
 74
0
 40
0
 40
0
 40
0
 40
0
 40
1
 40
1
 40
1
 40
1
 10
22.824483
 20
82.486024
 30
0.0
 10
18.691071
 20
83.809728
 30
0.0
 10
14.015900
 20
86.519674
 30
0.0
 10
13.005742
 20
88.177419
 30
0.0
  0
SPLINE
  5
2e1
100
AcDbEntity
  8
0
 62
7
100
AcDbSpline
 70
8
 71
3
 72
8
 73
4
 74
0
 40
0
 40
0
 40
0
 40
0
 40
1
 40
1
 40
1
 40
1
 10
13.005742
 20
88.177419
 30
0.0
 10
12.199840
 20
89.499966
 30
0.0
 10
12.701963
 20
90.289283
 30
0.0
 10
15.602043
 20
92.258688
 30
0.0
  0
SPLINE
  5
2e2
100
AcDbEntity
  8
0
 62
7
100
AcDbSpline
 70
8
 71
3
 72
8
 73
4
 74
0
 40
0
 40
0
 40
0
 40
0
 40
1
 40
1
 40
1
 40
1
 10
15.602043
 20
92.258688
 30
0.0
 10
17.033802
 20
93.230978
 30
0.0
 10
18.427282
 20
94.441375
 30
0.0
 10
18.698666
 20
94.948461
 30
0.0
  0
SPLINE
  5
2e3
100
AcDbEntity
  8
0
 62
7
100
AcDbSpline
 70
8
 71
3
 72
8
 73
4
 74
0
 40
0
 40
0
 40
0
 40
0
 40
1
 40
1
 40
1
 40
1
 10
18.698666
 20
94.948461
 30
0.0
 10
19.351520
 20
96.168330
 30
0.0
 10
19.064983
 20
97.183145
 30
0.0
 10
16.139468
 20
104.012270
 30
0.0
  0
SPLINE
  5
2e4
100
AcDbEntity
  8
0
 62
7
100
AcDbSpline
 70
8
 71
3
 72
8
 73
4
 74
0
 40
0
 40
0
 40
0
 40
0
 40
1
 40
1
 40
1
 40
1
 10
16.139468
 20
104.012270
 30
0.0
 10
14.778198
 20
107.189929
 30
0.0
 10
13.567602
 20
110.511747
 30
0.0
 10
13.449256
 20
111.394086
 30
0.0
  0
SPLINE
  5
2e5
100
AcDbEntity
  8
0
 62
7
100
AcDbSpline
 70
8
 71
3
 72
8
 73
4
 74
0
 40
0
 40
0
 40
0
 40
0
 40
1
 40
1
 40
1
 40
1
 10
13.449256
 20
111.394086
 30
0.0
 10
13.146292
 20
113.652846
 30
0.0
 10
14.600036
 20
114.700842
 30
0.0
 10
19.026887
 20
115.414971
 30
0.0
  0
SPLINE
  5
2e6
100
AcDbEntity
  8
0
 62
7
100
AcDbSpline
 70
8
 71
3
 72
8
 73
4
 74
0
 40
0
 40
0
 40
0
 40
0
 40
1
 40
1
 40
1
 40
1
 10
19.026887
 20
115.414971
 30
0.0
 10
21.848098
 20
115.870080
 30
0.0
 10
22.642956
 20
116.187738
 30
0.0
 10
23.551581
 20
117.223228
 30
0.0
  0
SPLINE
  5
2e7
100
AcDbEntity
  8
0
 62
7
100
AcDbSpline
 70
8
 71
3
 72
8
 73
4
 74
0
 40
0
 40
0
 40
0
 40
0
 40
1
 40
1
 40
1
 40
1
 10
23.551581
 20
117.223228
 30
0.0
 10
25.169628
 20
119.067186
 30
0.0
 10
26.235432
 20
118.898573
 30
0.0
 10
26.235432
 20
116.798636
 30
0.0
  0
SPLINE
  5
2e8
100
AcDbEntity
  8
0
 62
7
100
AcDbSpline
 70
8
 71
3
 72
8
 73
4
 74
0
 40
0
 40
0
 40
0
 40
0
 40
1
 40
1
 40
1
 40
1
 10
26.235432
 20
116.798636
 30
0.0
 10
26.235432
 20
115.874223
 30
0.0
 10
25.909337
 20
114.652319
 30
0.0
 10
25.510777
 20
114.083297
 30
0.0
  0
SPLINE
  5
2e9
100
AcDbEntity
  8
0
 62
7
100
AcDbSpline
 70
8
 71
3
 72
8
 73
4
 74
0
 40
0
 40
0
 40
0
 40
0
 40
1
 40
1
 40
1
 40
1
 10
25.510777
 20
114.083297
 30
0.0
 10
24.283103
 20
112.330545
 30
0.0
 10
24.898454
 20
108.218683
 30
0.0
 10
27.087510
 20
103.547360
 30
0.0
  0
SPLINE
  5
2ea
100
AcDbEntity
  8
0
 62
7
100
AcDbSpline
 70
8
 71
3
 72
8
 73
4
 74
0
 40
0
 40
0
 40
0
 40
0
 40
1
 40
1
 40
1
 40
1
 10
27.087510
 20
103.547360
 30
0.0
 10
29.645252
 20
98.089284
 30
0.0
 10
31.543506
 20
96.153183
 30
0.0
 10
33.375738
 20
97.133764
 30
0.0
  0
SPLINE
  5
2eb
100
AcDbEntity
  8
0
 62
7
100
AcDbSpline
 70
8
 71
3
 72
8
 73
4
 74
0
 40
0
 40
0
 40
0
 40
0
 40
1
 40
1
 40
1
 40
1
 10
33.375738
 20
97.133764
 30
0.0
 10
34.587143
 20
97.782088
 30
0.0
 10
35.094260
 20
99.214670
 30
0.0
 10
35.836154
 20
104.084330
 30
0.0
  0
SPLINE
  5
2ec
100
AcDbEntity
  8
0
 62
7
100
AcDbSpline
 70
8
 71
3
 72
8
 73
4
 74
0
 40
0
 40
0
 40
0
 40
0
 40
1
 40
1
 40
1
 40
1
 10
35.836154
 20
104.084330
 30
0.0
 10
36.449734
 20
108.111771
 30
0.0
 10
37.098207
 20
110.470503
 30
0.0
 10
37.591865
 20
110.470503
 30
0.0
  0
SPLINE
  5
2ed
100
AcDbEntity
  8
0
 62
7
100
AcDbSpline
 70
8
 71
3
 72
8
 73
4
 74
0
 40
0
 40
0
 40
0
 40
0
 40
1
 40
1
 40
1
 40
1
 10
37.591865
 20
110.470503
 30
0.0
 10
37.983101
 20
110.470503
 30
0.0
 10
37.339047
 20
99.312068
 30
0.0
 10
36.856179
 20
97.724509
 30
0.0
  0
SPLINE
  5
2ee
100
AcDbEntity
  8
0
 62
7
100
AcDbSpline
 70
8
 71
3
 72
8
 73
4
 74
0
 40
0
 40
0
 40
0
 40
0
 40
1
 40
1
 40
1
 40
1
 10
36.856179
 20
97.724509
 30
0.0
 10
36.577039
 20
96.806753
 30
0.0
 10
35.975208
 20
96.135911
 30
0.0
 10
35.109198
 20
95.777198
 30
0.0
  0
SPLINE
  5
2ef
100
AcDbEntity
  8
0
 62
7
100
AcDbSpline
 70
8
 71
3
 72
8
 73
4
 74
0
 40
0
 40
0
 40
0
 40
0
 40
1
 40
1
 40
1
 40
1
 10
35.109198
 20
95.777198
 30
0.0
 10
33.484538
 20
95.104242
 30
0.0
 10
32.856396
 20
93.247694
 30
0.0
 10
33.976302
 20
92.428798
 30
0.0
  0
SPLINE
  5
2f0
100
AcDbEntity
  8
0
 62
7
100
AcDbSpline
 70
8
 71
3
 72
8
 73
4
 74
0
 40
0
 40
0
 40
0
 40
0
 40
1
 40
1
 40
1
 40
1
 10
33.976302
 20
92.428798
 30
0.0
 10
35.766113
 20
91.120057
 30
0.0
 10
38.702731
 20
91.147179
 30
0.0
 10
45.280653
 20
92.533198
 30
0.0
  0
SPLINE
  5
2f1
100
AcDbEntity
  8
0
 62
7
100
AcDbSpline
 70
8
 71
3
 72
8
 73
4
 74
0
 40
0
 40
0
 40
0
 40
0
 40
1
 40
1
 40
1
 40
1
 10
45.280653
 20
92.533198
 30
0.0
 10
47.068113
 20
92.909832
 30
0.0
 10
48.628633
 20
93.119932
 30
0.0
 10
48.748476
 20
93.000089
 30
0.0
  0
SPLINE
  5
2f2
100
AcDbEntity
  8
0
 62
7
100
AcDbSpline
 70
8
 71
3
 72
8
 73
4
 74
0
 40
0
 40
0
 40
0
 40
0
 40
1
 40
1
 40
1
 40
1
 10
48.748476
 20
93.000089
 30
0.0
 10
48.868316
 20
92.880246
 30
0.0
 10
49.408072
 20
91.921495
 30
0.0
 10
49.947929
 20
90.869526
 30
0.0
  0
SPLINE
  5
2f3
100
AcDbEntity
  8
0
 62
7
100
AcDbSpline
 70
8
 71
3
 72
8
 73
4
 74
0
 40
0
 40
0
 40
0
 40
0
 40
1
 40
1
 40
1
 40
1
 10
49.947929
 20
90.869526
 30
0.0
 10
50.551018
 20
89.694344
 30
0.0
 10
51.527267
 20
88.643933
 30
0.0
 10
52.479829
 20
88.145294
 30
0.0
  0
SPLINE
  5
2f4
100
AcDbEntity
  8
0
 62
7
100
AcDbSpline
 70
8
 71
3
 72
8
 73
4
 74
0
 40
0
 40
0
 40
0
 40
0
 40
1
 40
1
 40
1
 40
1
 10
52.479829
 20
88.145294
 30
0.0
 10
54.464554
 20
87.106341
 30
0.0
 10
53.616360
 20
87.122492
 30
0.0
 10
48.438630
 20
88.222250
 30
0.0
  0
SPLINE
  5
2f5
100
AcDbEntity
  8
0
 62
7
100
AcDbSpline
 70
8
 71
3
 72
8
 73
4
 74
0
 40
0
 40
0
 40
0
 40
0
 40
1
 40
1
 40
1
 40
1
 10
48.438630
 20
88.222250
 30
0.0
 10
46.137864
 20
88.710935
 30
0.0
 10
42.153086
 20
89.231576
 30
0.0
 10
39.583569
 20
89.379226
 30
0.0
  0
SPLINE
  5
2f6
100
AcDbEntity
  8
0
 62
7
100
AcDbSpline
 70
8
 71
3
 72
8
 73
4
 74
0
 40
0
 40
0
 40
0
 40
0
 40
1
 40
1
 40
1
 40
1
 10
39.583569
 20
89.379226
 30
0.0
 10
37.014054
 20
89.526879
 30
0.0
 10
34.160889
 20
89.835540
 30
0.0
 10
33.243204
 20
90.065139
 30
0.0
  0
SPLINE
  5
2f7
100
AcDbEntity
  8
0
 62
7
100
AcDbSpline
 70
8
 71
3
 72
8
 73
4
 74
0
 40
0
 40
0
 40
0
 40
0
 40
1
 40
1
 40
1
 40
1
 10
33.243204
 20
90.065139
 30
0.0
 10
31.625351
 20
90.469919
 30
0.0
 10
31.574686
 20
90.543161
 30
0.0
 10
31.574686
 20
92.477205
 30
0.0
  0
SPLINE
  5
2f8
100
AcDbEntity
  8
0
 62
7
100
AcDbSpline
 70
8
 71
3
 72
8
 73
4
 74
0
 40
0
 40
0
 40
0
 40
0
 40
1
 40
1
 40
1
 40
1
 10
31.574686
 20
92.477205
 30
0.0
 10
31.574686
 20
94.165630
 30
0.0
 10
31.406273
 20
94.548549
 30
0.0
 10
30.477567
 20
94.971696
 30
0.0
  0
SPLINE
  5
2f9
100
AcDbEntity
  8
0
 62
7
100
AcDbSpline
 70
8
 71
3
 72
8
 73
4
 74
0
 40
0
 40
0
 40
0
 40
0
 40
1
 40
1
 40
1
 40
1
 10
30.477567
 20
94.971696
 30
0.0
 10
27.552669
 20
96.304369
 30
0.0
 10
17.052411
 20
91.995573
 30
0.0
 10
15.632944
 20
88.880181
 30
0.0
  0
SPLINE
  5
2fa
100
AcDbEntity
  8
0
 62
7
100
AcDbSpline
 70
8
 71
3
 72
8
 73
4
 74
0
 40
0
 40
0
 40
0
 40
0
 40
1
 40
1
 40
1
 40
1
 10
15.632944
 20
88.880181
 30
0.0
 10
14.963163
 20
87.410170
 30
0.0
 10
15.295488
 20
86.750775
 30
0.0
 10
17.246046
 20
85.679479
 30
0.0
  0
SPLINE
  5
2fb
100
AcDbEntity
  8
0
 62
7
100
AcDbSpline
 70
8
 71
3
 72
8
 73
4
 74
0
 40
0
 40
0
 40
0
 40
0
 40
1
 40
1
 40
1
 40
1
 10
17.246046
 20
85.679479
 30
0.0
 10
22.455907
 20
82.818098
 30
0.0
 10
43.574290
 20
77.804395
 30
0.0
 10
52.769897
 20
77.245781
 30
0.0
  0
SPLINE
  5
2fc
100
AcDbEntity
  8
0
 62
7
100
AcDbSpline
 70
8
 71
3
 72
8
 73
4
 74
0
 40
0
 40
0
 40
0
 40
0
 40
1
 40
1
 40
1
 40
1
 10
52.769897
 20
77.245781
 30
0.0
 10
58.777268
 20
76.880848
 30
0.0
 10
60.259996
 20
77.565390
 30
0.0
 10
64.625869
 20
82.719405
 30
0.0
  0
SPLINE
  5
2fd
100
AcDbEntity
  8
0
 62
7
100
AcDbSpline
 70
8
 71
3
 72
8
 73
4
 74
0
 40
0
 40
0
 40
0
 40
0
 40
1
 40
1
 40
1
 40
1
 10
64.625869
 20
82.719405
 30
0.0
 10
66.356580
 20
84.762550
 30
0.0
 10
67.843493
 20
86.363334
 30
0.0
 10
67.930121
 20
86.276706
 30
0.0
  0
SPLINE
  5
2fe
100
AcDbEntity
  8
0
 62
7
100
AcDbSpline
 70
8
 71
3
 72
8
 73
4
 74
0
 40
0
 40
0
 40
0
 40
0
 40
1
 40
1
 40
1
 40
1
 10
67.930121
 20
86.276706
 30
0.0
 10
68.016747
 20
86.190078
 30
0.0
 10
67.270331
 20
84.603995
 30
0.0
 10
66.271419
 20
82.752075
 30
0.0
  0
SPLINE
  5
2ff
100
AcDbEntity
  8
0
 62
7
100
AcDbSpline
 70
8
 71
3
 72
8
 73
4
 74
0
 40
0
 40
0
 40
0
 40
0
 40
1
 40
1
 40
1
 40
1
 10
66.271419
 20
82.752075
 30
0.0
 10
64.174034
 20
78.863665
 30
0.0
 10
63.556123
 20
77.017732
 30
0.0
 10
64.072310
 20
76.182526
 30
0.0
  0
SPLINE
  5
300
100
AcDbEntity
  8
0
 62
7
100
AcDbSpline
 70
8
 71
3
 72
8
 73
4
 74
0
 40
0
 40
0
 40
0
 40
0
 40
1
 40
1
 40
1
 40
1
 10
64.072310
 20
76.182526
 30
0.0
 10
64.273498
 20
75.857000
 30
0.0
 10
65.403106
 20
75.456493
 30
0.0
 10
66.582555
 20
75.292513
 30
0.0
  0
SPLINE
  5
301
100
AcDbEntity
  8
0
 62
7
100
AcDbSpline
 70
8
 71
3
 72
8
 73
4
 74
0
 40
0
 40
0
 40
0
 40
0
 40
1
 40
1
 40
1
 40
1
 10
66.582555
 20
75.292513
 30
0.0
 10
68.260697
 20
75.059197
 30
0.0
 10
67.807865
 20
74.991407
 30
0.0
 10
64.500094
 20
74.980765
 30
0.0
  0
SPLINE
  5
302
100
AcDbEntity
  8
0
 62
7
100
AcDbSpline
 70
8
 71
3
 72
8
 73
4
 74
0
 40
0
 40
0
 40
0
 40
0
 40
1
 40
1
 40
1
 40
1
 10
64.500094
 20
74.980765
 30
0.0
 10
62.175294
 20
74.973286
 30
0.0
 10
58.371074
 20
75.228392
 30
0.0
 10
56.046274
 20
75.547676
 30
0.0
  0
LWPOLYLINE
  5
303
100
AcDbEntity
  8
0
 62
7
100
AcDbPolyline
 90
2
 70
1
 10
58.419235
 20
87.696645
 30
0.0
 10
58.419187
 20
87.696631
 30
0.0
  0
SPLINE
  5
304
100
AcDbEntity
  8
0
 62
7
100
AcDbSpline
 70
8
 71
3
 72
8
 73
4
 74
0
 40
0
 40
0
 40
0
 40
0
 40
1
 40
1
 40
1
 40
1
 10
23.741540
 20
95.324844
 30
0.0
 10
26.945493
 20
96.542986
 30
0.0
 10
27.466068
 20
99.296758
 30
0.0
 10
25.563697
 20
104.963822
 30
0.0
  0
SPLINE
  5
305
100
AcDbEntity
  8
0
 62
7
100
AcDbSpline
 70
8
 71
3
 72
8
 73
4
 74
0
 40
0
 40
0
 40
0
 40
0
 40
1
 40
1
 40
1
 40
1
 10
25.563697
 20
104.963822
 30
0.0
 10
23.359367
 20
111.530408
 30
0.0
 10
20.015794
 20
115.013174
 30
0.0
 10
17.499084
 20
113.364164
 30
0.0
  0
SPLINE
  5
306
100
AcDbEntity
  8
0
 62
7
100
AcDbSpline
 70
8
 71
3
 72
8
 73
4
 74
0
 40
0
 40
0
 40
0
 40
0
 40
1
 40
1
 40
1
 40
1
 10
17.499084
 20
113.364164
 30
0.0
 10
15.944147
 20
112.345330
 30
0.0
 10
16.102644
 20
110.616657
 30
0.0
 10
17.837683
 20
109.671167
 30
0.0
  0
SPLINE
  5
307
100
AcDbEntity
  8
0
 62
7
100
AcDbSpline
 70
8
 71
3
 72
8
 73
4
 74
0
 40
0
 40
0
 40
0
 40
0
 40
1
 40
1
 40
1
 40
1
 10
17.837683
 20
109.671167
 30
0.0
 10
20.181286
 20
108.394050
 30
0.0
 10
21.877807
 20
106.800073
 30
0.0
 10
22.513959
 20
105.277549
 30
0.0
  0
SPLINE
  5
308
100
AcDbEntity
  8
0
 62
7
100
AcDbSpline
 70
8
 71
3
 72
8
 73
4
 74
0
 40
0
 40
0
 40
0
 40
0
 40
1
 40
1
 40
1
 40
1
 10
22.513959
 20
105.277549
 30
0.0
 10
23.279361
 20
103.445681
 30
0.0
 10
23.343895
 20
103.754503
 30
0.0
 10
21.786052
 20
101.794213
 30
0.0
  0
SPLINE
  5
309
100
AcDbEntity
  8
0
 62
7
100
AcDbSpline
 70
8
 71
3
 72
8
 73
4
 74
0
 40
0
 40
0
 40
0
 40
0
 40
1
 40
1
 40
1
 40
1
 10
21.786052
 20
101.794213
 30
0.0
 10
20.733948
 20
100.470311
 30
0.0
 10
20.451238
 20
99.675189
 30
0.0
 10
20.451238
 20
98.040047
 30
0.0
  0
SPLINE
  5
30a
100
AcDbEntity
  8
0
 62
7
100
AcDbSpline
 70
8
 71
3
 72
8
 73
4
 74
0
 40
0
 40
0
 40
0
 40
0
 40
1
 40
1
 40
1
 40
1
 10
20.451238
 20
98.040047
 30
0.0
 10
20.451238
 20
95.114896
 30
0.0
 10
21.314860
 20
94.402223
 30
0.0
 10
23.741540
 20
95.324844
 30
0.0
  0
LWPOLYLINE
  5
30b
100
AcDbEntity
  8
0
 62
7
100
AcDbPolyline
 90
2
 70
1
 10
56.046274
 20
75.547676
 30
0.0
 10
56.046274
 20
75.547676
 30
0.0
  0
SPLINE
  5
30c
100
AcDbEntity
  8
0
 62
7
100
AcDbSpline
 70
8
 71
3
 72
8
 73
4
 74
0
 40
0
 40
0
 40
0
 40
0
 40
1
 40
1
 40
1
 40
1
 10
37.803819
 20
110.893410
 30
0.0
 10
37.803819
 20
111.616062
 30
0.0
 10
44.141404
 20
118.034448
 30
0.0
 10
44.854958
 20
118.034448
 30
0.0
  0
SPLINE
  5
30d
100
AcDbEntity
  8
0
 62
7
100
AcDbSpline
 70
8
 71
3
 72
8
 73
4
 74
0
 40
0
 40
0
 40
0
 40
0
 40
1
 40
1
 40
1
 40
1
 10
44.854958
 20
118.034448
 30
0.0
 10
45.229704
 20
118.034448
 30
0.0
 10
44.996464
 20
117.245343
 30
0.0
 10
44.172423
 20
115.725280
 30
0.0
  0
SPLINE
  5
30e
100
AcDbEntity
  8
0
 62
7
100
AcDbSpline
 70
8
 71
3
 72
8
 73
4
 74
0
 40
0
 40
0
 40
0
 40
0
 40
1
 40
1
 40
1
 40
1
 10
44.172423
 20
115.725280
 30
0.0
 10
43.265310
 20
114.051973
 30
0.0
 10
42.417376
 20
113.163701
 30
0.0
 10
41.093102
 20
112.499477
 30
0.0
  0
SPLINE
  5
30f
100
AcDbEntity
  8
0
 62
7
100
AcDbSpline
 70
8
 71
3
 72
8
 73
4
 74
0
 40
0
 40
0
 40
0
 40
0
 40
1
 40
1
 40
1
 40
1
 10
41.093102
 20
112.499477
 30
0.0
 10
40.087976
 20
111.995332
 30
0.0
 10
38.936699
 20
111.308053
 30
0.0
 10
38.534710
 20
110.972195
 30
0.0
  0
SPLINE
  5
310
100
AcDbEntity
  8
0
 62
7
100
AcDbSpline
 70
8
 71
3
 72
8
 73
4
 74
0
 40
0
 40
0
 40
0
 40
0
 40
1
 40
1
 40
1
 40
1
 10
38.534710
 20
110.972195
 30
0.0
 10
38.011746
 20
110.535264
 30
0.0
 10
37.803819
 20
110.512853
 30
0.0
 10
37.803819
 20
110.893410
 30
0.0
  0
LWPOLYLINE
  5
311
100
AcDbEntity
  8
0
 62
7
100
AcDbPolyline
 90
2
 70
1
 10
23.741540
 20
95.324844
 30
0.0
 10
23.741540
 20
95.324844
 30
0.0
  0
SPLINE
  5
312
100
AcDbEntity
  8
0
 62
7
100
AcDbSpline
 70
8
 71
3
 72
8
 73
4
 74
0
 40
0
 40
0
 40
0
 40
0
 40
1
 40
1
 40
1
 40
1
 10
108.993889
 20
75.305275
 30
0.0
 10
108.993889
 20
75.612446
 30
0.0
 10
108.092889
 20
77.152657
 30
0.0
 10
106.991669
 20
78.727967
 30
0.0
  0
SPLINE
  5
313
100
AcDbEntity
  8
0
 62
7
100
AcDbSpline
 70
8
 71
3
 72
8
 73
4
 74
0
 40
0
 40
0
 40
0
 40
0
 40
1
 40
1
 40
1
 40
1
 10
106.991669
 20
78.727967
 30
0.0
 10
105.890447
 20
80.303278
 30
0.0
 10
104.989447
 20
81.711734
 30
0.0
 10
104.989447
 20
81.857863
 30
0.0
  0
SPLINE
  5
314
100
AcDbEntity
  8
0
 62
7
100
AcDbSpline
 70
8
 71
3
 72
8
 73
4
 74
0
 40
0
 40
0
 40
0
 40
0
 40
1
 40
1
 40
1
 40
1
 10
104.989447
 20
81.857863
 30
0.0
 10
104.989447
 20
82.003994
 30
0.0
 10
106.063751
 20
81.107527
 30
0.0
 10
107.376790
 20
79.865710
 30
0.0
  0
SPLINE
  5
315
100
AcDbEntity
  8
0
 62
7
100
AcDbSpline
 70
8
 71
3
 72
8
 73
4
 74
0
 40
0
 40
0
 40
0
 40
0
 40
1
 40
1
 40
1
 40
1
 10
107.376790
 20
79.865710
 30
0.0
 10
109.000250
 20
78.330308
 30
0.0
 10
110.295188
 20
77.508234
 30
0.0
 10
111.423834
 20
77.296500
 30
0.0
  0
SPLINE
  5
316
100
AcDbEntity
  8
0
 62
7
100
AcDbSpline
 70
8
 71
3
 72
8
 73
4
 74
0
 40
0
 40
0
 40
0
 40
0
 40
1
 40
1
 40
1
 40
1
 10
111.423834
 20
77.296500
 30
0.0
 10
113.941078
 20
76.824263
 30
0.0
 10
119.175976
 20
77.443698
 30
0.0
 10
124.913342
 20
78.892686
 30
0.0
  0
SPLINE
  5
317
100
AcDbEntity
  8
0
 62
7
100
AcDbSpline
 70
8
 71
3
 72
8
 73
4
 74
0
 40
0
 40
0
 40
0
 40
0
 40
1
 40
1
 40
1
 40
1
 10
124.913342
 20
78.892686
 30
0.0
 10
127.751256
 20
79.609412
 30
0.0
 10
130.154412
 20
80.114596
 30
0.0
 10
130.253692
 20
80.015316
 30
0.0
  0
SPLINE
  5
318
100
AcDbEntity
  8
0
 62
7
100
AcDbSpline
 70
8
 71
3
 72
8
 73
4
 74
0
 40
0
 40
0
 40
0
 40
0
 40
1
 40
1
 40
1
 40
1
 10
130.253692
 20
80.015316
 30
0.0
 10
130.352969
 20
79.916038
 30
0.0
 10
128.763626
 20
79.306514
 30
0.0
 10
126.721816
 20
78.660818
 30
0.0
  0
SPLINE
  5
319
100
AcDbEntity
  8
0
 62
7
100
AcDbSpline
 70
8
 71
3
 72
8
 73
4
 74
0
 40
0
 40
0
 40
0
 40
0
 40
1
 40
1
 40
1
 40
1
 10
126.721816
 20
78.660818
 30
0.0
 10
117.150413
 20
75.633993
 30
0.0
 10
108.993889
 20
74.090125
 30
0.0
 10
108.993889
 20
75.305275
 30
0.0
  0
LWPOLYLINE
  5
31a
100
AcDbEntity
  8
0
 62
7
100
AcDbPolyline
 90
2
 70
1
 10
37.803819
 20
110.893410
 30
0.0
 10
37.803819
 20
110.893410
 30
0.0
  0
SPLINE
  5
31b
100
AcDbEntity
  8
0
 62
7
100
AcDbSpline
 70
8
 71
3
 72
8
 73
4
 74
0
 40
0
 40
0
 40
0
 40
0
 40
1
 40
1
 40
1
 40
1
 10
92.817069
 20
145.637232
 30
0.0
 10
91.920830
 20
150.118418
 30
0.0
 10
93.391711
 20
158.281521
 30
0.0
 10
96.071552
 20
163.699022
 30
0.0
  0
SPLINE
  5
31c
100
AcDbEntity
  8
0
 62
7
100
AcDbSpline
 70
8
 71
3
 72
8
 73
4
 74
0
 40
0
 40
0
 40
0
 40
0
 40
1
 40
1
 40
1
 40
1
 10
96.071552
 20
163.699022
 30
0.0
 10
98.054606
 20
167.707910
 30
0.0
 10
101.563232
 20
171.371586
 30
0.0
 10
109.486164
 20
177.706445
 30
0.0
  0
SPLINE
  5
31d
100
AcDbEntity
  8
0
 62
7
100
AcDbSpline
 70
8
 71
3
 72
8
 73
4
 74
0
 40
0
 40
0
 40
0
 40
0
 40
1
 40
1
 40
1
 40
1
 10
109.486164
 20
177.706445
 30
0.0
 10
118.568450
 20
184.968276
 30
0.0
 10
122.787311
 20
187.372576
 30
0.0
 10
128.613010
 20
188.606705
 30
0.0
  0
SPLINE
  5
31e
100
AcDbEntity
  8
0
 62
7
100
AcDbSpline
 70
8
 71
3
 72
8
 73
4
 74
0
 40
0
 40
0
 40
0
 40
0
 40
1
 40
1
 40
1
 40
1
 10
128.613010
 20
188.606705
 30
0.0
 10
134.417799
 20
189.836401
 30
0.0
 10
139.601366
 20
188.513479
 30
0.0
 10
141.808062
 20
185.239136
 30
0.0
  0
SPLINE
  5
31f
100
AcDbEntity
  8
0
 62
7
100
AcDbSpline
 70
8
 71
3
 72
8
 73
4
 74
0
 40
0
 40
0
 40
0
 40
0
 40
1
 40
1
 40
1
 40
1
 10
141.808062
 20
185.239136
 30
0.0
 10
143.687769
 20
182.449985
 30
0.0
 10
142.686936
 20
179.192246
 30
0.0
 10
138.934568
 20
175.885843
 30
0.0
  0
SPLINE
  5
320
100
AcDbEntity
  8
0
 62
7
100
AcDbSpline
 70
8
 71
3
 72
8
 73
4
 74
0
 40
0
 40
0
 40
0
 40
0
 40
1
 40
1
 40
1
 40
1
 10
138.934568
 20
175.885843
 30
0.0
 10
133.105968
 20
170.749966
 30
0.0
 10
123.616929
 20
166.928014
 30
0.0
 10
107.009689
 20
163.027291
 30
0.0
  0
SPLINE
  5
321
100
AcDbEntity
  8
0
 62
7
100
AcDbSpline
 70
8
 71
3
 72
8
 73
4
 74
0
 40
0
 40
0
 40
0
 40
0
 40
1
 40
1
 40
1
 40
1
 10
107.009689
 20
163.027291
 30
0.0
 10
103.838293
 20
162.282391
 30
0.0
 10
100.734851
 20
161.301598
 30
0.0
 10
100.113149
 20
160.847751
 30
0.0
  0
SPLINE
  5
322
100
AcDbEntity
  8
0
 62
7
100
AcDbSpline
 70
8
 71
3
 72
8
 73
4
 74
0
 40
0
 40
0
 40
0
 40
0
 40
1
 40
1
 40
1
 40
1
 10
100.113149
 20
160.847751
 30
0.0
 10
98.465459
 20
159.644925
 30
0.0
 10
95.360532
 20
153.138693
 30
0.0
 10
94.151269
 20
148.354905
 30
0.0
  0
SPLINE
  5
323
100
AcDbEntity
  8
0
 62
7
100
AcDbSpline
 70
8
 71
3
 72
8
 73
4
 74
0
 40
0
 40
0
 40
0
 40
0
 40
1
 40
1
 40
1
 40
1
 10
94.151269
 20
148.354905
 30
0.0
 10
93.222936
 20
144.682463
 30
0.0
 10
93.070231
 20
144.371420
 30
0.0
 10
92.817069
 20
145.637232
 30
0.0
  0
LWPOLYLINE
  5
324
100
AcDbEntity
  8
0
 62
7
100
AcDbPolyline
 90
2
 70
1
 10
108.993889
 20
75.305275
 30
0.0
 10
108.993889
 20
75.305275
 30
0.0
  0
SPLINE
  5
325
100
AcDbEntity
  8
0
 62
7
100
AcDbSpline
 70
8
 71
3
 72
8
 73
4
 74
0
 40
0
 40
0
 40
0
 40
0
 40
1
 40
1
 40
1
 40
1
 10
112.325748
 20
165.869785
 30
0.0
 10
119.382856
 20
167.338072
 30
0.0
 10
123.899038
 20
168.811909
 30
0.0
 10
128.965895
 20
171.300226
 30
0.0
  0
SPLINE
  5
326
100
AcDbEntity
  8
0
 62
7
100
AcDbSpline
 70
8
 71
3
 72
8
 73
4
 74
0
 40
0
 40
0
 40
0
 40
0
 40
1
 40
1
 40
1
 40
1
 10
128.965895
 20
171.300226
 30
0.0
 10
136.287451
 20
174.895819
 30
0.0
 10
140.920532
 20
180.276165
 30
0.0
 10
139.864857
 20
183.957074
 30
0.0
  0
SPLINE
  5
327
100
AcDbEntity
  8
0
 62
7
100
AcDbSpline
 70
8
 71
3
 72
8
 73
4
 74
0
 40
0
 40
0
 40
0
 40
0
 40
1
 40
1
 40
1
 40
1
 10
139.864857
 20
183.957074
 30
0.0
 10
139.235908
 20
186.150102
 30
0.0
 10
137.477460
 20
187.167643
 30
0.0
 10
133.974490
 20
187.365576
 30
0.0
  0
SPLINE
  5
328
100
AcDbEntity
  8
0
 62
7
100
AcDbSpline
 70
8
 71
3
 72
8
 73
4
 74
0
 40
0
 40
0
 40
0
 40
0
 40
1
 40
1
 40
1
 40
1
 10
133.974490
 20
187.365576
 30
0.0
 10
126.107865
 20
187.810082
 30
0.0
 10
117.967117
 20
183.493626
 30
0.0
 10
108.110373
 20
173.651690
 30
0.0
  0
SPLINE
  5
329
100
AcDbEntity
  8
0
 62
7
100
AcDbSpline
 70
8
 71
3
 72
8
 73
4
 74
0
 40
0
 40
0
 40
0
 40
0
 40
1
 40
1
 40
1
 40
1
 10
108.110373
 20
173.651690
 30
0.0
 10
103.739309
 20
169.287194
 30
0.0
 10
101.975593
 20
166.736687
 30
0.0
 10
102.458430
 20
165.478433
 30
0.0
  0
SPLINE
  5
32a
100
AcDbEntity
  8
0
 62
7
100
AcDbSpline
 70
8
 71
3
 72
8
 73
4
 74
0
 40
0
 40
0
 40
0
 40
0
 40
1
 40
1
 40
1
 40
1
 10
102.458430
 20
165.478433
 30
0.0
 10
102.863244
 20
164.423506
 30
0.0
 10
105.965851
 20
164.546558
 30
0.0
 10
112.325748
 20
165.869785
 30
0.0
  0
LWPOLYLINE
  5
32b
100
AcDbEntity
  8
0
 62
7
100
AcDbPolyline
 90
2
 70
1
 10
92.817069
 20
145.637232
 30
0.0
 10
92.817069
 20
145.637232
 30
0.0
  0
SPLINE
  5
32c
100
AcDbEntity
  8
0
 62
7
100
AcDbSpline
 70
8
 71
3
 72
8
 73
4
 74
0
 40
0
 40
0
 40
0
 40
0
 40
1
 40
1
 40
1
 40
1
 10
75.297781
 20
161.625961
 30
0.0
 10
79.904299
 20
166.601426
 30
0.0
 10
82.684724
 20
172.780081
 30
0.0
 10
82.798059
 20
178.293060
 30
0.0
  0
LWPOLYLINE
  5
32d
100
AcDbEntity
  8
0
 62
7
100
AcDbPolyline
 90
2
 70
1
 10
112.325748
 20
165.869785
 30
0.0
 10
112.325748
 20
165.869785
 30
0.0
  0
SPLINE
  5
32e
100
AcDbEntity
  8
0
 62
7
100
AcDbSpline
 70
8
 71
3
 72
8
 73
4
 74
0
 40
0
 40
0
 40
0
 40
0
 40
1
 40
1
 40
1
 40
1
 10
83.216756
 20
178.546008
 30
0.0
 10
83.676927
 20
175.445396
 30
0.0
 10
83.033946
 20
170.719054
 30
0.0
 10
81.778887
 20
167.976681
 30
0.0
  0
SPLINE
  5
32f
100
AcDbEntity
  8
0
 62
7
100
AcDbSpline
 70
8
 71
3
 72
8
 73
4
 74
0
 40
0
 40
0
 40
0
 40
0
 40
1
 40
1
 40
1
 40
1
 10
81.778887
 20
167.976681
 30
0.0
 10
80.846826
 20
165.940081
 30
0.0
 10
73.854756
 20
158.523800
 30
0.0
 10
72.866710
 20
158.523800
 30
0.0
  0
SPLINE
  5
330
100
AcDbEntity
  8
0
 62
7
100
AcDbSpline
 70
8
 71
3
 72
8
 73
4
 74
0
 40
0
 40
0
 40
0
 40
0
 40
1
 40
1
 40
1
 40
1
 10
72.866710
 20
158.523800
 30
0.0
 10
72.624132
 20
158.523800
 30
0.0
 10
73.718112
 20
159.919773
 30
0.0
 10
75.297781
 20
161.625961
 30
0.0
  0
LWPOLYLINE
  5
331
100
AcDbEntity
  8
0
 62
7
100
AcDbPolyline
 90
3
 70
1
 10
82.798059
 20
178.293060
 30
0.0
 10
82.853567
 20
180.993168
 30
0.0
 10
83.216756
 20
178.546008
 30
0.0
  0
SPLINE
  5
332
100
AcDbEntity
  8
0
 62
7
100
AcDbSpline
 70
8
 71
3
 72
8
 73
4
 74
0
 40
0
 40
0
 40
0
 40
0
 40
1
 40
1
 40
1
 40
1
 10
125.234680
 20
102.968601
 30
0.0
 10
124.346408
 20
103.716030
 30
0.0
 10
124.670264
 20
104.237041
 30
0.0
 10
125.578873
 20
103.522330
 30
0.0
  0
SPLINE
  5
333
100
AcDbEntity
  8
0
 62
7
100
AcDbSpline
 70
8
 71
3
 72
8
 73
4
 74
0
 40
0
 40
0
 40
0
 40
0
 40
1
 40
1
 40
1
 40
1
 10
125.578873
 20
103.522330
 30
0.0
 10
125.909996
 20
103.261870
 30
0.0
 10
126.400241
 20
103.048764
 30
0.0
 10
126.668304
 20
103.048764
 30
0.0
  0
SPLINE
  5
334
100
AcDbEntity
  8
0
 62
7
100
AcDbSpline
 70
8
 71
3
 72
8
 73
4
 74
0
 40
0
 40
0
 40
0
 40
0
 40
1
 40
1
 40
1
 40
1
 10
126.668304
 20
103.048764
 30
0.0
 10
127.174769
 20
103.048764
 30
0.0
 10
128.123132
 20
103.887432
 30
0.0
 10
128.123132
 20
104.335316
 30
0.0
  0
SPLINE
  5
335
100
AcDbEntity
  8
0
 62
7
100
AcDbSpline
 70
8
 71
3
 72
8
 73
4
 74
0
 40
0
 40
0
 40
0
 40
0
 40
1
 40
1
 40
1
 40
1
 10
128.123132
 20
104.335316
 30
0.0
 10
128.123132
 20
104.476537
 30
0.0
 10
128.273296
 20
104.534458
 30
0.0
 10
128.456834
 20
104.464029
 30
0.0
  0
SPLINE
  5
336
100
AcDbEntity
  8
0
 62
7
100
AcDbSpline
 70
8
 71
3
 72
8
 73
4
 74
0
 40
0
 40
0
 40
0
 40
0
 40
1
 40
1
 40
1
 40
1
 10
128.456834
 20
104.464029
 30
0.0
 10
128.961425
 20
104.270399
 30
0.0
 10
128.865353
 20
103.968963
 30
0.0
 10
128.034144
 20
103.137751
 30
0.0
  0
SPLINE
  5
337
100
AcDbEntity
  8
0
 62
7
100
AcDbSpline
 70
8
 71
3
 72
8
 73
4
 74
0
 40
0
 40
0
 40
0
 40
0
 40
1
 40
1
 40
1
 40
1
 10
128.034144
 20
103.137751
 30
0.0
 10
127.089549
 20
102.193156
 30
0.0
 10
126.218772
 20
102.140542
 30
0.0
 10
125.234680
 20
102.968601
 30
0.0
  0
LWPOLYLINE
  5
338
100
AcDbEntity
  8
0
 62
7
100
AcDbPolyline
 90
2
 70
1
 10
75.297781
 20
161.625961
 30
0.0
 10
75.297781
 20
161.625961
 30
0.0
  0
SPLINE
  5
339
100
AcDbEntity
  8
0
 62
7
100
AcDbSpline
 70
8
 71
3
 72
8
 73
4
 74
0
 40
0
 40
0
 40
0
 40
0
 40
1
 40
1
 40
1
 40
1
 10
102.200772
 20
85.225894
 30
0.0
 10
99.630134
 20
88.707489
 30
0.0
 10
99.280153
 20
89.232930
 30
0.0
 10
99.707881
 20
88.968579
 30
0.0
  0
SPLINE
  5
33a
100
AcDbEntity
  8
0
 62
7
100
AcDbSpline
 70
8
 71
3
 72
8
 73
4
 74
0
 40
0
 40
0
 40
0
 40
0
 40
1
 40
1
 40
1
 40
1
 10
99.707881
 20
88.968579
 30
0.0
 10
99.835662
 20
88.889604
 30
0.0
 10
99.977942
 20
88.938186
 30
0.0
 10
100.024060
 20
89.076534
 30
0.0
  0
SPLINE
  5
33b
100
AcDbEntity
  8
0
 62
7
100
AcDbSpline
 70
8
 71
3
 72
8
 73
4
 74
0
 40
0
 40
0
 40
0
 40
0
 40
1
 40
1
 40
1
 40
1
 10
100.024060
 20
89.076534
 30
0.0
 10
100.070175
 20
89.214882
 30
0.0
 10
101.176331
 20
87.822096
 30
0.0
 10
102.482184
 20
85.981448
 30
0.0
  0
SPLINE
  5
33c
100
AcDbEntity
  8
0
 62
7
100
AcDbSpline
 70
8
 71
3
 72
8
 73
4
 74
0
 40
0
 40
0
 40
0
 40
0
 40
1
 40
1
 40
1
 40
1
 10
102.482184
 20
85.981448
 30
0.0
 10
103.788038
 20
84.140803
 30
0.0
 10
104.960191
 20
82.570714
 30
0.0
 10
105.086966
 20
82.492363
 30
0.0
  0
SPLINE
  5
33d
100
AcDbEntity
  8
0
 62
7
100
AcDbSpline
 70
8
 71
3
 72
8
 73
4
 74
0
 40
0
 40
0
 40
0
 40
0
 40
1
 40
1
 40
1
 40
1
 10
105.086966
 20
82.492363
 30
0.0
 10
105.400780
 20
82.298414
 30
0.0
 10
105.377028
 20
82.001683
 30
0.0
 10
105.037252
 20
81.871299
 30
0.0
  0
SPLINE
  5
33e
100
AcDbEntity
  8
0
 62
7
100
AcDbSpline
 70
8
 71
3
 72
8
 73
4
 74
0
 40
0
 40
0
 40
0
 40
0
 40
1
 40
1
 40
1
 40
1
 10
105.037252
 20
81.871299
 30
0.0
 10
104.870292
 20
81.807232
 30
0.0
 10
103.723852
 20
83.163084
 30
0.0
 10
102.200772
 20
85.225894
 30
0.0
  0
LWPOLYLINE
  5
33f
100
AcDbEntity
  8
0
 62
7
100
AcDbPolyline
 90
2
 70
1
 10
125.234680
 20
102.968601
 30
0.0
 10
125.234680
 20
102.968601
 30
0.0
  0
SPLINE
  5
340
100
AcDbEntity
  8
0
 62
7
100
AcDbSpline
 70
8
 71
3
 72
8
 73
4
 74
0
 40
0
 40
0
 40
0
 40
0
 40
1
 40
1
 40
1
 40
1
 10
120.775507
 20
76.152783
 30
0.0
 10
120.691780
 20
76.288261
 30
0.0
 10
120.666019
 20
76.441849
 30
0.0
 10
120.718261
 20
76.494091
 30
0.0
  0
SPLINE
  5
341
100
AcDbEntity
  8
0
 62
7
100
AcDbSpline
 70
8
 71
3
 72
8
 73
4
 74
0
 40
0
 40
0
 40
0
 40
0
 40
1
 40
1
 40
1
 40
1
 10
120.718261
 20
76.494091
 30
0.0
 10
120.770503
 20
76.546333
 30
0.0
 10
122.157055
 20
76.982691
 30
0.0
 10
123.799487
 20
77.463773
 30
0.0
  0
SPLINE
  5
342
100
AcDbEntity
  8
0
 62
7
100
AcDbSpline
 70
8
 71
3
 72
8
 73
4
 74
0
 40
0
 40
0
 40
0
 40
0
 40
1
 40
1
 40
1
 40
1
 10
123.799487
 20
77.463773
 30
0.0
 10
130.255239
 20
79.354721
 30
0.0
 10
136.782014
 20
81.861752
 30
0.0
 10
141.807229
 20
84.380814
 30
0.0
  0
SPLINE
  5
343
100
AcDbEntity
  8
0
 62
7
100
AcDbSpline
 70
8
 71
3
 72
8
 73
4
 74
0
 40
0
 40
0
 40
0
 40
0
 40
1
 40
1
 40
1
 40
1
 10
141.807229
 20
84.380814
 30
0.0
 10
145.275991
 20
86.119652
 30
0.0
 10
147.268901
 20
87.313721
 30
0.0
 10
152.653760
 20
90.879615
 30
0.0
  0
LWPOLYLINE
  5
344
100
AcDbEntity
  8
0
 62
7
100
AcDbPolyline
 90
2
 70
1
 10
102.200772
 20
85.225894
 30
0.0
 10
102.200772
 20
85.225894
 30
0.0
  0
SPLINE
  5
345
100
AcDbEntity
  8
0
 62
7
100
AcDbSpline
 70
8
 71
3
 72
8
 73
4
 74
0
 40
0
 40
0
 40
0
 40
0
 40
1
 40
1
 40
1
 40
1
 10
165.885444
 20
91.789548
 30
0.0
 10
177.064314
 20
89.126702
 30
0.0
 10
187.407152
 20
86.440796
 30
0.0
 10
188.121829
 20
86.015030
 30
0.0
  0
SPLINE
  5
346
100
AcDbEntity
  8
0
 62
7
100
AcDbSpline
 70
8
 71
3
 72
8
 73
4
 74
0
 40
0
 40
0
 40
0
 40
0
 40
1
 40
1
 40
1
 40
1
 10
188.121829
 20
86.015030
 30
0.0
 10
188.208254
 20
85.963544
 30
0.0
 10
188.228413
 20
85.789689
 30
0.0
 10
188.166632
 20
85.628687
 30
0.0
  0
SPLINE
  5
347
100
AcDbEntity
  8
0
 62
7
100
AcDbSpline
 70
8
 71
3
 72
8
 73
4
 74
0
 40
0
 40
0
 40
0
 40
0
 40
1
 40
1
 40
1
 40
1
 10
188.166632
 20
85.628687
 30
0.0
 10
188.078954
 20
85.400203
 30
0.0
 10
187.580634
 20
85.478280
 30
0.0
 10
185.896041
 20
85.984448
 30
0.0
  0
SPLINE
  5
348
100
AcDbEntity
  8
0
 62
7
100
AcDbSpline
 70
8
 71
3
 72
8
 73
4
 74
0
 40
0
 40
0
 40
0
 40
0
 40
1
 40
1
 40
1
 40
1
 10
185.896041
 20
85.984448
 30
0.0
 10
183.536906
 20
86.693292
 30
0.0
 10
170.971111
 20
89.973606
 30
0.0
 10
170.612113
 20
89.974334
 30
0.0
  0
SPLINE
  5
349
100
AcDbEntity
  8
0
 62
7
100
AcDbSpline
 70
8
 71
3
 72
8
 73
4
 74
0
 40
0
 40
0
 40
0
 40
0
 40
1
 40
1
 40
1
 40
1
 10
170.612113
 20
89.974334
 30
0.0
 10
170.489753
 20
89.974579
 30
0.0
 10
165.934703
 20
89.654350
 30
0.0
 10
160.489773
 20
89.262708
 30
0.0
  0
LWPOLYLINE
  5
34a
100
AcDbEntity
  8
0
 62
7
100
AcDbPolyline
 90
3
 70
1
 10
152.653760
 20
90.879615
 30
0.0
 10
157.164778
 20
93.866842
 30
0.0
 10
165.885444
 20
91.789548
 30
0.0
  0
SPLINE
  5
34b
100
AcDbEntity
  8
0
 62
7
100
AcDbSpline
 70
8
 71
3
 72
8
 73
4
 74
0
 40
0
 40
0
 40
0
 40
0
 40
1
 40
1
 40
1
 40
1
 10
147.809043
 20
86.888169
 30
0.0
 10
140.388696
 20
82.452115
 30
0.0
 10
133.148282
 20
79.482488
 30
0.0
 10
121.298341
 20
76.014912
 30
0.0
  0
SPLINE
  5
34c
100
AcDbEntity
  8
0
 62
7
100
AcDbSpline
 70
8
 71
3
 72
8
 73
4
 74
0
 40
0
 40
0
 40
0
 40
0
 40
1
 40
1
 40
1
 40
1
 10
121.298341
 20
76.014912
 30
0.0
 10
121.094511
 20
75.955264
 30
0.0
 10
120.859237
 20
76.017169
 30
0.0
 10
120.775507
 20
76.152783
 30
0.0
  0
LWPOLYLINE
  5
34d
100
AcDbEntity
  8
0
 62
7
100
AcDbPolyline
 90
3
 70
1
 10
160.489773
 20
89.262708
 30
0.0
 10
150.589906
 20
88.550633
 30
0.0
 10
147.809043
 20
86.888169
 30
0.0
  0
SPLINE
  5
34e
100
AcDbEntity
  8
0
 62
7
100
AcDbSpline
 70
8
 71
3
 72
8
 73
4
 74
0
 40
0
 40
0
 40
0
 40
0
 40
1
 40
1
 40
1
 40
1
 10
160.567181
 20
89.946047
 30
0.0
 10
163.974599
 20
90.187496
 30
0.0
 10
166.972925
 20
90.385046
 30
0.0
 10
167.230129
 20
90.385046
 30
0.0
  0
SPLINE
  5
34f
100
AcDbEntity
  8
0
 62
7
100
AcDbSpline
 70
8
 71
3
 72
8
 73
4
 74
0
 40
0
 40
0
 40
0
 40
0
 40
1
 40
1
 40
1
 40
1
 10
167.230129
 20
90.385046
 30
0.0
 10
168.416887
 20
90.385046
 30
0.0
 10
166.894358
 20
90.863390
 30
0.0
 10
162.256693
 20
91.947586
 30
0.0
  0
LWPOLYLINE
  5
350
100
AcDbEntity
  8
0
 62
7
100
AcDbPolyline
 90
2
 70
1
 10
120.775507
 20
76.152783
 30
0.0
 10
120.775507
 20
76.152783
 30
0.0
  0
SPLINE
  5
351
100
AcDbEntity
  8
0
 62
7
100
AcDbSpline
 70
8
 71
3
 72
8
 73
4
 74
0
 40
0
 40
0
 40
0
 40
0
 40
1
 40
1
 40
1
 40
1
 10
154.525895
 20
91.303586
 30
0.0
 10
153.034069
 20
90.304125
 30
0.0
 10
151.813483
 20
89.433336
 30
0.0
 10
151.813483
 20
89.368496
 30
0.0
  0
SPLINE
  5
352
100
AcDbEntity
  8
0
 62
7
100
AcDbSpline
 70
8
 71
3
 72
8
 73
4
 74
0
 40
0
 40
0
 40
0
 40
0
 40
1
 40
1
 40
1
 40
1
 10
151.813483
 20
89.368496
 30
0.0
 10
151.813483
 20
89.303658
 30
0.0
 10
152.389123
 20
89.308306
 30
0.0
 10
153.092681
 20
89.378825
 30
0.0
  0
SPLINE
  5
353
100
AcDbEntity
  8
0
 62
7
100
AcDbSpline
 70
8
 71
3
 72
8
 73
4
 74
0
 40
0
 40
0
 40
0
 40
0
 40
1
 40
1
 40
1
 40
1
 10
153.092681
 20
89.378825
 30
0.0
 10
153.796238
 20
89.449344
 30
0.0
 10
157.159765
 20
89.704594
 30
0.0
 10
160.567181
 20
89.946044
 30
0.0
  0
LWPOLYLINE
  5
354
100
AcDbEntity
  8
0
 62
7
100
AcDbPolyline
 90
3
 70
1
 10
162.256693
 20
91.947586
 30
0.0
 10
157.238308
 20
93.120787
 30
0.0
 10
154.525895
 20
91.303586
 30
0.0
  0
SPLINE
  5
355
100
AcDbEntity
  8
0
 62
7
100
AcDbSpline
 70
8
 71
3
 72
8
 73
4
 74
0
 40
0
 40
0
 40
0
 40
0
 40
1
 40
1
 40
1
 40
1
 10
120.769913
 20
76.161834
 30
0.0
 10
120.689263
 20
76.292330
 30
0.0
 10
120.663439
 20
76.439267
 30
0.0
 10
120.712529
 20
76.488359
 30
0.0
  0
SPLINE
  5
356
100
AcDbEntity
  8
0
 62
7
100
AcDbSpline
 70
8
 71
3
 72
8
 73
4
 74
0
 40
0
 40
0
 40
0
 40
0
 40
1
 40
1
 40
1
 40
1
 10
120.712529
 20
76.488359
 30
0.0
 10
120.761619
 20
76.537449
 30
0.0
 10
122.616660
 20
77.129212
 30
0.0
 10
124.834842
 20
77.803390
 30
0.0
  0
SPLINE
  5
357
100
AcDbEntity
  8
0
 62
7
100
AcDbSpline
 70
8
 71
3
 72
8
 73
4
 74
0
 40
0
 40
0
 40
0
 40
0
 40
1
 40
1
 40
1
 40
1
 10
124.834842
 20
77.803390
 30
0.0
 10
132.018535
 20
79.986743
 30
0.0
 10
138.756881
 20
82.704896
 30
0.0
 10
143.954192
 20
85.515869
 30
0.0
  0
SPLINE
  5
358
100
AcDbEntity
  8
0
 62
7
100
AcDbSpline
 70
8
 71
3
 72
8
 73
4
 74
0
 40
0
 40
0
 40
0
 40
0
 40
1
 40
1
 40
1
 40
1
 10
143.954192
 20
85.515869
 30
0.0
 10
146.294105
 20
86.781413
 30
0.0
 10
156.252195
 20
93.179458
 30
0.0
 10
156.819036
 20
93.781492
 30
0.0
  0
SPLINE
  5
359
100
AcDbEntity
  8
0
 62
7
100
AcDbSpline
 70
8
 71
3
 72
8
 73
4
 74
0
 40
0
 40
0
 40
0
 40
0
 40
1
 40
1
 40
1
 40
1
 10
156.819036
 20
93.781492
 30
0.0
 10
157.206772
 20
94.193305
 30
0.0
 10
154.943864
 20
92.843933
 30
0.0
 10
150.917673
 20
90.262517
 30
0.0
  0
SPLINE
  5
35a
100
AcDbEntity
  8
0
 62
7
100
AcDbSpline
 70
8
 71
3
 72
8
 73
4
 74
0
 40
0
 40
0
 40
0
 40
0
 40
1
 40
1
 40
1
 40
1
 10
150.917673
 20
90.262517
 30
0.0
 10
146.710756
 20
87.565229
 30
0.0
 10
142.521898
 20
85.141992
 30
0.0
 10
142.354895
 20
85.308994
 30
0.0
  0
SPLINE
  5
35b
100
AcDbEntity
  8
0
 62
7
100
AcDbSpline
 70
8
 71
3
 72
8
 73
4
 74
0
 40
0
 40
0
 40
0
 40
0
 40
1
 40
1
 40
1
 40
1
 10
142.354895
 20
85.308994
 30
0.0
 10
142.297920
 20
85.365970
 30
0.0
 10
143.526823
 20
86.275518
 30
0.0
 10
145.085791
 20
87.330208
 30
0.0
  0
SPLINE
  5
35c
100
AcDbEntity
  8
0
 62
7
100
AcDbSpline
 70
8
 71
3
 72
8
 73
4
 74
0
 40
0
 40
0
 40
0
 40
0
 40
1
 40
1
 40
1
 40
1
 10
145.085791
 20
87.330208
 30
0.0
 10
149.278642
 20
90.166807
 30
0.0
 10
152.989986
 20
93.112608
 30
0.0
 10
155.377030
 20
95.498667
 30
0.0
  0
SPLINE
  5
35d
100
AcDbEntity
  8
0
 62
7
100
AcDbSpline
 70
8
 71
3
 72
8
 73
4
 74
0
 40
0
 40
0
 40
0
 40
0
 40
1
 40
1
 40
1
 40
1
 10
155.377030
 20
95.498667
 30
0.0
 10
157.216094
 20
97.336967
 30
0.0
 10
157.659189
 20
97.937070
 30
0.0
 10
158.746760
 20
100.062446
 30
0.0
  0
SPLINE
  5
35e
100
AcDbEntity
  8
0
 62
7
100
AcDbSpline
 70
8
 71
3
 72
8
 73
4
 74
0
 40
0
 40
0
 40
0
 40
0
 40
1
 40
1
 40
1
 40
1
 10
158.746760
 20
100.062446
 30
0.0
 10
160.091950
 20
102.691270
 30
0.0
 10
161.338903
 20
105.862855
 30
0.0
 10
161.933805
 20
108.168605
 30
0.0
  0
SPLINE
  5
35f
100
AcDbEntity
  8
0
 62
7
100
AcDbSpline
 70
8
 71
3
 72
8
 73
4
 74
0
 40
0
 40
0
 40
0
 40
0
 40
1
 40
1
 40
1
 40
1
 10
161.933805
 20
108.168605
 30
0.0
 10
163.267099
 20
113.336238
 30
0.0
 10
161.444920
 20
116.863451
 30
0.0
 10
151.671624
 20
128.033228
 30
0.0
  0
SPLINE
  5
360
100
AcDbEntity
  8
0
 62
7
100
AcDbSpline
 70
8
 71
3
 72
8
 73
4
 74
0
 40
0
 40
0
 40
0
 40
0
 40
1
 40
1
 40
1
 40
1
 10
151.671624
 20
128.033228
 30
0.0
 10
147.227171
 20
133.112734
 30
0.0
 10
145.584353
 20
135.270239
 30
0.0
 10
145.584353
 20
136.027585
 30
0.0
  0
SPLINE
  5
361
100
AcDbEntity
  8
0
 62
7
100
AcDbSpline
 70
8
 71
3
 72
8
 73
4
 74
0
 40
0
 40
0
 40
0
 40
0
 40
1
 40
1
 40
1
 40
1
 10
145.584353
 20
136.027585
 30
0.0
 10
145.584353
 20
136.517551
 30
0.0
 10
145.866011
 20
137.107971
 30
0.0
 10
147.371150
 20
139.773159
 30
0.0
  0
SPLINE
  5
362
100
AcDbEntity
  8
0
 62
7
100
AcDbSpline
 70
8
 71
3
 72
8
 73
4
 74
0
 40
0
 40
0
 40
0
 40
0
 40
1
 40
1
 40
1
 40
1
 10
147.371150
 20
139.773159
 30
0.0
 10
148.735869
 20
142.189701
 30
0.0
 10
148.913269
 20
142.959487
 30
0.0
 10
148.211419
 20
143.419357
 30
0.0
  0
SPLINE
  5
363
100
AcDbEntity
  8
0
 62
7
100
AcDbSpline
 70
8
 71
3
 72
8
 73
4
 74
0
 40
0
 40
0
 40
0
 40
0
 40
1
 40
1
 40
1
 40
1
 10
148.211419
 20
143.419357
 30
0.0
 10
147.927379
 20
143.605466
 30
0.0
 10
146.143901
 20
144.037263
 30
0.0
 10
144.248130
 20
144.378907
 30
0.0
  0
SPLINE
  5
364
100
AcDbEntity
  8
0
 62
7
100
AcDbSpline
 70
8
 71
3
 72
8
 73
4
 74
0
 40
0
 40
0
 40
0
 40
0
 40
1
 40
1
 40
1
 40
1
 10
144.248130
 20
144.378907
 30
0.0
 10
141.200700
 20
144.928095
 30
0.0
 10
140.914961
 20
145.015313
 30
0.0
 10
141.782360
 20
145.131549
 30
0.0
  0
SPLINE
  5
365
100
AcDbEntity
  8
0
 62
7
100
AcDbSpline
 70
8
 71
3
 72
8
 73
4
 74
0
 40
0
 40
0
 40
0
 40
0
 40
1
 40
1
 40
1
 40
1
 10
141.782360
 20
145.131549
 30
0.0
 10
142.982123
 20
145.292322
 30
0.0
 10
143.310545
 20
145.666902
 30
0.0
 10
144.250760
 20
147.946851
 30
0.0
  0
SPLINE
  5
366
100
AcDbEntity
  8
0
 62
7
100
AcDbSpline
 70
8
 71
3
 72
8
 73
4
 74
0
 40
0
 40
0
 40
0
 40
0
 40
1
 40
1
 40
1
 40
1
 10
144.250760
 20
147.946851
 30
0.0
 10
144.642276
 20
148.896249
 30
0.0
 10
145.303384
 20
150.115777
 30
0.0
 10
145.719887
 20
150.656915
 30
0.0
  0
SPLINE
  5
367
100
AcDbEntity
  8
0
 62
7
100
AcDbSpline
 70
8
 71
3
 72
8
 73
4
 74
0
 40
0
 40
0
 40
0
 40
0
 40
1
 40
1
 40
1
 40
1
 10
145.719887
 20
150.656915
 30
0.0
 10
147.934243
 20
153.533894
 30
0.0
 10
153.040083
 20
155.847893
 30
0.0
 10
164.154276
 20
159.011500
 30
0.0
  0
SPLINE
  5
368
100
AcDbEntity
  8
0
 62
7
100
AcDbSpline
 70
8
 71
3
 72
8
 73
4
 74
0
 40
0
 40
0
 40
0
 40
0
 40
1
 40
1
 40
1
 40
1
 10
164.154276
 20
159.011500
 30
0.0
 10
168.793589
 20
160.332060
 30
0.0
 10
174.503297
 20
161.799570
 30
0.0
 10
174.980806
 20
161.794138
 30
0.0
  0
SPLINE
  5
369
100
AcDbEntity
  8
0
 62
7
100
AcDbSpline
 70
8
 71
3
 72
8
 73
4
 74
0
 40
0
 40
0
 40
0
 40
0
 40
1
 40
1
 40
1
 40
1
 10
174.980806
 20
161.794138
 30
0.0
 10
175.147540
 20
161.792162
 30
0.0
 10
174.583183
 20
161.407744
 30
0.0
 10
173.726678
 20
160.939707
 30
0.0
  0
LWPOLYLINE
  5
36a
100
AcDbEntity
  8
0
 62
7
100
AcDbPolyline
 90
2
 70
1
 10
160.567181
 20
89.946044
 30
0.0
 10
160.567181
 20
89.946047
 30
0.0
  0
SPLINE
  5
36b
100
AcDbEntity
  8
0
 62
7
100
AcDbSpline
 70
8
 71
3
 72
8
 73
4
 74
0
 40
0
 40
0
 40
0
 40
0
 40
1
 40
1
 40
1
 40
1
 10
172.176677
 20
158.981841
 30
0.0
 10
172.181898
 20
158.191450
 30
0.0
 10
172.321784
 20
157.699754
 30
0.0
 10
172.665949
 20
157.262219
 30
0.0
  0
SPLINE
  5
36c
100
AcDbEntity
  8
0
 62
7
100
AcDbSpline
 70
8
 71
3
 72
8
 73
4
 74
0
 40
0
 40
0
 40
0
 40
0
 40
1
 40
1
 40
1
 40
1
 10
172.665949
 20
157.262219
 30
0.0
 10
173.213006
 20
156.566750
 30
0.0
 10
173.508656
 20
155.044370
 30
0.0
 10
173.289999
 20
154.048828
 30
0.0
  0
SPLINE
  5
36d
100
AcDbEntity
  8
0
 62
7
100
AcDbSpline
 70
8
 71
3
 72
8
 73
4
 74
0
 40
0
 40
0
 40
0
 40
0
 40
1
 40
1
 40
1
 40
1
 10
173.289999
 20
154.048828
 30
0.0
 10
173.037952
 20
152.901262
 30
0.0
 10
171.849375
 20
151.377677
 30
0.0
 10
170.198491
 20
150.085948
 30
0.0
  0
SPLINE
  5
36e
100
AcDbEntity
  8
0
 62
7
100
AcDbSpline
 70
8
 71
3
 72
8
 73
4
 74
0
 40
0
 40
0
 40
0
 40
0
 40
1
 40
1
 40
1
 40
1
 10
170.198491
 20
150.085948
 30
0.0
 10
168.231916
 20
148.547208
 30
0.0
 10
163.622524
 20
146.275203
 30
0.0
 10
160.378527
 20
145.245612
 30
0.0
  0
SPLINE
  5
36f
100
AcDbEntity
  8
0
 62
7
100
AcDbSpline
 70
8
 71
3
 72
8
 73
4
 74
0
 40
0
 40
0
 40
0
 40
0
 40
1
 40
1
 40
1
 40
1
 10
160.378527
 20
145.245612
 30
0.0
 10
159.032589
 20
144.818434
 30
0.0
 10
157.130479
 20
144.214603
 30
0.0
 10
156.151617
 20
143.903766
 30
0.0
  0
SPLINE
  5
370
100
AcDbEntity
  8
0
 62
7
100
AcDbSpline
 70
8
 71
3
 72
8
 73
4
 74
0
 40
0
 40
0
 40
0
 40
0
 40
1
 40
1
 40
1
 40
1
 10
156.151617
 20
143.903766
 30
0.0
 10
155.172754
 20
143.592930
 30
0.0
 10
154.597114
 20
143.377952
 30
0.0
 10
154.872419
 20
143.426043
 30
0.0
  0
SPLINE
  5
371
100
AcDbEntity
  8
0
 62
7
100
AcDbSpline
 70
8
 71
3
 72
8
 73
4
 74
0
 40
0
 40
0
 40
0
 40
0
 40
1
 40
1
 40
1
 40
1
 10
154.872419
 20
143.426043
 30
0.0
 10
155.229410
 20
143.488397
 30
0.0
 10
155.372977
 20
143.405074
 30
0.0
 10
155.372977
 20
143.135507
 30
0.0
  0
SPLINE
  5
372
100
AcDbEntity
  8
0
 62
7
100
AcDbSpline
 70
8
 71
3
 72
8
 73
4
 74
0
 40
0
 40
0
 40
0
 40
0
 40
1
 40
1
 40
1
 40
1
 10
155.372977
 20
143.135507
 30
0.0
 10
155.372977
 20
142.878961
 30
0.0
 10
155.069235
 20
142.676004
 30
0.0
 10
154.427482
 20
142.503741
 30
0.0
  0
SPLINE
  5
373
100
AcDbEntity
  8
0
 62
7
100
AcDbSpline
 70
8
 71
3
 72
8
 73
4
 74
0
 40
0
 40
0
 40
0
 40
0
 40
1
 40
1
 40
1
 40
1
 10
154.427482
 20
142.503741
 30
0.0
 10
152.564665
 20
142.003705
 30
0.0
 10
150.842774
 20
139.993261
 30
0.0
 10
150.031436
 20
137.371005
 30
0.0
  0
SPLINE
  5
374
100
AcDbEntity
  8
0
 62
7
100
AcDbSpline
 70
8
 71
3
 72
8
 73
4
 74
0
 40
0
 40
0
 40
0
 40
0
 40
1
 40
1
 40
1
 40
1
 10
150.031436
 20
137.371005
 30
0.0
 10
149.815556
 20
136.673284
 30
0.0
 10
149.577589
 20
136.127449
 30
0.0
 10
149.502619
 20
136.158036
 30
0.0
  0
SPLINE
  5
375
100
AcDbEntity
  8
0
 62
7
100
AcDbSpline
 70
8
 71
3
 72
8
 73
4
 74
0
 40
0
 40
0
 40
0
 40
0
 40
1
 40
1
 40
1
 40
1
 10
149.502619
 20
136.158036
 30
0.0
 10
149.427652
 20
136.188626
 30
0.0
 10
149.271601
 20
136.213654
 30
0.0
 10
149.155836
 20
136.213654
 30
0.0
  0
SPLINE
  5
376
100
AcDbEntity
  8
0
 62
7
100
AcDbSpline
 70
8
 71
3
 72
8
 73
4
 74
0
 40
0
 40
0
 40
0
 40
0
 40
1
 40
1
 40
1
 40
1
 10
149.155836
 20
136.213654
 30
0.0
 10
148.894518
 20
136.213654
 30
0.0
 10
149.482353
 20
138.244288
 30
0.0
 10
150.087674
 20
139.432630
 30
0.0
  0
SPLINE
  5
377
100
AcDbEntity
  8
0
 62
7
100
AcDbSpline
 70
8
 71
3
 72
8
 73
4
 74
0
 40
0
 40
0
 40
0
 40
0
 40
1
 40
1
 40
1
 40
1
 10
150.087674
 20
139.432630
 30
0.0
 10
150.817628
 20
140.865647
 30
0.0
 10
151.412857
 20
141.561914
 30
0.0
 10
152.589143
 20
142.358715
 30
0.0
  0
SPLINE
  5
378
100
AcDbEntity
  8
0
 62
7
100
AcDbSpline
 70
8
 71
3
 72
8
 73
4
 74
0
 40
0
 40
0
 40
0
 40
0
 40
1
 40
1
 40
1
 40
1
 10
152.589143
 20
142.358715
 30
0.0
 10
153.807129
 20
143.183764
 30
0.0
 10
153.820481
 20
143.275396
 30
0.0
 10
152.651542
 20
142.786982
 30
0.0
  0
SPLINE
  5
379
100
AcDbEntity
  8
0
 62
7
100
AcDbSpline
 70
8
 71
3
 72
8
 73
4
 74
0
 40
0
 40
0
 40
0
 40
0
 40
1
 40
1
 40
1
 40
1
 10
152.651542
 20
142.786982
 30
0.0
 10
151.703857
 20
142.391016
 30
0.0
 10
150.665451
 20
141.239332
 30
0.0
 10
149.907515
 20
139.743613
 30
0.0
  0
SPLINE
  5
37a
100
AcDbEntity
  8
0
 62
7
100
AcDbSpline
 70
8
 71
3
 72
8
 73
4
 74
0
 40
0
 40
0
 40
0
 40
0
 40
1
 40
1
 40
1
 40
1
 10
149.907515
 20
139.743613
 30
0.0
 10
149.209732
 20
138.366606
 30
0.0
 10
148.476437
 20
135.583802
 30
0.0
 10
148.476437
 20
134.312763
 30
0.0
  0
SPLINE
  5
37b
100
AcDbEntity
  8
0
 62
7
100
AcDbSpline
 70
8
 71
3
 72
8
 73
4
 74
0
 40
0
 40
0
 40
0
 40
0
 40
1
 40
1
 40
1
 40
1
 10
148.476437
 20
134.312763
 30
0.0
 10
148.476437
 20
133.393706
 30
0.0
 10
148.548996
 20
133.302834
 30
0.0
 10
151.757854
 20
130.203066
 30
0.0
  0
SPLINE
  5
37c
100
AcDbEntity
  8
0
 62
7
100
AcDbSpline
 70
8
 71
3
 72
8
 73
4
 74
0
 40
0
 40
0
 40
0
 40
0
 40
1
 40
1
 40
1
 40
1
 10
151.757854
 20
130.203066
 30
0.0
 10
156.100286
 20
126.008264
 30
0.0
 10
159.305399
 20
122.525419
 30
0.0
 10
160.961821
 20
120.201553
 30
0.0
  0
SPLINE
  5
37d
100
AcDbEntity
  8
0
 62
7
100
AcDbSpline
 70
8
 71
3
 72
8
 73
4
 74
0
 40
0
 40
0
 40
0
 40
0
 40
1
 40
1
 40
1
 40
1
 10
160.961821
 20
120.201553
 30
0.0
 10
163.556242
 20
116.561730
 30
0.0
 10
164.367580
 20
114.335019
 30
0.0
 10
164.368424
 20
110.852191
 30
0.0
  0
SPLINE
  5
37e
100
AcDbEntity
  8
0
 62
7
100
AcDbSpline
 70
8
 71
3
 72
8
 73
4
 74
0
 40
0
 40
0
 40
0
 40
0
 40
1
 40
1
 40
1
 40
1
 10
164.368424
 20
110.852191
 30
0.0
 10
164.369270
 20
106.938841
 30
0.0
 10
163.367215
 20
104.434830
 30
0.0
 10
159.535159
 20
98.775688
 30
0.0
  0
SPLINE
  5
37f
100
AcDbEntity
  8
0
 62
7
100
AcDbSpline
 70
8
 71
3
 72
8
 73
4
 74
0
 40
0
 40
0
 40
0
 40
0
 40
1
 40
1
 40
1
 40
1
 10
159.535159
 20
98.775688
 30
0.0
 10
157.929995
 20
96.405205
 30
0.0
 10
157.373060
 20
95.414980
 30
0.0
 10
157.547093
 20
95.240948
 30
0.0
  0
SPLINE
  5
380
100
AcDbEntity
  8
0
 62
7
100
AcDbSpline
 70
8
 71
3
 72
8
 73
4
 74
0
 40
0
 40
0
 40
0
 40
0
 40
1
 40
1
 40
1
 40
1
 10
157.547093
 20
95.240948
 30
0.0
 10
158.081303
 20
94.706738
 30
0.0
 10
162.079900
 20
93.763153
 30
0.0
 10
187.186039
 20
88.246787
 30
0.0
  0
SPLINE
  5
381
100
AcDbEntity
  8
0
 62
7
100
AcDbSpline
 70
8
 71
3
 72
8
 73
4
 74
0
 40
0
 40
0
 40
0
 40
0
 40
1
 40
1
 40
1
 40
1
 10
187.186039
 20
88.246787
 30
0.0
 10
189.694377
 20
87.695649
 30
0.0
 10
192.538548
 20
87.035001
 30
0.0
 10
193.506417
 20
86.778678
 30
0.0
  0
LWPOLYLINE
  5
382
100
AcDbEntity
  8
0
 62
7
100
AcDbPolyline
 90
3
 70
1
 10
173.726678
 20
160.939707
 30
0.0
 10
172.169396
 20
160.088725
 30
0.0
 10
172.176677
 20
158.981841
 30
0.0
  0
SPLINE
  5
383
100
AcDbEntity
  8
0
 62
7
100
AcDbSpline
 70
8
 71
3
 72
8
 73
4
 74
0
 40
0
 40
0
 40
0
 40
0
 40
1
 40
1
 40
1
 40
1
 10
194.173825
 20
85.880212
 30
0.0
 10
192.703803
 20
85.298290
 30
0.0
 10
192.168918
 20
85.381534
 30
0.0
 10
185.295052
 20
87.262017
 30
0.0
  0
SPLINE
  5
384
100
AcDbEntity
  8
0
 62
7
100
AcDbSpline
 70
8
 71
3
 72
8
 73
4
 74
0
 40
0
 40
0
 40
0
 40
0
 40
1
 40
1
 40
1
 40
1
 10
185.295052
 20
87.262017
 30
0.0
 10
175.080230
 20
90.056489
 30
0.0
 10
157.464599
 20
94.330578
 30
0.0
 10
157.210266
 20
94.076245
 30
0.0
  0
SPLINE
  5
385
100
AcDbEntity
  8
0
 62
7
100
AcDbSpline
 70
8
 71
3
 72
8
 73
4
 74
0
 40
0
 40
0
 40
0
 40
0
 40
1
 40
1
 40
1
 40
1
 10
157.210266
 20
94.076245
 30
0.0
 10
157.037964
 20
93.903942
 30
0.0
 10
157.058064
 20
93.898549
 30
0.0
 10
163.938032
 20
92.270212
 30
0.0
  0
SPLINE
  5
386
100
AcDbEntity
  8
0
 62
7
100
AcDbSpline
 70
8
 71
3
 72
8
 73
4
 74
0
 40
0
 40
0
 40
0
 40
0
 40
1
 40
1
 40
1
 40
1
 10
163.938032
 20
92.270212
 30
0.0
 10
175.463367
 20
89.542424
 30
0.0
 10
187.412799
 20
86.456730
 30
0.0
 10
188.103140
 20
86.030075
 30
0.0
  0
SPLINE
  5
387
100
AcDbEntity
  8
0
 62
7
100
AcDbSpline
 70
8
 71
3
 72
8
 73
4
 74
0
 40
0
 40
0
 40
0
 40
0
 40
1
 40
1
 40
1
 40
1
 10
188.103140
 20
86.030075
 30
0.0
 10
188.199835
 20
85.970315
 30
0.0
 10
188.228117
 20
85.788944
 30
0.0
 10
188.165986
 20
85.627031
 30
0.0
  0
SPLINE
  5
388
100
AcDbEntity
  8
0
 62
7
100
AcDbSpline
 70
8
 71
3
 72
8
 73
4
 74
0
 40
0
 40
0
 40
0
 40
0
 40
1
 40
1
 40
1
 40
1
 10
188.165986
 20
85.627031
 30
0.0
 10
188.077912
 20
85.397516
 30
0.0
 10
187.479508
 20
85.500002
 30
0.0
 10
185.450455
 20
86.092110
 30
0.0
  0
SPLINE
  5
389
100
AcDbEntity
  8
0
 62
7
100
AcDbSpline
 70
8
 71
3
 72
8
 73
4
 74
0
 40
0
 40
0
 40
0
 40
0
 40
1
 40
1
 40
1
 40
1
 10
185.450455
 20
86.092110
 30
0.0
 10
184.019046
 20
86.509819
 30
0.0
 10
180.144897
 20
87.548637
 30
0.0
 10
176.841232
 20
88.400592
 30
0.0
  0
LWPOLYLINE
  5
38a
100
AcDbEntity
  8
0
 62
7
100
AcDbPolyline
 90
3
 70
1
 10
193.506417
 20
86.778678
 30
0.0
 10
195.266183
 20
86.312633
 30
0.0
 10
194.173825
 20
85.880212
 30
0.0
  0
SPLINE
  5
38b
100
AcDbEntity
  8
0
 62
7
100
AcDbSpline
 70
8
 71
3
 72
8
 73
4
 74
0
 40
0
 40
0
 40
0
 40
0
 40
1
 40
1
 40
1
 40
1
 10
147.697797
 20
86.825225
 30
0.0
 10
140.926433
 20
82.797284
 30
0.0
 10
134.152030
 20
79.898295
 30
0.0
 10
124.869386
 20
77.056201
 30
0.0
  0
SPLINE
  5
38c
100
AcDbEntity
  8
0
 62
7
100
AcDbSpline
 70
8
 71
3
 72
8
 73
4
 74
0
 40
0
 40
0
 40
0
 40
0
 40
1
 40
1
 40
1
 40
1
 10
124.869386
 20
77.056201
 30
0.0
 10
120.726731
 20
75.787833
 30
0.0
 10
120.968454
 20
75.840569
 30
0.0
 10
120.769899
 20
76.161834
 30
0.0
  0
LWPOLYLINE
  5
38d
100
AcDbEntity
  8
0
 62
7
100
AcDbPolyline
 90
5
 70
1
 10
176.841232
 20
88.400592
 30
0.0
 10
170.834569
 20
89.949606
 30
0.0
 10
160.712232
 20
89.247595
 30
0.0
 10
150.589892
 20
88.545587
 30
0.0
 10
147.697797
 20
86.825225
 30
0.0
  0
SPLINE
  5
38e
100
AcDbEntity
  8
0
 62
7
100
AcDbSpline
 70
8
 71
3
 72
8
 73
4
 74
0
 40
0
 40
0
 40
0
 40
0
 40
1
 40
1
 40
1
 40
1
 10
160.344714
 20
89.946860
 30
0.0
 10
163.752129
 20
90.187863
 30
0.0
 10
166.805517
 20
90.388089
 30
0.0
 10
167.130016
 20
90.391811
 30
0.0
  0
SPLINE
  5
38f
100
AcDbEntity
  8
0
 62
7
100
AcDbSpline
 70
8
 71
3
 72
8
 73
4
 74
0
 40
0
 40
0
 40
0
 40
0
 40
1
 40
1
 40
1
 40
1
 10
167.130016
 20
90.391811
 30
0.0
 10
168.261261
 20
90.404793
 30
0.0
 10
167.107918
 20
90.766080
 30
0.0
 10
162.148749
 20
91.952254
 30
0.0
  0
LWPOLYLINE
  5
390
100
AcDbEntity
  8
0
 62
7
100
AcDbPolyline
 90
2
 70
1
 10
120.769899
 20
76.161834
 30
0.0
 10
120.769913
 20
76.161834
 30
0.0
  0
SPLINE
  5
391
100
AcDbEntity
  8
0
 62
7
100
AcDbSpline
 70
8
 71
3
 72
8
 73
4
 74
0
 40
0
 40
0
 40
0
 40
0
 40
1
 40
1
 40
1
 40
1
 10
154.529186
 20
91.305793
 30
0.0
 10
153.035550
 20
90.305118
 30
0.0
 10
151.813483
 20
89.437431
 30
0.0
 10
151.813483
 20
89.377600
 30
0.0
  0
SPLINE
  5
392
100
AcDbEntity
  8
0
 62
7
100
AcDbSpline
 70
8
 71
3
 72
8
 73
4
 74
0
 40
0
 40
0
 40
0
 40
0
 40
1
 40
1
 40
1
 40
1
 10
151.813483
 20
89.377600
 30
0.0
 10
151.813483
 20
89.317766
 30
0.0
 10
152.339065
 20
89.322784
 30
0.0
 10
152.981446
 20
89.388748
 30
0.0
  0
SPLINE
  5
393
100
AcDbEntity
  8
0
 62
7
100
AcDbSpline
 70
8
 71
3
 72
8
 73
4
 74
0
 40
0
 40
0
 40
0
 40
0
 40
1
 40
1
 40
1
 40
1
 10
152.981446
 20
89.388748
 30
0.0
 10
153.623826
 20
89.454712
 30
0.0
 10
156.937295
 20
89.705861
 30
0.0
 10
160.344714
 20
89.946865
 30
0.0
  0
LWPOLYLINE
  5
394
100
AcDbEntity
  8
0
 62
7
100
AcDbPolyline
 90
3
 70
1
 10
162.148749
 20
91.952254
 30
0.0
 10
157.244892
 20
93.125195
 30
0.0
 10
154.529186
 20
91.305793
 30
0.0
  0
SPLINE
  5
395
100
AcDbEntity
  8
0
 62
7
100
AcDbSpline
 70
8
 71
3
 72
8
 73
4
 74
0
 40
0
 40
0
 40
0
 40
0
 40
1
 40
1
 40
1
 40
1
 10
158.893685
 20
146.570233
 30
0.0
 10
162.209393
 20
146.956028
 30
0.0
 10
165.403090
 20
147.697443
 30
0.0
 10
167.016935
 20
148.456039
 30
0.0
  0
SPLINE
  5
396
100
AcDbEntity
  8
0
 62
7
100
AcDbSpline
 70
8
 71
3
 72
8
 73
4
 74
0
 40
0
 40
0
 40
0
 40
0
 40
1
 40
1
 40
1
 40
1
 10
167.016935
 20
148.456039
 30
0.0
 10
169.109573
 20
149.439696
 30
0.0
 10
171.412402
 20
152.085270
 30
0.0
 10
171.380988
 20
153.469621
 30
0.0
  0
SPLINE
  5
397
100
AcDbEntity
  8
0
 62
7
100
AcDbSpline
 70
8
 71
3
 72
8
 73
4
 74
0
 40
0
 40
0
 40
0
 40
0
 40
1
 40
1
 40
1
 40
1
 10
171.380988
 20
153.469621
 30
0.0
 10
171.375626
 20
153.706295
 30
0.0
 10
171.232937
 20
153.511988
 30
0.0
 10
171.063926
 20
153.037824
 30
0.0
  0
SPLINE
  5
398
100
AcDbEntity
  8
0
 62
7
100
AcDbSpline
 70
8
 71
3
 72
8
 73
4
 74
0
 40
0
 40
0
 40
0
 40
0
 40
1
 40
1
 40
1
 40
1
 10
171.063926
 20
153.037824
 30
0.0
 10
170.704188
 20
152.028597
 30
0.0
 10
170.408445
 20
151.679855
 30
0.0
 10
170.082941
 20
151.881031
 30
0.0
  0
SPLINE
  5
399
100
AcDbEntity
  8
0
 62
7
100
AcDbSpline
 70
8
 71
3
 72
8
 73
4
 74
0
 40
0
 40
0
 40
0
 40
0
 40
1
 40
1
 40
1
 40
1
 10
170.082941
 20
151.881031
 30
0.0
 10
169.926875
 20
151.977484
 30
0.0
 10
169.974875
 20
152.290383
 30
0.0
 10
170.226770
 20
152.818616
 30
0.0
  0
SPLINE
  5
39a
100
AcDbEntity
  8
0
 62
7
100
AcDbSpline
 70
8
 71
3
 72
8
 73
4
 74
0
 40
0
 40
0
 40
0
 40
0
 40
1
 40
1
 40
1
 40
1
 10
170.226770
 20
152.818616
 30
0.0
 10
170.632882
 20
153.670241
 30
0.0
 10
170.574730
 20
153.780522
 30
0.0
 10
169.304648
 20
154.567344
 30
0.0
  0
SPLINE
  5
39b
100
AcDbEntity
  8
0
 62
7
100
AcDbSpline
 70
8
 71
3
 72
8
 73
4
 74
0
 40
0
 40
0
 40
0
 40
0
 40
1
 40
1
 40
1
 40
1
 10
169.304648
 20
154.567344
 30
0.0
 10
169.063334
 20
154.716840
 30
0.0
 10
169.010652
 20
154.891372
 30
0.0
 10
169.144036
 20
155.099429
 30
0.0
  0
SPLINE
  5
39c
100
AcDbEntity
  8
0
 62
7
100
AcDbSpline
 70
8
 71
3
 72
8
 73
4
 74
0
 40
0
 40
0
 40
0
 40
0
 40
1
 40
1
 40
1
 40
1
 10
169.144036
 20
155.099429
 30
0.0
 10
169.306920
 20
155.353499
 30
0.0
 10
169.476358
 20
155.315515
 30
0.0
 10
170.088554
 20
154.887677
 30
0.0
  0
SPLINE
  5
39d
100
AcDbEntity
  8
0
 62
7
100
AcDbSpline
 70
8
 71
3
 72
8
 73
4
 74
0
 40
0
 40
0
 40
0
 40
0
 40
1
 40
1
 40
1
 40
1
 10
170.088554
 20
154.887677
 30
0.0
 10
170.498869
 20
154.600928
 30
0.0
 10
170.908131
 20
154.261378
 30
0.0
 10
170.998027
 20
154.133125
 30
0.0
  0
SPLINE
  5
39e
100
AcDbEntity
  8
0
 62
7
100
AcDbSpline
 70
8
 71
3
 72
8
 73
4
 74
0
 40
0
 40
0
 40
0
 40
0
 40
1
 40
1
 40
1
 40
1
 10
170.998027
 20
154.133125
 30
0.0
 10
171.111395
 20
153.971381
 30
0.0
 10
171.162517
 20
153.972386
 30
0.0
 10
171.164879
 20
154.136399
 30
0.0
  0
SPLINE
  5
39f
100
AcDbEntity
  8
0
 62
7
100
AcDbSpline
 70
8
 71
3
 72
8
 73
4
 74
0
 40
0
 40
0
 40
0
 40
0
 40
1
 40
1
 40
1
 40
1
 10
171.164879
 20
154.136399
 30
0.0
 10
171.171512
 20
154.597762
 30
0.0
 10
169.930276
 20
155.533941
 30
0.0
 10
168.943596
 20
155.811741
 30
0.0
  0
SPLINE
  5
3a0
100
AcDbEntity
  8
0
 62
7
100
AcDbSpline
 70
8
 71
3
 72
8
 73
4
 74
0
 40
0
 40
0
 40
0
 40
0
 40
1
 40
1
 40
1
 40
1
 10
168.943596
 20
155.811741
 30
0.0
 10
167.517118
 20
156.213365
 30
0.0
 10
161.623341
 20
156.147610
 30
0.0
 10
158.376318
 20
155.693845
 30
0.0
  0
SPLINE
  5
3a1
100
AcDbEntity
  8
0
 62
7
100
AcDbSpline
 70
8
 71
3
 72
8
 73
4
 74
0
 40
0
 40
0
 40
0
 40
0
 40
1
 40
1
 40
1
 40
1
 10
158.376318
 20
155.693845
 30
0.0
 10
153.788164
 20
155.052662
 30
0.0
 10
150.633365
 20
154.117863
 30
0.0
 10
148.905578
 20
152.887568
 30
0.0
  0
SPLINE
  5
3a2
100
AcDbEntity
  8
0
 62
7
100
AcDbSpline
 70
8
 71
3
 72
8
 73
4
 74
0
 40
0
 40
0
 40
0
 40
0
 40
1
 40
1
 40
1
 40
1
 10
148.905578
 20
152.887568
 30
0.0
 10
148.085361
 20
152.303521
 30
0.0
 10
147.364106
 20
150.931839
 30
0.0
 10
147.364106
 20
149.955999
 30
0.0
  0
SPLINE
  5
3a3
100
AcDbEntity
  8
0
 62
7
100
AcDbSpline
 70
8
 71
3
 72
8
 73
4
 74
0
 40
0
 40
0
 40
0
 40
0
 40
1
 40
1
 40
1
 40
1
 10
147.364106
 20
149.955999
 30
0.0
 10
147.364106
 20
148.560602
 30
0.0
 10
149.017795
 20
146.857397
 30
0.0
 10
150.780826
 20
146.436976
 30
0.0
  0
SPLINE
  5
3a4
100
AcDbEntity
  8
0
 62
7
100
AcDbSpline
 70
8
 71
3
 72
8
 73
4
 74
0
 40
0
 40
0
 40
0
 40
0
 40
1
 40
1
 40
1
 40
1
 10
150.780826
 20
146.436976
 30
0.0
 10
151.988768
 20
146.148926
 30
0.0
 10
155.812580
 20
146.211732
 30
0.0
 10
158.893685
 20
146.570230
 30
0.0
  0
LWPOLYLINE
  5
3a5
100
AcDbEntity
  8
0
 62
7
100
AcDbPolyline
 90
2
 70
1
 10
160.344714
 20
89.946865
 30
0.0
 10
160.344714
 20
89.946860
 30
0.0
  0
SPLINE
  5
3a6
100
AcDbEntity
  8
0
 62
7
100
AcDbSpline
 70
8
 71
3
 72
8
 73
4
 74
0
 40
0
 40
0
 40
0
 40
0
 40
1
 40
1
 40
1
 40
1
 10
130.233993
 20
79.938974
 30
0.0
 10
130.233993
 20
80.055848
 30
0.0
 10
130.058798
 20
80.159376
 30
0.0
 10
129.844673
 20
80.169036
 30
0.0
  0
SPLINE
  5
3a7
100
AcDbEntity
  8
0
 62
7
100
AcDbSpline
 70
8
 71
3
 72
8
 73
4
 74
0
 40
0
 40
0
 40
0
 40
0
 40
1
 40
1
 40
1
 40
1
 10
129.844673
 20
80.169036
 30
0.0
 10
129.625265
 20
80.178942
 30
0.0
 10
129.746632
 20
80.287008
 30
0.0
 10
130.122758
 20
80.416664
 30
0.0
  0
SPLINE
  5
3a8
100
AcDbEntity
  8
0
 62
7
100
AcDbSpline
 70
8
 71
3
 72
8
 73
4
 74
0
 40
0
 40
0
 40
0
 40
0
 40
1
 40
1
 40
1
 40
1
 10
130.122758
 20
80.416664
 30
0.0
 10
132.660878
 20
81.291578
 30
0.0
 10
136.981720
 20
83.090352
 30
0.0
 10
139.188371
 20
84.190692
 30
0.0
  0
SPLINE
  5
3a9
100
AcDbEntity
  8
0
 62
7
100
AcDbSpline
 70
8
 71
3
 72
8
 73
4
 74
0
 40
0
 40
0
 40
0
 40
0
 40
1
 40
1
 40
1
 40
1
 10
139.188371
 20
84.190692
 30
0.0
 10
140.626076
 20
84.907598
 30
0.0
 10
141.802381
 20
85.400615
 30
0.0
 10
141.802381
 20
85.286287
 30
0.0
  0
SPLINE
  5
3aa
100
AcDbEntity
  8
0
 62
7
100
AcDbSpline
 70
8
 71
3
 72
8
 73
4
 74
0
 40
0
 40
0
 40
0
 40
0
 40
1
 40
1
 40
1
 40
1
 10
141.802381
 20
85.286287
 30
0.0
 10
141.802381
 20
85.171959
 30
0.0
 10
141.973407
 20
85.045478
 30
0.0
 10
142.182438
 20
85.005225
 30
0.0
  0
SPLINE
  5
3ab
100
AcDbEntity
  8
0
 62
7
100
AcDbSpline
 70
8
 71
3
 72
8
 73
4
 74
0
 40
0
 40
0
 40
0
 40
0
 40
1
 40
1
 40
1
 40
1
 10
142.182438
 20
85.005225
 30
0.0
 10
142.803186
 20
84.885678
 30
0.0
 10
137.090302
 20
82.313225
 30
0.0
 10
131.624426
 20
80.251059
 30
0.0
  0
SPLINE
  5
3ac
100
AcDbEntity
  8
0
 62
7
100
AcDbSpline
 70
8
 71
3
 72
8
 73
4
 74
0
 40
0
 40
0
 40
0
 40
0
 40
1
 40
1
 40
1
 40
1
 10
131.624426
 20
80.251059
 30
0.0
 10
130.859688
 20
79.962537
 30
0.0
 10
130.233993
 20
79.822101
 30
0.0
 10
130.233993
 20
79.938974
 30
0.0
  0
LWPOLYLINE
  5
3ad
100
AcDbEntity
  8
0
 62
7
100
AcDbPolyline
 90
2
 70
1
 10
158.893685
 20
146.570230
 30
0.0
 10
158.893685
 20
146.570233
 30
0.0
  0
LWPOLYLINE
  5
3ae
100
AcDbEntity
  8
0
 62
7
100
AcDbPolyline
 90
2
 70
1
 10
130.233993
 20
79.938974
 30
0.0
 10
130.233993
 20
79.938974
 30
0.0
  0
ENDSEC
  0
SECTION
  2
OBJECTS
  0
DICTIONARY
  5
C
330
0
100
AcDbDictionary
  3
ACAD_GROUP
350
D
  3
ACAD_MLINESTYLE
350
17
  0
DICTIONARY
  5
D
330
C
100
AcDbDictionary
  0
DICTIONARY
  5
1A
330
C
100
AcDbDictionary
  0
DICTIONARY
  5
17
330
C
100
AcDbDictionary
  3
STANDARD
350
18
  0
DICTIONARY
  5
19
330
C
100
AcDbDictionary
  0
ENDSEC
  0
EOF
