  0
SECTION
  2
HEADER
  9
$ACADVER
  1
AC1014
  9
$HANDSEED
  5
FFFF
  9
$MEASUREMENT
 70
     1
  0
ENDSEC
  0
SECTION
  2
TABLES
  0
TABLE
  2
VPORT
  5
8
330
0
100
AcDbSymbolTable
 70
     4
  0
VPORT
  5
2E
330
8
100
AcDbSymbolTableRecord
100
AcDbViewportTableRecord
  2
*ACTIVE
 70
     0
 10
0.0
 20
0.0
 11
1.0
 21
1.0
 12
210.0
 22
148.5
 13
0.0
 23
0.0
 14
10.0
 24
10.0
 15
10.0
 25
10.0
 16
0.0
 26
0.0
 36
1.0
 17
0.0
 27
0.0
 37
0.0
 40
341.0
 41
1.24
 42
50.0
 43
0.0
 44
0.0
 50
0.0
 51
0.0
 71
     0
 72
   100
 73
     1
 74
     3
 75
     0
 76
     0
 77
     0
 78
     0
  0
ENDTAB
  0
TABLE
  2
LTYPE
  5
5
330
0
100
AcDbSymbolTable
 70
     1
  0
LTYPE
  5
14
330
5
100
AcDbSymbolTableRecord
100
AcDbLinetypeTableRecord
  2
BYBLOCK
 70
     0
  3

 72
    65
 73
     0
 40
0.0
  0
LTYPE
  5
15
330
5
100
AcDbSymbolTableRecord
100
AcDbLinetypeTableRecord
  2
BYLAYER
 70
     0
  3

 72
    65
 73
     0
 40
0.0
  0
LTYPE
  5
16
330
5
100
AcDbSymbolTableRecord
100
AcDbLinetypeTableRecord
  2
CONTINUOUS
 70
     0
  3
Solid line
 72
    65
 73
     0
 40
0.0
  0
ENDTAB
  0
TABLE
  2
LAYER
  5
2
100
AcDbSymbolTable
 70
2
  0
LAYER
  5
50
100
AcDbSymbolTableRecord
100
AcDbLayerTableRecord
  2
0
 70
0
  6
CONTINUOUS
  0
LAYER
  5
51
100
AcDbSymbolTableRecord
100
AcDbLayerTableRecord
  2
Layer_1
 70
0
  6
CONTINUOUS
  0
ENDTAB
  0
TABLE
  2
STYLE
  5
3
330
0
100
AcDbSymbolTable
 70
     1
  0
STYLE
  5
11
330
3
100
AcDbSymbolTableRecord
100
AcDbTextStyleTableRecord
  2
STANDARD
 70
     0
 40
0.0
 41
1.0
 50
0.0
 71
     0
 42
2.5
  3
txt
  4

  0
ENDTAB
  0
TABLE
  2
VIEW
  5
6
330
0
100
AcDbSymbolTable
 70
     0
  0
ENDTAB
  0
TABLE
  2
UCS
  5
7
330
0
100
AcDbSymbolTable
 70
     0
  0
ENDTAB
  0
TABLE
  2
APPID
  5
9
330
0
100
AcDbSymbolTable
 70
     2
  0
APPID
  5
12
330
9
100
AcDbSymbolTableRecord
100
AcDbRegAppTableRecord
  2
ACAD
 70
     0
  0
ENDTAB
  0
TABLE
  2
DIMSTYLE
  5
A
330
0
100
AcDbSymbolTable
 70
     1
  0
DIMSTYLE
105
27
330
A
100
AcDbSymbolTableRecord
100
AcDbDimStyleTableRecord
  2
ISO-25
 70
     0
  3

  4

  5

  6

  7

 40
1.0
 41
2.5
 42
0.625
 43
3.75
 44
1.25
 45
0.0
 46
0.0
 47
0.0
 48
0.0
140
2.5
141
2.5
142
0.0
143
0.03937007874016
144
1.0
145
0.0
146
1.0
147
0.625
 71
     0
 72
     0
 73
     0
 74
     0
 75
     0
 76
     0
 77
     1
 78
     8
170
     0
171
     3
172
     1
173
     0
174
     0
175
     0
176
     0
177
     0
178
     0
270
     2
271
     2
272
     2
273
     2
274
     3
340
11
275
     0
280
     0
281
     0
282
     0
283
     0
284
     8
285
     0
286
     0
287
     3
288
     0
  0
ENDTAB
  0
TABLE
  2
BLOCK_RECORD
  5
1
330
0
100
AcDbSymbolTable
 70
     1
  0
BLOCK_RECORD
  5
1F
330
1
100
AcDbSymbolTableRecord
100
AcDbBlockTableRecord
  2
*MODEL_SPACE
  0
BLOCK_RECORD
  5
1B
330
1
100
AcDbSymbolTableRecord
100
AcDbBlockTableRecord
  2
*PAPER_SPACE
  0
ENDTAB
  0
ENDSEC
  0
SECTION
  2
BLOCKS
  0
BLOCK
  5
20
330
1F
100
AcDbEntity
  8
0
100
AcDbBlockBegin
  2
*MODEL_SPACE
 70
     0
 10
0.0
 20
0.0
 30
0.0
  3
*MODEL_SPACE
  1

  0
ENDBLK
  5
21
330
1F
100
AcDbEntity
  8
0
100
AcDbBlockEnd
  0
BLOCK
  5
1C
330
1B
100
AcDbEntity
 67
     1
  8
0
100
AcDbBlockBegin
  2
*PAPER_SPACE
  1

  0
ENDBLK
  5
1D
330
1B
100
AcDbEntity
 67
     1
  8
0
100
AcDbBlockEnd
  0
ENDSEC
  0
SECTION
  2
ENTITIES
  0
LWPOLYLINE
  5
100
100
AcDbEntity
  8
0
 62
7
100
AcDbPolyline
 90
43
 70
0
 10
285.925542
 20
159.027711
 30
0.0
 10
281.931719
 20
159.542094
 30
0.0
 10
255.957273
 20
169.934066
 30
0.0
 10
245.720926
 20
179.375194
 30
0.0
 10
241.140234
 20
183.504173
 30
0.0
 10
227.326753
 20
197.285825
 30
0.0
 10
213.884124
 20
220.169803
 30
0.0
 10
209.097928
 20
229.114309
 30
0.0
 10
205.217166
 20
241.305964
 30
0.0
 10
206.415705
 20
244.651596
 30
0.0
 10
211.883408
 20
240.571080
 30
0.0
 10
221.393967
 20
232.897668
 30
0.0
 10
231.650503
 20
223.611931
 30
0.0
 10
234.163894
 20
221.975457
 30
0.0
 10
251.491560
 20
221.253653
 30
0.0
 10
266.930851
 20
220.166469
 30
0.0
 10
272.272575
 20
210.317166
 30
0.0
 10
272.425702
 20
208.360232
 30
0.0
 10
273.377672
 20
207.939140
 30
0.0
 10
275.818519
 20
207.614185
 30
0.0
 10
279.331066
 20
208.722976
 30
0.0
 10
281.968449
 20
208.036776
 30
0.0
 10
281.307759
 20
204.567569
 30
0.0
 10
280.775603
 20
202.425599
 30
0.0
 10
281.879201
 20
203.512574
 30
0.0
 10
287.519163
 20
205.355610
 30
0.0
 10
294.966115
 20
199.374929
 30
0.0
 10
306.639833
 20
190.852653
 30
0.0
 10
312.102204
 20
190.867569
 30
0.0
 10
323.150045
 20
191.186971
 30
0.0
 10
335.532835
 20
189.268197
 30
0.0
 10
354.407866
 20
186.758639
 30
0.0
 10
375.563996
 20
200.054461
 30
0.0
 10
377.243311
 20
202.312967
 30
0.0
 10
380.608551
 20
202.214774
 30
0.0
 10
378.373487
 20
193.274810
 30
0.0
 10
363.384422
 20
176.874522
 30
0.0
 10
361.597737
 20
175.409517
 30
0.0
 10
344.886783
 20
165.038583
 30
0.0
 10
305.264006
 20
159.432459
 30
0.0
 10
293.743996
 20
159.008452
 30
0.0
 10
285.925542
 20
159.027642
 30
0.0
 10
285.925542
 20
159.027642
 30
0.0
  0
LWPOLYLINE
  5
101
100
AcDbEntity
  8
0
 62
7
100
AcDbPolyline
 90
9
 70
0
 10
330.277885
 20
219.750569
 30
0.0
 10
326.381058
 20
221.482390
 30
0.0
 10
323.367549
 20
226.002329
 30
0.0
 10
331.854372
 20
236.721660
 30
0.0
 10
347.112820
 20
231.284717
 30
0.0
 10
342.574552
 20
223.219195
 30
0.0
 10
336.265942
 20
220.090359
 30
0.0
 10
330.277885
 20
219.750569
 30
0.0
 10
330.277885
 20
219.750569
 30
0.0
  0
LWPOLYLINE
  5
102
100
AcDbEntity
  8
0
 62
7
100
AcDbPolyline
 90
57
 70
0
 10
389.985592
 20
234.129173
 30
0.0
 10
389.134823
 20
235.871449
 30
0.0
 10
380.090044
 20
250.143891
 30
0.0
 10
364.330351
 20
254.373270
 30
0.0
 10
347.173725
 20
253.280824
 30
0.0
 10
337.399394
 20
252.333128
 30
0.0
 10
333.187927
 20
251.882903
 30
0.0
 10
331.013547
 20
250.460889
 30
0.0
 10
340.052204
 20
246.666809
 30
0.0
 10
348.039781
 20
243.534140
 30
0.0
 10
342.574552
 20
241.538047
 30
0.0
 10
337.176558
 20
241.942865
 30
0.0
 10
285.758545
 20
262.798561
 30
0.0
 10
282.172107
 20
264.926615
 30
0.0
 10
280.779297
 20
263.210198
 30
0.0
 10
268.286210
 20
259.961992
 30
0.0
 10
263.414041
 20
274.097164
 30
0.0
 10
269.476652
 20
282.276166
 30
0.0
 10
271.285501
 20
283.030728
 30
0.0
 10
272.823910
 20
283.986462
 30
0.0
 10
295.489675
 20
295.216203
 30
0.0
 10
316.297547
 20
305.143939
 30
0.0
 10
318.188198
 20
308.005240
 30
0.0
 10
314.046221
 20
314.382630
 30
0.0
 10
310.918523
 20
318.037360
 30
0.0
 10
318.423685
 20
319.297152
 30
0.0
 10
337.169518
 20
314.795265
 30
0.0
 10
354.086756
 20
310.417162
 30
0.0
 10
365.462375
 20
312.715035
 30
0.0
 10
368.074540
 20
313.283295
 30
0.0
 10
369.012291
 20
312.712979
 30
0.0
 10
365.352658
 20
309.519196
 30
0.0
 10
359.615712
 20
301.689881
 30
0.0
 10
366.116537
 20
293.330524
 30
0.0
 10
375.083997
 20
278.090976
 30
0.0
 10
374.380245
 20
276.129349
 30
0.0
 10
369.102039
 20
278.914899
 30
0.0
 10
347.829583
 20
282.184211
 30
0.0
 10
325.383471
 20
285.445206
 30
0.0
 10
323.852241
 20
285.998330
 30
0.0
 10
322.723621
 20
285.576029
 30
0.0
 10
308.206806
 20
285.968487
 30
0.0
 10
296.623615
 20
286.527999
 30
0.0
 10
295.124155
 20
282.868425
 30
0.0
 10
295.399648
 20
280.935502
 30
0.0
 10
304.318076
 20
279.262727
 30
0.0
 10
325.968772
 20
278.194373
 30
0.0
 10
348.670420
 20
277.241264
 30
0.0
 10
363.794571
 20
273.998669
 30
0.0
 10
371.745545
 20
272.693900
 30
0.0
 10
380.635269
 20
276.983254
 30
0.0
 10
390.278997
 20
281.180943
 30
0.0
 10
397.324338
 20
271.858476
 30
0.0
 10
397.857342
 20
266.790537
 30
0.0
 10
391.728657
 20
234.585370
 30
0.0
 10
389.985592
 20
234.129173
 30
0.0
 10
389.985592
 20
234.129173
 30
0.0
  0
LWPOLYLINE
  5
103
100
AcDbEntity
  8
0
 62
7
100
AcDbPolyline
 90
104
 70
0
 10
286.976552
 20
362.407326
 30
0.0
 10
277.880128
 20
364.527632
 30
0.0
 10
271.737004
 20
365.728935
 30
0.0
 10
268.331188
 20
366.333286
 30
0.0
 10
261.882950
 20
379.197434
 30
0.0
 10
259.554805
 20
385.808684
 30
0.0
 10
254.956782
 20
384.247112
 30
0.0
 10
253.654428
 20
382.854941
 30
0.0
 10
254.191056
 20
382.151328
 30
0.0
 10
253.893388
 20
378.740819
 30
0.0
 10
245.306095
 20
378.563879
 30
0.0
 10
227.594858
 20
382.708133
 30
0.0
 10
214.667541
 20
388.863187
 30
0.0
 10
196.641513
 20
397.183315
 30
0.0
 10
183.791654
 20
393.395415
 30
0.0
 10
180.449286
 20
389.812241
 30
0.0
 10
180.112122
 20
389.330895
 30
0.0
 10
178.592683
 20
390.233542
 30
0.0
 10
174.414113
 20
396.274837
 30
0.0
 10
175.372833
 20
400.780348
 30
0.0
 10
176.263759
 20
405.281305
 30
0.0
 10
175.609875
 20
407.657414
 30
0.0
 10
170.988190
 20
410.749020
 30
0.0
 10
164.955143
 20
414.194053
 30
0.0
 10
153.604243
 20
421.228102
 30
0.0
 10
143.457934
 20
427.414206
 30
0.0
 10
140.048773
 20
429.855762
 30
0.0
 10
138.893366
 20
449.614679
 30
0.0
 10
134.885266
 20
489.742476
 30
0.0
 10
132.189173
 20
496.409577
 30
0.0
 10
125.031352
 20
542.690569
 30
0.0
 10
129.080248
 20
555.993791
 30
0.0
 10
150.408764
 20
600.328442
 30
0.0
 10
187.744901
 20
640.480889
 30
0.0
 10
210.043149
 20
650.246694
 30
0.0
 10
241.783384
 20
658.236256
 30
0.0
 10
253.975039
 20
658.249046
 30
0.0
 10
257.710213
 20
658.901779
 30
0.0
 10
267.574570
 20
661.482615
 30
0.0
 10
290.146394
 20
661.503222
 30
0.0
 10
300.849799
 20
661.672832
 30
0.0
 10
343.520481
 20
662.215791
 30
0.0
 10
397.331795
 20
644.143438
 30
0.0
 10
415.029673
 20
626.393333
 30
0.0
 10
420.217621
 20
618.987165
 30
0.0
 10
435.062806
 20
608.633493
 30
0.0
 10
442.524976
 20
604.279122
 30
0.0
 10
452.610183
 20
594.679884
 30
0.0
 10
455.766154
 20
588.031695
 30
0.0
 10
463.855199
 20
569.323869
 30
0.0
 10
475.296974
 20
538.109099
 30
0.0
 10
476.039745
 20
534.221728
 30
0.0
 10
475.930389
 20
529.371375
 30
0.0
 10
474.478812
 20
526.232734
 30
0.0
 10
472.995685
 20
523.120173
 30
0.0
 10
475.374141
 20
515.480215
 30
0.0
 10
476.222075
 20
513.483344
 30
0.0
 10
471.334840
 20
507.411220
 30
0.0
 10
463.577430
 20
488.606817
 30
0.0
 10
460.386133
 20
466.956191
 30
0.0
 10
454.739004
 20
433.837643
 30
0.0
 10
450.954739
 20
411.883668
 30
0.0
 10
451.324522
 20
406.313358
 30
0.0
 10
458.509921
 20
392.141455
 30
0.0
 10
460.374981
 20
388.785381
 30
0.0
 10
460.363597
 20
382.740822
 30
0.0
 10
457.567673
 20
381.460144
 30
0.0
 10
448.095205
 20
385.620093
 30
0.0
 10
439.325837
 20
391.696225
 30
0.0
 10
438.505004
 20
393.304088
 30
0.0
 10
444.784678
 20
393.470875
 30
0.0
 10
451.548206
 20
392.813379
 30
0.0
 10
451.665798
 20
393.830795
 30
0.0
 10
444.091821
 20
400.469135
 30
0.0
 10
439.626735
 20
406.021265
 30
0.0
 10
431.782621
 20
406.194941
 30
0.0
 10
429.834480
 20
394.813456
 30
0.0
 10
427.341906
 20
381.651860
 30
0.0
 10
427.226997
 20
376.959466
 30
0.0
 10
426.678149
 20
377.080833
 30
0.0
 10
422.555849
 20
379.029101
 30
0.0
 10
416.525369
 20
382.110322
 30
0.0
 10
411.275158
 20
379.762139
 30
0.0
 10
412.527771
 20
375.973100
 30
0.0
 10
413.355458
 20
373.864735
 30
0.0
 10
412.070018
 20
372.826015
 30
0.0
 10
388.818673
 20
365.291859
 30
0.0
 10
379.191358
 20
367.079903
 30
0.0
 10
365.150488
 20
376.399524
 30
0.0
 10
363.738139
 20
378.073089
 30
0.0
 10
363.466340
 20
377.426594
 30
0.0
 10
356.394584
 20
385.896259
 30
0.0
 10
351.160927
 20
393.428835
 30
0.0
 10
340.949461
 20
393.603301
 30
0.0
 10
336.098051
 20
384.092510
 30
0.0
 10
315.353604
 20
364.339749
 30
0.0
 10
310.834235
 20
363.870414
 30
0.0
 10
306.149228
 20
364.448687
 30
0.0
 10
302.838783
 20
365.748624
 30
0.0
 10
301.375555
 20
366.485425
 30
0.0
 10
300.234354
 20
365.555909
 30
0.0
 10
294.753931
 20
362.782522
 30
0.0
 10
286.976471
 20
362.407326
 30
0.0
 10
286.976541
 20
362.407326
 30
0.0
  0
LWPOLYLINE
  5
104
100
AcDbEntity
  8
0
 62
7
100
AcDbPolyline
 90
55
 70
0
 10
351.166491
 20
393.427720
 30
0.0
 10
355.724205
 20
394.911939
 30
0.0
 10
357.851690
 20
399.720659
 30
0.0
 10
360.230355
 20
407.574567
 30
0.0
 10
386.241462
 20
429.955813
 30
0.0
 10
396.596121
 20
431.786408
 30
0.0
 10
405.985383
 20
430.688850
 30
0.0
 10
409.664914
 20
429.658145
 30
0.0
 10
423.943757
 20
422.338031
 30
0.0
 10
430.992861
 20
408.151492
 30
0.0
 10
430.862050
 20
406.603557
 30
0.0
 10
431.776847
 20
406.198879
 30
0.0
 10
439.645380
 20
406.038957
 30
0.0
 10
444.960758
 20
420.271369
 30
0.0
 10
444.920972
 20
434.334694
 30
0.0
 10
444.942288
 20
448.102848
 30
0.0
 10
444.676460
 20
456.656395
 30
0.0
 10
443.046456
 20
472.631606
 30
0.0
 10
439.153602
 20
499.068637
 30
0.0
 10
431.450835
 20
512.044209
 30
0.0
 10
428.381904
 20
515.722741
 30
0.0
 10
390.179852
 20
538.726170
 30
0.0
 10
363.909817
 20
540.531615
 30
0.0
 10
342.784668
 20
541.070880
 30
0.0
 10
273.418445
 20
540.962221
 30
0.0
 10
270.370552
 20
540.802067
 30
0.0
 10
266.061438
 20
538.641963
 30
0.0
 10
241.700025
 20
522.558674
 30
0.0
 10
232.412302
 20
510.152419
 30
0.0
 10
230.215538
 20
502.714702
 30
0.0
 10
219.331928
 20
469.425533
 30
0.0
 10
209.065448
 20
458.022697
 30
0.0
 10
201.655715
 20
445.684386
 30
0.0
 10
197.130805
 20
427.543600
 30
0.0
 10
195.085831
 20
410.947624
 30
0.0
 10
197.042126
 20
410.207408
 30
0.0
 10
203.842036
 20
408.046817
 30
0.0
 10
216.735597
 20
403.998711
 30
0.0
 10
226.636267
 20
402.634814
 30
0.0
 10
229.026594
 20
402.634814
 30
0.0
 10
230.585111
 20
404.368993
 30
0.0
 10
235.721621
 20
410.412274
 30
0.0
 10
251.820337
 20
423.355157
 30
0.0
 10
253.028958
 20
423.866346
 30
0.0
 10
251.530765
 20
426.508004
 30
0.0
 10
248.251300
 20
433.385291
 30
0.0
 10
248.694417
 20
434.937129
 30
0.0
 10
256.812595
 20
435.741432
 30
0.0
 10
270.335947
 20
435.741362
 30
0.0
 10
280.136844
 20
436.903158
 30
0.0
 10
307.256462
 20
437.713432
 30
0.0
 10
322.184983
 20
429.230594
 30
0.0
 10
327.548175
 20
414.529242
 30
0.0
 10
331.450821
 20
401.616701
 30
0.0
 10
340.761451
 20
393.582543
 30
0.0
  0
ENDSEC
  0
SECTION
  2
OBJECTS
  0
DICTIONARY
  5
C
330
0
100
AcDbDictionary
  3
ACAD_GROUP
350
D
  3
ACAD_MLINESTYLE
350
17
  0
DICTIONARY
  5
D
330
C
100
AcDbDictionary
  0
DICTIONARY
  5
1A
330
C
100
AcDbDictionary
  0
DICTIONARY
  5
17
330
C
100
AcDbDictionary
  3
STANDARD
350
18
  0
DICTIONARY
  5
19
330
C
100
AcDbDictionary
  0
ENDSEC
  0
EOF
