999
Inkscape export via OpenSCAD DXF Export
  0
SECTION
  2
HEADER
  9
$ACADVER
  1
AC1014
  9
$HANDSEED
  5
FFFF
  9
$MEASUREMENT
 70
     1
  0
ENDSEC
  0
SECTION
  2
TABLES
  0
TABLE
  2
VPORT
  5
8
330
0
100
AcDbSymbolTable
 70
     4
  0
VPORT
  5
2E
330
8
100
AcDbSymbolTableRecord
100
AcDbViewportTableRecord
  2
*ACTIVE
 70
     0
 10
0.0
 20
0.0
 11
1.0
 21
1.0
 12
210.0
 22
148.5
 13
0.0
 23
0.0
 14
10.0
 24
10.0
 15
10.0
 25
10.0
 16
0.0
 26
0.0
 36
1.0
 17
0.0
 27
0.0
 37
0.0
 40
341.0
 41
1.24
 42
50.0
 43
0.0
 44
0.0
 50
0.0
 51
0.0
 71
     0
 72
   100
 73
     1
 74
     3
 75
     0
 76
     0
 77
     0
 78
     0
  0
ENDTAB
  0
TABLE
  2
LTYPE
  5
5
330
0
100
AcDbSymbolTable
 70
     1
  0
LTYPE
  5
14
330
5
100
AcDbSymbolTableRecord
100
AcDbLinetypeTableRecord
  2
BYBLOCK
 70
     0
  3

 72
    65
 73
     0
 40
0.0
  0
LTYPE
  5
15
330
5
100
AcDbSymbolTableRecord
100
AcDbLinetypeTableRecord
  2
BYLAYER
 70
     0
  3

 72
    65
 73
     0
 40
0.0
  0
LTYPE
  5
16
330
5
100
AcDbSymbolTableRecord
100
AcDbLinetypeTableRecord
  2
CONTINUOUS
 70
     0
  3
Solid line
 72
    65
 73
     0
 40
0.0
  0
ENDTAB
  0
TABLE
0
TABLE
2
LAYER
5
2
330
0
100
AcDbSymbolTable
70
1
0
LAYER
5
10
330
2
100
AcDbSymbolTableRecord
100
AcDbLayerTableRecord
2
Layer_1
70
0
62
7
6
CONTINUOUS
0
ENDTAB
0
ENDSEC
  0
ENDTAB
  0
TABLE
  2
STYLE
  5
3
330
0
100
AcDbSymbolTable
 70
     1
  0
STYLE
  5
11
330
3
100
AcDbSymbolTableRecord
100
AcDbTextStyleTableRecord
  2
STANDARD
 70
     0
 40
0.0
 41
1.0
 50
0.0
 71
     0
 42
2.5
  3
txt
  4

  0
ENDTAB
  0
TABLE
  2
VIEW
  5
6
330
0
100
AcDbSymbolTable
 70
     0
  0
ENDTAB
  0
TABLE
  2
UCS
  5
7
330
0
100
AcDbSymbolTable
 70
     0
  0
ENDTAB
  0
TABLE
  2
APPID
  5
9
330
0
100
AcDbSymbolTable
 70
     2
  0
APPID
  5
12
330
9
100
AcDbSymbolTableRecord
100
AcDbRegAppTableRecord
  2
ACAD
 70
     0
  0
ENDTAB
  0
TABLE
  2
DIMSTYLE
  5
A
330
0
100
AcDbSymbolTable
 70
     1
  0
DIMSTYLE
105
27
330
A
100
AcDbSymbolTableRecord
100
AcDbDimStyleTableRecord
  2
ISO-25
 70
     0
  3

  4

  5

  6

  7

 40
1.0
 41
2.5
 42
0.625
 43
3.75
 44
1.25
 45
0.0
 46
0.0
 47
0.0
 48
0.0
140
2.5
141
2.5
142
0.0
143
0.03937007874016
144
1.0
145
0.0
146
1.0
147
0.625
 71
     0
 72
     0
 73
     0
 74
     0
 75
     0
 76
     0
 77
     1
 78
     8
170
     0
171
     3
172
     1
173
     0
174
     0
175
     0
176
     0
177
     0
178
     0
270
     2
271
     2
272
     2
273
     2
274
     3
340
11
275
     0
280
     0
281
     0
282
     0
283
     0
284
     8
285
     0
286
     0
287
     3
288
     0
  0
ENDTAB
  0
TABLE
  2
BLOCK_RECORD
  5
1
330
0
100
AcDbSymbolTable
 70
     1
  0
BLOCK_RECORD
  5
1F
330
1
100
AcDbSymbolTableRecord
100
AcDbBlockTableRecord
  2
*MODEL_SPACE
  0
BLOCK_RECORD
  5
1B
330
1
100
AcDbSymbolTableRecord
100
AcDbBlockTableRecord
  2
*PAPER_SPACE
  0
ENDTAB
  0
ENDSEC
  0
SECTION
  2
BLOCKS
  0
BLOCK
  5
20
330
1F
100
AcDbEntity
  8
0
100
AcDbBlockBegin
  2
*MODEL_SPACE
 70
     0
 10
0.0
 20
0.0
 30
0.0
  3
*MODEL_SPACE
  1

  0
ENDBLK
  5
21
330
1F
100
AcDbEntity
  8
0
100
AcDbBlockEnd
  0
BLOCK
  5
1C
330
1B
100
AcDbEntity
 67
     1
  8
0
100
AcDbBlockBegin
  2
*PAPER_SPACE
  1

  0
ENDBLK
  5
1D
330
1B
100
AcDbEntity
 67
     1
  8
0
100
AcDbBlockEnd
  0
ENDSEC
  0
SECTION
  2
ENTITIES
0
DIMENSION
5
83
100
AcDbEntity
62
256
370
-1
6
ByLayer
1
total_width
3
Standard
70
0
71
5
72
1
41
1.0
100
AcDbAlignedDimension
13
-61.580566
23
0.000000
33
0.0
14
-9.311739
24
0.000000
34
0.0
50
0.000000
100
AcDbRotatedDimension
0
DIMENSION
5
83
100
AcDbEntity
62
256
370
-1
6
ByLayer
1
total_minx
3
Standard
70
0
71
5
72
1
41
1.0
100
AcDbAlignedDimension
13
-61.580566
23
0.000000
33
0.0
14
0.000000
24
0.000000
34
0.0
50
0.000000
100
AcDbRotatedDimension
0
DIMENSION
5
83
100
AcDbEntity
62
256
370
-1
6
ByLayer
1
total_maxx
3
Standard
70
0
71
5
72
1
41
1.0
100
AcDbAlignedDimension
13
0.000000
23
0.000000
33
0.0
14
-9.311739
24
0.000000
34
0.0
50
0.000000
100
AcDbRotatedDimension
0
DIMENSION
5
83
100
AcDbEntity
62
256
370
-1
6
ByLayer
1
total_height
3
Standard
70
0
71
5
72
1
41
1.0
100
AcDbAlignedDimension
13
0.000000
23
-118.454168
33
0.0
14
0.000000
24
-90.749287
34
0.0
50
90.000000
100
AcDbRotatedDimension
0
DIMENSION
5
83
100
AcDbEntity
62
256
370
-1
6
ByLayer
1
total_miny
3
Standard
70
0
71
5
72
1
41
1.0
100
AcDbAlignedDimension
13
-118.454168
23
0.000000
33
0.0
14
0.000000
24
0.000000
34
0.0
50
0.000000
100
AcDbRotatedDimension
0
DIMENSION
5
83
100
AcDbEntity
62
256
370
-1
6
ByLayer
1
total_maxy
3
Standard
70
0
71
5
72
1
41
1.0
100
AcDbAlignedDimension
13
0.000000
23
0.000000
33
0.0
14
-90.749287
24
0.000000
34
0.0
50
0.000000
100
AcDbRotatedDimension
0
DIMENSION
8
Layer_1
5
83
100
AcDbEntity
62
256
370
-1
6
ByLayer
1
Layer_1_width
3
Standard
70
0
71
5
72
1
41
1.0
100
AcDbAlignedDimension
13
-61.580566
23
0.000000
33
0.0
14
-9.311739
24
0.000000
34
0.0
50
0.000000
100
AcDbRotatedDimension
0
DIMENSION
8
Layer_1
5
83
100
AcDbEntity
62
256
370
-1
6
ByLayer
1
Layer_1_minx
3
Standard
70
0
71
5
72
1
41
1.0
100
AcDbAlignedDimension
13
-61.580566
23
0.000000
33
0.0
14
0.000000
24
0.000000
34
0.0
50
0.000000
100
AcDbRotatedDimension
0
DIMENSION
8
Layer_1
5
83
100
AcDbEntity
62
256
370
-1
6
ByLayer
1
Layer_1_maxx
3
Standard
70
0
71
5
72
1
41
1.0
100
AcDbAlignedDimension
13
0.000000
23
0.000000
33
0.0
14
-9.311739
24
0.000000
34
0.0
50
0.000000
100
AcDbRotatedDimension
0
DIMENSION
8
Layer_1
5
83
100
AcDbEntity
62
256
370
-1
6
ByLayer
1
Layer_1_height
3
Standard
70
0
71
5
72
1
41
1.0
100
AcDbAlignedDimension
13
0.000000
23
-118.454168
33
0.0
14
0.000000
24
-90.749287
34
0.0
50
90.000000
100
AcDbRotatedDimension
0
DIMENSION
8
Layer_1
5
83
100
AcDbEntity
62
256
370
-1
6
ByLayer
1
Layer_1_miny
3
Standard
70
0
71
5
72
1
41
1.0
100
AcDbAlignedDimension
13
-118.454168
23
0.000000
33
0.0
14
0.000000
24
0.000000
34
0.0
50
0.000000
100
AcDbRotatedDimension
0
DIMENSION
8
Layer_1
5
83
100
AcDbEntity
62
256
370
-1
6
ByLayer
1
Layer_1_maxy
3
Standard
70
0
71
5
72
1
41
1.0
100
AcDbAlignedDimension
13
0.000000
23
0.000000
33
0.0
14
-90.749287
24
0.000000
34
0.0
50
0.000000
100
AcDbRotatedDimension
62
0
0
LWPOLYLINE
100
AcDbPolyline
8
Layer_1
90
183
70
0
10
-43.992254
20
-90.749287
30
0.0
10
-45.120544
20
-90.773995
30
0.0
10
-46.248834
20
-90.806937
30
0.0
10
-46.405313
20
-91.268136
30
0.0
10
-47.138290
20
-92.314070
30
0.0
10
-47.581649
20
-92.821998
30
0.0
10
-47.714788
20
-93.145875
30
0.0
10
-47.777843
20
-93.362421
30
0.0
10
-47.994802
20
-93.615310
30
0.0
10
-48.501017
20
-94.377989
30
0.0
10
-48.876021
20
-95.180092
30
0.0
10
-49.180742
20
-95.929540
30
0.0
10
-49.526641
20
-95.600112
30
0.0
10
-50.061962
20
-94.941257
30
0.0
10
-50.737289
20
-94.430643
30
0.0
10
-51.124366
20
-94.257694
30
0.0
10
-52.367956
20
-93.903559
30
0.0
10
-53.315061
20
-93.714138
30
0.0
10
-54.492766
20
-93.796495
30
0.0
10
-56.790525
20
-94.257694
30
0.0
10
-57.268195
20
-94.545943
30
0.0
10
-57.811751
20
-94.817721
30
0.0
10
-58.380014
20
-95.196563
30
0.0
10
-59.121227
20
-95.756590
30
0.0
10
-59.453930
20
-95.966544
30
0.0
10
-59.607133
20
-96.316618
30
0.0
10
-60.158925
20
-97.222544
30
0.0
10
-60.585861
20
-97.815595
30
0.0
10
-60.891902
20
-98.704970
30
0.0
10
-61.245418
20
-99.268002
30
0.0
10
-61.472940
20
-100.021883
30
0.0
10
-61.580566
20
-101.818782
30
0.0
10
-61.275916
20
-103.528846
30
0.0
10
-60.988092
20
-104.174185
30
0.0
10
-60.620124
20
-104.585256
30
0.0
10
-59.631615
20
-105.281558
30
0.0
10
-59.064608
20
-105.757636
30
0.0
10
-58.635321
20
-106.331224
30
0.0
10
-57.894108
20
-107.006551
30
0.0
10
-56.312855
20
-109.016061
30
0.0
10
-55.678706
20
-110.119644
30
0.0
10
-55.104704
20
-111.109607
30
0.0
10
-54.336288
20
-112.112682
30
0.0
10
-52.203243
20
-114.031600
30
0.0
10
-51.117744
20
-114.998580
30
0.0
10
-51.016519
20
-115.111958
30
0.0
10
-48.686600
20
-117.037629
30
0.0
10
-48.176492
20
-117.268826
30
0.0
10
-47.780674
20
-117.828255
30
0.0
10
-47.420874
20
-118.355415
30
0.0
10
-47.105347
20
-118.454168
30
0.0
10
-46.800626
20
-118.454168
30
0.0
10
-47.105347
20
-117.548242
30
0.0
10
-47.648903
20
-116.263473
30
0.0
10
-48.035980
20
-115.390489
30
0.0
10
-48.950143
20
-112.565646
30
0.0
10
-49.396564
20
-111.119829
30
0.0
10
-49.645725
20
-109.791484
30
0.0
10
-49.722102
20
-108.373972
30
0.0
10
-49.650177
20
-106.660652
30
0.0
10
-49.361927
20
-104.675849
30
0.0
10
-49.188978
20
-104.198179
30
0.0
10
-48.671143
20
-104.109483
30
0.0
10
-47.755967
20
-104.321714
30
0.0
10
-47.138290
20
-104.387600
30
0.0
10
-46.893157
20
-104.233001
30
0.0
10
-47.064168
20
-104.099350
30
0.0
10
-47.214120
20
-103.951085
30
0.0
10
-47.258441
20
-103.690339
30
0.0
10
-47.039461
20
-103.160481
30
0.0
10
-46.290013
20
-102.666339
30
0.0
10
-46.191185
20
-102.921646
30
0.0
10
-46.005373
20
-103.307586
30
0.0
10
-45.663655
20
-103.639428
30
0.0
10
-45.227449
20
-103.871803
30
0.0
10
-44.758173
20
-103.959344
30
0.0
10
-44.248522
20
-103.837117
30
0.0
10
-43.835776
20
-103.547559
30
0.0
10
-43.650807
20
-103.415524
30
0.0
10
-43.473405
20
-103.605209
30
0.0
10
-43.408074
20
-103.797142
30
0.0
10
-43.572233
20
-103.967579
30
0.0
10
-43.718869
20
-104.105446
30
0.0
10
-43.629883
20
-104.140529
30
0.0
10
-43.509204
20
-104.178234
30
0.0
10
-43.488598
20
-104.348079
30
0.0
10
-43.794597
20
-105.450004
30
0.0
10
-44.574131
20
-107.599939
30
0.0
10
-45.474679
20
-108.884290
30
0.0
10
-45.897288
20
-109.495735
30
0.0
10
-46.159218
20
-110.164102
30
0.0
10
-46.239475
20
-110.808182
30
0.0
10
-46.117063
20
-111.346763
30
0.0
10
-45.331495
20
-112.069773
30
0.0
10
-44.255796
20
-112.664474
30
0.0
10
-43.646355
20
-112.960959
30
0.0
10
-43.422873
20
-113.090917
30
0.0
10
-43.283984
20
-113.035080
30
0.0
10
-43.473405
20
-112.664474
30
0.0
10
-43.795927
20
-112.342040
30
0.0
10
-44.428746
20
-111.989147
30
0.0
10
-45.475475
20
-111.297721
30
0.0
10
-45.702231
20
-110.930682
30
0.0
10
-45.771164
20
-110.506722
30
0.0
10
-45.597365
20
-109.939478
30
0.0
10
-45.260551
20
-109.551381
30
0.0
10
-45.128780
20
-109.337253
30
0.0
10
-44.848766
20
-108.727811
30
0.0
10
-44.511103
20
-108.044249
30
0.0
10
-43.662826
20
-105.935911
30
0.0
10
-42.773371
20
-103.778158
30
0.0
10
-42.567861
20
-102.979735
30
0.0
10
-42.559243
20
-102.089841
30
0.0
10
-42.715721
20
-101.076850
30
0.0
10
-42.799244
20
-101.027224
30
0.0
10
-42.822785
20
-101.126264
30
0.0
10
-42.877018
20
-101.264596
30
0.0
10
-43.292220
20
-101.052143
30
0.0
10
-44.010039
20
-100.761147
30
0.0
10
-44.853436
20
-100.585643
30
0.0
10
-45.702733
20
-100.540444
30
0.0
10
-46.438255
20
-100.640358
30
0.0
10
-47.221368
20
-101.034444
30
0.0
10
-47.698317
20
-101.488635
30
0.0
10
-47.583097
20
-101.645925
30
0.0
10
-47.344182
20
-101.463928
30
0.0
10
-46.666958
20
-101.113162
30
0.0
10
-45.441736
20
-101.027436
30
0.0
10
-44.655265
20
-101.140730
30
0.0
10
-43.769890
20
-101.529813
30
0.0
10
-42.863963
20
-101.991012
30
0.0
10
-42.839256
20
-102.509861
30
0.0
10
-42.918835
20
-103.023455
30
0.0
10
-43.333398
20
-102.748696
30
0.0
10
-44.215656
20
-102.132143
30
0.0
10
-45.293494
20
-101.735706
30
0.0
10
-46.580007
20
-101.741161
30
0.0
10
-48.011273
20
-102.271026
30
0.0
10
-48.783342
20
-102.614777
30
0.0
10
-48.898137
20
-102.598317
30
0.0
10
-48.851314
20
-102.460447
30
0.0
10
-48.801900
20
-101.743941
30
0.0
10
-48.711307
20
-100.739186
30
0.0
10
-48.550190
20
-100.390398
30
0.0
10
-48.241873
20
-100.220338
30
0.0
10
-47.500660
20
-99.841496
30
0.0
10
-46.974310
20
-99.611250
30
0.0
10
-45.721750
20
-99.545011
30
0.0
10
-44.561592
20
-99.539841
30
0.0
10
-44.214618
20
-99.652075
30
0.0
10
-43.945540
20
-99.795326
30
0.0
10
-43.835776
20
-99.479125
30
0.0
10
-43.911373
20
-99.139660
30
0.0
10
-44.189910
20
-98.770855
30
0.0
10
-44.564831
20
-98.452012
30
0.0
10
-45.038187
20
-98.350835
30
0.0
10
-45.598214
20
-98.210828
30
0.0
10
-46.133535
20
-98.227299
30
0.0
10
-46.891219
20
-98.326128
30
0.0
10
-47.434775
20
-98.532020
30
0.0
10
-47.762574
20
-98.654110
30
0.0
10
-47.846559
20
-98.243771
30
0.0
10
-47.961859
20
-97.930814
30
0.0
10
-48.069514
20
-97.815693
30
0.0
10
-47.854795
20
-97.379023
30
0.0
10
-47.703388
20
-97.106097
30
0.0
10
-47.764202
20
-97.000181
30
0.0
10
-47.892344
20
-96.759563
30
0.0
10
-47.731260
20
-96.464860
30
0.0
10
-47.464592
20
-96.048249
30
0.0
10
-47.344182
20
-95.460105
30
0.0
10
-46.990047
20
-94.620064
30
0.0
10
-46.520612
20
-93.780024
30
0.0
10
-46.257070
20
-93.524717
30
0.0
10
-46.182949
20
-93.351767
30
0.0
10
-46.009999
20
-92.939983
30
0.0
10
-45.771164
20
-92.627026
30
0.0
10
-45.449972
20
-92.388191
30
0.0
10
-45.128780
20
-92.149356
30
0.0
10
-44.824059
20
-91.737571
30
0.0
10
-44.264032
20
-91.078715
30
0.0
10
-43.992254
20
-90.749287
30
0.0
10
-43.992254
20
-90.749287
30
0.0
62
0
0
LWPOLYLINE
100
AcDbPolyline
8
Layer_1
90
323
70
0
10
-32.610522
20
-90.757523
30
0.0
10
-32.149323
20
-91.194015
30
0.0
10
-31.366932
20
-92.001113
30
0.0
10
-30.411591
20
-92.923511
30
0.0
10
-29.538608
20
-93.845909
30
0.0
10
-28.887988
20
-94.636536
30
0.0
10
-28.236859
20
-95.418932
30
0.0
10
-27.990297
20
-95.896597
30
0.0
10
-29.431544
20
-94.883607
30
0.0
10
-30.099533
20
-94.375594
30
0.0
10
-30.208903
20
-94.357266
30
0.0
10
-30.246877
20
-94.455351
30
0.0
10
-30.125853
20
-94.759077
30
0.0
10
-29.579786
20
-95.320099
30
0.0
10
-29.028037
20
-95.889842
30
0.0
10
-28.879752
20
-96.226025
30
0.0
10
-28.509146
20
-97.049595
30
0.0
10
-28.178433
20
-97.615813
30
0.0
10
-28.196189
20
-97.774336
30
0.0
10
-29.003287
20
-97.206073
30
0.0
10
-29.207126
20
-96.983302
30
0.0
10
-29.291537
20
-97.115480
30
0.0
10
-29.283018
20
-97.369946
30
0.0
10
-29.085474
20
-97.716303
30
0.0
10
-27.957354
20
-98.910862
30
0.0
10
-26.944363
20
-100.030917
30
0.0
10
-27.174963
20
-100.343873
30
0.0
10
-27.405562
20
-100.673301
30
0.0
10
-27.594983
20
-101.529813
30
0.0
10
-27.742767
20
-102.232855
30
0.0
10
-27.726755
20
-102.896939
30
0.0
10
-27.661523
20
-104.392110
30
0.0
10
-27.990297
20
-105.334705
30
0.0
10
-28.369139
20
-106.248867
30
0.0
10
-28.723274
20
-106.907723
30
0.0
10
-29.340951
20
-107.788942
30
0.0
10
-30.889262
20
-110.070230
30
0.0
10
-31.343368
20
-110.734587
30
0.0
10
-31.646946
20
-111.544419
30
0.0
10
-32.149323
20
-113.232737
30
0.0
10
-32.415097
20
-114.539789
30
0.0
10
-32.431076
20
-115.819193
30
0.0
10
-32.203232
20
-117.003663
30
0.0
10
-31.737538
20
-118.025912
30
0.0
10
-31.465760
20
-118.454168
30
0.0
10
-30.032749
20
-118.454168
30
0.0
10
-28.467967
20
-118.437697
30
0.0
10
-20.215164
20
-118.445280
30
0.0
10
-12.260118
20
-118.363576
30
0.0
10
-12.507189
20
-117.605892
30
0.0
10
-12.690186
20
-117.014816
30
0.0
10
-12.581310
20
-116.815265
30
0.0
10
-12.263452
20
-116.706967
30
0.0
10
-12.227175
20
-117.070571
30
0.0
10
-12.196858
20
-117.427536
30
0.0
10
-11.996576
20
-116.971743
30
0.0
10
-11.784838
20
-116.507380
30
0.0
10
-11.502434
20
-116.329359
30
0.0
10
-11.510669
20
-116.699965
30
0.0
10
-11.490157
20
-117.274705
30
0.0
10
-11.345956
20
-117.531770
30
0.0
10
-11.313013
20
-117.210578
30
0.0
10
-11.186399
20
-116.239989
30
0.0
10
-10.997420
20
-115.841338
30
0.0
10
-10.785928
20
-115.678739
30
0.0
10
-10.761221
20
-116.354066
30
0.0
10
-10.648531
20
-117.386190
30
0.0
10
-10.469552
20
-117.532958
30
0.0
10
-10.234137
20
-117.383528
30
0.0
10
-10.165935
20
-117.281633
30
0.0
10
-10.258844
20
-117.301171
30
0.0
10
-10.489188
20
-117.123818
30
0.0
10
-10.570267
20
-116.546785
30
0.0
10
-10.499752
20
-115.852803
30
0.0
10
-10.275315
20
-115.324604
30
0.0
10
-10.003835
20
-115.160924
30
0.0
10
-10.127073
20
-115.588146
30
0.0
10
-10.225901
20
-115.958752
30
0.0
10
-9.772938
20
-115.028119
30
0.0
10
-9.542338
20
-114.665748
30
0.0
10
-9.311739
20
-114.451620
30
0.0
10
-9.311739
20
-102.600454
30
0.0
10
-9.311739
20
-90.757523
30
0.0
10
-9.822352
20
-90.757523
30
0.0
10
-10.283551
20
-90.831644
30
0.0
10
-10.225901
20
-91.482264
30
0.0
10
-10.357672
20
-92.215241
30
0.0
10
-10.440751
20
-92.463852
30
0.0
10
-10.225901
20
-93.096461
30
0.0
10
-10.008910
20
-93.886467
30
0.0
10
-10.234137
20
-94.315344
30
0.0
10
-10.553472
20
-94.362289
30
0.0
10
-10.934171
20
-93.788259
30
0.0
10
-11.247127
20
-93.343532
30
0.0
10
-11.386695
20
-93.472939
30
0.0
10
-11.255363
20
-93.788259
30
0.0
10
-10.726404
20
-94.838213
30
0.0
10
-10.472972
20
-95.707176
30
0.0
10
-10.332965
20
-96.209554
30
0.0
10
-10.143544
20
-96.728403
30
0.0
10
-10.434964
20
-97.173532
30
0.0
10
-10.909464
20
-97.370787
30
0.0
10
-11.197713
20
-97.461380
30
0.0
10
-11.270869
20
-97.319454
30
0.0
10
-11.263599
20
-96.440153
30
0.0
10
-11.277220
20
-95.336594
30
0.0
10
-11.432820
20
-94.520993
30
0.0
10
-11.773528
20
-93.861991
30
0.0
10
-12.342475
20
-93.228232
30
0.0
10
-12.911554
20
-92.744327
30
0.0
10
-13.091923
20
-92.767033
30
0.0
10
-12.680138
20
-93.154111
30
0.0
10
-12.210704
20
-93.656488
30
0.0
10
-11.914219
20
-94.447115
30
0.0
10
-11.667802
20
-95.822660
30
0.0
10
-11.889511
20
-97.716686
30
0.0
10
-12.117417
20
-98.642836
30
0.0
10
-12.358946
20
-99.050869
30
0.0
10
-12.729552
20
-99.775610
30
0.0
10
-12.960152
20
-100.302695
30
0.0
10
-13.380172
20
-100.080331
30
0.0
10
-13.816664
20
-99.808553
30
0.0
10
-14.244920
20
-100.129745
30
0.0
10
-14.549641
20
-100.467409
30
0.0
10
-14.969662
20
-100.203866
30
0.0
10
-15.587339
20
-99.685017
30
0.0
10
-15.731199
20
-99.470454
30
0.0
10
-15.620282
20
-99.429711
30
0.0
10
-15.266147
20
-99.289704
30
0.0
10
-14.928483
20
-99.157933
30
0.0
10
-14.343749
20
-98.836741
30
0.0
10
-13.857843
20
-98.507313
30
0.0
10
-13.583675
20
-98.055374
30
0.0
10
-13.429587
20
-97.304901
30
0.0
10
-13.747595
20
-96.286889
30
0.0
10
-14.459049
20
-95.468341
30
0.0
10
-15.019493
20
-95.195501
30
0.0
10
-14.631998
20
-95.822476
30
0.0
10
-14.080207
20
-96.629574
30
0.0
10
-13.977915
20
-96.889930
30
0.0
10
-14.063735
20
-97.033123
30
0.0
10
-14.194555
20
-97.227400
30
0.0
10
-14.063735
20
-97.313137
30
0.0
10
-13.984801
20
-97.608160
30
0.0
10
-14.220213
20
-98.161414
30
0.0
10
-14.602513
20
-98.496070
30
0.0
10
-15.161050
20
-98.718319
30
0.0
10
-15.817432
20
-98.808298
30
0.0
10
-16.493265
20
-98.746148
30
0.0
10
-16.754518
20
-98.577910
30
0.0
10
-16.526208
20
-98.490842
30
0.0
10
-16.351779
20
-98.478552
30
0.0
10
-16.371699
20
-98.381861
30
0.0
10
-16.995643
20
-97.939050
30
0.0
10
-17.608727
20
-97.499034
30
0.0
10
-17.983926
20
-96.893117
30
0.0
10
-18.256679
20
-96.222055
30
0.0
10
-18.305119
20
-95.418927
30
0.0
10
-18.262946
20
-94.647298
30
0.0
10
-18.058048
20
-94.109451
30
0.0
10
-17.511738
20
-93.406748
30
0.0
10
-16.649744
20
-92.824683
30
0.0
10
-16.116398
20
-92.365587
30
0.0
10
-15.537925
20
-91.103422
30
0.0
10
-15.445057
20
-90.805939
30
0.0
10
-15.587339
20
-90.757523
30
0.0
10
-15.768524
20
-90.856351
30
0.0
10
-15.999124
20
-91.457557
30
0.0
10
-16.229723
20
-92.132884
30
0.0
10
-16.872107
20
-92.643497
30
0.0
10
-17.815411
20
-93.328405
30
0.0
10
-18.511011
20
-94.315344
30
0.0
10
-18.805094
20
-94.957728
30
0.0
10
-18.856910
20
-95.600112
30
0.0
10
-18.797504
20
-96.240747
30
0.0
10
-18.560425
20
-96.860174
30
0.0
10
-17.893334
20
-97.807279
30
0.0
10
-17.522727
20
-98.144942
30
0.0
10
-17.868627
20
-98.144942
30
0.0
10
-18.865146
20
-98.004935
30
0.0
10
-19.944022
20
-97.864929
30
0.0
10
-20.327431
20
-97.823202
30
0.0
10
-20.438164
20
-97.551972
30
0.0
10
-20.398126
20
-96.959084
30
0.0
10
-20.149914
20
-96.341325
30
0.0
10
-19.968729
20
-95.929540
30
0.0
10
-19.631066
20
-95.402456
30
0.0
10
-19.383995
20
-95.015378
30
0.0
10
-20.042850
20
-95.525991
30
0.0
10
-20.759292
20
-96.443188
30
0.0
10
-21.080548
20
-97.519029
30
0.0
10
-21.178256
20
-97.888780
30
0.0
10
-21.418212
20
-97.955521
30
0.0
10
-21.737716
20
-97.782593
30
0.0
10
-21.689989
20
-97.115480
30
0.0
10
-21.348838
20
-96.068838
30
0.0
10
-20.784063
20
-95.262449
30
0.0
10
-20.429928
20
-94.727129
30
0.0
10
-20.685235
20
-94.817721
30
0.0
10
-20.981720
20
-94.916550
30
0.0
10
-21.148293
20
-94.877559
30
0.0
10
-21.154669
20
-95.064792
30
0.0
10
-21.426447
20
-95.542462
30
0.0
10
-21.985275
20
-96.361097
30
0.0
10
-22.291195
20
-97.255487
30
0.0
10
-22.304398
20
-97.604100
30
0.0
10
-22.142953
20
-97.724922
30
0.0
10
-22.028585
20
-97.880274
30
0.0
10
-22.381788
20
-97.939050
30
0.0
10
-22.617089
20
-97.846377
30
0.0
10
-22.760630
20
-97.560208
30
0.0
10
-22.828339
20
-97.206330
30
0.0
10
-22.735923
20
-96.827231
30
0.0
10
-22.497088
20
-96.118961
30
0.0
10
-22.155956
20
-95.423644
30
0.0
10
-21.764111
20
-95.031849
30
0.0
10
-21.607633
20
-94.834193
30
0.0
10
-21.552064
20
-94.709381
30
0.0
10
-21.286440
20
-94.653007
30
0.0
10
-20.956136
20
-94.556878
30
0.0
10
-20.693470
20
-94.232987
30
0.0
10
-20.216928
20
-93.639777
30
0.0
10
-19.672244
20
-93.335296
30
0.0
10
-19.036257
20
-93.000343
30
0.0
10
-18.791025
20
-92.701147
30
0.0
10
-20.059322
20
-92.421134
30
0.0
10
-20.421692
20
-92.239948
30
0.0
10
-20.536834
20
-92.047627
30
0.0
10
-20.438164
20
-91.778749
30
0.0
10
-20.269982
20
-91.555719
30
0.0
10
-20.034615
20
-91.564621
30
0.0
10
-19.416937
20
-91.630507
30
0.0
10
-19.112832
20
-91.597736
30
0.0
10
-19.021624
20
-91.441086
30
0.0
10
-19.090669
20
-91.231550
30
0.0
10
-19.425173
20
-90.996358
30
0.0
10
-20.158150
20
-90.757523
30
0.0
10
-20.397709
20
-90.789271
30
0.0
10
-20.413457
20
-90.938708
30
0.0
10
-20.504049
20
-91.128129
30
0.0
10
-20.949718
20
-91.475882
30
0.0
10
-21.220555
20
-92.050527
30
0.0
10
-20.959797
20
-92.614273
30
0.0
10
-20.429928
20
-92.923511
30
0.0
10
-20.108736
20
-92.997632
30
0.0
10
-20.800534
20
-93.689431
30
0.0
10
-21.715158
20
-94.567291
30
0.0
10
-22.357081
20
-95.394220
30
0.0
10
-22.637095
20
-95.649526
30
0.0
10
-22.948738
20
-96.091026
30
0.0
10
-23.205358
20
-96.909588
30
0.0
10
-23.081822
20
-97.601386
30
0.0
10
-22.908872
20
-97.939050
30
0.0
10
-23.238300
20
-97.980228
30
0.0
10
-23.639797
20
-97.960454
30
0.0
10
-23.715971
20
-97.560208
30
0.0
10
-23.798328
20
-96.711931
30
0.0
10
-23.829715
20
-96.300098
30
0.0
10
-23.699499
20
-96.061311
30
0.0
10
-23.526550
20
-95.740119
30
0.0
10
-23.086773
20
-95.169421
30
0.0
10
-22.513559
20
-94.727129
30
0.0
10
-22.207664
20
-94.596755
30
0.0
10
-22.118246
20
-94.422408
30
0.0
10
-22.324138
20
-94.447115
30
0.0
10
-22.546502
20
-94.488293
30
0.0
10
-23.411250
20
-95.196563
30
0.0
10
-24.168934
20
-95.937776
30
0.0
10
-24.457183
20
-95.608348
30
0.0
10
-25.008975
20
-95.138913
30
0.0
10
-25.226205
20
-94.955774
30
0.0
10
-25.338403
20
-94.661243
30
0.0
10
-25.351257
20
-94.354430
30
0.0
10
-25.181925
20
-94.175337
30
0.0
10
-24.704254
20
-93.780024
30
0.0
10
-24.218348
20
-93.524717
30
0.0
10
-23.987749
20
-93.384710
30
0.0
10
-23.806563
20
-93.252939
30
0.0
10
-23.617142
20
-93.154111
30
0.0
10
-23.781856
20
-93.063518
30
0.0
10
-24.070106
20
-92.981161
30
0.0
10
-24.133043
20
-92.861067
30
0.0
10
-23.979513
20
-92.618790
30
0.0
10
-23.559492
20
-92.330541
30
0.0
10
-23.246536
20
-92.190534
30
0.0
10
-23.016799
20
-92.056245
30
0.0
10
-22.842987
20
-92.165827
30
0.0
10
-22.670037
20
-92.116413
30
0.0
10
-22.422966
20
-91.959935
30
0.0
10
-22.348845
20
-91.844635
30
0.0
10
-23.116298
20
-91.746561
30
0.0
10
-24.053634
20
-91.918756
30
0.0
10
-24.341884
20
-92.001113
30
0.0
10
-24.193641
20
-91.795221
30
0.0
10
-23.987749
20
-91.474029
30
0.0
10
-23.715971
20
-91.029301
30
0.0
10
-23.444193
20
-90.757523
30
0.0
10
-23.757149
20
-90.757523
30
0.0
10
-24.231782
20
-90.966231
30
0.0
10
-24.737197
20
-91.679921
30
0.0
10
-25.017211
20
-92.050527
30
0.0
10
-25.156178
20
-91.770756
30
0.0
10
-25.157217
20
-91.169308
30
0.0
10
-25.099568
20
-90.757523
30
0.0
10
-27.290263
20
-90.757523
30
0.0
10
-29.074875
20
-90.779247
30
0.0
10
-29.314711
20
-90.819023
30
0.0
10
-29.283301
20
-90.889294
30
0.0
10
-26.639643
20
-91.943463
30
0.0
10
-25.855406
20
-92.230443
30
0.0
10
-25.519588
20
-92.552905
30
0.0
10
-25.416398
20
-92.793403
30
0.0
10
-25.569002
20
-93.063518
30
0.0
10
-25.854751
20
-93.325534
30
0.0
10
-26.129030
20
-93.112932
30
0.0
10
-26.507872
20
-92.882333
30
0.0
10
-27.034956
20
-92.618790
30
0.0
10
-28.237368
20
-92.009349
30
0.0
10
-29.472722
20
-91.474029
30
0.0
10
-30.796431
20
-90.913711
30
0.0
10
-31.877545
20
-90.757523
30
0.0
10
-32.610522
20
-90.757523
30
0.0
10
-32.610522
20
-90.757523
30
0.0
62
0
0
LWPOLYLINE
100
AcDbPolyline
8
Layer_1
90
25
70
0
10
-18.403947
20
-90.757523
30
0.0
10
-18.818199
20
-90.782841
30
0.0
10
-18.815732
20
-90.897530
30
0.0
10
-18.502775
20
-90.979887
30
0.0
10
-18.110755
20
-91.151618
30
0.0
10
-17.440370
20
-91.984642
30
0.0
10
-17.115639
20
-92.344634
30
0.0
10
-17.020350
20
-92.157591
30
0.0
10
-16.863872
20
-92.025820
30
0.0
10
-16.551108
20
-91.812486
30
0.0
10
-16.419144
20
-91.202251
30
0.0
10
-16.451387
20
-90.827116
30
0.0
10
-16.641508
20
-90.757523
30
0.0
10
-16.808235
20
-90.790012
30
0.0
10
-16.822693
20
-90.897530
30
0.0
10
-16.872107
20
-91.037537
30
0.0
10
-17.028586
20
-90.897530
30
0.0
10
-17.358013
20
-90.757523
30
0.0
10
-17.573402
20
-90.792401
30
0.0
10
-17.572142
20
-90.963416
30
0.0
10
-17.514492
20
-91.169308
30
0.0
10
-17.695677
20
-90.963416
30
0.0
10
-17.943587
20
-90.796717
30
0.0
10
-18.403947
20
-90.757523
30
0.0
10
-18.403947
20
-90.757523
30
0.0
62
0
0
LWPOLYLINE
100
AcDbPolyline
8
Layer_1
90
7
70
0
10
-14.253156
20
-90.757523
30
0.0
10
-14.335513
20
-90.773995
30
0.0
10
-14.549641
20
-90.922237
30
0.0
10
-14.493341
20
-91.033682
30
0.0
10
-14.286099
20
-90.889294
30
0.0
10
-14.253156
20
-90.757523
30
0.0
10
-14.253156
20
-90.757523
30
0.0
62
0
0
LWPOLYLINE
100
AcDbPolyline
8
Layer_1
90
18
70
0
10
-12.210704
20
-90.757523
30
0.0
10
-12.303249
20
-90.798264
30
0.0
10
-12.227175
20
-90.905766
30
0.0
10
-12.088833
20
-91.170164
30
0.0
10
-12.092412
20
-91.482371
30
0.0
10
-12.221023
20
-91.765699
30
0.0
10
-12.457774
20
-91.943463
30
0.0
10
-12.713859
20
-92.120667
30
0.0
10
-12.630724
20
-92.231713
30
0.0
10
-12.540131
20
-92.371720
30
0.0
10
-12.386014
20
-92.497728
30
0.0
10
-11.955397
20
-92.215241
30
0.0
10
-11.578137
20
-91.648408
30
0.0
10
-11.609498
20
-91.012830
30
0.0
10
-11.750262
20
-90.805750
30
0.0
10
-12.037754
20
-90.757523
30
0.0
10
-12.210704
20
-90.757523
30
0.0
10
-12.210704
20
-90.757523
30
0.0
62
0
0
LWPOLYLINE
100
AcDbPolyline
8
Layer_1
90
8
70
0
10
-14.903776
20
-91.251665
30
0.0
10
-14.936719
20
-91.268136
30
0.0
10
-15.035547
20
-91.506971
30
0.0
10
-14.936719
20
-91.663450
30
0.0
10
-14.846126
20
-91.564621
30
0.0
10
-14.846126
20
-91.350493
30
0.0
10
-14.903776
20
-91.251665
30
0.0
10
-14.903776
20
-91.251665
30
0.0
62
0
0
LWPOLYLINE
100
AcDbPolyline
8
Layer_1
90
7
70
0
10
-13.380172
20
-92.462312
30
0.0
10
-13.462529
20
-92.561141
30
0.0
10
-13.381555
20
-92.690715
30
0.0
10
-13.240166
20
-92.610555
30
0.0
10
-13.322523
20
-92.478784
30
0.0
10
-13.380172
20
-92.462312
30
0.0
10
-13.380172
20
-92.462312
30
0.0
62
0
0
LWPOLYLINE
100
AcDbPolyline
8
Layer_1
90
7
70
0
10
-18.288647
20
-92.701147
30
0.0
10
-18.403947
20
-92.734090
30
0.0
10
-18.494540
20
-92.882333
30
0.0
10
-18.355218
20
-92.970124
30
0.0
10
-18.214526
20
-92.874097
30
0.0
10
-18.288647
20
-92.701147
30
0.0
10
-18.288647
20
-92.701147
30
0.0
62
0
0
LWPOLYLINE
100
AcDbPolyline
8
Layer_1
90
32
70
0
10
-14.862598
20
-93.730609
30
0.0
10
-15.381446
20
-93.895323
30
0.0
10
-16.022934
20
-94.342078
30
0.0
10
-16.328552
20
-95.040085
30
0.0
10
-16.328552
20
-95.913069
30
0.0
10
-15.900084
20
-96.567116
30
0.0
10
-15.422625
20
-96.942531
30
0.0
10
-15.248752
20
-96.786058
30
0.0
10
-15.332032
20
-96.497803
30
0.0
10
-16.054541
20
-95.398786
30
0.0
10
-16.122540
20
-95.042569
30
0.0
10
-15.957945
20
-94.908314
30
0.0
10
-15.768524
20
-94.793014
30
0.0
10
-15.575295
20
-94.464974
30
0.0
10
-15.307325
20
-94.307108
30
0.0
10
-15.175554
20
-94.265930
30
0.0
10
-14.847259
20
-94.210496
30
0.0
10
-14.039028
20
-94.636536
30
0.0
10
-13.391124
20
-95.094408
30
0.0
10
-13.034273
20
-95.525991
30
0.0
10
-12.834100
20
-95.991338
30
0.0
10
-12.844852
20
-96.678988
30
0.0
10
-12.795438
20
-97.379023
30
0.0
10
-12.606017
20
-97.074302
30
0.0
10
-12.474246
20
-96.662517
30
0.0
10
-12.597781
20
-95.493048
30
0.0
10
-13.051864
20
-94.675634
30
0.0
10
-13.619008
20
-94.265930
30
0.0
10
-14.154328
20
-93.985916
30
0.0
10
-14.509846
20
-93.773318
30
0.0
10
-14.862598
20
-93.730609
30
0.0
10
-14.862598
20
-93.730609
30
0.0
62
0
0
LWPOLYLINE
100
AcDbPolyline
8
Layer_1
90
20
70
0
10
-17.950984
20
-95.188327
30
0.0
10
-18.074477
20
-95.318366
30
0.0
10
-17.992162
20
-95.509520
30
0.0
10
-17.753327
20
-96.020133
30
0.0
10
-17.475220
20
-96.543792
30
0.0
10
-16.830929
20
-97.239016
30
0.0
10
-15.867353
20
-98.095528
30
0.0
10
-15.307294
20
-98.157032
30
0.0
10
-14.780241
20
-98.029643
30
0.0
10
-14.724272
20
-97.852483
30
0.0
10
-14.977897
20
-97.823750
30
0.0
10
-15.626772
20
-97.670566
30
0.0
10
-16.375499
20
-97.098902
30
0.0
10
-16.993688
20
-96.333753
30
0.0
10
-17.250949
20
-95.600112
30
0.0
10
-17.285938
20
-95.420965
30
0.0
10
-17.423899
20
-95.418927
30
0.0
10
-17.712148
20
-95.328334
30
0.0
10
-17.950984
20
-95.188327
30
0.0
10
-17.950984
20
-95.188327
30
0.0
62
0
0
LWPOLYLINE
100
AcDbPolyline
8
Layer_1
90
40
70
0
10
-36.011865
20
-99.017926
30
0.0
10
-36.440121
20
-99.075576
30
0.0
10
-37.831953
20
-99.808553
30
0.0
10
-37.759117
20
-99.887821
30
0.0
10
-37.477818
20
-99.726196
30
0.0
10
-36.201286
20
-99.190876
30
0.0
10
-36.720134
20
-99.545011
30
0.0
10
-37.255565
20
-99.909118
30
0.0
10
-36.967205
20
-99.948560
30
0.0
10
-36.613070
20
-100.006210
30
0.0
10
-35.921272
20
-99.997974
30
0.0
10
-35.329812
20
-99.929048
30
0.0
10
-34.982403
20
-100.030917
30
0.0
10
-34.652975
20
-100.080331
30
0.0
10
-34.455267
20
-99.993520
30
0.0
10
-34.323547
20
-100.129745
30
0.0
10
-34.233667
20
-100.264242
30
0.0
10
-33.804698
20
-100.269752
30
0.0
10
-33.567569
20
-100.297069
30
0.0
10
-33.467035
20
-100.442701
30
0.0
10
-33.287328
20
-100.625954
30
0.0
10
-32.939950
20
-100.541530
30
0.0
10
-32.796877
20
-100.500323
30
0.0
10
-32.783472
20
-100.656830
30
0.0
10
-32.698914
20
-100.841829
30
0.0
10
-32.108145
20
-100.912136
30
0.0
10
-31.629997
20
-100.966893
30
0.0
10
-31.581060
20
-101.035672
30
0.0
10
-31.716145
20
-101.203680
30
0.0
10
-31.325754
20
-101.373335
30
0.0
10
-30.806905
20
-101.612170
30
0.0
10
-30.670734
20
-101.735481
30
0.0
10
-30.633955
20
-101.620406
30
0.0
10
-32.174030
20
-100.022681
30
0.0
10
-32.767000
20
-99.767374
30
0.0
10
-33.442327
20
-99.479125
30
0.0
10
-34.134126
20
-99.248526
30
0.0
10
-35.295359
20
-99.108519
30
0.0
10
-36.011865
20
-99.017926
30
0.0
10
-36.011865
20
-99.017926
30
0.0
62
0
0
LWPOLYLINE
100
AcDbPolyline
8
Layer_1
90
7
70
0
10
-38.367274
20
-99.528539
30
0.0
10
-38.622580
20
-99.660310
30
0.0
10
-38.742837
20
-99.772059
30
0.0
10
-38.655523
20
-99.800317
30
0.0
10
-38.391981
20
-99.668546
30
0.0
10
-38.367274
20
-99.528539
30
0.0
10
-38.367274
20
-99.528539
30
0.0
62
0
0
LWPOLYLINE
100
AcDbPolyline
8
Layer_1
90
8
70
0
10
-38.235502
20
-99.857967
30
0.0
10
-38.433159
20
-99.989738
30
0.0
10
-38.542316
20
-100.137936
30
0.0
10
-38.457866
20
-100.170923
30
0.0
10
-38.212354
20
-100.041118
30
0.0
10
-38.186088
20
-99.857967
30
0.0
10
-38.235502
20
-99.857967
30
0.0
10
-38.235502
20
-99.857967
30
0.0
62
0
0
LWPOLYLINE
100
AcDbPolyline
8
Layer_1
90
7
70
0
10
-43.119270
20
-99.989738
30
0.0
10
-43.152213
20
-100.105038
30
0.0
10
-43.036913
20
-100.385052
30
0.0
10
-42.911187
20
-100.538355
30
0.0
10
-42.822785
20
-100.500351
30
0.0
10
-43.119270
20
-99.989738
30
0.0
10
-43.119270
20
-99.989738
30
0.0
62
0
0
LWPOLYLINE
100
AcDbPolyline
8
Layer_1
90
64
70
0
10
-35.278888
20
-101.208621
30
0.0
10
-36.876613
20
-101.480399
30
0.0
10
-37.831449
20
-102.079355
30
0.0
10
-38.276681
20
-102.625161
30
0.0
10
-37.815482
20
-102.476918
30
0.0
10
-36.207137
20
-101.770000
30
0.0
10
-34.891810
20
-101.678056
30
0.0
10
-34.033000
20
-101.809302
30
0.0
10
-33.291496
20
-102.079757
30
0.0
10
-32.643937
20
-102.501438
30
0.0
10
-32.066966
20
-103.086360
30
0.0
10
-31.783974
20
-103.540036
30
0.0
10
-31.992845
20
-103.473437
30
0.0
10
-32.478751
20
-103.267545
30
0.0
10
-33.055250
20
-102.979296
30
0.0
10
-33.778982
20
-102.657378
30
0.0
10
-34.814928
20
-102.504754
30
0.0
10
-35.897550
20
-102.535869
30
0.0
10
-36.761313
20
-102.765168
30
0.0
10
-37.544818
20
-103.369346
30
0.0
10
-38.021374
20
-103.959344
30
0.0
10
-37.846298
20
-104.060036
30
0.0
10
-37.321340
20
-103.671094
30
0.0
10
-36.202031
20
-102.979964
30
0.0
10
-35.730548
20
-102.936912
30
0.0
10
-35.344773
20
-103.102831
30
0.0
10
-35.198950
20
-103.281902
30
0.0
10
-35.245945
20
-103.522852
30
0.0
10
-35.347981
20
-103.979289
30
0.0
10
-35.298316
20
-104.381662
30
0.0
10
-35.105107
20
-104.704647
30
0.0
10
-34.776510
20
-104.922920
30
0.0
10
-34.256834
20
-105.045430
30
0.0
10
-33.731328
20
-105.022576
30
0.0
10
-33.258978
20
-104.865479
30
0.0
10
-32.898772
20
-104.585256
30
0.0
10
-32.632515
20
-104.342827
30
0.0
10
-32.569344
20
-104.568785
30
0.0
10
-32.649025
20
-104.865090
30
0.0
10
-32.880656
20
-105.112766
30
0.0
10
-33.755284
20
-105.433533
30
0.0
10
-34.422375
20
-105.639425
30
0.0
10
-34.152112
20
-105.700546
30
0.0
10
-33.532842
20
-105.581015
30
0.0
10
-32.396394
20
-105.104105
30
0.0
10
-32.249622
20
-105.030066
30
0.0
10
-32.066966
20
-105.153519
30
0.0
10
-31.586299
20
-105.387393
30
0.0
10
-31.276339
20
-105.351176
30
0.0
10
-31.416346
20
-105.194698
30
0.0
10
-31.534583
20
-105.055166
30
0.0
10
-31.185747
20
-104.939391
30
0.0
10
-30.815140
20
-104.791149
30
0.0
10
-30.913969
20
-104.700556
30
0.0
10
-31.000845
20
-104.565988
30
0.0
10
-30.872790
20
-104.338186
30
0.0
10
-30.823070
20
-104.158345
30
0.0
10
-31.053976
20
-103.745215
30
0.0
10
-31.375168
20
-103.144010
30
0.0
10
-32.198737
20
-102.065133
30
0.0
10
-33.095710
20
-101.610095
30
0.0
10
-34.282368
20
-101.274507
30
0.0
10
-35.278888
20
-101.208621
30
0.0
10
-35.278888
20
-101.208621
30
0.0
62
0
0
LWPOLYLINE
100
AcDbPolyline
8
Layer_1
90
14
70
0
10
-32.289330
20
-105.342940
30
0.0
10
-32.462280
20
-105.491183
30
0.0
10
-32.783472
20
-105.738254
30
0.0
10
-32.939950
20
-105.935911
30
0.0
10
-32.850868
20
-106.049783
30
0.0
10
-32.528165
20
-106.084153
30
0.0
10
-32.140369
20
-106.028206
30
0.0
10
-32.223444
20
-105.820611
30
0.0
10
-32.270205
20
-105.731167
30
0.0
10
-32.108145
20
-105.730018
30
0.0
10
-31.837963
20
-105.673691
30
0.0
10
-32.042259
20
-105.450004
30
0.0
10
-32.289330
20
-105.342940
30
0.0
10
-32.289330
20
-105.342940
30
0.0
62
0
0
LWPOLYLINE
100
AcDbPolyline
8
Layer_1
90
9
70
0
10
-33.796462
20
-106.010032
30
0.0
10
-33.944705
20
-106.117096
30
0.0
10
-34.405904
20
-106.207688
30
0.0
10
-34.694153
20
-106.248867
30
0.0
10
-34.438847
20
-106.380638
30
0.0
10
-34.158833
20
-106.438288
30
0.0
10
-33.771755
20
-106.108860
30
0.0
10
-33.796462
20
-106.010032
30
0.0
10
-33.796462
20
-106.010032
30
0.0
62
0
0
LWPOLYLINE
100
AcDbPolyline
8
Layer_1
90
7
70
0
10
-33.129371
20
-106.018267
30
0.0
10
-33.401149
20
-106.182981
30
0.0
10
-33.329990
20
-106.259259
30
0.0
10
-33.129371
20
-106.174746
30
0.0
10
-33.047014
20
-106.034739
30
0.0
10
-33.129371
20
-106.018267
30
0.0
10
-33.129371
20
-106.018267
30
0.0
62
0
0
LWPOLYLINE
100
AcDbPolyline
8
Layer_1
90
11
70
0
10
-40.129712
20
-110.819678
30
0.0
10
-40.261484
20
-111.305584
30
0.0
10
-40.409726
20
-111.931497
30
0.0
10
-40.508554
20
-112.096211
30
0.0
10
-40.417962
20
-112.170332
30
0.0
10
-40.239911
20
-111.969766
30
0.0
10
-40.092458
20
-111.522935
30
0.0
10
-40.029518
20
-111.062139
30
0.0
10
-40.105005
20
-110.819678
30
0.0
10
-40.129712
20
-110.819678
30
0.0
10
-40.129712
20
-110.819678
30
0.0
62
0
0
LWPOLYLINE
100
AcDbPolyline
8
Layer_1
90
13
70
0
10
-43.423991
20
-111.091456
30
0.0
10
-43.764236
20
-111.168980
30
0.0
10
-43.876954
20
-111.387941
30
0.0
10
-43.757900
20
-111.545646
30
0.0
10
-43.292220
20
-111.676191
30
0.0
10
-42.234423
20
-111.956821
30
0.0
10
-41.521545
20
-112.302103
30
0.0
10
-41.085053
20
-112.425639
30
0.0
10
-41.110612
20
-112.220253
30
0.0
10
-41.362674
20
-111.892400
30
0.0
10
-42.081572
20
-111.363234
30
0.0
10
-43.423991
20
-111.091456
30
0.0
10
-43.423991
20
-111.091456
30
0.0
62
0
0
LWPOLYLINE
100
AcDbPolyline
8
Layer_1
90
38
70
0
10
-44.346389
20
-114.122192
30
0.0
10
-44.824059
20
-114.295142
30
0.0
10
-45.178194
20
-114.797519
30
0.0
10
-45.235844
20
-115.126947
30
0.0
10
-45.499386
20
-114.945762
30
0.0
10
-45.812343
20
-114.756341
30
0.0
10
-45.861757
20
-115.118711
30
0.0
10
-45.861757
20
-115.481082
30
0.0
10
-45.359379
20
-115.596382
30
0.0
10
-44.722999
20
-115.860714
30
0.0
10
-44.667581
20
-116.329359
30
0.0
10
-44.710829
20
-116.597746
30
0.0
10
-44.618167
20
-116.724672
30
0.0
10
-44.478160
20
-116.938800
30
0.0
10
-44.252401
20
-117.505303
30
0.0
10
-43.769890
20
-117.927084
30
0.0
10
-42.844209
20
-118.073327
30
0.0
10
-41.933330
20
-117.910612
30
0.0
10
-41.008245
20
-117.332898
30
0.0
10
-40.409726
20
-116.658786
30
0.0
10
-40.022149
20
-116.225991
30
0.0
10
-39.100250
20
-116.148173
30
0.0
10
-38.499076
20
-116.114111
30
0.0
10
-38.391981
20
-115.950517
30
0.0
10
-38.622580
20
-115.530496
30
0.0
10
-38.838251
20
-115.363627
30
0.0
10
-38.993186
20
-115.406961
30
0.0
10
-39.124958
20
-115.645796
30
0.0
10
-39.196238
20
-115.757919
30
0.0
10
-39.388473
20
-115.759649
30
0.0
10
-40.006177
20
-115.456375
30
0.0
10
-41.785087
20
-114.328085
30
0.0
10
-42.575714
20
-114.525741
30
0.0
10
-43.292220
20
-114.673984
30
0.0
10
-43.613412
20
-114.393970
30
0.0
10
-43.973340
20
-114.170151
30
0.0
10
-44.346389
20
-114.122192
30
0.0
10
-44.346389
20
-114.122192
30
0.0
62
0
0
LWPOLYLINE
100
AcDbPolyline
8
Layer_1
90
10
70
0
10
-9.328210
20
-114.616334
30
0.0
10
-9.492924
20
-115.472846
30
0.0
10
-9.723523
20
-116.419951
30
0.0
10
-9.830587
20
-116.996450
30
0.0
10
-9.841039
20
-117.348289
30
0.0
10
-9.772938
20
-117.383528
30
0.0
10
-9.478350
20
-116.469725
30
0.0
10
-9.319974
20
-115.217540
30
0.0
10
-9.328210
20
-114.616334
30
0.0
10
-9.328210
20
-114.616334
30
0.0
  0
ENDSEC
  0
SECTION
  2
OBJECTS
  0
DICTIONARY
  5
C
330
0
100
AcDbDictionary
  3
ACAD_GROUP
350
D
  3
ACAD_MLINESTYLE
350
17
  0
DICTIONARY
  5
D
330
C
100
AcDbDictionary
  0
DICTIONARY
  5
1A
330
C
100
AcDbDictionary
  0
DICTIONARY
  5
17
330
C
100
AcDbDictionary
  3
STANDARD
350
18
  0
DICTIONARY
  5
19
330
C
100
AcDbDictionary
  0
ENDSEC
  0
EOF
