999
Inkscape export via OpenSCAD DXF Export
  0
SECTION
  2
HEADER
  9
$ACADVER
  1
AC1014
  9
$HANDSEED
  5
FFFF
  9
$MEASUREMENT
 70
     1
  0
ENDSEC
  0
SECTION
  2
TABLES
  0
TABLE
  2
VPORT
  5
8
330
0
100
AcDbSymbolTable
 70
     4
  0
VPORT
  5
2E
330
8
100
AcDbSymbolTableRecord
100
AcDbViewportTableRecord
  2
*ACTIVE
 70
     0
 10
0.0
 20
0.0
 11
1.0
 21
1.0
 12
210.0
 22
148.5
 13
0.0
 23
0.0
 14
10.0
 24
10.0
 15
10.0
 25
10.0
 16
0.0
 26
0.0
 36
1.0
 17
0.0
 27
0.0
 37
0.0
 40
341.0
 41
1.24
 42
50.0
 43
0.0
 44
0.0
 50
0.0
 51
0.0
 71
     0
 72
   100
 73
     1
 74
     3
 75
     0
 76
     0
 77
     0
 78
     0
  0
ENDTAB
  0
TABLE
  2
LTYPE
  5
5
330
0
100
AcDbSymbolTable
 70
     1
  0
LTYPE
  5
14
330
5
100
AcDbSymbolTableRecord
100
AcDbLinetypeTableRecord
  2
BYBLOCK
 70
     0
  3

 72
    65
 73
     0
 40
0.0
  0
LTYPE
  5
15
330
5
100
AcDbSymbolTableRecord
100
AcDbLinetypeTableRecord
  2
BYLAYER
 70
     0
  3

 72
    65
 73
     0
 40
0.0
  0
LTYPE
  5
16
330
5
100
AcDbSymbolTableRecord
100
AcDbLinetypeTableRecord
  2
CONTINUOUS
 70
     0
  3
Solid line
 72
    65
 73
     0
 40
0.0
  0
ENDTAB
  0
TABLE
0
TABLE
2
LAYER
5
2
330
0
100
AcDbSymbolTable
70
1
0
LAYER
5
10
330
2
100
AcDbSymbolTableRecord
100
AcDbLayerTableRecord
2
Layer_1
70
0
62
7
6
CONTINUOUS
0
ENDTAB
0
ENDSEC
  0
ENDTAB
  0
TABLE
  2
STYLE
  5
3
330
0
100
AcDbSymbolTable
 70
     1
  0
STYLE
  5
11
330
3
100
AcDbSymbolTableRecord
100
AcDbTextStyleTableRecord
  2
STANDARD
 70
     0
 40
0.0
 41
1.0
 50
0.0
 71
     0
 42
2.5
  3
txt
  4

  0
ENDTAB
  0
TABLE
  2
VIEW
  5
6
330
0
100
AcDbSymbolTable
 70
     0
  0
ENDTAB
  0
TABLE
  2
UCS
  5
7
330
0
100
AcDbSymbolTable
 70
     0
  0
ENDTAB
  0
TABLE
  2
APPID
  5
9
330
0
100
AcDbSymbolTable
 70
     2
  0
APPID
  5
12
330
9
100
AcDbSymbolTableRecord
100
AcDbRegAppTableRecord
  2
ACAD
 70
     0
  0
ENDTAB
  0
TABLE
  2
DIMSTYLE
  5
A
330
0
100
AcDbSymbolTable
 70
     1
  0
DIMSTYLE
105
27
330
A
100
AcDbSymbolTableRecord
100
AcDbDimStyleTableRecord
  2
ISO-25
 70
     0
  3

  4

  5

  6

  7

 40
1.0
 41
2.5
 42
0.625
 43
3.75
 44
1.25
 45
0.0
 46
0.0
 47
0.0
 48
0.0
140
2.5
141
2.5
142
0.0
143
0.03937007874016
144
1.0
145
0.0
146
1.0
147
0.625
 71
     0
 72
     0
 73
     0
 74
     0
 75
     0
 76
     0
 77
     1
 78
     8
170
     0
171
     3
172
     1
173
     0
174
     0
175
     0
176
     0
177
     0
178
     0
270
     2
271
     2
272
     2
273
     2
274
     3
340
11
275
     0
280
     0
281
     0
282
     0
283
     0
284
     8
285
     0
286
     0
287
     3
288
     0
  0
ENDTAB
  0
TABLE
  2
BLOCK_RECORD
  5
1
330
0
100
AcDbSymbolTable
 70
     1
  0
BLOCK_RECORD
  5
1F
330
1
100
AcDbSymbolTableRecord
100
AcDbBlockTableRecord
  2
*MODEL_SPACE
  0
BLOCK_RECORD
  5
1B
330
1
100
AcDbSymbolTableRecord
100
AcDbBlockTableRecord
  2
*PAPER_SPACE
  0
ENDTAB
  0
ENDSEC
  0
SECTION
  2
BLOCKS
  0
BLOCK
  5
20
330
1F
100
AcDbEntity
  8
0
100
AcDbBlockBegin
  2
*MODEL_SPACE
 70
     0
 10
0.0
 20
0.0
 30
0.0
  3
*MODEL_SPACE
  1

  0
ENDBLK
  5
21
330
1F
100
AcDbEntity
  8
0
100
AcDbBlockEnd
  0
BLOCK
  5
1C
330
1B
100
AcDbEntity
 67
     1
  8
0
100
AcDbBlockBegin
  2
*PAPER_SPACE
  1

  0
ENDBLK
  5
1D
330
1B
100
AcDbEntity
 67
     1
  8
0
100
AcDbBlockEnd
  0
ENDSEC
  0
SECTION
  2
ENTITIES
0
DIMENSION
5
83
100
AcDbEntity
62
256
370
-1
6
ByLayer
1
total_width
3
Standard
70
0
71
5
72
1
41
1.0
100
AcDbAlignedDimension
13
-59.096892
23
0.000000
33
0.0
14
-14.048424
24
0.000000
34
0.0
50
0.000000
100
AcDbRotatedDimension
0
DIMENSION
5
83
100
AcDbEntity
62
256
370
-1
6
ByLayer
1
total_minx
3
Standard
70
0
71
5
72
1
41
1.0
100
AcDbAlignedDimension
13
-59.096892
23
0.000000
33
0.0
14
0.000000
24
0.000000
34
0.0
50
0.000000
100
AcDbRotatedDimension
0
DIMENSION
5
83
100
AcDbEntity
62
256
370
-1
6
ByLayer
1
total_maxx
3
Standard
70
0
71
5
72
1
41
1.0
100
AcDbAlignedDimension
13
0.000000
23
0.000000
33
0.0
14
-14.048424
24
0.000000
34
0.0
50
0.000000
100
AcDbRotatedDimension
0
DIMENSION
5
83
100
AcDbEntity
62
256
370
-1
6
ByLayer
1
total_height
3
Standard
70
0
71
5
72
1
41
1.0
100
AcDbAlignedDimension
13
0.000000
23
-128.396486
33
0.0
14
0.000000
24
-76.412036
34
0.0
50
90.000000
100
AcDbRotatedDimension
0
DIMENSION
5
83
100
AcDbEntity
62
256
370
-1
6
ByLayer
1
total_miny
3
Standard
70
0
71
5
72
1
41
1.0
100
AcDbAlignedDimension
13
-128.396486
23
0.000000
33
0.0
14
0.000000
24
0.000000
34
0.0
50
0.000000
100
AcDbRotatedDimension
0
DIMENSION
5
83
100
AcDbEntity
62
256
370
-1
6
ByLayer
1
total_maxy
3
Standard
70
0
71
5
72
1
41
1.0
100
AcDbAlignedDimension
13
0.000000
23
0.000000
33
0.0
14
-76.412036
24
0.000000
34
0.0
50
0.000000
100
AcDbRotatedDimension
0
DIMENSION
8
Layer_1
5
83
100
AcDbEntity
62
256
370
-1
6
ByLayer
1
Layer_1_width
3
Standard
70
0
71
5
72
1
41
1.0
100
AcDbAlignedDimension
13
-59.096892
23
0.000000
33
0.0
14
-14.048424
24
0.000000
34
0.0
50
0.000000
100
AcDbRotatedDimension
0
DIMENSION
8
Layer_1
5
83
100
AcDbEntity
62
256
370
-1
6
ByLayer
1
Layer_1_minx
3
Standard
70
0
71
5
72
1
41
1.0
100
AcDbAlignedDimension
13
-59.096892
23
0.000000
33
0.0
14
0.000000
24
0.000000
34
0.0
50
0.000000
100
AcDbRotatedDimension
0
DIMENSION
8
Layer_1
5
83
100
AcDbEntity
62
256
370
-1
6
ByLayer
1
Layer_1_maxx
3
Standard
70
0
71
5
72
1
41
1.0
100
AcDbAlignedDimension
13
0.000000
23
0.000000
33
0.0
14
-14.048424
24
0.000000
34
0.0
50
0.000000
100
AcDbRotatedDimension
0
DIMENSION
8
Layer_1
5
83
100
AcDbEntity
62
256
370
-1
6
ByLayer
1
Layer_1_height
3
Standard
70
0
71
5
72
1
41
1.0
100
AcDbAlignedDimension
13
0.000000
23
-128.396486
33
0.0
14
0.000000
24
-76.412036
34
0.0
50
90.000000
100
AcDbRotatedDimension
0
DIMENSION
8
Layer_1
5
83
100
AcDbEntity
62
256
370
-1
6
ByLayer
1
Layer_1_miny
3
Standard
70
0
71
5
72
1
41
1.0
100
AcDbAlignedDimension
13
-128.396486
23
0.000000
33
0.0
14
0.000000
24
0.000000
34
0.0
50
0.000000
100
AcDbRotatedDimension
0
DIMENSION
8
Layer_1
5
83
100
AcDbEntity
62
256
370
-1
6
ByLayer
1
Layer_1_maxy
3
Standard
70
0
71
5
72
1
41
1.0
100
AcDbAlignedDimension
13
0.000000
23
0.000000
33
0.0
14
-76.412036
24
0.000000
34
0.0
50
0.000000
100
AcDbRotatedDimension
62
0
0
LWPOLYLINE
100
AcDbPolyline
8
Layer_1
90
125
70
0
10
-34.777638
20
-76.412036
30
0.0
10
-38.521496
20
-76.708781
30
0.0
10
-40.200559
20
-76.958992
30
0.0
10
-41.075920
20
-77.207195
30
0.0
10
-42.185994
20
-77.860641
30
0.0
10
-43.002189
20
-78.410202
30
0.0
10
-43.870383
20
-79.206930
30
0.0
10
-44.614780
20
-80.070563
30
0.0
10
-45.059583
20
-80.820836
30
0.0
10
-45.868670
20
-83.397148
30
0.0
10
-46.153908
20
-85.261123
30
0.0
10
-46.241011
20
-86.129672
30
0.0
10
-46.482626
20
-87.026179
30
0.0
10
-46.819688
20
-87.782174
30
0.0
10
-47.193129
20
-88.229189
30
0.0
10
-47.662131
20
-88.389859
30
0.0
10
-48.332539
20
-88.390756
30
0.0
10
-50.389505
20
-87.906403
30
0.0
10
-52.031513
20
-87.544448
30
0.0
10
-52.574907
20
-87.578201
30
0.0
10
-52.942655
20
-87.763899
30
0.0
10
-53.141828
20
-88.108138
30
0.0
10
-53.179495
20
-88.617511
30
0.0
10
-52.798596
20
-90.158037
30
0.0
10
-52.348062
20
-91.137627
30
0.0
10
-51.758204
20
-91.871997
30
0.0
10
-50.993763
20
-92.392993
30
0.0
10
-50.019481
20
-92.732462
30
0.0
10
-48.313507
20
-93.193869
30
0.0
10
-48.170505
20
-93.376542
30
0.0
10
-48.263835
20
-93.653585
30
0.0
10
-48.514207
20
-94.391579
30
0.0
10
-48.559907
20
-94.993551
30
0.0
10
-48.396556
20
-95.504194
30
0.0
10
-48.019775
20
-95.968202
30
0.0
10
-47.374203
20
-96.881456
30
0.0
10
-47.264225
20
-97.140364
30
0.0
10
-47.004179
20
-97.330206
30
0.0
10
-46.662003
20
-97.711234
30
0.0
10
-46.350730
20
-98.432406
30
0.0
10
-45.971505
20
-99.166643
30
0.0
10
-45.358780
20
-99.838450
30
0.0
10
-44.647629
20
-100.328812
30
0.0
10
-43.973129
20
-100.518714
30
0.0
10
-43.680238
20
-100.450796
30
0.0
10
-43.603657
20
-100.290362
30
0.0
10
-43.733463
20
-100.102392
30
0.0
10
-44.059732
20
-99.951867
30
0.0
10
-44.376680
20
-99.688968
30
0.0
10
-44.635346
20
-99.191032
30
0.0
10
-44.767598
20
-98.640507
30
0.0
10
-44.705307
20
-98.219839
30
0.0
10
-43.091456
20
-98.150685
30
0.0
10
-41.296361
20
-98.400915
30
0.0
10
-41.144833
20
-98.657172
30
0.0
10
-41.154649
20
-99.046490
30
0.0
10
-41.159581
20
-99.402562
30
0.0
10
-40.800370
20
-99.377150
30
0.0
10
-40.426084
20
-99.409777
30
0.0
10
-40.312896
20
-99.761229
30
0.0
10
-40.457223
20
-100.330030
30
0.0
10
-40.855479
20
-101.014702
30
0.0
10
-41.390835
20
-101.739006
30
0.0
10
-40.816115
20
-102.707367
30
0.0
10
-39.855625
20
-103.982768
30
0.0
10
-39.336106
20
-104.231107
30
0.0
10
-38.679685
20
-104.275711
30
0.0
10
-37.942043
20
-104.120702
30
0.0
10
-37.178858
20
-103.770201
30
0.0
10
-36.519534
20
-103.318696
30
0.0
10
-36.331724
20
-103.025933
30
0.0
10
-36.612750
20
-102.898642
30
0.0
10
-37.359934
20
-102.943553
30
0.0
10
-38.355572
20
-102.951436
30
0.0
10
-39.123453
20
-102.542038
30
0.0
10
-39.593128
20
-102.052941
30
0.0
10
-39.779253
20
-101.502266
30
0.0
10
-39.688652
20
-100.812124
30
0.0
10
-39.328146
20
-99.904629
30
0.0
10
-38.462133
20
-97.936417
30
0.0
10
-38.020821
20
-97.181618
30
0.0
10
-37.415044
20
-96.991675
30
0.0
10
-36.791031
20
-97.066270
30
0.0
10
-36.271870
20
-97.267355
30
0.0
10
-35.916876
20
-97.560882
30
0.0
10
-35.785363
20
-97.912801
30
0.0
10
-35.656785
20
-98.185160
30
0.0
10
-35.218517
20
-98.156858
30
0.0
10
-34.210792
20
-98.007274
30
0.0
10
-33.899420
20
-97.901259
30
0.0
10
-33.769912
20
-97.652995
30
0.0
10
-33.358944
20
-97.333647
30
0.0
10
-32.069374
20
-97.078278
30
0.0
10
-30.879071
20
-96.847416
30
0.0
10
-30.408205
20
-96.605906
30
0.0
10
-30.620772
20
-95.669035
30
0.0
10
-30.698694
20
-95.276018
30
0.0
10
-30.602643
20
-95.077177
30
0.0
10
-29.447716
20
-95.015589
30
0.0
10
-26.267083
20
-94.850260
30
0.0
10
-24.587674
20
-94.782274
30
0.0
10
-23.338382
20
-95.078570
30
0.0
10
-22.248942
20
-95.374636
30
0.0
10
-21.228457
20
-95.102192
30
0.0
10
-20.391683
20
-94.649474
30
0.0
10
-19.619187
20
-94.019090
30
0.0
10
-18.410250
20
-92.477202
30
0.0
10
-18.045418
20
-91.691635
30
0.0
10
-17.888082
20
-90.980279
30
0.0
10
-17.974048
20
-90.406103
30
0.0
10
-18.339120
20
-90.032075
30
0.0
10
-19.575551
20
-89.877325
30
0.0
10
-21.929141
20
-89.811634
30
0.0
10
-25.078282
20
-89.811634
30
0.0
10
-25.078282
20
-86.158629
30
0.0
10
-25.171271
20
-82.876268
30
0.0
10
-25.357820
20
-82.049759
30
0.0
10
-25.700238
20
-81.285334
30
0.0
10
-26.881351
20
-79.610630
30
0.0
10
-28.502363
20
-78.213115
30
0.0
10
-30.401198
20
-77.204244
30
0.0
10
-32.415779
20
-76.695475
30
0.0
10
-33.762041
20
-76.459289
30
0.0
10
-34.777638
20
-76.412050
30
0.0
10
-34.777638
20
-76.412036
30
0.0
62
0
0
LWPOLYLINE
100
AcDbPolyline
8
Layer_1
90
8
70
0
10
-35.580670
20
-101.022576
30
0.0
10
-35.646300
20
-101.170584
30
0.0
10
-35.407465
20
-101.526439
30
0.0
10
-34.848492
20
-102.030299
30
0.0
10
-35.029566
20
-101.526439
30
0.0
10
-35.302551
20
-101.170584
30
0.0
10
-35.580670
20
-101.022576
30
0.0
10
-35.580670
20
-101.022576
30
0.0
62
0
0
LWPOLYLINE
100
AcDbPolyline
8
Layer_1
90
11
70
0
10
-39.367511
20
-106.061200
30
0.0
10
-40.718076
20
-106.114617
30
0.0
10
-41.164660
20
-106.246291
30
0.0
10
-40.708733
20
-106.413354
30
0.0
10
-39.351763
20
-106.572939
30
0.0
10
-37.505463
20
-106.616766
30
0.0
10
-37.177362
20
-106.502454
30
0.0
10
-37.186726
20
-106.289515
30
0.0
10
-37.884587
20
-106.128841
30
0.0
10
-39.367511
20
-106.061200
30
0.0
10
-39.367511
20
-106.061200
30
0.0
62
0
0
LWPOLYLINE
100
AcDbPolyline
8
Layer_1
90
8
70
0
10
-35.533432
20
-106.596555
30
0.0
10
-35.848346
20
-106.651665
30
0.0
10
-35.885740
20
-106.740856
30
0.0
10
-35.533432
20
-106.777632
30
0.0
10
-35.181120
20
-106.740856
30
0.0
10
-35.218517
20
-106.651665
30
0.0
10
-35.533432
20
-106.596555
30
0.0
10
-35.533432
20
-106.596555
30
0.0
62
0
0
LWPOLYLINE
100
AcDbPolyline
8
Layer_1
90
105
70
0
10
-25.849822
20
-108.068779
30
0.0
10
-25.826214
20
-109.903153
30
0.0
10
-25.890910
20
-111.278385
30
0.0
10
-26.103726
20
-112.486411
30
0.0
10
-26.451367
20
-113.479421
30
0.0
10
-26.920541
20
-114.209604
30
0.0
10
-27.345675
20
-114.965398
30
0.0
10
-27.518936
20
-115.493718
30
0.0
10
-27.921672
20
-116.156952
30
0.0
10
-28.912373
20
-117.177670
30
0.0
10
-29.355129
20
-117.605780
30
0.0
10
-29.487090
20
-118.327108
30
0.0
10
-29.561095
20
-118.917449
30
0.0
10
-29.739024
20
-119.161628
30
0.0
10
-29.990955
20
-118.909696
30
0.0
10
-30.060651
20
-118.670412
30
0.0
10
-30.247665
20
-118.707413
30
0.0
10
-30.841220
20
-119.515910
30
0.0
10
-31.252529
20
-120.085232
30
0.0
10
-31.730830
20
-120.450113
30
0.0
10
-32.209143
20
-120.576205
30
0.0
10
-32.620485
20
-120.429158
30
0.0
10
-32.925959
20
-120.372796
30
0.0
10
-33.307093
20
-120.522306
30
0.0
10
-33.632283
20
-120.798446
30
0.0
10
-33.769925
20
-121.121969
30
0.0
10
-34.017929
20
-121.465547
30
0.0
10
-34.584790
20
-121.799566
30
0.0
10
-35.204779
20
-122.003417
30
0.0
10
-35.612170
20
-121.956491
30
0.0
10
-35.961551
20
-121.887216
30
0.0
10
-36.509676
20
-122.129697
30
0.0
10
-37.341183
20
-122.831244
30
0.0
10
-37.444482
20
-123.158721
30
0.0
10
-37.383563
20
-123.538934
30
0.0
10
-37.346333
20
-123.846111
30
0.0
10
-37.517402
20
-123.838104
30
0.0
10
-37.716638
20
-123.794761
30
0.0
10
-37.800823
20
-123.932577
30
0.0
10
-38.010446
20
-124.133321
30
0.0
10
-38.533677
20
-124.190029
30
0.0
10
-39.887131
20
-123.885339
30
0.0
10
-40.390387
20
-123.505850
30
0.0
10
-40.564197
20
-123.003584
30
0.0
10
-40.703137
20
-122.554235
30
0.0
10
-41.225517
20
-122.436738
30
0.0
10
-41.743437
20
-122.547647
30
0.0
10
-41.713631
20
-123.098055
30
0.0
10
-41.635981
20
-123.597604
30
0.0
10
-41.973436
20
-123.334241
30
0.0
10
-42.285076
20
-123.105244
30
0.0
10
-42.539695
20
-123.107110
30
0.0
10
-42.910304
20
-123.822358
30
0.0
10
-43.042615
20
-124.169043
30
0.0
10
-43.217345
20
-123.751504
30
0.0
10
-43.430739
20
-123.362704
30
0.0
10
-43.729082
20
-123.460208
30
0.0
10
-44.075528
20
-123.518417
30
0.0
10
-44.453385
20
-122.987836
30
0.0
10
-44.949401
20
-122.379935
30
0.0
10
-45.602823
20
-121.972239
30
0.0
10
-46.144451
20
-121.667329
30
0.0
10
-46.366488
20
-121.303045
30
0.0
10
-46.482567
20
-121.023962
30
0.0
10
-46.870350
20
-121.051114
30
0.0
10
-47.253289
20
-121.083626
30
0.0
10
-47.374213
20
-120.838550
30
0.0
10
-47.626144
20
-120.381920
30
0.0
10
-47.908545
20
-119.601022
30
0.0
10
-48.098517
20
-117.555569
30
0.0
10
-48.213071
20
-117.218029
30
0.0
10
-48.759837
20
-117.508330
30
0.0
10
-49.397538
20
-117.917719
30
0.0
10
-49.925019
20
-116.713172
30
0.0
10
-50.305849
20
-115.542546
30
0.0
10
-50.153329
20
-114.500900
30
0.0
10
-49.665214
20
-112.595668
30
0.0
10
-49.051132
20
-110.855771
30
0.0
10
-48.655725
20
-109.829564
30
0.0
10
-48.746487
20
-109.639127
30
0.0
10
-49.027510
20
-109.588241
30
0.0
10
-49.291829
20
-109.466310
30
0.0
10
-49.247951
20
-109.052885
30
0.0
10
-49.223791
20
-108.681170
30
0.0
10
-49.417565
20
-108.617563
30
0.0
10
-49.717448
20
-108.828696
30
0.0
10
-50.011616
20
-109.281200
30
0.0
10
-50.453746
20
-109.766547
30
0.0
10
-51.324411
20
-110.264955
30
0.0
10
-54.176358
20
-111.217922
30
0.0
10
-56.867467
20
-112.163166
30
0.0
10
-58.030883
20
-112.803208
30
0.0
10
-59.096892
20
-113.571903
30
0.0
10
-59.096892
20
-128.396486
30
0.0
10
-37.596127
20
-128.302012
30
0.0
10
-14.048424
20
-128.199665
30
0.0
10
-14.048424
20
-115.878650
30
0.0
10
-15.113200
20
-115.448965
30
0.0
10
-16.229205
20
-115.209455
30
0.0
10
-17.558728
20
-114.918780
30
0.0
10
-18.872943
20
-114.350839
30
0.0
10
-20.170214
20
-113.507586
30
0.0
10
-21.448906
20
-112.390976
30
0.0
10
-24.369735
20
-109.525257
30
0.0
10
-25.849822
20
-108.068779
30
0.0
  0
ENDSEC
  0
SECTION
  2
OBJECTS
  0
DICTIONARY
  5
C
330
0
100
AcDbDictionary
  3
ACAD_GROUP
350
D
  3
ACAD_MLINESTYLE
350
17
  0
DICTIONARY
  5
D
330
C
100
AcDbDictionary
  0
DICTIONARY
  5
1A
330
C
100
AcDbDictionary
  0
DICTIONARY
  5
17
330
C
100
AcDbDictionary
  3
STANDARD
350
18
  0
DICTIONARY
  5
19
330
C
100
AcDbDictionary
  0
ENDSEC
  0
EOF
