999
Inkscape export via OpenSCAD DXF Export
  0
SECTION
  2
HEADER
  9
$ACADVER
  1
AC1014
  9
$HANDSEED
  5
FFFF
  9
$MEASUREMENT
 70
     1
  0
ENDSEC
  0
SECTION
  2
TABLES
  0
TABLE
  2
VPORT
  5
8
330
0
100
AcDbSymbolTable
 70
     4
  0
VPORT
  5
2E
330
8
100
AcDbSymbolTableRecord
100
AcDbViewportTableRecord
  2
*ACTIVE
 70
     0
 10
0.0
 20
0.0
 11
1.0
 21
1.0
 12
210.0
 22
148.5
 13
0.0
 23
0.0
 14
10.0
 24
10.0
 15
10.0
 25
10.0
 16
0.0
 26
0.0
 36
1.0
 17
0.0
 27
0.0
 37
0.0
 40
341.0
 41
1.24
 42
50.0
 43
0.0
 44
0.0
 50
0.0
 51
0.0
 71
     0
 72
   100
 73
     1
 74
     3
 75
     0
 76
     0
 77
     0
 78
     0
  0
ENDTAB
  0
TABLE
  2
LTYPE
  5
5
330
0
100
AcDbSymbolTable
 70
     1
  0
LTYPE
  5
14
330
5
100
AcDbSymbolTableRecord
100
AcDbLinetypeTableRecord
  2
BYBLOCK
 70
     0
  3

 72
    65
 73
     0
 40
0.0
  0
LTYPE
  5
15
330
5
100
AcDbSymbolTableRecord
100
AcDbLinetypeTableRecord
  2
BYLAYER
 70
     0
  3

 72
    65
 73
     0
 40
0.0
  0
LTYPE
  5
16
330
5
100
AcDbSymbolTableRecord
100
AcDbLinetypeTableRecord
  2
CONTINUOUS
 70
     0
  3
Solid line
 72
    65
 73
     0
 40
0.0
  0
ENDTAB
  0
TABLE
0
TABLE
2
LAYER
5
2
330
0
100
AcDbSymbolTable
70
1
0
LAYER
5
10
330
2
100
AcDbSymbolTableRecord
100
AcDbLayerTableRecord
2
Capa_1
70
0
62
7
6
CONTINUOUS
0
ENDTAB
0
ENDSEC
  0
ENDTAB
  0
TABLE
  2
STYLE
  5
3
330
0
100
AcDbSymbolTable
 70
     1
  0
STYLE
  5
11
330
3
100
AcDbSymbolTableRecord
100
AcDbTextStyleTableRecord
  2
STANDARD
 70
     0
 40
0.0
 41
1.0
 50
0.0
 71
     0
 42
2.5
  3
txt
  4

  0
ENDTAB
  0
TABLE
  2
VIEW
  5
6
330
0
100
AcDbSymbolTable
 70
     0
  0
ENDTAB
  0
TABLE
  2
UCS
  5
7
330
0
100
AcDbSymbolTable
 70
     0
  0
ENDTAB
  0
TABLE
  2
APPID
  5
9
330
0
100
AcDbSymbolTable
 70
     2
  0
APPID
  5
12
330
9
100
AcDbSymbolTableRecord
100
AcDbRegAppTableRecord
  2
ACAD
 70
     0
  0
ENDTAB
  0
TABLE
  2
DIMSTYLE
  5
A
330
0
100
AcDbSymbolTable
 70
     1
  0
DIMSTYLE
105
27
330
A
100
AcDbSymbolTableRecord
100
AcDbDimStyleTableRecord
  2
ISO-25
 70
     0
  3

  4

  5

  6

  7

 40
1.0
 41
2.5
 42
0.625
 43
3.75
 44
1.25
 45
0.0
 46
0.0
 47
0.0
 48
0.0
140
2.5
141
2.5
142
0.0
143
0.03937007874016
144
1.0
145
0.0
146
1.0
147
0.625
 71
     0
 72
     0
 73
     0
 74
     0
 75
     0
 76
     0
 77
     1
 78
     8
170
     0
171
     3
172
     1
173
     0
174
     0
175
     0
176
     0
177
     0
178
     0
270
     2
271
     2
272
     2
273
     2
274
     3
340
11
275
     0
280
     0
281
     0
282
     0
283
     0
284
     8
285
     0
286
     0
287
     3
288
     0
  0
ENDTAB
  0
TABLE
  2
BLOCK_RECORD
  5
1
330
0
100
AcDbSymbolTable
 70
     1
  0
BLOCK_RECORD
  5
1F
330
1
100
AcDbSymbolTableRecord
100
AcDbBlockTableRecord
  2
*MODEL_SPACE
  0
BLOCK_RECORD
  5
1B
330
1
100
AcDbSymbolTableRecord
100
AcDbBlockTableRecord
  2
*PAPER_SPACE
  0
ENDTAB
  0
ENDSEC
  0
SECTION
  2
BLOCKS
  0
BLOCK
  5
20
330
1F
100
AcDbEntity
  8
0
100
AcDbBlockBegin
  2
*MODEL_SPACE
 70
     0
 10
0.0
 20
0.0
 30
0.0
  3
*MODEL_SPACE
  1

  0
ENDBLK
  5
21
330
1F
100
AcDbEntity
  8
0
100
AcDbBlockEnd
  0
BLOCK
  5
1C
330
1B
100
AcDbEntity
 67
     1
  8
0
100
AcDbBlockBegin
  2
*PAPER_SPACE
  1

  0
ENDBLK
  5
1D
330
1B
100
AcDbEntity
 67
     1
  8
0
100
AcDbBlockEnd
  0
ENDSEC
  0
SECTION
  2
ENTITIES
0
DIMENSION
5
83
100
AcDbEntity
62
256
370
-1
6
ByLayer
1
total_width
3
Standard
70
0
71
5
72
1
41
1.0
100
AcDbAlignedDimension
13
43.326030
23
0.000000
33
0.0
14
92.769721
24
0.000000
34
0.0
50
0.000000
100
AcDbRotatedDimension
0
DIMENSION
5
83
100
AcDbEntity
62
256
370
-1
6
ByLayer
1
total_minx
3
Standard
70
0
71
5
72
1
41
1.0
100
AcDbAlignedDimension
13
43.326030
23
0.000000
33
0.0
14
0.000000
24
0.000000
34
0.0
50
0.000000
100
AcDbRotatedDimension
0
DIMENSION
5
83
100
AcDbEntity
62
256
370
-1
6
ByLayer
1
total_maxx
3
Standard
70
0
71
5
72
1
41
1.0
100
AcDbAlignedDimension
13
0.000000
23
0.000000
33
0.0
14
92.769721
24
0.000000
34
0.0
50
0.000000
100
AcDbRotatedDimension
0
DIMENSION
5
83
100
AcDbEntity
62
256
370
-1
6
ByLayer
1
total_height
3
Standard
70
0
71
5
72
1
41
1.0
100
AcDbAlignedDimension
13
0.000000
23
-126.400353
33
0.0
14
0.000000
24
-70.141067
34
0.0
50
90.000000
100
AcDbRotatedDimension
0
DIMENSION
5
83
100
AcDbEntity
62
256
370
-1
6
ByLayer
1
total_miny
3
Standard
70
0
71
5
72
1
41
1.0
100
AcDbAlignedDimension
13
-126.400353
23
0.000000
33
0.0
14
0.000000
24
0.000000
34
0.0
50
0.000000
100
AcDbRotatedDimension
0
DIMENSION
5
83
100
AcDbEntity
62
256
370
-1
6
ByLayer
1
total_maxy
3
Standard
70
0
71
5
72
1
41
1.0
100
AcDbAlignedDimension
13
0.000000
23
0.000000
33
0.0
14
-70.141067
24
0.000000
34
0.0
50
0.000000
100
AcDbRotatedDimension
0
DIMENSION
8
Capa_1
5
83
100
AcDbEntity
62
256
370
-1
6
ByLayer
1
Capa_1_width
3
Standard
70
0
71
5
72
1
41
1.0
100
AcDbAlignedDimension
13
43.326030
23
0.000000
33
0.0
14
92.769721
24
0.000000
34
0.0
50
0.000000
100
AcDbRotatedDimension
0
DIMENSION
8
Capa_1
5
83
100
AcDbEntity
62
256
370
-1
6
ByLayer
1
Capa_1_minx
3
Standard
70
0
71
5
72
1
41
1.0
100
AcDbAlignedDimension
13
43.326030
23
0.000000
33
0.0
14
0.000000
24
0.000000
34
0.0
50
0.000000
100
AcDbRotatedDimension
0
DIMENSION
8
Capa_1
5
83
100
AcDbEntity
62
256
370
-1
6
ByLayer
1
Capa_1_maxx
3
Standard
70
0
71
5
72
1
41
1.0
100
AcDbAlignedDimension
13
0.000000
23
0.000000
33
0.0
14
92.769721
24
0.000000
34
0.0
50
0.000000
100
AcDbRotatedDimension
0
DIMENSION
8
Capa_1
5
83
100
AcDbEntity
62
256
370
-1
6
ByLayer
1
Capa_1_height
3
Standard
70
0
71
5
72
1
41
1.0
100
AcDbAlignedDimension
13
0.000000
23
-126.400353
33
0.0
14
0.000000
24
-70.141067
34
0.0
50
90.000000
100
AcDbRotatedDimension
0
DIMENSION
8
Capa_1
5
83
100
AcDbEntity
62
256
370
-1
6
ByLayer
1
Capa_1_miny
3
Standard
70
0
71
5
72
1
41
1.0
100
AcDbAlignedDimension
13
-126.400353
23
0.000000
33
0.0
14
0.000000
24
0.000000
34
0.0
50
0.000000
100
AcDbRotatedDimension
0
DIMENSION
8
Capa_1
5
83
100
AcDbEntity
62
256
370
-1
6
ByLayer
1
Capa_1_maxy
3
Standard
70
0
71
5
72
1
41
1.0
100
AcDbAlignedDimension
13
0.000000
23
0.000000
33
0.0
14
-70.141067
24
0.000000
34
0.0
50
0.000000
100
AcDbRotatedDimension
62
0
0
LWPOLYLINE
100
AcDbPolyline
8
Capa_1
90
33
70
0
10
43.326030
20
-115.504663
30
0.0
10
43.467369
20
-115.201711
30
0.0
10
43.909846
20
-115.020849
30
0.0
10
46.202185
20
-113.363467
30
0.0
10
47.857181
20
-112.533851
30
0.0
10
49.203127
20
-111.774249
30
0.0
10
50.415167
20
-111.175823
30
0.0
10
53.434671
20
-109.646040
30
0.0
10
54.531421
20
-109.158873
30
0.0
10
55.939145
20
-108.847688
30
0.0
10
56.579865
20
-108.734944
30
0.0
10
56.706926
20
-108.719032
30
0.0
10
56.637499
20
-108.741424
30
0.0
10
56.985440
20
-108.675525
30
0.0
10
57.270079
20
-108.866991
30
0.0
10
57.664345
20
-109.898926
30
0.0
10
57.850081
20
-111.591042
30
0.0
10
57.857070
20
-113.697149
30
0.0
10
57.453942
20
-118.166582
30
0.0
10
57.103393
20
-120.037531
30
0.0
10
56.693232
20
-121.337716
30
0.0
10
56.045819
20
-123.785758
30
0.0
10
55.600877
20
-126.228825
30
0.0
10
56.040312
20
-126.313146
30
0.0
10
55.366014
20
-126.365582
30
0.0
10
51.926317
20
-126.400353
30
0.0
10
45.433200
20
-126.368384
30
0.0
10
44.133254
20
-126.360733
30
0.0
10
43.546627
20
-126.255491
30
0.0
10
43.397164
20
-126.133247
30
0.0
10
43.408710
20
-126.074591
30
0.0
10
43.326030
20
-115.504663
30
0.0
10
43.326030
20
-115.504663
30
0.0
62
0
0
LWPOLYLINE
100
AcDbPolyline
8
Capa_1
90
83
70
0
10
54.807779
20
-126.183641
30
0.0
10
54.999406
20
-125.963938
30
0.0
10
54.840451
20
-125.601699
30
0.0
10
54.694297
20
-125.252022
30
0.0
10
54.776968
20
-125.010105
30
0.0
10
54.089657
20
-124.033129
30
0.0
10
54.003307
20
-123.786431
30
0.0
10
54.089128
20
-123.638235
30
0.0
10
55.053241
20
-123.836314
30
0.0
10
55.297639
20
-123.878849
30
0.0
10
55.275678
20
-123.669606
30
0.0
10
54.874595
20
-123.367346
30
0.0
10
54.674496
20
-123.139839
30
0.0
10
54.728632
20
-122.195079
30
0.0
10
55.030206
20
-120.960329
30
0.0
10
55.199647
20
-120.491417
30
0.0
10
55.349777
20
-119.603087
30
0.0
10
55.706202
20
-119.241003
30
0.0
10
55.961843
20
-119.109808
30
0.0
10
55.640151
20
-118.764725
30
0.0
10
55.406418
20
-118.485483
30
0.0
10
55.579374
20
-118.034136
30
0.0
10
55.848298
20
-117.711221
30
0.0
10
56.109241
20
-117.634283
30
0.0
10
56.295987
20
-117.604103
30
0.0
10
56.364626
20
-117.359484
30
0.0
10
56.243292
20
-117.068527
30
0.0
10
55.792294
20
-116.990252
30
0.0
10
55.086800
20
-116.782593
30
0.0
10
55.085069
20
-116.657025
30
0.0
10
55.344179
20
-116.694399
30
0.0
10
55.657814
20
-116.713153
30
0.0
10
55.832520
20
-116.532520
30
0.0
10
55.770280
20
-115.559386
30
0.0
10
55.597801
20
-114.221666
30
0.0
10
55.645114
20
-113.781155
30
0.0
10
55.780807
20
-113.614113
30
0.0
10
55.975414
20
-113.801677
30
0.0
10
56.165155
20
-113.989242
30
0.0
10
56.259475
20
-113.801986
30
0.0
10
56.230026
20
-113.383131
30
0.0
10
55.946302
20
-112.708123
30
0.0
10
56.074454
20
-112.366465
30
0.0
10
56.279389
20
-111.959959
30
0.0
10
56.364626
20
-111.375275
30
0.0
10
56.466194
20
-110.818304
30
0.0
10
56.828256
20
-110.333876
30
0.0
10
57.226563
20
-109.867420
30
0.0
10
57.436865
20
-109.364365
30
0.0
10
57.489205
20
-109.260548
30
0.0
10
57.582221
20
-109.578020
30
0.0
10
57.718091
20
-110.621216
30
0.0
10
58.217175
20
-112.728245
30
0.0
10
58.707483
20
-114.358304
30
0.0
10
58.195653
20
-115.530345
30
0.0
10
57.799526
20
-116.714408
30
0.0
10
57.656693
20
-117.924803
30
0.0
10
57.629572
20
-119.147192
30
0.0
10
58.760510
20
-119.203806
30
0.0
10
59.730938
20
-119.320949
30
0.0
10
59.843431
20
-119.478332
30
0.0
10
59.830843
20
-119.766472
30
0.0
10
59.730875
20
-120.115578
30
0.0
10
59.575632
20
-120.244190
30
0.0
10
59.249954
20
-120.278979
30
0.0
10
58.969905
20
-120.456587
30
0.0
10
58.699905
20
-121.091957
30
0.0
10
58.570144
20
-121.718522
30
0.0
10
58.409140
20
-121.774094
30
0.0
10
58.185121
20
-121.656684
30
0.0
10
57.847758
20
-121.499895
30
0.0
10
57.579589
20
-121.597865
30
0.0
10
57.403301
20
-121.928706
30
0.0
10
57.341575
20
-122.470528
30
0.0
10
57.509356
20
-124.253841
30
0.0
10
57.838478
20
-125.946349
30
0.0
10
57.881066
20
-126.187475
30
0.0
10
57.724175
20
-126.312747
30
0.0
10
56.241374
20
-126.365477
30
0.0
10
55.011478
20
-126.318924
30
0.0
10
54.783686
20
-126.262837
30
0.0
10
54.807781
20
-126.183641
30
0.0
10
54.807779
20
-126.183641
30
0.0
62
0
0
LWPOLYLINE
100
AcDbPolyline
8
Capa_1
90
7
70
0
10
56.170020
20
-120.167736
30
0.0
10
55.975414
20
-119.991234
30
0.0
10
55.780807
20
-120.283645
30
0.0
10
55.837973
20
-120.456118
30
0.0
10
55.975414
20
-120.460146
30
0.0
10
56.170020
20
-120.167736
30
0.0
10
56.170020
20
-120.167736
30
0.0
62
0
0
LWPOLYLINE
100
AcDbPolyline
8
Capa_1
90
27
70
0
10
58.972168
20
-125.946349
30
0.0
10
59.375198
20
-123.537921
30
0.0
10
60.066301
20
-120.492489
30
0.0
10
60.353471
20
-119.240100
30
0.0
10
60.439217
20
-118.892673
30
0.0
10
60.819448
20
-118.328861
30
0.0
10
61.935987
20
-116.409665
30
0.0
10
62.931713
20
-114.596161
30
0.0
10
63.338814
20
-114.176846
30
0.0
10
63.626427
20
-114.160946
30
0.0
10
64.171093
20
-114.364372
30
0.0
10
64.569894
20
-114.620020
30
0.0
10
65.065515
20
-115.255291
30
0.0
10
66.102279
20
-117.229503
30
0.0
10
66.635760
20
-118.594686
30
0.0
10
65.513577
20
-118.380705
30
0.0
10
64.258862
20
-118.174062
30
0.0
10
64.015730
20
-119.583705
30
0.0
10
64.079284
20
-120.951587
30
0.0
10
64.565073
20
-122.384704
30
0.0
10
65.375015
20
-124.592105
30
0.0
10
65.703402
20
-126.040131
30
0.0
10
65.609951
20
-126.218091
30
0.0
10
65.167219
20
-126.316854
30
0.0
10
62.277411
20
-126.368384
30
0.0
10
58.849110
20
-126.368384
30
0.0
10
58.972168
20
-125.946349
30
0.0
62
0
0
LWPOLYLINE
100
AcDbPolyline
8
Capa_1
90
183
70
0
10
68.369753
20
-124.539612
30
0.0
10
69.384054
20
-121.960665
30
0.0
10
69.888171
20
-120.741494
30
0.0
10
70.188051
20
-120.085017
30
0.0
10
70.486231
20
-119.157673
30
0.0
10
70.500955
20
-118.691021
30
0.0
10
70.391805
20
-118.490743
30
0.0
10
70.053127
20
-118.782871
30
0.0
10
69.896526
20
-118.961645
30
0.0
10
69.683351
20
-118.981245
30
0.0
10
68.627419
20
-119.261153
30
0.0
10
67.568765
20
-119.521969
30
0.0
10
67.212415
20
-119.413720
30
0.0
10
66.997972
20
-119.148208
30
0.0
10
67.006034
20
-118.973823
30
0.0
10
67.387230
20
-119.099581
30
0.0
10
67.680363
20
-119.194968
30
0.0
10
67.938655
20
-119.146945
30
0.0
10
68.744389
20
-118.425070
30
0.0
10
69.696686
20
-117.631772
30
0.0
10
70.790729
20
-116.993244
30
0.0
10
71.560862
20
-116.587500
30
0.0
10
72.069831
20
-116.157291
30
0.0
10
72.389216
20
-115.618925
30
0.0
10
72.590595
20
-114.888713
30
0.0
10
72.623341
20
-114.331948
30
0.0
10
72.441418
20
-114.006684
30
0.0
10
72.334870
20
-113.699287
30
0.0
10
72.815275
20
-113.099198
30
0.0
10
73.367037
20
-112.364436
30
0.0
10
73.778745
20
-111.560353
30
0.0
10
74.751582
20
-109.393962
30
0.0
10
75.739064
20
-107.317218
30
0.0
10
76.329585
20
-105.772176
30
0.0
10
76.555041
20
-104.654755
30
0.0
10
76.447331
20
-103.860871
30
0.0
10
76.329551
20
-103.635769
30
0.0
10
76.195211
20
-103.664161
30
0.0
10
75.628305
20
-104.751793
30
0.0
10
74.826134
20
-106.111621
30
0.0
10
74.668260
20
-105.947929
30
0.0
10
74.838608
20
-105.219463
30
0.0
10
74.940958
20
-104.738515
30
0.0
10
74.854275
20
-104.653292
30
0.0
10
74.189260
20
-105.623126
30
0.0
10
73.246731
20
-106.888517
30
0.0
10
72.450119
20
-107.487968
30
0.0
10
71.509108
20
-108.130092
30
0.0
10
70.898631
20
-108.756142
30
0.0
10
70.540672
20
-109.132336
30
0.0
10
69.805285
20
-109.575242
30
0.0
10
69.059105
20
-110.015798
30
0.0
10
68.675199
20
-110.386283
30
0.0
10
68.274576
20
-110.963460
30
0.0
10
67.847870
20
-111.082926
30
0.0
10
67.709373
20
-111.086374
30
0.0
10
67.651768
20
-111.258511
30
0.0
10
67.540704
20
-111.467478
30
0.0
10
67.262558
20
-111.550921
30
0.0
10
66.873346
20
-111.708407
30
0.0
10
66.712565
20
-111.913421
30
0.0
10
66.301934
20
-112.104090
30
0.0
10
65.161389
20
-112.294921
30
0.0
10
64.579996
20
-112.202623
30
0.0
10
64.068137
20
-111.969054
30
0.0
10
63.703818
20
-111.643960
30
0.0
10
63.565044
20
-111.277090
30
0.0
10
63.212051
20
-110.375453
30
0.0
10
62.356198
20
-109.529742
30
0.0
10
59.859062
20
-107.977983
30
0.0
10
59.111298
20
-107.675725
30
0.0
10
58.405152
20
-107.542200
30
0.0
10
56.806506
20
-107.087899
30
0.0
10
56.211142
20
-106.761657
30
0.0
10
55.975411
20
-106.468218
30
0.0
10
56.426733
20
-106.279787
30
0.0
10
57.434957
20
-106.266719
30
0.0
10
58.710570
20
-106.278775
30
0.0
10
59.725049
20
-106.023943
30
0.0
10
60.593825
20
-105.766145
30
0.0
10
61.347395
20
-105.639791
30
0.0
10
62.105500
20
-105.351459
30
0.0
10
62.397409
20
-105.201867
30
0.0
10
62.997081
20
-105.004480
30
0.0
10
63.617122
20
-104.522299
30
0.0
10
64.157562
20
-103.854397
30
0.0
10
64.518430
20
-103.099850
30
0.0
10
64.791750
20
-102.523981
30
0.0
10
65.128752
20
-102.169268
30
0.0
10
65.511104
20
-101.701947
30
0.0
10
65.611923
20
-101.524955
30
0.0
10
65.995928
20
-101.609502
30
0.0
10
66.774354
20
-101.678576
30
0.0
10
66.987655
20
-101.671972
30
0.0
10
67.075744
20
-101.824508
30
0.0
10
67.166533
20
-101.852747
30
0.0
10
67.373867
20
-101.563232
30
0.0
10
67.840931
20
-101.047434
30
0.0
10
67.976194
20
-100.531639
30
0.0
10
68.055176
20
-100.044857
30
0.0
10
68.309084
20
-99.600224
30
0.0
10
68.839392
20
-99.297695
30
0.0
10
68.964845
20
-99.411701
30
0.0
10
68.923383
20
-99.691582
30
0.0
10
68.914027
20
-99.946183
30
0.0
10
69.056072
20
-100.145080
30
0.0
10
69.183689
20
-100.323430
30
0.0
10
68.965358
20
-100.555879
30
0.0
10
68.731471
20
-100.865215
30
0.0
10
68.647375
20
-101.255672
30
0.0
10
68.686311
20
-101.506172
30
0.0
10
68.755243
20
-101.394204
30
0.0
10
68.990965
20
-101.105425
30
0.0
10
69.437927
20
-100.846015
30
0.0
10
69.891839
20
-100.605944
30
0.0
10
69.682078
20
-100.358572
30
0.0
10
69.481702
20
-100.171255
30
0.0
10
69.593068
20
-100.109624
30
0.0
10
69.729254
20
-99.986205
30
0.0
10
69.817954
20
-99.611081
30
0.0
10
70.223618
20
-99.438751
30
0.0
10
70.872072
20
-99.364165
30
0.0
10
71.473602
20
-99.397001
30
0.0
10
71.738493
20
-99.546935
30
0.0
10
71.080060
20
-99.734497
30
0.0
10
70.521079
20
-99.826820
30
0.0
10
70.318819
20
-100.250292
30
0.0
10
70.314046
20
-100.829996
30
0.0
10
70.739209
20
-100.731639
30
0.0
10
71.593151
20
-100.617551
30
0.0
10
71.988564
20
-100.627531
30
0.0
10
72.006017
20
-100.358095
30
0.0
10
72.055772
20
-99.974880
30
0.0
10
72.322312
20
-99.546935
30
0.0
10
72.586779
20
-99.125461
30
0.0
10
72.643896
20
-98.755254
30
0.0
10
72.739673
20
-98.421557
30
0.0
10
73.145292
20
-97.880402
30
0.0
10
73.558016
20
-96.713644
30
0.0
10
73.582635
20
-96.401958
30
0.0
10
73.396835
20
-96.156290
30
0.0
10
71.933099
20
-95.526211
30
0.0
10
71.883781
20
-95.470471
30
0.0
10
72.175122
20
-95.487244
30
0.0
10
72.647039
20
-95.471285
30
0.0
10
72.921877
20
-95.316488
30
0.0
10
72.957577
20
-95.076342
30
0.0
10
72.712080
20
-94.804334
30
0.0
10
72.491800
20
-94.634215
30
0.0
10
72.456116
20
-94.471001
30
0.0
10
73.067020
20
-93.802733
30
0.0
10
74.749344
20
-92.419559
30
0.0
10
74.750462
20
-93.945883
30
0.0
10
74.496191
20
-96.143826
30
0.0
10
74.443045
20
-97.429244
30
0.0
10
74.706334
20
-97.823154
30
0.0
10
75.431179
20
-97.959299
30
0.0
10
76.669575
20
-97.824863
30
0.0
10
76.963823
20
-97.734220
30
0.0
10
76.908835
20
-98.072039
30
0.0
10
76.472926
20
-99.802383
30
0.0
10
76.177981
20
-101.089420
30
0.0
10
76.841279
20
-101.771786
30
0.0
10
78.229720
20
-103.498531
30
0.0
10
79.968573
20
-105.575797
30
0.0
10
81.062243
20
-106.505684
30
0.0
10
82.539126
20
-106.941990
30
0.0
10
84.660178
20
-107.443710
30
0.0
10
85.735863
20
-107.612121
30
0.0
10
86.681129
20
-107.904963
30
0.0
10
88.038020
20
-108.356657
30
0.0
10
90.822295
20
-108.917931
30
0.0
10
91.866951
20
-109.226872
30
0.0
10
92.454001
20
-109.290625
30
0.0
10
92.676201
20
-109.322997
30
0.0
10
92.769721
20
-109.437655
30
0.0
10
92.755949
20
-117.717793
30
0.0
10
92.755949
20
-126.368864
30
0.0
10
82.733744
20
-126.364913
30
0.0
10
70.098782
20
-126.368299
30
0.0
10
67.713070
20
-126.368299
30
0.0
10
68.369761
20
-124.539584
30
0.0
10
68.369753
20
-124.539612
30
0.0
62
0
0
LWPOLYLINE
100
AcDbPolyline
8
Capa_1
90
15
70
0
10
61.325540
20
-112.145287
30
0.0
10
60.026421
20
-111.181827
30
0.0
10
58.947181
20
-110.093471
30
0.0
10
58.292832
20
-109.123620
30
0.0
10
58.189057
20
-108.759198
30
0.0
10
58.268385
20
-108.515678
30
0.0
10
58.523833
20
-108.684431
30
0.0
10
58.905902
20
-109.323629
30
0.0
10
59.288367
20
-109.957622
30
0.0
10
59.846088
20
-110.571383
30
0.0
10
61.887083
20
-112.112154
30
0.0
10
62.607032
20
-112.650334
30
0.0
10
62.709125
20
-112.837867
30
0.0
10
61.325540
20
-112.145287
30
0.0
10
61.325540
20
-112.145287
30
0.0
62
0
0
LWPOLYLINE
100
AcDbPolyline
8
Capa_1
90
13
70
0
10
57.629563
20
-102.224648
30
0.0
10
57.006434
20
-101.927855
30
0.0
10
56.849066
20
-101.402803
30
0.0
10
56.921636
20
-101.176736
30
0.0
10
57.240214
20
-101.050202
30
0.0
10
59.485180
20
-100.944519
30
0.0
10
62.236367
20
-100.973650
30
0.0
10
62.247990
20
-101.157131
30
0.0
10
62.023513
20
-101.462930
30
0.0
10
61.190787
20
-102.093807
30
0.0
10
59.546978
20
-102.333144
30
0.0
10
57.629563
20
-102.224654
30
0.0
10
57.629563
20
-102.224648
30
0.0
62
0
0
LWPOLYLINE
100
AcDbPolyline
8
Capa_1
90
21
70
0
10
63.475433
20
-100.584655
30
0.0
10
60.945556
20
-100.216778
30
0.0
10
57.474874
20
-99.903977
30
0.0
10
56.085049
20
-99.805149
30
0.0
10
55.275322
20
-100.120924
30
0.0
10
54.554353
20
-100.429350
30
0.0
10
54.464249
20
-100.318296
30
0.0
10
54.537830
20
-100.028316
30
0.0
10
54.826264
20
-99.694286
30
0.0
10
55.475982
20
-99.489838
30
0.0
10
58.515168
20
-99.359373
30
0.0
10
62.284695
20
-99.136160
30
0.0
10
63.028345
20
-99.025461
30
0.0
10
63.620327
20
-99.122491
30
0.0
10
64.076030
20
-99.433243
30
0.0
10
64.410841
20
-99.963709
30
0.0
10
64.592732
20
-100.522358
30
0.0
10
64.512103
20
-100.802347
30
0.0
10
64.146991
20
-100.818252
30
0.0
10
63.475435
20
-100.584655
30
0.0
10
63.475433
20
-100.584655
30
0.0
62
0
0
LWPOLYLINE
100
AcDbPolyline
8
Capa_1
90
18
70
0
10
56.761928
20
-95.897765
30
0.0
10
56.192838
20
-95.451072
30
0.0
10
55.758279
20
-95.419612
30
0.0
10
55.586201
20
-95.232999
30
0.0
10
56.176867
20
-95.045434
30
0.0
10
57.256968
20
-94.736350
30
0.0
10
57.852889
20
-94.520618
30
0.0
10
58.855618
20
-94.661513
30
0.0
10
60.731765
20
-95.126646
30
0.0
10
61.424380
20
-95.459626
30
0.0
10
60.980293
20
-95.810932
30
0.0
10
60.074931
20
-95.983250
30
0.0
10
59.478322
20
-96.170812
30
0.0
10
59.146242
20
-96.303434
30
0.0
10
58.344607
20
-96.358374
30
0.0
10
57.337593
20
-96.273148
30
0.0
10
56.761928
20
-95.897765
30
0.0
10
56.761928
20
-95.897765
30
0.0
62
0
0
LWPOLYLINE
100
AcDbPolyline
8
Capa_1
90
10
70
0
10
78.501054
20
-95.661345
30
0.0
10
77.965887
20
-95.440796
30
0.0
10
78.401913
20
-94.943742
30
0.0
10
79.279479
20
-94.340488
30
0.0
10
79.694936
20
-94.261072
30
0.0
10
79.337927
20
-94.939953
30
0.0
10
79.058787
20
-95.643316
30
0.0
10
79.096356
20
-95.767584
30
0.0
10
78.501054
20
-95.661345
30
0.0
10
78.501054
20
-95.661345
30
0.0
62
0
0
LWPOLYLINE
100
AcDbPolyline
8
Capa_1
90
7
70
0
10
76.690471
20
-93.903718
30
0.0
10
76.776286
20
-93.491081
30
0.0
10
76.944206
20
-93.421936
30
0.0
10
76.992858
20
-93.694987
30
0.0
10
76.917150
20
-94.086898
30
0.0
10
76.690471
20
-93.903718
30
0.0
10
76.690471
20
-93.903718
30
0.0
62
0
0
LWPOLYLINE
100
AcDbPolyline
8
Capa_1
90
31
70
0
10
78.471547
20
-93.056484
30
0.0
10
78.209771
20
-92.837666
30
0.0
10
77.590393
20
-92.825573
30
0.0
10
76.915645
20
-92.797644
30
0.0
10
76.547528
20
-92.423101
30
0.0
10
76.372383
20
-91.722780
30
0.0
10
76.545806
20
-91.479886
30
0.0
10
76.897938
20
-91.293312
30
0.0
10
77.256539
20
-91.026032
30
0.0
10
77.479147
20
-90.602077
30
0.0
10
77.774280
20
-90.067641
30
0.0
10
78.296900
20
-89.522828
30
0.0
10
79.071961
20
-89.066791
30
0.0
10
80.111380
20
-88.891855
30
0.0
10
81.129580
20
-88.901916
30
0.0
10
81.549621
20
-89.387852
30
0.0
10
81.857040
20
-90.487731
30
0.0
10
81.856193
20
-91.012843
30
0.0
10
81.419296
20
-90.509115
30
0.0
10
80.865784
20
-90.085416
30
0.0
10
80.148515
20
-89.774099
30
0.0
10
79.322458
20
-89.664192
30
0.0
10
78.542538
20
-90.269449
30
0.0
10
77.770445
20
-90.996087
30
0.0
10
78.476901
20
-91.693379
30
0.0
10
79.019186
20
-92.348471
30
0.0
10
79.057489
20
-92.874022
30
0.0
10
78.777930
20
-93.338170
30
0.0
10
78.618296
20
-93.293620
30
0.0
10
78.471666
20
-93.056484
30
0.0
10
78.471547
20
-93.056484
30
0.0
62
0
0
LWPOLYLINE
100
AcDbPolyline
8
Capa_1
90
12
70
0
10
74.660983
20
-91.677219
30
0.0
10
74.500152
20
-91.118575
30
0.0
10
74.624726
20
-90.712516
30
0.0
10
74.852191
20
-90.064531
30
0.0
10
74.988451
20
-89.820726
30
0.0
10
75.294000
20
-89.814239
30
0.0
10
75.613996
20
-90.000556
30
0.0
10
75.793597
20
-90.335165
30
0.0
10
75.695934
20
-90.897848
30
0.0
10
75.228656
20
-91.651856
30
0.0
10
74.924714
20
-92.290872
30
0.0
10
74.660983
20
-91.677219
30
0.0
62
0
0
LWPOLYLINE
100
AcDbPolyline
8
Capa_1
90
41
70
0
10
66.019494
20
-90.249900
30
0.0
10
65.763569
20
-90.020983
30
0.0
10
65.113013
20
-90.054647
30
0.0
10
64.381635
20
-90.067636
30
0.0
10
63.829830
20
-89.690815
30
0.0
10
63.355166
20
-89.315874
30
0.0
10
63.046017
20
-89.593948
30
0.0
10
62.464301
20
-89.965182
30
0.0
10
62.144263
20
-89.935642
30
0.0
10
61.852514
20
-89.756175
30
0.0
10
61.622339
20
-89.628111
30
0.0
10
61.400509
20
-89.741669
30
0.0
10
61.049901
20
-89.884615
30
0.0
10
60.676835
20
-89.723636
30
0.0
10
60.335614
20
-89.302954
30
0.0
10
60.080542
20
-88.666788
30
0.0
10
59.955296
20
-87.806053
30
0.0
10
60.206923
20
-87.200995
30
0.0
10
60.953721
20
-86.723327
30
0.0
10
62.313989
20
-86.244763
30
0.0
10
63.897300
20
-85.843129
30
0.0
10
65.242674
20
-85.693525
30
0.0
10
66.424937
20
-85.794514
30
0.0
10
67.518915
20
-86.144656
30
0.0
10
68.418997
20
-86.655179
30
0.0
10
69.315811
20
-87.331319
30
0.0
10
69.989206
20
-87.986428
30
0.0
10
70.219031
20
-88.433859
30
0.0
10
70.367723
20
-88.668312
30
0.0
10
70.511189
20
-88.806054
30
0.0
10
70.570860
20
-89.137216
30
0.0
10
70.470838
20
-89.514826
30
0.0
10
70.057148
20
-89.606126
30
0.0
10
69.623080
20
-89.700048
30
0.0
10
69.300852
20
-89.925864
30
0.0
10
68.855582
20
-90.177555
30
0.0
10
67.917159
20
-90.263672
30
0.0
10
66.460596
20
-90.423616
30
0.0
10
66.192257
20
-90.451945
30
0.0
10
66.019494
20
-90.249900
30
0.0
10
66.019494
20
-90.249900
30
0.0
62
0
0
LWPOLYLINE
100
AcDbPolyline
8
Capa_1
90
24
70
0
10
53.007672
20
-89.966224
30
0.0
10
52.756400
20
-89.662133
30
0.0
10
52.667112
20
-89.153193
30
0.0
10
52.552781
20
-88.573919
30
0.0
10
52.277902
20
-88.054445
30
0.0
10
51.933130
20
-87.542220
30
0.0
10
51.911035
20
-87.208261
30
0.0
10
52.230490
20
-87.019380
30
0.0
10
52.910370
20
-86.942394
30
0.0
10
54.816374
20
-86.981516
30
0.0
10
56.021633
20
-87.398905
30
0.0
10
56.684475
20
-87.883866
30
0.0
10
56.874912
20
-88.600331
30
0.0
10
56.876509
20
-89.151186
30
0.0
10
56.722745
20
-89.504025
30
0.0
10
56.354492
20
-89.723695
30
0.0
10
55.712622
20
-89.875041
30
0.0
10
55.042546
20
-89.908363
30
0.0
10
54.588004
20
-89.677951
30
0.0
10
54.223737
20
-89.454861
30
0.0
10
53.915383
20
-89.759703
30
0.0
10
53.518483
20
-90.136992
30
0.0
10
53.007672
20
-89.966224
30
0.0
10
53.007672
20
-89.966224
30
0.0
62
0
0
LWPOLYLINE
100
AcDbPolyline
8
Capa_1
90
93
70
0
10
75.444203
20
-89.691670
30
0.0
10
75.069925
20
-89.409220
30
0.0
10
74.832375
20
-89.053291
30
0.0
10
74.751252
20
-88.669605
30
0.0
10
74.846253
20
-88.303879
30
0.0
10
74.900901
20
-87.864282
30
0.0
10
74.352652
20
-87.730499
30
0.0
10
73.956097
20
-87.553763
30
0.0
10
73.685098
20
-86.794862
30
0.0
10
73.078444
20
-85.401254
30
0.0
10
72.858508
20
-85.034754
30
0.0
10
72.902707
20
-84.825321
30
0.0
10
73.058600
20
-84.618551
30
0.0
10
73.093279
20
-84.324533
30
0.0
10
73.014275
20
-84.041334
30
0.0
10
72.829115
20
-83.867021
30
0.0
10
72.647070
20
-83.643252
30
0.0
10
72.646582
20
-83.169548
30
0.0
10
72.851253
20
-80.810546
30
0.0
10
72.694565
20
-80.049198
30
0.0
10
72.338898
20
-79.229898
30
0.0
10
71.755492
20
-77.584901
30
0.0
10
71.822459
20
-77.128205
30
0.0
10
72.127708
20
-76.906224
30
0.0
10
72.506815
20
-76.649783
30
0.0
10
72.463723
20
-76.528218
30
0.0
10
72.247258
20
-76.476753
30
0.0
10
71.420183
20
-76.761766
30
0.0
10
70.627390
20
-76.972541
30
0.0
10
69.403225
20
-77.047268
30
0.0
10
64.538075
20
-77.146291
30
0.0
10
61.251296
20
-77.335401
30
0.0
10
58.623474
20
-78.026822
30
0.0
10
56.426532
20
-78.804043
30
0.0
10
55.271371
20
-79.565305
30
0.0
10
54.415100
20
-80.587733
30
0.0
10
53.358990
20
-82.137153
30
0.0
10
52.462052
20
-83.650557
30
0.0
10
52.083293
20
-84.564940
30
0.0
10
51.796676
20
-85.095176
30
0.0
10
51.594527
20
-85.288256
30
0.0
10
51.491927
20
-85.268263
30
0.0
10
51.388572
20
-83.019400
30
0.0
10
51.403818
20
-80.848256
30
0.0
10
52.076203
20
-78.723645
30
0.0
10
53.334601
20
-75.825782
30
0.0
10
54.650185
20
-74.249414
30
0.0
10
56.306020
20
-73.015241
30
0.0
10
57.345262
20
-72.553284
30
0.0
10
57.516125
20
-72.562913
30
0.0
10
57.391783
20
-72.748357
30
0.0
10
57.225062
20
-73.028524
30
0.0
10
57.320526
20
-73.259775
30
0.0
10
57.650062
20
-73.416448
30
0.0
10
58.185552
20
-73.472881
30
0.0
10
59.117078
20
-73.349888
30
0.0
10
59.319398
20
-73.181751
30
0.0
10
59.381017
20
-72.926564
30
0.0
10
59.537048
20
-72.697175
30
0.0
10
59.912185
20
-72.521798
30
0.0
10
60.735405
20
-72.103401
30
0.0
10
61.858387
20
-71.679697
30
0.0
10
62.458433
20
-71.542040
30
0.0
10
62.209488
20
-71.421193
30
0.0
10
62.034632
20
-71.340357
30
0.0
10
62.136711
20
-71.221862
30
0.0
10
63.377126
20
-70.754598
30
0.0
10
65.165242
20
-70.291545
30
0.0
10
67.457165
20
-70.141067
30
0.0
10
70.239939
20
-70.208924
30
0.0
10
72.485291
20
-70.618715
30
0.0
10
74.416625
20
-71.436082
30
0.0
10
76.257345
20
-72.726663
30
0.0
10
77.658982
20
-74.326456
30
0.0
10
78.159610
20
-75.167784
30
0.0
10
78.355100
20
-75.786330
30
0.0
10
78.561133
20
-76.409645
30
0.0
10
79.056487
20
-77.255045
30
0.0
10
80.333593
20
-79.375443
30
0.0
10
81.059468
20
-81.399273
30
0.0
10
81.287847
20
-83.562301
30
0.0
10
81.072465
20
-86.100293
30
0.0
10
80.874878
20
-87.393078
30
0.0
10
80.657529
20
-88.008568
30
0.0
10
80.213981
20
-88.198277
30
0.0
10
79.337795
20
-88.213717
30
0.0
10
78.334510
20
-88.269506
30
0.0
10
77.627339
20
-88.443259
30
0.0
10
77.103574
20
-88.781898
30
0.0
10
76.650506
20
-89.332342
30
0.0
10
76.124568
20
-89.916485
30
0.0
10
75.444203
20
-89.691670
30
0.0
10
75.444203
20
-89.691670
30
0.0
  0
ENDSEC
  0
SECTION
  2
OBJECTS
  0
DICTIONARY
  5
C
330
0
100
AcDbDictionary
  3
ACAD_GROUP
350
D
  3
ACAD_MLINESTYLE
350
17
  0
DICTIONARY
  5
D
330
C
100
AcDbDictionary
  0
DICTIONARY
  5
1A
330
C
100
AcDbDictionary
  0
DICTIONARY
  5
17
330
C
100
AcDbDictionary
  3
STANDARD
350
18
  0
DICTIONARY
  5
19
330
C
100
AcDbDictionary
  0
ENDSEC
  0
EOF
