  0
SECTION
  2
HEADER
  9
$ACADVER
  1
AC1014
  9
$HANDSEED
  5
FFFF
  9
$MEASUREMENT
 70
     1
  0
ENDSEC
  0
SECTION
  2
TABLES
  0
TABLE
  2
VPORT
  5
8
330
0
100
AcDbSymbolTable
 70
     4
  0
VPORT
  5
2E
330
8
100
AcDbSymbolTableRecord
100
AcDbViewportTableRecord
  2
*ACTIVE
 70
     0
 10
0.0
 20
0.0
 11
1.0
 21
1.0
 12
210.0
 22
148.5
 13
0.0
 23
0.0
 14
10.0
 24
10.0
 15
10.0
 25
10.0
 16
0.0
 26
0.0
 36
1.0
 17
0.0
 27
0.0
 37
0.0
 40
341.0
 41
1.24
 42
50.0
 43
0.0
 44
0.0
 50
0.0
 51
0.0
 71
     0
 72
   100
 73
     1
 74
     3
 75
     0
 76
     0
 77
     0
 78
     0
  0
ENDTAB
  0
TABLE
  2
LTYPE
  5
5
330
0
100
AcDbSymbolTable
 70
     1
  0
LTYPE
  5
14
330
5
100
AcDbSymbolTableRecord
100
AcDbLinetypeTableRecord
  2
BYBLOCK
 70
     0
  3

 72
    65
 73
     0
 40
0.0
  0
LTYPE
  5
15
330
5
100
AcDbSymbolTableRecord
100
AcDbLinetypeTableRecord
  2
BYLAYER
 70
     0
  3

 72
    65
 73
     0
 40
0.0
  0
LTYPE
  5
16
330
5
100
AcDbSymbolTableRecord
100
AcDbLinetypeTableRecord
  2
CONTINUOUS
 70
     0
  3
Solid line
 72
    65
 73
     0
 40
0.0
  0
ENDTAB
  0
TABLE
  2
LAYER
  5
2
100
AcDbSymbolTable
 70
2
  0
LAYER
  5
50
100
AcDbSymbolTableRecord
100
AcDbLayerTableRecord
  2
0
 70
0
  6
CONTINUOUS
  0
LAYER
  5
51
100
AcDbSymbolTableRecord
100
AcDbLayerTableRecord
  2
Capa_1
 70
0
  6
CONTINUOUS
  0
ENDTAB
  0
TABLE
  2
STYLE
  5
3
330
0
100
AcDbSymbolTable
 70
     1
  0
STYLE
  5
11
330
3
100
AcDbSymbolTableRecord
100
AcDbTextStyleTableRecord
  2
STANDARD
 70
     0
 40
0.0
 41
1.0
 50
0.0
 71
     0
 42
2.5
  3
txt
  4

  0
ENDTAB
  0
TABLE
  2
VIEW
  5
6
330
0
100
AcDbSymbolTable
 70
     0
  0
ENDTAB
  0
TABLE
  2
UCS
  5
7
330
0
100
AcDbSymbolTable
 70
     0
  0
ENDTAB
  0
TABLE
  2
APPID
  5
9
330
0
100
AcDbSymbolTable
 70
     2
  0
APPID
  5
12
330
9
100
AcDbSymbolTableRecord
100
AcDbRegAppTableRecord
  2
ACAD
 70
     0
  0
ENDTAB
  0
TABLE
  2
DIMSTYLE
  5
A
330
0
100
AcDbSymbolTable
 70
     1
  0
DIMSTYLE
105
27
330
A
100
AcDbSymbolTableRecord
100
AcDbDimStyleTableRecord
  2
ISO-25
 70
     0
  3

  4

  5

  6

  7

 40
1.0
 41
2.5
 42
0.625
 43
3.75
 44
1.25
 45
0.0
 46
0.0
 47
0.0
 48
0.0
140
2.5
141
2.5
142
0.0
143
0.03937007874016
144
1.0
145
0.0
146
1.0
147
0.625
 71
     0
 72
     0
 73
     0
 74
     0
 75
     0
 76
     0
 77
     1
 78
     8
170
     0
171
     3
172
     1
173
     0
174
     0
175
     0
176
     0
177
     0
178
     0
270
     2
271
     2
272
     2
273
     2
274
     3
340
11
275
     0
280
     0
281
     0
282
     0
283
     0
284
     8
285
     0
286
     0
287
     3
288
     0
  0
ENDTAB
  0
TABLE
  2
BLOCK_RECORD
  5
1
330
0
100
AcDbSymbolTable
 70
     1
  0
BLOCK_RECORD
  5
1F
330
1
100
AcDbSymbolTableRecord
100
AcDbBlockTableRecord
  2
*MODEL_SPACE
  0
BLOCK_RECORD
  5
1B
330
1
100
AcDbSymbolTableRecord
100
AcDbBlockTableRecord
  2
*PAPER_SPACE
  0
ENDTAB
  0
ENDSEC
  0
SECTION
  2
BLOCKS
  0
BLOCK
  5
20
330
1F
100
AcDbEntity
  8
0
100
AcDbBlockBegin
  2
*MODEL_SPACE
 70
     0
 10
0.0
 20
0.0
 30
0.0
  3
*MODEL_SPACE
  1

  0
ENDBLK
  5
21
330
1F
100
AcDbEntity
  8
0
100
AcDbBlockEnd
  0
BLOCK
  5
1C
330
1B
100
AcDbEntity
 67
     1
  8
0
100
AcDbBlockBegin
  2
*PAPER_SPACE
  1

  0
ENDBLK
  5
1D
330
1B
100
AcDbEntity
 67
     1
  8
0
100
AcDbBlockEnd
  0
ENDSEC
  0
SECTION
  2
ENTITIES
  0
LWPOLYLINE
  5
100
100
AcDbEntity
  8
Capa_1
 62
7
100
AcDbPolyline
 90
149
 70
0
 10
135.530304
 20
261.947452
 30
0.0
 10
222.125768
 20
313.967988
 30
0.0
 10
244.717752
 20
333.363828
 30
0.0
 10
245.665784
 20
337.720724
 30
0.0
 10
249.401128
 20
333.189092
 30
0.0
 10
258.037168
 20
327.748492
 30
0.0
 10
277.673656
 20
314.764892
 30
0.0
 10
284.493880
 20
309.650484
 30
0.0
 10
287.483152
 20
309.975252
 30
0.0
 10
288.202832
 20
316.664652
 30
0.0
 10
287.357088
 20
321.212396
 30
0.0
 10
289.932656
 20
324.135356
 30
0.0
 10
291.578184
 20
323.507468
 30
0.0
 10
291.106480
 20
326.040692
 30
0.0
 10
289.569224
 20
329.916308
 30
0.0
 10
288.270136
 20
332.254676
 30
0.0
 10
286.971040
 20
333.513004
 30
0.0
 10
288.919680
 20
334.023556
 30
0.0
 10
288.099536
 20
339.321500
 30
0.0
 10
276.493256
 20
343.900980
 30
0.0
 10
273.960232
 20
344.875124
 30
0.0
 10
272.760152
 20
345.329124
 30
0.0
 10
269.737568
 20
344.993084
 30
0.0
 10
267.148624
 20
345.775612
 30
0.0
 10
263.906432
 20
347.410748
 30
0.0
 10
258.926576
 20
351.384012
 30
0.0
 10
260.226440
 20
351.660516
 30
0.0
 10
265.193152
 20
351.528076
 30
0.0
 10
263.013080
 20
353.554724
 30
0.0
 10
254.513648
 20
360.149076
 30
0.0
 10
255.792848
 20
359.535596
 30
0.0
 10
257.091936
 20
366.031052
 30
0.0
 10
258.356512
 20
372.537868
 30
0.0
 10
261.259576
 20
370.462340
 30
0.0
 10
265.268216
 20
370.126196
 30
0.0
 10
267.216848
 20
367.789692
 30
0.0
 10
268.783760
 20
365.092604
 30
0.0
 10
268.999608
 20
365.751372
 30
0.0
 10
274.767016
 20
366.710076
 30
0.0
 10
279.701992
 20
366.231780
 30
0.0
 10
280.592512
 20
366.608332
 30
0.0
 10
292.167408
 20
366.148396
 30
0.0
 10
296.417576
 20
366.097996
 30
0.0
 10
303.237808
 20
366.143516
 30
0.0
 10
309.854712
 20
367.238884
 30
0.0
 10
316.999720
 20
369.660236
 30
0.0
 10
326.593336
 20
375.181380
 30
0.0
 10
334.127656
 20
379.996340
 30
0.0
 10
337.607360
 20
381.620204
 30
0.0
 10
341.991800
 20
383.563804
 30
0.0
 10
353.874256
 20
388.613788
 30
0.0
 10
356.155632
 20
391.757444
 30
0.0
 10
358.198320
 20
393.431244
 30
0.0
 10
362.322160
 20
394.616420
 30
0.0
 10
365.759320
 20
394.863412
 30
0.0
 10
367.493296
 20
395.910212
 30
0.0
 10
368.552072
 20
397.588300
 30
0.0
 10
373.134384
 20
400.511260
 30
0.0
 10
378.705160
 20
405.003852
 30
0.0
 10
378.974560
 20
403.280052
 30
0.0
 10
373.324448
 20
397.109364
 30
0.0
 10
365.854672
 20
390.819100
 30
0.0
 10
362.318352
 20
387.803348
 30
0.0
 10
357.771528
 20
382.919292
 30
0.0
 10
353.783960
 20
377.869020
 30
0.0
 10
352.567704
 20
375.951188
 30
0.0
 10
351.786624
 20
371.227468
 30
0.0
 10
353.616672
 20
369.481652
 30
0.0
 10
350.964392
 20
368.370916
 30
0.0
 10
348.734176
 20
367.193780
 30
0.0
 10
347.949256
 20
366.898012
 30
0.0
 10
343.572680
 20
366.586660
 30
0.0
 10
342.130352
 20
363.771116
 30
0.0
 10
343.704696
 20
364.218436
 30
0.0
 10
347.270568
 20
365.070660
 30
0.0
 10
349.643208
 20
361.901916
 30
0.0
 10
347.848104
 20
361.049700
 30
0.0
 10
345.754936
 20
361.309788
 30
0.0
 10
342.182432
 20
359.083044
 30
0.0
 10
343.187760
 20
358.758540
 30
0.0
 10
347.486464
 20
358.062332
 30
0.0
 10
345.933896
 20
356.937468
 30
0.0
 10
341.337488
 20
354.811996
 30
0.0
 10
338.173248
 20
354.811996
 30
0.0
 10
335.037424
 20
354.943132
 30
0.0
 10
332.439248
 20
354.339284
 30
0.0
 10
329.841064
 20
353.776212
 30
0.0
 10
327.959392
 20
352.544708
 30
0.0
 10
322.157256
 20
349.256204
 30
0.0
 10
316.893920
 20
345.245644
 30
0.0
 10
315.551056
 20
344.191508
 30
0.0
 10
312.966080
 20
340.362732
 30
0.0
 10
311.649456
 20
336.804228
 30
0.0
 10
312.221632
 20
331.639812
 30
0.0
 10
313.863024
 20
325.899228
 30
0.0
 10
313.927264
 20
324.499684
 30
0.0
 10
313.277712
 20
320.124172
 30
0.0
 10
311.839632
 20
319.366380
 30
0.0
 10
309.525464
 20
317.315172
 30
0.0
 10
306.863936
 20
316.778820
 30
0.0
 10
304.578800
 20
316.778820
 30
0.0
 10
305.081728
 20
315.366540
 30
0.0
 10
306.457488
 20
313.974652
 30
0.0
 10
312.860408
 20
308.250908
 30
0.0
 10
314.098904
 20
306.110772
 30
0.0
 10
321.397040
 20
305.796404
 30
0.0
 10
330.941784
 20
307.819356
 30
0.0
 10
333.200896
 20
307.479012
 30
0.0
 10
334.498312
 20
305.151372
 30
0.0
 10
337.309928
 20
304.124508
 30
0.0
 10
338.809136
 20
305.078940
 30
0.0
 10
339.770096
 20
306.253004
 30
0.0
 10
341.628208
 20
301.477844
 30
0.0
 10
339.726752
 20
299.225156
 30
0.0
 10
335.071440
 20
295.891356
 30
0.0
 10
328.794312
 20
291.149404
 30
0.0
 10
332.114544
 20
292.420860
 30
0.0
 10
335.037496
 20
292.632436
 30
0.0
 10
336.336592
 20
293.205308
 30
0.0
 10
338.285224
 20
294.581076
 30
0.0
 10
338.610000
 20
291.544164
 30
0.0
 10
339.259544
 20
290.786364
 30
0.0
 10
341.686800
 20
286.461748
 30
0.0
 10
345.949224
 20
286.736892
 30
0.0
 10
350.129352
 20
286.540084
 30
0.0
 10
352.948312
 20
287.564044
 30
0.0
 10
354.138880
 20
287.888572
 30
0.0
 10
357.897496
 20
284.899980
 30
0.0
 10
361.628304
 20
282.823612
 30
0.0
 10
367.821176
 20
286.172772
 30
0.0
 10
376.553448
 20
298.154212
 30
0.0
 10
382.370584
 20
308.871076
 30
0.0
 10
387.024936
 20
318.614268
 30
0.0
 10
390.931384
 20
327.707908
 30
0.0
 10
399.175560
 20
347.843828
 30
0.0
 10
410.580584
 20
374.475204
 30
0.0
 10
412.559744
 20
411.499308
 30
0.0
 10
410.393992
 20
427.554012
 30
0.0
 10
413.957304
 20
430.431588
 30
0.0
 10
420.127992
 20
426.372308
 30
0.0
 10
450.656640
 20
391.478060
 30
0.0
 10
469.493464
 20
375.095644
 30
0.0
 10
483.133928
 20
372.668812
 30
0.0
 10
492.877112
 20
370.321964
 30
0.0
 10
493.215976
 20
315.563324
 30
0.0
 10
493.554856
 20
260.804692
 30
0.0
 10
314.189456
 20
260.804692
 30
0.0
 10
135.530360
 20
261.947500
 30
0.0
 10
135.530312
 20
261.947452
 30
0.0
  0
LWPOLYLINE
  5
101
100
AcDbEntity
  8
Capa_1
 62
7
100
AcDbPolyline
 90
5
 70
0
 10
230.998912
 20
290.034204
 30
0.0
 10
229.811024
 20
289.384652
 30
0.0
 10
228.623136
 20
285.487380
 30
0.0
 10
230.998912
 20
290.034204
 30
0.0
 10
230.998912
 20
290.034204
 30
0.0
  0
LWPOLYLINE
  5
102
100
AcDbEntity
  8
Capa_1
 62
7
100
AcDbPolyline
 90
5
 70
0
 10
218.176264
 20
305.893244
 30
0.0
 10
217.292968
 20
308.724388
 30
0.0
 10
209.063640
 20
296.230700
 30
0.0
 10
218.176264
 20
305.893244
 30
0.0
 10
218.176264
 20
305.893244
 30
0.0
  0
LWPOLYLINE
  5
103
100
AcDbEntity
  8
Capa_1
 62
7
100
AcDbPolyline
 90
6
 70
0
 10
236.266696
 20
303.025116
 30
0.0
 10
235.007392
 20
302.375572
 30
0.0
 10
233.748080
 20
299.127844
 30
0.0
 10
235.007392
 20
299.777388
 30
0.0
 10
236.266696
 20
303.025116
 30
0.0
 10
236.266696
 20
303.025116
 30
0.0
  0
LWPOLYLINE
  5
104
100
AcDbEntity
  8
Capa_1
 62
7
100
AcDbPolyline
 90
5
 70
0
 10
273.520656
 20
352.147612
 30
0.0
 10
270.948928
 20
353.040140
 30
0.0
 10
267.484680
 20
351.958148
 30
0.0
 10
273.520656
 20
352.147612
 30
0.0
 10
273.520656
 20
352.147612
 30
0.0
  0
LWPOLYLINE
  5
105
100
AcDbEntity
  8
Capa_1
 62
7
100
AcDbPolyline
 90
6
 70
0
 10
225.913752
 20
372.603188
 30
0.0
 10
227.212840
 20
373.176060
 30
0.0
 10
228.511936
 20
371.800284
 30
0.0
 10
227.212840
 20
371.227420
 30
0.0
 10
225.913752
 20
372.603188
 30
0.0
 10
225.913752
 20
372.603188
 30
0.0
  0
LWPOLYLINE
  5
106
100
AcDbEntity
  8
Capa_1
 62
7
100
AcDbPolyline
 90
12
 70
0
 10
218.548128
 20
382.626660
 30
0.0
 10
216.599496
 20
385.352452
 30
0.0
 10
207.396336
 20
397.606508
 30
0.0
 10
201.684336
 20
407.572588
 30
0.0
 10
196.667176
 20
420.861132
 30
0.0
 10
193.784152
 20
428.274372
 30
0.0
 10
197.570384
 20
426.316436
 30
0.0
 10
212.449720
 20
399.157884
 30
0.0
 10
217.928768
 20
389.414700
 30
0.0
 10
221.768368
 20
381.640044
 30
0.0
 10
218.548128
 20
382.626660
 30
0.0
 10
218.548128
 20
382.626660
 30
0.0
  0
LWPOLYLINE
  5
107
100
AcDbEntity
  8
Capa_1
 62
7
100
AcDbPolyline
 90
66
 70
0
 10
227.301160
 20
390.389020
 30
0.0
 10
224.838624
 20
390.961044
 30
0.0
 10
221.258120
 20
392.909684
 30
0.0
 10
211.122776
 20
412.342524
 30
0.0
 10
209.520848
 20
415.590252
 30
0.0
 10
206.602680
 20
422.866308
 30
0.0
 10
203.863336
 20
428.387444
 30
0.0
 10
202.291624
 20
431.959948
 30
0.0
 10
200.581464
 20
435.232380
 30
0.0
 10
198.886992
 20
444.498244
 30
0.0
 10
204.986528
 20
448.480268
 30
0.0
 10
210.916392
 20
450.565532
 30
0.0
 10
211.579232
 20
451.771092
 30
0.0
 10
214.309856
 20
454.694044
 30
0.0
 10
222.458856
 20
466.422836
 30
0.0
 10
225.913752
 20
471.378644
 30
0.0
 10
233.021816
 20
479.052012
 30
0.0
 10
235.621872
 20
476.564308
 30
0.0
 10
233.099912
 20
468.173700
 30
0.0
 10
231.075840
 20
459.006252
 30
0.0
 10
236.067120
 20
456.813948
 30
0.0
 10
243.823856
 20
452.031532
 30
0.0
 10
246.694208
 20
445.275636
 30
0.0
 10
243.312808
 20
457.665796
 30
0.0
 10
241.502848
 20
463.462916
 30
0.0
 10
242.801936
 20
462.321428
 30
0.0
 10
256.053024
 20
458.397020
 30
0.0
 10
267.576424
 20
462.890020
 30
0.0
 10
279.870520
 20
467.191348
 30
0.0
 10
285.247584
 20
464.565228
 30
0.0
 10
276.941640
 20
462.128404
 30
0.0
 10
265.147760
 20
455.694668
 30
0.0
 10
264.402040
 20
452.014012
 30
0.0
 10
265.408784
 20
448.014444
 30
0.0
 10
267.484680
 20
444.199020
 30
0.0
 10
268.783768
 20
442.677452
 30
0.0
 10
270.082864
 20
441.397132
 30
0.0
 10
264.236952
 20
440.664796
 30
0.0
 10
258.391040
 20
439.346948
 30
0.0
 10
256.442400
 20
437.481084
 30
0.0
 10
254.493760
 20
435.532452
 30
0.0
 10
253.471128
 20
433.583812
 30
0.0
 10
253.608096
 20
428.022140
 30
0.0
 10
272.031496
 20
429.014116
 30
0.0
 10
273.980136
 20
428.384220
 30
0.0
 10
288.072480
 20
430.579108
 30
0.0
 10
293.791280
 20
432.979228
 30
0.0
 10
295.090376
 20
433.520820
 30
0.0
 10
297.363784
 20
434.211708
 30
0.0
 10
315.551064
 20
443.234204
 30
0.0
 10
328.452712
 20
443.373148
 30
0.0
 10
332.204056
 20
436.228148
 30
0.0
 10
327.485752
 20
434.233356
 30
0.0
 10
315.349416
 20
434.925796
 30
0.0
 10
247.010952
 20
418.612964
 30
0.0
 10
244.545496
 20
417.411164
 30
0.0
 10
242.024088
 20
415.396532
 30
0.0
 10
239.554208
 20
412.798348
 30
0.0
 10
239.172352
 20
410.200164
 30
0.0
 10
238.623616
 20
406.759356
 30
0.0
 10
237.793928
 20
404.237844
 30
0.0
 10
235.786848
 20
400.781748
 30
0.0
 10
233.383528
 20
397.460356
 30
0.0
 10
231.110120
 20
391.939220
 30
0.0
 10
227.301160
 20
390.389020
 30
0.0
 10
227.301160
 20
390.389020
 30
0.0
  0
LWPOLYLINE
  5
108
100
AcDbEntity
  8
Capa_1
 62
7
100
AcDbPolyline
 90
5
 70
0
 10
213.265072
 20
426.311796
 30
0.0
 10
211.469360
 20
428.182124
 30
0.0
 10
211.248808
 20
418.802684
 30
0.0
 10
213.265072
 20
426.311796
 30
0.0
 10
213.265072
 20
426.311796
 30
0.0
  0
LWPOLYLINE
  5
109
100
AcDbEntity
  8
Capa_1
 62
7
100
AcDbPolyline
 90
7
 70
0
 10
238.904664
 20
423.646772
 30
0.0
 10
237.545304
 20
428.001924
 30
0.0
 10
232.998488
 20
431.292060
 30
0.0
 10
231.909072
 20
426.393108
 30
0.0
 10
236.455888
 20
423.191076
 30
0.0
 10
238.904664
 20
423.646772
 30
0.0
 10
238.904664
 20
423.646772
 30
0.0
  0
LWPOLYLINE
  5
10a
100
AcDbEntity
  8
Capa_1
 62
7
100
AcDbPolyline
 90
12
 70
0
 10
253.820872
 20
399.519084
 30
0.0
 10
250.435440
 20
401.704956
 30
0.0
 10
247.998304
 20
402.967612
 30
0.0
 10
249.256624
 20
405.003796
 30
0.0
 10
249.838432
 20
406.766772
 30
0.0
 10
258.723128
 20
410.387708
 30
0.0
 10
258.326080
 20
408.768100
 30
0.0
 10
268.459000
 20
406.205916
 30
0.0
 10
263.654288
 20
402.526276
 30
0.0
 10
255.347888
 20
398.685796
 30
0.0
 10
253.820872
 20
399.519084
 30
0.0
 10
253.820872
 20
399.519084
 30
0.0
  0
LWPOLYLINE
  5
10b
100
AcDbEntity
  8
Capa_1
 62
7
100
AcDbPolyline
 90
6
 70
0
 10
272.681048
 20
405.080476
 30
0.0
 10
273.980136
 20
405.653348
 30
0.0
 10
275.279224
 20
404.277572
 30
0.0
 10
273.980136
 20
403.704708
 30
0.0
 10
272.681048
 20
405.080476
 30
0.0
 10
272.681048
 20
405.080476
 30
0.0
  0
LWPOLYLINE
  5
10c
100
AcDbEntity
  8
Capa_1
 62
7
100
AcDbPolyline
 90
5
 70
0
 10
275.975216
 20
406.227748
 30
0.0
 10
277.841024
 20
408.881596
 30
0.0
 10
278.609784
 20
406.849676
 30
0.0
 10
275.975216
 20
406.227748
 30
0.0
 10
275.975216
 20
406.227748
 30
0.0
  0
LWPOLYLINE
  5
10d
100
AcDbEntity
  8
Capa_1
 62
7
100
AcDbPolyline
 90
6
 70
0
 10
264.236952
 20
411.499252
 30
0.0
 10
266.262264
 20
412.798348
 30
0.0
 10
267.484680
 20
411.499252
 30
0.0
 10
265.459376
 20
410.200164
 30
0.0
 10
264.236952
 20
411.499252
 30
0.0
 10
264.236952
 20
411.499252
 30
0.0
  0
LWPOLYLINE
  5
10e
100
AcDbEntity
  8
Capa_1
 62
7
100
AcDbPolyline
 90
10
 70
0
 10
334.471160
 20
453.220300
 30
0.0
 10
309.380376
 20
466.278668
 30
0.0
 10
303.859240
 20
469.317076
 30
0.0
 10
294.381792
 20
475.225836
 30
0.0
 10
294.445472
 20
480.103956
 30
0.0
 10
309.347912
 20
473.206100
 30
0.0
 10
335.687008
 20
455.044604
 30
0.0
 10
338.769032
 20
451.441220
 30
0.0
 10
334.471200
 20
453.220300
 30
0.0
 10
334.471128
 20
453.220300
 30
0.0
  0
LWPOLYLINE
  5
10f
100
AcDbEntity
  8
Capa_1
 62
7
100
AcDbPolyline
 90
5
 70
0
 10
403.280256
 20
454.750076
 30
0.0
 10
403.079216
 20
457.889540
 30
0.0
 10
404.854688
 20
454.795732
 30
0.0
 10
403.280256
 20
454.750132
 30
0.0
 10
403.280256
 20
454.750100
 30
0.0
  0
LWPOLYLINE
  5
110
100
AcDbEntity
  8
Capa_1
 62
7
100
AcDbPolyline
 90
7
 70
0
 10
397.958784
 20
455.805212
 30
0.0
 10
397.241248
 20
466.616396
 30
0.0
 10
406.909768
 20
461.720116
 30
0.0
 10
402.904864
 20
461.715316
 30
0.0
 10
400.602760
 20
458.443924
 30
0.0
 10
397.958784
 20
455.806092
 30
0.0
 10
397.958784
 20
455.805604
 30
0.0
  0
LWPOLYLINE
  5
111
100
AcDbEntity
  8
Capa_1
 62
7
100
AcDbPolyline
 90
9
 70
0
 10
185.248976
 20
472.232196
 30
0.0
 10
187.806376
 20
477.068084
 30
0.0
 10
189.568048
 20
482.264452
 30
0.0
 10
195.191720
 20
489.758004
 30
0.0
 10
194.078512
 20
487.673420
 30
0.0
 10
192.137336
 20
483.612164
 30
0.0
 10
188.716976
 20
475.127300
 30
0.0
 10
185.248976
 20
472.232196
 30
0.0
 10
185.248976
 20
472.232196
 30
0.0
  0
LWPOLYLINE
  5
112
100
AcDbEntity
  8
Capa_1
 62
7
100
AcDbPolyline
 90
35
 70
0
 10
229.129416
 20
482.035732
 30
0.0
 10
229.069576
 20
490.479828
 30
0.0
 10
227.806704
 20
505.813860
 30
0.0
 10
224.614664
 20
509.320668
 30
0.0
 10
222.990800
 20
510.094108
 30
0.0
 10
205.777832
 20
504.261604
 30
0.0
 10
190.864032
 20
498.776324
 30
0.0
 10
186.925360
 20
497.210468
 30
0.0
 10
186.350968
 20
499.031420
 30
0.0
 10
188.378960
 20
505.736604
 30
0.0
 10
191.177712
 20
513.983604
 30
0.0
 10
188.918624
 20
517.375628
 30
0.0
 10
187.275880
 20
517.605004
 30
0.0
 10
184.959688
 20
515.909316
 30
0.0
 10
182.652040
 20
513.731300
 30
0.0
 10
181.952552
 20
514.127900
 30
0.0
 10
183.172408
 20
522.571996
 30
0.0
 10
184.521248
 20
530.041772
 30
0.0
 10
186.372200
 20
532.315180
 30
0.0
 10
188.240096
 20
533.614276
 30
0.0
 10
196.724968
 20
540.109732
 30
0.0
 10
200.803032
 20
542.167292
 30
0.0
 10
202.559760
 20
542.659940
 30
0.0
 10
212.269360
 20
540.670500
 30
0.0
 10
223.185912
 20
538.278428
 30
0.0
 10
228.429336
 20
537.113540
 30
0.0
 10
232.997104
 20
535.866908
 30
0.0
 10
237.024656
 20
534.040740
 30
0.0
 10
240.368024
 20
526.469268
 30
0.0
 10
242.134200
 20
516.393252
 30
0.0
 10
236.780656
 20
497.239708
 30
0.0
 10
231.770808
 20
486.828948
 30
0.0
 10
231.242752
 20
482.744908
 30
0.0
 10
229.129448
 20
482.035748
 30
0.0
 10
229.129440
 20
482.035732
 30
0.0
  0
LWPOLYLINE
  5
113
100
AcDbEntity
  8
Capa_1
 62
7
100
AcDbPolyline
 90
6
 70
0
 10
194.086000
 20
508.931532
 30
0.0
 10
193.513120
 20
510.230628
 30
0.0
 10
192.137360
 20
508.931532
 30
0.0
 10
192.710240
 20
507.632444
 30
0.0
 10
194.086000
 20
508.931532
 30
0.0
 10
194.086000
 20
508.931532
 30
0.0
  0
LWPOLYLINE
  5
114
100
AcDbEntity
  8
Capa_1
 62
7
100
AcDbPolyline
 90
6
 70
0
 10
198.632824
 20
518.025172
 30
0.0
 10
198.059944
 20
519.324268
 30
0.0
 10
196.684184
 20
518.025172
 30
0.0
 10
197.257064
 20
516.726084
 30
0.0
 10
198.632824
 20
518.025172
 30
0.0
 10
198.632824
 20
518.025172
 30
0.0
  0
LWPOLYLINE
  5
115
100
AcDbEntity
  8
Capa_1
 62
7
100
AcDbPolyline
 90
5
 70
0
 10
220.717376
 20
518.025172
 30
0.0
 10
217.794424
 20
519.304372
 30
0.0
 10
216.820104
 20
518.025172
 30
0.0
 10
220.717376
 20
518.025172
 30
0.0
 10
220.717376
 20
518.025172
 30
0.0
  0
LWPOLYLINE
  5
116
100
AcDbEntity
  8
Capa_1
 62
7
100
AcDbPolyline
 90
6
 70
0
 10
194.735544
 20
482.949700
 30
0.0
 10
196.111304
 20
484.248796
 30
0.0
 10
196.684184
 20
482.949700
 30
0.0
 10
195.308424
 20
481.650612
 30
0.0
 10
194.735544
 20
482.949700
 30
0.0
 10
194.735544
 20
482.949700
 30
0.0
  0
LWPOLYLINE
  5
117
100
AcDbEntity
  8
Capa_1
 62
7
100
AcDbPolyline
 90
5
 70
0
 10
186.374976
 20
486.466180
 30
0.0
 10
187.102200
 20
487.193412
 30
0.0
 10
187.989200
 20
484.863964
 30
0.0
 10
186.374976
 20
486.466180
 30
0.0
 10
186.374976
 20
486.466180
 30
0.0
  0
LWPOLYLINE
  5
118
100
AcDbEntity
  8
Capa_1
 62
7
100
AcDbPolyline
 90
16
 70
0
 10
201.199736
 20
485.501068
 30
0.0
 10
199.900640
 20
487.997020
 30
0.0
 10
197.983272
 20
489.382708
 30
0.0
 10
197.651656
 20
490.520276
 30
0.0
 10
200.463936
 20
493.674316
 30
0.0
 10
205.658984
 20
493.833244
 30
0.0
 10
204.145792
 20
492.578292
 30
0.0
 10
199.968320
 20
492.083572
 30
0.0
 10
200.296000
 20
490.024492
 30
0.0
 10
205.780736
 20
489.979372
 30
0.0
 10
209.025552
 20
489.621388
 30
0.0
 10
206.296664
 20
487.735444
 30
0.0
 10
204.424688
 20
485.635292
 30
0.0
 10
202.281992
 20
484.268652
 30
0.0
 10
201.199736
 20
485.501028
 30
0.0
 10
201.199736
 20
485.501052
 30
0.0
  0
LWPOLYLINE
  5
119
100
AcDbEntity
  8
Capa_1
 62
7
100
AcDbPolyline
 90
7
 70
0
 10
174.700240
 20
488.417708
 30
0.0
 10
174.009600
 20
514.332684
 30
0.0
 10
174.580960
 20
510.200396
 30
0.0
 10
175.076152
 20
508.388900
 30
0.0
 10
178.304592
 20
489.531756
 30
0.0
 10
174.700240
 20
488.417708
 30
0.0
 10
174.700240
 20
488.417708
 30
0.0
  0
LWPOLYLINE
  5
11a
100
AcDbEntity
  8
Capa_1
 62
7
100
AcDbPolyline
 90
6
 70
0
 10
177.018048
 20
493.991964
 30
0.0
 10
175.759728
 20
495.940604
 30
0.0
 10
175.249176
 20
493.991964
 30
0.0
 10
176.507496
 20
492.043332
 30
0.0
 10
177.018048
 20
493.991964
 30
0.0
 10
177.018048
 20
493.991964
 30
0.0
  0
LWPOLYLINE
  5
11b
100
AcDbEntity
  8
Capa_1
 62
7
100
AcDbPolyline
 90
6
 70
0
 10
399.186568
 20
523.808860
 30
0.0
 10
403.965944
 20
528.417892
 30
0.0
 10
407.786552
 20
525.170164
 30
0.0
 10
403.848504
 20
521.922436
 30
0.0
 10
399.186568
 20
523.808860
 30
0.0
 10
399.186568
 20
523.808860
 30
0.0
  0
LWPOLYLINE
  5
11c
100
AcDbEntity
  8
Capa_1
 62
7
100
AcDbPolyline
 90
23
 70
0
 10
285.251784
 20
524.135396
 30
0.0
 10
283.587160
 20
526.582876
 30
0.0
 10
279.571104
 20
526.469596
 30
0.0
 10
272.213872
 20
528.764996
 30
0.0
 10
278.185664
 20
534.007348
 30
0.0
 10
283.593496
 20
535.117316
 30
0.0
 10
301.910592
 20
540.719292
 30
0.0
 10
304.833552
 20
539.942124
 30
0.0
 10
306.205360
 20
536.409644
 30
0.0
 10
317.406280
 20
534.386620
 30
0.0
 10
323.580920
 20
532.315228
 30
0.0
 10
317.356576
 20
537.572940
 30
0.0
 10
311.653784
 20
540.608380
 30
0.0
 10
325.187424
 20
535.811580
 30
0.0
 10
331.953232
 20
531.506732
 30
0.0
 10
325.943784
 20
530.207644
 30
0.0
 10
315.551056
 20
528.136924
 30
0.0
 10
306.827832
 20
525.052660
 30
0.0
 10
298.499992
 20
527.607036
 30
0.0
 10
292.372824
 20
527.118796
 30
0.0
 10
288.556016
 20
523.372220
 30
0.0
 10
285.251784
 20
524.135396
 30
0.0
 10
285.251784
 20
524.135396
 30
0.0
  0
LWPOLYLINE
  5
11d
100
AcDbEntity
  8
Capa_1
 62
7
100
AcDbPolyline
 90
6
 70
0
 10
298.013320
 20
536.212436
 30
0.0
 10
296.790904
 20
537.511532
 30
0.0
 10
294.765592
 20
536.212436
 30
0.0
 10
295.988008
 20
534.913348
 30
0.0
 10
298.013320
 20
536.212436
 30
0.0
 10
298.013320
 20
536.212436
 30
0.0
  0
LWPOLYLINE
  5
11e
100
AcDbEntity
  8
Capa_1
 62
7
100
AcDbPolyline
 90
5
 70
0
 10
384.505472
 20
527.876596
 30
0.0
 10
385.290328
 20
528.661468
 30
0.0
 10
385.187856
 20
526.171540
 30
0.0
 10
384.505544
 20
527.876596
 30
0.0
 10
384.505472
 20
527.876596
 30
0.0
  0
LWPOLYLINE
  5
11f
100
AcDbEntity
  8
Capa_1
 62
7
100
AcDbPolyline
 90
6
 70
0
 10
390.638544
 20
527.378620
 30
0.0
 10
392.374360
 20
533.549300
 30
0.0
 10
393.131576
 20
535.105988
 30
0.0
 10
390.613800
 20
525.819708
 30
0.0
 10
390.638600
 20
527.378620
 30
0.0
 10
390.638504
 20
527.378620
 30
0.0
  0
LWPOLYLINE
  5
120
100
AcDbEntity
  8
Capa_1
 62
7
100
AcDbPolyline
 90
6
 70
0
 10
375.309224
 20
530.289852
 30
0.0
 10
376.608312
 20
532.964708
 30
0.0
 10
377.907408
 20
531.092748
 30
0.0
 10
376.608312
 20
528.417892
 30
0.0
 10
375.309224
 20
530.289852
 30
0.0
 10
375.309224
 20
530.289852
 30
0.0
  0
LWPOLYLINE
  5
121
100
AcDbEntity
  8
Capa_1
 62
7
100
AcDbPolyline
 90
6
 70
0
 10
387.867112
 20
531.867068
 30
0.0
 10
385.918480
 20
532.964708
 30
0.0
 10
379.209088
 20
539.135396
 30
0.0
 10
388.291264
 20
538.171772
 30
0.0
 10
387.867112
 20
531.867068
 30
0.0
 10
387.867112
 20
531.867068
 30
0.0
  0
LWPOLYLINE
  5
122
100
AcDbEntity
  8
Capa_1
 62
7
100
AcDbPolyline
 90
15
 70
0
 10
259.990640
 20
536.537212
 30
0.0
 10
263.346616
 20
539.443444
 30
0.0
 10
266.185536
 20
542.320684
 30
0.0
 10
268.845912
 20
545.339356
 30
0.0
 10
272.614064
 20
549.676844
 30
0.0
 10
284.568472
 20
554.370172
 30
0.0
 10
310.202240
 20
553.253036
 30
0.0
 10
311.203784
 20
550.502444
 30
0.0
 10
305.454136
 20
548.506684
 30
0.0
 10
296.485672
 20
545.909900
 30
0.0
 10
286.998376
 20
540.726284
 30
0.0
 10
285.324848
 20
539.733932
 30
0.0
 10
275.522216
 20
537.607324
 30
0.0
 10
259.990640
 20
536.537212
 30
0.0
 10
259.990640
 20
536.537212
 30
0.0
  0
LWPOLYLINE
  5
123
100
AcDbEntity
  8
Capa_1
 62
7
100
AcDbPolyline
 90
6
 70
0
 10
389.599232
 20
540.109716
 30
0.0
 10
390.974992
 20
541.408804
 30
0.0
 10
391.547864
 20
540.109716
 30
0.0
 10
390.172096
 20
538.810620
 30
0.0
 10
389.599232
 20
540.109716
 30
0.0
 10
389.599232
 20
540.109716
 30
0.0
  0
LWPOLYLINE
  5
124
100
AcDbEntity
  8
Capa_1
 62
7
100
AcDbPolyline
 90
121
 70
0
 10
381.813784
 20
545.715660
 30
0.0
 10
380.548432
 20
546.605172
 30
0.0
 10
379.087152
 20
546.957268
 30
0.0
 10
376.203696
 20
548.331756
 30
0.0
 10
376.565488
 20
549.928300
 30
0.0
 10
378.727640
 20
552.881116
 30
0.0
 10
381.850192
 20
551.777180
 30
0.0
 10
380.687056
 20
556.807052
 30
0.0
 10
378.591256
 20
565.498428
 30
0.0
 10
376.230240
 20
573.586124
 30
0.0
 10
374.010136
 20
577.809180
 30
0.0
 10
375.917456
 20
577.057340
 30
0.0
 10
377.866096
 20
575.562564
 30
0.0
 10
375.134248
 20
580.340372
 30
0.0
 10
373.108400
 20
586.038708
 30
0.0
 10
371.984280
 20
589.539268
 30
0.0
 10
370.112856
 20
589.417740
 30
0.0
 10
369.426960
 20
588.428964
 30
0.0
 10
369.981648
 20
592.377796
 30
0.0
 10
369.693208
 20
597.366908
 30
0.0
 10
370.396288
 20
597.407148
 30
0.0
 10
380.788296
 20
570.313636
 30
0.0
 10
382.232520
 20
566.091588
 30
0.0
 10
382.672432
 20
563.283388
 30
0.0
 10
387.046744
 20
555.698860
 30
0.0
 10
389.599232
 20
556.957188
 30
0.0
 10
387.425064
 20
557.381204
 30
0.0
 10
386.125968
 20
558.827308
 30
0.0
 10
387.001048
 20
563.089108
 30
0.0
 10
388.883184
 20
564.348244
 30
0.0
 10
391.565224
 20
566.146268
 30
0.0
 10
388.849656
 20
569.092292
 30
0.0
 10
382.236752
 20
577.783412
 30
0.0
 10
377.038376
 20
591.719124
 30
0.0
 10
374.828104
 20
600.487988
 30
0.0
 10
373.576248
 20
602.466156
 30
0.0
 10
370.625960
 20
603.986004
 30
0.0
 10
372.170976
 20
604.552548
 30
0.0
 10
370.760208
 20
607.750476
 30
0.0
 10
368.580128
 20
612.518940
 30
0.0
 10
367.605808
 20
615.019812
 30
0.0
 10
364.916496
 20
618.287988
 30
0.0
 10
367.021896
 20
617.925156
 30
0.0
 10
366.487864
 20
620.518004
 30
0.0
 10
358.211784
 20
628.092004
 30
0.0
 10
352.575120
 20
631.325836
 30
0.0
 10
358.845632
 20
625.803220
 30
0.0
 10
363.580208
 20
619.331356
 30
0.0
 10
364.345256
 20
614.646164
 30
0.0
 10
362.586440
 20
615.457068
 30
0.0
 10
358.473832
 20
618.299300
 30
0.0
 10
340.173184
 20
632.994804
 30
0.0
 10
312.653200
 20
657.549468
 30
0.0
 10
281.969040
 20
667.600604
 30
0.0
 10
281.002824
 20
668.521980
 30
0.0
 10
280.158872
 20
670.379652
 30
0.0
 10
279.393928
 20
671.898924
 30
0.0
 10
293.079776
 20
673.216804
 30
0.0
 10
298.734688
 20
673.871764
 30
0.0
 10
309.705104
 20
672.692388
 30
0.0
 10
324.644656
 20
664.642388
 30
0.0
 10
337.023864
 20
661.769100
 30
0.0
 10
349.327392
 20
655.549140
 30
0.0
 10
353.874216
 20
655.130844
 30
0.0
 10
358.421032
 20
654.421852
 30
0.0
 10
354.523760
 20
653.130724
 30
0.0
 10
350.626488
 20
651.462180
 30
0.0
 10
360.245336
 20
645.336172
 30
0.0
 10
360.694448
 20
648.373084
 30
0.0
 10
373.360584
 20
649.716268
 30
0.0
 10
376.879968
 20
648.099756
 30
0.0
 10
378.462224
 20
647.068700
 30
0.0
 10
381.275912
 20
646.439828
 30
0.0
 10
383.074216
 20
646.587436
 30
0.0
 10
387.374784
 20
644.127956
 30
0.0
 10
392.113544
 20
640.139804
 30
0.0
 10
393.496504
 20
638.191172
 30
0.0
 10
394.517216
 20
636.242532
 30
0.0
 10
395.537936
 20
633.739724
 30
0.0
 10
394.517216
 20
631.867764
 30
0.0
 10
393.496504
 20
631.001220
 30
0.0
 10
396.094688
 20
628.824396
 30
0.0
 10
398.692872
 20
627.103620
 30
0.0
 10
399.487056
 20
623.992684
 30
0.0
 10
398.010704
 20
622.794348
 30
0.0
 10
396.349800
 20
621.834764
 30
0.0
 10
399.554280
 20
619.867068
 30
0.0
 10
404.493408
 20
618.418324
 30
0.0
 10
404.034592
 20
614.303332
 30
0.0
 10
402.747816
 20
608.666988
 30
0.0
 10
405.980504
 20
599.327308
 30
0.0
 10
406.117816
 20
591.797604
 30
0.0
 10
405.900072
 20
589.800012
 30
0.0
 10
407.555592
 20
584.459100
 30
0.0
 10
409.162968
 20
577.638868
 30
0.0
 10
409.692392
 20
575.185228
 30
0.0
 10
411.595336
 20
571.412188
 30
0.0
 10
414.232664
 20
566.540596
 30
0.0
 10
403.266440
 20
559.552844
 30
0.0
 10
403.956600
 20
561.586404
 30
0.0
 10
404.612616
 20
564.418996
 30
0.0
 10
406.108312
 20
565.518028
 30
0.0
 10
407.433416
 20
565.578508
 30
0.0
 10
407.794760
 20
568.050060
 30
0.0
 10
402.259968
 20
574.764348
 30
0.0
 10
401.935192
 20
572.592900
 30
0.0
 10
402.732856
 20
567.390628
 30
0.0
 10
402.048992
 20
560.769356
 30
0.0
 10
400.462544
 20
554.938172
 30
0.0
 10
399.157000
 20
553.764900
 30
0.0
 10
398.611328
 20
551.801532
 30
0.0
 10
396.532688
 20
553.833012
 30
0.0
 10
399.678624
 20
563.652732
 30
0.0
 10
397.582368
 20
565.119548
 30
0.0
 10
392.465080
 20
552.488772
 30
0.0
 10
391.009936
 20
546.045820
 30
0.0
 10
384.925944
 20
546.809796
 30
0.0
 10
388.376808
 20
545.306076
 30
0.0
 10
386.927824
 20
542.990388
 30
0.0
 10
381.813784
 20
545.715652
 30
0.0
 10
381.813784
 20
545.715676
 30
0.0
  0
LWPOLYLINE
  5
125
100
AcDbEntity
  8
Capa_1
 62
7
100
AcDbPolyline
 90
5
 70
0
 10
360.376888
 20
623.243628
 30
0.0
 10
356.694144
 20
625.849772
 30
0.0
 10
358.416224
 20
622.607164
 30
0.0
 10
360.376888
 20
623.243628
 30
0.0
 10
360.376888
 20
623.243628
 30
0.0
  0
LWPOLYLINE
  5
126
100
AcDbEntity
  8
Capa_1
 62
7
100
AcDbPolyline
 90
7
 70
0
 10
382.454224
 20
640.139772
 30
0.0
 10
379.738608
 20
641.438868
 30
0.0
 10
377.080968
 20
643.380044
 30
0.0
 10
374.996368
 20
644.493252
 30
0.0
 10
376.756368
 20
641.281860
 30
0.0
 10
382.454224
 20
640.139772
 30
0.0
 10
382.454224
 20
640.139772
 30
0.0
  0
LWPOLYLINE
  5
127
100
AcDbEntity
  8
Capa_1
 62
7
100
AcDbPolyline
 90
5
 70
0
 10
160.979016
 20
546.203740
 30
0.0
 10
162.258216
 20
549.852916
 30
0.0
 10
162.258216
 20
545.306092
 30
0.0
 10
160.979016
 20
546.203740
 30
0.0
 10
160.979016
 20
546.203740
 30
0.0
  0
LWPOLYLINE
  5
128
100
AcDbEntity
  8
Capa_1
 62
7
100
AcDbPolyline
 90
5
 70
0
 10
396.094688
 20
546.528508
 30
0.0
 10
397.378904
 20
548.544628
 30
0.0
 10
397.889464
 20
547.322212
 30
0.0
 10
396.094688
 20
546.528508
 30
0.0
 10
396.094688
 20
546.528508
 30
0.0
  0
LWPOLYLINE
  5
129
100
AcDbEntity
  8
Capa_1
 62
7
100
AcDbPolyline
 90
5
 70
0
 10
399.991960
 20
548.630500
 30
0.0
 10
401.312248
 20
549.839820
 30
0.0
 10
401.885112
 20
547.814508
 30
0.0
 10
399.991960
 20
548.630500
 30
0.0
 10
399.991960
 20
548.630500
 30
0.0
  0
LWPOLYLINE
  5
12a
100
AcDbEntity
  8
Capa_1
 62
7
100
AcDbPolyline
 90
6
 70
0
 10
414.606744
 20
552.718356
 30
0.0
 10
413.853328
 20
557.552476
 30
0.0
 10
418.159352
 20
553.425420
 30
0.0
 10
417.854472
 20
551.978468
 30
0.0
 10
414.606744
 20
552.718356
 30
0.0
 10
414.606744
 20
552.718356
 30
0.0
  0
LWPOLYLINE
  5
12b
100
AcDbEntity
  8
Capa_1
 62
7
100
AcDbPolyline
 90
6
 70
0
 10
313.602376
 20
554.399740
 30
0.0
 10
314.098592
 20
555.698828
 30
0.0
 10
316.200560
 20
554.399740
 30
0.0
 10
315.704352
 20
553.100644
 30
0.0
 10
313.602376
 20
554.399740
 30
0.0
 10
313.602376
 20
554.399740
 30
0.0
  0
LWPOLYLINE
  5
12c
100
AcDbEntity
  8
Capa_1
 62
7
100
AcDbPolyline
 90
8
 70
0
 10
372.157128
 20
559.649668
 30
0.0
 10
368.813768
 20
568.261236
 30
0.0
 10
371.253016
 20
567.860516
 30
0.0
 10
374.551064
 20
562.536508
 30
0.0
 10
377.308176
 20
558.255252
 30
0.0
 10
377.353456
 20
553.966652
 30
0.0
 10
372.157088
 20
559.649668
 30
0.0
 10
372.157096
 20
559.649668
 30
0.0
  0
LWPOLYLINE
  5
12d
100
AcDbEntity
  8
Capa_1
 62
7
100
AcDbPolyline
 90
21
 70
0
 10
163.707976
 20
562.658052
 30
0.0
 10
161.523688
 20
564.290084
 30
0.0
 10
160.313768
 20
566.104860
 30
0.0
 10
161.454384
 20
571.672780
 30
0.0
 10
162.541968
 20
575.892468
 30
0.0
 10
163.084968
 20
583.972756
 30
0.0
 10
164.831168
 20
594.651452
 30
0.0
 10
170.361584
 20
605.449988
 30
0.0
 10
181.133912
 20
620.100796
 30
0.0
 10
188.349648
 20
627.798404
 30
0.0
 10
183.200184
 20
618.055220
 30
0.0
 10
175.265880
 20
598.568844
 30
0.0
 10
170.617344
 20
585.377500
 30
0.0
 10
168.753648
 20
579.382004
 30
0.0
 10
166.155464
 20
573.531620
 30
0.0
 10
165.505912
 20
569.988836
 30
0.0
 10
167.454552
 20
569.758180
 30
0.0
 10
166.281560
 20
566.676148
 30
0.0
 10
164.483616
 20
562.843828
 30
0.0
 10
163.707976
 20
562.658052
 30
0.0
 10
163.707976
 20
562.658052
 30
0.0
  0
LWPOLYLINE
  5
12e
100
AcDbEntity
  8
Capa_1
 62
7
100
AcDbPolyline
 90
6
 70
0
 10
182.394104
 20
571.287924
 30
0.0
 10
182.890320
 20
572.587020
 30
0.0
 10
184.992288
 20
571.287924
 30
0.0
 10
184.496080
 20
569.988836
 30
0.0
 10
182.394104
 20
571.287924
 30
0.0
 10
182.394104
 20
571.287924
 30
0.0
  0
LWPOLYLINE
  5
12f
100
AcDbEntity
  8
Capa_1
 62
7
100
AcDbPolyline
 90
6
 70
0
 10
364.916464
 20
572.911788
 30
0.0
 10
363.292592
 20
575.623932
 30
0.0
 10
363.333312
 20
576.381732
 30
0.0
 10
365.726448
 20
571.664932
 30
0.0
 10
364.916384
 20
572.911788
 30
0.0
 10
364.916440
 20
572.911788
 30
0.0
  0
LWPOLYLINE
  5
130
100
AcDbEntity
  8
Capa_1
 62
7
100
AcDbPolyline
 90
6
 70
0
 10
175.249080
 20
575.185196
 30
0.0
 10
176.548168
 20
576.484292
 30
0.0
 10
177.847264
 20
575.185196
 30
0.0
 10
176.548168
 20
573.886108
 30
0.0
 10
175.249080
 20
575.185196
 30
0.0
 10
175.249080
 20
575.185196
 30
0.0
  0
LWPOLYLINE
  5
131
100
AcDbEntity
  8
Capa_1
 62
7
100
AcDbPolyline
 90
18
 70
0
 10
181.266664
 20
574.907420
 30
0.0
 10
181.810792
 20
576.722884
 30
0.0
 10
179.656904
 20
581.680660
 30
0.0
 10
177.847264
 20
580.121748
 30
0.0
 10
176.234256
 20
580.175908
 30
0.0
 10
176.003840
 20
582.709140
 30
0.0
 10
177.500376
 20
586.877092
 30
0.0
 10
180.437888
 20
595.970732
 30
0.0
 10
183.091416
 20
593.964516
 30
0.0
 10
181.951384
 20
589.993580
 30
0.0
 10
180.770216
 20
584.657804
 30
0.0
 10
182.069312
 20
586.714708
 30
0.0
 10
183.043624
 20
588.176180
 30
0.0
 10
182.866640
 20
584.003396
 30
0.0
 10
183.048368
 20
580.856788
 30
0.0
 10
183.405128
 20
575.877372
 30
0.0
 10
181.266664
 20
574.907492
 30
0.0
 10
181.266664
 20
574.907436
 30
0.0
  0
LWPOLYLINE
  5
132
100
AcDbEntity
  8
Capa_1
 62
7
100
AcDbPolyline
 90
5
 70
0
 10
185.744368
 20
582.438484
 30
0.0
 10
186.529232
 20
583.223340
 30
0.0
 10
186.426656
 20
580.733420
 30
0.0
 10
185.744344
 20
582.438484
 30
0.0
 10
185.744368
 20
582.438484
 30
0.0
  0
LWPOLYLINE
  5
133
100
AcDbEntity
  8
Capa_1
 62
7
100
AcDbPolyline
 90
5
 70
0
 10
181.300144
 20
597.853156
 30
0.0
 10
182.460240
 20
599.013268
 30
0.0
 10
184.342720
 20
597.130780
 30
0.0
 10
181.300144
 20
597.853156
 30
0.0
 10
181.300144
 20
597.853156
 30
0.0
  0
LWPOLYLINE
  5
134
100
AcDbEntity
  8
Capa_1
 62
7
100
AcDbPolyline
 90
6
 70
0
 10
185.641808
 20
598.568860
 30
0.0
 10
187.017568
 20
599.867956
 30
0.0
 10
187.590448
 20
598.568860
 30
0.0
 10
186.214688
 20
597.269772
 30
0.0
 10
185.641808
 20
598.568860
 30
0.0
 10
185.641808
 20
598.568860
 30
0.0
  0
LWPOLYLINE
  5
135
100
AcDbEntity
  8
Capa_1
 62
7
100
AcDbPolyline
 90
6
 70
0
 10
363.564040
 20
604.015204
 30
0.0
 10
360.629120
 20
608.312052
 30
0.0
 10
364.327752
 20
604.778916
 30
0.0
 10
367.262672
 20
600.482068
 30
0.0
 10
363.564040
 20
604.015204
 30
0.0
 10
363.564040
 20
604.015204
 30
0.0
  0
LWPOLYLINE
  5
136
100
AcDbEntity
  8
Capa_1
 62
7
100
AcDbPolyline
 90
5
 70
0
 10
359.554360
 20
612.534100
 30
0.0
 10
360.044840
 20
613.024572
 30
0.0
 10
361.827768
 20
610.260684
 30
0.0
 10
359.554360
 20
612.534100
 30
0.0
 10
359.554360
 20
612.534100
 30
0.0
  0
LWPOLYLINE
  5
137
100
AcDbEntity
  8
Capa_1
 62
7
100
AcDbPolyline
 90
5
 70
0
 10
225.913648
 20
655.728892
 30
0.0
 10
229.161376
 20
655.728892
 30
0.0
 10
226.161752
 20
654.449692
 30
0.0
 10
225.913648
 20
655.728892
 30
0.0
 10
225.913648
 20
655.728892
 30
0.0
  0
LWPOLYLINE
  5
138
100
AcDbEntity
  8
Capa_1
 62
7
100
AcDbPolyline
 90
6
 70
0
 10
233.058648
 20
658.327068
 30
0.0
 10
233.554864
 20
659.626164
 30
0.0
 10
235.656832
 20
658.327068
 30
0.0
 10
235.160624
 20
657.027980
 30
0.0
 10
233.058648
 20
658.327068
 30
0.0
 10
233.058648
 20
658.327068
 30
0.0
  0
LWPOLYLINE
  5
139
100
AcDbEntity
  8
Capa_1
 62
7
100
AcDbPolyline
 90
9
 70
0
 10
239.519072
 20
659.682844
 30
0.0
 10
240.226520
 20
662.238484
 30
0.0
 10
241.041616
 20
665.449516
 30
0.0
 10
241.826632
 20
666.880548
 30
0.0
 10
245.724792
 20
665.321388
 30
0.0
 10
246.155808
 20
659.626164
 30
0.0
 10
242.389944
 20
658.888052
 30
0.0
 10
239.519072
 20
659.682844
 30
0.0
 10
239.519072
 20
659.682844
 30
0.0
  0
LWPOLYLINE
  5
13a
100
AcDbEntity
  8
Capa_1
 62
7
100
AcDbPolyline
 90
6
 70
0
 10
348.028248
 20
659.626204
 30
0.0
 10
349.976880
 20
660.925292
 30
0.0
 10
351.925520
 20
659.626204
 30
0.0
 10
349.976880
 20
658.327116
 30
0.0
 10
348.028248
 20
659.626204
 30
0.0
 10
348.028248
 20
659.626204
 30
0.0
  0
LWPOLYLINE
  5
13b
100
AcDbEntity
  8
Capa_1
 62
7
100
AcDbPolyline
 90
6
 70
0
 10
254.060624
 20
663.090444
 30
0.0
 10
253.194568
 20
665.298900
 30
0.0
 10
254.731816
 20
665.104036
 30
0.0
 10
255.597888
 20
662.895580
 30
0.0
 10
254.060624
 20
663.090444
 30
0.0
 10
254.060624
 20
663.090444
 30
0.0
  0
LWPOLYLINE
  5
13c
100
AcDbEntity
  8
Capa_1
 62
7
100
AcDbPolyline
 90
7
 70
0
 10
273.330488
 20
670.018940
 30
0.0
 10
273.454552
 20
672.817836
 30
0.0
 10
272.881672
 20
673.390724
 30
0.0
 10
271.381848
 20
673.934796
 30
0.0
 10
276.076072
 20
671.625412
 30
0.0
 10
273.330488
 20
670.018940
 30
0.0
 10
273.330488
 20
670.018940
 30
0.0
  0
ENDSEC
  0
SECTION
  2
OBJECTS
  0
DICTIONARY
  5
C
330
0
100
AcDbDictionary
  3
ACAD_GROUP
350
D
  3
ACAD_MLINESTYLE
350
17
  0
DICTIONARY
  5
D
330
C
100
AcDbDictionary
  0
DICTIONARY
  5
1A
330
C
100
AcDbDictionary
  0
DICTIONARY
  5
17
330
C
100
AcDbDictionary
  3
STANDARD
350
18
  0
DICTIONARY
  5
19
330
C
100
AcDbDictionary
  0
ENDSEC
  0
EOF
