999
"DXF R12 Output" (www.mydxf.blogspot.com)
 0 
SECTION
 2 
HEADER
 9 
$ACADVER
 1 
AC1009
 9 
$EXTMIN
 10 
 0 
 20 
 0 
 9 
$EXTMAX
 10 
 8.5 
 20 
 11 
 0 
ENDSEC
 0 
SECTION
 2 
ENTITIES
0
LINE
8
Layer 1
10
45.004242
20
166.826374
11
41.425657
21
164.836121
0
LINE
8
Layer 1
10
41.425657
20
164.836121
11
38.785251
21
162.960368
0
LINE
8
Layer 1
10
38.785251
20
162.960368
11
36.685588
21
160.866200
0
LINE
8
Layer 1
10
36.685588
20
160.866200
11
34.729230
21
158.220707
0
LINE
8
Layer 1
10
34.729230
20
158.220707
11
32.489884
21
155.235455
0
LINE
8
Layer 1
10
32.489884
20
155.235455
11
29.743066
21
152.021339
0
LINE
8
Layer 1
10
29.743066
20
152.021339
11
27.271415
21
149.125693
0
LINE
8
Layer 1
10
27.271415
20
149.125693
11
25.693527
21
146.906058
0
LINE
8
Layer 1
10
25.693527
20
146.906058
11
24.970476
21
145.179717
0
LINE
8
Layer 1
10
24.970476
20
145.179717
11
24.410209
21
143.141035
0
LINE
8
Layer 1
10
24.410209
20
143.141035
11
24.105133
21
141.213478
0
LINE
8
Layer 1
10
24.105133
20
141.213478
11
24.147654
21
139.820512
0
LINE
8
Layer 1
10
24.147654
20
139.820512
11
24.283496
21
139.365010
0
LINE
8
Layer 1
10
24.283496
20
139.365010
11
24.449632
21
139.184277
0
LINE
8
Layer 1
10
24.449632
20
139.184277
11
25.231035
21
139.560867
0
LINE
8
Layer 1
10
25.231035
20
139.560867
11
25.838260
21
139.890263
0
LINE
8
Layer 1
10
25.838260
20
139.890263
11
25.990078
21
139.849557
0
LINE
8
Layer 1
10
25.990078
20
139.849557
11
26.040705
21
139.623221
0
LINE
8
Layer 1
10
26.040705
20
139.623221
11
25.231388
21
136.131160
0
LINE
8
Layer 1
10
25.231388
20
136.131160
11
24.557185
21
132.884676
0
LINE
8
Layer 1
10
24.557185
20
132.884676
11
24.164235
21
129.667561
0
LINE
8
Layer 1
10
24.164235
20
129.667561
11
24.072468
21
127.023799
0
LINE
8
Layer 1
10
24.072468
20
127.023799
11
24.130359
21
126.927589
0
LINE
8
Layer 1
10
24.130359
20
126.927589
11
24.229967
21
127.010134
0
LINE
8
Layer 1
10
24.229967
20
127.010134
11
24.573104
21
127.617216
0
LINE
8
Layer 1
10
24.573104
20
127.617216
11
25.179883
21
128.426885
0
LINE
8
Layer 1
10
25.179883
20
128.426885
11
25.793011
21
128.763744
0
LINE
8
Layer 1
10
25.793011
20
128.763744
11
26.197879
21
128.674877
0
LINE
8
Layer 1
10
26.197879
20
128.674877
11
26.486660
21
128.306279
0
LINE
8
Layer 1
10
26.486660
20
128.306279
11
26.993514
21
126.117909
0
LINE
8
Layer 1
10
26.993514
20
126.117909
11
27.237637
21
124.706797
0
LINE
8
Layer 1
10
27.237637
20
124.706797
11
27.900506
21
126.850629
0
LINE
8
Layer 1
10
27.900506
20
126.850629
11
28.551878
21
128.594934
0
LINE
8
Layer 1
10
28.551878
20
128.594934
11
29.304122
21
130.047371
0
LINE
8
Layer 1
10
29.304122
20
130.047371
11
30.056234
21
131.043467
0
LINE
8
Layer 1
10
30.056234
20
131.043467
11
30.707208
21
131.418751
0
LINE
8
Layer 1
10
30.707208
20
131.418751
11
31.264520
21
131.512926
0
LINE
8
Layer 1
10
31.264520
20
131.512926
11
31.732469
21
131.805969
0
LINE
8
Layer 1
10
31.732469
20
131.805969
11
32.164832
21
132.347787
0
LINE
8
Layer 1
10
32.164832
20
132.347787
11
32.615384
21
133.188286
0
LINE
8
Layer 1
10
32.615384
20
133.188286
11
33.144562
21
134.035857
0
LINE
8
Layer 1
10
33.144562
20
134.035857
11
33.604221
21
134.263906
0
LINE
8
Layer 1
10
33.604221
20
134.263906
11
33.953549
21
133.880238
0
LINE
8
Layer 1
10
33.953549
20
133.880238
11
34.151733
21
132.892658
0
LINE
8
Layer 1
10
34.151733
20
132.892658
11
34.260741
21
131.608546
0
LINE
8
Layer 1
10
34.260741
20
131.608546
11
35.353294
21
132.852441
0
LINE
8
Layer 1
10
35.353294
20
132.852441
11
37.068545
21
134.436315
0
LINE
8
Layer 1
10
37.068545
20
134.436315
11
39.016365
21
135.762419
0
LINE
8
Layer 1
10
39.016365
20
135.762419
11
40.613082
21
136.492283
0
LINE
8
Layer 1
10
40.613082
20
136.492283
11
41.097380
21
136.527854
0
LINE
8
Layer 1
10
41.097380
20
136.527854
11
41.275026
21
136.287440
0
LINE
8
Layer 1
10
41.275026
20
136.287440
11
40.645185
21
135.447256
0
LINE
8
Layer 1
10
40.645185
20
135.447256
11
39.130841
21
133.868089
0
LINE
8
Layer 1
10
39.130841
20
133.868089
11
37.850729
21
132.527391
0
LINE
8
Layer 1
10
37.850729
20
132.527391
11
36.873553
21
131.290820
0
LINE
8
Layer 1
10
36.873553
20
131.290820
11
36.187956
21
130.107950
0
LINE
8
Layer 1
10
36.187956
20
130.107950
11
35.782581
21
128.928359
0
LINE
8
Layer 1
10
35.782581
20
128.928359
11
35.646073
21
127.701622
0
LINE
8
Layer 1
10
35.646073
20
127.701622
11
35.767076
21
126.377317
0
LINE
8
Layer 1
10
35.767076
20
126.377317
11
36.134231
21
124.905018
0
LINE
8
Layer 1
10
36.134231
20
124.905018
11
36.736184
21
123.234302
0
LINE
8
Layer 1
10
36.736184
20
123.234302
11
37.551862
21
120.745723
0
LINE
8
Layer 1
10
37.551862
20
120.745723
11
38.013593
21
118.432861
0
LINE
8
Layer 1
10
38.013593
20
118.432861
11
38.066014
21
116.728078
0
LINE
8
Layer 1
10
38.066014
20
116.728078
11
37.921432
21
116.238829
0
LINE
8
Layer 1
10
37.921432
20
116.238829
11
37.653760
21
116.063736
0
LINE
8
Layer 1
10
37.653760
20
116.063736
11
37.213774
21
116.345253
0
LINE
8
Layer 1
10
37.213774
20
116.345253
11
36.786852
21
117.056189
0
LINE
8
Layer 1
10
36.786852
20
117.056189
11
36.463977
21
117.996122
0
LINE
8
Layer 1
10
36.463977
20
117.996122
11
36.336134
21
118.964629
0
LINE
8
Layer 1
10
36.336134
20
118.964629
11
36.152552
21
119.493444
0
LINE
8
Layer 1
10
36.152552
20
119.493444
11
35.723667
21
119.518226
0
LINE
8
Layer 1
10
35.723667
20
119.518226
11
35.232275
21
119.114251
0
LINE
8
Layer 1
10
35.232275
20
119.114251
11
34.861169
21
118.356793
0
LINE
8
Layer 1
10
34.861169
20
118.356793
11
34.705004
21
117.087834
0
LINE
8
Layer 1
10
34.705004
20
117.087834
11
34.839253
21
115.556309
0
LINE
8
Layer 1
10
34.839253
20
115.556309
11
35.251248
21
113.837525
0
LINE
8
Layer 1
10
35.251248
20
113.837525
11
35.928323
21
112.006789
0
LINE
8
Layer 1
10
35.928323
20
112.006789
11
36.415063
21
110.744031
0
LINE
8
Layer 1
10
36.415063
20
110.744031
11
36.700157
21
109.495362
0
LINE
8
Layer 1
10
36.700157
20
109.495362
11
36.904459
21
105.428185
0
LINE
8
Layer 1
10
36.904459
20
105.428185
11
36.964784
21
100.965896
0
LINE
8
Layer 1
10
36.964784
20
100.965896
11
38.664116
21
102.369952
0
LINE
8
Layer 1
10
38.664116
20
102.369952
11
40.127368
21
103.502954
0
LINE
8
Layer 1
10
40.127368
20
103.502954
11
41.329839
21
104.245497
0
LINE
8
Layer 1
10
41.329839
20
104.245497
11
42.376934
21
104.651489
0
LINE
8
Layer 1
10
42.376934
20
104.651489
11
43.374055
21
104.774840
0
LINE
8
Layer 1
10
43.374055
20
104.774840
11
44.164366
21
104.594488
0
LINE
8
Layer 1
10
44.164366
20
104.594488
11
44.464668
21
104.133975
0
LINE
8
Layer 1
10
44.464668
20
104.133975
11
44.263849
21
103.514116
0
LINE
8
Layer 1
10
44.263849
20
103.514116
11
43.550797
21
102.855728
0
LINE
8
Layer 1
10
43.550797
20
102.855728
11
39.582044
21
99.574892
0
LINE
8
Layer 1
10
39.582044
20
99.574892
11
35.791268
21
96.310373
0
LINE
8
Layer 1
10
35.791268
20
96.310373
11
35.252334
21
95.981683
0
LINE
8
Layer 1
10
35.252334
20
95.981683
11
35.038969
21
96.076393
0
LINE
8
Layer 1
10
35.038969
20
96.076393
11
35.116536
21
96.500741
0
LINE
8
Layer 1
10
35.116536
20
96.500741
11
35.631989
21
97.191524
0
LINE
8
Layer 1
10
35.631989
20
97.191524
11
36.093241
21
97.803197
0
LINE
8
Layer 1
10
36.093241
20
97.803197
11
36.108940
21
97.977114
0
LINE
8
Layer 1
10
36.108940
20
97.977114
11
35.976874
21
98.064032
0
LINE
8
Layer 1
10
35.976874
20
98.064032
11
35.255999
21
97.979718
0
LINE
8
Layer 1
10
35.255999
20
97.979718
11
33.903730
21
97.555944
0
LINE
8
Layer 1
10
33.903730
20
97.555944
11
31.942477
21
96.810370
0
LINE
8
Layer 1
10
31.942477
20
96.810370
11
30.745705
21
96.190869
0
LINE
8
Layer 1
10
30.745705
20
96.190869
11
30.148546
21
95.584863
0
LINE
8
Layer 1
10
30.148546
20
95.584863
11
29.986130
21
94.879770
0
LINE
8
Layer 1
10
29.986130
20
94.879770
11
30.096831
21
93.782057
0
LINE
8
Layer 1
10
30.096831
20
93.782057
11
30.368233
21
92.859234
0
LINE
8
Layer 1
10
30.368233
20
92.859234
11
30.709286
21
92.327465
0
LINE
8
Layer 1
10
30.709286
20
92.327465
11
30.877479
21
92.275778
0
LINE
8
Layer 1
10
30.877479
20
92.275778
11
31.028942
21
92.402916
0
LINE
8
Layer 1
10
31.028942
20
92.402916
11
31.404694
21
92.678479
0
LINE
8
Layer 1
10
31.404694
20
92.678479
11
31.890778
21
92.666441
0
LINE
8
Layer 1
10
31.890778
20
92.666441
11
32.254244
21
92.261373
0
LINE
8
Layer 1
10
32.254244
20
92.261373
11
32.430413
21
91.480919
0
LINE
8
Layer 1
10
32.430413
20
91.480919
11
32.301280
21
89.267160
0
LINE
8
Layer 1
10
32.301280
20
89.267160
11
31.664212
21
86.971777
0
LINE
8
Layer 1
10
31.664212
20
86.971777
11
31.205464
21
86.089293
0
LINE
8
Layer 1
10
31.205464
20
86.089293
11
30.680044
21
85.541383
0
LINE
8
Layer 1
10
30.680044
20
85.541383
11
30.193431
21
85.564005
0
LINE
8
Layer 1
10
30.193431
20
85.564005
11
29.623474
21
86.090659
0
LINE
8
Layer 1
10
29.623474
20
86.090659
11
29.006995
21
86.702949
0
LINE
8
Layer 1
10
29.006995
20
86.702949
11
28.750150
21
86.622124
0
LINE
8
Layer 1
10
28.750150
20
86.622124
11
28.400040
21
86.305853
0
LINE
8
Layer 1
10
28.400040
20
86.305853
11
27.784443
21
85.930542
0
LINE
8
Layer 1
10
27.784443
20
85.930542
11
27.152970
21
85.904745
0
LINE
8
Layer 1
10
27.152970
20
85.904745
11
26.585218
21
85.888561
0
LINE
8
Layer 1
10
26.585218
20
85.888561
11
26.152139
21
85.475767
0
LINE
8
Layer 1
10
26.152139
20
85.475767
11
25.767655
21
85.035720
0
LINE
8
Layer 1
10
25.767655
20
85.035720
11
25.255377
21
85.548439
0
LINE
8
Layer 1
10
25.255377
20
85.548439
11
24.764299
21
86.438112
0
LINE
8
Layer 1
10
24.764299
20
86.438112
11
24.737763
21
87.224134
0
LINE
8
Layer 1
10
24.737763
20
87.224134
11
25.179673
21
87.920463
0
LINE
8
Layer 1
10
25.179673
20
87.920463
11
26.093930
21
88.541055
0
LINE
8
Layer 1
10
26.093930
20
88.541055
11
27.189130
21
89.245288
0
LINE
8
Layer 1
10
27.189130
20
89.245288
11
27.857820
21
89.936292
0
LINE
8
Layer 1
10
27.857820
20
89.936292
11
28.131819
21
91.063721
0
LINE
8
Layer 1
10
28.131819
20
91.063721
11
28.191107
21
92.815798
0
LINE
8
Layer 1
10
28.191107
20
92.815798
11
28.042566
21
94.897480
0
LINE
8
Layer 1
10
28.042566
20
94.897480
11
27.693073
21
97.013724
0
LINE
8
Layer 1
10
27.693073
20
97.013724
11
27.176253
21
100.276921
0
LINE
8
Layer 1
10
27.176253
20
100.276921
11
27.206245
21
100.807719
0
LINE
8
Layer 1
10
27.206245
20
100.807719
11
27.381261
21
101.099070
0
LINE
8
Layer 1
10
27.381261
20
101.099070
11
27.803465
21
101.221880
0
LINE
8
Layer 1
10
27.803465
20
101.221880
11
28.575018
21
101.247060
0
LINE
8
Layer 1
10
28.575018
20
101.247060
11
29.754840
21
101.104494
0
LINE
8
Layer 1
10
29.754840
20
101.104494
11
29.943493
21
100.842098
0
LINE
8
Layer 1
10
29.943493
20
100.842098
11
29.986130
21
100.377462
0
LINE
8
Layer 1
10
29.986130
20
100.377462
11
30.069124
21
99.850917
0
LINE
8
Layer 1
10
30.069124
20
99.850917
11
30.304275
21
99.444943
0
LINE
8
Layer 1
10
30.304275
20
99.444943
11
30.670833
21
99.163067
0
LINE
8
Layer 1
10
30.670833
20
99.163067
11
31.148048
21
99.008816
0
LINE
8
Layer 1
10
31.148048
20
99.008816
11
32.351457
21
99.097292
0
LINE
8
Layer 1
10
32.351457
20
99.097292
11
33.748507
21
99.738581
0
LINE
8
Layer 1
10
33.748507
20
99.738581
11
34.526124
21
100.556729
0
LINE
8
Layer 1
10
34.526124
20
100.556729
11
35.119359
21
101.841932
0
LINE
8
Layer 1
10
35.119359
20
101.841932
11
35.497685
21
103.501653
0
LINE
8
Layer 1
10
35.497685
20
103.501653
11
35.630578
21
105.443354
0
LINE
8
Layer 1
10
35.630578
20
105.443354
11
35.568478
21
107.550514
0
LINE
8
Layer 1
10
35.568478
20
107.550514
11
35.373756
21
109.029122
0
LINE
8
Layer 1
10
35.373756
20
109.029122
11
35.033777
21
109.935635
0
LINE
8
Layer 1
10
35.033777
20
109.935635
11
34.535908
21
110.326507
0
LINE
8
Layer 1
10
34.535908
20
110.326507
11
34.002199
21
110.699702
0
LINE
8
Layer 1
10
34.002199
20
110.699702
11
33.610571
21
111.363675
0
LINE
8
Layer 1
10
33.610571
20
111.363675
11
33.429767
21
111.829661
0
LINE
8
Layer 1
10
33.429767
20
111.829661
11
33.246813
21
111.913920
0
LINE
8
Layer 1
10
33.246813
20
111.913920
11
32.481682
21
110.709977
0
LINE
8
Layer 1
10
32.481682
20
110.709977
11
31.343884
21
108.882488
0
LINE
8
Layer 1
10
31.343884
20
108.882488
11
30.116922
21
107.350208
0
LINE
8
Layer 1
10
30.116922
20
107.350208
11
28.855432
21
106.172602
0
LINE
8
Layer 1
10
28.855432
20
106.172602
11
27.614051
21
105.409135
0
LINE
8
Layer 1
10
27.614051
20
105.409135
11
26.427350
21
104.960445
0
LINE
8
Layer 1
10
26.427350
20
104.960445
11
25.739388
21
104.839046
0
LINE
8
Layer 1
10
25.739388
20
104.839046
11
25.819910
21
105.384617
0
LINE
8
Layer 1
10
25.819910
20
105.384617
11
26.480928
21
106.538730
0
LINE
8
Layer 1
10
26.480928
20
106.538730
11
28.599360
21
110.154704
0
LINE
8
Layer 1
10
28.599360
20
110.154704
11
29.341103
21
111.393225
0
LINE
8
Layer 1
10
29.341103
20
111.393225
11
29.978766
21
112.057633
0
LINE
8
Layer 1
10
29.978766
20
112.057633
11
30.474149
21
112.123355
0
LINE
8
Layer 1
10
30.474149
20
112.123355
11
30.789053
21
111.565816
0
LINE
8
Layer 1
10
30.789053
20
111.565816
11
30.889479
21
111.349850
0
LINE
8
Layer 1
10
30.889479
20
111.349850
11
31.036306
21
111.385371
0
LINE
8
Layer 1
10
31.036306
20
111.385371
11
31.520362
21
112.260084
0
LINE
8
Layer 1
10
31.520362
20
112.260084
11
31.929711
21
113.987792
0
LINE
8
Layer 1
10
31.929711
20
113.987792
11
32.097462
21
116.594314
0
LINE
8
Layer 1
10
32.097462
20
116.594314
11
32.019085
21
119.786624
0
LINE
8
Layer 1
10
32.019085
20
119.786624
11
31.690048
21
123.271696
0
LINE
8
Layer 1
10
31.690048
20
123.271696
11
31.277650
21
126.470687
0
LINE
8
Layer 1
10
31.277650
20
126.470687
11
30.628892
21
123.842138
0
LINE
8
Layer 1
10
30.628892
20
123.842138
11
29.697392
21
120.816576
0
LINE
8
Layer 1
10
29.697392
20
120.816576
11
28.721774
21
118.846140
0
LINE
8
Layer 1
10
28.721774
20
118.846140
11
28.265107
21
118.325582
0
LINE
8
Layer 1
10
28.265107
20
118.325582
11
27.854634
21
118.151592
0
LINE
8
Layer 1
10
27.854634
20
118.151592
11
27.509431
21
118.351764
0
LINE
8
Layer 1
10
27.509431
20
118.351764
11
27.248573
21
118.953693
0
LINE
8
Layer 1
10
27.248573
20
118.953693
11
27.103322
21
119.337747
0
LINE
8
Layer 1
10
27.103322
20
119.337747
11
26.873967
21
119.374205
0
LINE
8
Layer 1
10
26.873967
20
119.374205
11
25.709050
21
118.174407
0
LINE
8
Layer 1
10
25.709050
20
118.174407
11
24.715450
21
117.126877
0
LINE
8
Layer 1
10
24.715450
20
117.126877
11
24.204451
21
116.788695
0
LINE
8
Layer 1
10
24.204451
20
116.788695
11
24.271082
21
117.578829
0
LINE
8
Layer 1
10
24.271082
20
117.578829
11
24.665532
21
119.243677
0
LINE
8
Layer 1
10
24.665532
20
119.243677
11
25.540069
21
123.109065
0
LINE
8
Layer 1
10
25.540069
20
123.109065
11
25.785955
21
124.686336
0
LINE
8
Layer 1
10
25.785955
20
124.686336
11
24.565696
21
123.285454
0
LINE
8
Layer 1
10
24.565696
20
123.285454
11
23.345084
21
121.884573
0
LINE
8
Layer 1
10
23.345084
20
121.884573
11
22.961614
21
122.877643
0
LINE
8
Layer 1
10
22.961614
20
122.877643
11
22.689534
21
125.081844
0
LINE
8
Layer 1
10
22.689534
20
125.081844
11
22.577792
21
129.021977
0
LINE
8
Layer 1
10
22.577792
20
129.021977
11
22.523420
21
132.605496
0
LINE
8
Layer 1
10
22.523420
20
132.605496
11
22.392584
21
133.987681
0
LINE
8
Layer 1
10
22.392584
20
133.987681
11
21.671858
21
130.665570
0
LINE
8
Layer 1
10
21.671858
20
130.665570
11
20.767644
21
126.448065
0
LINE
8
Layer 1
10
20.767644
20
126.448065
11
20.353687
21
125.520827
0
LINE
8
Layer 1
10
20.353687
20
125.520827
11
19.918199
21
125.235964
0
LINE
8
Layer 1
10
19.918199
20
125.235964
11
19.477970
21
124.888400
0
LINE
8
Layer 1
10
19.477970
20
124.888400
11
19.084011
21
123.869390
0
LINE
8
Layer 1
10
19.084011
20
123.869390
11
18.746077
21
122.214454
0
LINE
8
Layer 1
10
18.746077
20
122.214454
11
18.473926
21
119.959111
0
LINE
8
Layer 1
10
18.473926
20
119.959111
11
18.161568
21
118.078087
0
LINE
8
Layer 1
10
18.161568
20
118.078087
11
17.619453
21
116.753682
0
LINE
8
Layer 1
10
17.619453
20
116.753682
11
16.836766
21
115.968629
0
LINE
8
Layer 1
10
16.836766
20
115.968629
11
15.802691
21
115.705666
0
LINE
8
Layer 1
10
15.802691
20
115.705666
11
15.087698
21
115.610945
0
LINE
8
Layer 1
10
15.087698
20
115.610945
11
14.505526
21
115.391341
0
LINE
8
Layer 1
10
14.505526
20
115.391341
11
14.263432
21
115.098888
0
LINE
8
Layer 1
10
14.263432
20
115.098888
11
14.737301
21
114.854060
0
LINE
8
Layer 1
10
14.737301
20
114.854060
11
15.295434
21
114.553367
0
LINE
8
Layer 1
10
15.295434
20
114.553367
11
15.624934
21
114.134702
0
LINE
8
Layer 1
10
15.624934
20
114.134702
11
15.680921
21
113.697715
0
LINE
8
Layer 1
10
15.680921
20
113.697715
11
15.418515
21
113.342054
0
LINE
8
Layer 1
10
15.418515
20
113.342054
11
14.204783
21
113.174131
0
LINE
8
Layer 1
10
14.204783
20
113.174131
11
11.884032
21
113.156493
0
LINE
8
Layer 1
10
11.884032
20
113.156493
11
9.650022
21
113.131666
0
LINE
8
Layer 1
10
9.650022
20
113.131666
11
9.108138
21
113.040655
0
LINE
8
Layer 1
10
9.108138
20
113.040655
11
8.988431
21
112.900728
0
LINE
8
Layer 1
10
8.988431
20
112.900728
11
9.899237
21
112.385270
0
LINE
8
Layer 1
10
9.899237
20
112.385270
11
11.689652
21
111.801252
0
LINE
8
Layer 1
10
11.689652
20
111.801252
11
13.730891
21
111.323001
0
LINE
8
Layer 1
10
13.730891
20
111.323001
11
15.394174
21
111.124844
0
LINE
8
Layer 1
10
15.394174
20
111.124844
11
16.904223
21
111.263480
0
LINE
8
Layer 1
10
16.904223
20
111.263480
11
18.298815
21
111.741279
0
LINE
8
Layer 1
10
18.298815
20
111.741279
11
19.769674
21
112.651077
0
LINE
8
Layer 1
10
19.769674
20
112.651077
11
21.508522
21
114.085710
0
LINE
8
Layer 1
10
21.508522
20
114.085710
11
23.133814
21
115.443111
0
LINE
8
Layer 1
10
23.133814
20
115.443111
11
23.907412
21
115.909925
0
LINE
8
Layer 1
10
23.907412
20
115.909925
11
23.844225
21
115.617677
0
LINE
8
Layer 1
10
23.844225
20
115.617677
11
23.478181
21
115.030923
0
LINE
8
Layer 1
10
23.478181
20
115.030923
11
22.150225
21
113.342230
0
LINE
8
Layer 1
10
22.150225
20
113.342230
11
20.548955
21
111.580512
0
LINE
8
Layer 1
10
20.548955
20
111.580512
11
19.299779
21
110.482435
0
LINE
8
Layer 1
10
19.299779
20
110.482435
11
16.320216
21
109.201146
0
LINE
8
Layer 1
10
16.320216
20
109.201146
11
14.958978
21
108.686663
0
LINE
8
Layer 1
10
14.958978
20
108.686663
11
14.281159
21
108.292037
0
LINE
8
Layer 1
10
14.281159
20
108.292037
11
14.308633
21
108.092026
0
LINE
8
Layer 1
10
14.308633
20
108.092026
11
14.601096
21
107.895013
0
LINE
8
Layer 1
10
14.601096
20
107.895013
11
15.771205
21
107.551600
0
LINE
8
Layer 1
10
15.771205
20
107.551600
11
17.371924
21
107.345043
0
LINE
8
Layer 1
10
17.371924
20
107.345043
11
18.983690
21
107.358586
0
LINE
8
Layer 1
10
18.983690
20
107.358586
11
23.289698
21
108.177031
0
LINE
8
Layer 1
10
23.289698
20
108.177031
11
25.082384
21
108.544714
0
LINE
8
Layer 1
10
25.082384
20
108.544714
11
25.976808
21
108.548859
0
LINE
8
Layer 1
10
25.976808
20
108.548859
11
25.947219
21
108.085132
0
LINE
8
Layer 1
10
25.947219
20
108.085132
11
25.517844
21
107.328247
0
LINE
8
Layer 1
10
25.517844
20
107.328247
11
23.815855
21
104.986176
0
LINE
8
Layer 1
10
23.815855
20
104.986176
11
22.941153
21
103.602294
0
LINE
8
Layer 1
10
22.941153
20
103.602294
11
22.692191
21
102.781049
0
LINE
8
Layer 1
10
22.692191
20
102.781049
11
22.867423
21
102.126888
0
LINE
8
Layer 1
10
22.867423
20
102.126888
11
23.047555
21
101.531920
0
LINE
8
Layer 1
10
23.047555
20
101.531920
11
22.971476
21
101.146452
0
LINE
8
Layer 1
10
22.971476
20
101.146452
11
22.673717
21
100.963821
0
LINE
8
Layer 1
10
22.673717
20
100.963821
11
22.188810
21
100.977361
0
LINE
8
Layer 1
10
22.188810
20
100.977361
11
20.795684
21
101.566302
0
LINE
8
Layer 1
10
20.795684
20
101.566302
11
19.068356
21
102.859961
0
LINE
8
Layer 1
10
19.068356
20
102.859961
11
18.196008
21
103.783666
0
LINE
8
Layer 1
10
18.196008
20
103.783666
11
17.724934
21
104.587515
0
LINE
8
Layer 1
10
17.724934
20
104.587515
11
17.678450
21
105.207478
0
LINE
8
Layer 1
10
17.678450
20
105.207478
11
18.079873
21
105.579527
0
LINE
8
Layer 1
10
18.079873
20
105.579527
11
18.042395
21
105.703026
0
LINE
8
Layer 1
10
18.042395
20
105.703026
11
17.614161
21
105.922206
0
LINE
8
Layer 1
10
17.614161
20
105.922206
11
15.875010
21
106.523913
0
LINE
8
Layer 1
10
15.875010
20
106.523913
11
13.424675
21
107.240907
0
LINE
8
Layer 1
10
13.424675
20
107.240907
11
12.362708
21
107.441533
0
LINE
8
Layer 1
10
12.362708
20
107.441533
11
12.267479
21
107.334886
0
LINE
8
Layer 1
10
12.267479
20
107.334886
11
12.417482
21
107.083160
0
LINE
8
Layer 1
10
12.417482
20
107.083160
11
13.317369
21
106.123158
0
LINE
8
Layer 1
10
13.317369
20
106.123158
11
14.684472
21
104.404820
0
LINE
8
Layer 1
10
14.684472
20
104.404820
11
14.847621
21
103.899416
0
LINE
8
Layer 1
10
14.847621
20
103.899416
11
14.617004
21
103.716506
0
LINE
8
Layer 1
10
14.617004
20
103.716506
11
13.323455
21
104.313671
0
LINE
8
Layer 1
10
13.323455
20
104.313671
11
11.015493
21
105.927366
0
LINE
8
Layer 1
10
11.015493
20
105.927366
11
9.648919
21
106.875633
0
LINE
8
Layer 1
10
9.648919
20
106.875633
11
8.977142
21
107.166675
0
LINE
8
Layer 1
10
8.977142
20
107.166675
11
9.319116
21
106.522105
0
LINE
8
Layer 1
10
9.319116
20
106.522105
11
10.390018
21
105.221104
0
LINE
8
Layer 1
10
10.390018
20
105.221104
11
12.087381
21
103.044712
0
LINE
8
Layer 1
10
12.087381
20
103.044712
11
13.627682
21
100.444622
0
LINE
8
Layer 1
10
13.627682
20
100.444622
11
15.050573
21
97.344668
0
LINE
8
Layer 1
10
15.050573
20
97.344668
11
16.395710
21
93.668683
0
LINE
8
Layer 1
10
16.395710
20
93.668683
11
18.110741
21
89.113746
0
LINE
8
Layer 1
10
18.110741
20
89.113746
11
20.013096
21
84.878161
0
LINE
8
Layer 1
10
20.013096
20
84.878161
11
22.837789
21
79.128585
0
LINE
8
Layer 1
10
22.837789
20
79.128585
11
23.753954
21
77.490857
0
LINE
8
Layer 1
10
23.753954
20
77.490857
11
24.848977
21
75.999444
0
LINE
8
Layer 1
10
24.848977
20
75.999444
11
26.071353
21
74.612321
0
LINE
8
Layer 1
10
26.071353
20
74.612321
11
26.904614
21
75.630086
0
LINE
8
Layer 1
10
26.904614
20
75.630086
11
27.721207
21
76.395173
0
LINE
8
Layer 1
10
27.721207
20
76.395173
11
28.064978
21
76.420363
0
LINE
8
Layer 1
10
28.064978
20
76.420363
11
28.478004
21
76.251680
0
LINE
8
Layer 1
10
28.478004
20
76.251680
11
29.438552
21
75.491471
0
LINE
8
Layer 1
10
29.438552
20
75.491471
11
30.533641
21
74.300686
0
LINE
8
Layer 1
10
30.533641
20
74.300686
11
31.466276
21
73.038529
0
LINE
8
Layer 1
10
31.466276
20
73.038529
11
31.939462
21
72.064206
0
LINE
8
Layer 1
10
31.939462
20
72.064206
11
32.269309
21
70.467180
0
LINE
8
Layer 1
10
32.269309
20
70.467180
11
32.704725
21
69.727801
0
LINE
8
Layer 1
10
32.704725
20
69.727801
11
33.517438
21
69.064887
0
LINE
8
Layer 1
10
33.517438
20
69.064887
11
34.487710
21
68.213055
0
LINE
8
Layer 1
10
34.487710
20
68.213055
11
35.265100
21
66.930712
0
LINE
8
Layer 1
10
35.265100
20
66.930712
11
35.783199
21
65.363876
0
LINE
8
Layer 1
10
35.783199
20
65.363876
11
35.975595
21
63.658564
0
LINE
8
Layer 1
10
35.975595
20
63.658564
11
35.908519
21
62.647092
0
LINE
8
Layer 1
10
35.908519
20
62.647092
11
35.705819
21
61.871881
0
LINE
8
Layer 1
10
35.705819
20
61.871881
11
35.379972
21
61.337185
0
LINE
8
Layer 1
10
35.379972
20
61.337185
11
34.943455
21
61.047257
0
LINE
8
Layer 1
10
34.943455
20
61.047257
11
34.408744
21
61.006352
0
LINE
8
Layer 1
10
34.408744
20
61.006352
11
33.788316
21
61.218724
0
LINE
8
Layer 1
10
33.788316
20
61.218724
11
33.094649
21
61.688626
0
LINE
8
Layer 1
10
33.094649
20
61.688626
11
32.340218
21
62.420313
0
LINE
8
Layer 1
10
32.340218
20
62.420313
11
31.334062
21
63.638737
0
LINE
8
Layer 1
10
31.334062
20
63.638737
11
30.610018
21
64.807783
0
LINE
8
Layer 1
10
30.610018
20
64.807783
11
30.074358
21
66.111303
0
LINE
8
Layer 1
10
30.074358
20
66.111303
11
29.633352
21
67.733150
0
LINE
8
Layer 1
10
29.633352
20
67.733150
11
29.152736
21
69.414358
0
LINE
8
Layer 1
10
29.152736
20
69.414358
11
28.625818
21
70.731763
0
LINE
8
Layer 1
10
28.625818
20
70.731763
11
28.132546
21
71.512417
0
LINE
8
Layer 1
10
28.132546
20
71.512417
11
27.945662
21
71.015397
0
LINE
8
Layer 1
10
27.945662
20
71.015397
11
28.021575
21
69.391614
0
LINE
8
Layer 1
10
28.021575
20
69.391614
11
28.415915
21
66.878104
0
LINE
8
Layer 1
10
28.415915
20
66.878104
11
28.965036
21
64.349381
0
LINE
8
Layer 1
10
28.965036
20
64.349381
11
29.505294
21
62.679958
0
LINE
8
Layer 1
10
29.505294
20
62.679958
11
30.440177
21
61.153206
0
LINE
8
Layer 1
10
30.440177
20
61.153206
11
31.600354
21
59.744889
0
LINE
8
Layer 1
10
31.600354
20
59.744889
11
32.873375
21
58.574234
0
LINE
8
Layer 1
10
32.873375
20
58.574234
11
34.146794
21
57.760469
0
LINE
8
Layer 1
10
34.146794
20
57.760469
11
35.032426
21
57.264490
0
LINE
8
Layer 1
10
35.032426
20
57.264490
11
35.725608
21
56.663109
0
LINE
8
Layer 1
10
35.725608
20
56.663109
11
36.372421
21
55.796283
0
LINE
8
Layer 1
10
36.372421
20
55.796283
11
37.118948
21
54.503975
0
LINE
8
Layer 1
10
37.118948
20
54.503975
11
38.232933
21
52.189972
0
LINE
8
Layer 1
10
38.232933
20
52.189972
11
39.029947
21
50.094250
0
LINE
8
Layer 1
10
39.029947
20
50.094250
11
39.702579
21
48.146232
0
LINE
8
Layer 1
10
39.702579
20
48.146232
11
40.518185
21
46.401282
0
LINE
8
Layer 1
10
40.518185
20
46.401282
11
41.494195
21
44.827120
0
LINE
8
Layer 1
10
41.494195
20
44.827120
11
42.648038
21
43.391468
0
LINE
8
Layer 1
10
42.648038
20
43.391468
11
43.417900
21
42.483682
0
LINE
8
Layer 1
10
43.417900
20
42.483682
11
43.914125
21
41.707262
0
LINE
8
Layer 1
10
43.914125
20
41.707262
11
44.113835
21
41.007637
0
LINE
8
Layer 1
10
44.113835
20
41.007637
11
43.994151
21
40.330237
0
LINE
8
Layer 1
10
43.994151
20
40.330237
11
43.532195
21
39.620492
0
LINE
8
Layer 1
10
43.532195
20
39.620492
11
42.705089
21
38.823831
0
LINE
8
Layer 1
10
42.705089
20
38.823831
11
39.863914
21
36.751480
0
LINE
8
Layer 1
10
39.863914
20
36.751480
11
36.996507
21
34.521813
0
LINE
8
Layer 1
10
36.996507
20
34.521813
11
33.849005
21
31.708078
0
LINE
8
Layer 1
10
33.849005
20
31.708078
11
31.366865
21
29.203509
0
LINE
8
Layer 1
10
31.366865
20
29.203509
11
30.670760
21
28.346297
0
LINE
8
Layer 1
10
30.670760
20
28.346297
11
30.495541
21
27.901339
0
LINE
8
Layer 1
10
30.495541
20
27.901339
11
30.869073
21
27.594714
0
LINE
8
Layer 1
10
30.869073
20
27.594714
11
31.655255
21
27.699153
0
LINE
8
Layer 1
10
31.655255
20
27.699153
11
35.967481
21
29.610195
0
LINE
8
Layer 1
10
35.967481
20
29.610195
11
39.163209
21
31.030391
0
LINE
8
Layer 1
10
39.163209
20
31.030391
11
40.676715
21
31.507083
0
LINE
8
Layer 1
10
40.676715
20
31.507083
11
40.829688
21
30.365625
0
LINE
8
Layer 1
10
40.829688
20
30.365625
11
40.742684
21
27.826903
0
LINE
8
Layer 1
10
40.742684
20
27.826903
11
40.493270
21
24.341456
0
LINE
8
Layer 1
10
40.493270
20
24.341456
11
41.345934
21
24.341456
0
LINE
8
Layer 1
10
41.345934
20
24.341456
11
42.351820
21
24.189017
0
LINE
8
Layer 1
10
42.351820
20
24.189017
11
43.006505
21
23.640530
0
LINE
8
Layer 1
10
43.006505
20
23.640530
11
43.397730
21
22.559238
0
LINE
8
Layer 1
10
43.397730
20
22.559238
11
43.613239
21
20.808384
0
LINE
8
Layer 1
10
43.613239
20
20.808384
11
44.138878
21
17.073171
0
LINE
8
Layer 1
10
44.138878
20
17.073171
11
44.618529
21
16.075956
0
LINE
8
Layer 1
10
44.618529
20
16.075956
11
45.318347
21
15.197274
0
LINE
8
Layer 1
10
45.318347
20
15.197274
11
46.024184
21
14.653819
0
LINE
8
Layer 1
10
46.024184
20
14.653819
11
46.312439
21
14.575519
0
LINE
8
Layer 1
10
46.312439
20
14.575519
11
46.521893
21
14.662286
0
LINE
8
Layer 1
10
46.521893
20
14.662286
11
46.857606
21
15.828350
0
LINE
8
Layer 1
10
46.857606
20
15.828350
11
47.245441
21
18.167841
0
LINE
8
Layer 1
10
47.245441
20
18.167841
11
47.629969
21
20.495867
0
LINE
8
Layer 1
10
47.629969
20
20.495867
11
47.957347
21
21.634590
0
LINE
8
Layer 1
10
47.957347
20
21.634590
11
48.202312
21
21.516605
0
LINE
8
Layer 1
10
48.202312
20
21.516605
11
48.634234
21
20.966600
0
LINE
8
Layer 1
10
48.634234
20
20.966600
11
49.820676
21
19.002381
0
LINE
8
Layer 1
10
49.820676
20
19.002381
11
51.040125
21
16.605635
0
LINE
8
Layer 1
10
51.040125
20
16.605635
11
51.816033
21
14.640061
0
LINE
8
Layer 1
10
51.816033
20
14.640061
11
52.736430
21
9.348391
0
LINE
8
Layer 1
10
52.736430
20
9.348391
11
53.595092
21
4.409499
0
LINE
8
Layer 1
10
53.595092
20
4.409499
11
53.775411
21
3.967598
0
LINE
8
Layer 1
10
53.775411
20
3.967598
11
53.893449
21
3.993998
0
LINE
8
Layer 1
10
53.893449
20
3.993998
11
53.953118
21
5.120391
0
LINE
8
Layer 1
10
53.953118
20
5.120391
11
53.794968
21
7.126060
0
LINE
8
Layer 1
10
53.794968
20
7.126060
11
53.439870
21
9.348391
0
LINE
8
Layer 1
10
53.439870
20
9.348391
11
53.044053
21
11.719930
0
LINE
8
Layer 1
10
53.044053
20
11.719930
11
52.917582
21
13.700878
0
LINE
8
Layer 1
10
52.917582
20
13.700878
11
53.059663
21
15.107547
0
LINE
8
Layer 1
10
53.059663
20
15.107547
11
53.231163
21
15.538125
0
LINE
8
Layer 1
10
53.231163
20
15.538125
11
53.469503
21
15.756251
0
LINE
8
Layer 1
10
53.469503
20
15.756251
11
53.851874
21
15.825820
0
LINE
8
Layer 1
10
53.851874
20
15.825820
11
54.303917
21
15.744085
0
LINE
8
Layer 1
10
54.303917
20
15.744085
11
55.543970
21
15.033453
0
LINE
8
Layer 1
10
55.543970
20
15.033453
11
57.443564
21
13.437854
0
LINE
8
Layer 1
10
57.443564
20
13.437854
11
60.256599
21
10.770792
0
LINE
8
Layer 1
10
60.256599
20
10.770792
11
64.598238
21
6.545217
0
LINE
8
Layer 1
10
64.598238
20
6.545217
11
62.092456
21
11.688367
0
LINE
8
Layer 1
10
62.092456
20
11.688367
11
60.709219
21
14.602259
0
LINE
8
Layer 1
10
60.709219
20
14.602259
11
59.877142
21
16.670475
0
LINE
8
Layer 1
10
59.877142
20
16.670475
11
59.371231
21
18.557980
0
LINE
8
Layer 1
10
59.371231
20
18.557980
11
58.966490
21
20.929740
0
LINE
8
Layer 1
10
58.966490
20
20.929740
11
58.620960
21
23.606074
0
LINE
8
Layer 1
10
58.620960
20
23.606074
11
58.620018
21
25.177672
0
LINE
8
Layer 1
10
58.620018
20
25.177672
11
58.763184
21
25.635030
0
LINE
8
Layer 1
10
58.763184
20
25.635030
11
59.009799
21
25.919206
0
LINE
8
Layer 1
10
59.009799
20
25.919206
11
59.836440
21
26.105346
0
LINE
8
Layer 1
10
59.836440
20
26.105346
11
60.755383
21
25.994094
0
LINE
8
Layer 1
10
60.755383
20
25.994094
11
61.466628
21
25.659831
0
LINE
8
Layer 1
10
61.466628
20
25.659831
11
61.971232
21
25.101797
0
LINE
8
Layer 1
10
61.971232
20
25.101797
11
62.270256
21
24.319231
0
LINE
8
Layer 1
10
62.270256
20
24.319231
11
62.499242
21
23.550842
0
LINE
8
Layer 1
10
62.499242
20
23.550842
11
62.603867
21
23.446248
0
LINE
8
Layer 1
10
62.603867
20
23.446248
11
62.705937
21
23.535491
0
LINE
8
Layer 1
10
62.705937
20
23.535491
11
63.149026
21
25.942363
0
LINE
8
Layer 1
10
63.149026
20
25.942363
11
63.465688
21
27.720805
0
LINE
8
Layer 1
10
63.465688
20
27.720805
11
63.815424
21
28.678509
0
LINE
8
Layer 1
10
63.815424
20
28.678509
11
64.044994
21
28.807250
0
LINE
8
Layer 1
10
64.044994
20
28.807250
11
64.318485
21
28.786497
0
LINE
8
Layer 1
10
64.318485
20
28.786497
11
64.972888
21
28.321630
0
LINE
8
Layer 1
10
64.972888
20
28.321630
11
65.729950
21
27.334143
0
LINE
8
Layer 1
10
65.729950
20
27.334143
11
66.540986
21
25.874276
0
LINE
8
Layer 1
10
66.540986
20
25.874276
11
67.012954
21
24.824382
0
LINE
8
Layer 1
10
67.012954
20
24.824382
11
67.257611
21
23.976198
0
LINE
8
Layer 1
10
67.257611
20
23.976198
11
67.312760
21
23.114059
0
LINE
8
Layer 1
10
67.312760
20
23.114059
11
67.216203
21
22.022293
0
LINE
8
Layer 1
10
67.216203
20
22.022293
11
67.113303
21
20.929586
0
LINE
8
Layer 1
10
67.113303
20
20.929586
11
67.163199
21
20.147631
0
LINE
8
Layer 1
10
67.163199
20
20.147631
11
67.409283
21
19.461456
0
LINE
8
Layer 1
10
67.409283
20
19.461456
11
67.894948
21
18.656086
0
LINE
8
Layer 1
10
67.894948
20
18.656086
11
69.441748
21
17.008436
0
LINE
8
Layer 1
10
69.441748
20
17.008436
11
71.861937
21
15.009420
0
LINE
8
Layer 1
10
71.861937
20
15.009420
11
74.535630
21
13.146388
0
LINE
8
Layer 1
10
74.535630
20
13.146388
11
77.208199
21
11.459503
0
LINE
8
Layer 1
10
77.208199
20
11.459503
11
79.314163
21
10.287100
0
LINE
8
Layer 1
10
79.314163
20
10.287100
11
80.288039
21
9.967516
0
LINE
8
Layer 1
10
80.288039
20
9.967516
11
80.205093
21
10.445486
0
LINE
8
Layer 1
10
80.205093
20
10.445486
11
79.748289
21
11.337001
0
LINE
8
Layer 1
10
79.748289
20
11.337001
11
79.237026
21
12.570357
0
LINE
8
Layer 1
10
79.237026
20
12.570357
11
79.023683
21
13.869594
0
LINE
8
Layer 1
10
79.023683
20
13.869594
11
78.951755
21
14.887369
0
LINE
8
Layer 1
10
78.951755
20
14.887369
11
78.665217
21
15.802288
0
LINE
8
Layer 1
10
78.665217
20
15.802288
11
78.053968
21
16.855584
0
LINE
8
Layer 1
10
78.053968
20
16.855584
11
77.007910
21
18.288491
0
LINE
8
Layer 1
10
77.007910
20
18.288491
11
75.781130
21
20.150178
0
LINE
8
Layer 1
10
75.781130
20
20.150178
11
75.334375
21
21.492156
0
LINE
8
Layer 1
10
75.334375
20
21.492156
11
75.403683
21
21.965175
0
LINE
8
Layer 1
10
75.403683
20
21.965175
11
75.668208
21
22.304571
0
LINE
8
Layer 1
10
75.668208
20
22.304571
11
76.128020
21
22.509112
0
LINE
8
Layer 1
10
76.128020
20
22.509112
11
76.783190
21
22.577566
0
LINE
8
Layer 1
10
76.783190
20
22.577566
11
77.998466
21
22.836637
0
LINE
8
Layer 1
10
77.998466
20
22.836637
11
79.727828
21
23.459511
0
LINE
8
Layer 1
10
79.727828
20
23.459511
11
81.394087
21
24.082385
0
LINE
8
Layer 1
10
81.394087
20
24.082385
11
82.457624
21
24.341456
0
LINE
8
Layer 1
10
82.457624
20
24.341456
11
83.457452
21
24.053005
0
LINE
8
Layer 1
10
83.457452
20
24.053005
11
84.555242
21
23.334804
0
LINE
8
Layer 1
10
84.555242
20
23.334804
11
85.479730
21
22.407582
0
LINE
8
Layer 1
10
85.479730
20
22.407582
11
85.959651
21
21.492068
0
LINE
8
Layer 1
10
85.959651
20
21.492068
11
86.225734
21
20.728083
0
LINE
8
Layer 1
10
86.225734
20
20.728083
11
86.412982
21
20.701245
0
LINE
8
Layer 1
10
86.412982
20
20.701245
11
86.679671
21
20.874001
0
LINE
8
Layer 1
10
86.679671
20
20.874001
11
87.169258
21
21.436463
0
LINE
8
Layer 1
10
87.169258
20
21.436463
11
87.694608
21
22.318881
0
LINE
8
Layer 1
10
87.694608
20
22.318881
11
88.783331
21
24.854042
0
LINE
8
Layer 1
10
88.783331
20
24.854042
11
89.807296
21
28.100405
0
LINE
8
Layer 1
10
89.807296
20
28.100405
11
90.627963
21
31.678886
0
LINE
8
Layer 1
10
90.627963
20
31.678886
11
90.863348
21
32.691160
0
LINE
8
Layer 1
10
90.863348
20
32.691160
11
91.149765
21
33.344792
0
LINE
8
Layer 1
10
91.149765
20
33.344792
11
91.537055
21
33.715451
0
LINE
8
Layer 1
10
91.537055
20
33.715451
11
92.075058
21
33.878809
0
LINE
8
Layer 1
10
92.075058
20
33.878809
11
92.800551
21
33.920206
0
LINE
8
Layer 1
10
92.800551
20
33.920206
11
93.229744
21
33.757013
0
LINE
8
Layer 1
10
93.229744
20
33.757013
11
93.434901
21
33.320902
0
LINE
8
Layer 1
10
93.434901
20
33.320902
11
93.488287
21
32.543544
0
LINE
8
Layer 1
10
93.488287
20
32.543544
11
93.857645
21
29.897709
0
LINE
8
Layer 1
10
93.857645
20
29.897709
11
94.325208
21
28.831835
0
LINE
8
Layer 1
10
94.325208
20
28.831835
11
94.651048
21
28.629842
0
LINE
8
Layer 1
10
94.651048
20
28.629842
11
95.107890
21
28.574792
0
LINE
8
Layer 1
10
95.107890
20
28.574792
11
96.018851
21
28.723532
0
LINE
8
Layer 1
10
96.018851
20
28.723532
11
96.969500
21
29.081028
0
LINE
8
Layer 1
10
96.969500
20
29.081028
11
98.532819
21
30.360879
0
LINE
8
Layer 1
10
98.532819
20
30.360879
11
100.870740
21
32.690962
0
LINE
8
Layer 1
10
100.870740
20
32.690962
11
103.154751
21
35.203276
0
LINE
8
Layer 1
10
103.154751
20
35.203276
11
104.556344
21
37.029822
0
LINE
8
Layer 1
10
104.556344
20
37.029822
11
105.219566
21
38.187640
0
LINE
8
Layer 1
10
105.219566
20
38.187640
11
104.027177
21
38.019717
0
LINE
8
Layer 1
10
104.027177
20
38.019717
11
101.161208
21
37.374134
0
LINE
8
Layer 1
10
101.161208
20
37.374134
11
99.703491
21
37.086074
0
LINE
8
Layer 1
10
99.703491
20
37.086074
11
99.281055
21
37.129975
0
LINE
8
Layer 1
10
99.281055
20
37.129975
11
99.061253
21
37.302476
0
LINE
8
Layer 1
10
99.061253
20
37.302476
11
99.042849
21
37.606061
0
LINE
8
Layer 1
10
99.042849
20
37.606061
11
99.224606
21
38.043216
0
LINE
8
Layer 1
10
99.224606
20
38.043216
11
100.183660
21
39.328171
0
LINE
8
Layer 1
10
100.183660
20
39.328171
11
101.139771
21
40.540972
0
LINE
8
Layer 1
10
101.139771
20
40.540972
11
101.408726
21
41.127736
0
LINE
8
Layer 1
10
101.408726
20
41.127736
11
101.005440
21
41.033792
0
LINE
8
Layer 1
10
101.005440
20
41.033792
11
99.944830
21
40.204472
0
LINE
8
Layer 1
10
99.944830
20
40.204472
11
98.012775
21
38.694874
0
LINE
8
Layer 1
10
98.012775
20
38.694874
11
95.787694
21
37.210842
0
LINE
8
Layer 1
10
95.787694
20
37.210842
11
93.797827
21
36.080094
0
LINE
8
Layer 1
10
93.797827
20
36.080094
11
92.571417
21
35.630352
0
LINE
8
Layer 1
10
92.571417
20
35.630352
11
91.876400
21
35.834434
0
LINE
8
Layer 1
10
91.876400
20
35.834434
11
91.369502
21
36.335908
0
LINE
8
Layer 1
10
91.369502
20
36.335908
11
91.042192
21
36.688106
0
LINE
8
Layer 1
10
91.042192
20
36.688106
11
90.508845
21
36.923912
0
LINE
8
Layer 1
10
90.508845
20
36.923912
11
88.878713
21
37.049225
0
LINE
8
Layer 1
10
88.878713
20
37.049225
11
86.588445
21
36.717603
0
LINE
8
Layer 1
10
86.588445
20
36.717603
11
83.747381
21
35.934799
0
LINE
8
Layer 1
10
83.747381
20
35.934799
11
81.787826
21
35.329201
0
LINE
8
Layer 1
10
81.787826
20
35.329201
11
80.305811
21
35.020399
0
LINE
8
Layer 1
10
80.305811
20
35.020399
11
78.758907
21
34.938345
0
LINE
8
Layer 1
10
78.758907
20
34.938345
11
76.604684
21
35.012991
0
LINE
8
Layer 1
10
76.604684
20
35.012991
11
73.521057
21
35.283483
0
LINE
8
Layer 1
10
73.521057
20
35.283483
11
71.321437
21
35.868565
0
LINE
8
Layer 1
10
71.321437
20
35.868565
11
70.402120
21
36.342867
0
LINE
8
Layer 1
10
70.402120
20
36.342867
11
69.522594
21
36.972364
0
LINE
8
Layer 1
10
69.522594
20
36.972364
11
67.641301
21
38.799004
0
LINE
8
Layer 1
10
67.641301
20
38.799004
11
65.185023
21
41.937538
0
LINE
8
Layer 1
10
65.185023
20
41.937538
11
62.815959
21
45.714511
0
LINE
8
Layer 1
10
62.815959
20
45.714511
11
61.030500
21
49.255476
0
LINE
8
Layer 1
10
61.030500
20
49.255476
11
60.511745
21
50.664190
0
LINE
8
Layer 1
10
60.511745
20
50.664190
11
60.325038
21
51.685984
0
LINE
8
Layer 1
10
60.325038
20
51.685984
11
60.520416
21
52.237454
0
LINE
8
Layer 1
10
60.520416
20
52.237454
11
61.090875
21
52.428494
0
LINE
8
Layer 1
10
61.090875
20
52.428494
11
62.012899
21
52.258775
0
LINE
8
Layer 1
10
62.012899
20
52.258775
11
63.262973
21
51.727965
0
LINE
8
Layer 1
10
63.262973
20
51.727965
11
64.812330
21
51.072459
0
LINE
8
Layer 1
10
64.812330
20
51.072459
11
65.961372
21
50.799806
0
LINE
8
Layer 1
10
65.961372
20
50.799806
11
66.394082
21
50.842299
0
LINE
8
Layer 1
10
66.394082
20
50.842299
11
66.444898
21
51.053762
0
LINE
8
Layer 1
10
66.444898
20
51.053762
11
65.162330
21
52.487496
0
LINE
8
Layer 1
10
65.162330
20
52.487496
11
63.970045
21
53.833008
0
LINE
8
Layer 1
10
63.970045
20
53.833008
11
63.544358
21
54.733854
0
LINE
8
Layer 1
10
63.544358
20
54.733854
11
63.616993
21
55.049598
0
LINE
8
Layer 1
10
63.616993
20
55.049598
11
63.878885
21
55.292660
0
LINE
8
Layer 1
10
63.878885
20
55.292660
11
64.967244
21
55.612051
0
LINE
8
Layer 1
10
64.967244
20
55.612051
11
66.434447
21
55.846648
0
LINE
8
Layer 1
10
66.434447
20
55.846648
11
64.753460
21
56.507048
0
LINE
8
Layer 1
10
64.753460
20
56.507048
11
63.110000
21
57.287393
0
LINE
8
Layer 1
10
63.110000
20
57.287393
11
61.519192
21
58.236013
0
LINE
8
Layer 1
10
61.519192
20
58.236013
11
60.333108
21
58.935440
0
LINE
8
Layer 1
10
60.333108
20
58.935440
11
59.662168
21
59.116547
0
LINE
8
Layer 1
10
59.662168
20
59.116547
11
59.396570
21
58.455706
0
LINE
8
Layer 1
10
59.396570
20
58.455706
11
59.185212
21
57.130760
0
LINE
8
Layer 1
10
59.185212
20
57.130760
11
58.909213
21
55.777779
0
LINE
8
Layer 1
10
58.909213
20
55.777779
11
58.410997
21
54.597373
0
LINE
8
Layer 1
10
58.410997
20
54.597373
11
57.786773
21
53.762381
0
LINE
8
Layer 1
10
57.786773
20
53.762381
11
57.132750
21
53.445641
0
LINE
8
Layer 1
10
57.132750
20
53.445641
11
56.854090
21
53.571424
0
LINE
8
Layer 1
10
56.854090
20
53.571424
11
56.529136
21
53.922211
0
LINE
8
Layer 1
10
56.529136
20
53.922211
11
55.817241
21
55.139416
0
LINE
8
Layer 1
10
55.817241
20
55.139416
11
55.150854
21
56.778500
0
LINE
8
Layer 1
10
55.150854
20
56.778500
11
54.683765
21
58.520705
0
LINE
8
Layer 1
10
54.683765
20
58.520705
11
54.396124
21
61.147060
0
LINE
8
Layer 1
10
54.396124
20
61.147060
11
54.339762
21
64.267724
0
LINE
8
Layer 1
10
54.339762
20
64.267724
11
54.503732
21
67.261783
0
LINE
8
Layer 1
10
54.503732
20
67.261783
11
54.877087
21
69.508329
0
LINE
8
Layer 1
10
54.877087
20
69.508329
11
55.620391
21
73.214967
0
LINE
8
Layer 1
10
55.620391
20
73.214967
11
55.637495
21
74.560490
0
LINE
8
Layer 1
10
55.637495
20
74.560490
11
55.283091
21
75.415376
0
LINE
8
Layer 1
10
55.283091
20
75.415376
11
54.478035
21
75.868823
0
LINE
8
Layer 1
10
54.478035
20
75.868823
11
53.143183
21
76.010027
0
LINE
8
Layer 1
10
53.143183
20
76.010027
11
51.681977
21
76.023433
0
LINE
8
Layer 1
10
51.681977
20
76.023433
11
51.721135
21
79.022046
0
LINE
8
Layer 1
10
51.721135
20
79.022046
11
51.942989
21
81.886251
0
LINE
8
Layer 1
10
51.942989
20
81.886251
11
52.518061
21
84.490105
0
LINE
8
Layer 1
10
52.518061
20
84.490105
11
53.148431
21
87.005544
0
LINE
8
Layer 1
10
53.148431
20
87.005544
11
53.600737
21
89.585278
0
LINE
8
Layer 1
10
53.600737
20
89.585278
11
54.015515
21
91.776602
0
LINE
8
Layer 1
10
54.015515
20
91.776602
11
54.299039
21
92.378734
0
LINE
8
Layer 1
10
54.299039
20
92.378734
11
54.675298
21
92.776507
0
LINE
8
Layer 1
10
54.675298
20
92.776507
11
55.229821
21
93.337380
0
LINE
8
Layer 1
10
55.229821
20
93.337380
11
55.128877
21
93.564652
0
LINE
8
Layer 1
10
55.128877
20
93.564652
11
54.788187
21
93.876822
0
LINE
8
Layer 1
10
54.788187
20
93.876822
11
53.230672
21
94.983134
0
LINE
8
Layer 1
10
53.230672
20
94.983134
11
52.197716
21
95.918982
0
LINE
8
Layer 1
10
52.197716
20
95.918982
11
51.179974
21
97.292022
0
LINE
8
Layer 1
10
51.179974
20
97.292022
11
50.403532
21
98.745958
0
LINE
8
Layer 1
10
50.403532
20
98.745958
11
50.094476
21
99.924495
0
LINE
8
Layer 1
10
50.094476
20
99.924495
11
50.120725
21
100.489602
0
LINE
8
Layer 1
10
50.120725
20
100.489602
11
50.260017
21
100.766576
0
LINE
8
Layer 1
10
50.260017
20
100.766576
11
50.603171
21
100.817068
0
LINE
8
Layer 1
10
50.603171
20
100.817068
11
51.241004
21
100.702724
0
LINE
8
Layer 1
10
51.241004
20
100.702724
11
53.784181
21
99.748106
0
LINE
8
Layer 1
10
53.784181
20
99.748106
11
55.181182
21
99.040786
0
LINE
8
Layer 1
10
55.181182
20
99.040786
11
54.152481
21
98.220578
0
LINE
8
Layer 1
10
54.152481
20
98.220578
11
53.571037
21
97.711998
0
LINE
8
Layer 1
10
53.571037
20
97.711998
11
53.469150
21
97.392034
0
LINE
8
Layer 1
10
53.469150
20
97.392034
11
53.910983
21
97.155612
0
LINE
8
Layer 1
10
53.910983
20
97.155612
11
54.960696
21
96.897660
0
LINE
8
Layer 1
10
54.960696
20
96.897660
11
56.521154
21
96.849340
0
LINE
8
Layer 1
10
56.521154
20
96.849340
11
58.925568
21
97.028893
0
LINE
8
Layer 1
10
58.925568
20
97.028893
11
61.350090
21
97.350792
0
LINE
8
Layer 1
10
61.350090
20
97.350792
11
62.970873
21
97.729511
0
LINE
8
Layer 1
10
62.970873
20
97.729511
11
64.029207
21
98.153902
0
LINE
8
Layer 1
10
64.029207
20
98.153902
11
62.815651
21
98.578294
0
LINE
8
Layer 1
10
62.815651
20
98.578294
11
61.942200
21
98.957972
0
LINE
8
Layer 1
10
61.942200
20
98.957972
11
61.541990
21
99.348497
0
LINE
8
Layer 1
10
61.541990
20
99.348497
11
61.594813
21
99.798686
0
LINE
8
Layer 1
10
61.594813
20
99.798686
11
62.080461
21
100.357354
0
LINE
8
Layer 1
10
62.080461
20
100.357354
11
62.794484
21
101.248824
0
LINE
8
Layer 1
10
62.794484
20
101.248824
11
62.014712
21
101.371811
0
LINE
8
Layer 1
10
62.014712
20
101.371811
11
60.139830
21
101.323613
0
LINE
8
Layer 1
10
60.139830
20
101.323613
11
57.825198
21
101.322747
0
LINE
8
Layer 1
10
57.825198
20
101.322747
11
55.251473
21
101.540792
0
LINE
8
Layer 1
10
55.251473
20
101.540792
11
52.903305
21
101.918975
0
LINE
8
Layer 1
10
52.903305
20
101.918975
11
51.265346
21
102.398527
0
LINE
8
Layer 1
10
51.265346
20
102.398527
11
50.659009
21
102.809514
0
LINE
8
Layer 1
10
50.659009
20
102.809514
11
50.986652
21
103.375017
0
LINE
8
Layer 1
10
50.986652
20
103.375017
11
51.253352
21
103.707488
0
LINE
8
Layer 1
10
51.253352
20
103.707488
11
51.279281
21
103.915737
0
LINE
8
Layer 1
10
51.279281
20
103.915737
11
50.459601
21
104.190287
0
LINE
8
Layer 1
10
50.459601
20
104.190287
11
49.630275
21
104.453261
0
LINE
8
Layer 1
10
49.630275
20
104.453261
11
49.472510
21
104.612388
0
LINE
8
Layer 1
10
49.472510
20
104.612388
11
49.488668
21
104.794948
0
LINE
8
Layer 1
10
49.488668
20
104.794948
11
50.050721
21
105.245380
0
LINE
8
Layer 1
10
50.050721
20
105.245380
11
51.332374
21
105.834585
0
LINE
8
Layer 1
10
51.332374
20
105.834585
11
53.430565
21
107.025475
0
LINE
8
Layer 1
10
53.430565
20
107.025475
11
55.778788
21
108.867770
0
LINE
8
Layer 1
10
55.778788
20
108.867770
11
58.075918
21
110.641130
0
LINE
8
Layer 1
10
58.075918
20
110.641130
11
59.134672
21
111.233804
0
LINE
8
Layer 1
10
59.134672
20
111.233804
11
60.131848
21
111.629934
0
LINE
8
Layer 1
10
60.131848
20
111.629934
11
61.066169
21
111.829114
0
LINE
8
Layer 1
10
61.066169
20
111.829114
11
61.936357
21
111.830940
0
LINE
8
Layer 1
10
61.936357
20
111.830940
11
62.741135
21
111.635006
0
LINE
8
Layer 1
10
62.741135
20
111.635006
11
63.479226
21
111.240908
0
LINE
8
Layer 1
10
63.479226
20
111.240908
11
64.070543
21
110.959093
0
LINE
8
Layer 1
10
64.070543
20
110.959093
11
64.977871
21
110.749047
0
LINE
8
Layer 1
10
64.977871
20
110.749047
11
68.055815
21
110.492666
0
LINE
8
Layer 1
10
68.055815
20
110.492666
11
70.817670
21
110.280955
0
LINE
8
Layer 1
10
70.817670
20
110.280955
11
72.214009
21
109.994896
0
LINE
8
Layer 1
10
72.214009
20
109.994896
11
72.582839
21
109.291942
0
LINE
8
Layer 1
10
72.582839
20
109.291942
11
72.874410
21
108.077548
0
LINE
8
Layer 1
10
72.874410
20
108.077548
11
72.928032
21
106.644563
0
LINE
8
Layer 1
10
72.928032
20
106.644563
11
72.735007
21
106.169371
0
LINE
8
Layer 1
10
72.735007
20
106.169371
11
72.362529
21
105.702646
0
LINE
8
Layer 1
10
72.362529
20
105.702646
11
71.833847
21
104.970411
0
LINE
8
Layer 1
10
71.833847
20
104.970411
11
71.613934
21
104.328929
0
LINE
8
Layer 1
10
71.613934
20
104.328929
11
71.323713
21
103.711777
0
LINE
8
Layer 1
10
71.323713
20
103.711777
11
70.464010
21
102.923902
0
LINE
8
Layer 1
10
70.464010
20
102.923902
11
69.051261
21
101.977939
0
LINE
8
Layer 1
10
69.051261
20
101.977939
11
67.101903
21
100.886521
0
LINE
8
Layer 1
10
67.101903
20
100.886521
11
65.675556
21
100.033548
0
LINE
8
Layer 1
10
65.675556
20
100.033548
11
65.342134
21
99.713779
0
LINE
8
Layer 1
10
65.342134
20
99.713779
11
65.264283
21
99.454154
0
LINE
8
Layer 1
10
65.264283
20
99.454154
11
65.443805
21
99.246420
0
LINE
8
Layer 1
10
65.443805
20
99.246420
11
65.882504
21
99.082326
0
LINE
8
Layer 1
10
65.882504
20
99.082326
11
67.544640
21
98.852050
0
LINE
8
Layer 1
10
67.544640
20
98.852050
11
68.923649
21
98.667680
0
LINE
8
Layer 1
10
68.923649
20
98.667680
11
69.497266
21
98.451294
0
LINE
8
Layer 1
10
69.497266
20
98.451294
11
69.005097
21
98.028887
0
LINE
8
Layer 1
10
69.005097
20
98.028887
11
67.821570
21
97.348510
0
LINE
8
Layer 1
10
67.821570
20
97.348510
11
66.145875
21
96.484557
0
LINE
8
Layer 1
10
66.145875
20
96.484557
11
67.770418
21
96.537474
0
LINE
8
Layer 1
10
67.770418
20
96.537474
11
69.513725
21
96.757684
0
LINE
8
Layer 1
10
69.513725
20
96.757684
11
70.827680
21
97.385552
0
LINE
8
Layer 1
10
70.827680
20
97.385552
11
71.907346
21
98.568780
0
LINE
8
Layer 1
10
71.907346
20
98.568780
11
72.947788
21
100.455073
0
LINE
8
Layer 1
10
72.947788
20
100.455073
11
73.653278
21
102.125836
0
LINE
8
Layer 1
10
73.653278
20
102.125836
11
74.134671
21
103.694639
0
LINE
8
Layer 1
10
74.134671
20
103.694639
11
74.392035
21
105.160395
0
LINE
8
Layer 1
10
74.392035
20
105.160395
11
74.425442
21
106.522017
0
LINE
8
Layer 1
10
74.425442
20
106.522017
11
74.234962
21
107.778417
0
LINE
8
Layer 1
10
74.234962
20
107.778417
11
73.820665
21
108.928509
0
LINE
8
Layer 1
10
73.820665
20
108.928509
11
73.182621
21
109.971204
0
LINE
8
Layer 1
10
73.182621
20
109.971204
11
72.320901
21
110.905416
0
LINE
8
Layer 1
10
72.320901
20
110.905416
11
70.836488
21
111.952544
0
LINE
8
Layer 1
10
70.836488
20
111.952544
11
68.968099
21
112.708597
0
LINE
8
Layer 1
10
68.968099
20
112.708597
11
66.591709
21
113.210319
0
LINE
8
Layer 1
10
66.591709
20
113.210319
11
63.583296
21
113.494454
0
LINE
8
Layer 1
10
63.583296
20
113.494454
11
59.962382
21
113.696243
0
LINE
8
Layer 1
10
59.962382
20
113.696243
11
60.055516
21
112.851340
0
LINE
8
Layer 1
10
60.055516
20
112.851340
11
60.063420
21
112.391102
0
LINE
8
Layer 1
10
60.063420
20
112.391102
11
59.887770
21
112.133833
0
LINE
8
Layer 1
10
59.887770
20
112.133833
11
58.561148
21
111.980683
0
LINE
8
Layer 1
10
58.561148
20
111.980683
11
56.921789
21
111.714336
0
LINE
8
Layer 1
10
56.921789
20
111.714336
11
55.194588
21
111.041588
0
LINE
8
Layer 1
10
55.194588
20
111.041588
11
53.346560
21
110.224819
0
LINE
8
Layer 1
10
53.346560
20
110.224819
11
51.401166
21
109.542987
0
LINE
8
Layer 1
10
51.401166
20
109.542987
11
50.258380
21
109.181230
0
LINE
8
Layer 1
10
50.258380
20
109.181230
11
49.610861
21
108.823805
0
LINE
8
Layer 1
10
49.610861
20
108.823805
11
49.257097
21
108.291689
0
LINE
8
Layer 1
10
49.257097
20
108.291689
11
48.995573
21
107.405858
0
LINE
8
Layer 1
10
48.995573
20
107.405858
11
48.576974
21
106.120462
0
LINE
8
Layer 1
10
48.576974
20
106.120462
11
48.121962
21
105.459714
0
LINE
8
Layer 1
10
48.121962
20
105.459714
11
47.878641
21
105.362002
0
LINE
8
Layer 1
10
47.878641
20
105.362002
11
47.623624
21
105.418555
0
LINE
8
Layer 1
10
47.623624
20
105.418555
11
47.075049
21
105.991924
0
LINE
8
Layer 1
10
47.075049
20
105.991924
11
46.758695
21
106.537903
0
LINE
8
Layer 1
10
46.758695
20
106.537903
11
46.680731
21
107.005896
0
LINE
8
Layer 1
10
46.680731
20
107.005896
11
47.319877
21
108.540040
0
LINE
8
Layer 1
10
47.319877
20
108.540040
11
47.826869
21
109.389535
0
LINE
8
Layer 1
10
47.826869
20
109.389535
11
48.425968
21
110.084281
0
LINE
8
Layer 1
10
48.425968
20
110.084281
11
50.274746
21
111.367908
0
LINE
8
Layer 1
10
50.274746
20
111.367908
11
51.541924
21
112.170213
0
LINE
8
Layer 1
10
51.541924
20
112.170213
11
51.664007
21
112.340252
0
LINE
8
Layer 1
10
51.664007
20
112.340252
11
51.417393
21
112.332756
0
LINE
8
Layer 1
10
51.417393
20
112.332756
11
50.730579
21
112.271020
0
LINE
8
Layer 1
10
50.730579
20
112.271020
11
50.447254
21
112.443175
0
LINE
8
Layer 1
10
50.447254
20
112.443175
11
50.665971
21
112.916592
0
LINE
8
Layer 1
10
50.665971
20
112.916592
11
51.368578
21
113.523823
0
LINE
8
Layer 1
10
51.368578
20
113.523823
11
54.504201
21
115.338424
0
LINE
8
Layer 1
10
54.504201
20
115.338424
11
56.396938
21
116.414568
0
LINE
8
Layer 1
10
56.396938
20
116.414568
11
57.857047
21
117.413156
0
LINE
8
Layer 1
10
57.857047
20
117.413156
11
58.730377
21
118.215224
0
LINE
8
Layer 1
10
58.730377
20
118.215224
11
58.898826
21
118.505388
0
LINE
8
Layer 1
10
58.898826
20
118.505388
11
58.862773
21
118.701810
0
LINE
8
Layer 1
10
58.862773
20
118.701810
11
58.116251
21
118.525730
0
LINE
8
Layer 1
10
58.116251
20
118.525730
11
56.588413
21
117.835034
0
LINE
8
Layer 1
10
56.588413
20
117.835034
11
54.857420
21
117.092084
0
LINE
8
Layer 1
10
54.857420
20
117.092084
11
53.622256
21
116.789400
0
LINE
8
Layer 1
10
53.622256
20
116.789400
11
53.187815
21
116.837792
0
LINE
8
Layer 1
10
53.187815
20
116.837792
11
53.147637
21
117.043974
0
LINE
8
Layer 1
10
53.147637
20
117.043974
11
54.504201
21
118.391012
0
LINE
8
Layer 1
10
54.504201
20
118.391012
11
56.268091
21
119.980630
0
LINE
8
Layer 1
10
56.268091
20
119.980630
11
54.504201
21
119.759791
0
LINE
8
Layer 1
10
54.504201
20
119.759791
11
53.005793
21
119.698694
0
LINE
8
Layer 1
10
53.005793
20
119.698694
11
52.476968
21
119.812724
0
LINE
8
Layer 1
10
52.476968
20
119.812724
11
52.074751
21
120.040161
0
LINE
8
Layer 1
10
52.074751
20
120.040161
11
51.783907
21
120.393772
0
LINE
8
Layer 1
10
51.783907
20
120.393772
11
51.589202
21
120.886322
0
LINE
8
Layer 1
10
51.589202
20
120.886322
11
51.427271
21
122.339304
0
LINE
8
Layer 1
10
51.427271
20
122.339304
11
51.534207
21
123.910974
0
LINE
8
Layer 1
10
51.534207
20
123.910974
11
51.735594
21
124.365898
0
LINE
8
Layer 1
10
51.735594
20
124.365898
11
52.062624
21
124.700800
0
LINE
8
Layer 1
10
52.062624
20
124.700800
11
52.539977
21
125.145168
0
LINE
8
Layer 1
10
52.539977
20
125.145168
11
51.946560
21
125.224675
0
LINE
8
Layer 1
10
51.946560
20
125.224675
11
51.386040
21
125.319308
0
LINE
8
Layer 1
10
51.386040
20
125.319308
11
51.152810
21
125.530886
0
LINE
8
Layer 1
10
51.152810
20
125.530886
11
52.884950
21
127.984105
0
LINE
8
Layer 1
10
52.884950
20
127.984105
11
54.644926
21
130.275078
0
LINE
8
Layer 1
10
54.644926
20
130.275078
11
55.034290
21
130.907947
0
LINE
8
Layer 1
10
55.034290
20
130.907947
11
55.087343
21
131.209995
0
LINE
8
Layer 1
10
55.087343
20
131.209995
11
54.797165
21
131.189417
0
LINE
8
Layer 1
10
54.797165
20
131.189417
11
54.156836
21
130.854406
0
LINE
8
Layer 1
10
54.156836
20
130.854406
11
51.798041
21
129.273861
0
LINE
8
Layer 1
10
51.798041
20
129.273861
11
49.244016
21
127.615413
0
LINE
8
Layer 1
10
49.244016
20
127.615413
11
47.038184
21
126.434307
0
LINE
8
Layer 1
10
47.038184
20
126.434307
11
45.418668
21
125.841039
0
LINE
8
Layer 1
10
45.418668
20
125.841039
11
44.903193
21
125.799375
0
LINE
8
Layer 1
10
44.903193
20
125.799375
11
44.623595
21
125.946106
0
LINE
8
Layer 1
10
44.623595
20
125.946106
11
44.775289
21
126.479903
0
LINE
8
Layer 1
10
44.775289
20
126.479903
11
45.390534
21
127.357924
0
LINE
8
Layer 1
10
45.390534
20
127.357924
11
46.335626
21
128.481169
0
LINE
8
Layer 1
10
46.335626
20
128.481169
11
43.805503
21
127.206935
0
LINE
8
Layer 1
10
43.805503
20
127.206935
11
41.957778
21
126.420091
0
LINE
8
Layer 1
10
41.957778
20
126.420091
11
41.455586
21
126.328941
0
LINE
8
Layer 1
10
41.455586
20
126.328941
11
41.239528
21
126.426105
0
LINE
8
Layer 1
10
41.239528
20
126.426105
11
41.313371
21
126.701680
0
LINE
8
Layer 1
10
41.313371
20
126.701680
11
41.680881
21
127.145766
0
LINE
8
Layer 1
10
41.680881
20
127.145766
11
43.311966
21
128.499866
0
LINE
8
Layer 1
10
43.311966
20
128.499866
11
45.249616
21
129.811539
0
LINE
8
Layer 1
10
45.249616
20
129.811539
11
46.873040
21
130.688765
0
LINE
8
Layer 1
10
46.873040
20
130.688765
11
48.054278
21
131.073999
0
LINE
8
Layer 1
10
48.054278
20
131.073999
11
48.439091
21
131.064135
0
LINE
8
Layer 1
10
48.439091
20
131.064135
11
48.665372
21
130.909693
0
LINE
8
Layer 1
10
48.665372
20
130.909693
11
49.079087
21
130.654408
0
LINE
8
Layer 1
10
49.079087
20
130.654408
11
49.795453
21
130.970062
0
LINE
8
Layer 1
10
49.795453
20
130.970062
11
50.965512
21
131.961263
0
LINE
8
Layer 1
10
50.965512
20
131.961263
11
52.740311
21
133.732622
0
LINE
8
Layer 1
10
52.740311
20
133.732622
11
55.209757
21
136.281796
0
LINE
8
Layer 1
10
55.209757
20
136.281796
11
53.559462
21
135.345170
0
LINE
8
Layer 1
10
53.559462
20
135.345170
11
52.305661
21
134.685172
0
LINE
8
Layer 1
10
52.305661
20
134.685172
11
51.571072
21
134.463887
0
LINE
8
Layer 1
10
51.571072
20
134.463887
11
51.247713
21
134.680950
0
LINE
8
Layer 1
10
51.247713
20
134.680950
11
51.227599
21
135.335998
0
LINE
8
Layer 1
10
51.227599
20
135.335998
11
51.253804
21
135.837808
0
LINE
8
Layer 1
10
51.253804
20
135.837808
11
51.087722
21
135.945554
0
LINE
8
Layer 1
10
51.087722
20
135.945554
11
49.605878
21
134.784253
0
LINE
8
Layer 1
10
49.605878
20
134.784253
11
48.069519
21
133.651726
0
LINE
8
Layer 1
10
48.069519
20
133.651726
11
47.683750
21
133.537718
0
LINE
8
Layer 1
10
47.683750
20
133.537718
11
47.553063
21
133.711014
0
LINE
8
Layer 1
10
47.553063
20
133.711014
11
48.057370
21
134.876924
0
LINE
8
Layer 1
10
48.057370
20
134.876924
11
49.583301
21
137.064258
0
LINE
8
Layer 1
10
49.583301
20
137.064258
11
52.418754
21
141.010344
0
LINE
8
Layer 1
10
52.418754
20
141.010344
11
53.097929
21
142.170554
0
LINE
8
Layer 1
10
53.097929
20
142.170554
11
53.220089
21
142.688950
0
LINE
8
Layer 1
10
53.220089
20
142.688950
11
52.564319
21
142.321399
0
LINE
8
Layer 1
10
52.564319
20
142.321399
11
51.179621
21
141.245030
0
LINE
8
Layer 1
10
51.179621
20
141.245030
11
48.673442
21
139.352861
0
LINE
8
Layer 1
10
48.673442
20
139.352861
11
48.138614
21
139.177161
0
LINE
8
Layer 1
10
48.138614
20
139.177161
11
47.977808
21
139.456445
0
LINE
8
Layer 1
10
47.977808
20
139.456445
11
48.183919
21
139.986803
0
LINE
8
Layer 1
10
48.183919
20
139.986803
11
48.679483
21
140.578279
0
LINE
8
Layer 1
10
48.679483
20
140.578279
11
50.349975
21
142.737281
0
LINE
8
Layer 1
10
50.349975
20
142.737281
11
51.505588
21
144.718482
0
LINE
8
Layer 1
10
51.505588
20
144.718482
11
51.324304
21
144.841601
0
LINE
8
Layer 1
10
51.324304
20
144.841601
11
50.888226
21
144.864179
0
LINE
8
Layer 1
10
50.888226
20
144.864179
11
50.582065
21
144.903189
0
LINE
8
Layer 1
10
50.582065
20
144.903189
11
50.393147
21
145.116460
0
LINE
8
Layer 1
10
50.393147
20
145.116460
11
50.270865
21
146.287638
0
LINE
8
Layer 1
10
50.270865
20
146.287638
11
50.165384
21
147.462742
0
LINE
8
Layer 1
10
50.165384
20
147.462742
11
49.969041
21
147.548511
0
LINE
8
Layer 1
10
49.969041
20
147.548511
11
49.619637
21
147.397478
0
LINE
8
Layer 1
10
49.619637
20
147.397478
11
48.910073
21
147.204343
0
LINE
8
Layer 1
10
48.910073
20
147.204343
11
48.673530
21
147.362863
0
LINE
8
Layer 1
10
48.673530
20
147.362863
11
48.507460
21
147.720623
0
LINE
8
Layer 1
10
48.507460
20
147.720623
11
48.361691
21
149.121405
0
LINE
8
Layer 1
10
48.361691
20
149.121405
11
48.422661
21
151.581778
0
LINE
8
Layer 1
10
48.422661
20
151.581778
11
48.780510
21
155.200089
0
LINE
8
Layer 1
10
48.780510
20
155.200089
11
49.527562
21
158.370990
0
LINE
8
Layer 1
10
49.527562
20
158.370990
11
50.173675
21
160.685435
0
LINE
8
Layer 1
10
50.173675
20
160.685435
11
50.435612
21
162.075159
0
LINE
8
Layer 1
10
50.435612
20
162.075159
11
50.338246
21
162.606223
0
LINE
8
Layer 1
10
50.338246
20
162.606223
11
49.761454
21
162.013070
0
LINE
8
Layer 1
10
49.761454
20
162.013070
11
49.240819
21
161.503025
0
LINE
8
Layer 1
10
49.240819
20
161.503025
11
48.781965
21
161.252437
0
LINE
8
Layer 1
10
48.781965
20
161.252437
11
48.455139
21
161.281183
0
LINE
8
Layer 1
10
48.455139
20
161.281183
11
48.330586
21
161.609140
0
LINE
8
Layer 1
10
48.330586
20
161.609140
11
48.825269
21
162.925266
0
LINE
8
Layer 1
10
48.825269
20
162.925266
11
50.486765
21
166.212540
0
LINE
8
Layer 1
10
50.486765
20
166.212540
11
50.573157
21
166.524947
0
LINE
8
Layer 1
10
50.573157
20
166.524947
11
50.272761
21
166.423942
0
LINE
8
Layer 1
10
50.272761
20
166.423942
11
48.364100
21
164.889622
0
LINE
8
Layer 1
10
48.364100
20
164.889622
11
46.431582
21
163.294096
0
LINE
8
Layer 1
10
46.431582
20
163.294096
11
45.453681
21
162.630432
0
LINE
8
Layer 1
10
45.453681
20
162.630432
11
45.172705
21
162.863299
0
LINE
8
Layer 1
10
45.172705
20
162.863299
11
45.247130
21
163.515993
0
LINE
8
Layer 1
10
45.247130
20
163.515993
11
45.656782
21
164.519657
0
LINE
8
Layer 1
10
45.656782
20
164.519657
11
46.381488
21
165.805434
0
LINE
8
Layer 1
10
46.381488
20
165.805434
11
47.163376
21
167.199304
0
LINE
8
Layer 1
10
47.163376
20
167.199304
11
47.343866
21
167.826146
0
LINE
8
Layer 1
10
47.343866
20
167.826146
11
45.004242
21
166.826374
0
LINE
8
Layer 1
10
51.683035
20
35.229243
11
52.648269
21
34.218920
0
LINE
8
Layer 1
10
52.648269
20
34.218920
11
53.571897
21
32.967760
0
LINE
8
Layer 1
10
53.571897
20
32.967760
11
54.341405
21
31.646750
0
LINE
8
Layer 1
10
54.341405
20
31.646750
11
54.844279
21
30.426876
0
LINE
8
Layer 1
10
54.844279
20
30.426876
11
54.878454
21
29.777192
0
LINE
8
Layer 1
10
54.878454
20
29.777192
11
54.202223
21
29.633126
0
LINE
8
Layer 1
10
54.202223
20
29.633126
11
53.206496
21
29.901557
0
LINE
8
Layer 1
10
53.206496
20
29.901557
11
52.163607
21
30.653977
0
LINE
8
Layer 1
10
52.163607
20
30.653977
11
51.158686
21
31.811078
0
LINE
8
Layer 1
10
51.158686
20
31.811078
11
50.276862
21
33.293551
0
LINE
8
Layer 1
10
50.276862
20
33.293551
11
49.791511
21
34.494456
0
LINE
8
Layer 1
10
49.791511
20
34.494456
11
49.600543
21
35.459652
0
LINE
8
Layer 1
10
49.600543
20
35.459652
11
49.708487
21
36.102386
0
LINE
8
Layer 1
10
49.708487
20
36.102386
11
50.119876
21
36.335908
0
LINE
8
Layer 1
10
50.119876
20
36.335908
11
51.683035
21
35.229243
0
LINE
8
Layer 1
10
34.347524
20
81.182811
11
35.122109
21
79.073612
0
LINE
8
Layer 1
10
35.122109
20
79.073612
11
35.218101
21
78.412802
0
LINE
8
Layer 1
10
35.218101
20
78.412802
11
35.127913
21
78.025492
0
LINE
8
Layer 1
10
35.127913
20
78.025492
11
34.857561
21
77.919914
0
LINE
8
Layer 1
10
34.857561
20
77.919914
11
34.413058
21
78.104300
0
LINE
8
Layer 1
10
34.413058
20
78.104300
11
33.025665
21
79.375882
0
LINE
8
Layer 1
10
33.025665
20
79.375882
11
32.237102
21
80.416616
0
LINE
8
Layer 1
10
32.237102
20
80.416616
11
31.827322
21
81.359421
0
LINE
8
Layer 1
10
31.827322
20
81.359421
11
31.803637
21
82.174498
0
LINE
8
Layer 1
10
31.803637
20
82.174498
11
32.173354
21
82.832048
0
LINE
8
Layer 1
10
32.173354
20
82.832048
11
32.711357
21
83.197251
0
LINE
8
Layer 1
10
32.711357
20
83.197251
11
33.202892
21
83.082168
0
LINE
8
Layer 1
10
33.202892
20
83.082168
11
33.723201
21
82.429716
0
LINE
8
Layer 1
10
33.723201
20
82.429716
11
34.347524
21
81.182811
0
LINE
8
Layer 1
10
89.175223
20
31.693350
11
88.662273
21
31.126672
0
LINE
8
Layer 1
10
88.662273
20
31.126672
11
87.661364
21
30.573059
0
LINE
8
Layer 1
10
87.661364
20
30.573059
11
86.446011
21
30.152729
0
LINE
8
Layer 1
10
86.446011
20
30.152729
11
85.289726
21
29.985904
0
LINE
8
Layer 1
10
85.289726
20
29.985904
11
84.285725
21
30.074523
0
LINE
8
Layer 1
10
84.285725
20
30.074523
11
84.068634
21
30.183492
0
LINE
8
Layer 1
10
84.068634
20
30.183492
11
84.040848
21
30.333964
0
LINE
8
Layer 1
10
84.040848
20
30.333964
11
84.551290
21
30.754602
0
LINE
8
Layer 1
10
84.551290
20
30.754602
11
85.813249
21
31.326813
0
LINE
8
Layer 1
10
85.813249
20
31.326813
11
87.248741
21
31.818365
0
LINE
8
Layer 1
10
87.248741
20
31.818365
11
88.354794
21
32.050625
0
LINE
8
Layer 1
10
88.354794
20
32.050625
11
89.030567
21
32.012614
0
LINE
8
Layer 1
10
89.030567
20
32.012614
11
89.175587
21
31.888824
0
LINE
8
Layer 1
10
89.175587
20
31.888824
11
89.175223
21
31.693350
0
LINE
8
Layer 1
10
45.861140
20
98.467875
11
45.722085
21
98.104012
0
LINE
8
Layer 1
10
45.722085
20
98.104012
11
45.335809
21
97.746664
0
LINE
8
Layer 1
10
45.335809
20
97.746664
11
44.006939
21
97.180235
0
LINE
8
Layer 1
10
44.006939
20
97.180235
11
43.322781
21
97.109795
0
LINE
8
Layer 1
10
43.322781
20
97.109795
11
43.056731
21
97.303046
0
LINE
8
Layer 1
10
43.056731
20
97.303046
11
43.219836
21
97.696917
0
LINE
8
Layer 1
10
43.219836
20
97.696917
11
43.823141
21
98.228339
0
LINE
8
Layer 1
10
43.823141
20
98.228339
11
44.500999
21
98.587434
0
LINE
8
Layer 1
10
44.500999
20
98.587434
11
45.161625
21
98.758211
0
LINE
8
Layer 1
10
45.161625
20
98.758211
11
45.662509
21
98.723937
0
LINE
8
Layer 1
10
45.662509
20
98.723937
11
45.861140
21
98.467875
0
LINE
8
Layer 1
10
48.683364
20
102.129005
11
48.579735
21
101.256982
0
LINE
8
Layer 1
10
48.579735
20
101.256982
11
48.330586
21
100.894282
0
LINE
8
Layer 1
10
48.330586
20
100.894282
11
48.081437
21
101.256982
0
LINE
8
Layer 1
10
48.081437
20
101.256982
11
47.977808
21
102.129005
0
LINE
8
Layer 1
10
47.977808
20
102.129005
11
48.081437
21
103.001028
0
LINE
8
Layer 1
10
48.081437
20
103.001028
11
48.330586
21
103.363728
0
LINE
8
Layer 1
10
48.330586
20
103.363728
11
48.579735
21
103.001028
0
LINE
8
Layer 1
10
48.579735
20
103.001028
11
48.683364
21
102.129005
0
LINE
8
Layer 1
10
124.820618
20
136.169965
11
125.856401
21
134.422375
0
LINE
8
Layer 1
10
125.856401
20
134.422375
11
126.715344
21
132.602718
0
LINE
8
Layer 1
10
126.715344
20
132.602718
11
127.330010
21
130.873616
0
LINE
8
Layer 1
10
127.330010
20
130.873616
11
127.632964
21
129.397686
0
LINE
8
Layer 1
10
127.632964
20
129.397686
11
127.660050
21
128.203808
0
LINE
8
Layer 1
10
127.660050
20
128.203808
11
127.572304
21
127.890019
0
LINE
8
Layer 1
10
127.572304
20
127.890019
11
127.409655
21
127.763795
0
LINE
8
Layer 1
10
127.409655
20
127.763795
11
126.837527
21
128.070436
0
LINE
8
Layer 1
10
126.837527
20
128.070436
11
125.899413
21
129.116522
0
LINE
8
Layer 1
10
125.899413
20
129.116522
11
125.056229
21
130.070434
0
LINE
8
Layer 1
10
125.056229
20
130.070434
11
124.621298
21
130.382995
0
LINE
8
Layer 1
10
124.621298
20
130.382995
11
125.013499
21
128.361268
0
LINE
8
Layer 1
10
125.013499
20
128.361268
11
126.561930
21
122.590129
0
LINE
8
Layer 1
10
126.561930
20
122.590129
11
126.633411
21
122.064049
0
LINE
8
Layer 1
10
126.633411
20
122.064049
11
125.997132
21
122.556615
0
LINE
8
Layer 1
10
125.997132
20
122.556615
11
125.334615
21
123.042479
0
LINE
8
Layer 1
10
125.334615
20
123.042479
11
125.236190
21
122.461012
0
LINE
8
Layer 1
10
125.236190
20
122.461012
11
124.971827
21
121.519271
0
LINE
8
Layer 1
10
124.971827
20
121.519271
11
124.336253
21
120.333055
0
LINE
8
Layer 1
10
124.336253
20
120.333055
11
123.875244
21
119.563349
0
LINE
8
Layer 1
10
123.875244
20
119.563349
11
123.635328
21
118.902717
0
LINE
8
Layer 1
10
123.635328
20
118.902717
11
123.579363
21
118.176733
0
LINE
8
Layer 1
10
123.579363
20
118.176733
11
123.670208
21
117.210970
0
LINE
8
Layer 1
10
123.670208
20
117.210970
11
123.750829
21
116.075736
0
LINE
8
Layer 1
10
123.750829
20
116.075736
11
123.619056
21
115.384241
0
LINE
8
Layer 1
10
123.619056
20
115.384241
11
123.258946
21
115.104902
0
LINE
8
Layer 1
10
123.258946
20
115.104902
11
122.654561
21
115.206133
0
LINE
8
Layer 1
10
122.654561
20
115.206133
11
122.242780
21
115.524526
0
LINE
8
Layer 1
10
122.242780
20
115.524526
11
121.844230
21
116.197262
0
LINE
8
Layer 1
10
121.844230
20
116.197262
11
120.957698
21
118.885960
0
LINE
8
Layer 1
10
120.957698
20
118.885960
11
120.526956
21
120.473461
0
LINE
8
Layer 1
10
120.526956
20
120.473461
11
120.197109
21
118.795649
0
LINE
8
Layer 1
10
120.197109
20
118.795649
11
120.073565
21
117.340208
0
LINE
8
Layer 1
10
120.073565
20
117.340208
11
120.154908
21
115.532541
0
LINE
8
Layer 1
10
120.154908
20
115.532541
11
120.416631
21
113.637164
0
LINE
8
Layer 1
10
120.416631
20
113.637164
11
120.834226
21
111.918594
0
LINE
8
Layer 1
10
120.834226
20
111.918594
11
120.907516
21
111.298146
0
LINE
8
Layer 1
10
120.907516
20
111.298146
11
120.523076
21
111.124844
0
LINE
8
Layer 1
10
120.523076
20
111.124844
11
120.012772
21
111.324070
0
LINE
8
Layer 1
10
120.012772
20
111.324070
11
119.481234
21
111.892621
0
LINE
8
Layer 1
10
119.481234
20
111.892621
11
118.959884
21
112.786809
0
LINE
8
Layer 1
10
118.959884
20
112.786809
11
118.480139
21
113.962943
0
LINE
8
Layer 1
10
118.480139
20
113.962943
11
117.189677
21
116.507884
0
LINE
8
Layer 1
10
117.189677
20
116.507884
11
116.318668
21
117.833976
0
LINE
8
Layer 1
10
116.318668
20
117.833976
11
115.856176
21
116.942859
0
LINE
8
Layer 1
10
115.856176
20
116.942859
11
115.641251
21
116.432609
0
LINE
8
Layer 1
10
115.641251
20
116.432609
11
115.577172
21
115.943791
0
LINE
8
Layer 1
10
115.577172
20
115.943791
11
115.912267
21
114.582774
0
LINE
8
Layer 1
10
115.912267
20
114.582774
11
116.205602
21
113.412918
0
LINE
8
Layer 1
10
116.205602
20
113.412918
11
116.095712
21
112.779373
0
LINE
8
Layer 1
10
116.095712
20
112.779373
11
115.744158
21
112.689040
0
LINE
8
Layer 1
10
115.744158
20
112.689040
11
115.029264
21
112.731660
0
LINE
8
Layer 1
10
115.029264
20
112.731660
11
112.649424
21
113.198826
0
LINE
8
Layer 1
10
112.649424
20
113.198826
11
109.595755
21
113.868481
0
LINE
8
Layer 1
10
109.595755
20
113.868481
11
106.657578
21
114.336755
0
LINE
8
Layer 1
10
106.657578
20
114.336755
11
103.415526
21
114.657194
0
LINE
8
Layer 1
10
103.415526
20
114.657194
11
99.450235
21
114.883341
0
LINE
8
Layer 1
10
99.450235
20
114.883341
11
94.951478
21
114.981149
0
LINE
8
Layer 1
10
94.951478
20
114.981149
11
94.309063
21
114.781245
0
LINE
8
Layer 1
10
94.309063
20
114.781245
11
94.103179
21
114.352410
0
LINE
8
Layer 1
10
94.103179
20
114.352410
11
93.949347
21
114.030514
0
LINE
8
Layer 1
10
93.949347
20
114.030514
11
93.660387
21
113.798262
0
LINE
8
Layer 1
10
93.660387
20
113.798262
11
92.561362
21
113.601169
0
LINE
8
Layer 1
10
92.561362
20
113.601169
11
90.574660
21
113.758089
0
LINE
8
Layer 1
10
90.574660
20
113.758089
11
87.468836
21
114.265979
0
LINE
8
Layer 1
10
87.468836
20
114.265979
11
82.712947
21
114.949266
0
LINE
8
Layer 1
10
82.712947
20
114.949266
11
79.022272
21
115.020571
0
LINE
8
Layer 1
10
79.022272
20
115.020571
11
78.100243
21
114.915664
0
LINE
8
Layer 1
10
78.100243
20
114.915664
11
78.696658
21
114.669205
0
LINE
8
Layer 1
10
78.696658
20
114.669205
11
82.665410
21
114.138626
0
LINE
8
Layer 1
10
82.665410
20
114.138626
11
84.486340
21
113.955000
0
LINE
8
Layer 1
10
84.486340
20
113.955000
11
85.429779
21
113.743295
0
LINE
8
Layer 1
10
85.429779
20
113.743295
11
85.620684
21
113.605322
0
LINE
8
Layer 1
10
85.620684
20
113.605322
11
85.650111
21
113.434421
0
LINE
8
Layer 1
10
85.650111
20
113.434421
11
85.301720
21
112.959290
0
LINE
8
Layer 1
10
85.301720
20
112.959290
11
85.149629
21
112.754287
0
LINE
8
Layer 1
10
85.149629
20
112.754287
11
85.201796
21
112.624195
0
LINE
8
Layer 1
10
85.201796
20
112.624195
11
86.007276
21
112.535956
0
LINE
8
Layer 1
10
86.007276
20
112.535956
11
86.897688
21
112.395991
0
LINE
8
Layer 1
10
86.897688
20
112.395991
11
87.082015
21
112.192163
0
LINE
8
Layer 1
10
87.082015
20
112.192163
11
87.136166
21
111.873439
0
LINE
8
Layer 1
10
87.136166
20
111.873439
11
86.974698
21
111.132798
0
LINE
8
Layer 1
10
86.974698
20
111.132798
11
86.433124
21
110.716107
0
LINE
8
Layer 1
10
86.433124
20
110.716107
11
85.425683
21
110.593566
0
LINE
8
Layer 1
10
85.425683
20
110.593566
11
83.866619
21
110.735377
0
LINE
8
Layer 1
10
83.866619
20
110.735377
11
82.328579
21
111.004839
0
LINE
8
Layer 1
10
82.328579
20
111.004839
11
81.133604
21
111.357810
0
LINE
8
Layer 1
10
81.133604
20
111.357810
11
80.104193
21
111.862850
0
LINE
8
Layer 1
10
80.104193
20
111.862850
11
79.062841
21
112.588520
0
LINE
8
Layer 1
10
79.062841
20
112.588520
11
78.317361
21
113.102291
0
LINE
8
Layer 1
10
78.317361
20
113.102291
11
77.959131
21
113.171794
0
LINE
8
Layer 1
10
77.959131
20
113.171794
11
77.975751
21
112.785618
0
LINE
8
Layer 1
10
77.975751
20
112.785618
11
78.354816
21
111.932353
0
LINE
8
Layer 1
10
78.354816
20
111.932353
11
78.767528
21
110.714718
0
LINE
8
Layer 1
10
78.767528
20
110.714718
11
78.999033
21
109.284489
0
LINE
8
Layer 1
10
78.999033
20
109.284489
11
79.007825
21
108.094371
0
LINE
8
Layer 1
10
79.007825
20
108.094371
11
78.915732
21
107.730822
0
LINE
8
Layer 1
10
78.915732
20
107.730822
11
78.752397
21
107.597064
0
LINE
8
Layer 1
10
78.752397
20
107.597064
11
78.371573
21
108.132272
0
LINE
8
Layer 1
10
78.371573
20
108.132272
11
77.835174
21
109.419162
0
LINE
8
Layer 1
10
77.835174
20
109.419162
11
76.831449
21
111.351664
0
LINE
8
Layer 1
10
76.831449
20
111.351664
11
75.345752
21
113.120818
0
LINE
8
Layer 1
10
75.345752
20
113.120818
11
73.595405
21
114.514197
0
LINE
8
Layer 1
10
73.595405
20
114.514197
11
72.688902
21
115.003588
0
LINE
8
Layer 1
10
72.688902
20
115.003588
11
71.797731
21
115.319374
0
LINE
8
Layer 1
10
71.797731
20
115.319374
11
69.828552
21
115.537226
0
LINE
8
Layer 1
10
69.828552
20
115.537226
11
67.287244
21
115.532629
0
LINE
8
Layer 1
10
67.287244
20
115.532629
11
65.145656
21
115.345469
0
LINE
8
Layer 1
10
65.145656
20
115.345469
11
64.528459
21
115.195892
0
LINE
8
Layer 1
10
64.528459
20
115.195892
11
64.375635
21
115.015633
0
LINE
8
Layer 1
10
64.375635
20
115.015633
11
65.102975
21
114.767674
0
LINE
8
Layer 1
10
65.102975
20
114.767674
11
66.625653
21
114.536913
0
LINE
8
Layer 1
10
66.625653
20
114.536913
11
68.641101
21
114.182073
0
LINE
8
Layer 1
10
68.641101
20
114.182073
11
70.641369
21
113.575681
0
LINE
8
Layer 1
10
70.641369
20
113.575681
11
72.423951
21
112.792150
0
LINE
8
Layer 1
10
72.423951
20
112.792150
11
73.786341
21
111.905894
0
LINE
8
Layer 1
10
73.786341
20
111.905894
11
74.767257
21
110.837231
0
LINE
8
Layer 1
10
74.767257
20
110.837231
11
75.524699
21
109.511590
0
LINE
8
Layer 1
10
75.524699
20
109.511590
11
76.014448
21
108.028523
0
LINE
8
Layer 1
10
76.014448
20
108.028523
11
76.192287
21
106.487577
0
LINE
8
Layer 1
10
76.192287
20
106.487577
11
76.069761
21
105.044644
0
LINE
8
Layer 1
10
76.069761
20
105.044644
11
75.716312
21
103.384586
0
LINE
8
Layer 1
10
75.716312
20
103.384586
11
74.476022
21
99.790263
0
LINE
8
Layer 1
10
74.476022
20
99.790263
11
72.790173
21
96.458936
0
LINE
8
Layer 1
10
72.790173
20
96.458936
11
71.879776
21
95.127624
0
LINE
8
Layer 1
10
71.879776
20
95.127624
11
70.977522
21
94.144933
0
LINE
8
Layer 1
10
70.977522
20
94.144933
11
70.104838
21
93.292269
0
LINE
8
Layer 1
10
70.104838
20
93.292269
11
70.185161
21
93.216841
0
LINE
8
Layer 1
10
70.185161
20
93.216841
11
70.582058
21
93.316963
0
LINE
8
Layer 1
10
70.582058
20
93.316963
11
71.641164
21
93.759887
0
LINE
8
Layer 1
10
71.641164
20
93.759887
11
72.548531
21
94.410575
0
LINE
8
Layer 1
10
72.548531
20
94.410575
11
73.406024
21
95.361565
0
LINE
8
Layer 1
10
73.406024
20
95.361565
11
74.315508
21
96.705396
0
LINE
8
Layer 1
10
74.315508
20
96.705396
11
75.662988
21
98.562243
0
LINE
8
Layer 1
10
75.662988
20
98.562243
11
76.057542
21
98.838997
0
LINE
8
Layer 1
10
76.057542
20
98.838997
11
76.200048
21
98.614631
0
LINE
8
Layer 1
10
76.200048
20
98.614631
11
75.935117
21
97.602736
0
LINE
8
Layer 1
10
75.935117
20
97.602736
11
75.295040
21
96.144523
0
LINE
8
Layer 1
10
75.295040
20
96.144523
11
74.511890
21
94.711511
0
LINE
8
Layer 1
10
74.511890
20
94.711511
11
73.817738
21
93.775222
0
LINE
8
Layer 1
10
73.817738
20
93.775222
11
72.660323
21
92.934508
0
LINE
8
Layer 1
10
72.660323
20
92.934508
11
71.121412
21
92.371606
0
LINE
8
Layer 1
10
71.121412
20
92.371606
11
68.836309
21
91.997221
0
LINE
8
Layer 1
10
68.836309
20
91.997221
11
65.440319
21
91.722054
0
LINE
8
Layer 1
10
65.440319
20
91.722054
11
62.079309
21
91.427137
0
LINE
8
Layer 1
10
62.079309
20
91.427137
11
59.650130
21
91.025362
0
LINE
8
Layer 1
10
59.650130
20
91.025362
11
58.175766
21
90.522052
0
LINE
8
Layer 1
10
58.175766
20
90.522052
11
57.803823
21
90.233986
0
LINE
8
Layer 1
10
57.803823
20
90.233986
11
57.679203
21
89.922533
0
LINE
8
Layer 1
10
57.679203
20
89.922533
11
57.902184
21
89.695418
0
LINE
8
Layer 1
10
57.902184
20
89.695418
11
58.522453
21
89.516436
0
LINE
8
Layer 1
10
58.522453
20
89.516436
11
60.662823
21
89.313506
0
LINE
8
Layer 1
10
60.662823
20
89.313506
11
63.516246
21
89.335009
0
LINE
8
Layer 1
10
63.516246
20
89.335009
11
66.498653
21
89.602211
0
LINE
8
Layer 1
10
66.498653
20
89.602211
11
68.791622
21
90.059206
0
LINE
8
Layer 1
10
68.791622
20
90.059206
11
70.821264
21
90.775253
0
LINE
8
Layer 1
10
70.821264
20
90.775253
11
72.622934
21
91.785533
0
LINE
8
Layer 1
10
72.622934
20
91.785533
11
74.231988
21
93.125228
0
LINE
8
Layer 1
10
74.231988
20
93.125228
11
75.683779
21
94.829520
0
LINE
8
Layer 1
10
75.683779
20
94.829520
11
77.013664
21
96.933588
0
LINE
8
Layer 1
10
77.013664
20
96.933588
11
78.256997
21
99.472616
0
LINE
8
Layer 1
10
78.256997
20
99.472616
11
79.449133
21
102.481783
0
LINE
8
Layer 1
10
79.449133
20
102.481783
11
80.340295
21
104.604448
0
LINE
8
Layer 1
10
80.340295
20
104.604448
11
81.048629
21
105.744979
0
LINE
8
Layer 1
10
81.048629
20
105.744979
11
81.903278
21
106.056350
0
LINE
8
Layer 1
10
81.903278
20
106.056350
11
83.146600
21
106.185952
0
LINE
8
Layer 1
10
83.146600
20
106.185952
11
84.249951
21
106.064712
0
LINE
8
Layer 1
10
84.249951
20
106.064712
11
85.132872
21
105.658417
0
LINE
8
Layer 1
10
85.132872
20
105.658417
11
85.885287
21
104.903202
0
LINE
8
Layer 1
10
85.885287
20
104.903202
11
86.597121
21
103.735203
0
LINE
8
Layer 1
10
86.597121
20
103.735203
11
86.988893
21
103.130967
0
LINE
8
Layer 1
10
86.988893
20
103.130967
11
87.387217
21
102.787978
0
LINE
8
Layer 1
10
87.387217
20
102.787978
11
87.773974
21
102.692680
0
LINE
8
Layer 1
10
87.773974
20
102.692680
11
88.131044
21
102.831518
0
LINE
8
Layer 1
10
88.131044
20
102.831518
11
88.440307
21
103.190936
0
LINE
8
Layer 1
10
88.440307
20
103.190936
11
88.683643
21
103.757379
0
LINE
8
Layer 1
10
88.683643
20
103.757379
11
88.900056
21
105.457113
0
LINE
8
Layer 1
10
88.900056
20
105.457113
11
88.924480
21
106.254374
0
LINE
8
Layer 1
10
88.924480
20
106.254374
11
89.053382
21
106.683766
0
LINE
8
Layer 1
10
89.053382
20
106.683766
11
89.370204
21
106.858430
0
LINE
8
Layer 1
10
89.370204
20
106.858430
11
89.958390
21
106.891508
0
LINE
8
Layer 1
10
89.958390
20
106.891508
11
90.752140
21
107.023800
0
LINE
8
Layer 1
10
90.752140
20
107.023800
11
91.016724
21
107.420675
0
LINE
8
Layer 1
10
91.016724
20
107.420675
11
91.244547
21
108.098891
0
LINE
8
Layer 1
10
91.244547
20
108.098891
11
91.830980
21
108.724190
0
LINE
8
Layer 1
10
91.830980
20
108.724190
11
92.630468
21
109.182801
0
LINE
8
Layer 1
10
92.630468
20
109.182801
11
93.497459
21
109.360954
0
LINE
8
Layer 1
10
93.497459
20
109.360954
11
94.730330
21
109.206889
0
LINE
8
Layer 1
10
94.730330
20
109.206889
11
95.863188
21
108.809738
0
LINE
8
Layer 1
10
95.863188
20
108.809738
11
96.692305
21
108.267067
0
LINE
8
Layer 1
10
96.692305
20
108.267067
11
97.013950
21
107.676439
0
LINE
8
Layer 1
10
97.013950
20
107.676439
11
96.795647
21
107.071072
0
LINE
8
Layer 1
10
96.795647
20
107.071072
11
96.275586
21
106.345319
0
LINE
8
Layer 1
10
96.275586
20
106.345319
11
95.656041
21
105.736116
0
LINE
8
Layer 1
10
95.656041
20
105.736116
11
95.139288
21
105.480396
0
LINE
8
Layer 1
10
95.139288
20
105.480396
11
94.968279
21
105.739467
0
LINE
8
Layer 1
10
94.968279
20
105.739467
11
94.897282
21
106.362341
0
LINE
8
Layer 1
10
94.897282
20
106.362341
11
94.819627
21
106.981555
0
LINE
8
Layer 1
10
94.819627
20
106.981555
11
94.632698
21
107.231939
0
LINE
8
Layer 1
10
94.632698
20
107.231939
11
93.451201
21
106.667891
0
LINE
8
Layer 1
10
93.451201
20
106.667891
11
91.536013
21
105.226749
0
LINE
8
Layer 1
10
91.536013
20
105.226749
11
90.177465
21
104.091509
0
LINE
8
Layer 1
10
90.177465
20
104.091509
11
92.182303
21
103.173581
0
LINE
8
Layer 1
10
92.182303
20
103.173581
11
93.799233
21
102.544500
0
LINE
8
Layer 1
10
93.799233
20
102.544500
11
94.920698
21
102.384328
0
LINE
8
Layer 1
10
94.920698
20
102.384328
11
95.312611
21
102.481509
0
LINE
8
Layer 1
10
95.312611
20
102.481509
11
95.601036
21
102.697628
0
LINE
8
Layer 1
10
95.601036
20
102.697628
11
95.894585
21
103.488964
0
LINE
8
Layer 1
10
95.894585
20
103.488964
11
96.009591
21
104.496145
0
LINE
8
Layer 1
10
96.009591
20
104.496145
11
97.658475
21
102.716733
0
LINE
8
Layer 1
10
97.658475
20
102.716733
11
99.080920
21
101.387025
0
LINE
8
Layer 1
10
99.080920
20
101.387025
11
100.186130
21
100.688612
0
LINE
8
Layer 1
10
100.186130
20
100.688612
11
100.828891
21
100.578854
0
LINE
8
Layer 1
10
100.828891
20
100.578854
11
100.630277
21
100.964132
0
LINE
8
Layer 1
10
100.630277
20
100.964132
11
100.362122
21
101.453573
0
LINE
8
Layer 1
10
100.362122
20
101.453573
11
100.605406
21
101.755457
0
LINE
8
Layer 1
10
100.605406
20
101.755457
11
101.449031
21
101.906860
0
LINE
8
Layer 1
10
101.449031
20
101.906860
11
102.981895
21
101.944855
0
LINE
8
Layer 1
10
102.981895
20
101.944855
11
105.107868
21
101.764321
0
LINE
8
Layer 1
10
105.107868
20
101.764321
11
106.841992
21
101.239299
0
LINE
8
Layer 1
10
106.841992
20
101.239299
11
108.435050
21
100.584146
0
LINE
8
Layer 1
10
108.435050
20
100.584146
11
108.595685
21
100.634808
0
LINE
8
Layer 1
10
108.595685
20
100.634808
11
108.469710
21
100.909804
0
LINE
8
Layer 1
10
108.469710
20
100.909804
11
108.436284
21
101.323260
0
LINE
8
Layer 1
10
108.436284
20
101.323260
11
108.675380
21
101.800216
0
LINE
8
Layer 1
10
108.675380
20
101.800216
11
108.970655
21
102.414402
0
LINE
8
Layer 1
10
108.970655
20
102.414402
11
107.170429
21
103.829042
0
LINE
8
Layer 1
10
107.170429
20
103.829042
11
105.686821
21
104.838340
0
LINE
8
Layer 1
10
105.686821
20
104.838340
11
105.243897
21
104.900506
0
LINE
8
Layer 1
10
105.243897
20
104.900506
11
104.836097
21
104.731096
0
LINE
8
Layer 1
10
104.836097
20
104.731096
11
104.202066
21
104.495175
0
LINE
8
Layer 1
10
104.202066
20
104.495175
11
103.622540
21
104.518018
0
LINE
8
Layer 1
10
103.622540
20
104.518018
11
103.128238
21
105.028642
0
LINE
8
Layer 1
10
103.128238
20
105.028642
11
102.684900
21
105.968288
0
LINE
8
Layer 1
10
102.684900
20
105.968288
11
102.414402
21
107.000274
0
LINE
8
Layer 1
10
102.414402
20
107.000274
11
102.438617
21
107.787917
0
LINE
8
Layer 1
10
102.438617
20
107.787917
11
102.641335
21
107.995578
0
LINE
8
Layer 1
10
102.641335
20
107.995578
11
103.036620
21
108.151824
0
LINE
8
Layer 1
10
103.036620
20
108.151824
11
104.200832
21
108.303634
0
LINE
8
Layer 1
10
104.200832
20
108.303634
11
105.523132
21
108.230482
0
LINE
8
Layer 1
10
105.523132
20
108.230482
11
106.595400
21
107.919503
0
LINE
8
Layer 1
10
106.595400
20
107.919503
11
107.324372
21
107.757622
0
LINE
8
Layer 1
10
107.324372
20
107.757622
11
108.094354
21
108.272281
0
LINE
8
Layer 1
10
108.094354
20
108.272281
11
108.816006
21
108.791967
0
LINE
8
Layer 1
10
108.816006
20
108.791967
11
109.451138
21
109.008176
0
LINE
8
Layer 1
10
109.451138
20
109.008176
11
110.059499
21
109.128005
0
LINE
8
Layer 1
10
110.059499
20
109.128005
11
110.211154
21
109.435787
0
LINE
8
Layer 1
10
110.211154
20
109.435787
11
109.920890
21
109.853967
0
LINE
8
Layer 1
10
109.920890
20
109.853967
11
109.203488
21
110.304988
0
LINE
8
Layer 1
10
109.203488
20
110.304988
11
108.318280
21
110.870271
0
LINE
8
Layer 1
10
108.318280
20
110.870271
11
107.950068
21
111.389780
0
LINE
8
Layer 1
10
107.950068
20
111.389780
11
108.070068
21
112.036152
0
LINE
8
Layer 1
10
108.070068
20
112.036152
11
108.378781
21
112.633014
0
LINE
8
Layer 1
10
108.378781
20
112.633014
11
108.799282
21
113.071192
0
LINE
8
Layer 1
10
108.799282
20
113.071192
11
109.254641
21
113.241512
0
LINE
8
Layer 1
10
109.254641
20
113.241512
11
110.333304
21
112.874353
0
LINE
8
Layer 1
10
110.333304
20
112.874353
11
111.873136
21
111.879039
0
LINE
8
Layer 1
10
111.873136
20
111.879039
11
113.658766
21
110.414818
0
LINE
8
Layer 1
10
113.658766
20
110.414818
11
115.474823
21
108.640934
0
LINE
8
Layer 1
10
115.474823
20
108.640934
11
117.318132
21
106.884805
0
LINE
8
Layer 1
10
117.318132
20
106.884805
11
118.017652
21
106.371304
0
LINE
8
Layer 1
10
118.017652
20
106.371304
11
118.465322
21
106.185952
0
LINE
8
Layer 1
10
118.465322
20
106.185952
11
119.081653
21
106.036914
0
LINE
8
Layer 1
10
119.081653
20
106.036914
11
119.568767
21
105.656168
0
LINE
8
Layer 1
10
119.568767
20
105.656168
11
119.842032
21
105.143261
0
LINE
8
Layer 1
10
119.842032
20
105.143261
11
119.816814
21
104.597745
0
LINE
8
Layer 1
10
119.816814
20
104.597745
11
119.417426
21
104.120701
0
LINE
8
Layer 1
10
119.417426
20
104.120701
11
118.747897
21
103.730970
0
LINE
8
Layer 1
10
118.747897
20
103.730970
11
118.302669
21
103.480178
0
LINE
8
Layer 1
10
118.302669
20
103.480178
11
117.973197
21
103.061838
0
LINE
8
Layer 1
10
117.973197
20
103.061838
11
117.463080
21
101.355010
0
LINE
8
Layer 1
10
117.463080
20
101.355010
11
116.855402
21
98.737130
0
LINE
8
Layer 1
10
116.855402
20
98.737130
11
116.184050
21
96.608051
0
LINE
8
Layer 1
10
116.184050
20
96.608051
11
115.390213
21
94.903530
0
LINE
8
Layer 1
10
115.390213
20
94.903530
11
114.415078
21
93.559322
0
LINE
8
Layer 1
10
114.415078
20
93.559322
11
113.199833
21
92.511183
0
LINE
8
Layer 1
10
113.199833
20
92.511183
11
111.685667
21
91.694868
0
LINE
8
Layer 1
10
111.685667
20
91.694868
11
109.813768
21
91.046134
0
LINE
8
Layer 1
10
109.813768
20
91.046134
11
107.525323
21
90.500737
0
LINE
8
Layer 1
10
107.525323
20
90.500737
11
106.648361
21
90.511011
0
LINE
8
Layer 1
10
106.648361
20
90.511011
11
105.937822
21
90.964992
0
LINE
8
Layer 1
10
105.937822
20
90.964992
11
105.466241
21
91.299310
0
LINE
8
Layer 1
10
105.466241
20
91.299310
11
104.705172
21
91.534244
0
LINE
8
Layer 1
10
104.705172
20
91.534244
11
101.683672
21
91.834943
0
LINE
8
Layer 1
10
101.683672
20
91.834943
11
98.542934
21
92.168406
0
LINE
8
Layer 1
10
98.542934
20
92.168406
11
96.435394
21
92.765924
0
LINE
8
Layer 1
10
96.435394
20
92.765924
11
94.993855
21
93.274498
0
LINE
8
Layer 1
10
94.993855
20
93.274498
11
93.814254
21
93.485944
0
LINE
8
Layer 1
10
93.814254
20
93.485944
11
93.010653
21
93.648927
0
LINE
8
Layer 1
10
93.010653
20
93.648927
11
92.341890
21
94.227042
0
LINE
8
Layer 1
10
92.341890
20
94.227042
11
91.705606
21
95.354036
0
LINE
8
Layer 1
10
91.705606
20
95.354036
11
90.999438
21
97.163655
0
LINE
8
Layer 1
10
90.999438
20
97.163655
11
90.083599
21
99.397974
0
LINE
8
Layer 1
10
90.083599
20
99.397974
11
89.694543
21
100.046308
0
LINE
8
Layer 1
10
89.694543
20
100.046308
11
89.349892
21
100.382930
0
LINE
8
Layer 1
10
89.349892
20
100.382930
11
89.048517
21
100.408468
0
LINE
8
Layer 1
10
89.048517
20
100.408468
11
88.789289
21
100.123550
0
LINE
8
Layer 1
10
88.789289
20
100.123550
11
88.392761
21
98.624861
0
LINE
8
Layer 1
10
88.392761
20
98.624861
11
88.314869
21
96.961755
0
LINE
8
Layer 1
10
88.314869
20
96.961755
11
88.608088
21
95.478699
0
LINE
8
Layer 1
10
88.608088
20
95.478699
11
89.273775
21
94.171722
0
LINE
8
Layer 1
10
89.273775
20
94.171722
11
90.313285
21
93.036858
0
LINE
8
Layer 1
10
90.313285
20
93.036858
11
92.874607
21
91.340552
0
LINE
8
Layer 1
10
92.874607
20
91.340552
11
96.454180
21
89.556041
0
LINE
8
Layer 1
10
96.454180
20
89.556041
11
100.284180
21
88.026655
0
LINE
8
Layer 1
10
100.284180
20
88.026655
11
103.596787
21
87.095723
0
LINE
8
Layer 1
10
103.596787
20
87.095723
11
105.340305
21
86.938340
0
LINE
8
Layer 1
10
105.340305
20
86.938340
11
106.781667
21
87.353251
0
LINE
8
Layer 1
10
106.781667
20
87.353251
11
108.126457
21
87.950857
0
LINE
8
Layer 1
10
108.126457
20
87.950857
11
106.538956
21
88.283174
0
LINE
8
Layer 1
10
106.538956
20
88.283174
11
104.996126
21
88.646094
0
LINE
8
Layer 1
10
104.996126
20
88.646094
11
104.511629
21
88.900006
0
LINE
8
Layer 1
10
104.511629
20
88.900006
11
105.095918
21
89.091212
0
LINE
8
Layer 1
10
105.095918
20
89.091212
11
106.759442
21
89.266014
0
LINE
8
Layer 1
10
106.759442
20
89.266014
11
109.404467
21
89.624023
0
LINE
8
Layer 1
10
109.404467
20
89.624023
11
111.605951
21
90.251014
0
LINE
8
Layer 1
10
111.605951
20
90.251014
11
113.496350
21
91.197953
0
LINE
8
Layer 1
10
113.496350
20
91.197953
11
115.208123
21
92.515805
0
LINE
8
Layer 1
10
115.208123
20
92.515805
11
116.610592
21
93.699198
0
LINE
8
Layer 1
10
116.610592
20
93.699198
11
117.403460
21
94.191500
0
LINE
8
Layer 1
10
117.403460
20
94.191500
11
117.730309
21
93.222507
0
LINE
8
Layer 1
10
117.730309
20
93.222507
11
118.011649
21
90.860217
0
LINE
8
Layer 1
10
118.011649
20
90.860217
11
118.504833
21
86.362298
0
LINE
8
Layer 1
10
118.504833
20
86.362298
11
118.748250
21
85.195661
0
LINE
8
Layer 1
10
118.748250
20
85.195661
11
119.226264
21
86.959551
0
LINE
8
Layer 1
10
119.226264
20
86.959551
11
119.573089
21
89.293398
0
LINE
8
Layer 1
10
119.573089
20
89.293398
11
119.736028
21
92.427610
0
LINE
8
Layer 1
10
119.736028
20
92.427610
11
119.871010
21
95.627968
0
LINE
8
Layer 1
10
119.871010
20
95.627968
11
120.111323
21
96.047956
0
LINE
8
Layer 1
10
120.111323
20
96.047956
11
120.561881
21
96.103910
0
LINE
8
Layer 1
10
120.561881
20
96.103910
11
121.119375
21
96.133367
0
LINE
8
Layer 1
10
121.119375
20
96.133367
11
121.291206
21
96.416030
0
LINE
8
Layer 1
10
121.291206
20
96.416030
11
121.066360
21
97.163963
0
LINE
8
Layer 1
10
121.066360
20
97.163963
11
120.433823
21
98.589231
0
LINE
8
Layer 1
10
120.433823
20
98.589231
11
119.858580
21
100.105520
0
LINE
8
Layer 1
10
119.858580
20
100.105520
11
119.842170
21
100.958796
0
LINE
8
Layer 1
10
119.842170
20
100.958796
11
120.047796
21
101.145290
0
LINE
8
Layer 1
10
120.047796
20
101.145290
11
120.398253
21
101.176212
0
LINE
8
Layer 1
10
120.398253
20
101.176212
11
121.540488
21
100.784921
0
LINE
8
Layer 1
10
121.540488
20
100.784921
11
122.630368
21
100.318300
0
LINE
8
Layer 1
10
122.630368
20
100.318300
11
123.127945
21
100.279610
0
LINE
8
Layer 1
10
123.127945
20
100.279610
11
123.077238
21
100.707183
0
LINE
8
Layer 1
10
123.077238
20
100.707183
11
122.522269
21
101.639349
0
LINE
8
Layer 1
10
122.522269
20
101.639349
11
121.784698
21
102.958871
0
LINE
8
Layer 1
10
121.784698
20
102.958871
11
121.872584
21
103.274029
0
LINE
8
Layer 1
10
121.872584
20
103.274029
11
122.231933
21
103.579628
0
LINE
8
Layer 1
10
122.231933
20
103.579628
11
122.829412
21
103.929755
0
LINE
8
Layer 1
10
122.829412
20
103.929755
11
123.405228
21
104.039607
0
LINE
8
Layer 1
10
123.405228
20
104.039607
11
124.061676
21
103.907298
0
LINE
8
Layer 1
10
124.061676
20
103.907298
11
124.901051
21
103.530945
0
LINE
8
Layer 1
10
124.901051
20
103.530945
11
125.659524
21
103.240785
0
LINE
8
Layer 1
10
125.659524
20
103.240785
11
125.868434
21
103.251148
0
LINE
8
Layer 1
10
125.868434
20
103.251148
11
125.941746
21
103.368667
0
LINE
8
Layer 1
10
125.941746
20
103.368667
11
125.716867
21
104.129758
0
LINE
8
Layer 1
10
125.716867
20
104.129758
11
125.123257
21
105.313223
0
LINE
8
Layer 1
10
125.123257
20
105.313223
11
123.316019
21
108.076137
0
LINE
8
Layer 1
10
123.316019
20
108.076137
11
122.144267
21
109.770353
0
LINE
8
Layer 1
10
122.144267
20
109.770353
11
122.200601
21
110.017650
0
LINE
8
Layer 1
10
122.200601
20
110.017650
11
122.613991
21
110.066510
0
LINE
8
Layer 1
10
122.613991
20
110.066510
11
122.979425
21
110.224246
0
LINE
8
Layer 1
10
122.979425
20
110.224246
11
122.985819
21
110.683871
0
LINE
8
Layer 1
10
122.985819
20
110.683871
11
122.536953
21
112.918985
0
LINE
8
Layer 1
10
122.536953
20
112.918985
11
122.529561
21
113.663512
0
LINE
8
Layer 1
10
122.529561
20
113.663512
11
122.686311
21
113.947068
0
LINE
8
Layer 1
10
122.686311
20
113.947068
11
123.332870
21
113.516949
0
LINE
8
Layer 1
10
123.332870
20
113.516949
11
124.310721
21
112.528063
0
LINE
8
Layer 1
10
124.310721
20
112.528063
11
125.212174
21
111.432615
0
LINE
8
Layer 1
10
125.212174
20
111.432615
11
125.629537
21
110.682813
0
LINE
8
Layer 1
10
125.629537
20
110.682813
11
125.752304
21
109.890121
0
LINE
8
Layer 1
10
125.752304
20
109.890121
11
125.888124
21
109.097429
0
LINE
8
Layer 1
10
125.888124
20
109.097429
11
126.339426
21
108.284728
0
LINE
8
Layer 1
10
126.339426
20
108.284728
11
127.336630
21
107.132367
0
LINE
8
Layer 1
10
127.336630
20
107.132367
11
128.535976
21
105.998131
0
LINE
8
Layer 1
10
128.535976
20
105.998131
11
129.593704
21
105.239801
0
LINE
8
Layer 1
10
129.593704
20
105.239801
11
130.565740
21
104.874808
0
LINE
8
Layer 1
10
130.565740
20
104.874808
11
130.843911
21
105.003611
0
LINE
8
Layer 1
10
130.843911
20
105.003611
11
131.135344
21
105.350926
0
LINE
8
Layer 1
10
131.135344
20
105.350926
11
131.421772
21
106.062199
0
LINE
8
Layer 1
10
131.421772
20
106.062199
11
131.394503
21
106.871532
0
LINE
8
Layer 1
10
131.394503
20
106.871532
11
131.081815
21
107.647197
0
LINE
8
Layer 1
10
131.081815
20
107.647197
11
130.511985
21
108.257464
0
LINE
8
Layer 1
10
130.511985
20
108.257464
11
130.024931
21
108.778782
0
LINE
8
Layer 1
10
130.024931
20
108.778782
11
129.822304
21
109.352487
0
LINE
8
Layer 1
10
129.822304
20
109.352487
11
130.077577
21
110.070655
0
LINE
8
Layer 1
10
130.077577
20
110.070655
11
130.693445
21
110.885661
0
LINE
8
Layer 1
10
130.693445
20
110.885661
11
131.444978
21
111.553557
0
LINE
8
Layer 1
10
131.444978
20
111.553557
11
132.107247
21
111.830400
0
LINE
8
Layer 1
10
132.107247
20
111.830400
11
132.665838
21
111.529260
0
LINE
8
Layer 1
10
132.665838
20
111.529260
11
133.061247
21
110.703980
0
LINE
8
Layer 1
10
133.061247
20
110.703980
11
133.259674
21
109.471770
0
LINE
8
Layer 1
10
133.259674
20
109.471770
11
133.227317
21
107.949842
0
LINE
8
Layer 1
10
133.227317
20
107.949842
11
133.199404
21
106.308807
0
LINE
8
Layer 1
10
133.199404
20
106.308807
11
133.535292
21
105.340343
0
LINE
8
Layer 1
10
133.535292
20
105.340343
11
133.839266
21
104.788720
0
LINE
8
Layer 1
10
133.839266
20
104.788720
11
133.818926
21
104.391018
0
LINE
8
Layer 1
10
133.818926
20
104.391018
11
133.476059
21
104.150213
0
LINE
8
Layer 1
10
133.476059
20
104.150213
11
132.812450
21
104.069284
0
LINE
8
Layer 1
10
132.812450
20
104.069284
11
132.091152
21
103.863923
0
LINE
8
Layer 1
10
132.091152
20
103.863923
11
131.570672
21
103.334447
0
LINE
8
Layer 1
10
131.570672
20
103.334447
11
131.306006
21
102.952284
0
LINE
8
Layer 1
10
131.306006
20
102.952284
11
130.945593
21
102.763432
0
LINE
8
Layer 1
10
130.945593
20
102.763432
11
129.398970
21
102.844086
0
LINE
8
Layer 1
10
129.398970
20
102.844086
11
128.104655
21
102.903915
0
LINE
8
Layer 1
10
128.104655
20
102.903915
11
127.810521
21
102.802625
0
LINE
8
Layer 1
10
127.810521
20
102.802625
11
127.750307
21
102.619455
0
LINE
8
Layer 1
10
127.750307
20
102.619455
11
128.327358
21
102.024241
0
LINE
8
Layer 1
10
128.327358
20
102.024241
11
129.827243
21
101.151810
0
LINE
8
Layer 1
10
129.827243
20
101.151810
11
131.346068
21
100.336562
0
LINE
8
Layer 1
10
131.346068
20
100.336562
11
132.068662
21
99.761688
0
LINE
8
Layer 1
10
132.068662
20
99.761688
11
132.176982
21
99.500520
0
LINE
8
Layer 1
10
132.176982
20
99.500520
11
132.140976
21
99.222798
0
LINE
8
Layer 1
10
132.140976
20
99.222798
11
131.708961
21
98.515500
0
LINE
8
Layer 1
10
131.708961
20
98.515500
11
130.786518
21
97.128471
0
LINE
8
Layer 1
10
130.786518
20
97.128471
11
130.207405
21
95.856833
0
LINE
8
Layer 1
10
130.207405
20
95.856833
11
129.906701
21
94.507209
0
LINE
8
Layer 1
10
129.906701
20
94.507209
11
129.819482
21
92.886221
0
LINE
8
Layer 1
10
129.819482
20
92.886221
11
129.583490
21
89.184031
0
LINE
8
Layer 1
10
129.583490
20
89.184031
11
128.833776
21
85.374387
0
LINE
8
Layer 1
10
128.833776
20
85.374387
11
127.495827
21
81.171109
0
LINE
8
Layer 1
10
127.495827
20
81.171109
11
125.495129
21
76.288016
0
LINE
8
Layer 1
10
125.495129
20
76.288016
11
124.379777
21
73.929166
0
LINE
8
Layer 1
10
124.379777
20
73.929166
11
123.591715
21
72.585788
0
LINE
8
Layer 1
10
123.591715
20
72.585788
11
123.340510
21
72.321772
0
LINE
8
Layer 1
10
123.340510
20
72.321772
11
123.195237
21
72.343870
0
LINE
8
Layer 1
10
123.195237
20
72.343870
11
123.254636
21
73.289404
0
LINE
8
Layer 1
10
123.254636
20
73.289404
11
123.518514
21
75.670655
0
LINE
8
Layer 1
10
123.518514
20
75.670655
11
123.525581
21
76.389231
0
LINE
8
Layer 1
10
123.525581
20
76.389231
11
123.473878
21
76.507256
0
LINE
8
Layer 1
10
123.473878
20
76.507256
11
123.366290
21
76.442445
0
LINE
8
Layer 1
10
123.366290
20
76.442445
11
122.091174
21
74.024946
0
LINE
8
Layer 1
10
122.091174
20
74.024946
11
120.790278
21
70.861056
0
LINE
8
Layer 1
10
120.790278
20
70.861056
11
120.291962
21
68.683269
0
LINE
8
Layer 1
10
120.291962
20
68.683269
11
120.355296
21
68.164462
0
LINE
8
Layer 1
10
120.355296
20
68.164462
11
120.633104
21
68.132539
0
LINE
8
Layer 1
10
120.633104
20
68.132539
11
121.129995
21
68.667618
0
LINE
8
Layer 1
10
121.129995
20
68.667618
11
121.850580
21
69.849818
0
LINE
8
Layer 1
10
121.850580
20
69.849818
11
122.619283
21
71.095565
0
LINE
8
Layer 1
10
122.619283
20
71.095565
11
123.119169
21
71.613708
0
LINE
8
Layer 1
10
123.119169
20
71.613708
11
123.222114
21
71.394769
0
LINE
8
Layer 1
10
123.222114
20
71.394769
11
123.158504
21
70.798488
0
LINE
8
Layer 1
10
123.158504
20
70.798488
11
122.644859
21
68.837125
0
LINE
8
Layer 1
10
122.644859
20
68.837125
11
121.804718
21
66.456066
0
LINE
8
Layer 1
10
121.804718
20
66.456066
11
120.864565
21
64.381759
0
LINE
8
Layer 1
10
120.864565
20
64.381759
11
119.631870
21
62.556265
0
LINE
8
Layer 1
10
119.631870
20
62.556265
11
118.249422
21
61.277665
0
LINE
8
Layer 1
10
118.249422
20
61.277665
11
117.176117
21
60.369968
0
LINE
8
Layer 1
10
117.176117
20
60.369968
11
116.265663
21
59.009038
0
LINE
8
Layer 1
10
116.265663
20
59.009038
11
115.278612
21
56.736222
0
LINE
8
Layer 1
10
115.278612
20
56.736222
11
113.975516
21
53.092863
0
LINE
8
Layer 1
10
113.975516
20
53.092863
11
112.425101
21
48.255086
0
LINE
8
Layer 1
10
112.425101
20
48.255086
11
112.354033
21
47.458772
0
LINE
8
Layer 1
10
112.354033
20
47.458772
11
112.644485
21
47.272026
0
LINE
8
Layer 1
10
112.644485
20
47.272026
11
113.214486
21
47.522322
0
LINE
8
Layer 1
10
113.214486
20
47.522322
11
113.919425
21
48.123985
0
LINE
8
Layer 1
10
113.919425
20
48.123985
11
114.720583
21
48.785135
0
LINE
8
Layer 1
10
114.720583
20
48.785135
11
115.522801
21
49.177733
0
LINE
8
Layer 1
10
115.522801
20
49.177733
11
116.248448
21
49.736605
0
LINE
8
Layer 1
10
116.248448
20
49.736605
11
116.981141
21
50.924293
0
LINE
8
Layer 1
10
116.981141
20
50.924293
11
117.615077
21
52.524929
0
LINE
8
Layer 1
10
117.615077
20
52.524929
11
118.044458
21
54.322647
0
LINE
8
Layer 1
10
118.044458
20
54.322647
11
118.265308
21
55.173878
0
LINE
8
Layer 1
10
118.265308
20
55.173878
11
118.699478
21
56.036884
0
LINE
8
Layer 1
10
118.699478
20
56.036884
11
120.545654
21
58.341141
0
LINE
8
Layer 1
10
120.545654
20
58.341141
11
122.651964
21
61.189824
0
LINE
8
Layer 1
10
122.651964
20
61.189824
11
124.810431
21
64.949732
0
LINE
8
Layer 1
10
124.810431
20
64.949732
11
126.716022
21
69.032167
0
LINE
8
Layer 1
10
126.716022
20
69.032167
11
128.063706
21
72.848431
0
LINE
8
Layer 1
10
128.063706
20
72.848431
11
128.902827
21
75.540160
0
LINE
8
Layer 1
10
128.902827
20
75.540160
11
129.895109
21
78.206688
0
LINE
8
Layer 1
10
129.895109
20
78.206688
11
130.919074
21
80.546323
0
LINE
8
Layer 1
10
130.919074
20
80.546323
11
131.853247
21
82.257373
0
LINE
8
Layer 1
10
131.853247
20
82.257373
11
132.808349
21
84.483931
0
LINE
8
Layer 1
10
132.808349
20
84.483931
11
133.913470
21
88.018591
0
LINE
8
Layer 1
10
133.913470
20
88.018591
11
134.743006
21
90.930778
0
LINE
8
Layer 1
10
134.743006
20
90.930778
11
135.453082
21
92.955322
0
LINE
8
Layer 1
10
135.453082
20
92.955322
11
136.233405
21
94.553290
0
LINE
8
Layer 1
10
136.233405
20
94.553290
11
137.273681
21
96.185754
0
LINE
8
Layer 1
10
137.273681
20
96.185754
11
138.369983
21
98.101250
0
LINE
8
Layer 1
10
138.369983
20
98.101250
11
139.296686
21
100.294030
0
LINE
8
Layer 1
10
139.296686
20
100.294030
11
139.939492
21
102.447652
0
LINE
8
Layer 1
10
139.939492
20
102.447652
11
140.184099
21
104.245673
0
LINE
8
Layer 1
10
140.184099
20
104.245673
11
139.907951
21
109.247023
0
LINE
8
Layer 1
10
139.907951
20
109.247023
11
139.193587
21
114.487656
0
LINE
8
Layer 1
10
139.193587
20
114.487656
11
138.275626
21
118.620147
0
LINE
8
Layer 1
10
138.275626
20
118.620147
11
137.813615
21
119.849769
0
LINE
8
Layer 1
10
137.813615
20
119.849769
11
137.388687
21
120.297072
0
LINE
8
Layer 1
10
137.388687
20
120.297072
11
136.204058
21
120.711939
0
LINE
8
Layer 1
10
136.204058
20
120.711939
11
135.822733
21
120.886233
0
LINE
8
Layer 1
10
135.822733
20
120.886233
11
135.454272
21
120.872806
0
LINE
8
Layer 1
10
135.454272
20
120.872806
11
134.417943
21
120.182772
0
LINE
8
Layer 1
10
134.417943
20
120.182772
11
133.091035
21
119.388399
0
LINE
8
Layer 1
10
133.091035
20
119.388399
11
132.492255
21
119.257042
0
LINE
8
Layer 1
10
132.492255
20
119.257042
11
131.961109
21
119.296726
0
LINE
8
Layer 1
10
131.961109
20
119.296726
11
131.515986
21
119.502816
0
LINE
8
Layer 1
10
131.515986
20
119.502816
11
131.175274
21
119.870679
0
LINE
8
Layer 1
10
131.175274
20
119.870679
11
130.957362
21
120.395680
0
LINE
8
Layer 1
10
130.957362
20
120.395680
11
130.880638
21
121.073184
0
LINE
8
Layer 1
10
130.880638
20
121.073184
11
130.992937
21
121.738666
0
LINE
8
Layer 1
10
130.992937
20
121.738666
11
131.356491
21
122.031152
0
LINE
8
Layer 1
10
131.356491
20
122.031152
11
132.011286
21
121.959307
0
LINE
8
Layer 1
10
132.011286
20
121.959307
11
132.997306
21
121.531795
0
LINE
8
Layer 1
10
132.997306
20
121.531795
11
133.910869
21
121.182501
0
LINE
8
Layer 1
10
133.910869
20
121.182501
11
134.145813
21
121.293521
0
LINE
8
Layer 1
10
134.145813
20
121.293521
11
134.355854
21
121.601292
0
LINE
8
Layer 1
10
134.355854
20
121.601292
11
134.524300
21
122.258540
0
LINE
8
Layer 1
10
134.524300
20
122.258540
11
134.305627
21
123.111976
0
LINE
8
Layer 1
10
134.305627
20
123.111976
11
133.635377
21
124.310561
0
LINE
8
Layer 1
10
133.635377
20
124.310561
11
132.449089
21
126.003256
0
LINE
8
Layer 1
10
132.449089
20
126.003256
11
130.975315
21
128.200931
0
LINE
8
Layer 1
10
130.975315
20
128.200931
11
129.741518
21
130.351245
0
LINE
8
Layer 1
10
129.741518
20
130.351245
11
128.624264
21
132.365084
0
LINE
8
Layer 1
10
128.624264
20
132.365084
11
127.427074
21
134.153001
0
LINE
8
Layer 1
10
127.427074
20
134.153001
11
126.232198
21
135.603641
0
LINE
8
Layer 1
10
126.232198
20
135.603641
11
125.121890
21
136.605646
0
LINE
8
Layer 1
10
125.121890
20
136.605646
11
124.001467
21
137.402572
0
LINE
8
Layer 1
10
124.001467
20
137.402572
11
124.820618
21
136.169965
0
LINE
8
Layer 1
10
131.720602
20
116.687800
11
131.873984
21
116.070439
0
LINE
8
Layer 1
10
131.873984
20
116.070439
11
131.543508
21
115.531659
0
LINE
8
Layer 1
10
131.543508
20
115.531659
11
130.760859
21
115.099109
0
LINE
8
Layer 1
10
130.760859
20
115.099109
11
129.557720
21
114.800438
0
LINE
8
Layer 1
10
129.557720
20
114.800438
11
128.335124
21
114.715242
0
LINE
8
Layer 1
10
128.335124
20
114.715242
11
128.115327
21
114.860068
0
LINE
8
Layer 1
10
128.115327
20
114.860068
11
128.058414
21
115.152863
0
LINE
8
Layer 1
10
128.058414
20
115.152863
11
128.319734
21
115.830858
0
LINE
8
Layer 1
10
128.319734
20
115.830858
11
128.947767
21
116.632414
0
LINE
8
Layer 1
10
128.947767
20
116.632414
11
129.714448
21
117.193767
0
LINE
8
Layer 1
10
129.714448
20
117.193767
11
130.480367
21
117.391019
0
LINE
8
Layer 1
10
130.480367
20
117.391019
11
131.173196
21
117.222816
0
LINE
8
Layer 1
10
131.173196
20
117.222816
11
131.720602
21
116.687800
0
LINE
8
Layer 1
10
91.029777
20
95.571215
11
91.277427
21
94.672072
0
LINE
8
Layer 1
10
91.277427
20
94.672072
11
91.102802
21
94.136467
0
LINE
8
Layer 1
10
91.102802
20
94.136467
11
90.875130
21
94.028154
0
LINE
8
Layer 1
10
90.875130
20
94.028154
11
90.596009
21
94.072713
0
LINE
8
Layer 1
10
90.596009
20
94.072713
11
89.984275
21
94.514909
0
LINE
8
Layer 1
10
89.984275
20
94.514909
11
89.469313
21
95.251984
0
LINE
8
Layer 1
10
89.469313
20
95.251984
11
89.252834
21
96.072865
0
LINE
8
Layer 1
10
89.252834
20
96.072865
11
89.418314
21
96.982652
0
LINE
8
Layer 1
10
89.418314
20
96.982652
11
89.604757
21
97.169165
0
LINE
8
Layer 1
10
89.604757
20
97.169165
11
89.842194
21
97.181867
0
LINE
8
Layer 1
10
89.842194
20
97.181867
11
90.415629
21
96.701168
0
LINE
8
Layer 1
10
90.415629
20
96.701168
11
91.029777
21
95.571215
0
LINE
8
Layer 1
10
115.577128
20
44.316805
11
115.229769
21
43.682725
0
LINE
8
Layer 1
10
115.229769
20
43.682725
11
114.637372
21
43.399185
0
LINE
8
Layer 1
10
114.637372
20
43.399185
11
113.868035
21
43.476471
0
LINE
8
Layer 1
10
113.868035
20
43.476471
11
112.989855
21
43.924868
0
LINE
8
Layer 1
10
112.989855
20
43.924868
11
112.555089
21
44.197246
0
LINE
8
Layer 1
10
112.555089
20
44.197246
11
112.306524
21
44.181691
0
LINE
8
Layer 1
10
112.306524
20
44.181691
11
112.044409
21
42.954729
0
LINE
8
Layer 1
10
112.044409
20
42.954729
11
111.476084
21
36.043808
0
LINE
8
Layer 1
10
111.476084
20
36.043808
11
111.019198
21
30.803798
0
LINE
8
Layer 1
10
111.019198
20
30.803798
11
110.434022
21
27.405157
0
LINE
8
Layer 1
10
110.434022
20
27.405157
11
110.034135
21
26.170502
0
LINE
8
Layer 1
10
110.034135
20
26.170502
11
109.531147
21
25.125174
0
LINE
8
Layer 1
10
109.531147
20
25.125174
11
108.121165
21
23.241141
0
LINE
8
Layer 1
10
108.121165
20
23.241141
11
107.100138
21
21.770322
0
LINE
8
Layer 1
10
107.100138
20
21.770322
11
106.252147
21
20.026981
0
LINE
8
Layer 1
10
106.252147
20
20.026981
11
104.715755
21
14.202440
0
LINE
8
Layer 1
10
104.715755
20
14.202440
11
104.048845
21
11.068415
0
LINE
8
Layer 1
10
104.048845
20
11.068415
11
103.867015
21
9.609799
0
LINE
8
Layer 1
10
103.867015
20
9.609799
11
105.098916
21
10.131205
0
LINE
8
Layer 1
10
105.098916
20
10.131205
11
105.752327
21
10.475247
0
LINE
8
Layer 1
10
105.752327
20
10.475247
11
106.160866
21
10.573192
0
LINE
8
Layer 1
10
106.160866
20
10.573192
11
106.481431
21
10.411250
0
LINE
8
Layer 1
10
106.481431
20
10.411250
11
106.870920
21
9.975630
0
LINE
8
Layer 1
10
106.870920
20
9.975630
11
107.518268
21
9.191405
0
LINE
8
Layer 1
10
107.518268
20
9.191405
11
109.057085
21
10.299833
0
LINE
8
Layer 1
10
109.057085
20
10.299833
11
112.924414
21
13.451993
0
LINE
8
Layer 1
10
112.924414
20
13.451993
11
114.485148
21
14.977703
0
LINE
8
Layer 1
10
114.485148
20
14.977703
11
115.538676
21
16.233206
0
LINE
8
Layer 1
10
115.538676
20
16.233206
11
116.059282
21
17.109639
0
LINE
8
Layer 1
10
116.059282
20
17.109639
11
116.383535
21
18.167312
0
LINE
8
Layer 1
10
116.383535
20
18.167312
11
116.796329
21
22.620252
0
LINE
8
Layer 1
10
116.796329
20
22.620252
11
117.114226
21
26.265507
0
LINE
8
Layer 1
10
117.114226
20
26.265507
11
117.436621
21
27.971894
0
LINE
8
Layer 1
10
117.436621
20
27.971894
11
117.668955
21
28.097659
0
LINE
8
Layer 1
10
117.668955
20
28.097659
11
117.884534
21
27.996804
0
LINE
8
Layer 1
10
117.884534
20
27.996804
11
118.261372
21
27.130828
0
LINE
8
Layer 1
10
118.261372
20
27.130828
11
118.559034
21
25.405153
0
LINE
8
Layer 1
10
118.559034
20
25.405153
11
118.769416
21
22.850969
0
LINE
8
Layer 1
10
118.769416
20
22.850969
11
119.008038
21
19.778372
0
LINE
8
Layer 1
10
119.008038
20
19.778372
11
119.262865
21
18.241748
0
LINE
8
Layer 1
10
119.262865
20
18.241748
11
119.376698
21
18.106870
0
LINE
8
Layer 1
10
119.376698
20
18.106870
11
119.470993
21
18.424917
0
LINE
8
Layer 1
10
119.470993
20
18.424917
11
119.569517
21
20.511698
0
LINE
8
Layer 1
10
119.569517
20
20.511698
11
119.694174
21
23.796849
0
LINE
8
Layer 1
10
119.694174
20
23.796849
11
119.971993
21
27.185685
0
LINE
8
Layer 1
10
119.971993
20
27.185685
11
120.323828
21
29.910349
0
LINE
8
Layer 1
10
120.323828
20
29.910349
11
120.670537
21
31.202988
0
LINE
8
Layer 1
10
120.670537
20
31.202988
11
121.010615
21
31.354727
0
LINE
8
Layer 1
10
121.010615
20
31.354727
11
121.364451
21
31.176530
0
LINE
8
Layer 1
10
121.364451
20
31.176530
11
122.023149
21
29.745409
0
LINE
8
Layer 1
10
122.023149
20
29.745409
11
123.127504
21
26.622342
0
LINE
8
Layer 1
10
123.127504
20
26.622342
11
125.773471
21
17.991452
0
LINE
8
Layer 1
10
125.773471
20
17.991452
11
127.381786
21
12.918857
0
LINE
8
Layer 1
10
127.381786
20
12.918857
11
127.802837
21
12.964591
0
LINE
8
Layer 1
10
127.802837
20
12.964591
11
128.537751
21
13.580007
0
LINE
8
Layer 1
10
128.537751
20
13.580007
11
130.611821
21
16.179231
0
LINE
8
Layer 1
10
130.611821
20
16.179231
11
131.358388
21
17.461094
0
LINE
8
Layer 1
10
131.358388
20
17.461094
11
131.384041
21
17.797143
0
LINE
8
Layer 1
10
131.384041
20
17.797143
11
131.203783
21
18.009796
0
LINE
8
Layer 1
10
131.203783
20
18.009796
11
130.943124
21
18.374833
0
LINE
8
Layer 1
10
130.943124
20
18.374833
11
131.335722
21
18.967942
0
LINE
8
Layer 1
10
131.335722
20
18.967942
11
131.787906
21
19.536763
0
LINE
8
Layer 1
10
131.787906
20
19.536763
11
131.899108
21
19.875992
0
LINE
8
Layer 1
10
131.899108
20
19.875992
11
131.666616
21
19.996146
0
LINE
8
Layer 1
10
131.666616
20
19.996146
11
131.087719
21
19.907742
0
LINE
8
Layer 1
10
131.087719
20
19.907742
11
130.263541
21
19.919604
0
LINE
8
Layer 1
10
130.263541
20
19.919604
11
129.500218
21
20.430206
0
LINE
8
Layer 1
10
129.500218
20
20.430206
11
128.991848
21
21.089769
0
LINE
8
Layer 1
10
128.991848
20
21.089769
11
128.798498
21
21.758063
0
LINE
8
Layer 1
10
128.798498
20
21.758063
11
128.918349
21
22.468954
0
LINE
8
Layer 1
10
128.918349
20
22.468954
11
129.349581
21
23.256311
0
LINE
8
Layer 1
10
129.349581
20
23.256311
11
129.752145
21
24.039346
0
LINE
8
Layer 1
10
129.752145
20
24.039346
11
129.628734
21
24.285656
0
LINE
8
Layer 1
10
129.628734
20
24.285656
11
129.281848
21
24.569703
0
LINE
8
Layer 1
10
129.281848
20
24.569703
11
128.390731
21
25.047012
0
LINE
8
Layer 1
10
128.390731
20
25.047012
11
127.877935
21
25.506654
0
LINE
8
Layer 1
10
127.877935
20
25.506654
11
127.149305
21
26.580494
0
LINE
8
Layer 1
10
127.149305
20
26.580494
11
126.482059
21
27.810901
0
LINE
8
Layer 1
10
126.482059
20
27.810901
11
126.153413
21
28.740245
0
LINE
8
Layer 1
10
126.153413
20
28.740245
11
125.770075
21
29.698434
0
LINE
8
Layer 1
10
125.770075
20
29.698434
11
124.968431
21
30.875963
0
LINE
8
Layer 1
10
124.968431
20
30.875963
11
123.937410
21
32.369046
0
LINE
8
Layer 1
10
123.937410
20
32.369046
11
122.874738
21
34.257913
0
LINE
8
Layer 1
10
122.874738
20
34.257913
11
122.043907
21
36.032811
0
LINE
8
Layer 1
10
122.043907
20
36.032811
11
121.708410
21
37.183986
0
LINE
8
Layer 1
10
121.708410
20
37.183986
11
121.868544
21
37.714901
0
LINE
8
Layer 1
10
121.868544
20
37.714901
11
122.442056
21
37.945678
0
LINE
8
Layer 1
10
122.442056
20
37.945678
11
123.568614
21
37.890772
0
LINE
8
Layer 1
10
123.568614
20
37.890772
11
125.387885
21
37.564634
0
LINE
8
Layer 1
10
125.387885
20
37.564634
11
130.597931
21
36.304593
0
LINE
8
Layer 1
10
130.597931
20
36.304593
11
135.398666
21
34.777291
0
LINE
8
Layer 1
10
135.398666
20
34.777291
11
139.637690
21
33.037726
0
LINE
8
Layer 1
10
139.637690
20
33.037726
11
143.162604
21
31.140899
0
LINE
8
Layer 1
10
143.162604
20
31.140899
11
145.144384
21
29.983242
0
LINE
8
Layer 1
10
145.144384
20
29.983242
11
146.247251
21
29.644371
0
LINE
8
Layer 1
10
146.247251
20
29.644371
11
146.529088
21
29.788357
0
LINE
8
Layer 1
10
146.529088
20
29.788357
11
146.663193
21
30.144693
0
LINE
8
Layer 1
10
146.663193
20
30.144693
11
146.584198
21
31.504613
0
LINE
8
Layer 1
10
146.584198
20
31.504613
11
146.207486
21
33.026839
0
LINE
8
Layer 1
10
146.207486
20
33.026839
11
145.572342
21
34.530214
0
LINE
8
Layer 1
10
145.572342
20
34.530214
11
144.779904
21
35.817159
0
LINE
8
Layer 1
10
144.779904
20
35.817159
11
143.931307
21
36.690097
0
LINE
8
Layer 1
10
143.931307
20
36.690097
11
143.175525
21
37.442176
0
LINE
8
Layer 1
10
143.175525
20
37.442176
11
142.731157
21
38.272306
0
LINE
8
Layer 1
10
142.731157
20
38.272306
11
142.469969
21
38.897914
0
LINE
8
Layer 1
10
142.469969
20
38.897914
11
142.154012
21
39.158132
0
LINE
8
Layer 1
10
142.154012
20
39.158132
11
141.804321
21
39.419055
0
LINE
8
Layer 1
10
141.804321
20
39.419055
11
141.461509
21
40.046427
0
LINE
8
Layer 1
10
141.461509
20
40.046427
11
140.939122
21
40.818553
0
LINE
8
Layer 1
10
140.939122
20
40.818553
11
139.853370
21
41.336051
0
LINE
8
Layer 1
10
139.853370
20
41.336051
11
137.863537
21
41.696188
0
LINE
8
Layer 1
10
137.863537
20
41.696188
11
134.628904
21
41.996231
0
LINE
8
Layer 1
10
134.628904
20
41.996231
11
126.454509
21
42.821114
0
LINE
8
Layer 1
10
126.454509
20
42.821114
11
123.846201
21
43.317925
0
LINE
8
Layer 1
10
123.846201
20
43.317925
11
121.685832
21
43.952385
0
LINE
8
Layer 1
10
121.685832
20
43.952385
11
119.384661
21
44.644227
0
LINE
8
Layer 1
10
119.384661
20
44.644227
11
117.462374
21
45.046350
0
LINE
8
Layer 1
10
117.462374
20
45.046350
11
116.541089
21
45.132879
0
LINE
8
Layer 1
10
116.541089
20
45.132879
11
116.017439
21
45.077923
0
LINE
8
Layer 1
10
116.017439
20
45.077923
11
115.744946
21
44.824794
0
LINE
8
Layer 1
10
115.744946
20
44.824794
11
115.577128
21
44.316805
0
LINE
8
Layer 1
10
65.616708
20
72.465314
11
63.188890
21
70.793852
0
LINE
8
Layer 1
10
63.188890
20
70.793852
11
62.300545
21
69.683268
0
LINE
8
Layer 1
10
62.300545
20
69.683268
11
61.494718
21
68.171080
0
LINE
8
Layer 1
10
61.494718
20
68.171080
11
60.909090
21
66.565692
0
LINE
8
Layer 1
10
60.909090
20
66.565692
11
60.681344
21
65.175510
0
LINE
8
Layer 1
10
60.681344
20
65.175510
11
60.584374
21
64.241133
0
LINE
8
Layer 1
10
60.584374
20
64.241133
11
60.356435
21
63.852592
0
LINE
8
Layer 1
10
60.356435
20
63.852592
11
59.737431
21
64.212139
0
LINE
8
Layer 1
10
59.737431
20
64.212139
11
59.030519
21
65.078231
0
LINE
8
Layer 1
10
59.030519
20
65.078231
11
58.449549
21
66.132045
0
LINE
8
Layer 1
10
58.449549
20
66.132045
11
58.208370
21
67.054758
0
LINE
8
Layer 1
10
58.208370
20
67.054758
11
58.115115
21
67.842858
0
LINE
8
Layer 1
10
58.115115
20
67.842858
11
57.859473
21
68.030321
0
LINE
8
Layer 1
10
57.859473
20
68.030321
11
57.477623
21
67.629284
0
LINE
8
Layer 1
10
57.477623
20
67.629284
11
57.005750
21
66.651885
0
LINE
8
Layer 1
10
57.005750
20
66.651885
11
56.703871
21
65.821567
0
LINE
8
Layer 1
10
56.703871
20
65.821567
11
56.614519
21
65.205231
0
LINE
8
Layer 1
10
56.614519
20
65.205231
11
56.745300
21
64.573946
0
LINE
8
Layer 1
10
56.745300
20
64.573946
11
57.103822
21
63.698781
0
LINE
8
Layer 1
10
57.103822
20
63.698781
11
57.689389
21
62.557323
0
LINE
8
Layer 1
10
57.689389
20
62.557323
11
58.154042
21
61.945827
0
LINE
8
Layer 1
10
58.154042
20
61.945827
11
58.927773
21
61.946488
0
LINE
8
Layer 1
10
58.927773
20
61.946488
11
60.256599
21
62.276027
0
LINE
8
Layer 1
10
60.256599
20
62.276027
11
61.930619
21
62.641814
0
LINE
8
Layer 1
10
61.930619
20
62.641814
11
63.534259
21
62.728994
0
LINE
8
Layer 1
10
63.534259
20
62.728994
11
65.087541
21
62.617869
0
LINE
8
Layer 1
10
65.087541
20
62.617869
11
65.087541
21
61.042362
0
LINE
8
Layer 1
10
65.087541
20
61.042362
11
65.110846
21
60.128204
0
LINE
8
Layer 1
10
65.110846
20
60.128204
11
65.272397
21
59.632485
0
LINE
8
Layer 1
10
65.272397
20
59.632485
11
65.709643
21
59.384416
0
LINE
8
Layer 1
10
65.709643
20
59.384416
11
66.560036
21
59.213209
0
LINE
8
Layer 1
10
66.560036
20
59.213209
11
67.783123
21
58.912807
0
LINE
8
Layer 1
10
67.783123
20
58.912807
11
69.006772
21
58.432952
0
LINE
8
Layer 1
10
69.006772
20
58.432952
11
70.228900
21
57.774635
0
LINE
8
Layer 1
10
70.228900
20
57.774635
11
71.447423
21
56.938849
0
LINE
8
Layer 1
10
71.447423
20
56.938849
11
72.729170
21
56.108343
0
LINE
8
Layer 1
10
72.729170
20
56.108343
11
74.174794
21
55.390153
0
LINE
8
Layer 1
10
74.174794
20
55.390153
11
75.555131
21
54.883630
0
LINE
8
Layer 1
10
75.555131
20
54.883630
11
76.641020
21
54.688125
0
LINE
8
Layer 1
10
76.641020
20
54.688125
11
77.301597
21
54.722582
0
LINE
8
Layer 1
10
77.301597
20
54.722582
11
77.551011
21
54.906362
0
LINE
8
Layer 1
10
77.551011
20
54.906362
11
77.406196
21
55.339447
0
LINE
8
Layer 1
10
77.406196
20
55.339447
11
76.884085
21
56.121815
0
LINE
8
Layer 1
10
76.884085
20
56.121815
11
76.311614
21
57.205064
0
LINE
8
Layer 1
10
76.311614
20
57.205064
11
75.956631
21
58.375361
0
LINE
8
Layer 1
10
75.956631
20
58.375361
11
75.743167
21
59.270480
0
LINE
8
Layer 1
10
75.743167
20
59.270480
11
75.378163
21
59.859939
0
LINE
8
Layer 1
10
75.378163
20
59.859939
11
74.746062
21
60.258236
0
LINE
8
Layer 1
10
74.746062
20
60.258236
11
73.731308
21
60.579870
0
LINE
8
Layer 1
10
73.731308
20
60.579870
11
72.723895
21
61.006274
0
LINE
8
Layer 1
10
72.723895
20
61.006274
11
72.340304
21
61.503752
0
LINE
8
Layer 1
10
72.340304
20
61.503752
11
72.388994
21
61.730454
0
LINE
8
Layer 1
10
72.388994
20
61.730454
11
72.601503
21
61.916497
0
LINE
8
Layer 1
10
72.601503
20
61.916497
11
73.528460
21
62.088702
0
LINE
8
Layer 1
10
73.528460
20
62.088702
11
74.532951
21
62.223243
0
LINE
8
Layer 1
10
74.532951
20
62.223243
11
74.732332
21
62.426393
0
LINE
8
Layer 1
10
74.732332
20
62.426393
11
74.788936
21
62.751219
0
LINE
8
Layer 1
10
74.788936
20
62.751219
11
74.833427
21
63.229750
0
LINE
8
Layer 1
10
74.833427
20
63.229750
11
75.005365
21
63.597809
0
LINE
8
Layer 1
10
75.005365
20
63.597809
11
75.362446
21
63.866203
0
LINE
8
Layer 1
10
75.362446
20
63.866203
11
75.962364
21
64.045738
0
LINE
8
Layer 1
10
75.962364
20
64.045738
11
78.121497
21
64.181458
0
LINE
8
Layer 1
10
78.121497
20
64.181458
11
81.944332
21
64.091423
0
LINE
8
Layer 1
10
81.944332
20
64.091423
11
86.788476
21
63.822727
0
LINE
8
Layer 1
10
86.788476
20
63.822727
11
91.296962
21
63.395744
0
LINE
8
Layer 1
10
91.296962
20
63.395744
11
95.161121
21
62.846524
0
LINE
8
Layer 1
10
95.161121
20
62.846524
11
98.072284
21
62.211116
0
LINE
8
Layer 1
10
98.072284
20
62.211116
11
101.237144
21
61.506442
0
LINE
8
Layer 1
10
101.237144
20
61.506442
11
102.268744
21
61.418159
0
LINE
8
Layer 1
10
102.268744
20
61.418159
11
102.658398
21
61.545777
0
LINE
8
Layer 1
10
102.658398
20
61.545777
11
102.576613
21
62.026887
0
LINE
8
Layer 1
10
102.576613
20
62.026887
11
102.338621
21
62.485235
0
LINE
8
Layer 1
10
102.338621
20
62.485235
11
101.438183
21
63.305433
0
LINE
8
Layer 1
10
101.438183
20
63.305433
11
100.045421
21
63.949948
0
LINE
8
Layer 1
10
100.045421
20
63.949948
11
98.248673
21
64.362356
0
LINE
8
Layer 1
10
98.248673
20
64.362356
11
96.457178
21
64.792922
0
LINE
8
Layer 1
10
96.457178
20
64.792922
11
94.627054
21
65.479604
0
LINE
8
Layer 1
10
94.627054
20
65.479604
11
92.821955
21
66.184521
0
LINE
8
Layer 1
10
92.821955
20
66.184521
11
90.721713
21
66.657001
0
LINE
8
Layer 1
10
90.721713
20
66.657001
11
87.877595
21
66.968085
0
LINE
8
Layer 1
10
87.877595
20
66.968085
11
83.840867
21
67.188814
0
LINE
8
Layer 1
10
83.840867
20
67.188814
11
79.226398
21
67.242171
0
LINE
8
Layer 1
10
79.226398
20
67.242171
11
75.807053
21
66.978558
0
LINE
8
Layer 1
10
75.807053
20
66.978558
11
73.482820
21
66.725087
0
LINE
8
Layer 1
10
73.482820
20
66.725087
11
72.912196
21
66.794110
0
LINE
8
Layer 1
10
72.912196
20
66.794110
11
72.575960
21
66.994433
0
LINE
8
Layer 1
10
72.575960
20
66.994433
11
72.414272
21
67.255643
0
LINE
8
Layer 1
10
72.414272
20
67.255643
11
72.462233
21
67.543973
0
LINE
8
Layer 1
10
72.462233
20
67.543973
11
73.289629
21
68.405192
0
LINE
8
Layer 1
10
73.289629
20
68.405192
11
74.111492
21
69.171393
0
LINE
8
Layer 1
10
74.111492
20
69.171393
11
74.374157
21
69.631537
0
LINE
8
Layer 1
10
74.374157
20
69.631537
11
74.076038
21
69.813206
0
LINE
8
Layer 1
10
74.076038
20
69.813206
11
73.215546
21
69.743985
0
LINE
8
Layer 1
10
73.215546
20
69.743985
11
72.277668
21
69.682271
0
LINE
8
Layer 1
10
72.277668
20
69.682271
11
71.326982
21
69.780436
0
LINE
8
Layer 1
10
71.326982
20
69.780436
11
69.557150
21
70.370298
0
LINE
8
Layer 1
10
69.557150
20
70.370298
11
68.822985
21
70.818941
0
LINE
8
Layer 1
10
68.822985
20
70.818941
11
68.245973
21
71.341358
0
LINE
8
Layer 1
10
68.245973
20
71.341358
11
67.868607
21
71.916022
0
LINE
8
Layer 1
10
67.868607
20
71.916022
11
67.733376
21
72.521406
0
LINE
8
Layer 1
10
67.733376
20
72.521406
11
67.678773
21
73.119464
0
LINE
8
Layer 1
10
67.678773
20
73.119464
11
67.411378
21
73.312246
0
LINE
8
Layer 1
10
67.411378
20
73.312246
11
66.775815
21
73.095585
0
LINE
8
Layer 1
10
66.775815
20
73.095585
11
65.616708
21
72.465314
0
LINE
8
Layer 1
10
57.458717
20
163.512377
11
57.326425
21
162.983210
0
LINE
8
Layer 1
10
57.326425
20
162.983210
11
57.194133
21
162.269893
0
LINE
8
Layer 1
10
57.194133
20
162.269893
11
56.753293
21
161.570687
0
LINE
8
Layer 1
10
56.753293
20
161.570687
11
55.755505
21
160.396289
0
LINE
8
Layer 1
10
55.755505
20
160.396289
11
54.604853
21
159.007518
0
LINE
8
Layer 1
10
54.604853
20
159.007518
11
53.990115
21
157.770518
0
LINE
8
Layer 1
10
53.990115
20
157.770518
11
53.812602
21
156.354859
0
LINE
8
Layer 1
10
53.812602
20
156.354859
11
53.973623
21
154.430107
0
LINE
8
Layer 1
10
53.973623
20
154.430107
11
54.316876
21
149.665841
0
LINE
8
Layer 1
10
54.316876
20
149.665841
11
54.419005
21
148.108590
0
LINE
8
Layer 1
10
54.419005
20
148.108590
11
54.649193
21
147.460978
0
LINE
8
Layer 1
10
54.649193
20
147.460978
11
55.101851
21
147.927306
0
LINE
8
Layer 1
10
55.101851
20
147.927306
11
55.738924
21
149.048479
0
LINE
8
Layer 1
10
55.738924
20
149.048479
11
56.483859
21
150.239502
0
LINE
8
Layer 1
10
56.483859
20
150.239502
11
56.838417
21
150.536910
0
LINE
8
Layer 1
10
56.838417
20
150.536910
11
57.181433
21
150.635980
0
LINE
8
Layer 1
10
57.181433
20
150.635980
11
57.671955
21
150.704838
0
LINE
8
Layer 1
10
57.671955
20
150.704838
11
57.803866
21
150.976764
0
LINE
8
Layer 1
10
57.803866
20
150.976764
11
57.564765
21
151.549785
0
LINE
8
Layer 1
10
57.564765
20
151.549785
11
56.942250
21
152.521931
0
LINE
8
Layer 1
10
56.942250
20
152.521931
11
56.352890
21
153.526643
0
LINE
8
Layer 1
10
56.352890
20
153.526643
11
56.218349
21
154.055104
0
LINE
8
Layer 1
10
56.218349
20
154.055104
11
56.740064
21
153.948698
0
LINE
8
Layer 1
10
56.740064
20
153.948698
11
57.729297
21
153.427160
0
LINE
8
Layer 1
10
57.729297
20
153.427160
11
58.918865
21
152.871270
0
LINE
8
Layer 1
10
58.918865
20
152.871270
11
59.922166
21
152.682092
0
LINE
8
Layer 1
10
59.922166
20
152.682092
11
60.904917
21
152.516287
0
LINE
8
Layer 1
10
60.904917
20
152.516287
11
62.044831
21
152.016048
0
LINE
8
Layer 1
10
62.044831
20
152.016048
11
63.296134
21
151.277330
0
LINE
8
Layer 1
10
63.296134
20
151.277330
11
61.749556
21
152.985129
0
LINE
8
Layer 1
10
61.749556
20
152.985129
11
60.783787
21
154.119095
0
LINE
8
Layer 1
10
60.783787
20
154.119095
11
60.611273
21
154.542423
0
LINE
8
Layer 1
10
60.611273
20
154.542423
11
61.263929
21
154.264803
0
LINE
8
Layer 1
10
61.263929
20
154.264803
11
62.773670
21
153.295926
0
LINE
8
Layer 1
10
62.773670
20
153.295926
11
64.152900
21
152.449832
0
LINE
8
Layer 1
10
64.152900
20
152.449832
11
64.824369
21
152.195612
0
LINE
8
Layer 1
10
64.824369
20
152.195612
11
64.711568
21
152.687164
0
LINE
8
Layer 1
10
64.711568
20
152.687164
11
64.205596
21
153.634593
0
LINE
8
Layer 1
10
64.205596
20
153.634593
11
63.651470
21
154.700991
0
LINE
8
Layer 1
10
63.651470
20
154.700991
11
63.610482
21
154.970208
0
LINE
8
Layer 1
10
63.610482
20
154.970208
11
63.721761
21
155.063300
0
LINE
8
Layer 1
10
63.721761
20
155.063300
11
64.385777
21
154.720692
0
LINE
8
Layer 1
10
64.385777
20
154.720692
11
65.612827
21
153.672340
0
LINE
8
Layer 1
10
65.612827
20
153.672340
11
66.595474
21
152.793488
0
LINE
8
Layer 1
10
66.595474
20
152.793488
11
67.288832
21
152.323449
0
LINE
8
Layer 1
10
67.288832
20
152.323449
11
67.884492
21
152.169523
0
LINE
8
Layer 1
10
67.884492
20
152.169523
11
68.574046
21
152.239003
0
LINE
8
Layer 1
10
68.574046
20
152.239003
11
69.764231
21
152.259200
0
LINE
8
Layer 1
10
69.764231
20
152.259200
11
70.953886
21
151.878817
0
LINE
8
Layer 1
10
70.953886
20
151.878817
11
71.600870
21
151.575130
0
LINE
8
Layer 1
10
71.600870
20
151.575130
11
71.773390
21
151.575781
0
LINE
8
Layer 1
10
71.773390
20
151.575781
11
70.555600
21
152.820029
0
LINE
8
Layer 1
10
70.555600
20
152.820029
11
67.556987
21
155.499378
0
LINE
8
Layer 1
10
67.556987
20
155.499378
11
66.145875
21
156.654373
0
LINE
8
Layer 1
10
66.145875
20
156.654373
11
68.262543
21
156.422598
0
LINE
8
Layer 1
10
68.262543
20
156.422598
11
69.938459
21
156.148175
0
LINE
8
Layer 1
10
69.938459
20
156.148175
11
71.228877
21
155.718409
0
LINE
8
Layer 1
10
71.228877
20
155.718409
11
72.203117
21
155.101251
0
LINE
8
Layer 1
10
72.203117
20
155.101251
11
72.930501
21
154.264655
0
LINE
8
Layer 1
10
72.930501
20
154.264655
11
73.548216
21
153.322032
0
LINE
8
Layer 1
10
73.548216
20
153.322032
11
73.436032
21
154.624841
0
LINE
8
Layer 1
10
73.436032
20
154.624841
11
73.464266
21
155.664064
0
LINE
8
Layer 1
10
73.464266
20
155.664064
11
73.590454
21
155.857752
0
LINE
8
Layer 1
10
73.590454
20
155.857752
11
73.787311
21
155.836413
0
LINE
8
Layer 1
10
73.787311
20
155.836413
11
74.380893
21
155.155413
0
LINE
8
Layer 1
10
74.380893
20
155.155413
11
75.220736
21
153.634593
0
LINE
8
Layer 1
10
75.220736
20
153.634593
11
76.545065
21
151.341536
0
LINE
8
Layer 1
10
76.545065
20
151.341536
11
77.090460
21
152.135287
0
LINE
8
Layer 1
10
77.090460
20
152.135287
11
77.519129
21
152.681343
0
LINE
8
Layer 1
10
77.519129
20
152.681343
11
78.056013
21
152.880001
0
LINE
8
Layer 1
10
78.056013
20
152.880001
11
78.482549
21
152.854816
0
LINE
8
Layer 1
10
78.482549
20
152.854816
11
78.597307
21
153.037825
0
LINE
8
Layer 1
10
78.597307
20
153.037825
11
77.747685
21
155.033711
0
LINE
8
Layer 1
10
77.747685
20
155.033711
11
77.121096
21
156.915610
0
LINE
8
Layer 1
10
77.121096
20
156.915610
11
77.161612
21
157.378493
0
LINE
8
Layer 1
10
77.161612
20
157.378493
11
77.400640
21
157.524103
0
LINE
8
Layer 1
10
77.400640
20
157.524103
11
77.810158
21
157.353519
0
LINE
8
Layer 1
10
77.810158
20
157.353519
11
78.362147
21
156.867820
0
LINE
8
Layer 1
10
78.362147
20
156.867820
11
79.781450
21
154.955394
0
LINE
8
Layer 1
10
79.781450
20
154.955394
11
80.372772
21
154.189921
0
LINE
8
Layer 1
10
80.372772
20
154.189921
11
80.797275
21
154.067716
0
LINE
8
Layer 1
10
80.797275
20
154.067716
11
81.053237
21
154.587788
0
LINE
8
Layer 1
10
81.053237
20
154.587788
11
81.138940
21
155.749144
0
LINE
8
Layer 1
10
81.138940
20
155.749144
11
81.047559
21
157.047786
0
LINE
8
Layer 1
10
81.047559
20
157.047786
11
80.771434
21
158.193631
0
LINE
8
Layer 1
10
80.771434
20
158.193631
11
80.307586
21
159.195411
0
LINE
8
Layer 1
10
80.307586
20
159.195411
11
79.653039
21
160.061855
0
LINE
8
Layer 1
10
79.653039
20
160.061855
11
79.073998
21
160.569012
0
LINE
8
Layer 1
10
79.073998
20
160.569012
11
78.695247
21
160.654126
0
LINE
8
Layer 1
10
78.695247
20
160.654126
11
78.530279
21
160.323247
0
LINE
8
Layer 1
10
78.530279
20
160.323247
11
78.592588
21
159.582430
0
LINE
8
Layer 1
10
78.592588
20
159.582430
11
78.624427
21
158.848211
0
LINE
8
Layer 1
10
78.624427
20
158.848211
11
78.447034
21
158.796319
0
LINE
8
Layer 1
10
78.447034
20
158.796319
11
78.104344
21
158.904038
0
LINE
8
Layer 1
10
78.104344
20
158.904038
11
75.141714
21
159.533394
0
LINE
8
Layer 1
10
75.141714
20
159.533394
11
70.026433
21
160.589258
0
LINE
8
Layer 1
10
70.026433
20
160.589258
11
66.940739
21
161.345030
0
LINE
8
Layer 1
10
66.940739
20
161.345030
11
65.674123
21
161.500660
0
LINE
8
Layer 1
10
65.674123
20
161.500660
11
65.620794
21
161.312102
0
LINE
8
Layer 1
10
65.620794
20
161.312102
11
65.899625
21
160.923924
0
LINE
8
Layer 1
10
65.899625
20
160.923924
11
67.290287
21
159.482594
0
LINE
8
Layer 1
10
67.290287
20
159.482594
11
68.801500
21
157.837943
0
LINE
8
Layer 1
10
68.801500
20
157.837943
11
69.341691
21
157.065359
0
LINE
8
Layer 1
10
69.341691
20
157.065359
11
68.210200
21
157.747808
0
LINE
8
Layer 1
10
68.210200
20
157.747808
11
65.702080
21
159.600775
0
LINE
8
Layer 1
10
65.702080
20
159.600775
11
62.615317
21
161.753735
0
LINE
8
Layer 1
10
62.615317
20
161.753735
11
60.219910
21
162.987796
0
LINE
8
Layer 1
10
60.219910
20
162.987796
11
58.106153
21
163.635717
0
LINE
8
Layer 1
10
58.106153
20
163.635717
11
57.637244
21
163.663228
0
LINE
8
Layer 1
10
57.637244
20
163.663228
11
57.458717
21
163.512377
0
LINE
8
Layer 1
10
80.090484
20
92.767335
11
78.601805
21
91.567978
0
LINE
8
Layer 1
10
78.601805
20
91.567978
11
77.733574
21
91.165018
0
LINE
8
Layer 1
10
77.733574
20
91.165018
11
77.551937
21
91.168854
0
LINE
8
Layer 1
10
77.551937
20
91.168854
11
77.423747
21
91.023995
0
LINE
8
Layer 1
10
77.423747
20
91.023995
11
77.335640
21
90.305650
0
LINE
8
Layer 1
10
77.335640
20
90.305650
11
77.115215
21
89.312707
0
LINE
8
Layer 1
10
77.115215
20
89.312707
11
76.489282
21
88.166537
0
LINE
8
Layer 1
10
76.489282
20
88.166537
11
75.583883
21
87.053109
0
LINE
8
Layer 1
10
75.583883
20
87.053109
11
74.525058
21
86.158392
0
LINE
8
Layer 1
10
74.525058
20
86.158392
11
73.602896
21
85.548439
0
LINE
8
Layer 1
10
73.602896
20
85.548439
11
75.509661
21
85.548439
0
LINE
8
Layer 1
10
75.509661
20
85.548439
11
77.066559
21
85.425408
0
LINE
8
Layer 1
10
77.066559
20
85.425408
11
77.398292
21
85.233816
0
LINE
8
Layer 1
10
77.398292
20
85.233816
11
77.541310
21
84.921905
0
LINE
8
Layer 1
10
77.541310
20
84.921905
11
77.306746
21
84.171155
0
LINE
8
Layer 1
10
77.306746
20
84.171155
11
76.543477
21
83.263540
0
LINE
8
Layer 1
10
76.543477
20
83.263540
11
75.514567
21
82.451506
0
LINE
8
Layer 1
10
75.514567
20
82.451506
11
74.483077
21
81.987498
0
LINE
8
Layer 1
10
74.483077
20
81.987498
11
73.458676
21
81.731772
0
LINE
8
Layer 1
10
73.458676
20
81.731772
11
72.918595
21
81.422039
0
LINE
8
Layer 1
10
72.918595
20
81.422039
11
72.708053
21
80.883242
0
LINE
8
Layer 1
10
72.708053
20
80.883242
11
72.672268
21
79.940327
0
LINE
8
Layer 1
10
72.672268
20
79.940327
11
72.760534
21
78.927253
0
LINE
8
Layer 1
10
72.760534
20
78.927253
11
73.032057
21
78.134412
0
LINE
8
Layer 1
10
73.032057
20
78.134412
11
73.496925
21
77.542853
0
LINE
8
Layer 1
10
73.496925
20
77.542853
11
74.165224
21
77.133625
0
LINE
8
Layer 1
10
74.165224
20
77.133625
11
74.288642
21
76.987867
0
LINE
8
Layer 1
10
74.288642
20
76.987867
11
74.213026
21
76.738294
0
LINE
8
Layer 1
10
74.213026
20
76.738294
11
73.466018
21
75.929947
0
LINE
8
Layer 1
10
73.466018
20
75.929947
11
72.319490
21
74.709335
0
LINE
8
Layer 1
10
72.319490
20
74.709335
11
72.752404
21
74.338532
0
LINE
8
Layer 1
10
72.752404
20
74.338532
11
73.911930
21
74.027062
0
LINE
8
Layer 1
10
73.911930
20
74.027062
11
75.589246
21
73.813488
0
LINE
8
Layer 1
10
75.589246
20
73.813488
11
77.575529
21
73.736373
0
LINE
8
Layer 1
10
77.575529
20
73.736373
11
80.340295
21
73.879651
0
LINE
8
Layer 1
10
80.340295
20
73.879651
11
82.916147
21
74.254736
0
LINE
8
Layer 1
10
82.916147
20
74.254736
11
84.972490
21
74.796179
0
LINE
8
Layer 1
10
84.972490
20
74.796179
11
86.178727
21
75.438527
0
LINE
8
Layer 1
10
86.178727
20
75.438527
11
86.529415
21
75.818563
0
LINE
8
Layer 1
10
86.529415
20
75.818563
11
86.599547
21
76.065546
0
LINE
8
Layer 1
10
86.599547
20
76.065546
11
85.750101
21
76.542017
0
LINE
8
Layer 1
10
85.750101
20
76.542017
11
85.070833
21
76.932261
0
LINE
8
Layer 1
10
85.070833
20
76.932261
11
84.717829
21
77.366062
0
LINE
8
Layer 1
10
84.717829
20
77.366062
11
84.720359
21
77.773074
0
LINE
8
Layer 1
10
84.720359
20
77.773074
11
85.107692
21
78.082951
0
LINE
8
Layer 1
10
85.107692
20
78.082951
11
85.191433
21
78.216742
0
LINE
8
Layer 1
10
85.191433
20
78.216742
11
84.773259
21
78.288621
0
LINE
8
Layer 1
10
84.773259
20
78.288621
11
83.945730
21
78.567315
0
LINE
8
Layer 1
10
83.945730
20
78.567315
11
83.045705
21
79.198435
0
LINE
8
Layer 1
10
83.045705
20
79.198435
11
82.240974
21
79.821309
0
LINE
8
Layer 1
10
82.240974
20
79.821309
11
81.642354
21
80.080380
0
LINE
8
Layer 1
10
81.642354
20
80.080380
11
81.108160
21
80.353474
0
LINE
8
Layer 1
10
81.108160
20
80.353474
11
80.459137
21
81.009950
0
LINE
8
Layer 1
10
80.459137
20
81.009950
11
79.928586
21
82.049719
0
LINE
8
Layer 1
10
79.928586
20
82.049719
11
79.746658
21
83.286603
0
LINE
8
Layer 1
10
79.746658
20
83.286603
11
79.914177
21
84.583812
0
LINE
8
Layer 1
10
79.914177
20
84.583812
11
80.431973
21
85.804556
0
LINE
8
Layer 1
10
80.431973
20
85.804556
11
80.966784
21
87.166984
0
LINE
8
Layer 1
10
80.966784
20
87.166984
11
81.137529
21
88.974972
0
LINE
8
Layer 1
10
81.137529
20
88.974972
11
81.335437
21
90.923409
0
LINE
8
Layer 1
10
81.335437
20
90.923409
11
81.839204
21
92.767335
0
LINE
8
Layer 1
10
81.839204
20
92.767335
11
82.257731
21
94.020667
0
LINE
8
Layer 1
10
82.257731
20
94.020667
11
82.280177
21
94.538986
0
LINE
8
Layer 1
10
82.280177
20
94.538986
11
80.090484
21
92.767335
0
LINE
8
Layer 1
10
59.972260
20
170.453990
11
60.075889
21
170.126038
0
LINE
8
Layer 1
10
60.075889
20
170.126038
11
60.325038
21
169.862381
0
LINE
8
Layer 1
10
60.325038
20
169.862381
11
60.696061
21
169.457976
0
LINE
8
Layer 1
10
60.696061
20
169.457976
11
60.598176
21
169.049669
0
LINE
8
Layer 1
10
60.598176
20
169.049669
11
60.077090
21
168.693881
0
LINE
8
Layer 1
10
60.077090
20
168.693881
11
59.178509
21
168.447036
0
LINE
8
Layer 1
10
59.178509
20
168.447036
11
57.740052
21
168.100960
0
LINE
8
Layer 1
10
57.740052
20
168.100960
11
56.218482
21
167.555389
0
LINE
8
Layer 1
10
56.218482
20
167.555389
11
54.857977
21
166.911128
0
LINE
8
Layer 1
10
54.857977
20
166.911128
11
53.902715
21
166.268984
0
LINE
8
Layer 1
10
53.902715
20
166.268984
11
53.629642
21
165.959603
0
LINE
8
Layer 1
10
53.629642
20
165.959603
11
53.786386
21
165.796570
0
LINE
8
Layer 1
10
53.786386
20
165.796570
11
56.006330
21
165.759926
0
LINE
8
Layer 1
10
56.006330
20
165.759926
11
58.482567
21
165.710713
0
LINE
8
Layer 1
10
58.482567
20
165.710713
11
60.600558
21
165.510159
0
LINE
8
Layer 1
10
60.600558
20
165.510159
11
62.158469
21
165.364991
0
LINE
8
Layer 1
10
62.158469
20
165.364991
11
62.534084
21
165.479500
0
LINE
8
Layer 1
10
62.534084
20
165.479500
11
62.759912
21
165.730998
0
LINE
8
Layer 1
10
62.759912
20
165.730998
11
63.035034
21
165.926277
0
LINE
8
Layer 1
10
63.035034
20
165.926277
11
63.597230
21
165.815268
0
LINE
8
Layer 1
10
63.597230
20
165.815268
11
66.210433
21
164.439830
0
LINE
8
Layer 1
10
66.210433
20
164.439830
11
68.425780
21
163.225932
0
LINE
8
Layer 1
10
68.425780
20
163.225932
11
70.149993
21
162.452632
0
LINE
8
Layer 1
10
70.149993
20
162.452632
11
71.585414
21
162.044192
0
LINE
8
Layer 1
10
71.585414
20
162.044192
11
72.934382
21
161.924876
0
LINE
8
Layer 1
10
72.934382
20
161.924876
11
73.630242
21
162.000420
0
LINE
8
Layer 1
10
73.630242
20
162.000420
11
74.019483
21
162.199822
0
LINE
8
Layer 1
10
74.019483
20
162.199822
11
74.065228
21
162.482238
0
LINE
8
Layer 1
10
74.065228
20
162.482238
11
73.730602
21
162.806821
0
LINE
8
Layer 1
10
73.730602
20
162.806821
11
73.421094
21
163.161523
0
LINE
8
Layer 1
10
73.421094
20
163.161523
11
73.400314
21
163.567984
0
LINE
8
Layer 1
10
73.400314
20
163.567984
11
73.632871
21
163.902544
0
LINE
8
Layer 1
10
73.632871
20
163.902544
11
74.083380
21
164.041544
0
LINE
8
Layer 1
10
74.083380
20
164.041544
11
74.545911
21
164.107552
0
LINE
8
Layer 1
10
74.545911
20
164.107552
11
74.756789
21
164.296558
0
LINE
8
Layer 1
10
74.756789
20
164.296558
11
74.711485
21
164.595036
0
LINE
8
Layer 1
10
74.711485
20
164.595036
11
74.405466
21
164.989458
0
LINE
8
Layer 1
10
74.405466
20
164.989458
11
74.193381
21
165.388257
0
LINE
8
Layer 1
10
74.193381
20
165.388257
11
74.475669
21
165.612068
0
LINE
8
Layer 1
10
74.475669
20
165.612068
11
75.187906
21
165.644253
0
LINE
8
Layer 1
10
75.187906
20
165.644253
11
76.265665
21
165.468178
0
LINE
8
Layer 1
10
76.265665
20
165.468178
11
78.196771
21
165.128629
0
LINE
8
Layer 1
10
78.196771
20
165.128629
11
78.567343
21
165.208027
0
LINE
8
Layer 1
10
78.567343
20
165.208027
11
78.669494
21
165.452656
0
LINE
8
Layer 1
10
78.669494
20
165.452656
11
78.525340
21
165.701805
0
LINE
8
Layer 1
10
78.525340
20
165.701805
11
78.178780
21
165.805434
0
LINE
8
Layer 1
10
78.178780
20
165.805434
11
76.869665
21
166.437744
0
LINE
8
Layer 1
10
76.869665
20
166.437744
11
74.410405
21
167.957733
0
LINE
8
Layer 1
10
74.410405
20
167.957733
11
70.750907
21
170.218775
0
LINE
8
Layer 1
10
70.750907
20
170.218775
11
70.318572
21
170.301975
0
LINE
8
Layer 1
10
70.318572
20
170.301975
11
70.700592
21
169.743495
0
LINE
8
Layer 1
10
70.700592
20
169.743495
11
71.117664
21
169.142890
0
LINE
8
Layer 1
10
71.117664
20
169.142890
11
71.174373
21
168.776178
0
LINE
8
Layer 1
10
71.174373
20
168.776178
11
70.220373
21
168.890963
0
LINE
8
Layer 1
10
70.220373
20
168.890963
11
68.207510
21
169.447867
0
LINE
8
Layer 1
10
68.207510
20
169.447867
11
65.605259
21
170.103946
0
LINE
8
Layer 1
10
65.605259
20
170.103946
11
62.920558
21
170.544654
0
LINE
8
Layer 1
10
62.920558
20
170.544654
11
60.820520
21
170.688499
0
LINE
8
Layer 1
10
60.820520
20
170.688499
11
60.198223
21
170.623632
0
LINE
8
Layer 1
10
60.198223
20
170.623632
11
59.972260
21
170.453990
0
LINE
8
Layer 1
10
111.125070
20
141.277132
11
112.155535
21
139.049339
0
LINE
8
Layer 1
10
112.155535
20
139.049339
11
113.173729
21
136.746835
0
LINE
8
Layer 1
10
113.173729
20
136.746835
11
114.320710
21
133.675913
0
LINE
8
Layer 1
10
114.320710
20
133.675913
11
116.604418
21
126.359915
0
LINE
8
Layer 1
10
116.604418
20
126.359915
11
117.533415
21
123.362801
0
LINE
8
Layer 1
10
117.533415
20
123.362801
11
117.794994
21
123.198406
0
LINE
8
Layer 1
10
117.794994
20
123.198406
11
118.082205
21
123.625885
0
LINE
8
Layer 1
10
118.082205
20
123.625885
11
118.507385
21
124.225079
0
LINE
8
Layer 1
10
118.507385
20
124.225079
11
118.970368
21
124.489574
0
LINE
8
Layer 1
10
118.970368
20
124.489574
11
119.454848
21
124.416064
0
LINE
8
Layer 1
10
119.454848
20
124.416064
11
119.944520
21
124.001241
0
LINE
8
Layer 1
10
119.944520
20
124.001241
11
120.441761
21
123.575736
0
LINE
8
Layer 1
10
120.441761
20
123.575736
11
120.893757
21
123.514496
0
LINE
8
Layer 1
10
120.893757
20
123.514496
11
121.262543
21
123.806871
0
LINE
8
Layer 1
10
121.262543
20
123.806871
11
121.510149
21
124.442214
0
LINE
8
Layer 1
10
121.510149
20
124.442214
11
121.513280
21
125.712088
0
LINE
8
Layer 1
10
121.513280
20
125.712088
11
121.143348
21
127.541589
0
LINE
8
Layer 1
10
121.143348
20
127.541589
11
120.441761
21
129.773588
0
LINE
8
Layer 1
10
120.441761
20
129.773588
11
119.449925
21
132.250955
0
LINE
8
Layer 1
10
119.449925
20
132.250955
11
118.686381
21
134.176549
0
LINE
8
Layer 1
10
118.686381
20
134.176549
11
118.513652
21
135.034020
0
LINE
8
Layer 1
10
118.513652
20
135.034020
11
119.011395
21
134.679159
0
LINE
8
Layer 1
10
119.011395
20
134.679159
11
120.015649
21
133.630757
0
LINE
8
Layer 1
10
120.015649
20
133.630757
11
122.714886
21
130.372764
0
LINE
8
Layer 1
10
122.714886
20
130.372764
11
123.381857
21
129.586687
0
LINE
8
Layer 1
10
123.381857
20
129.586687
11
123.287092
21
130.174856
0
LINE
8
Layer 1
10
123.287092
20
130.174856
11
122.773262
21
131.434560
0
LINE
8
Layer 1
10
122.773262
20
131.434560
11
121.955046
21
132.831583
0
LINE
8
Layer 1
10
121.955046
20
132.831583
11
119.647746
21
135.770621
0
LINE
8
Layer 1
10
119.647746
20
135.770621
11
116.849775
21
138.458039
0
LINE
8
Layer 1
10
116.849775
20
138.458039
11
115.418221
21
139.540539
0
LINE
8
Layer 1
10
115.418221
20
139.540539
11
114.045719
21
140.359910
0
LINE
8
Layer 1
10
114.045719
20
140.359910
11
111.794158
21
141.365944
0
LINE
8
Layer 1
10
111.794158
20
141.365944
11
111.284708
21
141.451217
0
LINE
8
Layer 1
10
111.284708
20
141.451217
11
111.125070
21
141.277132
0
LINE
8
Layer 1
10
94.678912
20
87.335965
11
95.556492
21
85.970758
0
LINE
8
Layer 1
10
95.556492
20
85.970758
11
95.405145
21
85.862318
0
LINE
8
Layer 1
10
95.405145
20
85.862318
11
94.866943
21
86.093834
0
LINE
8
Layer 1
10
94.866943
20
86.093834
11
94.300690
21
86.325168
0
LINE
8
Layer 1
10
94.300690
20
86.325168
11
93.972298
21
86.328431
0
LINE
8
Layer 1
10
93.972298
20
86.328431
11
93.912814
21
86.023945
0
LINE
8
Layer 1
10
93.912814
20
86.023945
11
94.039613
21
85.482293
0
LINE
8
Layer 1
10
94.039613
20
85.482293
11
94.715072
21
83.949825
0
LINE
8
Layer 1
10
94.715072
20
83.949825
11
95.724701
21
82.255697
0
LINE
8
Layer 1
10
95.724701
20
82.255697
11
96.794522
21
80.924578
0
LINE
8
Layer 1
10
96.794522
20
80.924578
11
98.302207
21
79.031791
0
LINE
8
Layer 1
10
98.302207
20
79.031791
11
99.822063
21
76.514853
0
LINE
8
Layer 1
10
99.822063
20
76.514853
11
101.346240
21
73.825935
0
LINE
8
Layer 1
10
101.346240
20
73.825935
11
102.865126
21
71.518811
0
LINE
8
Layer 1
10
102.865126
20
71.518811
11
104.329772
21
69.347991
0
LINE
8
Layer 1
10
104.329772
20
69.347991
11
105.724039
21
66.986672
0
LINE
8
Layer 1
10
105.724039
20
66.986672
11
107.068123
21
64.490062
0
LINE
8
Layer 1
10
107.068123
20
64.490062
11
107.179954
21
66.005949
0
LINE
8
Layer 1
10
107.179954
20
66.005949
11
107.150371
21
66.945479
0
LINE
8
Layer 1
10
107.150371
20
66.945479
11
106.950570
21
68.087648
0
LINE
8
Layer 1
10
106.950570
20
68.087648
11
106.107415
21
70.853565
0
LINE
8
Layer 1
10
106.107415
20
70.853565
11
104.784694
21
74.051026
0
LINE
8
Layer 1
10
104.784694
20
74.051026
11
103.116613
21
77.427357
0
LINE
8
Layer 1
10
103.116613
20
77.427357
11
101.237377
21
80.729886
0
LINE
8
Layer 1
10
101.237377
20
80.729886
11
99.281194
21
83.705940
0
LINE
8
Layer 1
10
99.281194
20
83.705940
11
97.382267
21
86.102845
0
LINE
8
Layer 1
10
97.382267
20
86.102845
11
95.674805
21
87.667929
0
LINE
8
Layer 1
10
95.674805
20
87.667929
11
94.616206
21
88.326665
0
LINE
8
Layer 1
10
94.616206
20
88.326665
11
94.100797
21
88.492019
0
LINE
8
Layer 1
10
94.100797
20
88.492019
11
94.123419
21
88.162337
0
LINE
8
Layer 1
10
94.123419
20
88.162337
11
94.678912
21
87.335965
0
LINE
8
Layer 1
10
71.905681
20
88.806344
11
69.743130
21
86.684274
0
LINE
8
Layer 1
10
69.743130
20
86.684274
11
66.853371
21
83.612217
0
LINE
8
Layer 1
10
66.853371
20
83.612217
11
64.132681
21
80.567412
0
LINE
8
Layer 1
10
64.132681
20
80.567412
11
62.477337
21
78.527098
0
LINE
8
Layer 1
10
62.477337
20
78.527098
11
61.332192
21
76.476946
0
LINE
8
Layer 1
10
61.332192
20
76.476946
11
60.909988
21
74.845199
0
LINE
8
Layer 1
10
60.909988
20
74.845199
11
60.971798
21
74.228468
0
LINE
8
Layer 1
10
60.971798
20
74.228468
11
61.216514
21
73.767026
0
LINE
8
Layer 1
10
61.216514
20
73.767026
11
61.644858
21
73.477771
0
LINE
8
Layer 1
10
61.644858
20
73.477771
11
62.257556
21
73.377598
0
LINE
8
Layer 1
10
62.257556
20
73.377598
11
62.953190
21
73.545691
0
LINE
8
Layer 1
10
62.953190
20
73.545691
11
63.581620
21
74.116447
0
LINE
8
Layer 1
10
63.581620
20
74.116447
11
64.219707
21
75.189582
0
LINE
8
Layer 1
10
64.219707
20
75.189582
11
64.944313
21
76.864809
0
LINE
8
Layer 1
10
64.944313
20
76.864809
11
65.629645
21
78.481237
0
LINE
8
Layer 1
10
65.629645
20
78.481237
11
66.151828
21
79.164216
0
LINE
8
Layer 1
10
66.151828
20
79.164216
11
66.416841
21
79.187576
0
LINE
8
Layer 1
10
66.416841
20
79.187576
11
66.719189
21
79.015872
0
LINE
8
Layer 1
10
66.719189
20
79.015872
11
67.540054
21
78.138337
0
LINE
8
Layer 1
10
67.540054
20
78.138337
11
68.726799
21
76.728989
0
LINE
8
Layer 1
10
68.726799
20
76.728989
11
69.635202
21
77.578478
0
LINE
8
Layer 1
10
69.635202
20
77.578478
11
70.385963
21
78.405737
0
LINE
8
Layer 1
10
70.385963
20
78.405737
11
70.727712
21
79.124484
0
LINE
8
Layer 1
10
70.727712
20
79.124484
11
70.669608
21
79.779400
0
LINE
8
Layer 1
10
70.669608
20
79.779400
11
70.220814
21
80.415166
0
LINE
8
Layer 1
10
70.220814
20
80.415166
11
69.787794
21
80.981115
0
LINE
8
Layer 1
10
69.787794
20
80.981115
11
69.553435
21
81.616475
0
LINE
8
Layer 1
10
69.553435
20
81.616475
11
69.518555
21
82.323752
0
LINE
8
Layer 1
10
69.518555
20
82.323752
11
69.683974
21
83.105451
0
LINE
8
Layer 1
10
69.683974
20
83.105451
11
70.618979
21
84.902139
0
LINE
8
Layer 1
10
70.618979
20
84.902139
11
72.364998
21
87.026579
0
LINE
8
Layer 1
10
72.364998
20
87.026579
11
73.740088
21
88.777719
0
LINE
8
Layer 1
10
73.740088
20
88.777719
11
74.036953
21
89.397319
0
LINE
8
Layer 1
10
74.036953
20
89.397319
11
74.083071
21
89.808630
0
LINE
8
Layer 1
10
74.083071
20
89.808630
11
73.885723
21
89.983420
0
LINE
8
Layer 1
10
73.885723
20
89.983420
11
73.452188
21
89.893457
0
LINE
8
Layer 1
10
73.452188
20
89.893457
11
71.905681
21
88.806344
0
LINE
8
Layer 1
10
62.794484
20
108.479009
11
61.444667
21
108.135359
0
LINE
8
Layer 1
10
61.444667
20
108.135359
11
59.933454
21
107.976653
0
LINE
8
Layer 1
10
59.933454
20
107.976653
11
58.366282
21
107.735662
0
LINE
8
Layer 1
10
58.366282
20
107.735662
11
56.934841
21
107.007572
0
LINE
8
Layer 1
10
56.934841
20
107.007572
11
54.183526
21
105.271904
0
LINE
8
Layer 1
10
54.183526
20
105.271904
11
52.804517
21
104.478506
0
LINE
8
Layer 1
10
52.804517
20
104.478506
11
54.183526
21
103.879842
0
LINE
8
Layer 1
10
54.183526
20
103.879842
11
55.649759
21
103.404297
0
LINE
8
Layer 1
10
55.649759
20
103.404297
11
57.238231
21
103.101261
0
LINE
8
Layer 1
10
57.238231
20
103.101261
11
58.629455
21
103.065895
0
LINE
8
Layer 1
10
58.629455
20
103.065895
11
58.859615
21
103.244335
0
LINE
8
Layer 1
10
58.859615
20
103.244335
11
58.913926
21
103.593034
0
LINE
8
Layer 1
10
58.913926
20
103.593034
11
58.752530
21
104.297972
0
LINE
8
Layer 1
10
58.752530
20
104.297972
11
58.364651
21
105.048949
0
LINE
8
Layer 1
10
58.364651
20
105.048949
11
58.019573
21
105.598191
0
LINE
8
Layer 1
10
58.019573
20
105.598191
11
58.045872
21
105.785549
0
LINE
8
Layer 1
10
58.045872
20
105.785549
11
59.441329
21
105.081757
0
LINE
8
Layer 1
10
59.441329
20
105.081757
11
60.829929
21
104.484190
0
LINE
8
Layer 1
10
60.829929
20
104.484190
11
62.193527
21
104.285316
0
LINE
8
Layer 1
10
62.193527
20
104.285316
11
63.380911
21
104.485105
0
LINE
8
Layer 1
10
63.380911
20
104.485105
11
64.240874
21
105.083521
0
LINE
8
Layer 1
10
64.240874
20
105.083521
11
64.714258
21
105.864042
0
LINE
8
Layer 1
10
64.714258
20
105.864042
11
64.911152
21
106.577888
0
LINE
8
Layer 1
10
64.911152
20
106.577888
11
64.992379
21
107.072654
0
LINE
8
Layer 1
10
64.992379
20
107.072654
11
65.245056
21
107.203584
0
LINE
8
Layer 1
10
65.245056
20
107.203584
11
65.682677
21
106.968662
0
LINE
8
Layer 1
10
65.682677
20
106.968662
11
66.318736
21
106.365869
0
LINE
8
Layer 1
10
66.318736
20
106.365869
11
66.928337
21
105.527845
0
LINE
8
Layer 1
10
66.928337
20
105.527845
11
66.868012
21
105.227829
0
LINE
8
Layer 1
10
66.868012
20
105.227829
11
66.589670
21
104.866562
0
LINE
8
Layer 1
10
66.589670
20
104.866562
11
66.218503
21
104.270544
0
LINE
8
Layer 1
10
66.218503
20
104.270544
11
66.552981
21
103.770834
0
LINE
8
Layer 1
10
66.552981
20
103.770834
11
67.174223
21
103.474236
0
LINE
8
Layer 1
10
67.174223
20
103.474236
11
68.115082
21
103.728500
0
LINE
8
Layer 1
10
68.115082
20
103.728500
11
68.964819
21
104.148295
0
LINE
8
Layer 1
10
68.964819
20
104.148295
11
69.306457
21
104.605330
0
LINE
8
Layer 1
10
69.306457
20
104.605330
11
69.173498
21
105.281176
0
LINE
8
Layer 1
10
69.173498
20
105.281176
11
68.599446
21
106.357402
0
LINE
8
Layer 1
10
68.599446
20
106.357402
11
67.949497
21
107.777863
0
LINE
8
Layer 1
10
67.949497
20
107.777863
11
68.107470
21
107.995108
0
LINE
8
Layer 1
10
68.107470
20
107.995108
11
68.586746
21
107.971714
0
LINE
8
Layer 1
10
68.586746
20
107.971714
11
68.681996
21
108.089542
0
LINE
8
Layer 1
10
68.681996
20
108.089542
11
68.455513
21
108.459253
0
LINE
8
Layer 1
10
68.455513
20
108.459253
11
67.578319
21
108.849343
0
LINE
8
Layer 1
10
67.578319
20
108.849343
11
66.074261
21
108.983614
0
LINE
8
Layer 1
10
66.074261
20
108.983614
11
64.345572
21
108.860643
0
LINE
8
Layer 1
10
64.345572
20
108.860643
11
62.794484
21
108.479009
0
LINE
8
Layer 1
10
79.022272
20
162.314696
11
79.946550
21
161.192509
0
LINE
8
Layer 1
10
79.946550
20
161.192509
11
80.923856
21
160.130493
0
LINE
8
Layer 1
10
80.923856
20
160.130493
11
81.767943
21
158.878903
0
LINE
8
Layer 1
10
81.767943
20
158.878903
11
82.474447
21
157.445411
0
LINE
8
Layer 1
10
82.474447
20
157.445411
11
83.039002
21
155.837692
0
LINE
8
Layer 1
10
83.039002
20
155.837692
11
83.611208
21
154.339091
0
LINE
8
Layer 1
10
83.611208
20
154.339091
11
83.890201
21
153.945688
0
LINE
8
Layer 1
10
83.890201
20
153.945688
11
84.152722
21
153.810982
0
LINE
8
Layer 1
10
84.152722
20
153.810982
11
84.733792
21
153.474123
0
LINE
8
Layer 1
10
84.733792
20
153.474123
11
85.394501
21
152.664454
0
LINE
8
Layer 1
10
85.394501
20
152.664454
11
86.112051
21
151.517925
0
LINE
8
Layer 1
10
86.112051
20
151.517925
11
85.879218
21
152.840843
0
LINE
8
Layer 1
10
85.879218
20
152.840843
11
85.783549
21
153.719298
0
LINE
8
Layer 1
10
85.783549
20
153.719298
11
85.919258
21
154.093689
0
LINE
8
Layer 1
10
85.919258
20
154.093689
11
86.321139
21
153.980916
0
LINE
8
Layer 1
10
86.321139
20
153.980916
11
87.023983
21
153.397879
0
LINE
8
Layer 1
10
87.023983
20
153.397879
11
87.654750
21
152.912589
0
LINE
8
Layer 1
10
87.654750
20
152.912589
11
88.027283
21
152.820734
0
LINE
8
Layer 1
10
88.027283
20
152.820734
11
88.051278
21
153.756549
0
LINE
8
Layer 1
10
88.051278
20
153.756549
11
87.794317
21
155.676516
0
LINE
8
Layer 1
10
87.794317
20
155.676516
11
87.374969
21
157.861397
0
LINE
8
Layer 1
10
87.374969
20
157.861397
11
86.911799
21
159.591955
0
LINE
8
Layer 1
10
86.911799
20
159.591955
11
86.418494
21
160.669174
0
LINE
8
Layer 1
10
86.418494
20
160.669174
11
85.780528
21
161.646711
0
LINE
8
Layer 1
10
85.780528
20
161.646711
11
85.126555
21
162.356489
0
LINE
8
Layer 1
10
85.126555
20
162.356489
11
84.585228
21
162.630432
0
LINE
8
Layer 1
10
84.585228
20
162.630432
11
84.526711
21
162.400112
0
LINE
8
Layer 1
10
84.526711
20
162.400112
11
84.823001
21
161.846207
0
LINE
8
Layer 1
10
84.823001
20
161.846207
11
85.199580
21
161.138435
0
LINE
8
Layer 1
10
85.199580
20
161.138435
11
85.353843
21
160.481132
0
LINE
8
Layer 1
10
85.353843
20
160.481132
11
85.277522
21
159.996867
0
LINE
8
Layer 1
10
85.277522
20
159.996867
11
84.962348
21
159.808208
0
LINE
8
Layer 1
10
84.962348
20
159.808208
11
84.181342
21
160.123459
0
LINE
8
Layer 1
10
84.181342
20
160.123459
11
82.879899
21
160.881359
0
LINE
8
Layer 1
10
82.879899
20
160.881359
11
81.547292
21
161.639214
0
LINE
8
Layer 1
10
81.547292
20
161.639214
11
80.302327
21
162.189371
0
LINE
8
Layer 1
10
80.302327
20
162.189371
11
79.381742
21
162.443857
0
LINE
8
Layer 1
10
79.381742
20
162.443857
11
79.117071
21
162.432730
0
LINE
8
Layer 1
10
79.117071
20
162.432730
11
79.022272
21
162.314696
0
LINE
8
Layer 1
10
110.790636
20
152.188556
11
111.608685
21
150.503732
0
LINE
8
Layer 1
10
111.608685
20
150.503732
11
112.075630
21
149.238538
0
LINE
8
Layer 1
10
112.075630
20
149.238538
11
112.177715
21
148.442847
0
LINE
8
Layer 1
10
112.177715
20
148.442847
11
112.087636
21
148.236651
0
LINE
8
Layer 1
10
112.087636
20
148.236651
11
111.901182
21
148.166534
0
LINE
8
Layer 1
10
111.901182
20
148.166534
11
111.188923
21
148.596570
0
LINE
8
Layer 1
10
111.188923
20
148.596570
11
110.988198
21
148.758473
0
LINE
8
Layer 1
10
110.988198
20
148.758473
11
110.887783
21
148.723394
0
LINE
8
Layer 1
10
110.887783
20
148.723394
11
110.956795
21
147.979209
0
LINE
8
Layer 1
10
110.956795
20
147.979209
11
111.413995
21
145.345016
0
LINE
8
Layer 1
10
111.413995
20
145.345016
11
111.645859
21
144.376414
0
LINE
8
Layer 1
10
111.645859
20
144.376414
11
112.276714
21
143.533192
0
LINE
8
Layer 1
10
112.276714
20
143.533192
11
113.789690
21
142.361159
0
LINE
8
Layer 1
10
113.789690
20
142.361159
11
116.667918
21
140.406124
0
LINE
8
Layer 1
10
116.667918
20
140.406124
11
122.924789
21
135.995693
0
LINE
8
Layer 1
10
122.924789
20
135.995693
11
123.073871
21
135.892044
0
LINE
8
Layer 1
10
123.073871
20
135.892044
11
123.010960
21
136.005957
0
LINE
8
Layer 1
10
123.010960
20
136.005957
11
122.312410
21
136.816255
0
LINE
8
Layer 1
10
122.312410
20
136.816255
11
119.067161
21
140.275243
0
LINE
8
Layer 1
10
119.067161
20
140.275243
11
115.291863
21
144.404421
0
LINE
8
Layer 1
10
115.291863
20
144.404421
11
114.291512
21
145.678005
0
LINE
8
Layer 1
10
114.291512
20
145.678005
11
113.947294
21
146.347611
0
LINE
8
Layer 1
10
113.947294
20
146.347611
11
113.818858
21
147.216621
0
LINE
8
Layer 1
10
113.818858
20
147.216621
11
113.470801
21
148.362497
0
LINE
8
Layer 1
10
113.470801
20
148.362497
11
112.339332
21
151.026902
0
LINE
8
Layer 1
10
112.339332
20
151.026902
11
110.999900
21
153.424938
0
LINE
8
Layer 1
10
110.999900
20
153.424938
11
110.391890
21
154.237852
0
LINE
8
Layer 1
10
110.391890
20
154.237852
11
109.899519
21
154.640716
0
LINE
8
Layer 1
10
109.899519
20
154.640716
11
109.798101
21
154.525060
0
LINE
8
Layer 1
10
109.798101
20
154.525060
11
109.925581
21
154.042757
0
LINE
8
Layer 1
10
109.925581
20
154.042757
11
110.790636
21
152.188556
0
LINE
8
Layer 1
10
77.963938
20
172.989405
11
77.909335
21
172.719591
0
LINE
8
Layer 1
10
77.909335
20
172.719591
11
77.708086
21
172.587988
0
LINE
8
Layer 1
10
77.708086
20
172.587988
11
76.641020
21
172.688486
0
LINE
8
Layer 1
10
76.641020
20
172.688486
11
74.901119
21
172.992580
0
LINE
8
Layer 1
10
74.901119
20
172.992580
11
74.851425
21
172.896259
0
LINE
8
Layer 1
10
74.851425
20
172.896259
11
75.157479
21
172.585419
0
LINE
8
Layer 1
10
75.157479
20
172.585419
11
76.567290
21
171.511177
0
LINE
8
Layer 1
10
76.567290
20
171.511177
11
80.690912
21
168.889419
0
LINE
8
Layer 1
10
80.690912
20
168.889419
11
82.937138
21
167.786635
0
LINE
8
Layer 1
10
82.937138
20
167.786635
11
84.983867
21
166.997118
0
LINE
8
Layer 1
10
84.983867
20
166.997118
11
89.885718
21
165.052253
0
LINE
8
Layer 1
10
89.885718
20
165.052253
11
92.048908
21
164.124888
0
LINE
8
Layer 1
10
92.048908
20
164.124888
11
93.040259
21
163.830936
0
LINE
8
Layer 1
10
93.040259
20
163.830936
11
92.359397
21
164.376595
0
LINE
8
Layer 1
10
92.359397
20
164.376595
11
90.501668
21
165.467825
0
LINE
8
Layer 1
10
90.501668
20
165.467825
11
87.863550
21
167.125926
0
LINE
8
Layer 1
10
87.863550
20
167.125926
11
85.306659
21
169.035117
0
LINE
8
Layer 1
10
85.306659
20
169.035117
11
81.807895
21
171.666355
0
LINE
8
Layer 1
10
81.807895
20
171.666355
11
80.297101
21
172.561403
0
LINE
8
Layer 1
10
80.297101
20
172.561403
11
78.934078
21
173.183433
0
LINE
8
Layer 1
10
78.934078
20
173.183433
11
78.147383
21
173.374021
0
LINE
8
Layer 1
10
78.147383
20
173.374021
11
78.002413
21
173.258046
0
LINE
8
Layer 1
10
78.002413
20
173.258046
11
77.963938
21
172.989405
0
LINE
8
Layer 1
10
88.471431
20
168.807928
11
92.230986
21
166.833429
0
LINE
8
Layer 1
10
92.230986
20
166.833429
11
94.934362
21
165.406056
0
LINE
8
Layer 1
10
94.934362
20
165.406056
11
97.395347
21
163.741947
0
LINE
8
Layer 1
10
97.395347
20
163.741947
11
99.763529
21
161.727133
0
LINE
8
Layer 1
10
99.763529
20
161.727133
11
102.188498
21
159.247644
0
LINE
8
Layer 1
10
102.188498
20
159.247644
11
104.406413
21
157.019228
0
LINE
8
Layer 1
10
104.406413
20
157.019228
11
105.149733
21
156.445760
0
LINE
8
Layer 1
10
105.149733
20
156.445760
11
105.634257
21
156.234082
0
LINE
8
Layer 1
10
105.634257
20
156.234082
11
105.848707
21
156.385164
0
LINE
8
Layer 1
10
105.848707
20
156.385164
11
105.781806
21
156.899978
0
LINE
8
Layer 1
10
105.781806
20
156.899978
11
104.758838
21
159.024688
0
LINE
8
Layer 1
10
104.758838
20
159.024688
11
103.386262
21
160.842895
0
LINE
8
Layer 1
10
103.386262
20
160.842895
11
101.312770
21
162.614998
0
LINE
8
Layer 1
10
101.312770
20
162.614998
11
98.364632
21
164.466344
0
LINE
8
Layer 1
10
98.364632
20
164.466344
11
94.368115
21
166.522279
0
LINE
8
Layer 1
10
94.368115
20
166.522279
11
88.547278
21
169.146947
0
LINE
8
Layer 1
10
88.547278
20
169.146947
11
87.665333
21
169.398478
0
LINE
8
Layer 1
10
87.665333
20
169.398478
11
88.471431
21
168.807928
0
LINE
8
Layer 1
10
119.648186
20
80.521353
11
118.288944
21
75.103443
0
LINE
8
Layer 1
10
118.288944
20
75.103443
11
117.864012
21
72.436210
0
LINE
8
Layer 1
10
117.864012
20
72.436210
11
118.005612
21
72.021049
0
LINE
8
Layer 1
10
118.005612
20
72.021049
11
118.385230
21
72.157901
0
LINE
8
Layer 1
10
118.385230
20
72.157901
11
119.864439
21
73.906765
0
LINE
8
Layer 1
10
119.864439
20
73.906765
11
121.091252
21
75.739992
0
LINE
8
Layer 1
10
121.091252
20
75.739992
11
121.793826
21
77.271429
0
LINE
8
Layer 1
10
121.793826
20
77.271429
11
122.007516
21
78.612168
0
LINE
8
Layer 1
10
122.007516
20
78.612168
11
121.767677
21
79.873299
0
LINE
8
Layer 1
10
121.767677
20
79.873299
11
121.470770
21
81.186427
0
LINE
8
Layer 1
10
121.470770
20
81.186427
11
121.309065
21
82.814409
0
LINE
8
Layer 1
10
121.309065
20
82.814409
11
121.189033
21
84.122378
0
LINE
8
Layer 1
10
121.189033
20
84.122378
11
120.992271
21
84.666494
0
LINE
8
Layer 1
10
120.992271
20
84.666494
11
120.493663
21
83.448793
0
LINE
8
Layer 1
10
120.493663
20
83.448793
11
119.648186
21
80.521353
0
LINE
8
Layer 1
10
103.074323
20
152.620356
11
103.205557
21
149.842582
0
LINE
8
Layer 1
10
103.205557
20
149.842582
11
105.420650
21
147.760839
0
LINE
8
Layer 1
10
105.420650
20
147.760839
11
107.092156
21
146.356871
0
LINE
8
Layer 1
10
107.092156
20
146.356871
11
107.684178
21
145.981449
0
LINE
8
Layer 1
10
107.684178
20
145.981449
11
108.000868
21
145.904874
0
LINE
8
Layer 1
10
108.000868
20
145.904874
11
108.178627
21
146.136336
0
LINE
8
Layer 1
10
108.178627
20
146.136336
11
108.242240
21
146.513356
0
LINE
8
Layer 1
10
108.242240
20
146.513356
11
108.068116
21
147.566767
0
LINE
8
Layer 1
10
108.068116
20
147.566767
11
107.560684
21
148.790505
0
LINE
8
Layer 1
10
107.560684
20
148.790505
11
106.802128
21
149.909963
0
LINE
8
Layer 1
10
106.802128
20
149.909963
11
104.328802
21
153.273348
0
LINE
8
Layer 1
10
104.328802
20
153.273348
11
102.942737
21
155.398483
0
LINE
8
Layer 1
10
102.942737
20
155.398483
11
103.074323
21
152.620356
0
LINE
8
Layer 1
10
65.439966
20
44.756366
11
65.898059
21
43.634653
0
LINE
8
Layer 1
10
65.898059
20
43.634653
11
66.598048
21
42.368941
0
LINE
8
Layer 1
10
66.598048
20
42.368941
11
67.404796
21
41.179429
0
LINE
8
Layer 1
10
67.404796
20
41.179429
11
68.183168
21
40.286316
0
LINE
8
Layer 1
10
68.183168
20
40.286316
11
69.052766
21
39.474221
0
LINE
8
Layer 1
10
69.052766
20
39.474221
11
69.251380
21
40.234458
0
LINE
8
Layer 1
10
69.251380
20
40.234458
11
69.408371
21
40.640114
0
LINE
8
Layer 1
10
69.408371
20
40.640114
11
69.699011
21
40.837047
0
LINE
8
Layer 1
10
69.699011
20
40.837047
11
71.237520
21
40.748808
0
LINE
8
Layer 1
10
71.237520
20
40.748808
11
72.450850
21
40.673639
0
LINE
8
Layer 1
10
72.450850
20
40.673639
11
72.996603
21
40.847277
0
LINE
8
Layer 1
10
72.996603
20
40.847277
11
72.849081
21
41.233442
0
LINE
8
Layer 1
10
72.849081
20
41.233442
11
71.982587
21
41.795853
0
LINE
8
Layer 1
10
71.982587
20
41.795853
11
70.918873
21
42.584091
0
LINE
8
Layer 1
10
70.918873
20
42.584091
11
69.824997
21
43.722374
0
LINE
8
Layer 1
10
69.824997
20
43.722374
11
68.790916
21
44.791997
0
LINE
8
Layer 1
10
68.790916
20
44.791997
11
68.433354
21
44.864283
0
LINE
8
Layer 1
10
68.433354
20
44.864283
11
68.052640
21
44.699569
0
LINE
8
Layer 1
10
68.052640
20
44.699569
11
67.679759
21
44.525583
0
LINE
8
Layer 1
10
67.679759
20
44.525583
11
67.305853
21
44.501749
0
LINE
8
Layer 1
10
67.305853
20
44.501749
11
66.292631
21
44.940516
0
LINE
8
Layer 1
10
66.292631
20
44.940516
11
65.189847
21
45.591744
0
LINE
8
Layer 1
10
65.189847
20
45.591744
11
65.439966
21
44.756366
0
LINE
8
Layer 1
10
93.838948
20
99.191775
11
94.120002
21
98.651799
0
LINE
8
Layer 1
10
94.120002
20
98.651799
11
94.850715
21
97.997225
0
LINE
8
Layer 1
10
94.850715
20
97.997225
11
95.862416
21
97.353697
0
LINE
8
Layer 1
10
95.862416
20
97.353697
11
96.986433
21
96.846860
0
LINE
8
Layer 1
10
96.986433
20
96.846860
11
98.810472
21
96.399846
0
LINE
8
Layer 1
10
98.810472
20
96.399846
11
101.033503
21
96.088035
0
LINE
8
Layer 1
10
101.033503
20
96.088035
11
103.054391
21
95.989565
0
LINE
8
Layer 1
10
103.054391
20
95.989565
11
103.157976
21
96.130351
0
LINE
8
Layer 1
10
103.157976
20
96.130351
11
102.834787
21
96.431640
0
LINE
8
Layer 1
10
102.834787
20
96.431640
11
102.469772
21
96.746180
0
LINE
8
Layer 1
10
102.469772
20
96.746180
11
102.427152
21
96.918342
0
LINE
8
Layer 1
10
102.427152
20
96.918342
11
103.540343
21
97.032774
0
LINE
8
Layer 1
10
103.540343
20
97.032774
11
104.042925
21
97.092416
0
LINE
8
Layer 1
10
104.042925
20
97.092416
11
103.873233
21
97.240296
0
LINE
8
Layer 1
10
103.873233
20
97.240296
11
101.247286
21
97.903430
0
LINE
8
Layer 1
10
101.247286
20
97.903430
11
96.310863
21
99.107814
0
LINE
8
Layer 1
10
96.310863
20
99.107814
11
94.521662
21
99.468089
0
LINE
8
Layer 1
10
94.521662
20
99.468089
11
94.017718
21
99.410332
0
LINE
8
Layer 1
10
94.017718
20
99.410332
11
93.838948
21
99.191775
0
LINE
8
Layer 1
10
98.861801
20
155.441169
11
99.216475
21
153.265499
0
LINE
8
Layer 1
10
99.216475
20
153.265499
11
99.560252
21
152.511734
0
LINE
8
Layer 1
10
99.560252
20
152.511734
11
100.083119
21
151.776158
0
LINE
8
Layer 1
10
100.083119
20
151.776158
11
101.057210
21
150.682795
0
LINE
8
Layer 1
10
101.057210
20
150.682795
11
101.384814
21
150.448332
0
LINE
8
Layer 1
10
101.384814
20
150.448332
11
101.623215
21
150.429914
0
LINE
8
Layer 1
10
101.623215
20
150.429914
11
101.883692
21
151.064908
0
LINE
8
Layer 1
10
101.883692
20
151.064908
11
101.941200
21
152.635173
0
LINE
8
Layer 1
10
101.941200
20
152.635173
11
101.929559
21
155.045705
0
LINE
8
Layer 1
10
101.929559
20
155.045705
11
100.299724
21
156.440236
0
LINE
8
Layer 1
10
100.299724
20
156.440236
11
98.669890
21
157.834768
0
LINE
8
Layer 1
10
98.669890
20
157.834768
11
98.861801
21
155.441169
0
LINE
8
Layer 1
10
21.711369
20
143.258334
11
20.668563
21
140.874673
0
LINE
8
Layer 1
10
20.668563
20
140.874673
11
19.696434
21
138.121754
0
LINE
8
Layer 1
10
19.696434
20
138.121754
11
18.979826
21
135.579244
0
LINE
8
Layer 1
10
18.979826
20
135.579244
11
18.703584
21
133.826814
0
LINE
8
Layer 1
10
18.703584
20
133.826814
11
18.734127
21
133.133616
0
LINE
8
Layer 1
10
18.734127
20
133.133616
11
18.786574
21
133.015291
0
LINE
8
Layer 1
10
18.786574
20
133.015291
11
18.879664
21
133.068606
0
LINE
8
Layer 1
10
18.879664
20
133.068606
11
19.896326
21
135.290137
0
LINE
8
Layer 1
10
19.896326
20
135.290137
11
21.628466
21
139.170695
0
LINE
8
Layer 1
10
21.628466
20
139.170695
11
22.098565
21
140.499996
0
LINE
8
Layer 1
10
22.098565
20
140.499996
11
22.542338
21
142.343580
0
LINE
8
Layer 1
10
22.542338
20
142.343580
11
22.822069
21
144.029738
0
LINE
8
Layer 1
10
22.822069
20
144.029738
11
22.800042
21
144.886757
0
LINE
8
Layer 1
10
22.800042
20
144.886757
11
22.408106
21
144.480533
0
LINE
8
Layer 1
10
22.408106
20
144.480533
11
21.711369
21
143.258334
0
LINE
8
Layer 1
10
59.541518
20
143.570895
11
56.760437
21
142.157931
0
LINE
8
Layer 1
10
56.760437
20
142.157931
11
55.776313
21
141.480255
0
LINE
8
Layer 1
10
55.776313
20
141.480255
11
55.390379
21
141.022780
0
LINE
8
Layer 1
10
55.390379
20
141.022780
11
55.542912
21
140.835851
0
LINE
8
Layer 1
10
55.542912
20
140.835851
11
55.915313
21
140.758196
0
LINE
8
Layer 1
10
55.915313
20
140.758196
11
56.297559
21
140.695837
0
LINE
8
Layer 1
10
56.297559
20
140.695837
11
56.416081
21
140.498507
0
LINE
8
Layer 1
10
56.416081
20
140.498507
11
55.858516
21
139.637420
0
LINE
8
Layer 1
10
55.858516
20
139.637420
11
55.428237
21
139.008919
0
LINE
8
Layer 1
10
55.428237
20
139.008919
11
55.446187
21
138.849927
0
LINE
8
Layer 1
10
55.446187
20
138.849927
11
55.609807
21
138.794590
0
LINE
8
Layer 1
10
55.609807
20
138.794590
11
56.344886
21
138.995326
0
LINE
8
Layer 1
10
56.344886
20
138.995326
11
57.575133
21
139.612020
0
LINE
8
Layer 1
10
57.575133
20
139.612020
11
58.965387
21
140.567564
0
LINE
8
Layer 1
10
58.965387
20
140.567564
11
59.322327
21
140.976924
0
LINE
8
Layer 1
10
59.322327
20
140.976924
11
59.443093
21
141.330755
0
LINE
8
Layer 1
10
59.443093
20
141.330755
11
59.565694
21
141.684652
0
LINE
8
Layer 1
10
59.565694
20
141.684652
11
59.912729
21
142.125431
0
LINE
8
Layer 1
10
59.912729
20
142.125431
11
61.158652
21
143.139447
0
LINE
8
Layer 1
10
61.158652
20
143.139447
11
62.384776
21
144.062050
0
LINE
8
Layer 1
10
62.384776
20
144.062050
11
62.389809
21
144.229565
0
LINE
8
Layer 1
10
62.389809
20
144.229565
11
62.040597
21
144.266573
0
LINE
8
Layer 1
10
62.040597
20
144.266573
11
60.962508
21
144.054333
0
LINE
8
Layer 1
10
60.962508
20
144.054333
11
59.541518
21
143.570895
0
LINE
8
Layer 1
10
79.082597
20
97.557002
11
77.847532
21
95.211095
0
LINE
8
Layer 1
10
77.847532
20
95.211095
11
77.352309
21
93.851422
0
LINE
8
Layer 1
10
77.352309
20
93.851422
11
77.378934
21
93.519389
0
LINE
8
Layer 1
10
77.378934
20
93.519389
11
77.586675
21
93.407473
0
LINE
8
Layer 1
10
77.586675
20
93.407473
11
78.540377
21
93.808736
0
LINE
8
Layer 1
10
78.540377
20
93.808736
11
79.590906
21
94.639308
0
LINE
8
Layer 1
10
79.590906
20
94.639308
11
80.563912
21
95.687631
0
LINE
8
Layer 1
10
80.563912
20
95.687631
11
81.052730
21
96.394499
0
LINE
8
Layer 1
10
81.052730
20
96.394499
11
81.295221
21
97.017957
0
LINE
8
Layer 1
10
81.295221
20
97.017957
11
81.336628
21
97.778470
0
LINE
8
Layer 1
10
81.336628
20
97.778470
11
81.222196
21
98.896500
0
LINE
8
Layer 1
10
81.222196
20
98.896500
11
80.962551
21
100.902396
0
LINE
8
Layer 1
10
80.962551
20
100.902396
11
79.082597
21
97.557002
0
LINE
8
Layer 1
10
88.024461
20
162.051523
11
88.691564
21
158.425318
0
LINE
8
Layer 1
10
88.691564
20
158.425318
11
89.079444
21
156.788693
0
LINE
8
Layer 1
10
89.079444
20
156.788693
11
89.462031
21
156.034189
0
LINE
8
Layer 1
10
89.462031
20
156.034189
11
89.654869
21
156.086284
0
LINE
8
Layer 1
10
89.654869
20
156.086284
11
89.857297
21
156.340951
0
LINE
8
Layer 1
10
89.857297
20
156.340951
11
90.247403
21
157.311686
0
LINE
8
Layer 1
10
90.247403
20
157.311686
11
90.545302
21
158.653764
0
LINE
8
Layer 1
10
90.545302
20
158.653764
11
90.663946
21
160.074555
0
LINE
8
Layer 1
10
90.663946
20
160.074555
11
90.524863
21
161.169292
0
LINE
8
Layer 1
10
90.524863
20
161.169292
11
90.120139
21
162.068368
0
LINE
8
Layer 1
10
90.120139
20
162.068368
11
89.468558
21
162.743740
0
LINE
8
Layer 1
10
89.468558
20
162.743740
11
88.588906
21
163.167360
0
LINE
8
Layer 1
10
88.588906
20
163.167360
11
88.120802
21
163.278165
0
LINE
8
Layer 1
10
88.120802
20
163.278165
11
87.902400
21
163.191790
0
LINE
8
Layer 1
10
87.902400
20
163.191790
11
88.024461
21
162.051523
0
LINE
8
Layer 1
10
114.652850
20
103.690048
11
113.469941
21
102.863401
0
LINE
8
Layer 1
10
113.469941
20
102.863401
11
112.359793
21
102.359016
0
LINE
8
Layer 1
10
112.359793
20
102.359016
11
111.532837
21
101.964699
0
LINE
8
Layer 1
10
111.532837
20
101.964699
11
111.355153
21
101.665179
0
LINE
8
Layer 1
10
111.355153
20
101.665179
11
111.301459
21
101.262935
0
LINE
8
Layer 1
10
111.301459
20
101.262935
11
111.480891
21
100.569859
0
LINE
8
Layer 1
10
111.480891
20
100.569859
11
111.912470
21
100.056434
0
LINE
8
Layer 1
10
111.912470
20
100.056434
11
112.260734
21
99.911013
0
LINE
8
Layer 1
10
112.260734
20
99.911013
11
112.598315
21
99.974413
0
LINE
8
Layer 1
10
112.598315
20
99.974413
11
113.525724
21
100.871351
0
LINE
8
Layer 1
10
113.525724
20
100.871351
11
114.258549
21
101.583340
0
LINE
8
Layer 1
10
114.258549
20
101.583340
11
114.836427
21
101.805287
0
LINE
8
Layer 1
10
114.836427
20
101.805287
11
115.226384
21
101.538747
0
LINE
8
Layer 1
10
115.226384
20
101.538747
11
115.395448
21
100.785274
0
LINE
8
Layer 1
10
115.395448
20
100.785274
11
115.451056
21
100.561599
0
LINE
8
Layer 1
10
115.451056
20
100.561599
11
115.566804
21
100.632725
0
LINE
8
Layer 1
10
115.566804
20
100.632725
11
115.897671
21
101.413263
0
LINE
8
Layer 1
10
115.897671
20
101.413263
11
116.225959
21
102.634663
0
LINE
8
Layer 1
10
116.225959
20
102.634663
11
116.389576
21
103.804700
0
LINE
8
Layer 1
10
116.389576
20
103.804700
11
116.348748
21
104.484741
0
LINE
8
Layer 1
10
116.348748
20
104.484741
11
116.110573
21
104.696567
0
LINE
8
Layer 1
10
116.110573
20
104.696567
11
115.577718
21
104.433797
0
LINE
8
Layer 1
10
115.577718
20
104.433797
11
114.652850
21
103.690048
0
LINE
8
Layer 1
10
53.174228
20
162.720038
11
52.653693
21
161.980648
0
LINE
8
Layer 1
10
52.653693
20
161.980648
11
52.178071
21
160.898557
0
LINE
8
Layer 1
10
52.178071
20
160.898557
11
51.130585
21
157.067828
0
LINE
8
Layer 1
10
51.130585
20
157.067828
11
50.501758
21
154.126542
0
LINE
8
Layer 1
10
50.501758
20
154.126542
11
50.604428
21
153.827541
0
LINE
8
Layer 1
10
50.604428
20
153.827541
11
50.958782
21
153.810982
0
LINE
8
Layer 1
10
50.958782
20
153.810982
11
51.412851
21
153.645617
0
LINE
8
Layer 1
10
51.412851
20
153.645617
11
51.785694
21
153.247948
0
LINE
8
Layer 1
10
51.785694
20
153.247948
11
51.938458
21
153.194332
0
LINE
8
Layer 1
10
51.938458
20
153.194332
11
52.078588
21
153.608267
0
LINE
8
Layer 1
10
52.078588
20
153.608267
11
52.326502
21
155.864856
0
LINE
8
Layer 1
10
52.326502
20
155.864856
11
52.698904
21
158.710098
0
LINE
8
Layer 1
10
52.698904
20
158.710098
11
53.298053
21
161.038345
0
LINE
8
Layer 1
10
53.298053
20
161.038345
11
53.871273
21
163.053545
0
LINE
8
Layer 1
10
53.871273
20
163.053545
11
53.816378
21
163.186484
0
LINE
8
Layer 1
10
53.816378
20
163.186484
11
53.681980
21
163.174179
0
LINE
8
Layer 1
10
53.681980
20
163.174179
11
53.174228
21
162.720038
0
LINE
8
Layer 1
10
123.310375
20
90.687356
11
123.190485
21
89.781279
0
LINE
8
Layer 1
10
123.190485
20
89.781279
11
123.277037
21
88.195156
0
LINE
8
Layer 1
10
123.277037
20
88.195156
11
123.517841
21
86.458750
0
LINE
8
Layer 1
10
123.517841
20
86.458750
11
123.860709
21
85.101822
0
LINE
8
Layer 1
10
123.860709
20
85.101822
11
124.240915
21
84.422063
0
LINE
8
Layer 1
10
124.240915
20
84.422063
11
124.455228
21
84.474213
0
LINE
8
Layer 1
10
124.455228
20
84.474213
11
124.770876
21
84.755394
0
LINE
8
Layer 1
10
124.770876
20
84.755394
11
125.218110
21
85.664768
0
LINE
8
Layer 1
10
125.218110
20
85.664768
11
125.501832
21
87.059387
0
LINE
8
Layer 1
10
125.501832
20
87.059387
11
125.558458
21
88.020878
0
LINE
8
Layer 1
10
125.558458
20
88.020878
11
125.468274
21
88.703730
0
LINE
8
Layer 1
10
125.468274
20
88.703730
11
125.176146
21
89.290868
0
LINE
8
Layer 1
10
125.176146
20
89.290868
11
124.626942
21
89.965220
0
LINE
8
Layer 1
10
124.626942
20
89.965220
11
123.761225
21
90.761660
0
LINE
8
Layer 1
10
123.761225
20
90.761660
11
123.493963
21
90.827878
0
LINE
8
Layer 1
10
123.493963
20
90.827878
11
123.310375
21
90.687356
0
LINE
8
Layer 1
10
68.262543
20
172.509980
11
69.901517
21
172.171429
0
LINE
8
Layer 1
10
69.901517
20
172.171429
11
71.526798
21
171.579307
0
LINE
8
Layer 1
10
71.526798
20
171.579307
11
73.480956
21
170.581513
0
LINE
8
Layer 1
10
73.480956
20
170.581513
11
76.106562
21
169.025944
0
LINE
8
Layer 1
10
76.106562
20
169.025944
11
78.733396
21
167.468970
0
LINE
8
Layer 1
10
78.733396
20
167.468970
11
79.926751
21
166.891814
0
LINE
8
Layer 1
10
79.926751
20
166.891814
11
79.980137
21
166.971722
0
LINE
8
Layer 1
10
79.980137
20
166.971722
11
79.668269
21
167.297850
0
LINE
8
Layer 1
10
79.668269
20
167.297850
11
77.939596
21
168.690452
0
LINE
8
Layer 1
10
77.939596
20
168.690452
11
75.247652
21
170.570677
0
LINE
8
Layer 1
10
75.247652
20
170.570677
11
72.840764
21
171.865410
0
LINE
8
Layer 1
10
72.840764
20
171.865410
11
70.652223
21
172.604188
0
LINE
8
Layer 1
10
70.652223
20
172.604188
11
68.615321
21
172.816544
0
LINE
8
Layer 1
10
68.615321
20
172.816544
11
66.498653
21
172.772799
0
LINE
8
Layer 1
10
66.498653
20
172.772799
11
68.262543
21
172.509980
0
LINE
8
Layer 1
10
91.016724
20
80.441977
11
89.804138
21
79.534588
0
LINE
8
Layer 1
10
89.804138
20
79.534588
11
89.893567
21
79.402710
0
LINE
8
Layer 1
10
89.893567
20
79.402710
11
90.381724
21
79.376235
0
LINE
8
Layer 1
10
90.381724
20
79.376235
11
91.143283
21
79.216603
0
LINE
8
Layer 1
10
91.143283
20
79.216603
11
91.636555
21
78.834721
0
LINE
8
Layer 1
10
91.636555
20
78.834721
11
91.836123
21
78.581404
0
LINE
8
Layer 1
10
91.836123
20
78.581404
11
92.098826
21
78.533007
0
LINE
8
Layer 1
10
92.098826
20
78.533007
11
93.153500
21
79.113416
0
LINE
8
Layer 1
10
93.153500
20
79.113416
11
94.007019
21
79.869391
0
LINE
8
Layer 1
10
94.007019
20
79.869391
11
94.357929
21
80.579693
0
LINE
8
Layer 1
10
94.357929
20
80.579693
11
94.189791
21
81.131179
0
LINE
8
Layer 1
10
94.189791
20
81.131179
11
93.486170
21
81.410706
0
LINE
8
Layer 1
10
93.486170
20
81.410706
11
92.407948
21
81.183517
0
LINE
8
Layer 1
10
92.407948
20
81.183517
11
91.016724
21
80.441977
0
LINE
8
Layer 1
10
31.220147
20
67.379314
11
31.234424
21
66.660413
0
LINE
8
Layer 1
10
31.234424
20
66.660413
11
31.700543
21
65.614321
0
LINE
8
Layer 1
10
31.700543
20
65.614321
11
32.428732
21
64.572662
0
LINE
8
Layer 1
10
32.428732
20
64.572662
11
33.229218
21
63.867056
0
LINE
8
Layer 1
10
33.229218
20
63.867056
11
34.001411
21
63.552995
0
LINE
8
Layer 1
10
34.001411
20
63.552995
11
34.414596
21
63.652214
0
LINE
8
Layer 1
10
34.414596
20
63.652214
11
34.460871
21
64.154394
0
LINE
8
Layer 1
10
34.460871
20
64.154394
11
34.132330
21
65.049215
0
LINE
8
Layer 1
10
34.132330
20
65.049215
11
33.451827
21
66.068534
0
LINE
8
Layer 1
10
33.451827
20
66.068534
11
32.563129
21
66.937900
0
LINE
8
Layer 1
10
32.563129
20
66.937900
11
31.730987
21
67.445449
0
LINE
8
Layer 1
10
31.730987
20
67.445449
11
31.418857
21
67.497333
0
LINE
8
Layer 1
10
31.418857
20
67.497333
11
31.220147
21
67.379314
0
LINE
8
Layer 1
10
117.515996
20
12.518454
11
116.490471
21
11.505937
0
LINE
8
Layer 1
10
116.490471
20
11.505937
11
116.063962
21
10.914373
0
LINE
8
Layer 1
10
116.063962
20
10.914373
11
116.636918
21
10.961160
0
LINE
8
Layer 1
10
116.636918
20
10.961160
11
118.014472
21
11.484462
0
LINE
8
Layer 1
10
118.014472
20
11.484462
11
119.774481
21
12.093665
0
LINE
8
Layer 1
10
119.774481
20
12.093665
11
121.267790
21
12.347004
0
LINE
8
Layer 1
10
121.267790
20
12.347004
11
122.289435
21
12.419764
0
LINE
8
Layer 1
10
122.289435
20
12.419764
11
121.809305
21
12.880404
0
LINE
8
Layer 1
10
121.809305
20
12.880404
11
120.669765
21
13.504888
0
LINE
8
Layer 1
10
120.669765
20
13.504888
11
119.636986
21
13.658015
0
LINE
8
Layer 1
10
119.636986
20
13.658015
11
118.617038
21
13.331850
0
LINE
8
Layer 1
10
118.617038
20
13.331850
11
117.515996
21
12.518454
0
LINE
8
Layer 1
10
85.568421
20
92.454774
11
85.773798
21
91.035317
0
LINE
8
Layer 1
10
85.773798
20
91.035317
11
86.078493
21
90.037010
0
LINE
8
Layer 1
10
86.078493
20
90.037010
11
86.530496
21
89.353293
0
LINE
8
Layer 1
10
86.530496
20
89.353293
11
87.177794
21
88.877605
0
LINE
8
Layer 1
10
87.177794
20
88.877605
11
87.751323
21
88.680226
0
LINE
8
Layer 1
10
87.751323
20
88.680226
11
87.653339
21
89.310464
0
LINE
8
Layer 1
10
87.653339
20
89.310464
11
86.384749
21
92.251221
0
LINE
8
Layer 1
10
86.384749
20
92.251221
11
85.371570
21
94.367889
0
LINE
8
Layer 1
10
85.371570
20
94.367889
11
85.568421
21
92.454774
0
LINE
8
Layer 1
10
32.675709
20
126.809707
11
32.462984
21
125.261496
0
LINE
8
Layer 1
10
32.462984
20
125.261496
11
32.522714
21
124.507681
0
LINE
8
Layer 1
10
32.522714
20
124.507681
11
32.691584
21
124.059097
0
LINE
8
Layer 1
10
32.691584
20
124.059097
11
33.076614
21
124.054174
0
LINE
8
Layer 1
10
33.076614
20
124.054174
11
33.585568
21
124.433526
0
LINE
8
Layer 1
10
33.585568
20
124.433526
11
34.029501
21
125.008075
0
LINE
8
Layer 1
10
34.029501
20
125.008075
11
34.219466
21
125.588742
0
LINE
8
Layer 1
10
34.219466
20
125.588742
11
34.025085
21
126.185819
0
LINE
8
Layer 1
10
34.025085
20
126.185819
11
33.557654
21
126.783954
0
LINE
8
Layer 1
10
33.557654
20
126.783954
11
32.964811
21
127.199394
0
LINE
8
Layer 1
10
32.964811
20
127.199394
11
32.675709
21
126.809707
0
LINE
8
Layer 1
10
52.468672
20
171.465757
11
49.734201
21
170.327210
0
LINE
8
Layer 1
10
49.734201
20
170.327210
11
48.945511
21
169.807265
0
LINE
8
Layer 1
10
48.945511
20
169.807265
11
48.778365
21
169.604755
0
LINE
8
Layer 1
10
48.778365
20
169.604755
11
48.794136
21
169.457745
0
LINE
8
Layer 1
10
48.794136
20
169.457745
11
49.817766
21
169.728149
0
LINE
8
Layer 1
10
49.817766
20
169.728149
11
52.037577
21
170.619795
0
LINE
8
Layer 1
10
52.037577
20
170.619795
11
53.976947
21
171.513977
0
LINE
8
Layer 1
10
53.976947
20
171.513977
11
54.704623
21
171.971464
0
LINE
8
Layer 1
10
54.704623
20
171.971464
11
54.206550
21
171.964607
0
LINE
8
Layer 1
10
54.206550
20
171.964607
11
52.468672
21
171.465757
0
LINE
8
Layer 1
10
112.342507
20
107.477825
11
112.212596
21
106.525308
0
LINE
8
Layer 1
10
112.212596
20
106.525308
11
112.262867
21
105.601267
0
LINE
8
Layer 1
10
112.262867
20
105.601267
11
112.467523
21
104.873083
0
LINE
8
Layer 1
10
112.467523
20
104.873083
11
112.800765
21
104.508140
0
LINE
8
Layer 1
10
112.800765
20
104.508140
11
113.001976
21
104.541808
0
LINE
8
Layer 1
10
113.001976
20
104.541808
11
113.138859
21
104.810823
0
LINE
8
Layer 1
10
113.138859
20
104.810823
11
113.241738
21
106.135858
0
LINE
8
Layer 1
10
113.241738
20
106.135858
11
113.150297
21
107.347402
0
LINE
8
Layer 1
10
113.150297
20
107.347402
11
112.922959
21
108.044960
0
LINE
8
Layer 1
10
112.922959
20
108.044960
11
112.780353
21
108.168159
0
LINE
8
Layer 1
10
112.780353
20
108.168159
11
112.630203
21
108.123458
0
LINE
8
Layer 1
10
112.630203
20
108.123458
11
112.342507
21
107.477825
0
LINE
8
Layer 1
10
92.499803
20
160.402639
11
92.203116
21
159.474921
0
LINE
8
Layer 1
10
92.203116
20
159.474921
11
92.086347
21
158.638749
0
LINE
8
Layer 1
10
92.086347
20
158.638749
11
92.164487
21
158.057503
0
LINE
8
Layer 1
10
92.164487
20
158.057503
11
92.631036
21
158.573485
0
LINE
8
Layer 1
10
92.631036
20
158.573485
11
92.972569
21
159.382670
0
LINE
8
Layer 1
10
92.972569
20
159.382670
11
93.044492
21
160.337375
0
LINE
8
Layer 1
10
93.044492
20
160.337375
11
92.924195
21
161.395709
0
LINE
8
Layer 1
10
92.924195
20
161.395709
11
92.499803
21
160.402639
0
LINE
8
Layer 1
10
90.374668
20
83.872743
11
90.558024
21
83.312091
0
LINE
8
Layer 1
10
90.558024
20
83.312091
11
90.840335
21
83.078993
0
LINE
8
Layer 1
10
90.840335
20
83.078993
11
91.122646
21
83.312091
0
LINE
8
Layer 1
10
91.122646
20
83.312091
11
91.306002
21
83.872743
0
LINE
8
Layer 1
10
91.306002
20
83.872743
11
91.251365
21
84.474406
0
LINE
8
Layer 1
10
91.251365
20
84.474406
11
90.840335
21
84.666494
0
LINE
8
Layer 1
10
90.840335
20
84.666494
11
90.429305
21
84.474406
0
LINE
8
Layer 1
10
90.429305
20
84.474406
11
90.374668
21
83.872743
0
LINE
8
Layer 1
10
105.520486
20
160.954031
11
105.854495
21
160.152977
0
LINE
8
Layer 1
10
105.854495
20
160.152977
11
106.185164
21
159.664230
0
LINE
8
Layer 1
10
106.185164
20
159.664230
11
106.438111
21
159.563033
0
LINE
8
Layer 1
10
106.438111
20
159.563033
11
106.538956
21
159.924625
0
LINE
8
Layer 1
10
106.538956
20
159.924625
11
106.333286
21
160.530212
0
LINE
8
Layer 1
10
106.333286
20
160.530212
11
105.838692
21
161.268356
0
LINE
8
Layer 1
10
105.838692
20
161.268356
11
105.138075
21
162.101265
0
LINE
8
Layer 1
10
105.138075
20
162.101265
11
105.520486
21
160.954031
 0 
ENDSEC
 0 
EOF