999
Inkscape export via OpenSCAD DXF Export
  0
SECTION
  2
HEADER
  9
$ACADVER
  1
AC1014
  9
$HANDSEED
  5
FFFF
  9
$MEASUREMENT
 70
     1
  0
ENDSEC
  0
SECTION
  2
TABLES
  0
TABLE
  2
VPORT
  5
8
330
0
100
AcDbSymbolTable
 70
     4
  0
VPORT
  5
2E
330
8
100
AcDbSymbolTableRecord
100
AcDbViewportTableRecord
  2
*ACTIVE
 70
     0
 10
0.0
 20
0.0
 11
1.0
 21
1.0
 12
210.0
 22
148.5
 13
0.0
 23
0.0
 14
10.0
 24
10.0
 15
10.0
 25
10.0
 16
0.0
 26
0.0
 36
1.0
 17
0.0
 27
0.0
 37
0.0
 40
341.0
 41
1.24
 42
50.0
 43
0.0
 44
0.0
 50
0.0
 51
0.0
 71
     0
 72
   100
 73
     1
 74
     3
 75
     0
 76
     0
 77
     0
 78
     0
  0
ENDTAB
  0
TABLE
  2
LTYPE
  5
5
330
0
100
AcDbSymbolTable
 70
     1
  0
LTYPE
  5
14
330
5
100
AcDbSymbolTableRecord
100
AcDbLinetypeTableRecord
  2
BYBLOCK
 70
     0
  3

 72
    65
 73
     0
 40
0.0
  0
LTYPE
  5
15
330
5
100
AcDbSymbolTableRecord
100
AcDbLinetypeTableRecord
  2
BYLAYER
 70
     0
  3

 72
    65
 73
     0
 40
0.0
  0
LTYPE
  5
16
330
5
100
AcDbSymbolTableRecord
100
AcDbLinetypeTableRecord
  2
CONTINUOUS
 70
     0
  3
Solid line
 72
    65
 73
     0
 40
0.0
  0
ENDTAB
  0
TABLE
0
TABLE
2
LAYER
5
2
330
0
100
AcDbSymbolTable
70
1
0
LAYER
5
10
330
2
100
AcDbSymbolTableRecord
100
AcDbLayerTableRecord
2
Capa_1
70
0
62
7
6
CONTINUOUS
0
ENDTAB
0
ENDSEC
  0
ENDTAB
  0
TABLE
  2
STYLE
  5
3
330
0
100
AcDbSymbolTable
 70
     1
  0
STYLE
  5
11
330
3
100
AcDbSymbolTableRecord
100
AcDbTextStyleTableRecord
  2
STANDARD
 70
     0
 40
0.0
 41
1.0
 50
0.0
 71
     0
 42
2.5
  3
txt
  4

  0
ENDTAB
  0
TABLE
  2
VIEW
  5
6
330
0
100
AcDbSymbolTable
 70
     0
  0
ENDTAB
  0
TABLE
  2
UCS
  5
7
330
0
100
AcDbSymbolTable
 70
     0
  0
ENDTAB
  0
TABLE
  2
APPID
  5
9
330
0
100
AcDbSymbolTable
 70
     2
  0
APPID
  5
12
330
9
100
AcDbSymbolTableRecord
100
AcDbRegAppTableRecord
  2
ACAD
 70
     0
  0
ENDTAB
  0
TABLE
  2
DIMSTYLE
  5
A
330
0
100
AcDbSymbolTable
 70
     1
  0
DIMSTYLE
105
27
330
A
100
AcDbSymbolTableRecord
100
AcDbDimStyleTableRecord
  2
ISO-25
 70
     0
  3

  4

  5

  6

  7

 40
1.0
 41
2.5
 42
0.625
 43
3.75
 44
1.25
 45
0.0
 46
0.0
 47
0.0
 48
0.0
140
2.5
141
2.5
142
0.0
143
0.03937007874016
144
1.0
145
0.0
146
1.0
147
0.625
 71
     0
 72
     0
 73
     0
 74
     0
 75
     0
 76
     0
 77
     1
 78
     8
170
     0
171
     3
172
     1
173
     0
174
     0
175
     0
176
     0
177
     0
178
     0
270
     2
271
     2
272
     2
273
     2
274
     3
340
11
275
     0
280
     0
281
     0
282
     0
283
     0
284
     8
285
     0
286
     0
287
     3
288
     0
  0
ENDTAB
  0
TABLE
  2
BLOCK_RECORD
  5
1
330
0
100
AcDbSymbolTable
 70
     1
  0
BLOCK_RECORD
  5
1F
330
1
100
AcDbSymbolTableRecord
100
AcDbBlockTableRecord
  2
*MODEL_SPACE
  0
BLOCK_RECORD
  5
1B
330
1
100
AcDbSymbolTableRecord
100
AcDbBlockTableRecord
  2
*PAPER_SPACE
  0
ENDTAB
  0
ENDSEC
  0
SECTION
  2
BLOCKS
  0
BLOCK
  5
20
330
1F
100
AcDbEntity
  8
0
100
AcDbBlockBegin
  2
*MODEL_SPACE
 70
     0
 10
0.0
 20
0.0
 30
0.0
  3
*MODEL_SPACE
  1

  0
ENDBLK
  5
21
330
1F
100
AcDbEntity
  8
0
100
AcDbBlockEnd
  0
BLOCK
  5
1C
330
1B
100
AcDbEntity
 67
     1
  8
0
100
AcDbBlockBegin
  2
*PAPER_SPACE
  1

  0
ENDBLK
  5
1D
330
1B
100
AcDbEntity
 67
     1
  8
0
100
AcDbBlockEnd
  0
ENDSEC
  0
SECTION
  2
ENTITIES
0
DIMENSION
5
83
100
AcDbEntity
62
256
370
-1
6
ByLayer
1
total_width
3
Standard
70
0
71
5
72
1
41
1.0
100
AcDbAlignedDimension
13
45.051050
23
0.000000
33
0.0
14
89.213247
24
0.000000
34
0.0
50
0.000000
100
AcDbRotatedDimension
0
DIMENSION
5
83
100
AcDbEntity
62
256
370
-1
6
ByLayer
1
total_minx
3
Standard
70
0
71
5
72
1
41
1.0
100
AcDbAlignedDimension
13
45.051050
23
0.000000
33
0.0
14
0.000000
24
0.000000
34
0.0
50
0.000000
100
AcDbRotatedDimension
0
DIMENSION
5
83
100
AcDbEntity
62
256
370
-1
6
ByLayer
1
total_maxx
3
Standard
70
0
71
5
72
1
41
1.0
100
AcDbAlignedDimension
13
0.000000
23
0.000000
33
0.0
14
89.213247
24
0.000000
34
0.0
50
0.000000
100
AcDbRotatedDimension
0
DIMENSION
5
83
100
AcDbEntity
62
256
370
-1
6
ByLayer
1
total_height
3
Standard
70
0
71
5
72
1
41
1.0
100
AcDbAlignedDimension
13
0.000000
23
-123.522506
33
0.0
14
0.000000
24
-72.519644
34
0.0
50
90.000000
100
AcDbRotatedDimension
0
DIMENSION
5
83
100
AcDbEntity
62
256
370
-1
6
ByLayer
1
total_miny
3
Standard
70
0
71
5
72
1
41
1.0
100
AcDbAlignedDimension
13
-123.522506
23
0.000000
33
0.0
14
0.000000
24
0.000000
34
0.0
50
0.000000
100
AcDbRotatedDimension
0
DIMENSION
5
83
100
AcDbEntity
62
256
370
-1
6
ByLayer
1
total_maxy
3
Standard
70
0
71
5
72
1
41
1.0
100
AcDbAlignedDimension
13
0.000000
23
0.000000
33
0.0
14
-72.519644
24
0.000000
34
0.0
50
0.000000
100
AcDbRotatedDimension
0
DIMENSION
8
Capa_1
5
83
100
AcDbEntity
62
256
370
-1
6
ByLayer
1
Capa_1_width
3
Standard
70
0
71
5
72
1
41
1.0
100
AcDbAlignedDimension
13
45.051050
23
0.000000
33
0.0
14
89.213247
24
0.000000
34
0.0
50
0.000000
100
AcDbRotatedDimension
0
DIMENSION
8
Capa_1
5
83
100
AcDbEntity
62
256
370
-1
6
ByLayer
1
Capa_1_minx
3
Standard
70
0
71
5
72
1
41
1.0
100
AcDbAlignedDimension
13
45.051050
23
0.000000
33
0.0
14
0.000000
24
0.000000
34
0.0
50
0.000000
100
AcDbRotatedDimension
0
DIMENSION
8
Capa_1
5
83
100
AcDbEntity
62
256
370
-1
6
ByLayer
1
Capa_1_maxx
3
Standard
70
0
71
5
72
1
41
1.0
100
AcDbAlignedDimension
13
0.000000
23
0.000000
33
0.0
14
89.213247
24
0.000000
34
0.0
50
0.000000
100
AcDbRotatedDimension
0
DIMENSION
8
Capa_1
5
83
100
AcDbEntity
62
256
370
-1
6
ByLayer
1
Capa_1_height
3
Standard
70
0
71
5
72
1
41
1.0
100
AcDbAlignedDimension
13
0.000000
23
-123.522506
33
0.0
14
0.000000
24
-72.519644
34
0.0
50
90.000000
100
AcDbRotatedDimension
0
DIMENSION
8
Capa_1
5
83
100
AcDbEntity
62
256
370
-1
6
ByLayer
1
Capa_1_miny
3
Standard
70
0
71
5
72
1
41
1.0
100
AcDbAlignedDimension
13
-123.522506
23
0.000000
33
0.0
14
0.000000
24
0.000000
34
0.0
50
0.000000
100
AcDbRotatedDimension
0
DIMENSION
8
Capa_1
5
83
100
AcDbEntity
62
256
370
-1
6
ByLayer
1
Capa_1_maxy
3
Standard
70
0
71
5
72
1
41
1.0
100
AcDbAlignedDimension
13
0.000000
23
0.000000
33
0.0
14
-72.519644
24
0.000000
34
0.0
50
0.000000
100
AcDbRotatedDimension
62
0
0
LWPOLYLINE
100
AcDbPolyline
8
Capa_1
90
222
70
0
10
56.343177
20
-72.519659
30
0.0
10
54.976479
20
-75.543002
30
0.0
10
53.388664
20
-79.866256
30
0.0
10
52.429947
20
-82.922920
30
0.0
10
51.836441
20
-85.316672
30
0.0
10
51.280816
20
-87.450978
30
0.0
10
50.772284
20
-88.536010
30
0.0
10
50.100383
20
-89.478226
30
0.0
10
49.240382
20
-90.304197
30
0.0
10
48.167552
20
-91.040492
30
0.0
10
47.294427
20
-91.525561
30
0.0
10
46.217018
20
-92.130209
30
0.0
10
45.631293
20
-92.589222
30
0.0
10
45.464826
20
-92.988245
30
0.0
10
45.645191
20
-93.412922
30
0.0
10
46.028215
20
-94.136379
30
0.0
10
46.315469
20
-95.185631
30
0.0
10
46.704354
20
-98.368842
30
0.0
10
46.641789
20
-101.226950
30
0.0
10
46.395232
20
-102.145116
30
0.0
10
45.874497
20
-102.832089
30
0.0
10
45.177761
20
-103.237784
30
0.0
10
45.051050
20
-103.326371
30
0.0
10
45.124844
20
-103.414172
30
0.0
10
46.324289
20
-103.564103
30
0.0
10
48.335122
20
-103.863964
30
0.0
10
48.714358
20
-104.049172
30
0.0
10
48.965882
20
-104.429105
30
0.0
10
49.014219
20
-104.957575
30
0.0
10
48.842226
20
-105.495952
30
0.0
10
48.467414
20
-105.980631
30
0.0
10
47.919159
20
-106.370789
30
0.0
10
47.276789
20
-106.500978
30
0.0
10
46.617380
20
-106.359424
30
0.0
10
46.447761
20
-105.936534
30
0.0
10
46.597691
20
-105.425006
30
0.0
10
46.729983
20
-104.957575
30
0.0
10
46.668247
20
-104.834103
30
0.0
10
46.165539
20
-105.222159
30
0.0
10
45.971511
20
-105.530839
30
0.0
10
45.892136
20
-105.954172
30
0.0
10
45.968530
20
-106.417517
30
0.0
10
46.333108
20
-107.215353
30
0.0
10
46.763266
20
-108.210810
30
0.0
10
46.774080
20
-108.644103
30
0.0
10
46.271372
20
-108.511811
30
0.0
10
45.698108
20
-108.308964
30
0.0
10
45.601094
20
-108.423617
30
0.0
10
45.971511
20
-109.173270
30
0.0
10
47.461997
20
-110.602020
30
0.0
10
48.450405
20
-111.475521
30
0.0
10
49.058316
20
-112.295353
30
0.0
10
49.181789
20
-112.736325
30
0.0
10
49.384636
20
-113.212575
30
0.0
10
49.710955
20
-113.274311
30
0.0
10
50.328316
20
-113.186117
30
0.0
10
50.901580
20
-113.062645
30
0.0
10
51.494931
20
-113.102781
30
0.0
10
51.968733
20
-113.362506
30
0.0
10
52.559636
20
-114.535492
30
0.0
10
52.515539
20
-115.690839
30
0.0
10
52.037938
20
-116.643600
30
0.0
10
51.139705
20
-117.719311
30
0.0
10
48.996580
20
-119.641950
30
0.0
10
46.968108
20
-121.405839
30
0.0
10
45.897413
20
-122.559390
30
0.0
10
45.389427
20
-123.504867
30
0.0
10
45.389427
20
-123.522506
30
0.0
10
61.881789
20
-123.522506
30
0.0
10
60.620608
20
-122.190770
30
0.0
10
60.206094
20
-121.582228
30
0.0
10
60.682344
20
-121.449936
30
0.0
10
63.395912
20
-121.277557
30
0.0
10
67.799636
20
-121.211811
30
0.0
10
73.511831
20
-121.061218
30
0.0
10
75.229922
20
-120.846913
30
0.0
10
76.513247
20
-120.515075
30
0.0
10
78.647552
20
-119.562575
30
0.0
10
81.116997
20
-118.389589
30
0.0
10
83.120796
20
-117.400843
30
0.0
10
84.503664
20
-116.546325
30
0.0
10
85.883679
20
-115.513335
30
0.0
10
86.949876
20
-114.506121
30
0.0
10
87.606561
20
-113.628244
30
0.0
10
87.758039
20
-112.983270
30
0.0
10
87.696302
20
-112.859797
30
0.0
10
87.634566
20
-112.692228
30
0.0
10
87.616927
20
-112.454103
30
0.0
10
87.855052
20
-112.321811
30
0.0
10
88.181372
20
-112.013131
30
0.0
10
88.419497
20
-111.095909
30
0.0
10
88.604456
20
-109.989833
30
0.0
10
88.904566
20
-109.376117
30
0.0
10
89.213247
20
-109.190909
30
0.0
10
89.213247
20
-82.097575
30
0.0
10
89.107414
20
-81.859450
30
0.0
10
88.207830
20
-79.681047
30
0.0
10
87.576958
20
-78.388150
30
0.0
10
86.477567
20
-76.756949
30
0.0
10
82.916164
20
-72.519659
30
0.0
10
76.857205
20
-72.519659
30
0.0
10
77.466703
20
-73.437009
30
0.0
10
78.030191
20
-74.036603
30
0.0
10
78.621094
20
-74.927367
30
0.0
10
79.123802
20
-76.867645
30
0.0
10
79.429866
20
-78.238208
30
0.0
10
79.873455
20
-79.398825
30
0.0
10
80.332066
20
-80.077922
30
0.0
10
80.805508
20
-80.802019
30
0.0
10
81.019983
20
-81.444936
30
0.0
10
81.716719
20
-83.385214
30
0.0
10
82.413455
20
-85.157922
30
0.0
10
82.607146
20
-86.349701
30
0.0
10
82.563386
20
-87.406881
30
0.0
10
82.545747
20
-88.915006
30
0.0
10
82.836789
20
-89.576464
30
0.0
10
83.119011
20
-90.070353
30
0.0
10
83.077975
20
-90.296699
30
0.0
10
82.863247
20
-90.511325
30
0.0
10
82.616302
20
-90.811186
30
0.0
10
82.314510
20
-91.886405
30
0.0
10
82.192969
20
-93.307089
30
0.0
10
82.062882
20
-94.898422
30
0.0
10
81.699613
20
-96.407683
30
0.0
10
81.139846
20
-97.724840
30
0.0
10
80.420261
20
-98.739867
30
0.0
10
79.960029
20
-99.132642
30
0.0
10
79.502846
20
-99.338451
30
0.0
10
79.043555
20
-99.359622
30
0.0
10
78.576997
20
-99.198478
30
0.0
10
78.244846
20
-98.902694
30
0.0
10
78.144844
20
-98.457645
30
0.0
10
78.083108
20
-98.043131
30
0.0
10
77.522944
20
-96.587072
30
0.0
10
76.469150
20
-95.229728
30
0.0
10
75.659932
20
-94.543294
30
0.0
10
74.872830
20
-94.127297
30
0.0
10
72.068247
20
-93.439381
30
0.0
10
70.718872
20
-93.254172
30
0.0
10
70.066233
20
-93.121881
30
0.0
10
70.551302
20
-92.680909
30
0.0
10
71.071650
20
-92.195839
30
0.0
10
70.905875
20
-92.078103
30
0.0
10
70.286719
20
-92.045909
30
0.0
10
69.510608
20
-92.107645
30
0.0
10
68.946164
20
-92.398686
30
0.0
10
68.840330
20
-92.716186
30
0.0
10
68.708784
20
-92.933208
30
0.0
10
68.408177
20
-93.086603
30
0.0
10
67.199914
20
-93.068964
30
0.0
10
66.132761
20
-92.513339
30
0.0
10
65.603594
20
-92.195839
30
0.0
10
65.315726
20
-92.349319
30
0.0
10
65.030330
20
-92.866117
30
0.0
10
64.475377
20
-93.787241
30
0.0
10
63.398733
20
-95.150353
30
0.0
10
60.717622
20
-98.034311
30
0.0
10
59.103664
20
-99.683547
30
0.0
10
58.627414
20
-98.686950
30
0.0
10
57.974775
20
-97.020075
30
0.0
10
57.580366
20
-94.971488
30
0.0
10
57.349436
20
-92.431828
30
0.0
10
57.312113
20
-89.954972
30
0.0
10
57.498525
20
-88.094797
30
0.0
10
57.731761
20
-87.509006
30
0.0
10
58.098247
20
-87.477436
30
0.0
10
58.331944
20
-87.659274
30
0.0
10
58.433386
20
-87.988964
30
0.0
10
58.627414
20
-88.324103
30
0.0
10
58.989728
20
-88.325392
30
0.0
10
59.438397
20
-88.096346
30
0.0
10
59.882859
20
-87.698957
30
0.0
10
60.232552
20
-87.195214
30
0.0
10
60.364844
20
-86.842436
30
0.0
10
60.580066
20
-86.348773
30
0.0
10
60.876372
20
-86.083964
30
0.0
10
61.643664
20
-86.022228
30
0.0
10
62.257670
20
-86.080823
30
0.0
10
62.851927
20
-85.951672
30
0.0
10
63.680955
20
-85.378409
30
0.0
10
64.379955
20
-84.807401
30
0.0
10
65.039150
20
-84.540561
30
0.0
10
65.400747
20
-84.584659
30
0.0
10
65.779374
20
-84.989604
30
0.0
10
65.929914
20
-85.704728
30
0.0
10
65.810071
20
-86.542491
30
0.0
10
65.321372
20
-87.159936
30
0.0
10
65.074427
20
-87.680284
30
0.0
10
65.186153
20
-88.129533
30
0.0
10
65.471302
20
-88.315284
30
0.0
10
65.718247
20
-88.182992
30
0.0
10
66.025677
20
-87.693333
30
0.0
10
66.284250
20
-86.943632
30
0.0
10
66.529636
20
-85.122645
30
0.0
10
66.446393
20
-84.483241
30
0.0
10
66.141580
20
-84.170145
30
0.0
10
65.397802
20
-83.982637
30
0.0
10
63.434011
20
-83.905561
30
0.0
10
61.696580
20
-83.852645
30
0.0
10
60.895817
20
-83.712765
30
0.0
10
60.497136
20
-83.517506
30
0.0
10
60.444219
20
-83.438131
30
0.0
10
60.497136
20
-83.358756
30
0.0
10
61.061580
20
-83.041256
30
0.0
10
62.693177
20
-82.794311
30
0.0
10
63.943425
20
-82.705443
30
0.0
10
64.448247
20
-82.529728
30
0.0
10
64.545261
20
-82.326881
30
0.0
10
64.380684
20
-81.990923
30
0.0
10
63.822066
20
-81.771256
30
0.0
10
62.966580
20
-81.709520
30
0.0
10
62.093455
20
-81.735964
30
0.0
10
59.103664
20
-82.141658
30
0.0
10
59.041927
20
-82.159297
30
0.0
10
59.050733
20
-79.592839
30
0.0
10
59.174205
20
-76.267908
30
0.0
10
59.464361
20
-75.310952
30
0.0
10
60.039776
20
-74.456389
30
0.0
10
61.022457
20
-73.570520
30
0.0
10
62.534413
20
-72.519644
30
0.0
10
56.343163
20
-72.519644
30
0.0
10
56.343177
20
-72.519659
30
0.0
62
0
0
LWPOLYLINE
100
AcDbPolyline
8
Capa_1
90
16
70
0
10
73.329427
20
-80.492436
30
0.0
10
72.083246
20
-80.685660
30
0.0
10
71.001094
20
-81.189172
30
0.0
10
70.286719
20
-81.788895
30
0.0
10
70.313163
20
-82.000561
30
0.0
10
72.024136
20
-81.912367
30
0.0
10
74.237778
20
-81.808987
30
0.0
10
76.186913
20
-82.009381
30
0.0
10
77.545108
20
-82.415075
30
0.0
10
78.603441
20
-82.741395
30
0.0
10
78.718094
20
-82.573825
30
0.0
10
78.612261
20
-82.379797
30
0.0
10
76.980663
20
-81.392020
30
0.0
10
75.097907
20
-80.688393
30
0.0
10
73.329413
20
-80.492436
30
0.0
10
73.329427
20
-80.492436
30
0.0
62
0
0
LWPOLYLINE
100
AcDbPolyline
8
Capa_1
90
35
70
0
10
73.893872
20
-82.785492
30
0.0
10
73.408802
20
-82.820770
30
0.0
10
71.255718
20
-83.320992
30
0.0
10
70.445249
20
-83.708260
30
0.0
10
69.854566
20
-84.170145
30
0.0
10
69.501177
20
-84.714423
30
0.0
10
69.457691
20
-85.369589
30
0.0
10
69.607956
20
-86.052647
30
0.0
10
69.863386
20
-86.480839
30
0.0
10
70.551302
20
-86.807159
30
0.0
10
71.036372
20
-86.789520
30
0.0
10
70.992275
20
-86.427922
30
0.0
10
70.674775
20
-86.048686
30
0.0
10
70.204081
20
-85.433654
30
0.0
10
70.057414
20
-84.999172
30
0.0
10
70.410191
20
-84.619936
30
0.0
10
71.674590
20
-84.299003
30
0.0
10
73.091302
20
-84.381811
30
0.0
10
73.585191
20
-84.575839
30
0.0
10
74.396580
20
-84.796325
30
0.0
10
74.738138
20
-84.724137
30
0.0
10
75.005122
20
-84.470006
30
0.0
10
75.428455
20
-84.187784
30
0.0
10
76.028177
20
-84.470006
30
0.0
10
76.724914
20
-84.866881
30
0.0
10
77.598039
20
-85.007992
30
0.0
10
78.532900
20
-84.831603
30
0.0
10
78.636722
20
-84.685542
30
0.0
10
78.568177
20
-84.478825
30
0.0
10
77.800886
20
-83.658617
30
0.0
10
76.888210
20
-83.144570
30
0.0
10
75.631302
20
-82.838409
30
0.0
10
74.546511
20
-82.785492
30
0.0
10
73.893872
20
-82.785492
30
0.0
10
73.893872
20
-82.785492
30
0.0
62
0
0
LWPOLYLINE
100
AcDbPolyline
8
Capa_1
90
9
70
0
10
89.213247
20
-116.899103
30
0.0
10
86.488039
20
-119.156881
30
0.0
10
85.244915
20
-120.215760
30
0.0
10
83.939219
20
-121.070700
30
0.0
10
81.840191
20
-122.137853
30
0.0
10
78.409427
20
-123.522506
30
0.0
10
89.213247
20
-123.522506
30
0.0
10
89.213247
20
-116.899103
30
0.0
10
89.213247
20
-116.899103
30
0.0
  0
ENDSEC
  0
SECTION
  2
OBJECTS
  0
DICTIONARY
  5
C
330
0
100
AcDbDictionary
  3
ACAD_GROUP
350
D
  3
ACAD_MLINESTYLE
350
17
  0
DICTIONARY
  5
D
330
C
100
AcDbDictionary
  0
DICTIONARY
  5
1A
330
C
100
AcDbDictionary
  0
DICTIONARY
  5
17
330
C
100
AcDbDictionary
  3
STANDARD
350
18
  0
DICTIONARY
  5
19
330
C
100
AcDbDictionary
  0
ENDSEC
  0
EOF
